<svg width="28" height="28" viewBox="0 0 28 28" fill="none" xmlns="http://www.w3.org/2000/svg">
<path d="M14.0003 0.666992C6.62699 0.666992 0.666992 6.62699 0.666992 14.0003C0.666992 21.3737 6.62699 27.3337 14.0003 27.3337C21.3737 27.3337 27.3337 21.3737 27.3337 14.0003C27.3337 6.62699 21.3737 0.666992 14.0003 0.666992ZM19.7337 19.7337C19.2137 20.2537 18.3737 20.2537 17.8537 19.7337L14.0003 15.8803L10.147 19.7337C9.62699 20.2537 8.78699 20.2537 8.26699 19.7337C8.01732 19.4845 7.87701 19.1463 7.87701 18.7937C7.87701 18.441 8.01732 18.1028 8.26699 17.8537L12.1203 14.0003L8.26699 10.147C8.01732 9.89788 7.87701 9.55968 7.87701 9.20699C7.87701 8.8543 8.01732 8.5161 8.26699 8.26699C8.78699 7.74699 9.62699 7.74699 10.147 8.26699L14.0003 12.1203L17.8537 8.26699C18.3737 7.74699 19.2137 7.74699 19.7337 8.26699C20.2537 8.78699 20.2537 9.62699 19.7337 10.147L15.8803 14.0003L19.7337 17.8537C20.2403 18.3603 20.2403 19.2137 19.7337 19.7337Z" fill="white"/>
</svg>
