<svg width="32" height="32" viewBox="0 0 32 32" fill="none" xmlns="http://www.w3.org/2000/svg">
<circle cx="16" cy="16" r="16" fill="black" fill-opacity="0.5"/>
<path d="M22.2997 9.71002C22.1129 9.52276 21.8592 9.41753 21.5947 9.41753C21.3302 9.41753 21.0766 9.52276 20.8897 9.71002L15.9997 14.59L11.1097 9.70002C10.9229 9.51276 10.6692 9.40753 10.4047 9.40753C10.1402 9.40753 9.88656 9.51276 9.69973 9.70002C9.30973 10.09 9.30973 10.72 9.69973 11.11L14.5897 16L9.69973 20.89C9.30973 21.28 9.30973 21.91 9.69973 22.3C10.0897 22.69 10.7197 22.69 11.1097 22.3L15.9997 17.41L20.8897 22.3C21.2797 22.69 21.9097 22.69 22.2997 22.3C22.6897 21.91 22.6897 21.28 22.2997 20.89L17.4097 16L22.2997 11.11C22.6797 10.73 22.6797 10.09 22.2997 9.71002Z" fill="white"/>
</svg>
