<svg width="24" height="24" viewBox="0 0 24 24" fill="none" 
    xmlns="http://www.w3.org/2000/svg">
    <path d="M22.6667 0H1.33333C0.596954 0 0 0.596954 0 1.33333V22.6667C0 23.403 0.596954 24 1.33333 24H12.82V14.72H9.70333V11.0867H12.82V8.42C12.82 5.32 14.7133 3.63 17.4867 3.63C18.4197 3.62727 19.3522 3.67512 20.28 3.77333V7H18.3667C16.8633 7 16.57 7.71667 16.57 8.76667V11.08H20.1667L19.7 14.7133H16.57V24H22.6667C23.403 24 24 23.403 24 22.6667V1.33333C24 0.596954 23.403 0 22.6667 0Z" fill="#4267B2"/>
</svg>
