<svg width="22" height="20" viewBox="0 0 22 20" fill="none" xmlns="http://www.w3.org/2000/svg">
<path d="M18.6602 1.16692C16.0202 -0.633076 12.7602 0.206924 11.0002 2.26692C9.24021 0.206924 5.98021 -0.643076 3.34021 1.16692C1.94021 2.12692 1.06021 3.74692 1.00021 5.45692C0.860213 9.33692 4.30021 12.4469 9.55021 17.2169L9.65021 17.3069C10.4102 17.9969 11.5802 17.9969 12.3402 17.2969L12.4502 17.1969C17.7002 12.4369 21.1302 9.32692 21.0002 5.44692C20.9402 3.74692 20.0602 2.12692 18.6602 1.16692ZM11.1002 15.7269L11.0002 15.8269L10.9002 15.7269C6.14021 11.4169 3.00021 8.56692 3.00021 5.67692C3.00021 3.67692 4.50021 2.17692 6.50021 2.17692C8.04021 2.17692 9.54021 3.16692 10.0702 4.53692H11.9402C12.4602 3.16692 13.9602 2.17692 15.5002 2.17692C17.5002 2.17692 19.0002 3.67692 19.0002 5.67692C19.0002 8.56692 15.8602 11.4169 11.1002 15.7269Z" fill="white"/>
</svg>
