<svg viewBox="0 0 18 21" fill="none" xmlns="http://www.w3.org/2000/svg">
<path fill-rule="evenodd" clip-rule="evenodd" d="M15 14.5838C14.24 14.5838 13.56 14.8932 13.04 15.3779L5.91 11.0979C5.96 10.8606 6 10.6234 6 10.3759C6 10.1284 5.96 9.89119 5.91 9.65398L12.96 5.41516C13.5 5.93083 14.21 6.25055 15 6.25055C16.66 6.25055 18 4.86855 18 3.15652C18 1.4445 16.66 0.0625 15 0.0625C13.34 0.0625 12 1.4445 12 3.15652C12 3.40405 12.04 3.64126 12.09 3.87846L5.04 8.11728C4.5 7.60161 3.79 7.28189 3 7.28189C1.34 7.28189 0 8.66389 0 10.3759C0 12.0879 1.34 13.4699 3 13.4699C3.79 13.4699 4.5 13.1502 5.04 12.6346L12.16 16.9249C12.11 17.1415 12.08 17.3684 12.08 17.5953C12.08 19.2558 13.39 20.6068 15 20.6068C16.61 20.6068 17.92 19.2558 17.92 17.5953C17.92 15.9348 16.61 14.5838 15 14.5838Z" fill="#54595D"/>
</svg>
