<svg width="18" height="20" viewBox="0 0 18 20" fill="none" xmlns="http://www.w3.org/2000/svg">
<path fill-rule="evenodd" clip-rule="evenodd" d="M15 14.08C14.24 14.08 13.56 14.38 13.04 14.85L5.91 10.7C5.96 10.47 6 10.24 6 10C6 9.76001 5.96 9.53001 5.91 9.30001L12.96 5.19001C13.5 5.69001 14.21 6.00001 15 6.00001C16.66 6.00001 18 4.66001 18 3.00001C18 1.34002 16.66 1.52588e-05 15 1.52588e-05C13.34 1.52588e-05 12 1.34002 12 3.00001C12 3.24001 12.04 3.47001 12.09 3.70001L5.04 7.81001C4.5 7.31001 3.79 7.00001 3 7.00001C1.34 7.00001 0 8.34001 0 10C0 11.66 1.34 13 3 13C3.79 13 4.5 12.69 5.04 12.19L12.16 16.35C12.11 16.56 12.08 16.78 12.08 17C12.08 18.61 13.39 19.92 15 19.92C16.61 19.92 17.92 18.61 17.92 17C17.92 15.39 16.61 14.08 15 14.08Z" fill="#3366CC"/>
</svg>
