<svg width="18" height="20" viewBox="0 0 18 20" fill="none" xmlns="http://www.w3.org/2000/svg">
<path fill-rule="evenodd" clip-rule="evenodd" d="M15 14.0798C14.24 14.0798 13.56 14.3798 13.04 14.8498L5.91 10.6998C5.96 10.4698 6 10.2398 6 9.99976C6 9.75976 5.96 9.52976 5.91 9.29976L12.96 5.18976C13.5 5.68976 14.21 5.99976 15 5.99976C16.66 5.99976 18 4.65976 18 2.99976C18 1.33976 16.66 -0.000244141 15 -0.000244141C13.34 -0.000244141 12 1.33976 12 2.99976C12 3.23976 12.04 3.46976 12.09 3.69976L5.04 7.80976C4.5 7.30976 3.79 6.99976 3 6.99976C1.34 6.99976 0 8.33976 0 9.99976C0 11.6598 1.34 12.9998 3 12.9998C3.79 12.9998 4.5 12.6898 5.04 12.1898L12.16 16.3498C12.11 16.5598 12.08 16.7798 12.08 16.9998C12.08 18.6098 13.39 19.9198 15 19.9198C16.61 19.9198 17.92 18.6098 17.92 16.9998C17.92 15.3898 16.61 14.0798 15 14.0798Z" fill="white"/>
</svg>
