<svg width="20" height="20" viewBox="0 0 20 20" fill="none" xmlns="http://www.w3.org/2000/svg">
    <path fill-rule="evenodd" clip-rule="evenodd"
          d="M14.1667 13.4C13.5333 13.4 12.9667 13.65 12.5333 14.0417L6.59167 10.5833C6.63334 10.3917 6.66667 10.2 6.66667 10C6.66667 9.80001 6.63334 9.60834 6.59167 9.41667L12.4667 5.99167C12.9167 6.40834 13.5083 6.66667 14.1667 6.66667C15.55 6.66667 16.6667 5.55001 16.6667 4.16667C16.6667 2.78334 15.55 1.66667 14.1667 1.66667C12.7833 1.66667 11.6667 2.78334 11.6667 4.16667C11.6667 4.36667 11.7 4.55834 11.7417 4.75001L5.86667 8.17501C5.41667 7.75834 4.825 7.50001 4.16667 7.50001C2.78334 7.50001 1.66667 8.61667 1.66667 10C1.66667 11.3833 2.78334 12.5 4.16667 12.5C4.825 12.5 5.41667 12.2417 5.86667 11.825L11.8 15.2917C11.7583 15.4667 11.7333 15.65 11.7333 15.8333C11.7333 17.175 12.825 18.2667 14.1667 18.2667C15.5083 18.2667 16.6 17.175 16.6 15.8333C16.6 14.4917 15.5083 13.4 14.1667 13.4Z"
          fill="#3366CC"/>
</svg>
