<?xml version="1.0" encoding="utf-8"?>
<!-- Generator: Adobe Illustrator 21.1.0, SVG Export Plug-In . SVG Version: 6.00 Build 0)  -->
<svg version="1.1" id="Layer_1" xmlns="http://www.w3.org/2000/svg" xmlns:xlink="http://www.w3.org/1999/xlink" height="264" wide="150"
	 viewBox="0 0 150 264" enable-background="new 0 0 150 264" xml:space="preserve">
<g>
	<path d="M147.9,151L147.9,151c-0.1-1.1-3.3-34-2-44.1c1.2-10.2-3.3-30.2-0.4-45.3c2.8-15.1,1.6-60,1.6-60s-18.8,9.4-39.2,5.7
		C87.5,4.1,88.3-0.8,69.1,3.3c-19.6,4.1-18,5.3-28.6,2c-4-1.2-8-2.6-11.9-3.7H11.2c-4.9,2.7-9.1,2.5-10.6,5v6.1
		C3.4,22,7.1,50.2,3.8,62.4c-3.3,12.7-3.3,28.2-0.4,46.9c3.3,18.8-2,41.2-2,41.2s21.6-4.9,35.1-2.5c7.3,1.3,16.8,2.6,26.5,2.9h7.5
		c6.3-0.2,12.6-0.9,18.2-2.5c16.7-4.1,23.2-6.1,38-2c13.2,4.1,20.1,4.5,21.1,4.5L147.9,151L147.9,151z"/>
	<path fill="#FFFFFF" d="M47.8,7.1c3.1,5.3,6.2,11.2,7.9,16.2c4.1,12.7,11,28.2,11.4,32.6c0.4,9,4.5,12.7,8.2,4.9
		c3.7-7.8,15.9-24.1,24.1-34.3c3.7-4.6,6.9-11.7,9.7-19c3.8,0.6,7.5,0.8,11,0.6c-0.9,4.4-2.4,9-4.8,13.5
		c-6.9,13.5-12.7,25.3-19.6,33.9c-7.3,9-14.7,18.4-19.6,28.6c-7.3,15.5-19.2,40.8-23.3,48.2c-3.2,5.5-7,13.2-9,17.1
		c-2.6-0.4-5.1-0.8-7.3-1.2c-0.6-0.1-1.2-0.2-1.9-0.3c4-8.9,13.6-30.4,16.2-38.1c3.7-9.4,6.1-29,4.1-40.8c-1.6-11.4-2.5-20-5.7-29.8
		c-3.3-9.8-7.8-21.2-9.8-27.7c-0.5-2.1-2-4.9-3.6-7.6c1.6,0.5,3.2,1,4.8,1.5C43.8,6.3,45.9,6.9,47.8,7.1L47.8,7.1z"/>
	<path fill="#FFFFFF" d="M20.1,0.1c4.6,7.5,17.6,30.2,19.6,49.7C42.2,71,45.1,79.2,42.2,91c-4.1,15.9-5.3,23.7-14.7,42.4
		c-1.7,3.3-6.3,9.6-10.9,14.7c-8.4,0.9-15.2,2.5-15.2,2.5s0.6-2.3,1.2-6.2c7.1-4.7,16.2-12.1,18.8-20c4.5-13.1,10.6-34.3,7.8-57.5
		c-2.5-22.9-9.4-44.5-13.1-51.4c-2.2-4.3-4.5-9.7-6-13.3c0.4-0.2,0.7-0.4,1.1-0.6C13.8,0.2,16.9-0.2,20.1,0.1L20.1,0.1z"/>
	<path fill="#FFFFFF" d="M4.3,117.3c7.3-10,16.1-24,15.8-32.8c0-14.7-4.1-35.1-6.5-42.8c-2.4-8.2-4.9-17.1-7.3-22.4
		c-1.2-2.7-3.7-7.9-5.8-12.4c-0.6,1.2-0.7,3,0.1,5.9c1.7,5.6,3.7,18.1,4.4,29.7c3.9,8.2,9,17.3,8.3,25.3c-0.8,9.4-1.6,16.3-4.9,22.4
		c-1.1,2.4-3.5,6.6-6,10.7c0.3,2.8,0.7,5.6,1.1,8.5C3.9,112,4.2,114.6,4.3,117.3L4.3,117.3z"/>
	<path fill="#FCB131" d="M71.6,39.2c-4.1-0.4-4.5-9.8-2-15.1c3.3-6.1,5.3,1.2,8.6-2c1.6-1.6,1.2-4.1,2.9-6.9
		c1.6-2.9,8.2-9.4,8.6-4.9C92,34.7,76.1,40,71.6,39.2L71.6,39.2z"/>
	<path fill="#FFFFFF" d="M59.8,150.9c1.9-6.1,10.6-31.6,24.9-50.9c6.1-8.6,13.9-23.3,18.8-36.7c4.9-13.1,13.9-24.1,16.7-34.3
		c1.5-4.6,8.8-14.6,15.5-23.2c4.2-1.1,7.5-2.4,9.4-3.2c-5.2,12-15.5,25.9-20.9,42.4C120.1,57.5,109.9,71,105.9,91
		c-3.5,14.9-23.1,49.5-29,59.6C71.3,151.1,65.4,151.1,59.8,150.9L59.8,150.9z"/>
	<path fill="#FFFFFF" d="M93.2,147.4c4.8-9.2,22.3-43.3,29-60.1c6.7-16.5,15.1-51.8,25.2-65.3c0,4.4,0,9-0.1,13.7
		c-3.6,14.2-7.5,21.8-9.1,27.1c-2.9,10.2-5.7,27.7-11.8,44.9c-4.5,11.9-10.6,27.8-13.9,36.6C106.5,144.3,101,145.5,93.2,147.4
		L93.2,147.4z"/>
	<path fill="#FFFFFF" d="M120.9,145.1c5.2-5.9,12.9-16.4,14.7-28c1.9-12.8,5.6-26.5,9-37.5c0.4,8.2,1.4,16.2,1.4,22.4
		c-3.2,13.7-9.1,37.9-13,46.3c-1.9-0.5-4.1-1.1-6.4-1.8C124.6,145.9,122.7,145.5,120.9,145.1L120.9,145.1z"/>
	<path d="M9.5,252.2c-0.8-0.4-1.6-0.4-2-0.4c-3.3,0-5.3,2-5.3,4.1c0,2.9,3.3,2.9,2.9,4.5c0,0.8-0.8,1.2-2,1.2c-0.4,0-1.2,0-2-0.4
		L0.6,264c0.4,0,1.2,0,2,0c3.3,0,5.3-2,5.3-4.1c0.4-2.8-2.9-2.8-2.9-4.5c0-0.8,0.8-1.2,2-1.2c0.4,0,1.2,0,1.6,0L9.5,252.2L9.5,252.2
		z"/>
	<path d="M19.3,258.3c0-2.5-1.2-3.7-3.7-3.7c-3.7,0-6.1,2.9-6.1,5.7c-0.4,2.5,0.8,3.7,3.7,3.7C16.1,264,18.9,261.6,19.3,258.3
		L19.3,258.3z M16.5,258.7c0,1.2-1.2,2.8-2.9,2.8c-0.8,0-1.2-0.4-1.2-1.6c0-2,1.6-2.8,2.9-2.8C16.1,257.1,16.5,257.5,16.5,258.7
		L16.5,258.7z"/>
	<path d="M30.8,254.6h-2.9l-1.2,5.3c-0.4,1.2-0.8,1.6-2,1.6c-1.2,0-1.6-0.4-1.2-1.6l1.2-5.3h-2.5l-1.6,5.7c-0.4,2.5,0.4,3.7,3.3,3.7
		c3.3,0,4.9-1.6,5.3-3.7L30.8,254.6L30.8,254.6z"/>
	<polygon points="39.3,254.6 32.4,254.6 31.6,257.1 34,257.1 32,264 34.9,264 36.5,257.1 38.9,257.1 	"/>
	<polygon points="49.5,254.6 47.1,254.6 46.3,257.9 43,257.9 43.8,254.6 41,254.6 38.9,264 41.4,264 42.2,260.3 45.5,260.3 
		44.6,264 47.5,264 	"/>
	<path d="M63.8,264L63,252.2h-2.9L52.8,264h2.9l1.2-2.5H61v2.5H63.8L63.8,264z M61,259.5h-2.9l1.2-2.5c0.4-0.4,0.8-1.2,1.2-2l0,0
		c0,0.8,0,1.6,0,2L61,259.5L61,259.5z"/>
	<polygon points="73.2,254.6 67.9,254.6 65.5,264 67.9,264 68.7,260.3 71.6,260.3 72.4,258.3 69.5,258.3 69.9,256.7 72.8,256.7 	"/>
	<path d="M82.2,257.1c0-1.6-0.8-2.5-2.8-2.5c-1.2,0-2.9,0-3.7,0l-2.4,9.4h2.4l1.2-3.7l0,0l0.8,3.7H81l-1.2-2.8c0-0.4,0-0.8-0.4-1.2
		C80.6,259.9,81.8,258.7,82.2,257.1L82.2,257.1z M79.3,257.5c0,0.8-0.8,1.2-1.6,1.2h-0.4l0.4-2h0.4
		C78.9,256.7,79.3,257.1,79.3,257.5L79.3,257.5z"/>
	<polygon points="87.5,254.6 85.1,254.6 82.6,264 85.4,264 	"/>
	<path d="M96.5,254.6c-0.4,0-1.2,0-2,0c-3.7,0-5.7,2.9-6.1,5.7c0,2.5,1.2,3.7,3.7,3.7c0.8,0,1.6,0,2-0.4l0.4-2.4
		c-0.4,0.4-0.8,0.4-1.6,0.4c-0.8,0-1.6-0.4-1.6-1.6c0-1.2,1.2-2.8,3.3-2.8c0.4,0,0.8,0,1.2,0L96.5,254.6L96.5,254.6z"/>
	<path d="M105,264l-0.8-9.4H101l-5.7,9.4h2.9l0.8-1.6h2.9l0.4,1.6H105L105,264z M101.8,260.3h-1.6l0.8-1.6c0.4-0.4,0.4-0.8,0.8-1.2
		l0,0c0,0.4,0,0.8,0,1.2V260.3L101.8,260.3z"/>
	<path d="M119.7,254.6c0-1.6-0.8-2.8-3.3-2.8c-0.8,0-2,0.4-3.3,0.8v2.5c0.8-0.4,1.6-0.8,2.4-0.8c0.4,0,0.8,0.4,0.8,1.2
		c0,0.8-0.8,2-3.3,4.1l-2,2l-0.8,2.5h7.3l0.4-2.8c-1.2,0-2,0-3.3,0h-0.4l1.2-0.8C117.3,258.7,119.3,257.1,119.7,254.6L119.7,254.6z"
		/>
	<path d="M129.9,255.8c0.4-2.4-0.8-4.1-3.3-4.1c-3.7,0-6.1,4.1-6.5,8.1c0,2.9,0.8,4.1,3.3,4.1C127.5,264,129.9,259.5,129.9,255.8
		L129.9,255.8z M127.5,255.8c-0.4,2.5-1.6,5.7-3.7,5.7c-0.8,0-0.8-0.4-0.8-1.6c0-1.6,0.8-5.7,3.3-5.7
		C127.1,254.2,127.5,254.6,127.5,255.8L127.5,255.8z"/>
	<path d="M140.5,255.8c0-2.4-0.8-4.1-3.7-4.1c-3.3,0-6.1,4.1-6.1,8.1c-0.4,2.9,0.8,4.1,3.3,4.1C138.1,264,140.1,259.5,140.5,255.8
		L140.5,255.8z M137.7,255.8c0,2.5-1.6,5.7-3.3,5.7c-0.8,0-1.2-0.4-1.2-1.6c0.4-1.6,1.2-5.7,3.7-5.7
		C137.3,254.2,137.7,254.6,137.7,255.8L137.7,255.8z"/>
	<path d="M148.3,254.6c0.4-1.6-0.4-2.8-2.8-2.8c-0.8,0-2,0.4-2.9,0.4v2.5c0.4-0.4,1.2-0.4,1.6-0.4c1.2,0,1.2,0.4,1.2,0.8
		c0,0.8-1.2,2-3.3,1.6l-0.8,2.5c2.8-0.4,3.3,0.4,2.8,0.8c0,1.2-0.8,1.6-2.4,1.6c-0.4,0-0.8,0-1.2,0l-0.8,2c0.4,0.4,1.2,0.4,1.6,0.4
		c2.8,0,5.3-1.6,5.7-4.1c0.4-1.2,0-2.4-1.2-2.4l0,0C147.1,257.1,147.9,255.8,148.3,254.6L148.3,254.6z"/>
	<polygon points="11.2,184 6.3,184 0.6,206.1 5.5,206.1 	"/>
	<path d="M29.5,184.9c-1.2-0.4-2.9-0.8-4.5-0.8c-8.6,0-13.5,7.3-14.3,14.7c0,3.3,0.8,7.4,7.8,7.4c1.6,0,3.7,0,5.3-0.4l0.8-4.9
		c-1.2,0.4-2.9,0.8-4.1,0.8c-3.3,0-4.1-1.6-4.1-4.1c0.4-3.3,2.5-9,7.8-9c1.2,0,2.4,0.4,3.7,0.8L29.5,184.9L29.5,184.9z"/>
	<path d="M46.3,184.9c-1.2-0.4-2.9-0.8-4.5-0.8c-8.6,0-13.5,7.3-14.3,14.7c0,3.3,0.8,7.4,7.7,7.4c1.6,0,3.7,0,5.3-0.4l0.8-4.9
		c-1.2,0.4-2.9,0.8-4.1,0.8c-3.3,0-4.1-1.6-4.1-4.1c0.4-3.3,2.4-9,7.7-9c1.2,0,2.5,0.4,3.7,0.8L46.3,184.9L46.3,184.9z"/>
	<path d="M71.2,184.9c-1.2-0.4-2.5-0.8-4.1-0.8c-8.6,0-13.5,7.3-14.3,14.7c0,3.3,0.8,7.4,7.8,7.4c1.6,0,3.7,0,5.3-0.4l0.8-4.9
		c-1.2,0.4-2.9,0.8-4.5,0.8c-2.9,0-3.7-1.6-3.7-4.1c0.4-3.3,2.4-9,7.8-9c1.2,0,2.4,0.4,3.3,0.8L71.2,184.9L71.2,184.9z"/>
	<path d="M82.6,189.7c-2.5-0.4-4.1,1.2-6.1,4.5l0,0c0.8-2,1.2-3.3,1.6-4.1h-4.5c-0.8,1.6-1.6,5.3-2,7.3l-2.4,8.6H74l0.8-3.7
		c1.6-5.7,4.5-9,6.5-8.2L82.6,189.7L82.6,189.7z"/>
	<path d="M92,185.3c0.4-1.6-0.8-2.9-2.5-2.9c-1.6,0-3.3,1.2-3.3,3.3c0,1.2,0.8,2.4,2.5,2.4C90.4,188.1,92,186.9,92,185.3L92,185.3z
		 M90.4,190.2h-4.9l-4.1,15.9h4.9L90.4,190.2L90.4,190.2z"/>
	<path d="M104.2,190.2c-0.8-0.4-2-0.4-3.3-0.4c-5.7,0-9.8,4.9-10.2,11c-0.4,3.3,1.2,5.7,5.7,5.7c1.2,0,2.4-0.4,3.7-0.8l0.8-4.1
		c-0.8,0.4-2,0.4-2.8,0.4c-1.6,0-2-1.2-2-2.4c0-2.5,1.6-5.7,4.5-5.7c0.8,0,1.6,0,2,0.4L104.2,190.2L104.2,190.2z"/>
	<polygon points="121.8,191.4 118.1,188.9 110.8,196.3 114.4,182.4 109.9,182.4 103.4,206.1 108.3,206.1 110.3,198.3 112.8,206.1 
		118.5,206.1 115.2,197.5 	"/>
	<path d="M136.1,193.8c0-2-0.8-4.1-5.3-4.1c-4.9,0-9.4,4.1-10.2,11c0,3.3,1.2,5.7,5.7,5.7c2,0,4.5-0.4,6.1-1.2l0.4-3.7
		c-1.6,0.4-3.3,0.8-4.9,0.8c-2,0-2.5-0.4-2.5-1.6c0-0.4,0-0.8,0.4-0.8C131.6,199.5,135.6,197.9,136.1,193.8L136.1,193.8z
		 M131.2,194.2c0,1.6-2,2.5-4.9,2.5c0.8-1.6,2-3.7,3.7-3.7C130.8,193,131.2,193.4,131.2,194.2L131.2,194.2z"/>
	<path d="M149.1,190.2h-3.3l1.2-5.7l-4.9,0.8l-1.2,4.9h-2.5l-1.2,3.7h2.5l-1.6,6.9c-1.2,3.7,0,5.7,3.3,5.7c1.2,0,2.5-0.4,3.7-0.8
		l0.8-3.7c-0.4,0-1.2,0.4-2,0.4c-1.2,0-1.2-0.8-0.8-2l1.6-6.5h3.3L149.1,190.2L149.1,190.2z"/>
	<path d="M30.4,217.5h-5.3l-4.9,10.2c-0.8,1.6-1.6,2.9-2,4.5l0,0c0-1.6,0.4-3.3,0.4-4.5v-10.2h-5.3l-5.7,10.6
		c-0.4,1.2-1.2,2.9-1.6,4.5l0,0c0-1.6,0.4-3.3,0.4-4.5l0.4-10.6H1.4L1,239.1h5.7l5.3-10.6c0.8-1.2,1.2-2.9,2-4.5l0,0
		c-0.4,1.6-0.4,3.3-0.4,4.9l-0.4,10.2h6.1L30.4,217.5L30.4,217.5z"/>
	<path d="M44.2,228.5c0.4-3.3-1.2-5.7-5.7-5.7c-5.3,0-10.2,4.1-11,10.6c0,3.7,1.6,6.1,6.1,6.1C38.9,239.5,43.8,235,44.2,228.5
		L44.2,228.5z M39.3,229.3c-0.4,2.9-2,5.7-4.5,5.7c-1.6,0-2-0.8-2-2c0-2.8,2-6.1,4.5-6.1C38.9,226.9,39.3,227.7,39.3,229.3
		L39.3,229.3z"/>
	<path d="M58.9,222.8c-2.5-0.4-4.1,1.2-6.1,4.5l0,0c0.8-2,1.2-3.3,1.6-4.1h-4.9c-0.4,1.6-1.2,5.7-1.6,7.3l-2.4,8.6h4.9l0.8-3.3
		c1.6-6.1,4.5-9,6.5-8.6L58.9,222.8L58.9,222.8z"/>
	<polygon points="69.5,215.5 64.6,215.5 58.5,239.1 63.4,239.1 	"/>
	<path d="M88.3,215.5h-4.9l-1.6,7.3c-0.8,0-1.2,0-1.6,0c-6.9,0-10.6,5.3-11,11.4c-0.4,3.7,0.8,5.3,3.3,5.3c2.9,0,4.9-2.4,6.5-4.5
		l0,0c-0.4,1.7-1.2,2.9-1.2,4.1h4.5c0.4-1.6,1.2-4.5,1.2-5.7L88.3,215.5L88.3,215.5z M80.6,226.9l-0.4,0.8c-0.8,2.9-3.7,7.3-5.3,7.3
		c-0.8,0-0.8-0.4-0.8-1.6c0-2.8,2-6.9,4.9-6.9C79.7,226.5,80.1,226.5,80.6,226.9L80.6,226.9z"/>
	<path d="M115.2,217.9c-1.2-0.4-2.9-0.8-4.5-0.8c-8.6,0-13.5,7.3-13.9,14.7c-0.4,3.3,0.8,7.8,7.8,7.8c1.6,0,3.7-0.4,5.3-0.8l0.4-4.5
		c-1.2,0.4-2.4,0.4-4.1,0.4c-3.3,0-4.1-1.7-3.7-4.1c0-3.3,2-9,7.3-9c1.2,0,2.5,0.4,3.7,0.8L115.2,217.9L115.2,217.9z"/>
	<path d="M132,223.2h-4.9l-1.2,4.1c-0.8,3.7-4.1,7.8-5.7,7.8c-0.4,0-0.8-0.4-0.4-2l2.9-9.8h-4.9l-2.8,11c-0.8,2.9-0.4,5.3,2.8,5.3
		c2.9,0,4.9-2,6.5-4.5h0.4c-1.2,1.7-1.2,3.3-1.6,4.1h4.5c0.4-2,1.6-5.7,2-7.8L132,223.2L132,223.2z"/>
	<path d="M149.9,227.7c0.4-3.3-0.8-4.9-3.7-4.9c-2.4,0-4.5,1.6-6.5,4.5l0,0c0.8-2,1.2-3.3,1.6-4.1h-4.5c-0.8,1.6-1.6,5.7-2,7.3
		l-4.5,15.9h4.9l2-7.3c0.4,0.4,0.8,0.4,1.2,0.4C145.9,239.5,149.5,233.8,149.9,227.7L149.9,227.7z M145,228.5
		c-0.4,3.3-2,6.9-5.3,6.9c-0.4,0-0.8,0-1.2,0v-0.8c0.8-3.3,3.7-7.8,5.7-7.8C144.6,226.9,145,227.3,145,228.5L145,228.5z"/>
</g>
</svg>
