<?xml version="1.0" encoding="utf-8"?>
<!-- Generator: Adobe Illustrator 21.1.0, SVG Export Plug-In . SVG Version: 6.00 Build 0)  -->
<svg version="1.1" id="Layer_1" xmlns="http://www.w3.org/2000/svg" xmlns:xlink="http://www.w3.org/1999/xlink" height="100" wide="64.5"
	 viewBox="0 0 64.5 100" enable-background="new 0 0 64.5 100" xml:space="preserve">
<g>
	<g>
		
			<radialGradient id="SVGID_1_" cx="17.1723" cy="230.807" r="41.177" gradientTransform="matrix(0.9659 -0.2588 0.2588 0.9659 -43.463 -198.1313)" gradientUnits="userSpaceOnUse">
			<stop  offset="0.5" style="stop-color:#DE4221"/>
			<stop  offset="1" style="stop-color:#422B1A"/>
		</radialGradient>
		<circle fill="url(#SVGID_1_)" cx="37.5" cy="37.5" r="26.3"/>
	</g>
	<g>
		<path d="M37.5,67.3c-16.4,0-29.7-13.3-29.7-29.7c0-16.4,13.3-29.7,29.7-29.7c0.3,0,0.6,0,1,0L36.7,0C16.4,0.4,0,17.1,0,37.5
			c0,20.7,16.8,37.5,37.5,37.5c5.6,0,10.9-1.2,15.6-3.4l-1.8-7.8C47.2,66,42.5,67.3,37.5,67.3z"/>
	</g>
	<g>
		<path d="M25.1,81.6v-3.3h3.4v2.8L26.9,84h-1.4l0.8-2.3H25.1z"/>
		<path d="M39.4,78.5v1.9c-0.5,0.7-1,1.7-1.6,2.8c-0.5,1-0.9,1.9-1.2,2.8c-0.3,0.9-0.5,1.9-0.7,2.8c-0.2,0.9-0.2,1.9-0.2,2.8h-4.1
			c0.2-1,0.4-2,0.8-2.9c0.9-2.6,2.2-5,3.8-7.2H30l0.2-3H39.4z"/>
		<path d="M39.8,88.5l2.7-0.8c0.3,1.1,0.9,1.6,1.7,1.6c0.4,0,0.8-0.1,1.2-0.4c0.3-0.3,0.6-0.7,0.8-1.2c0.1-0.5,0.2-1.1,0.3-2
			c-1,0.5-2,0.8-3,0.8c-0.8,0-1.5-0.2-2.1-0.5c-0.6-0.3-1.1-0.8-1.4-1.4c-0.3-0.6-0.5-1.2-0.5-2c0-0.6,0.1-1.2,0.4-1.7
			c0.2-0.5,0.6-1,1-1.3c0.4-0.4,1-0.7,1.6-0.9c0.6-0.2,1.3-0.3,2-0.3c0.8,0,1.6,0.1,2.3,0.4c0.7,0.3,1.3,0.7,1.7,1.3
			c0.5,0.6,0.9,1.2,1.1,2c0.3,0.8,0.4,1.6,0.4,2.6c0,0.7-0.1,1.4-0.2,2c-0.2,0.7-0.4,1.3-0.7,1.8c-0.3,0.6-0.7,1.1-1.1,1.5
			c-0.6,0.6-1.2,1-1.9,1.3c-0.7,0.3-1.4,0.5-2.2,0.5c-1,0-1.8-0.3-2.6-0.9S40.1,89.5,39.8,88.5z M46.5,83.7c0-2.2-0.6-3.3-1.9-3.3
			c-0.3,0-0.6,0.1-0.9,0.3c-0.3,0.2-0.5,0.4-0.7,0.7c-0.2,0.3-0.2,0.6-0.2,0.9c0,0.5,0.2,1,0.6,1.3c0.4,0.4,0.8,0.5,1.4,0.5
			C45.2,84.2,45.8,84,46.5,83.7z"/>
	</g>
	<rect x="18.6" y="93.9" width="37.8" height="6.1"/>
	<g>
		<g>
			<path fill="#FFFFFF" d="M14.5,50.8c-0.2,0.1-0.4,0-0.6-0.2c-0.2-0.2-0.2-0.6,0-0.8l1.6-1.5c0.2-0.2,0.6-0.2,0.8,0
				c0.2,0.2,0.2,0.6,0,0.8l-1.6,1.5C14.7,50.7,14.6,50.7,14.5,50.8z"/>
		</g>
		<g>
			<path fill="#FFFFFF" d="M17.1,50.1c-0.2,0.1-0.4,0-0.6-0.2c-0.2-0.2-0.2-0.6,0-0.8l1.6-1.5c0.2-0.2,0.6-0.2,0.8,0
				c0.2,0.2,0.2,0.6,0,0.8L17.3,50C17.2,50,17.1,50.1,17.1,50.1z"/>
		</g>
		<g>
			<path fill="#FFFFFF" d="M19.6,49.4c-0.2,0.1-0.4,0-0.6-0.2c-0.2-0.2-0.2-0.6,0-0.8l1.6-1.5c0.2-0.2,0.6-0.2,0.8,0
				c0.2,0.2,0.2,0.6,0,0.8l-1.6,1.5C19.7,49.4,19.7,49.4,19.6,49.4z"/>
		</g>
		<g>
			<path fill="#FFFFFF" d="M22.1,48.7c-0.2,0.1-0.4,0-0.6-0.2c-0.2-0.2-0.2-0.6,0-0.8l1.6-1.5c0.2-0.2,0.6-0.2,0.8,0
				c0.2,0.2,0.2,0.6,0,0.8l-1.6,1.5C22.3,48.7,22.2,48.7,22.1,48.7z"/>
		</g>
		<g>
			<path fill="#FFFFFF" d="M24.6,48.1c-0.2,0.1-0.4,0-0.6-0.2c-0.2-0.2-0.2-0.6,0-0.8l1.6-1.5c0.2-0.2,0.6-0.2,0.8,0
				c0.2,0.2,0.2,0.6,0,0.8l-1.6,1.5C24.8,48,24.7,48,24.6,48.1z"/>
		</g>
		<g>
			<path fill="#FFFFFF" d="M27.1,47.4c-0.2,0.1-0.4,0-0.6-0.2c-0.2-0.2-0.2-0.6,0-0.8l1.6-1.5c0.2-0.2,0.6-0.2,0.8,0
				c0.2,0.2,0.2,0.6,0,0.8l-1.6,1.5C27.3,47.3,27.2,47.4,27.1,47.4z"/>
		</g>
		<g>
			<path fill="#FFFFFF" d="M29.7,46.7c-0.2,0.1-0.4,0-0.6-0.2c-0.2-0.2-0.2-0.6,0-0.8l1.6-1.5c0.2-0.2,0.6-0.2,0.8,0
				c0.2,0.2,0.2,0.6,0,0.8l-1.6,1.5C29.8,46.6,29.8,46.7,29.7,46.7z"/>
		</g>
		<g>
			<path fill="#FFFFFF" d="M32.2,46c-0.2,0.1-0.4,0-0.6-0.2c-0.2-0.2-0.2-0.6,0-0.8l1.6-1.5c0.2-0.2,0.6-0.2,0.8,0
				c0.2,0.2,0.2,0.6,0,0.8l-1.6,1.5C32.4,46,32.3,46,32.2,46z"/>
		</g>
		<g>
			<path fill="#FFFFFF" d="M34.7,45.4c-0.2,0.1-0.4,0-0.6-0.2c-0.2-0.2-0.2-0.6,0-0.8l1.6-1.5c0.2-0.2,0.6-0.2,0.8,0
				c0.2,0.2,0.2,0.6,0,0.8L35,45.2C34.9,45.3,34.8,45.3,34.7,45.4z"/>
		</g>
		<g>
			<path fill="#FFFFFF" d="M37.2,44.7c-0.2,0.1-0.4,0-0.6-0.2c-0.2-0.2-0.2-0.6,0-0.8l1.6-1.5c0.2-0.2,0.6-0.2,0.8,0
				c0.2,0.2,0.2,0.6,0,0.8l-1.6,1.5C37.4,44.6,37.3,44.7,37.2,44.7z"/>
		</g>
		<g>
			<path fill="#FFFFFF" d="M39.8,44c-0.2,0.1-0.4,0-0.6-0.2c-0.2-0.2-0.2-0.6,0-0.8l1.6-1.5c0.2-0.2,0.6-0.2,0.8,0s0.2,0.6,0,0.8
				L40,43.9C39.9,43.9,39.9,44,39.8,44z"/>
		</g>
		<g>
			<path fill="#FFFFFF" d="M42.3,43.3c-0.2,0.1-0.4,0-0.6-0.2c-0.2-0.2-0.2-0.6,0-0.8l1.6-1.5c0.2-0.2,0.6-0.2,0.8,0s0.2,0.6,0,0.8
				l-1.6,1.5C42.5,43.3,42.4,43.3,42.3,43.3z"/>
		</g>
		<g>
			<path fill="#FFFFFF" d="M44.8,42.7c-0.2,0.1-0.4,0-0.6-0.2c-0.2-0.2-0.2-0.6,0-0.8l1.6-1.5c0.2-0.2,0.6-0.2,0.8,0
				c0.2,0.2,0.2,0.6,0,0.8l-1.6,1.5C45,42.6,44.9,42.6,44.8,42.7z"/>
		</g>
		<g>
			<path fill="#FFFFFF" d="M47.3,42c-0.2,0.1-0.4,0-0.6-0.2c-0.2-0.2-0.2-0.6,0-0.8l1.6-1.5c0.2-0.2,0.6-0.2,0.8,0s0.2,0.6,0,0.8
				l-1.6,1.5C47.5,41.9,47.4,42,47.3,42z"/>
		</g>
		<g>
			<path fill="#FFFFFF" d="M49.9,41.3c-0.2,0.1-0.4,0-0.6-0.2c-0.2-0.2-0.2-0.6,0-0.8l1.6-1.5c0.2-0.2,0.6-0.2,0.8,0s0.2,0.6,0,0.8
				l-1.6,1.5C50,41.2,49.9,41.3,49.9,41.3z"/>
		</g>
		<g>
			<path fill="#FFFFFF" d="M52.4,40.6c-0.2,0.1-0.4,0-0.6-0.2c-0.2-0.2-0.2-0.6,0-0.8l1.6-1.5c0.2-0.2,0.6-0.2,0.8,0
				c0.2,0.2,0.2,0.6,0,0.8l-1.6,1.5C52.6,40.6,52.5,40.6,52.4,40.6z"/>
		</g>
		<g>
			<path fill="#FFFFFF" d="M54.9,40c-0.2,0.1-0.4,0-0.6-0.2c-0.2-0.2-0.2-0.6,0-0.8l1.6-1.5c0.2-0.2,0.6-0.2,0.8,0
				c0.2,0.2,0.2,0.6,0,0.8l-1.6,1.5C55.1,39.9,55,39.9,54.9,40z"/>
		</g>
		<g>
			<path fill="#FFFFFF" d="M57.4,39.3c-0.2,0.1-0.4,0-0.6-0.2c-0.2-0.2-0.2-0.6,0-0.8l1.6-1.5c0.2-0.2,0.6-0.2,0.8,0s0.2,0.6,0,0.8
				l-1.6,1.5C57.6,39.2,57.5,39.3,57.4,39.3z"/>
		</g>
		<g>
			<path fill="#FFFFFF" d="M60,38.6c-0.2,0.1-0.4,0-0.6-0.2c-0.2-0.2-0.2-0.6,0-0.8l1.6-1.5c0.2-0.2,0.6-0.2,0.8,0
				c0.2,0.2,0.2,0.6,0,0.8l-1.6,1.5C60.1,38.5,60,38.6,60,38.6z"/>
		</g>
		<g>
			<path fill="#FFFFFF" d="M62.5,37.9c-0.2,0.1-0.4,0-0.6-0.2c-0.2-0.2-0.2-0.6,0-0.8l1.6-1.5c0.2-0.2,0.6-0.2,0.8,0
				c0.2,0.2,0.2,0.6,0,0.8l-1.6,1.5C62.6,37.9,62.6,37.9,62.5,37.9z"/>
		</g>
	</g>
	<g>
		<g>
			<path fill="#FFFFFF" d="M13.9,48.2c-0.2,0.1-0.4,0-0.6-0.2c-0.2-0.2-0.2-0.6,0-0.8l1.6-1.5c0.2-0.2,0.6-0.2,0.8,0
				c0.2,0.2,0.2,0.6,0,0.8l-1.6,1.5C14,48.2,13.9,48.2,13.9,48.2z"/>
		</g>
		<g>
			<path fill="#FFFFFF" d="M16.4,47.6c-0.2,0.1-0.4,0-0.6-0.2c-0.2-0.2-0.2-0.6,0-0.8l1.6-1.5c0.2-0.2,0.6-0.2,0.8,0
				c0.2,0.2,0.2,0.6,0,0.8l-1.6,1.5C16.5,47.5,16.5,47.5,16.4,47.6z"/>
		</g>
		<g>
			<path fill="#FFFFFF" d="M18.9,46.9c-0.2,0.1-0.4,0-0.6-0.2c-0.2-0.2-0.2-0.6,0-0.8l1.6-1.5c0.2-0.2,0.6-0.2,0.8,0
				c0.2,0.2,0.2,0.6,0,0.8l-1.6,1.5C19.1,46.8,19,46.9,18.9,46.9z"/>
		</g>
		<g>
			<path fill="#FFFFFF" d="M21.4,46.2c-0.2,0.1-0.4,0-0.6-0.2c-0.2-0.2-0.2-0.6,0-0.8l1.6-1.5c0.2-0.2,0.6-0.2,0.8,0
				c0.2,0.2,0.2,0.6,0,0.8l-1.6,1.5C21.6,46.1,21.5,46.2,21.4,46.2z"/>
		</g>
		<g>
			<path fill="#FFFFFF" d="M23.9,45.5c-0.2,0.1-0.4,0-0.6-0.2c-0.2-0.2-0.2-0.6,0-0.8l1.6-1.5c0.2-0.2,0.6-0.2,0.8,0
				c0.2,0.2,0.2,0.6,0,0.8l-1.6,1.5C24.1,45.5,24,45.5,23.9,45.5z"/>
		</g>
		<g>
			<path fill="#FFFFFF" d="M26.5,44.9c-0.2,0.1-0.4,0-0.6-0.2c-0.2-0.2-0.2-0.6,0-0.8l1.6-1.5c0.2-0.2,0.6-0.2,0.8,0
				c0.2,0.2,0.2,0.6,0,0.8l-1.6,1.5C26.6,44.8,26.6,44.8,26.5,44.9z"/>
		</g>
		<g>
			<path fill="#FFFFFF" d="M29,44.2c-0.2,0.1-0.4,0-0.6-0.2c-0.2-0.2-0.2-0.6,0-0.8l1.6-1.5c0.2-0.2,0.6-0.2,0.8,0
				c0.2,0.2,0.2,0.6,0,0.8L29.2,44C29.2,44.1,29.1,44.2,29,44.2z"/>
		</g>
		<g>
			<path fill="#FFFFFF" d="M31.5,43.5c-0.2,0.1-0.4,0-0.6-0.2c-0.2-0.2-0.2-0.6,0-0.8l1.6-1.5c0.2-0.2,0.6-0.2,0.8,0
				c0.2,0.2,0.2,0.6,0,0.8l-1.6,1.5C31.7,43.4,31.6,43.5,31.5,43.5z"/>
		</g>
		<g>
			<path fill="#FFFFFF" d="M34,42.8c-0.2,0.1-0.4,0-0.6-0.2c-0.2-0.2-0.2-0.6,0-0.8l1.6-1.5c0.2-0.2,0.6-0.2,0.8,0
				c0.2,0.2,0.2,0.6,0,0.8l-1.6,1.5C34.2,42.8,34.1,42.8,34,42.8z"/>
		</g>
		<g>
			<path fill="#FFFFFF" d="M36.6,42.2c-0.2,0.1-0.4,0-0.6-0.2c-0.2-0.2-0.2-0.6,0-0.8l1.6-1.5c0.2-0.2,0.6-0.2,0.8,0s0.2,0.6,0,0.8
				L36.8,42C36.7,42.1,36.7,42.1,36.6,42.2z"/>
		</g>
		<g>
			<path fill="#FFFFFF" d="M39.1,41.5c-0.2,0.1-0.4,0-0.6-0.2c-0.2-0.2-0.2-0.6,0-0.8l1.6-1.5c0.2-0.2,0.6-0.2,0.8,0
				c0.2,0.2,0.2,0.6,0,0.8l-1.6,1.5C39.3,41.4,39.2,41.5,39.1,41.5z"/>
		</g>
		<g>
			<path fill="#FFFFFF" d="M41.6,40.8c-0.2,0.1-0.4,0-0.6-0.2c-0.2-0.2-0.2-0.6,0-0.8l1.6-1.5c0.2-0.2,0.6-0.2,0.8,0s0.2,0.6,0,0.8
				l-1.6,1.5C41.8,40.7,41.7,40.8,41.6,40.8z"/>
		</g>
		<g>
			<path fill="#FFFFFF" d="M44.1,40.1c-0.2,0.1-0.4,0-0.6-0.2c-0.2-0.2-0.2-0.6,0-0.8l1.6-1.5c0.2-0.2,0.6-0.2,0.8,0
				c0.2,0.2,0.2,0.6,0,0.8L44.4,40C44.3,40.1,44.2,40.1,44.1,40.1z"/>
		</g>
		<g>
			<path fill="#FFFFFF" d="M46.7,39.5c-0.2,0.1-0.4,0-0.6-0.2c-0.2-0.2-0.2-0.6,0-0.8l1.6-1.5c0.2-0.2,0.6-0.2,0.8,0s0.2,0.6,0,0.8
				l-1.6,1.5C46.8,39.4,46.7,39.4,46.7,39.5z"/>
		</g>
		<g>
			<path fill="#FFFFFF" d="M49.2,38.8c-0.2,0.1-0.4,0-0.6-0.2c-0.2-0.2-0.2-0.6,0-0.8l1.6-1.5c0.2-0.2,0.6-0.2,0.8,0s0.2,0.6,0,0.8
				l-1.6,1.5C49.4,38.7,49.3,38.8,49.2,38.8z"/>
		</g>
		<g>
			<path fill="#FFFFFF" d="M51.7,38.1c-0.2,0.1-0.4,0-0.6-0.2c-0.2-0.2-0.2-0.6,0-0.8l1.6-1.5c0.2-0.2,0.6-0.2,0.8,0
				c0.2,0.2,0.2,0.6,0,0.8L51.9,38C51.9,38,51.8,38.1,51.7,38.1z"/>
		</g>
		<g>
			<path fill="#FFFFFF" d="M54.2,37.4c-0.2,0.1-0.4,0-0.6-0.2c-0.2-0.2-0.2-0.6,0-0.8l1.6-1.5c0.2-0.2,0.6-0.2,0.8,0
				c0.2,0.2,0.2,0.6,0,0.8l-1.6,1.5C54.4,37.4,54.3,37.4,54.2,37.4z"/>
		</g>
		<g>
			<path fill="#FFFFFF" d="M56.7,36.7c-0.2,0.1-0.4,0-0.6-0.2c-0.2-0.2-0.2-0.6,0-0.8l1.6-1.5c0.2-0.2,0.6-0.2,0.8,0
				c0.2,0.2,0.2,0.6,0,0.8L57,36.6C56.9,36.7,56.8,36.7,56.7,36.7z"/>
		</g>
		<g>
			<path fill="#FFFFFF" d="M59.3,36.1c-0.2,0.1-0.4,0-0.6-0.2c-0.2-0.2-0.2-0.6,0-0.8l1.6-1.5c0.2-0.2,0.6-0.2,0.8,0
				c0.2,0.2,0.2,0.6,0,0.8l-1.6,1.5C59.4,36,59.4,36,59.3,36.1z"/>
		</g>
		<g>
			<path fill="#FFFFFF" d="M61.8,35.4c-0.2,0.1-0.4,0-0.6-0.2c-0.2-0.2-0.2-0.6,0-0.8l1.6-1.5c0.2-0.2,0.6-0.2,0.8,0
				c0.2,0.2,0.2,0.6,0,0.8L62,35.3C62,35.3,61.9,35.4,61.8,35.4z"/>
		</g>
	</g>
	<g>
		<g>
			<path fill="#FFFFFF" d="M12.2,42.2c-0.2,0.1-0.4,0-0.6-0.2c-0.2-0.2-0.2-0.6,0-0.8l1.6-1.5c0.2-0.2,0.6-0.2,0.8,0
				c0.2,0.2,0.2,0.6,0,0.8L12.5,42C12.4,42.1,12.3,42.1,12.2,42.2z"/>
		</g>
		<g>
			<path fill="#FFFFFF" d="M14.7,41.5c-0.2,0.1-0.4,0-0.6-0.2c-0.2-0.2-0.2-0.6,0-0.8l1.6-1.5c0.2-0.2,0.6-0.2,0.8,0
				c0.2,0.2,0.2,0.6,0,0.8L15,41.4C14.9,41.4,14.8,41.5,14.7,41.5z"/>
		</g>
		<g>
			<path fill="#FFFFFF" d="M17.3,40.8c-0.2,0.1-0.4,0-0.6-0.2c-0.2-0.2-0.2-0.6,0-0.8l1.6-1.5c0.2-0.2,0.6-0.2,0.8,0
				c0.2,0.2,0.2,0.6,0,0.8l-1.6,1.5C17.4,40.8,17.4,40.8,17.3,40.8z"/>
		</g>
		<g>
			<path fill="#FFFFFF" d="M19.8,40.1c-0.2,0.1-0.4,0-0.6-0.2c-0.2-0.2-0.2-0.6,0-0.8l1.6-1.5c0.2-0.2,0.6-0.2,0.8,0
				c0.2,0.2,0.2,0.6,0,0.8L20,40C20,40.1,19.9,40.1,19.8,40.1z"/>
		</g>
		<g>
			<path fill="#FFFFFF" d="M22.3,39.5c-0.2,0.1-0.4,0-0.6-0.2c-0.2-0.2-0.2-0.6,0-0.8l1.6-1.5c0.2-0.2,0.6-0.2,0.8,0
				c0.2,0.2,0.2,0.6,0,0.8l-1.6,1.5C22.5,39.4,22.4,39.4,22.3,39.5z"/>
		</g>
		<g>
			<path fill="#FFFFFF" d="M24.8,38.8c-0.2,0.1-0.4,0-0.6-0.2c-0.2-0.2-0.2-0.6,0-0.8l1.6-1.5c0.2-0.2,0.6-0.2,0.8,0s0.2,0.6,0,0.8
				l-1.6,1.5C25,38.7,24.9,38.8,24.8,38.8z"/>
		</g>
		<g>
			<path fill="#FFFFFF" d="M27.4,38.1c-0.2,0.1-0.4,0-0.6-0.2c-0.2-0.2-0.2-0.6,0-0.8l1.6-1.5c0.2-0.2,0.6-0.2,0.8,0s0.2,0.6,0,0.8
				L27.6,38C27.5,38,27.5,38.1,27.4,38.1z"/>
		</g>
		<g>
			<path fill="#FFFFFF" d="M29.9,37.4c-0.2,0.1-0.4,0-0.6-0.2c-0.2-0.2-0.2-0.6,0-0.8l1.6-1.5c0.2-0.2,0.6-0.2,0.8,0
				c0.2,0.2,0.2,0.6,0,0.8l-1.6,1.5C30.1,37.4,30,37.4,29.9,37.4z"/>
		</g>
		<g>
			<path fill="#FFFFFF" d="M32.4,36.8c-0.2,0.1-0.4,0-0.6-0.2c-0.2-0.2-0.2-0.6,0-0.8l1.6-1.5c0.2-0.2,0.6-0.2,0.8,0
				c0.2,0.2,0.2,0.6,0,0.8l-1.6,1.5C32.6,36.7,32.5,36.7,32.4,36.8z"/>
		</g>
		<g>
			<path fill="#FFFFFF" d="M34.9,36.1c-0.2,0.1-0.4,0-0.6-0.2c-0.2-0.2-0.2-0.6,0-0.8l1.6-1.5c0.2-0.2,0.6-0.2,0.8,0s0.2,0.6,0,0.8
				L35.2,36C35.1,36,35,36.1,34.9,36.1z"/>
		</g>
		<g>
			<path fill="#FFFFFF" d="M37.5,35.4c-0.2,0.1-0.4,0-0.6-0.2c-0.2-0.2-0.2-0.6,0-0.8l1.6-1.5c0.2-0.2,0.6-0.2,0.8,0
				c0.2,0.2,0.2,0.6,0,0.8l-1.6,1.5C37.6,35.3,37.5,35.4,37.5,35.4z"/>
		</g>
		<g>
			<path fill="#FFFFFF" d="M40,34.7c-0.2,0.1-0.4,0-0.6-0.2c-0.2-0.2-0.2-0.6,0-0.8l1.6-1.5c0.2-0.2,0.6-0.2,0.8,0s0.2,0.6,0,0.8
				l-1.6,1.5C40.2,34.7,40.1,34.7,40,34.7z"/>
		</g>
		<g>
			<path fill="#FFFFFF" d="M42.5,34.1c-0.2,0.1-0.4,0-0.6-0.2c-0.2-0.2-0.2-0.6,0-0.8l1.6-1.5c0.2-0.2,0.6-0.2,0.8,0
				c0.2,0.2,0.2,0.6,0,0.8l-1.6,1.5C42.7,34,42.6,34,42.5,34.1z"/>
		</g>
		<g>
			<path fill="#FFFFFF" d="M45,33.4c-0.2,0.1-0.4,0-0.6-0.2c-0.2-0.2-0.2-0.6,0-0.8l1.6-1.5c0.2-0.2,0.6-0.2,0.8,0
				c0.2,0.2,0.2,0.6,0,0.8l-1.6,1.5C45.2,33.3,45.1,33.4,45,33.4z"/>
		</g>
		<g>
			<path fill="#FFFFFF" d="M47.6,32.7c-0.2,0.1-0.4,0-0.6-0.2c-0.2-0.2-0.2-0.6,0-0.8l1.6-1.5c0.2-0.2,0.6-0.2,0.8,0s0.2,0.6,0,0.8
				l-1.6,1.5C47.7,32.6,47.6,32.7,47.6,32.7z"/>
		</g>
		<g>
			<path fill="#FFFFFF" d="M50.1,32c-0.2,0.1-0.4,0-0.6-0.2c-0.2-0.2-0.2-0.6,0-0.8l1.6-1.5c0.2-0.2,0.6-0.2,0.8,0
				c0.2,0.2,0.2,0.6,0,0.8l-1.6,1.5C50.2,32,50.2,32,50.1,32z"/>
		</g>
		<g>
			<path fill="#FFFFFF" d="M52.6,31.4c-0.2,0.1-0.4,0-0.6-0.2c-0.2-0.2-0.2-0.6,0-0.8l1.6-1.5c0.2-0.2,0.6-0.2,0.8,0
				c0.2,0.2,0.2,0.6,0,0.8l-1.6,1.5C52.8,31.3,52.7,31.3,52.6,31.4z"/>
		</g>
		<g>
			<path fill="#FFFFFF" d="M55.1,30.7c-0.2,0.1-0.4,0-0.6-0.2c-0.2-0.2-0.2-0.6,0-0.8l1.6-1.5c0.2-0.2,0.6-0.2,0.8,0s0.2,0.6,0,0.8
				l-1.6,1.5C55.3,30.6,55.2,30.7,55.1,30.7z"/>
		</g>
		<g>
			<path fill="#FFFFFF" d="M57.6,30c-0.2,0.1-0.4,0-0.6-0.2c-0.2-0.2-0.2-0.6,0-0.8l1.6-1.5c0.2-0.2,0.6-0.2,0.8,0
				c0.2,0.2,0.2,0.6,0,0.8l-1.6,1.5C57.8,29.9,57.7,30,57.6,30z"/>
		</g>
		<g>
			<path fill="#FFFFFF" d="M60.2,29.3c-0.2,0.1-0.4,0-0.6-0.2c-0.2-0.2-0.2-0.6,0-0.8l1.6-1.5c0.2-0.2,0.6-0.2,0.8,0
				c0.2,0.2,0.2,0.6,0,0.8l-1.6,1.5C60.3,29.3,60.3,29.3,60.2,29.3z"/>
		</g>
	</g>
	<g>
		<g>
			<path fill="#FFFFFF" d="M11.5,39.6c-0.2,0.1-0.4,0-0.6-0.2c-0.2-0.2-0.2-0.6,0-0.8l1.6-1.5c0.2-0.2,0.6-0.2,0.8,0
				c0.2,0.2,0.2,0.6,0,0.8l-1.6,1.5C11.7,39.6,11.6,39.6,11.5,39.6z"/>
		</g>
		<g>
			<path fill="#FFFFFF" d="M14.1,39c-0.2,0.1-0.4,0-0.6-0.2c-0.2-0.2-0.2-0.6,0-0.8l1.6-1.5c0.2-0.2,0.6-0.2,0.8,0
				c0.2,0.2,0.2,0.6,0,0.8l-1.6,1.5C14.2,38.9,14.2,38.9,14.1,39z"/>
		</g>
		<g>
			<path fill="#FFFFFF" d="M16.6,38.3c-0.2,0.1-0.4,0-0.6-0.2c-0.2-0.2-0.2-0.6,0-0.8l1.6-1.5c0.2-0.2,0.6-0.2,0.8,0
				c0.2,0.2,0.2,0.6,0,0.8l-1.6,1.5C16.8,38.2,16.7,38.3,16.6,38.3z"/>
		</g>
		<g>
			<path fill="#FFFFFF" d="M19.1,37.6c-0.2,0.1-0.4,0-0.6-0.2c-0.2-0.2-0.2-0.6,0-0.8l1.6-1.5c0.2-0.2,0.6-0.2,0.8,0
				c0.2,0.2,0.2,0.6,0,0.8l-1.6,1.5C19.3,37.5,19.2,37.6,19.1,37.6z"/>
		</g>
		<g>
			<path fill="#FFFFFF" d="M21.6,36.9c-0.2,0.1-0.4,0-0.6-0.2c-0.2-0.2-0.2-0.6,0-0.8l1.6-1.5c0.2-0.2,0.6-0.2,0.8,0
				c0.2,0.2,0.2,0.6,0,0.8l-1.6,1.5C21.8,36.9,21.7,36.9,21.6,36.9z"/>
		</g>
		<g>
			<path fill="#FFFFFF" d="M24.2,36.3c-0.2,0.1-0.4,0-0.6-0.2c-0.2-0.2-0.2-0.6,0-0.8l1.6-1.5c0.2-0.2,0.6-0.2,0.8,0s0.2,0.6,0,0.8
				l-1.6,1.5C24.3,36.2,24.3,36.2,24.2,36.3z"/>
		</g>
		<g>
			<path fill="#FFFFFF" d="M26.7,35.6c-0.2,0.1-0.4,0-0.6-0.2c-0.2-0.2-0.2-0.6,0-0.8l1.6-1.5c0.2-0.2,0.6-0.2,0.8,0s0.2,0.6,0,0.8
				l-1.6,1.5C26.9,35.5,26.8,35.6,26.7,35.6z"/>
		</g>
		<g>
			<path fill="#FFFFFF" d="M29.2,34.9c-0.2,0.1-0.4,0-0.6-0.2c-0.2-0.2-0.2-0.6,0-0.8l1.6-1.5c0.2-0.2,0.6-0.2,0.8,0
				c0.2,0.2,0.2,0.6,0,0.8l-1.6,1.5C29.4,34.8,29.3,34.9,29.2,34.9z"/>
		</g>
		<g>
			<path fill="#FFFFFF" d="M31.7,34.2c-0.2,0.1-0.4,0-0.6-0.2c-0.2-0.2-0.2-0.6,0-0.8l1.6-1.5c0.2-0.2,0.6-0.2,0.8,0
				c0.2,0.2,0.2,0.6,0,0.8L32,34.1C31.9,34.2,31.8,34.2,31.7,34.2z"/>
		</g>
		<g>
			<path fill="#FFFFFF" d="M34.3,33.6c-0.2,0.1-0.4,0-0.6-0.2c-0.2-0.2-0.2-0.6,0-0.8l1.6-1.5c0.2-0.2,0.6-0.2,0.8,0s0.2,0.6,0,0.8
				l-1.6,1.5C34.4,33.5,34.3,33.5,34.3,33.6z"/>
		</g>
		<g>
			<path fill="#FFFFFF" d="M36.8,32.9c-0.2,0.1-0.4,0-0.6-0.2c-0.2-0.2-0.2-0.6,0-0.8l1.6-1.5c0.2-0.2,0.6-0.2,0.8,0s0.2,0.6,0,0.8
				L37,32.7C37,32.8,36.9,32.9,36.8,32.9z"/>
		</g>
		<g>
			<path fill="#FFFFFF" d="M39.3,32.2c-0.2,0.1-0.4,0-0.6-0.2c-0.2-0.2-0.2-0.6,0-0.8l1.6-1.5c0.2-0.2,0.6-0.2,0.8,0s0.2,0.6,0,0.8
				l-1.6,1.5C39.5,32.1,39.4,32.2,39.3,32.2z"/>
		</g>
		<g>
			<path fill="#FFFFFF" d="M41.8,31.5c-0.2,0.1-0.4,0-0.6-0.2c-0.2-0.2-0.2-0.6,0-0.8l1.6-1.5c0.2-0.2,0.6-0.2,0.8,0
				c0.2,0.2,0.2,0.6,0,0.8l-1.6,1.5C42,31.5,41.9,31.5,41.8,31.5z"/>
		</g>
		<g>
			<path fill="#FFFFFF" d="M44.4,30.9c-0.2,0.1-0.4,0-0.6-0.2c-0.2-0.2-0.2-0.6,0-0.8l1.6-1.5c0.2-0.2,0.6-0.2,0.8,0s0.2,0.6,0,0.8
				l-1.6,1.5C44.5,30.8,44.4,30.8,44.4,30.9z"/>
		</g>
		<g>
			<path fill="#FFFFFF" d="M46.9,30.2c-0.2,0.1-0.4,0-0.6-0.2c-0.2-0.2-0.2-0.6,0-0.8l1.6-1.5c0.2-0.2,0.6-0.2,0.8,0
				c0.2,0.2,0.2,0.6,0,0.8L47.1,30C47,30.1,47,30.2,46.9,30.2z"/>
		</g>
		<g>
			<path fill="#FFFFFF" d="M49.4,29.5c-0.2,0.1-0.4,0-0.6-0.2c-0.2-0.2-0.2-0.6,0-0.8l1.6-1.5c0.2-0.2,0.6-0.2,0.8,0
				c0.2,0.2,0.2,0.6,0,0.8l-1.6,1.5C49.6,29.4,49.5,29.5,49.4,29.5z"/>
		</g>
		<g>
			<path fill="#FFFFFF" d="M51.9,28.8c-0.2,0.1-0.4,0-0.6-0.2c-0.2-0.2-0.2-0.6,0-0.8l1.6-1.5c0.2-0.2,0.6-0.2,0.8,0
				c0.2,0.2,0.2,0.6,0,0.8l-1.6,1.5C52.1,28.8,52,28.8,51.9,28.8z"/>
		</g>
		<g>
			<path fill="#FFFFFF" d="M54.4,28.1c-0.2,0.1-0.4,0-0.6-0.2c-0.2-0.2-0.2-0.6,0-0.8l1.6-1.5c0.2-0.2,0.6-0.2,0.8,0
				c0.2,0.2,0.2,0.6,0,0.8L54.7,28C54.6,28.1,54.5,28.1,54.4,28.1z"/>
		</g>
		<g>
			<path fill="#FFFFFF" d="M57,27.5c-0.2,0.1-0.4,0-0.6-0.2c-0.2-0.2-0.2-0.6,0-0.8L58,25c0.2-0.2,0.6-0.2,0.8,0
				c0.2,0.2,0.2,0.6,0,0.8l-1.6,1.5C57.1,27.4,57.1,27.4,57,27.5z"/>
		</g>
		<g>
			<path fill="#FFFFFF" d="M59.5,26.8c-0.2,0.1-0.4,0-0.6-0.2c-0.2-0.2-0.2-0.6,0-0.8l1.6-1.5c0.2-0.2,0.6-0.2,0.8,0
				c0.2,0.2,0.2,0.6,0,0.8l-1.6,1.5C59.7,26.7,59.6,26.8,59.5,26.8z"/>
		</g>
	</g>
</g>
</svg>
