<?xml version="1.0" encoding="utf-8"?>
<!-- Generator: Adobe Illustrator 21.1.0, SVG Export Plug-In . SVG Version: 6.00 Build 0)  -->
<svg version="1.1" id="Layer_1" xmlns="http://www.w3.org/2000/svg" xmlns:xlink="http://www.w3.org/1999/xlink" height="111.1" wide="200"
	 viewBox="0 0 200 111.1" enable-background="new 0 0 200 111.1" xml:space="preserve">
<g>
	<rect x="0" y="20.1" fill="#E42D2E" width="90.1" height="30.3"/>
	<g>
		<path d="M0,54.8h2.3l1.2,8.1L3.6,64c0.1,0.6,0.2,1.2,0.2,1.8L4,67.3c0,0,0,0.1,0,0.2c0,0.1,0,0.2,0,0.4l0.1-0.6
			c0.1-1,0.2-1.9,0.3-2.7c0.1-0.8,0.2-1.6,0.3-2.3l1.2-7.5h1.8l1.2,7.3c0.2,1.1,0.3,2.1,0.4,3s0.2,1.8,0.3,2.6
			c0.1-0.9,0.2-1.7,0.3-2.6c0.1-0.8,0.2-1.6,0.3-2.4l0.2-1.2l1-6.8h2.2l-3.1,17.4H8.7l-1.2-7.5c0,0,0-0.2-0.1-0.4
			c0-0.2-0.1-0.5-0.1-0.9L7,61.6C7,61.5,7,61.3,7,61c0-0.3-0.1-0.6-0.1-1l-0.1-0.7c0,0.2,0,0.3,0,0.4c0,0.1,0,0.2,0,0.3
			c0,0.5-0.1,0.9-0.1,1.2c0,0.3,0,0.4-0.1,0.5l-0.2,1.7c-0.1,0.4-0.1,0.7-0.1,0.9c0,0.2-0.1,0.4-0.1,0.4l-1.3,7.5H3L0,54.8z"/>
		<path d="M24.2,63.9c0,3.1-0.3,5.2-1,6.5c-0.7,1.3-1.8,1.9-3.4,1.9c-1.7,0-2.9-0.7-3.6-2.1c-0.7-1.4-1-3.8-1-7.2
			c0-3.1,0.3-5.3,1-6.6c0.7-1.3,1.8-1.9,3.5-1.9c1.5,0,2.5,0.5,3.2,1.5c0.5,0.7,0.8,1.6,1,2.8C24.1,60,24.2,61.7,24.2,63.9z
			 M21.8,64.1c0-3-0.1-5-0.4-6c-0.3-1-0.8-1.5-1.7-1.5c-0.8,0-1.4,0.5-1.7,1.4c-0.3,0.9-0.4,2.7-0.4,5.5c0,2.5,0.1,4.3,0.4,5.3
			c0.3,0.9,0.8,1.4,1.6,1.4c0.8,0,1.3-0.4,1.6-1.3C21.6,68,21.8,66.5,21.8,64.1z"/>
		<path d="M27.1,54.8h3.1c1.3,0,2.2,0.3,2.8,0.9c0.8,0.8,1.2,2,1.2,3.6c0,1.2-0.2,2.2-0.6,3c-0.4,0.8-1,1.2-1.8,1.4l3.2,8.4h-2.4
			l-3.2-8.5v8.5h-2.3V54.8z M29.5,62.5c0.9,0,1.5-0.2,1.9-0.6c0.4-0.4,0.6-1.1,0.6-2.1c0-0.5,0-1-0.1-1.4c-0.1-0.4-0.2-0.7-0.4-0.9
			c-0.2-0.2-0.4-0.4-0.7-0.5c-0.3-0.1-0.6-0.2-0.9-0.2h-0.4V62.5z"/>
		<path d="M37.4,54.8h2.3v15.4h3.8v2h-6.2V54.8z"/>
		<path d="M44.8,54.8h2.9c0.9,0,1.6,0.1,2.2,0.3c0.6,0.2,1,0.5,1.5,1c0.7,0.7,1.1,1.7,1.4,2.8c0.3,1.1,0.4,2.7,0.4,4.8
			c0,1.9-0.2,3.5-0.5,4.7c-0.3,1.2-0.8,2-1.5,2.6c-0.8,0.8-2.4,1.1-4.6,1.1h-1.9V54.8z M47.2,70.1c1.4,0,2.4-0.4,2.9-1.3
			c0.5-0.9,0.7-2.5,0.7-5c0-2.7-0.2-4.5-0.7-5.5s-1.3-1.5-2.6-1.5h-0.3V70.1z"/>
		<path d="M69,55.1v2.1c-0.6-0.3-1.1-0.4-1.5-0.4c-0.6,0-1,0.1-1.4,0.4c-0.4,0.3-0.7,0.7-1,1.3c-0.3,0.6-0.4,1.3-0.6,2.2
			c-0.1,0.9-0.2,1.9-0.2,3.1c0,4.3,1.1,6.4,3.3,6.4c0.4,0,0.8-0.1,1.4-0.4v2.1c-0.6,0.3-1.2,0.5-1.9,0.5c-3.5,0-5.3-2.9-5.3-8.6
			c0-3.1,0.4-5.4,1.3-6.9c0.9-1.5,2.2-2.3,3.9-2.3C67.7,54.5,68.4,54.7,69,55.1z"/>
		<path d="M71.6,54.8h2.3V67c0,1.3,0.1,2.1,0.3,2.5c0.2,0.4,0.7,0.6,1.4,0.6c0.7,0,1.1-0.2,1.3-0.5c0.2-0.4,0.3-1.1,0.3-2.2V54.8
			h2.3v12.6c0,1.9-0.3,3.2-0.9,3.8c-0.7,0.8-1.7,1.1-3.2,1.1c-1.6,0-2.7-0.5-3.3-1.5c-0.4-0.7-0.7-1.9-0.7-3.8V54.8z"/>
		<path d="M82.8,54.8h3.1c1.5,0,2.6,0.4,3.2,1.1c0.7,0.8,1,2,1,3.6c0,2.3-0.7,3.8-2,4.5c-0.7,0.3-1.7,0.5-3,0.5v7.7h-2.3V54.8z
			 M85.1,62.4c1,0,1.6-0.2,2-0.6c0.4-0.4,0.6-1.1,0.6-2.1c0-1-0.2-1.8-0.5-2.3c-0.4-0.5-0.9-0.7-1.7-0.7h-0.3V62.4z"/>
	</g>
	<g>
		<path fill="#FFFFFF" d="M10.8,25l2.3,15.3h0.1L15.6,25h4l2.4,15.3h0.1L24.4,25h4l-3.8,20.8H20l-2.3-15.1h-0.1l-2.3,15.1h-4.7
			L6.8,25H10.8z"/>
		<path fill="#FFFFFF" d="M32.5,25h4.2v20.8h-4.2V25z"/>
		<path fill="#FFFFFF" d="M42,25h4.2v17.3h7.4v3.4H42V25z"/>
		<path fill="#FFFFFF" d="M56.2,25h4.2v17.3h7.4v3.4H56.2V25z"/>
		<path fill="#FFFFFF" d="M73.7,39.8c0,0.5,0,0.9,0.1,1.3c0.1,0.4,0.2,0.7,0.4,1c0.2,0.3,0.5,0.5,0.9,0.6c0.4,0.2,0.8,0.2,1.4,0.2
			c0.6,0,1.2-0.2,1.7-0.6c0.5-0.4,0.8-1.1,0.8-1.9c0-0.5-0.1-0.9-0.2-1.2c-0.1-0.3-0.3-0.6-0.6-0.9c-0.3-0.3-0.7-0.5-1.1-0.7
			c-0.5-0.2-1.1-0.5-1.8-0.7c-0.9-0.3-1.7-0.6-2.4-1c-0.7-0.4-1.2-0.8-1.7-1.3c-0.5-0.5-0.8-1.1-1-1.7c-0.2-0.6-0.3-1.4-0.3-2.3
			c0-2.1,0.6-3.6,1.7-4.6c1.1-1,2.7-1.5,4.7-1.5c0.9,0,1.8,0.1,2.6,0.3c0.8,0.2,1.5,0.5,2,1c0.6,0.5,1,1,1.3,1.7s0.5,1.6,0.5,2.5
			v0.6h-4c0-1-0.2-1.7-0.5-2.3c-0.3-0.5-0.9-0.8-1.7-0.8c-0.5,0-0.9,0.1-1.2,0.2c-0.3,0.1-0.6,0.3-0.7,0.5c-0.2,0.2-0.3,0.5-0.4,0.8
			C74,29.4,74,29.7,74,30c0,0.6,0.1,1.2,0.4,1.6s0.9,0.8,1.7,1.2l3.2,1.4c0.8,0.3,1.4,0.7,1.9,1.1c0.5,0.4,0.9,0.8,1.2,1.2
			c0.3,0.4,0.5,0.9,0.6,1.4c0.1,0.5,0.2,1.1,0.2,1.7c0,2.2-0.6,3.8-1.9,4.8c-1.3,1-3,1.5-5.3,1.5c-2.4,0-4.1-0.5-5.1-1.5
			c-1-1-1.5-2.5-1.5-4.4v-0.8h4.2V39.8z"/>
	</g>
	<g>
		<path d="M27.4,80.1h3.3v14.4h-1.9V81.8h-1.4V80.1z"/>
		<path d="M39.7,94.5h-2.1l1.4-2.8c0.2-0.5,0.5-1,0.7-1.6c0.2-0.5,0.5-1.1,0.7-1.7c-0.5,0.4-1,0.6-1.5,0.6c-0.9,0-1.5-0.3-1.9-1
			c-0.4-0.7-0.6-1.8-0.6-3.2c0-1.7,0.2-3,0.7-3.7c0.5-0.8,1.3-1.1,2.4-1.1c1.1,0,1.9,0.4,2.4,1.1c0.5,0.8,0.7,2,0.7,3.8
			c0,1.3-0.1,2.5-0.4,3.6c-0.1,0.5-0.3,1.2-0.6,1.8c-0.3,0.7-0.6,1.4-1,2.3l-0.8,1.6L39.7,94.5z M40.8,84.6c0-1.9-0.4-2.8-1.2-2.8
			c-0.8,0-1.2,0.9-1.2,2.8c0,1,0.1,1.7,0.3,2.1c0.2,0.4,0.5,0.7,0.9,0.7s0.7-0.2,0.9-0.7C40.7,86.2,40.8,85.5,40.8,84.6z"/>
		<path d="M49.3,94.5h-2.1l1.4-2.8c0.2-0.5,0.5-1,0.7-1.6c0.2-0.5,0.5-1.1,0.7-1.7c-0.5,0.4-1,0.6-1.5,0.6c-0.9,0-1.5-0.3-1.9-1
			c-0.4-0.7-0.6-1.8-0.6-3.2c0-1.7,0.2-3,0.7-3.7c0.5-0.8,1.3-1.1,2.4-1.1c1.1,0,1.9,0.4,2.4,1.1c0.5,0.8,0.7,2,0.7,3.8
			c0,1.3-0.1,2.5-0.4,3.6c-0.1,0.5-0.3,1.2-0.6,1.8c-0.3,0.7-0.6,1.4-1,2.3l-0.8,1.6L49.3,94.5z M50.4,84.6c0-1.9-0.4-2.8-1.2-2.8
			c-0.8,0-1.2,0.9-1.2,2.8c0,1,0.1,1.7,0.3,2.1c0.2,0.4,0.5,0.7,0.9,0.7c0.4,0,0.7-0.2,0.9-0.7C50.3,86.2,50.4,85.5,50.4,84.6z"/>
		<path d="M58.7,80.1h2.1l-1.4,2.8c-0.2,0.5-0.5,1-0.7,1.6c-0.2,0.6-0.5,1.2-0.8,1.8c0.5-0.4,1.1-0.6,1.6-0.6c0.8,0,1.4,0.3,1.9,1
			c0.4,0.7,0.6,1.8,0.6,3.5c0,1.6-0.2,2.7-0.7,3.4c-0.5,0.7-1.3,1-2.3,1c-1.1,0-1.9-0.4-2.4-1.1c-0.5-0.8-0.7-2-0.7-3.8
			c0-1.5,0.2-2.9,0.6-4.2c0.2-0.7,0.5-1.4,0.9-2.3C57.6,82.4,58.1,81.3,58.7,80.1z M60.1,90.2c0-0.5,0-0.9-0.1-1.3
			c0-0.4-0.1-0.6-0.2-0.9c-0.1-0.2-0.2-0.4-0.4-0.5c-0.2-0.1-0.3-0.2-0.6-0.2c-0.2,0-0.4,0.1-0.6,0.2c-0.2,0.1-0.3,0.3-0.4,0.5
			c-0.1,0.2-0.2,0.5-0.2,0.9c0,0.4-0.1,0.8-0.1,1.3c0,1.9,0.4,2.8,1.2,2.8C59.7,93,60.1,92.1,60.1,90.2z"/>
	</g>
	<g>
		<path fill="#E42D2E" d="M119.5,106.2c-0.3-0.1-0.5-0.2-0.8-0.3c-0.6-0.2-1.2-0.4-1.8-0.6c-0.7-0.2-1.7-0.3-2.8-0.3
			c-1,0-1.6-0.3-2-0.5c-0.2-0.1-0.3-0.2-0.6-0.2c-1.6-0.1-2.2-1-2.5-1.5l-0.1-0.1c-0.4-0.6-0.5-1.3-0.5-2.1H83.1
			c-0.1,0.3-0.2,0.5-0.3,1.3c-0.2,1.1-0.3,1.4-0.5,1.8c0,0.1-0.1,0.1-0.1,0.3c-0.2,0.6-0.3,1.1-0.3,1.1l-0.2,1.2
			c0,0-0.2,0.4,0.1,0.8c0.3,0.4,1.1,0.7,1.1,1.2c0.1,0.6,0.5,1.1,0.1,1.8c-0.1,0.2-0.2,0.5-0.3,0.8h37.5v-4.6
			c-0.1,0-0.2-0.1-0.3-0.1C119.8,106.3,119.7,106.3,119.5,106.2z"/>
		<path fill="#E42D2E" d="M74.6,109.5c-0.1-0.1-0.1-0.2-0.2-0.3c-0.6-0.9-1.1-1.9-0.4-3.8c0.3-0.8,0.6-1.3,0.8-1.6c0,0,0,0,0-0.1
			c0,0,0-0.4,0-0.4c0-0.4,0-0.4-0.5-1.3l-0.4-0.8c-0.1-0.2-0.2-0.4-0.3-0.5H0v10.3h75.8v-0.9L74.6,109.5z"/>
	</g>
	<g>
		<g>
			<path fill="#E42D2E" d="M159.1,1.1c-0.8-0.2-1.6-0.3-2.5-0.4l0.6,31.5L159.1,1.1z"/>
			<path fill="#E42D2E" d="M162.4,1.9c-0.6-0.2-1.3-0.3-2-0.5l-2.2,30.2L162.4,1.9z"/>
			<path fill="#E42D2E" d="M165,2.7c-0.5-0.2-1-0.3-1.5-0.5l-4.3,29.4L165,2.7z"/>
			<path fill="#E42D2E" d="M167.5,3.6c-0.5-0.2-1-0.4-1.5-0.6l-5.8,28.9L167.5,3.6z"/>
			<path fill="#E42D2E" d="M141.2,0.5c-0.9,0.1-1.7,0.3-2.6,0.4l13,29.3L141.2,0.5z"/>
			<path fill="#E42D2E" d="M144.4,0.2c-0.6,0-1.1,0.1-1.7,0.2l9.6,29.5L144.4,0.2z"/>
			<path fill="#E42D2E" d="M147.1,0c-0.6,0-1.2,0-1.8,0.1l7.8,29.2L147.1,0z"/>
			<path fill="#E42D2E" d="M150,0c-0.4,0-0.9,0-1.3,0c-0.2,0-0.5,0-0.7,0l6,29.8L150,0z"/>
			<path fill="#E42D2E" d="M123.9,6.4c-0.5,0.3-1,0.6-1.5,0.9l22.7,23.1L123.9,6.4z"/>
			<path fill="#E42D2E" d="M127,4.8c-0.7,0.3-1.4,0.7-2.1,1l20.7,24L127,4.8z"/>
			<path fill="#E42D2E" d="M129.7,3.6c-0.6,0.2-1.2,0.5-1.8,0.7l18.8,25.2L129.7,3.6z"/>
			<path fill="#E42D2E" d="M132.5,2.6c-0.6,0.2-1.3,0.4-1.9,0.7l17,26L132.5,2.6z"/>
		</g>
	</g>
	<g>
		<path fill="#FFD530" d="M175.9,7.8c-0.5-0.3-1.1-0.7-1.6-1l-9.1,26.9L175.9,7.8z"/>
		<path fill="#FFD530" d="M178.5,9.5c-0.5-0.3-0.9-0.7-1.4-1L166,33.7L178.5,9.5z"/>
		<path fill="#FFD530" d="M180.8,11.3c-0.4-0.3-0.9-0.7-1.3-1l-12.6,24L180.8,11.3z"/>
		<path fill="#FFD530" d="M183,13.2c-0.4-0.4-0.8-0.7-1.3-1.1l-13.7,22.6L183,13.2z"/>
		<path fill="#FFD530" d="M189.2,19.8c-0.4-0.5-0.7-1-1.1-1.4L170.6,39L189.2,19.8z"/>
		<path fill="#FFD530" d="M191,22.3c-0.3-0.4-0.6-0.9-0.9-1.3l-18.6,18.4L191,22.3z"/>
		<path fill="#FFD530" d="M192.5,24.7c-0.3-0.4-0.6-0.9-0.8-1.3l-19.6,16.9L192.5,24.7z"/>
		<path fill="#FFD530" d="M193.9,27.1c-0.3-0.5-0.5-0.9-0.8-1.4L173,41L193.9,27.1z"/>
	</g>
	<g>
		<path fill="#009245" d="M198.8,62.7c0.1-0.5,0.2-1.1,0.3-1.6l-29.8-1.4L198.8,62.7z"/>
		<path fill="#009245" d="M199.3,59.9c0.1-0.6,0.2-1.1,0.3-1.7l-30.1,0.5L199.3,59.9z"/>
		<path fill="#009245" d="M199.7,57.1c0.1-0.5,0.1-1.1,0.1-1.6L170,57.7L199.7,57.1z"/>
		<path fill="#009245" d="M199.9,54c0-0.7,0-1.4,0.1-2.1l-29.9,4.8L199.9,54z"/>
		<path fill="#009245" d="M199.6,45c-0.1-0.6-0.2-1.3-0.3-1.9l-28.5,9.3L199.6,45z"/>
		<path fill="#009245" d="M199.1,41.7c-0.1-0.6-0.2-1.1-0.3-1.7l-28,11.6L199.1,41.7z"/>
		<path fill="#009245" d="M198.5,39.2c-0.2-0.6-0.3-1.3-0.5-1.9l-27.4,13.4L198.5,39.2z"/>
		<path fill="#009245" d="M197.7,36.2c-0.2-0.6-0.4-1.3-0.6-1.9l-26.7,15L197.7,36.2z"/>
	</g>
	<g>
		<g>
			<path fill="#E42D2E" d="M180.1,92c0.5-0.4,1-0.8,1.5-1.2l-20.3-21.7L180.1,92z"/>
			<path fill="#E42D2E" d="M182.5,90c0.4-0.4,0.9-0.8,1.3-1.2l-22-20L182.5,90z"/>
			<path fill="#E42D2E" d="M184.4,88.3c0.4-0.4,0.8-0.7,1.1-1.1l-23.1-18.5L184.4,88.3z"/>
			<path fill="#E42D2E" d="M186.4,86.3c0.5-0.6,1-1.1,1.5-1.7L163.3,68L186.4,86.3z"/>
			<path fill="#E42D2E" d="M191.9,79.1c0.4-0.6,0.8-1.2,1.1-1.8l-27.3-12.4L191.9,79.1z"/>
			<path fill="#E42D2E" d="M193.6,76.4c0.2-0.4,0.4-0.8,0.6-1.2l-28-10.7L193.6,76.4z"/>
			<path fill="#E42D2E" d="M196,71.4c0.3-0.6,0.5-1.2,0.7-1.8l-28.9-7.2L196,71.4z"/>
			<path fill="#E42D2E" d="M194.7,74.1c0.2-0.5,0.5-1,0.7-1.5l-28.3-9L194.7,74.1z"/>
		</g>
	</g>
	<g>
		<g>
			<path fill="#2959AE" d="M172.8,96.8c0.5-0.3,1-0.6,1.5-0.8l-15.8-24.5L172.8,96.8z"/>
			<path fill="#2959AE" d="M164.4,100.3c0.6-0.2,1.1-0.4,1.7-0.6L155,72.6L164.4,100.3z"/>
			<path fill="#2959AE" d="M167.4,99.3c0.5-0.2,1-0.4,1.5-0.6l-12.6-26.5L167.4,99.3z"/>
			<path fill="#2959AE" d="M170.1,98.1c0.5-0.2,1-0.5,1.6-0.7l-14.3-25.5L170.1,98.1z"/>
			<path fill="#2959AE" d="M156,102.3c0.7-0.1,1.3-0.2,2-0.3l-6.7-29.8L156,102.3z"/>
			<path fill="#2959AE" d="M152.5,102.7c0.6,0,1.3-0.1,1.9-0.2l-3.8-29.4L152.5,102.7z"/>
			<path fill="#2959AE" d="M150,102.8c0.5,0,1.1,0,1.6-0.1l-1.7-30.6L150,102.8z"/>
			<path fill="#2959AE" d="M146.8,102.8c0.6,0,1.3,0,1.9,0c0,0,0.1,0,0.1,0l-0.1-30.7L146.8,102.8z"/>
			<path fill="#2959AE" d="M129.4,99c0.6,0.2,1.2,0.5,1.8,0.7l11.2-28L129.4,99z"/>
			<path fill="#2959AE" d="M132,100c0.7,0.2,1.4,0.5,2,0.7l9-28.7L132,100z"/>
			<path fill="#2959AE" d="M135.2,101c0.7,0.2,1.3,0.3,2,0.5l6.8-29.3L135.2,101z"/>
			<path fill="#2959AE" d="M138.4,101.8c0.6,0.1,1.3,0.2,1.9,0.3l4.3-29.8L138.4,101.8z"/>
		</g>
	</g>
	<g>
		<path d="M120.6,20.4c2.4,1.7,19.5,12.9,20.5,12.9c0.5,0,0.3-1.1,0.2-1.6c-0.1-0.5-7.4-6.1-12.6-10.7c-5.3-4.6-11.2-10-11.9-10.3
			c-0.7-0.3-1.5,0-1.7,1.3s0.4,2.2,0.6,3C115.9,15.8,118.3,18.7,120.6,20.4z"/>
		<path d="M107.6,81.2c-0.7-0.4-1.4-1-1.4-1s0.6-0.7,0.6-1.7s0.2-1.7-0.3-2c-0.5-0.3-0.8-0.4-0.8-0.4s0,0.8-0.3,1.4
			c-0.3,0.7-0.5,1.2-1.2,2c-0.8,0.8-1.4,0.9-2,1c-0.6,0.1-0.7-0.3-1.8,0.6c-1.1,0.9-1.1,1.1-1.8,2c-0.7,0.9,0.2,0.7-1.4,1.1
			c-1.6,0.5-1.4,0.2-3.1,1.1s-2.1,0.9-3.2,1.8c-1.1,1-1,1.1-2.1,1.8s-1.3,0.5-2.5,1.4c-1.1,1-1.3,1.4-2.1,1.5
			c-0.8,0.1-0.9-0.5-0.3-1.4c0.6-1,0.1-0.9,2.1-2.6c2-1.7,1.9-1.9,3.7-3s2.1-0.9,3.5-1.8s3.1-2.9,3.8-4s1.7-2.3,2.1-3.6
			s1.2-1.8,1.3-3.3c0.1-1.5,0.5-2.5,0.4-3.7c-0.1-1.2,0-2.6,0.6-3.3c0.6-0.7,0.7-0.9,1.1-1.1s0.8-0.6,0.8-0.6s-1.1-0.2-1.7,0.2
			c-0.6,0.4-1.2,0.8-1.7,1.8c-0.5,1.1-0.6,1.1-0.6,2.7c0,1.5,0,2.2-0.3,3.3c-0.3,1.1-0.5,2.1-1.1,3.2c-0.7,1.1-0.4,1.7-1.9,3.3
			s-2.2,2.9-3.4,3.5c-1.2,0.7-2.6,1-3.4,1.6c-0.9,0.7-1.2,0.7-2.9,1.8c-1.6,1.1-1.9,1.4-2.6,2.4c-0.7,1-0.7,1-1.3,2.3
			c-0.7,1.3-1.2,2-1.2,2c-0.7,1.2-1.4,1.3-3,1.6c-1.5,0.3-1.4,0.6-2.4,1.1s-1.4,2-1.4,3.2c0,1.1,0.3,1.6,1.1,3.3
			c0.9,1.7,0.8,1.4,0.9,2.6c0.1,1.1-0.4,0.9-1,2.4c-0.6,1.5,0,1.9,0.5,2.7c0.5,0.8,1.2,0.8,2.5,1.1c1.2,0.3,2.1,0.5,2.1,0.5
			s-1.1-1-1.3-1.2c-0.3-0.3-0.5-0.2-1.1-0.7c-0.6-0.5-1.3-0.5-1.3-1.2s0.4-0.8,0.8-1.9c0.4-1.1,0-2.2-0.1-3.4
			c-0.1-1.2-1-1.9-1.3-2.6c-0.4-0.7-0.2-2,0.3-2.7c0.5-0.7,1-0.5,1-0.5s0,0.3,0.1,1.2c0.1,1,0.8,1,0.8,1s0.2-1,0.3-1.5
			c0.1-0.6,0.5-1.1,1-1.2c0.5-0.1,2-0.2,3.2-0.7c1.1-0.5,1.7-0.7,2.6-1.3c0,0,1-0.8,2.8-2c1.8-1.2,2.4-1.5,3.5-2.9
			c1.1-1.3,1.7-1.7,3.6-2.5c1.9-0.8,2.7-0.4,3.7-0.7c1.1-0.3,1.4-1.6,1.7-2.2c0.3-0.6,1.1-1.1,2-1.1c1,0,2.5-0.5,3.1-0.6
			c0.6-0.1,0.6,0.1,0.9,0.8c0.3,0.7,0.1,1.3-0.6,2.1s-2.4,1.9-5,3.3c-2.6,1.3-3.6,1.6-5.5,2.8c-1.9,1.1-2.7,1.2-4.5,2.2
			s-2.3,1.1-3.5,1.3c-1.6,0.2-2.3,1.3-3.6,2.3c-1.3,1-1.9,0.8-2.6,1.8c-0.7,1.1-1.1,1.1-1.6,1.8c-0.5,0.7-0.1,0.7,0.5,1.5
			s-0.2,1.1-0.6,2.4s0.9,1.2,0.9,1.2s0.1-0.7,0.4-1.4c0.3-0.8,0.3-0.3,0.6-1.8c0.3-1.5,0.5-1.6,0.9-2.4c0.4-0.8,2.2-1.6,3.4-2
			c1.2-0.4,2.2-1.1,3.5-2c1.3-0.9,1.6-0.7,3.3-1.3c1.5-0.6,1.7-0.3,3.2-1.2s1.6-1.1,3.3-2.1c1.7-1,2.8-1.5,4.8-2.6
			c2-1.1,2.6-0.8,3.5-1.7c1-1,1.6-1.5,1.2-2.9C108,82.2,108.3,81.6,107.6,81.2z"/>
		<path d="M123.2,66.6c-0.4-0.1-1.3,0.3-1.6,0.9c-0.3,0.6,0.5,1.3,1.6,2.5c1.1,1.1-0.2,3-0.9,4.2s-0.9,3-1.2,4.4s-0.9,2-1.1,4.2
			s-0.7,3.2-0.9,5.4s-0.2,1.2-0.7,2.3s-0.3,1.1-0.5,3.3c-0.2,2.3-0.2,0.7-0.6,1.6s-0.3,2.2-0.3,2.2s0.1,1.3,0.2,1.6
			c0.3,0.9,0.2,1.2,1,1.4s1.8,0.6,2.1,0.8c0.3,0.2,2,0.7,2.5,1.2c0.5,0.6,0.6,1.2,0.5,1.6c-0.1,0.4-1.1,0.4-2.3-0.1
			c-1.1-0.5-1.6-0.6-3.1-1.1c-1.4-0.5-1.4-0.8-2.8-0.9c-1.3-0.1-2.4-0.2-3-0.5c-0.6-0.3-1,0.1-1.1-1s-0.2-1.7-0.2-1.7
			s-0.4,0.3-0.7,1c-0.3,0.7-0.4,1.5-0.1,1.9c0.3,0.4,0.5,0.9,1.5,1c1.1,0.1,1.2,0.7,2.4,0.7s2.3,0.1,3.2,0.3
			c0.9,0.2,1.8,0.6,2.7,0.9c0.9,0.3,0.5,0.4,1.8,0.5s1.7,0.6,2.2,0s0.6-0.7,0.5-1.5c-0.1-0.9,0.2-1.5-1-2.1
			c-1.1-0.6-1.3-0.9-2.8-1.4s-2.5-0.5-2.7-1.1c0,0,0-0.8,0-1.4s0.2-0.8,0.6-1.7c0.4-1,1.1-1.5,1.5-3.4c0.5-1.9,0.5-2.1,0.9-3.5
			c0.4-1.4,0.3-1.7,0.4-3.4c0.1-1.7,0.6-1.8,0.9-3.5c0.3-1.7,0.3-1.1,0.6-3.3c0.3-2.2,0.5-2.7,0.9-4c0.4-1.3,0.9-1.6,1.1-3.3
			c0.2-1.7,0.1-1.6,0-3.2C124.7,66.6,123.6,66.7,123.2,66.6z"/>
		<path d="M112.5,83.4c-0.5,1.4-0.2,2-0.6,3.6s0,0.7,0.4,2.1c0.4,1.4,0,1-0.1,2.1c-0.1,1.1,0,0.6,0.5,2.1c0.5,1.5,0.1,1-0.3,2.1
			c-0.4,1.1,0.1,1.1,0.1,1.1s0.7-0.6,1.2-2.7c0.6-2.1-0.3-1.9-0.3-3.5s-0.1-1.2,0.1-3.3s0.7-2.1,1.1-3.3c0.4-1.1,0.7-1.5,1.5-2.6
			c0.9-1.1,1-1.8,1-3.4s-0.5-2-0.7-2.6c-0.2-0.6-1-1.2-1-1.2s0.1,1.3,0.1,3s-0.8,2-1.3,3.5C113.7,82,113,81.9,112.5,83.4z"/>
		<path d="M110.9,72.4c0.3-0.9-0.1-1.5-0.5-2.2c-0.4-0.7-0.1-1.1-1.1-2.2s-1.6-0.1-1.6-0.1s0.6,0.1,0.9,0.2c0.3,0.1,0.2,0.3,0.5,1.6
			c0.3,1.3,0.6,0.8,1.1,1.6s-0.3,1.2-1.2,1.4s-0.8,0.2-1.5,1.1c-0.8,0.9-0.3,1.2-0.3,1.2s0.7-0.1,2-0.8
			C110.4,73.6,110.6,73.2,110.9,72.4z"/>
		<path d="M105.6,59.9c0.8,1.1,1.9,1.2,1.9,1.2s-0.3-1.1-1.1-1.6c-0.9-0.6-0.4-1.6-0.5-2.6c-0.1-1,0-1.5,0.8-2.8
			c0.8-1.2,0.9-1.5,2-3.3s1.2-2.4,1.2-3.1c0-0.7,0.5-2.5,0.5-3.5c0-1.1,0.4-0.8,1.1-1.1c0.8-0.4,0.7-0.7,1.4-1.9
			c0.8-1.2,0.8-1.4,1.7-2.5c1-1.1,0.8-0.5,1.5-0.7c0.8-0.2,0.9,0,1.1-0.8c0.3-0.8,0.3-1.4,0.7-2.2c0.4-0.8,1.2-0.4,1.7-0.2
			c0.5,0.2,0.4,0.9,0.3,1.8c-0.1,1-0.4,0.3-1.3,1.1c-1,0.8,0,1.1,0.7,1.1c0.7-0.1,0.6-0.6,1.1-0.6c0.5,0,1.6,1.1,1.7,1.8
			c0.1,0.8-0.5,0.6-1.4,1.1c-1,0.6-1.3,0.5-2,1s-0.7,1.8,0.7,1.6c1.3-0.2,2.6-1.2,3.4-1.5c0.9-0.3,1.4,1.1,1.9,1.5
			c0.5,0.5,1.1-0.2,1.8-0.9c0.7-0.7,1.3-0.5,2.8-1c1.4-0.5,1.5-1.1,2.1-2.2c0.6-1.1,0.5-2.5,0.6-4.8s-2.2-3.8-3.4-4.4
			c-1.2-0.6-3.6-0.8-5.1-0.4c-1.4,0.4-1.8,1.1-2.6,2c-0.8,1-1.3,0.8-2.7,1.1c-1.3,0.4-1.4,0.8-2.5,1.5c-1.1,0.8-1.8,1.6-2.9,3.4
			s-1.6,1.1-2,1.7s-1.3,0.8-2,1.2c-0.7,0.5-0.1,1.1-0.1,2.5c0,1.4-0.1,1.1-0.4,2.3c-0.3,1.1-0.2,0.9-0.2,2.3s-0.9,2-2,3.2
			c-1.1,1.1-1.2,1.1-2,2.5c-0.8,1.4-0.2,1.9,0.3,3.4C105,59.1,104.9,58.9,105.6,59.9z"/>
		<path d="M140.5,37.8c-0.8,0.4-0.4,0.2-0.8,1.1c-0.4,0.9-0.8,0.8-1.1,1.4s-0.1,1-0.2,2.1c-0.1,1.1-0.3,1.2-0.6,2.1
			s-0.2,1.1-0.6,2.3c-0.4,1.1-1.9,1.3-3.3,2s-1.4,0.2-4.2,0.6c-2.8,0.4-1.8,0.2-3.7,1c-1.9,0.8-2.9,0.3-4.8,0.9
			c-1.9,0.6-1.7,0.6-2.5,1.4s-0.8,1.2-0.8,2.7c0,1.4,0,1.7-0.1,3.1c-0.1,1.3-1.1,1.7-1.1,1.7s-0.7,0.8-0.8,1.7
			c-0.1,1-0.3,0.6-0.7,1.1s0,0.9,1,1.2c1,0.4,0.8,0.7,2,0.7c1.2,0,2,0.5,2,0.5s-0.5-1-0.9-1.1c-0.4-0.1-0.5-0.2-1.1-0.3
			c-0.6-0.1-0.6-0.9-0.5-1.6c0.1-0.8,0.1-1.4,0.5-2.2c0.4-0.8,0.3-2.1,0.2-3c-0.1-0.9,0.7-1.6,1.3-2.4c0.7-0.8,1.4-1.3,2.8-1.5
			c1.3-0.2,1.9-0.3,3.6-0.9c1.7-0.6,2.7-0.4,4.6-0.8c1.9-0.4,1.9-0.5,2.8-0.8c0.9-0.3,1.4-0.4,2.3-1.2c0.9-0.9,1.4-1.1,2.3-1.8
			c0.9-0.7,0.8-1.8,1.1-3.1s0.2-1.3,0.5-2.6c0.3-1.2,0.4-0.8,1-1.5c0.6-0.8,0.5-1,0.7-1.9C141.6,37.8,141.3,37.4,140.5,37.8z"/>
	</g>
</g>
</svg>
