<?xml version="1.0" encoding="utf-8"?>
<!-- Generator: Adobe Illustrator 21.1.0, SVG Export Plug-In . SVG Version: 6.00 Build 0)  -->
<svg version="1.1" id="Layer_1" xmlns="http://www.w3.org/2000/svg" xmlns:xlink="http://www.w3.org/1999/xlink" height="207.4" wide="213.6"
	 viewBox="0 0 213.6 207.4" enable-background="new 0 0 213.6 207.4" xml:space="preserve">
<g>
	<path fill="#FFFFFF" d="M178.8,130.2c-1.6,0-3.1-0.2-4.6-0.5c-0.4-0.1-0.8-0.2-1.2-0.3c-0.1,0-0.1,0-0.2-0.1
		c-0.3-0.1-0.7-0.2-1-0.3c0,0-0.1,0-0.1,0c-0.4-0.1-0.7-0.2-1.1-0.4c0,0,0,0,0,0c-0.4-0.1-0.8-0.3-1.1-0.5c-8-3.6-13.6-11.7-13.6-21
		c0-10.1,6.5-18.6,15.5-21.7c0.4-0.1,0.8-0.3,1.2-0.4c0,0,0,0,0.1,0c0.4-0.1,0.8-0.2,1.1-0.3c0,0,0.1,0,0.1,0
		c0.4-0.1,0.8-0.2,1.1-0.2c0,0,0.1,0,0.1,0c0.4-0.1,0.8-0.1,1.2-0.2c0.9-0.1,1.7-0.2,2.6-0.2c12.7,0,23,10.3,23,23
		C201.8,119.9,191.4,130.2,178.8,130.2z"/>
	<g>
		<path d="M23,50.8c0.4,0.3,0.7,0.5,1,0.9c0.3,0.3,0.5,0.7,0.6,1.1c0.1,0.4,0.2,0.8,0.2,1.2c0,0.4,0,0.9-0.1,1.3
			c0.2-0.2,0.5-0.4,0.8-0.6c0.3-0.2,0.6-0.2,0.9-0.3c0.3,0,0.6,0,1,0.1c0.3,0.1,0.7,0.2,1,0.5c0.3,0.2,0.6,0.5,0.9,0.8
			c0.3,0.3,0.5,0.7,0.7,1c0.2,0.4,0.3,0.8,0.4,1.3c0.1,0.5,0.1,1,0,1.5c-0.1,0.6-0.2,1.1-0.4,1.7c-0.2,0.6-0.6,1.3-1.1,2l-2.3,3.4
			c-0.2,0.3-0.4,0.4-0.6,0.4c-0.2,0-0.4-0.1-0.7-0.3L16,57.5c-0.2-0.2-0.4-0.5-0.4-0.8c0-0.3,0.1-0.5,0.2-0.7l2-3
			c0.4-0.7,0.9-1.2,1.3-1.6s0.9-0.7,1.3-0.9c0.4-0.2,0.9-0.3,1.3-0.2C22.1,50.3,22.6,50.5,23,50.8z M21.7,53.7
			c-0.2-0.1-0.4-0.2-0.5-0.2c-0.2,0-0.4,0-0.5,0.1c-0.2,0.1-0.4,0.2-0.5,0.3c-0.2,0.2-0.4,0.4-0.6,0.7l-0.9,1.4l2.8,2.8l1-1.4
			c0.3-0.4,0.4-0.8,0.5-1.2c0.1-0.4,0-0.7-0.1-1c-0.1-0.3-0.2-0.6-0.4-0.8C22.2,54.1,22,53.9,21.7,53.7z M26.7,57.7
			c-0.4-0.3-0.8-0.3-1.3-0.2c-0.4,0.1-0.9,0.5-1.3,1.2L23,60.4l3.1,3.1l1.2-1.8c0.3-0.5,0.5-0.9,0.6-1.3c0.1-0.4,0.1-0.8,0-1.1
			c-0.1-0.3-0.2-0.6-0.4-0.9C27.2,58.1,27,57.9,26.7,57.7z"/>
		<path d="M29.6,39.2c0,0,0.1,0.1,0.2,0.2s0.2,0.2,0.3,0.3c0.1,0.1,0.2,0.2,0.3,0.4c0.1,0.1,0.2,0.3,0.2,0.4
			c0.1,0.1,0.1,0.2,0.1,0.4c0,0.1,0,0.2-0.1,0.3l-3.5,4l2.3,2.9l3-3.4c0.1-0.1,0.2-0.1,0.2-0.1c0.1,0,0.2,0.1,0.3,0.2
			c0,0,0.1,0.1,0.2,0.2c0.1,0.1,0.2,0.2,0.3,0.3c0.1,0.1,0.2,0.2,0.3,0.4c0.1,0.1,0.2,0.2,0.2,0.4c0.1,0.1,0.1,0.2,0.1,0.3
			c0,0.1,0,0.2-0.1,0.3l-3,3.4l2.6,3.4l3.5-4.1c0.1-0.1,0.1-0.1,0.2-0.1c0.1,0,0.2,0.1,0.3,0.2c0,0,0.1,0.1,0.2,0.2
			c0.1,0.1,0.2,0.2,0.3,0.3s0.2,0.2,0.3,0.4c0.1,0.1,0.2,0.3,0.2,0.4c0.1,0.1,0.1,0.2,0.1,0.4c0,0.1,0,0.2-0.1,0.3l-4.9,5.7
			c-0.1,0.1-0.2,0.2-0.3,0.2c-0.1,0.1-0.2,0.1-0.3,0.1c-0.1,0-0.2,0-0.3-0.1c-0.1-0.1-0.2-0.2-0.3-0.3l-8.2-10.5
			c-0.2-0.3-0.3-0.5-0.3-0.8c0-0.3,0.1-0.5,0.3-0.7l4.9-5.6C29.2,39,29.3,39,29.6,39.2z"/>
		<path d="M48.3,40.4c0.1,0.2,0.2,0.3,0.2,0.5c0,0.2,0,0.3,0,0.5c0,0.1-0.1,0.3-0.2,0.4c-0.1,0.1-0.2,0.2-0.3,0.3l-1,0.9
			c-0.2,0.2-0.4,0.3-0.6,0.4c-0.2,0.1-0.3,0.1-0.5,0.1c-0.2,0-0.4-0.1-0.6-0.2c-0.2-0.1-0.5-0.3-0.8-0.5l-6.1-3.5
			c-0.5-0.3-0.9-0.6-1.4-0.9c-0.5-0.3-0.9-0.6-1.3-0.9l0,0c0.3,0.5,0.7,1,1,1.5c0.3,0.5,0.6,1,0.9,1.6l3.9,6.7
			c0,0.1,0.1,0.1,0.1,0.2c0,0.1,0,0.2-0.1,0.3c-0.1,0.1-0.2,0.2-0.3,0.4c-0.1,0.1-0.3,0.3-0.5,0.5c-0.2,0.2-0.4,0.3-0.5,0.4
			c-0.1,0.1-0.3,0.2-0.4,0.2c-0.1,0-0.2,0-0.2,0c-0.1,0-0.1-0.1-0.1-0.2l-6.9-11.9c-0.2-0.3-0.2-0.6-0.2-0.9
			c0.1-0.3,0.2-0.6,0.4-0.8l1.2-1c0.2-0.2,0.4-0.3,0.5-0.4c0.2-0.1,0.4-0.1,0.5-0.1c0.2,0,0.4,0.1,0.6,0.1c0.2,0.1,0.4,0.2,0.7,0.4
			l6.1,3.6c0.4,0.2,0.8,0.5,1.1,0.7c0.4,0.2,0.7,0.5,1.1,0.7l0,0c-0.3-0.5-0.6-1-0.9-1.5c-0.3-0.5-0.6-1-0.9-1.5l-3.6-6.2
			c0-0.1-0.1-0.1-0.1-0.2c0-0.1,0-0.2,0.1-0.3c0.1-0.1,0.2-0.2,0.3-0.3c0.1-0.1,0.3-0.3,0.5-0.5c0.2-0.2,0.4-0.3,0.5-0.4
			c0.1-0.1,0.3-0.2,0.4-0.2c0.1,0,0.2,0,0.2,0c0.1,0,0.1,0.1,0.2,0.1L48.3,40.4z"/>
		<path d="M51.6,22.7c0,0.1,0.1,0.1,0.1,0.2c0.1,0.1,0.1,0.2,0.2,0.3c0.1,0.1,0.1,0.3,0.2,0.4c0.1,0.1,0.1,0.3,0.1,0.4
			c0,0.1,0,0.2,0,0.3c0,0.1,0,0.2-0.1,0.2c-0.1,0.1-0.2,0.1-0.4,0.1c-0.2,0-0.4,0-0.7,0.1c-0.3,0-0.5,0.1-0.9,0.2
			c-0.3,0.1-0.6,0.3-1,0.5c-0.3,0.2-0.6,0.5-0.8,0.7c-0.2,0.3-0.3,0.5-0.3,0.8c0,0.3,0,0.5,0,0.8c0.1,0.2,0.2,0.5,0.3,0.7
			c0.2,0.2,0.3,0.4,0.6,0.5c0.2,0.1,0.5,0.2,0.8,0.2c0.3,0,0.6,0,1,0c0.3,0,0.7,0,1-0.1c0.4,0,0.7,0,1.1,0c0.4,0,0.7,0.1,1.1,0.2
			c0.4,0.1,0.7,0.3,1,0.5c0.3,0.2,0.6,0.6,0.9,1c0.4,0.6,0.7,1.2,0.8,1.9c0.1,0.7,0.1,1.4-0.1,2c-0.2,0.7-0.5,1.3-1,2
			c-0.5,0.6-1.1,1.2-1.9,1.7c-0.4,0.3-0.8,0.5-1.2,0.7c-0.4,0.2-0.8,0.3-1.1,0.4c-0.3,0.1-0.6,0.1-0.9,0.2c-0.3,0-0.5,0-0.6,0
			c-0.2,0-0.3-0.1-0.4-0.3c0-0.1-0.1-0.1-0.1-0.2c-0.1-0.1-0.1-0.2-0.2-0.4c-0.1-0.1-0.1-0.3-0.2-0.4c-0.1-0.1-0.1-0.3-0.1-0.4
			c0-0.1,0-0.2,0-0.3c0-0.1,0-0.2,0.1-0.2c0.1-0.1,0.3-0.1,0.5-0.1c0.2,0,0.5,0,0.8-0.1c0.3,0,0.6-0.1,1-0.2
			c0.4-0.1,0.8-0.3,1.2-0.6c0.4-0.3,0.7-0.5,0.9-0.8c0.2-0.3,0.4-0.6,0.5-0.9c0.1-0.3,0.1-0.6,0-0.9c0-0.3-0.2-0.6-0.3-0.8
			c-0.2-0.2-0.4-0.4-0.6-0.5c-0.2-0.1-0.5-0.2-0.8-0.2c-0.3,0-0.6,0-0.9,0c-0.3,0-0.7,0-1,0.1c-0.4,0-0.7,0-1.1,0
			c-0.4,0-0.7-0.1-1.1-0.2c-0.3-0.1-0.7-0.3-1-0.5c-0.3-0.2-0.6-0.6-0.9-1c-0.4-0.6-0.6-1.2-0.7-1.8s-0.1-1.3,0.1-1.9
			c0.2-0.6,0.5-1.2,0.9-1.8c0.4-0.6,1-1.1,1.7-1.6c0.3-0.2,0.6-0.4,1-0.5c0.3-0.1,0.6-0.3,0.9-0.3c0.3-0.1,0.5-0.1,0.8-0.2
			c0.2,0,0.4,0,0.5,0c0.1,0,0.2,0.1,0.3,0.1C51.5,22.5,51.5,22.6,51.6,22.7z"/>
		<path d="M67.8,18.8c0.3,0.6,0.6,1.3,0.8,2c0.2,0.7,0.4,1.5,0.5,2.3c0.1,0.8,0.1,1.6,0,2.4c-0.1,0.8-0.3,1.6-0.7,2.4
			c-0.3,0.8-0.8,1.5-1.5,2.1s-1.5,1.2-2.4,1.7c-0.8,0.4-1.6,0.7-2.4,0.8c-0.7,0.1-1.4,0.1-2-0.1c-0.6-0.2-1.2-0.5-1.7-1
			c-0.5-0.5-1-1.1-1.4-1.9c-0.3-0.7-0.6-1.4-0.8-2.1c-0.2-0.8-0.4-1.6-0.5-2.4c-0.1-0.8-0.1-1.6,0-2.4c0.1-0.8,0.3-1.6,0.7-2.4
			c0.3-0.8,0.8-1.5,1.5-2.1c0.6-0.6,1.4-1.2,2.4-1.7c0.8-0.4,1.6-0.7,2.4-0.8c0.7-0.1,1.4-0.1,2,0.1c0.6,0.2,1.2,0.5,1.7,1
			C67,17.4,67.4,18,67.8,18.8z M65.1,20.5c-0.2-0.4-0.4-0.8-0.7-1.1c-0.3-0.3-0.6-0.5-0.9-0.6c-0.3-0.1-0.7-0.2-1.1-0.1
			c-0.4,0-0.8,0.2-1.3,0.4c-0.6,0.3-1.1,0.7-1.4,1.1c-0.3,0.5-0.6,1-0.8,1.5c-0.2,0.5-0.2,1.1-0.2,1.7c0,0.6,0.1,1.2,0.2,1.7
			c0.1,0.6,0.2,1.1,0.4,1.6c0.2,0.5,0.3,0.9,0.5,1.3c0.2,0.4,0.4,0.8,0.7,1.1c0.3,0.3,0.6,0.5,0.9,0.6c0.3,0.1,0.7,0.2,1.1,0.1
			c0.4,0,0.8-0.2,1.3-0.4c0.6-0.3,1.1-0.7,1.4-1.1s0.6-0.9,0.7-1.5c0.2-0.5,0.2-1.1,0.2-1.7c0-0.6-0.1-1.2-0.2-1.7
			c-0.1-0.6-0.2-1.1-0.4-1.6C65.4,21.3,65.2,20.9,65.1,20.5z"/>
		<path d="M83.5,23.3c0,0.2,0,0.3,0,0.5c0,0.2-0.1,0.3-0.2,0.4c-0.1,0.1-0.2,0.2-0.3,0.3c-0.1,0.1-0.3,0.1-0.4,0.2l-1.2,0.4
			c-0.3,0.1-0.5,0.1-0.7,0.1c-0.2,0-0.4,0-0.5-0.1c-0.2-0.1-0.3-0.2-0.5-0.4c-0.2-0.2-0.4-0.5-0.6-0.8l-4-5.8
			c-0.3-0.4-0.6-0.9-0.9-1.4c-0.3-0.5-0.6-0.9-0.8-1.4l0,0c0.1,0.6,0.2,1.2,0.3,1.8c0.1,0.6,0.1,1.2,0.2,1.8l0.7,7.8
			c0,0.1,0,0.2,0,0.2c0,0.1-0.1,0.1-0.2,0.2c-0.1,0.1-0.2,0.1-0.4,0.2c-0.2,0.1-0.4,0.1-0.6,0.2c-0.3,0.1-0.5,0.1-0.6,0.2
			c-0.2,0-0.3,0-0.4,0c-0.1,0-0.2,0-0.2-0.1c0-0.1-0.1-0.1-0.1-0.2l-1.3-13.7c0-0.4,0-0.7,0.2-0.9c0.2-0.2,0.4-0.4,0.7-0.5L73,12
			c0.2-0.1,0.5-0.1,0.7-0.1c0.2,0,0.4,0,0.5,0.1c0.2,0.1,0.3,0.2,0.5,0.4c0.1,0.2,0.3,0.4,0.5,0.6l4.1,5.8c0.3,0.4,0.5,0.7,0.8,1.1
			c0.2,0.4,0.5,0.7,0.7,1.1l0,0c-0.1-0.6-0.2-1.1-0.2-1.7c-0.1-0.6-0.1-1.2-0.2-1.7l-0.7-7.2c0-0.1,0-0.2,0-0.2
			c0-0.1,0.1-0.1,0.2-0.2c0.1-0.1,0.2-0.1,0.4-0.2c0.2-0.1,0.4-0.1,0.6-0.2c0.3-0.1,0.5-0.1,0.7-0.2c0.2,0,0.3,0,0.4,0
			c0.1,0,0.2,0,0.2,0.1c0,0,0.1,0.1,0.1,0.2L83.5,23.3z"/>
		<path d="M100.4,20.9c-0.7,0.5-1.5,0.9-2.3,1.3c-0.9,0.4-1.8,0.6-2.9,0.6c-0.7,0.1-1.4,0-2-0.1c-0.6-0.1-1.2-0.3-1.6-0.6
			c-0.5-0.3-0.8-0.6-1.1-1.1c-0.3-0.4-0.4-1-0.5-1.5c0-0.5,0-0.9,0.1-1.4c0.1-0.5,0.3-0.9,0.6-1.4c0.3-0.4,0.7-0.9,1.1-1.3
			c0.5-0.4,1.1-0.8,1.8-1.3c-0.2-0.3-0.4-0.6-0.6-0.9c-0.2-0.3-0.3-0.6-0.4-0.8c-0.1-0.3-0.2-0.5-0.2-0.7c0-0.2-0.1-0.4-0.1-0.5
			c0-0.3,0-0.5,0-0.9c0-0.3,0.1-0.6,0.2-0.9c0.1-0.3,0.3-0.6,0.5-0.9s0.5-0.6,0.9-0.8c0.4-0.2,0.8-0.4,1.4-0.6
			c0.5-0.2,1.2-0.3,1.9-0.3c0.8-0.1,1.5,0,2.1,0.1c0.6,0.1,1.1,0.3,1.4,0.5c0.4,0.2,0.6,0.5,0.8,0.8c0.2,0.3,0.3,0.7,0.3,1
			c0,0.5,0,0.9-0.1,1.3c-0.1,0.4-0.4,0.9-0.7,1.3c-0.3,0.4-0.8,0.9-1.4,1.3c-0.6,0.5-1.3,0.9-2.2,1.4c0.2,0.3,0.4,0.6,0.7,0.8
			c0.2,0.2,0.4,0.5,0.6,0.7c0.2,0.2,0.4,0.5,0.7,0.7c0.2,0.2,0.5,0.5,0.7,0.7c0.3-0.4,0.5-0.8,0.7-1.2c0.2-0.4,0.3-0.8,0.3-1.1
			c0.1-0.3,0.1-0.5,0.1-0.7c0-0.1,0-0.2,0.1-0.3c0-0.1,0.1-0.1,0.2-0.2c0.1,0,0.2-0.1,0.4-0.1c0.2,0,0.4-0.1,0.7-0.1
			c0.4,0,0.8,0,1,0c0.2,0,0.3,0.1,0.3,0.3c0,0.1,0,0.4-0.1,0.7c-0.1,0.3-0.1,0.7-0.2,1c-0.1,0.4-0.2,0.7-0.4,1.1
			c-0.2,0.4-0.3,0.8-0.5,1.1c-0.2,0.3-0.4,0.7-0.6,0.9c0.4,0.3,0.7,0.5,1,0.7c0.3,0.1,0.5,0.2,0.7,0.2c0.2,0,0.3,0,0.3,0.1
			c0.1,0.1,0.1,0.2,0.1,0.3c0,0.1,0,0.2,0,0.4c0,0.2,0,0.4-0.1,0.5c0,0.2-0.1,0.4-0.1,0.5c0,0.2-0.1,0.3-0.2,0.4
			c-0.1,0.1-0.2,0.1-0.3,0.2c-0.2,0.1-0.3,0.1-0.5,0.1c-0.1,0-0.3,0-0.5-0.1c-0.2,0-0.4-0.1-0.6-0.2c-0.2-0.1-0.5-0.2-0.8-0.4
			C101,21.4,100.7,21.1,100.4,20.9z M95,16c-0.3,0.2-0.6,0.4-0.9,0.7c-0.3,0.2-0.5,0.5-0.6,0.7c-0.2,0.2-0.3,0.5-0.3,0.7
			c-0.1,0.3-0.1,0.5-0.1,0.8c0,0.2,0.1,0.4,0.2,0.6c0.1,0.2,0.2,0.4,0.4,0.5c0.2,0.1,0.4,0.3,0.8,0.3c0.3,0.1,0.7,0.1,1.1,0.1
			c0.2,0,0.5-0.1,0.7-0.1c0.2-0.1,0.5-0.1,0.7-0.2c0.2-0.1,0.5-0.2,0.7-0.3c0.2-0.1,0.4-0.3,0.6-0.4c-0.3-0.3-0.6-0.5-0.9-0.8
			c-0.3-0.3-0.6-0.5-0.8-0.8c-0.3-0.3-0.5-0.6-0.8-0.9C95.5,16.6,95.2,16.3,95,16z M96.2,12.8c0.6-0.3,1.1-0.6,1.5-0.9
			c0.4-0.3,0.7-0.5,0.9-0.8c0.2-0.2,0.3-0.5,0.4-0.7c0.1-0.2,0.1-0.4,0.1-0.6c0-0.1,0-0.2-0.1-0.3c-0.1-0.1-0.1-0.2-0.3-0.3
			C98.5,9.1,98.3,9,98.1,9c-0.2,0-0.4-0.1-0.7,0c-0.4,0-0.8,0.1-1,0.3c-0.3,0.1-0.5,0.3-0.6,0.5c-0.1,0.2-0.2,0.4-0.3,0.6
			c0,0.2-0.1,0.4-0.1,0.6c0,0.1,0,0.2,0.1,0.4c0,0.1,0.1,0.3,0.1,0.4c0.1,0.2,0.1,0.3,0.2,0.5C95.9,12.4,96,12.6,96.2,12.8z"/>
		<path d="M121.8,23.4c0,0.1-0.1,0.1-0.1,0.2c-0.1,0.1-0.2,0.1-0.3,0.1c-0.1,0-0.3,0-0.5,0c-0.2,0-0.4,0-0.7-0.1
			c-0.3,0-0.5-0.1-0.7-0.1c-0.2,0-0.3-0.1-0.4-0.2c-0.1-0.1-0.2-0.1-0.2-0.2c0-0.1,0-0.1,0-0.2l2.1-5.8l-5.5-0.8l-2.1,5.8
			c0,0.1-0.1,0.1-0.1,0.2c-0.1,0.1-0.2,0.1-0.3,0.1c-0.1,0-0.3,0-0.5,0c-0.2,0-0.4,0-0.7-0.1c-0.3,0-0.5-0.1-0.7-0.1
			c-0.2,0-0.3-0.1-0.4-0.2c-0.1-0.1-0.2-0.1-0.2-0.2c0-0.1,0-0.1,0-0.2l4.8-13.6c0-0.1,0.1-0.1,0.1-0.2c0.1-0.1,0.2-0.1,0.3-0.1
			c0.1,0,0.3,0,0.5,0c0.2,0,0.4,0,0.7,0.1c0.3,0,0.5,0.1,0.7,0.1c0.2,0,0.3,0.1,0.4,0.2c0.1,0.1,0.2,0.1,0.2,0.2c0,0.1,0,0.1,0,0.2
			l-1.9,5.3l5.5,0.8l1.9-5.3c0-0.1,0.1-0.1,0.1-0.2c0.1-0.1,0.2-0.1,0.3-0.1c0.1,0,0.3,0,0.5,0c0.2,0,0.4,0,0.7,0.1
			c0.3,0,0.5,0.1,0.7,0.1c0.2,0,0.3,0.1,0.4,0.2c0.1,0.1,0.2,0.1,0.2,0.2c0,0.1,0,0.1,0,0.2L121.8,23.4z"/>
		<path d="M139,13.5c0,0,0,0.1-0.1,0.2c0,0.1-0.1,0.2-0.2,0.4c-0.1,0.1-0.1,0.3-0.2,0.4c-0.1,0.1-0.2,0.3-0.3,0.4
			c-0.1,0.1-0.2,0.2-0.3,0.2c-0.1,0.1-0.2,0.1-0.3,0l-5.1-1.5l-1.7,3.3l4.4,1.3c0.1,0,0.2,0.1,0.2,0.2c0,0.1,0,0.2,0,0.3
			c0,0.1,0,0.1-0.1,0.2c0,0.1-0.1,0.2-0.2,0.4c-0.1,0.1-0.1,0.3-0.2,0.4c-0.1,0.1-0.2,0.2-0.3,0.3c-0.1,0.1-0.2,0.2-0.3,0.2
			c-0.1,0.1-0.2,0.1-0.3,0l-4.3-1.3l-2,3.8l5.2,1.5c0.1,0,0.1,0.1,0.2,0.2c0,0.1,0,0.2,0,0.4c0,0.1,0,0.1-0.1,0.2
			c0,0.1-0.1,0.2-0.2,0.4c-0.1,0.1-0.1,0.3-0.2,0.4c-0.1,0.1-0.2,0.2-0.3,0.4c-0.1,0.1-0.2,0.2-0.3,0.2c-0.1,0.1-0.2,0.1-0.3,0
			l-7.2-2.1c-0.1,0-0.2-0.1-0.3-0.1c-0.1-0.1-0.2-0.1-0.2-0.2c0-0.1-0.1-0.2,0-0.3c0-0.1,0.1-0.3,0.1-0.4l6.1-11.8
			c0.2-0.3,0.4-0.5,0.6-0.6c0.2-0.1,0.5-0.1,0.7,0l7.1,2.1C139,13,139.1,13.2,139,13.5z"/>
		<path d="M150.6,24c-0.2,0.4-0.4,0.9-0.7,1.3c-0.3,0.4-0.6,0.9-0.9,1.3c-0.3,0.4-0.7,0.8-1.1,1.2c-0.4,0.4-0.9,0.7-1.4,1
			c-0.5,0.3-1.1,0.5-1.7,0.7c-0.6,0.2-1.2,0.3-1.9,0.3c-0.7,0-1.4,0-2.2-0.2c-0.8-0.2-1.6-0.4-2.6-0.9l-3.5-1.6
			c-0.1-0.1-0.2-0.1-0.3-0.2c-0.1-0.1-0.2-0.2-0.2-0.3c0-0.1,0-0.2,0-0.3c0-0.1,0.1-0.3,0.2-0.4l7.7-10.8c0.2-0.3,0.4-0.5,0.7-0.5
			c0.3-0.1,0.5,0,0.8,0.1l3.3,1.5c1.1,0.5,1.9,1,2.6,1.5c0.6,0.5,1.1,1.1,1.4,1.8c0.3,0.6,0.4,1.3,0.4,2
			C151.2,22.5,151,23.2,150.6,24z M147.6,23.1c0.2-0.4,0.3-0.9,0.4-1.3c0.1-0.4,0-0.8-0.1-1.2c-0.1-0.4-0.4-0.8-0.7-1.1
			c-0.3-0.3-0.9-0.7-1.6-1l-1.4-0.6l-6,8.5l1.5,0.7c0.7,0.3,1.4,0.5,2,0.6c0.6,0,1.1,0,1.7-0.1c0.5-0.1,1-0.4,1.5-0.6
			c0.5-0.3,0.9-0.6,1.2-1c0.4-0.4,0.7-0.8,1-1.2C147.1,24,147.4,23.5,147.6,23.1z"/>
		<path d="M165.9,29.3c0,0.1-0.1,0.1-0.2,0.2c-0.1,0.1-0.2,0.2-0.3,0.3c-0.1,0.1-0.2,0.2-0.3,0.3s-0.2,0.2-0.3,0.2
			c-0.1,0.1-0.2,0.1-0.3,0.1c-0.1,0-0.2,0-0.2,0c-0.1-0.1-0.2-0.2-0.3-0.4c-0.1-0.2-0.3-0.5-0.4-0.8c-0.2-0.3-0.5-0.7-0.8-1
			c-0.3-0.4-0.8-0.7-1.3-1.1c-0.6-0.4-1.1-0.6-1.7-0.7c-0.6-0.1-1.1-0.2-1.7-0.2s-1.1,0.1-1.6,0.3c-0.5,0.2-1,0.4-1.5,0.7
			c-0.5,0.3-0.9,0.6-1.3,1c-0.4,0.4-0.7,0.8-1,1.3c-0.3,0.5-0.5,1-0.6,1.4c-0.1,0.5-0.1,0.9,0,1.3c0.1,0.4,0.3,0.8,0.6,1.2
			c0.3,0.4,0.7,0.7,1.2,1c0.3,0.2,0.7,0.4,1,0.5c0.4,0.1,0.7,0.2,1.1,0.3l2.5-2.5l-2.4-1.5c-0.1-0.1-0.1-0.1-0.1-0.2
			c0-0.1,0-0.2,0.1-0.3c0-0.1,0.1-0.1,0.2-0.2c0.1-0.1,0.2-0.2,0.3-0.3c0.1-0.1,0.2-0.2,0.3-0.3c0.1-0.1,0.2-0.2,0.3-0.2
			c0.1-0.1,0.2-0.1,0.3-0.1c0.1,0,0.2,0,0.3,0l4.2,2.7c0.2,0.1,0.3,0.3,0.3,0.5c0,0.2-0.1,0.4-0.3,0.6l-4.3,4.4
			c-0.1,0.1-0.2,0.2-0.3,0.3c-0.1,0.1-0.2,0.1-0.3,0.1c-0.1,0-0.3,0-0.7,0c-0.3-0.1-0.7-0.2-1.2-0.3c-0.4-0.1-0.9-0.3-1.4-0.5
			c-0.5-0.2-1-0.5-1.5-0.8c-0.9-0.6-1.6-1.2-2.2-1.8c-0.6-0.7-0.9-1.3-1.1-2c-0.2-0.7-0.2-1.4-0.1-2.2c0.1-0.8,0.5-1.5,1-2.3
			c0.5-0.7,1-1.3,1.6-1.9c0.6-0.6,1.2-1.1,1.9-1.5c0.7-0.4,1.4-0.7,2.2-1c0.8-0.2,1.6-0.3,2.4-0.3c0.8,0,1.7,0.1,2.5,0.4
			c0.9,0.3,1.7,0.7,2.6,1.2c0.5,0.3,0.9,0.6,1.3,1c0.4,0.3,0.7,0.7,1,1s0.5,0.6,0.6,0.9c0.1,0.3,0.2,0.5,0.3,0.6c0,0.1,0,0.2,0,0.3
			C166.1,29.1,166,29.2,165.9,29.3z"/>
		<path d="M176.4,36.8c0,0-0.1,0.1-0.2,0.2c-0.1,0.1-0.2,0.2-0.3,0.3c-0.1,0.1-0.2,0.2-0.4,0.3c-0.1,0.1-0.3,0.2-0.4,0.2
			c-0.1,0.1-0.2,0.1-0.4,0.1c-0.1,0-0.2,0-0.3-0.1l-4.1-3.5l-2.9,2.3l3.4,2.9c0.1,0.1,0.1,0.1,0.1,0.2c0,0.1-0.1,0.2-0.2,0.3
			c0,0-0.1,0.1-0.2,0.2c-0.1,0.1-0.2,0.2-0.3,0.3c-0.1,0.1-0.2,0.2-0.4,0.3c-0.1,0.1-0.2,0.2-0.4,0.2c-0.1,0.1-0.2,0.1-0.3,0.1
			c-0.1,0-0.2,0-0.3-0.1l-3.4-2.9l-3.4,2.6l4.1,3.5c0.1,0.1,0.1,0.1,0.1,0.2c0,0.1-0.1,0.2-0.2,0.3c0,0-0.1,0.1-0.2,0.2
			c-0.1,0.1-0.2,0.2-0.3,0.3c-0.1,0.1-0.2,0.2-0.4,0.3c-0.1,0.1-0.2,0.2-0.4,0.2c-0.1,0.1-0.2,0.1-0.4,0.1c-0.1,0-0.2,0-0.3-0.1
			l-5.7-4.9c-0.1-0.1-0.2-0.2-0.2-0.3c-0.1-0.1-0.1-0.2-0.1-0.3c0-0.1,0-0.2,0.1-0.3c0.1-0.1,0.2-0.2,0.3-0.3l10.5-8.2
			c0.3-0.2,0.5-0.3,0.8-0.3c0.3,0,0.5,0.1,0.7,0.3l5.7,4.8C176.6,36.4,176.6,36.6,176.4,36.8z"/>
		<path d="M183.2,45.2c0,0-0.1,0.1-0.2,0.2c-0.1,0.1-0.2,0.1-0.3,0.2c-0.1,0.1-0.2,0.2-0.4,0.2c-0.1,0.1-0.3,0.1-0.4,0.2
			c-0.1,0-0.2,0.1-0.3,0.1c-0.1,0-0.2,0-0.2-0.1c-0.1-0.1-0.1-0.2-0.2-0.4c0-0.2-0.1-0.4-0.2-0.6c-0.1-0.2-0.2-0.5-0.3-0.8
			c-0.1-0.3-0.4-0.6-0.6-0.9c-0.3-0.3-0.6-0.5-0.9-0.7c-0.3-0.1-0.6-0.2-0.8-0.2c-0.3,0-0.5,0-0.7,0.1c-0.2,0.1-0.4,0.2-0.6,0.4
			c-0.2,0.2-0.3,0.4-0.4,0.7c-0.1,0.2-0.1,0.5,0,0.8c0,0.3,0.1,0.6,0.2,0.9c0.1,0.3,0.2,0.7,0.2,1c0.1,0.3,0.1,0.7,0.2,1.1
			c0,0.4,0,0.7,0,1.1c-0.1,0.4-0.2,0.7-0.3,1.1c-0.2,0.4-0.4,0.7-0.8,1c-0.5,0.5-1.1,0.9-1.8,1.1c-0.7,0.2-1.3,0.3-2,0.2
			c-0.7-0.1-1.4-0.3-2.1-0.7c-0.7-0.4-1.4-0.9-2-1.6c-0.3-0.4-0.6-0.7-0.9-1.1c-0.2-0.4-0.4-0.7-0.6-1c-0.1-0.3-0.2-0.6-0.3-0.9
			c-0.1-0.2-0.1-0.5-0.1-0.6c0-0.2,0.1-0.3,0.3-0.5c0,0,0.1-0.1,0.2-0.2c0.1-0.1,0.2-0.1,0.3-0.2c0.1-0.1,0.3-0.2,0.4-0.2
			c0.1-0.1,0.3-0.1,0.4-0.2c0.1,0,0.2-0.1,0.3-0.1c0.1,0,0.2,0,0.2,0.1c0.1,0.1,0.2,0.2,0.2,0.5c0,0.2,0.1,0.5,0.2,0.8
			c0.1,0.3,0.2,0.6,0.4,1c0.2,0.4,0.4,0.7,0.8,1.1c0.3,0.3,0.6,0.6,0.9,0.8c0.3,0.2,0.6,0.3,0.9,0.3c0.3,0,0.6,0,0.9-0.1
			c0.3-0.1,0.5-0.3,0.8-0.5c0.2-0.2,0.3-0.4,0.4-0.7c0.1-0.2,0.1-0.5,0.1-0.8c0-0.3-0.1-0.6-0.2-0.9c-0.1-0.3-0.2-0.7-0.2-1
			c-0.1-0.3-0.1-0.7-0.2-1.1c0-0.4,0-0.7,0-1.1c0.1-0.4,0.2-0.7,0.4-1.1c0.2-0.4,0.5-0.7,0.8-1.1c0.5-0.5,1.1-0.8,1.7-1
			c0.6-0.2,1.2-0.3,1.9-0.2c0.6,0.1,1.3,0.3,1.9,0.6c0.6,0.3,1.2,0.8,1.8,1.4c0.3,0.3,0.5,0.6,0.7,0.9c0.2,0.3,0.4,0.6,0.5,0.8
			c0.1,0.3,0.2,0.5,0.3,0.7c0.1,0.2,0.1,0.4,0.1,0.5c0,0.1,0,0.2-0.1,0.3C183.3,45,183.3,45.1,183.2,45.2z"/>
	</g>
	<g>
		<path d="M34.7,171.1c-0.2,0.1-0.4,0.1-0.5,0.1c-0.2,0-0.3-0.1-0.4-0.2c-0.1-0.1-0.3-0.2-0.5-0.4c-0.2-0.2-0.4-0.4-0.6-0.7
			c-0.3-0.3-0.5-0.6-0.6-0.8c-0.2-0.2-0.3-0.4-0.3-0.5c-0.1-0.1-0.1-0.3,0-0.4c0-0.1,0.1-0.2,0.2-0.3l7.1-6.4l0,0l-10,2.7
			c-0.2,0.1-0.4,0.1-0.5,0.1c-0.1,0-0.3,0-0.4-0.1c-0.1-0.1-0.3-0.2-0.5-0.4c-0.2-0.2-0.4-0.4-0.6-0.8c-0.3-0.4-0.5-0.7-0.7-0.9
			c-0.2-0.2-0.3-0.4-0.3-0.6c-0.1-0.2,0-0.3,0-0.4c0.1-0.1,0.2-0.2,0.3-0.4l9.7-8.9c0.2-0.2,0.3-0.3,0.5-0.4
			c0.1-0.1,0.3-0.1,0.4-0.1c0.1,0,0.3,0.1,0.4,0.3c0.1,0.2,0.3,0.4,0.6,0.7c0.2,0.2,0.4,0.5,0.5,0.6c0.1,0.2,0.2,0.3,0.2,0.4
			c0,0.1,0,0.2,0,0.3c0,0.1-0.1,0.2-0.2,0.2l-8.7,7.4l0,0l12-3.2c0.2,0,0.3-0.1,0.4-0.1c0.1,0,0.2,0,0.4,0.1
			c0.1,0.1,0.3,0.2,0.4,0.3c0.1,0.2,0.3,0.4,0.6,0.6c0.2,0.3,0.4,0.5,0.5,0.7c0.1,0.2,0.2,0.3,0.2,0.4c0,0.1,0,0.2,0,0.3
			c-0.1,0.1-0.1,0.2-0.3,0.3l-8.5,7.6l0,0l12.1-3.4c0.1,0,0.2-0.1,0.3,0s0.2,0,0.3,0.1c0.1,0.1,0.2,0.2,0.4,0.3
			c0.1,0.2,0.3,0.4,0.5,0.6c0.2,0.3,0.4,0.5,0.5,0.6c0.1,0.2,0.1,0.3,0.1,0.4c0,0.1-0.1,0.2-0.3,0.3c-0.2,0.1-0.4,0.1-0.7,0.2
			L34.7,171.1z"/>
		<path d="M57.1,178c-0.4,0.5-0.9,1.1-1.5,1.6c-0.6,0.5-1.2,1-1.9,1.5c-0.7,0.4-1.4,0.8-2.2,1.1c-0.8,0.3-1.6,0.4-2.4,0.5
			c-0.8,0-1.7-0.1-2.6-0.4c-0.9-0.3-1.8-0.8-2.6-1.4c-0.7-0.6-1.3-1.2-1.8-1.8c-0.4-0.6-0.7-1.2-0.8-1.9c-0.1-0.6-0.1-1.3,0.1-2
			c0.2-0.7,0.6-1.4,1.1-2.1c0.4-0.6,1-1.1,1.5-1.7c0.6-0.5,1.2-1,1.9-1.5c0.7-0.4,1.4-0.8,2.2-1c0.8-0.3,1.6-0.4,2.4-0.4
			c0.8,0,1.7,0.1,2.5,0.4c0.9,0.3,1.7,0.8,2.6,1.4c0.7,0.6,1.3,1.2,1.8,1.8c0.4,0.6,0.7,1.2,0.8,1.9c0.1,0.6,0.1,1.3-0.1,2
			C58,176.5,57.6,177.2,57.1,178z M54.4,176.2c0.3-0.4,0.5-0.7,0.7-1.1c0.2-0.4,0.2-0.7,0.2-1.1c0-0.3-0.1-0.7-0.3-1
			c-0.2-0.3-0.5-0.7-1-1c-0.5-0.4-1.1-0.7-1.6-0.8c-0.6-0.1-1.1-0.1-1.7,0c-0.6,0.1-1.1,0.3-1.6,0.6c-0.5,0.3-1,0.6-1.5,0.9
			s-0.9,0.7-1.2,1.1c-0.4,0.4-0.7,0.7-0.9,1c-0.3,0.4-0.5,0.7-0.7,1.1c-0.1,0.4-0.2,0.7-0.2,1.1c0,0.3,0.1,0.7,0.4,1
			c0.2,0.3,0.5,0.7,1,1c0.5,0.4,1.1,0.7,1.6,0.8c0.6,0.1,1.1,0.1,1.7,0c0.5-0.1,1.1-0.3,1.6-0.5c0.5-0.3,1-0.6,1.5-0.9
			c0.5-0.3,0.9-0.7,1.2-1.1C53.8,176.9,54.1,176.5,54.4,176.2z"/>
		<path d="M69.3,182.3c-0.2,0.4-0.5,0.8-0.9,1.2c-0.3,0.4-0.7,0.7-1.2,0.9c-0.5,0.2-1,0.4-1.6,0.5c-0.6,0.1-1.2,0.1-1.9-0.1
			c0.3,0.3,0.4,0.7,0.4,1.2c0,0.5-0.1,1.1-0.3,1.9l-0.9,3c-0.1,0.2-0.1,0.3-0.1,0.4c0,0.1-0.1,0.2-0.1,0.3c0,0.1-0.1,0.1-0.2,0.1
			s-0.2,0-0.3,0c-0.1,0-0.3-0.1-0.5-0.2c-0.2-0.1-0.5-0.2-0.8-0.4c-0.3-0.2-0.5-0.3-0.7-0.4c-0.2-0.1-0.3-0.2-0.4-0.3
			s-0.1-0.2-0.1-0.2c0-0.1,0-0.2,0-0.2l1-3.2c0.1-0.4,0.2-0.7,0.3-1c0-0.3,0-0.6,0-0.8c-0.1-0.2-0.2-0.5-0.3-0.7
			c-0.2-0.2-0.4-0.4-0.7-0.5l-0.8-0.4l-3.7,4.5c0,0.1-0.1,0.1-0.2,0.1c-0.1,0-0.2,0-0.3,0c-0.1,0-0.3-0.1-0.5-0.2
			c-0.2-0.1-0.4-0.2-0.7-0.3c-0.3-0.1-0.5-0.3-0.6-0.4c-0.2-0.1-0.3-0.2-0.4-0.3c-0.1-0.1-0.1-0.2-0.1-0.2c0-0.1,0-0.1,0.1-0.2
			l8.8-10.8c0.2-0.3,0.4-0.4,0.7-0.5c0.3,0,0.5,0,0.8,0.1l3.5,1.9c0.6,0.3,1.2,0.7,1.6,1.1c0.4,0.4,0.8,0.8,1,1.2s0.3,0.9,0.3,1.3
			C69.7,181.3,69.6,181.8,69.3,182.3z M66.2,181.3c0.1-0.2,0.2-0.4,0.2-0.6s0-0.4-0.1-0.6c-0.1-0.2-0.2-0.4-0.4-0.6
			c-0.2-0.2-0.5-0.4-0.8-0.5l-1.5-0.8l-2.7,3.4l1.3,0.7c0.5,0.3,1,0.4,1.4,0.5c0.4,0,0.8,0,1.2-0.1c0.3-0.1,0.6-0.3,0.9-0.5
			C65.8,181.8,66,181.6,66.2,181.3z"/>
		<path d="M74,194.2c0,0.1-0.1,0.1-0.1,0.2c-0.1,0.1-0.1,0.2-0.2,0.4c-0.1,0.1-0.2,0.3-0.3,0.4c-0.1,0.1-0.2,0.3-0.3,0.4
			c-0.1,0.1-0.2,0.2-0.3,0.2c-0.1,0.1-0.2,0.1-0.3,0l-6.4-2.4c-0.1,0-0.2-0.1-0.3-0.2c-0.1-0.1-0.1-0.2-0.2-0.3c0-0.1,0-0.2,0-0.3
			c0-0.1,0.1-0.3,0.2-0.4l7.3-11.8c0-0.1,0.1-0.1,0.2-0.2c0.1,0,0.2-0.1,0.3,0c0.1,0,0.3,0,0.5,0.1c0.2,0.1,0.4,0.1,0.7,0.2
			c0.3,0.1,0.5,0.2,0.7,0.3c0.2,0.1,0.3,0.2,0.4,0.2c0.1,0.1,0.1,0.1,0.1,0.2c0,0.1,0,0.1,0,0.2L69.5,192l4.4,1.6
			c0.1,0,0.2,0.1,0.2,0.2C74.1,193.9,74,194.1,74,194.2z"/>
		<path d="M91.2,190.6c-0.1,0.5-0.2,0.9-0.4,1.4c-0.2,0.5-0.4,1-0.6,1.5c-0.2,0.5-0.5,1-0.9,1.4c-0.3,0.5-0.7,0.9-1.2,1.3
			c-0.4,0.4-0.9,0.8-1.5,1.1c-0.5,0.3-1.1,0.5-1.8,0.7s-1.4,0.3-2.2,0.3c-0.8,0-1.7-0.1-2.7-0.3l-3.7-0.8c-0.1,0-0.2-0.1-0.3-0.1
			c-0.1-0.1-0.2-0.1-0.2-0.2c-0.1-0.1-0.1-0.2-0.1-0.3s0-0.3,0.1-0.4l5.3-12.2c0.1-0.3,0.3-0.5,0.6-0.6c0.2-0.1,0.5-0.1,0.8-0.1
			l3.5,0.8c1.2,0.3,2.1,0.6,2.8,1c0.7,0.4,1.3,0.9,1.7,1.4c0.4,0.6,0.7,1.2,0.8,1.9C91.5,189,91.4,189.7,91.2,190.6z M88,190.3
			c0.1-0.5,0.1-0.9,0.1-1.4c0-0.4-0.2-0.8-0.4-1.2c-0.2-0.4-0.5-0.7-1-0.9c-0.4-0.3-1-0.5-1.7-0.6l-1.5-0.3l-4.2,9.5l1.6,0.3
			c0.8,0.2,1.5,0.2,2.1,0.1c0.6-0.1,1.1-0.2,1.6-0.5s0.9-0.6,1.3-0.9c0.4-0.4,0.7-0.8,1-1.2c0.3-0.4,0.5-0.9,0.7-1.4
			C87.8,191.3,87.9,190.8,88,190.3z"/>
		<path d="M109,187.1c0,0.2,0,0.5-0.1,0.9c-0.1,0.4-0.2,0.7-0.3,0.9c-0.1,0.2-0.2,0.3-0.4,0.3c-0.1,0-0.2-0.1-0.4-0.2
			s-0.3-0.3-0.5-0.4c-0.2-0.1-0.5-0.3-0.9-0.4c-0.3-0.1-0.8-0.2-1.3-0.2c-0.6,0-1.1,0.1-1.6,0.3c-0.5,0.2-0.9,0.5-1.3,0.9
			c-0.4,0.4-0.7,0.8-1,1.3c-0.3,0.5-0.5,1-0.7,1.5c-0.2,0.5-0.3,1-0.4,1.6c-0.1,0.5-0.1,1-0.1,1.5c0,0.5,0.1,1,0.2,1.4
			c0.1,0.4,0.3,0.7,0.6,1c0.3,0.3,0.6,0.5,0.9,0.6c0.4,0.1,0.8,0.2,1.2,0.2c0.5,0,1-0.1,1.4-0.2c0.4-0.1,0.7-0.2,1-0.4
			c0.3-0.1,0.5-0.3,0.7-0.4c0.2-0.1,0.3-0.2,0.5-0.2c0.1,0,0.2,0,0.2,0.1c0,0.1,0.1,0.2,0.1,0.3c0,0.1,0,0.1,0,0.2
			c0,0.1,0,0.2-0.1,0.4c0,0.1-0.1,0.3-0.1,0.4c0,0.2-0.1,0.3-0.1,0.4c0,0.1-0.1,0.3-0.1,0.4c-0.1,0.1-0.1,0.2-0.2,0.3
			c-0.1,0.1-0.3,0.2-0.5,0.3c-0.2,0.1-0.5,0.3-0.9,0.4c-0.4,0.1-0.8,0.2-1.2,0.3c-0.4,0.1-0.9,0.1-1.4,0.1c-0.8,0-1.6-0.1-2.3-0.3
			c-0.7-0.2-1.2-0.6-1.7-1c-0.5-0.5-0.8-1-1.1-1.7c-0.3-0.7-0.4-1.5-0.4-2.4c0-0.7,0.1-1.5,0.2-2.2s0.4-1.5,0.7-2.3
			c0.3-0.7,0.7-1.4,1.1-2.1c0.5-0.7,1-1.2,1.6-1.7s1.3-0.9,2.1-1.2c0.8-0.3,1.7-0.4,2.6-0.4c0.5,0,1,0.1,1.5,0.2
			c0.5,0.1,0.9,0.3,1.3,0.4c0.4,0.2,0.6,0.4,0.7,0.5C108.9,186.7,109,186.9,109,187.1z"/>
		<path d="M121.9,192.9c0,1-0.2,1.9-0.5,2.6c-0.3,0.8-0.7,1.5-1.2,2c-0.5,0.6-1.2,1.1-1.9,1.4c-0.7,0.4-1.6,0.6-2.5,0.8
			c-1,0.2-1.9,0.2-2.6,0.1c-0.8-0.1-1.4-0.4-1.9-0.8c-0.5-0.4-0.9-1-1.1-1.7c-0.2-0.7-0.3-1.6-0.3-2.6l0.3-9.1c0-0.1,0-0.2,0.1-0.2
			c0-0.1,0.1-0.1,0.2-0.2c0.1-0.1,0.3-0.1,0.5-0.2c0.2-0.1,0.4-0.1,0.7-0.2c0.3,0,0.5-0.1,0.7-0.1c0.2,0,0.3,0,0.5,0
			c0.1,0,0.2,0.1,0.2,0.1c0,0.1,0.1,0.1,0.1,0.2l-0.3,9c0,0.6,0,1.1,0.1,1.5c0.1,0.4,0.3,0.7,0.6,1c0.2,0.2,0.6,0.4,0.9,0.5
			c0.4,0.1,0.8,0.1,1.3,0c0.5-0.1,0.9-0.2,1.3-0.4c0.4-0.2,0.7-0.5,1-0.8c0.3-0.3,0.5-0.7,0.6-1.2c0.2-0.4,0.2-0.9,0.3-1.5l0.3-9.1
			c0-0.1,0-0.2,0.1-0.2c0-0.1,0.1-0.1,0.2-0.2c0.1-0.1,0.3-0.1,0.5-0.2c0.2-0.1,0.4-0.1,0.7-0.2c0.3,0,0.5-0.1,0.7-0.1
			c0.2,0,0.3,0,0.4,0c0.1,0,0.2,0.1,0.2,0.1c0,0.1,0.1,0.1,0.1,0.2L121.9,192.9z"/>
		<path d="M134.1,183.2c0.1,0.4,0.2,0.9,0.3,1.3c0,0.5,0,1,0,1.5c-0.1,0.5-0.2,1-0.4,1.5s-0.5,1-0.9,1.4c-0.4,0.4-0.9,0.9-1.4,1.2
			c-0.6,0.4-1.3,0.7-2.1,0.9l-1.5,0.5l0.5,4.9c0,0.1,0,0.2,0,0.2c0,0.1-0.1,0.2-0.2,0.2c-0.1,0.1-0.3,0.2-0.4,0.2
			c-0.2,0.1-0.4,0.2-0.7,0.2c-0.3,0.1-0.5,0.1-0.7,0.2c-0.2,0-0.3,0.1-0.5,0c-0.1,0-0.2,0-0.3-0.1c-0.1,0-0.1-0.1-0.1-0.2l-1.4-13.7
			c0-0.4,0-0.7,0.2-0.9c0.2-0.2,0.4-0.4,0.7-0.5l3.1-1c0.4-0.1,0.7-0.2,1-0.3c0.3-0.1,0.6-0.1,0.9-0.2c0.5-0.1,0.9,0,1.3,0
			c0.4,0.1,0.8,0.2,1.1,0.4c0.3,0.2,0.6,0.5,0.9,0.8C133.7,182.3,133.9,182.7,134.1,183.2z M131.1,184.5c-0.1-0.4-0.3-0.6-0.5-0.8
			c-0.2-0.2-0.6-0.3-1-0.3c-0.2,0-0.4,0-0.6,0.1c-0.2,0-0.4,0.1-0.6,0.2l-1.3,0.4l0.6,5.1l1.3-0.4c0.4-0.1,0.8-0.3,1-0.5
			c0.3-0.2,0.5-0.4,0.7-0.6c0.2-0.2,0.3-0.5,0.4-0.8c0.1-0.3,0.1-0.5,0.2-0.8c0-0.3,0-0.5,0-0.8
			C131.3,184.9,131.2,184.7,131.1,184.5z"/>
		<path d="M150.7,186c0,0,0.1,0.1,0.1,0.2c0,0.1,0.1,0.2,0.1,0.4c0,0.1,0.1,0.3,0.1,0.4c0,0.1,0,0.3,0,0.4c0,0.1,0,0.3-0.1,0.4
			c0,0.1-0.1,0.2-0.2,0.2l-7.5,3.5c-0.1,0-0.2,0-0.3,0c-0.1-0.1-0.2-0.2-0.2-0.3c0,0-0.1-0.1-0.1-0.2c0-0.1-0.1-0.2-0.1-0.4
			c0-0.1-0.1-0.3-0.1-0.4c0-0.2,0-0.3,0-0.4c0-0.1,0-0.2,0.1-0.3c0-0.1,0.1-0.2,0.2-0.2l2.5-1.2l-2.4-9.5l-1.9,2.4
			c-0.1,0.1-0.2,0.2-0.3,0.3c-0.1,0.1-0.2,0.1-0.2,0.1c-0.1,0-0.1,0-0.2-0.1c0-0.1-0.1-0.1-0.1-0.2c0-0.1-0.1-0.2-0.2-0.4
			c-0.1-0.2-0.1-0.4-0.1-0.6c0-0.2,0-0.4,0-0.6c0-0.2,0.1-0.3,0.1-0.5l2.4-3.5c0-0.1,0.1-0.1,0.1-0.1c0,0,0.1-0.1,0.2-0.1
			c0.1-0.1,0.2-0.1,0.3-0.2c0.1-0.1,0.3-0.2,0.5-0.3c0.3-0.1,0.5-0.2,0.6-0.3c0.2-0.1,0.3-0.1,0.4-0.1c0.1,0,0.2,0,0.2,0
			c0,0,0.1,0.1,0.1,0.2l3.1,12.2l2.2-1.1c0.1,0,0.2,0,0.3,0C150.5,185.7,150.6,185.8,150.7,186z"/>
		<path d="M150.3,178.3c-0.2-0.3-0.4-0.7-0.5-1.1c-0.2-0.4-0.3-0.9-0.4-1.4c-0.1-0.5-0.1-1-0.1-1.6c0-0.5,0.2-1.1,0.4-1.6
			c0.2-0.5,0.6-1.1,1-1.6c0.4-0.5,1-1,1.7-1.4c0.6-0.4,1.2-0.6,1.8-0.7c0.5-0.1,1.1-0.1,1.5,0.1c0.5,0.2,0.9,0.4,1.3,0.8
			c0.4,0.4,0.7,0.8,1.1,1.4c0.1,0.2,0.3,0.6,0.5,1c0.2,0.4,0.4,0.9,0.6,1.5c0.2,0.6,0.4,1.2,0.6,1.8c0.2,0.6,0.3,1.3,0.4,2
			c0.1,0.7,0.1,1.4,0,2.1c-0.1,0.7-0.2,1.4-0.5,2.1c-0.3,0.7-0.6,1.3-1.1,1.9c-0.5,0.6-1.2,1.1-2,1.6c-0.3,0.2-0.5,0.3-0.7,0.4
			c-0.2,0.1-0.5,0.2-0.7,0.3c-0.2,0.1-0.4,0.1-0.6,0.2c-0.2,0-0.4,0.1-0.5,0.1c-0.2,0-0.3,0-0.4,0c-0.1,0-0.2-0.1-0.3-0.2
			c0,0-0.1-0.1-0.1-0.2c0-0.1-0.1-0.2-0.1-0.3c0-0.1-0.1-0.3-0.1-0.4c0-0.1-0.1-0.3-0.1-0.4c0-0.1,0-0.2,0-0.3s0.1-0.2,0.1-0.2
			c0.1-0.1,0.2-0.1,0.4-0.1c0.2,0,0.4-0.1,0.6-0.1c0.2-0.1,0.5-0.1,0.8-0.2c0.3-0.1,0.6-0.2,0.9-0.4c0.6-0.3,1-0.7,1.3-1.2
			c0.3-0.4,0.5-0.9,0.6-1.4c0.1-0.5,0.1-1.1,0.1-1.6c-0.1-0.6-0.2-1.1-0.3-1.7c-0.2,0.4-0.5,0.8-0.9,1.2c-0.4,0.4-0.8,0.7-1.4,1.1
			c-0.6,0.3-1.1,0.5-1.6,0.6c-0.5,0.1-0.9,0.1-1.3,0c-0.4-0.1-0.8-0.3-1.1-0.6C150.8,179,150.5,178.7,150.3,178.3z M152.6,176.4
			c0.1,0.2,0.2,0.3,0.4,0.5c0.1,0.1,0.3,0.2,0.5,0.3c0.2,0,0.4,0,0.6,0c0.2,0,0.4-0.1,0.7-0.3c0.2-0.1,0.4-0.2,0.5-0.4
			c0.2-0.1,0.3-0.3,0.5-0.5c0.1-0.2,0.3-0.3,0.4-0.5c0.1-0.2,0.2-0.4,0.3-0.6c-0.2-0.5-0.3-0.9-0.5-1.2c-0.2-0.4-0.3-0.7-0.5-0.9
			c-0.4-0.6-0.7-1-1.1-1.1c-0.4-0.1-0.8,0-1.3,0.2c-0.3,0.2-0.5,0.4-0.7,0.6c-0.2,0.2-0.3,0.5-0.4,0.8c-0.1,0.3-0.1,0.6-0.1,0.8
			c0,0.3,0,0.6,0.1,0.9c0.1,0.3,0.1,0.5,0.2,0.8C152.4,176,152.5,176.2,152.6,176.4z"/>
		<path d="M160.1,172.4c-0.2-0.3-0.4-0.7-0.6-1.1s-0.4-0.9-0.5-1.4c-0.1-0.5-0.2-1-0.2-1.6c0-0.5,0.1-1.1,0.2-1.7
			c0.2-0.6,0.5-1.1,0.8-1.7c0.4-0.5,0.9-1.1,1.6-1.5c0.6-0.4,1.2-0.7,1.7-0.9c0.5-0.1,1-0.2,1.5,0c0.5,0.1,0.9,0.3,1.3,0.7
			c0.4,0.3,0.8,0.8,1.2,1.3c0.2,0.2,0.4,0.5,0.6,0.9s0.5,0.9,0.8,1.4c0.3,0.5,0.5,1.1,0.7,1.7c0.2,0.6,0.4,1.3,0.6,2
			c0.1,0.7,0.2,1.4,0.2,2.1c0,0.7-0.1,1.4-0.3,2.1c-0.2,0.7-0.5,1.4-1,2c-0.4,0.6-1.1,1.2-1.8,1.8c-0.2,0.2-0.5,0.3-0.7,0.5
			c-0.2,0.1-0.4,0.2-0.7,0.3c-0.2,0.1-0.4,0.2-0.6,0.2c-0.2,0.1-0.4,0.1-0.5,0.2c-0.2,0-0.3,0.1-0.4,0c-0.1,0-0.2-0.1-0.3-0.2
			c0,0-0.1-0.1-0.1-0.2c-0.1-0.1-0.1-0.2-0.2-0.3c-0.1-0.1-0.1-0.3-0.2-0.4s-0.1-0.3-0.1-0.4c0-0.1,0-0.2,0-0.3
			c0-0.1,0.1-0.2,0.1-0.2c0.1-0.1,0.2-0.1,0.4-0.2c0.2,0,0.3-0.1,0.6-0.2c0.2-0.1,0.5-0.2,0.7-0.3c0.3-0.1,0.6-0.3,0.8-0.5
			c0.5-0.4,0.9-0.8,1.2-1.3c0.3-0.5,0.4-1,0.5-1.5c0.1-0.5,0-1.1-0.1-1.6c-0.1-0.6-0.3-1.1-0.5-1.7c-0.2,0.4-0.4,0.8-0.8,1.2
			c-0.3,0.4-0.7,0.8-1.3,1.2c-0.5,0.4-1,0.6-1.5,0.8c-0.5,0.1-0.9,0.2-1.3,0.1c-0.4-0.1-0.8-0.2-1.1-0.5
			C160.7,173,160.4,172.7,160.1,172.4z M162.3,170.2c0.1,0.2,0.3,0.3,0.4,0.4c0.2,0.1,0.3,0.2,0.5,0.2c0.2,0,0.4,0,0.6-0.1
			c0.2-0.1,0.4-0.2,0.6-0.3c0.2-0.1,0.3-0.3,0.5-0.4c0.2-0.2,0.3-0.3,0.4-0.5c0.1-0.2,0.3-0.4,0.4-0.6c0.1-0.2,0.2-0.4,0.3-0.6
			c-0.2-0.4-0.4-0.8-0.6-1.2c-0.2-0.3-0.4-0.6-0.5-0.9c-0.4-0.6-0.8-0.9-1.2-1c-0.4-0.1-0.8,0-1.2,0.3c-0.3,0.2-0.5,0.4-0.6,0.7
			c-0.1,0.2-0.2,0.5-0.3,0.8c-0.1,0.3-0.1,0.6,0,0.9c0,0.3,0.1,0.6,0.2,0.8c0.1,0.3,0.2,0.5,0.3,0.8
			C162.1,169.8,162.2,170.1,162.3,170.2z"/>
		<path d="M180.5,165.1c0,0,0.1,0.1,0.2,0.2c0.1,0.1,0.1,0.2,0.2,0.3c0.1,0.1,0.1,0.3,0.2,0.4c0.1,0.1,0.1,0.3,0.1,0.4
			c0,0.1,0.1,0.2,0,0.4c0,0.1,0,0.2-0.1,0.3l-6.5,5.7c-0.1,0.1-0.2,0.2-0.3,0.2c-0.1,0-0.2,0.1-0.3,0.1c-0.1,0-0.2,0-0.2-0.1
			c-0.1,0-0.1-0.1-0.2-0.2c-0.1-0.1-0.2-0.2-0.3-0.4c-0.1-0.2-0.2-0.4-0.3-0.6c-0.1-0.2-0.2-0.5-0.2-0.7c-0.1-0.3-0.1-0.6,0-0.9
			l0.6-4.6c0.1-0.6,0.1-1.2,0.1-1.7c0-0.5,0-0.9,0-1.3c0-0.4-0.1-0.7-0.1-1c-0.1-0.3-0.1-0.6-0.2-0.8c-0.1-0.2-0.2-0.4-0.3-0.6
			c-0.1-0.2-0.2-0.3-0.3-0.4c-0.1-0.1-0.2-0.2-0.4-0.3c-0.1-0.1-0.3-0.2-0.5-0.2c-0.2,0-0.4,0-0.6,0.1c-0.2,0.1-0.4,0.2-0.7,0.4
			c-0.3,0.3-0.6,0.6-0.8,0.9c-0.2,0.3-0.4,0.7-0.5,1c-0.1,0.3-0.2,0.6-0.3,0.8s-0.2,0.4-0.2,0.4c-0.1,0.1-0.2,0.1-0.3,0
			c-0.1,0-0.2-0.1-0.3-0.2c0,0-0.1-0.1-0.2-0.2s-0.1-0.2-0.2-0.3c-0.1-0.1-0.1-0.2-0.2-0.4c-0.1-0.1-0.1-0.3-0.2-0.4
			c-0.1-0.1-0.1-0.3-0.1-0.4c0-0.1,0-0.2,0-0.3c0-0.1,0.1-0.3,0.2-0.6c0.1-0.3,0.3-0.6,0.5-1c0.2-0.4,0.4-0.7,0.7-1.1
			c0.3-0.4,0.6-0.7,1-1c0.6-0.5,1.2-0.9,1.7-1.1c0.5-0.2,1-0.3,1.5-0.3c0.4,0,0.8,0.2,1.2,0.4c0.4,0.2,0.7,0.5,0.9,0.7
			c0.2,0.3,0.4,0.5,0.6,0.8c0.2,0.3,0.3,0.6,0.5,1c0.1,0.4,0.2,0.8,0.3,1.3c0.1,0.5,0.1,1,0.1,1.6c0,0.6,0,1.3-0.1,2
			c-0.1,0.8-0.2,1.6-0.4,2.6l-0.4,2.7l4.3-3.7c0.1-0.1,0.2-0.1,0.3-0.1C180.3,164.9,180.4,164.9,180.5,165.1z"/>
	</g>
	<g>
		<path fill="#195286" d="M82.6,88.1c38.8-3,65.2,3.1,72,4.8c1.7-2.8,3.8-5.3,6.4-7.4c-5-1.4-27.6-7-69.6-4.7
			c-42.6,2.4-79,13.3-84.6,15v3.6C12.4,98,41.6,91.3,82.6,88.1z"/>
		<path fill="#A4C300" d="M6.8,104.4v3.9c4.8-1.1,44-9.2,86.9-10c27.8-0.5,49.5,4.5,57,6.5c0.3-3,1-5.8,2.1-8.5
			c-5.5-1.5-18-4.7-54.1-4.7C56.5,91.6,12.2,103,6.8,104.4z"/>
		<path fill="#D4282A" d="M90.4,103c-43.5,0.3-78.8,8.6-83.6,9.7v3.8c3.3-0.6,38.6-7.2,79.3-7.1c40.6,0.1,61.9,7.3,67,9.3
			c-1.4-3-2.2-6.2-2.4-9.7C144.3,107.3,127,102.7,90.4,103z"/>
	</g>
	<g>
		<path d="M178.8,79.1c-1.4,0-2.8,0.1-4.1,0.3c-10.1-28.7-37.5-49.3-69.6-49.3c-35.6,0-65.4,25.4-72.3,59c1.7-0.4,3.6-0.8,5.4-1.2
			c7.2-30.2,34.4-52.7,66.8-52.7c29.7,0,55.1,19,64.6,45.5c-11,3.8-19,14.2-19,26.6c0,11.4,6.9,21.2,16.7,25.6
			c-10.9,23.5-34.8,39.8-62.3,39.8c-35.1,0-64.1-26.4-68.2-60.4c-1.7,0.2-3.4,0.4-5,0.6c4.4,36.5,35.5,64.9,73.2,64.9
			c29.8,0,55.5-17.7,67.1-43.2c2.1,0.5,4.3,0.8,6.6,0.8c15.5,0,28.1-12.6,28.1-28.1S194.2,79.1,178.8,79.1z M178.8,130.2
			c-1.6,0-3.1-0.2-4.6-0.5c-0.4-0.1-0.8-0.2-1.2-0.3c-0.1,0-0.1,0-0.2-0.1c-0.3-0.1-0.7-0.2-1-0.3c0,0-0.1,0-0.1,0
			c-0.4-0.1-0.7-0.2-1.1-0.4c0,0,0,0,0,0c-0.4-0.1-0.8-0.3-1.1-0.5c-8-3.6-13.6-11.7-13.6-21c0-10.1,6.5-18.6,15.5-21.7
			c0.4-0.1,0.8-0.3,1.2-0.4c0,0,0,0,0.1,0c0.4-0.1,0.8-0.2,1.1-0.3c0,0,0.1,0,0.1,0c0.4-0.1,0.8-0.2,1.1-0.2c0,0,0.1,0,0.1,0
			c0.4-0.1,0.8-0.1,1.2-0.2c0.9-0.1,1.7-0.2,2.6-0.2c12.7,0,23,10.3,23,23C201.8,119.9,191.4,130.2,178.8,130.2z"/>
	</g>
</g>
</svg>
