<svg width="84" height="64" viewBox="0 0 84 64" fill="none" xmlns="http://www.w3.org/2000/svg">
    <path d="M13.3247 8.25806C13.0699 7.95699 12.7542 7.72581 12.3776 7.56452C12.012 7.40323 11.5856 7.32258 11.0982 7.32258C10.6107 7.32258 10.1566 7.41398 9.73562 7.59677C9.32576 7.77957 8.96574 8.03763 8.65557 8.37097C8.35648 8.69355 8.11831 9.08064 7.94107 9.53226C7.77491 9.98387 7.69183 10.4731 7.69183 11C7.69183 11.5376 7.77491 12.0323 7.94107 12.4839C8.11831 12.9247 8.35648 13.3118 8.65557 13.6452C8.95466 13.9677 9.3036 14.2204 9.70239 14.4032C10.1123 14.586 10.5498 14.6774 11.0151 14.6774C11.5468 14.6774 12.0176 14.5699 12.4274 14.3548C12.8373 14.1398 13.1752 13.8387 13.441 13.4516L15.6011 15.0161C15.1027 15.6935 14.4712 16.1935 13.7069 16.5161C12.9426 16.8387 12.1561 17 11.3474 17C10.428 17 9.58054 16.8602 8.80511 16.5806C8.02969 16.3011 7.3595 15.9032 6.79455 15.3871C6.2296 14.8602 5.7865 14.2258 5.46525 13.4839C5.15508 12.7419 5 11.914 5 11C5 10.086 5.15508 9.25806 5.46525 8.51613C5.7865 7.77419 6.2296 7.14516 6.79455 6.62903C7.3595 6.10215 8.02969 5.69892 8.80511 5.41935C9.58054 5.13978 10.428 5 11.3474 5C11.6797 5 12.0231 5.03226 12.3776 5.09677C12.7432 5.15054 13.0976 5.24194 13.441 5.37097C13.7955 5.5 14.1334 5.67204 14.4546 5.8871C14.7759 6.10215 15.0639 6.36559 15.3187 6.67742L13.3247 8.25806Z"
          fill="white"/>
    <path d="M13.3247 8.25806C13.0699 7.95699 12.7542 7.72581 12.3776 7.56452C12.012 7.40323 11.5856 7.32258 11.0982 7.32258C10.6107 7.32258 10.1566 7.41398 9.73562 7.59677C9.32576 7.77957 8.96574 8.03763 8.65557 8.37097C8.35648 8.69355 8.11831 9.08064 7.94107 9.53226C7.77491 9.98387 7.69183 10.4731 7.69183 11C7.69183 11.5376 7.77491 12.0323 7.94107 12.4839C8.11831 12.9247 8.35648 13.3118 8.65557 13.6452C8.95466 13.9677 9.3036 14.2204 9.70239 14.4032C10.1123 14.586 10.5498 14.6774 11.0151 14.6774C11.5468 14.6774 12.0176 14.5699 12.4274 14.3548C12.8373 14.1398 13.1752 13.8387 13.441 13.4516L15.6011 15.0161C15.1027 15.6935 14.4712 16.1935 13.7069 16.5161C12.9426 16.8387 12.1561 17 11.3474 17C10.428 17 9.58054 16.8602 8.80511 16.5806C8.02969 16.3011 7.3595 15.9032 6.79455 15.3871C6.2296 14.8602 5.7865 14.2258 5.46525 13.4839C5.15508 12.7419 5 11.914 5 11C5 10.086 5.15508 9.25806 5.46525 8.51613C5.7865 7.77419 6.2296 7.14516 6.79455 6.62903C7.3595 6.10215 8.02969 5.69892 8.80511 5.41935C9.58054 5.13978 10.428 5 11.3474 5C11.6797 5 12.0231 5.03226 12.3776 5.09677C12.7432 5.15054 13.0976 5.24194 13.441 5.37097C13.7955 5.5 14.1334 5.67204 14.4546 5.8871C14.7759 6.10215 15.0639 6.36559 15.3187 6.67742L13.3247 8.25806Z"
          fill="white"/>
    <path d="M13.3247 8.25806C13.0699 7.95699 12.7542 7.72581 12.3776 7.56452C12.012 7.40323 11.5856 7.32258 11.0982 7.32258C10.6107 7.32258 10.1566 7.41398 9.73562 7.59677C9.32576 7.77957 8.96574 8.03763 8.65557 8.37097C8.35648 8.69355 8.11831 9.08064 7.94107 9.53226C7.77491 9.98387 7.69183 10.4731 7.69183 11C7.69183 11.5376 7.77491 12.0323 7.94107 12.4839C8.11831 12.9247 8.35648 13.3118 8.65557 13.6452C8.95466 13.9677 9.3036 14.2204 9.70239 14.4032C10.1123 14.586 10.5498 14.6774 11.0151 14.6774C11.5468 14.6774 12.0176 14.5699 12.4274 14.3548C12.8373 14.1398 13.1752 13.8387 13.441 13.4516L15.6011 15.0161C15.1027 15.6935 14.4712 16.1935 13.7069 16.5161C12.9426 16.8387 12.1561 17 11.3474 17C10.428 17 9.58054 16.8602 8.80511 16.5806C8.02969 16.3011 7.3595 15.9032 6.79455 15.3871C6.2296 14.8602 5.7865 14.2258 5.46525 13.4839C5.15508 12.7419 5 11.914 5 11C5 10.086 5.15508 9.25806 5.46525 8.51613C5.7865 7.77419 6.2296 7.14516 6.79455 6.62903C7.3595 6.10215 8.02969 5.69892 8.80511 5.41935C9.58054 5.13978 10.428 5 11.3474 5C11.6797 5 12.0231 5.03226 12.3776 5.09677C12.7432 5.15054 13.0976 5.24194 13.441 5.37097C13.7955 5.5 14.1334 5.67204 14.4546 5.8871C14.7759 6.10215 15.0639 6.36559 15.3187 6.67742L13.3247 8.25806Z"
          fill="white"/>
    <path d="M17.7138 5.29032H22.2666C22.8648 5.29032 23.4298 5.34946 23.9615 5.46774C24.5043 5.57527 24.9751 5.76344 25.3739 6.03226C25.7837 6.29032 26.105 6.64516 26.3376 7.09677C26.5813 7.53763 26.7032 8.0914 26.7032 8.75806C26.7032 9.56452 26.4872 10.2527 26.0551 10.8226C25.6231 11.3817 24.9917 11.7366 24.1609 11.8871L27.1518 16.7097H24.0446L21.5854 12.1452H20.3059V16.7097H17.7138V5.29032ZM20.3059 10.0161H21.8346C22.0672 10.0161 22.3109 10.0108 22.5657 10C22.8316 9.97849 23.0698 9.93011 23.2802 9.85484C23.4907 9.76882 23.6624 9.63978 23.7953 9.46774C23.9393 9.2957 24.0113 9.05376 24.0113 8.74194C24.0113 8.45161 23.9504 8.22043 23.8286 8.04839C23.7067 7.87634 23.5516 7.74731 23.3633 7.66129C23.175 7.56452 22.959 7.5 22.7153 7.46774C22.4716 7.43548 22.2334 7.41935 22.0008 7.41935H20.3059V10.0161Z"
          fill="white"/>
    <path d="M17.7138 5.29032H22.2666C22.8648 5.29032 23.4298 5.34946 23.9615 5.46774C24.5043 5.57527 24.9751 5.76344 25.3739 6.03226C25.7837 6.29032 26.105 6.64516 26.3376 7.09677C26.5813 7.53763 26.7032 8.0914 26.7032 8.75806C26.7032 9.56452 26.4872 10.2527 26.0551 10.8226C25.6231 11.3817 24.9917 11.7366 24.1609 11.8871L27.1518 16.7097H24.0446L21.5854 12.1452H20.3059V16.7097H17.7138V5.29032ZM20.3059 10.0161H21.8346C22.0672 10.0161 22.3109 10.0108 22.5657 10C22.8316 9.97849 23.0698 9.93011 23.2802 9.85484C23.4907 9.76882 23.6624 9.63978 23.7953 9.46774C23.9393 9.2957 24.0113 9.05376 24.0113 8.74194C24.0113 8.45161 23.9504 8.22043 23.8286 8.04839C23.7067 7.87634 23.5516 7.74731 23.3633 7.66129C23.175 7.56452 22.959 7.5 22.7153 7.46774C22.4716 7.43548 22.2334 7.41935 22.0008 7.41935H20.3059V10.0161Z"
          fill="white"/>
    <path d="M17.7138 5.29032H22.2666C22.8648 5.29032 23.4298 5.34946 23.9615 5.46774C24.5043 5.57527 24.9751 5.76344 25.3739 6.03226C25.7837 6.29032 26.105 6.64516 26.3376 7.09677C26.5813 7.53763 26.7032 8.0914 26.7032 8.75806C26.7032 9.56452 26.4872 10.2527 26.0551 10.8226C25.6231 11.3817 24.9917 11.7366 24.1609 11.8871L27.1518 16.7097H24.0446L21.5854 12.1452H20.3059V16.7097H17.7138V5.29032ZM20.3059 10.0161H21.8346C22.0672 10.0161 22.3109 10.0108 22.5657 10C22.8316 9.97849 23.0698 9.93011 23.2802 9.85484C23.4907 9.76882 23.6624 9.63978 23.7953 9.46774C23.9393 9.2957 24.0113 9.05376 24.0113 8.74194C24.0113 8.45161 23.9504 8.22043 23.8286 8.04839C23.7067 7.87634 23.5516 7.74731 23.3633 7.66129C23.175 7.56452 22.959 7.5 22.7153 7.46774C22.4716 7.43548 22.2334 7.41935 22.0008 7.41935H20.3059V10.0161Z"
          fill="white"/>
    <path d="M29.1626 5.29032H31.7547V16.7097H29.1626V5.29032Z" fill="white"/>
    <path d="M29.1626 5.29032H31.7547V16.7097H29.1626V5.29032Z" fill="white"/>
    <path d="M29.1626 5.29032H31.7547V16.7097H29.1626V5.29032Z" fill="white"/>
    <path d="M42.5132 8.25806C42.2584 7.95699 41.9427 7.72581 41.5661 7.56452C41.2005 7.40323 40.7741 7.32258 40.2866 7.32258C39.7992 7.32258 39.3451 7.41398 38.9241 7.59677C38.5142 7.77957 38.1542 8.03763 37.8441 8.37097C37.545 8.69355 37.3068 9.08064 37.1296 9.53226C36.9634 9.98387 36.8803 10.4731 36.8803 11C36.8803 11.5376 36.9634 12.0323 37.1296 12.4839C37.3068 12.9247 37.545 13.3118 37.8441 13.6452C38.1432 13.9677 38.4921 14.2204 38.8909 14.4032C39.3008 14.586 39.7383 14.6774 40.2036 14.6774C40.7353 14.6774 41.2061 14.5699 41.6159 14.3548C42.0258 14.1398 42.3637 13.8387 42.6295 13.4516L44.7896 15.0161C44.2912 15.6935 43.6597 16.1935 42.8954 16.5161C42.131 16.8387 41.3445 17 40.5359 17C39.6165 17 38.769 16.8602 37.9936 16.5806C37.2182 16.3011 36.548 15.9032 35.983 15.3871C35.4181 14.8602 34.975 14.2258 34.6537 13.4839C34.3436 12.7419 34.1885 11.914 34.1885 11C34.1885 10.086 34.3436 9.25806 34.6537 8.51613C34.975 7.77419 35.4181 7.14516 35.983 6.62903C36.548 6.10215 37.2182 5.69892 37.9936 5.41935C38.769 5.13978 39.6165 5 40.5359 5C40.8682 5 41.2116 5.03226 41.5661 5.09677C41.9317 5.15054 42.2861 5.24194 42.6295 5.37097C42.984 5.5 43.3219 5.67204 43.6431 5.8871C43.9644 6.10215 44.2524 6.36559 44.5072 6.67742L42.5132 8.25806Z"
          fill="white"/>
    <path d="M42.5132 8.25806C42.2584 7.95699 41.9427 7.72581 41.5661 7.56452C41.2005 7.40323 40.7741 7.32258 40.2866 7.32258C39.7992 7.32258 39.3451 7.41398 38.9241 7.59677C38.5142 7.77957 38.1542 8.03763 37.8441 8.37097C37.545 8.69355 37.3068 9.08064 37.1296 9.53226C36.9634 9.98387 36.8803 10.4731 36.8803 11C36.8803 11.5376 36.9634 12.0323 37.1296 12.4839C37.3068 12.9247 37.545 13.3118 37.8441 13.6452C38.1432 13.9677 38.4921 14.2204 38.8909 14.4032C39.3008 14.586 39.7383 14.6774 40.2036 14.6774C40.7353 14.6774 41.2061 14.5699 41.6159 14.3548C42.0258 14.1398 42.3637 13.8387 42.6295 13.4516L44.7896 15.0161C44.2912 15.6935 43.6597 16.1935 42.8954 16.5161C42.131 16.8387 41.3445 17 40.5359 17C39.6165 17 38.769 16.8602 37.9936 16.5806C37.2182 16.3011 36.548 15.9032 35.983 15.3871C35.4181 14.8602 34.975 14.2258 34.6537 13.4839C34.3436 12.7419 34.1885 11.914 34.1885 11C34.1885 10.086 34.3436 9.25806 34.6537 8.51613C34.975 7.77419 35.4181 7.14516 35.983 6.62903C36.548 6.10215 37.2182 5.69892 37.9936 5.41935C38.769 5.13978 39.6165 5 40.5359 5C40.8682 5 41.2116 5.03226 41.5661 5.09677C41.9317 5.15054 42.2861 5.24194 42.6295 5.37097C42.984 5.5 43.3219 5.67204 43.6431 5.8871C43.9644 6.10215 44.2524 6.36559 44.5072 6.67742L42.5132 8.25806Z"
          fill="white"/>
    <path d="M42.5132 8.25806C42.2584 7.95699 41.9427 7.72581 41.5661 7.56452C41.2005 7.40323 40.7741 7.32258 40.2866 7.32258C39.7992 7.32258 39.3451 7.41398 38.9241 7.59677C38.5142 7.77957 38.1542 8.03763 37.8441 8.37097C37.545 8.69355 37.3068 9.08064 37.1296 9.53226C36.9634 9.98387 36.8803 10.4731 36.8803 11C36.8803 11.5376 36.9634 12.0323 37.1296 12.4839C37.3068 12.9247 37.545 13.3118 37.8441 13.6452C38.1432 13.9677 38.4921 14.2204 38.8909 14.4032C39.3008 14.586 39.7383 14.6774 40.2036 14.6774C40.7353 14.6774 41.2061 14.5699 41.6159 14.3548C42.0258 14.1398 42.3637 13.8387 42.6295 13.4516L44.7896 15.0161C44.2912 15.6935 43.6597 16.1935 42.8954 16.5161C42.131 16.8387 41.3445 17 40.5359 17C39.6165 17 38.769 16.8602 37.9936 16.5806C37.2182 16.3011 36.548 15.9032 35.983 15.3871C35.4181 14.8602 34.975 14.2258 34.6537 13.4839C34.3436 12.7419 34.1885 11.914 34.1885 11C34.1885 10.086 34.3436 9.25806 34.6537 8.51613C34.975 7.77419 35.4181 7.14516 35.983 6.62903C36.548 6.10215 37.2182 5.69892 37.9936 5.41935C38.769 5.13978 39.6165 5 40.5359 5C40.8682 5 41.2116 5.03226 41.5661 5.09677C41.9317 5.15054 42.2861 5.24194 42.6295 5.37097C42.984 5.5 43.3219 5.67204 43.6431 5.8871C43.9644 6.10215 44.2524 6.36559 44.5072 6.67742L42.5132 8.25806Z"
          fill="white"/>
    <path d="M47.002 5.29032H49.5941V10.0323L54.1636 5.29032H57.5533L52.3192 10.5968L58.0019 16.7097H54.3796L49.5941 11.2903V16.7097H47.002V5.29032Z"
          fill="white"/>
    <path d="M47.002 5.29032H49.5941V10.0323L54.1636 5.29032H57.5533L52.3192 10.5968L58.0019 16.7097H54.3796L49.5941 11.2903V16.7097H47.002V5.29032Z"
          fill="white"/>
    <path d="M47.002 5.29032H49.5941V10.0323L54.1636 5.29032H57.5533L52.3192 10.5968L58.0019 16.7097H54.3796L49.5941 11.2903V16.7097H47.002V5.29032Z"
          fill="white"/>
    <path d="M59.701 5.29032H67.6934V7.6129H62.2931V9.74194H67.3943V12.0645H62.2931V14.3871H67.9925V16.7097H59.701V5.29032Z"
          fill="white"/>
    <path d="M59.701 5.29032H67.6934V7.6129H62.2931V9.74194H67.3943V12.0645H62.2931V14.3871H67.9925V16.7097H59.701V5.29032Z"
          fill="white"/>
    <path d="M59.701 5.29032H67.6934V7.6129H62.2931V9.74194H67.3943V12.0645H62.2931V14.3871H67.9925V16.7097H59.701V5.29032Z"
          fill="white"/>
    <path d="M73.0514 7.51613H69.6949V5.29032H79V7.51613H75.6435V16.7097H73.0514V7.51613Z" fill="white"/>
    <path d="M73.0514 7.51613H69.6949V5.29032H79V7.51613H75.6435V16.7097H73.0514V7.51613Z" fill="white"/>
    <path d="M73.0514 7.51613H69.6949V5.29032H79V7.51613H75.6435V16.7097H73.0514V7.51613Z" fill="white"/>
    <path d="M19 59.6934V23.3066H24.0084L31.8788 45.2307H31.981V23.3066H37.1939V59.6934H32.2877L24.3151 37.8204H24.2129V59.6934H19Z"
          fill="white"/>
    <path d="M19 59.6934V23.3066H24.0084L31.8788 45.2307H31.981V23.3066H37.1939V59.6934H32.2877L24.3151 37.8204H24.2129V59.6934H19Z"
          fill="white"/>
    <path d="M19 59.6934V23.3066H24.0084L31.8788 45.2307H31.981V23.3066H37.1939V59.6934H32.2877L24.3151 37.8204H24.2129V59.6934H19Z"
          fill="#F8F9FA"/>
    <path d="M41.9129 59.6934V23.3066H57.4492V28.2127H47.1257V39.2514H56.1204V44.1575H47.1257V59.6934H41.9129Z"
          fill="white"/>
    <path d="M41.9129 59.6934V23.3066H57.4492V28.2127H47.1257V39.2514H56.1204V44.1575H47.1257V59.6934H41.9129Z"
          fill="white"/>
    <path d="M41.9129 59.6934V23.3066H57.4492V28.2127H47.1257V39.2514H56.1204V44.1575H47.1257V59.6934H41.9129Z"
          fill="#F8F9FA"/>
    <path d="M60.5216 31.8923C60.5216 30.4273 60.7771 29.1326 61.2882 28.0083C61.7993 26.884 62.4807 25.9471 63.3324 25.1975C64.1502 24.482 65.0701 23.9369 66.0922 23.5622C67.1484 23.1874 68.2046 23 69.2608 23C70.317 23 71.3562 23.1874 72.3783 23.5622C73.4345 23.9369 74.3885 24.482 75.2402 25.1975C76.058 25.9471 76.7223 26.884 77.2334 28.0083C77.7445 29.1326 78 30.4273 78 31.8923V51.1077C78 52.6409 77.7445 53.9526 77.2334 55.0428C76.7223 56.1331 76.058 57.0359 75.2402 57.7514C74.3885 58.5009 73.4345 59.0631 72.3783 59.4378C71.3562 59.8126 70.317 60 69.2608 60C68.2046 60 67.1484 59.8126 66.0922 59.4378C65.0701 59.0631 64.1502 58.5009 63.3324 57.7514C62.4807 57.0359 61.7993 56.1331 61.2882 55.0428C60.7771 53.9526 60.5216 52.6409 60.5216 51.1077V31.8923ZM65.7345 51.1077C65.7345 52.3683 66.0752 53.3052 66.7566 53.9185C67.4721 54.4977 68.3068 54.7873 69.2608 54.7873C70.2148 54.7873 71.0325 54.4977 71.7139 53.9185C72.4294 53.3052 72.7871 52.3683 72.7871 51.1077V31.8923C72.7871 30.6317 72.4294 29.7118 71.7139 29.1326C71.0325 28.5193 70.2148 28.2127 69.2608 28.2127C68.3068 28.2127 67.4721 28.5193 66.7566 29.1326C66.0752 29.7118 65.7345 30.6317 65.7345 31.8923V51.1077Z"
          fill="white"/>
    <path d="M60.5216 31.8923C60.5216 30.4273 60.7771 29.1326 61.2882 28.0083C61.7993 26.884 62.4807 25.9471 63.3324 25.1975C64.1502 24.482 65.0701 23.9369 66.0922 23.5622C67.1484 23.1874 68.2046 23 69.2608 23C70.317 23 71.3562 23.1874 72.3783 23.5622C73.4345 23.9369 74.3885 24.482 75.2402 25.1975C76.058 25.9471 76.7223 26.884 77.2334 28.0083C77.7445 29.1326 78 30.4273 78 31.8923V51.1077C78 52.6409 77.7445 53.9526 77.2334 55.0428C76.7223 56.1331 76.058 57.0359 75.2402 57.7514C74.3885 58.5009 73.4345 59.0631 72.3783 59.4378C71.3562 59.8126 70.317 60 69.2608 60C68.2046 60 67.1484 59.8126 66.0922 59.4378C65.0701 59.0631 64.1502 58.5009 63.3324 57.7514C62.4807 57.0359 61.7993 56.1331 61.2882 55.0428C60.7771 53.9526 60.5216 52.6409 60.5216 51.1077V31.8923ZM65.7345 51.1077C65.7345 52.3683 66.0752 53.3052 66.7566 53.9185C67.4721 54.4977 68.3068 54.7873 69.2608 54.7873C70.2148 54.7873 71.0325 54.4977 71.7139 53.9185C72.4294 53.3052 72.7871 52.3683 72.7871 51.1077V31.8923C72.7871 30.6317 72.4294 29.7118 71.7139 29.1326C71.0325 28.5193 70.2148 28.2127 69.2608 28.2127C68.3068 28.2127 67.4721 28.5193 66.7566 29.1326C66.0752 29.7118 65.7345 30.6317 65.7345 31.8923V51.1077Z"
          fill="white"/>
    <path d="M60.5216 31.8923C60.5216 30.4273 60.7771 29.1326 61.2882 28.0083C61.7993 26.884 62.4807 25.9471 63.3324 25.1975C64.1502 24.482 65.0701 23.9369 66.0922 23.5622C67.1484 23.1874 68.2046 23 69.2608 23C70.317 23 71.3562 23.1874 72.3783 23.5622C73.4345 23.9369 74.3885 24.482 75.2402 25.1975C76.058 25.9471 76.7223 26.884 77.2334 28.0083C77.7445 29.1326 78 30.4273 78 31.8923V51.1077C78 52.6409 77.7445 53.9526 77.2334 55.0428C76.7223 56.1331 76.058 57.0359 75.2402 57.7514C74.3885 58.5009 73.4345 59.0631 72.3783 59.4378C71.3562 59.8126 70.317 60 69.2608 60C68.2046 60 67.1484 59.8126 66.0922 59.4378C65.0701 59.0631 64.1502 58.5009 63.3324 57.7514C62.4807 57.0359 61.7993 56.1331 61.2882 55.0428C60.7771 53.9526 60.5216 52.6409 60.5216 51.1077V31.8923ZM65.7345 51.1077C65.7345 52.3683 66.0752 53.3052 66.7566 53.9185C67.4721 54.4977 68.3068 54.7873 69.2608 54.7873C70.2148 54.7873 71.0325 54.4977 71.7139 53.9185C72.4294 53.3052 72.7871 52.3683 72.7871 51.1077V31.8923C72.7871 30.6317 72.4294 29.7118 71.7139 29.1326C71.0325 28.5193 70.2148 28.2127 69.2608 28.2127C68.3068 28.2127 67.4721 28.5193 66.7566 29.1326C66.0752 29.7118 65.7345 30.6317 65.7345 31.8923V51.1077Z"
          fill="#F8F9FA"/>
    <path d="M15 25C15 27.7614 12.7614 30 10 30C7.23858 30 5 27.7614 5 25C5 22.2386 7.23858 20 10 20C12.7614 20 15 22.2386 15 25Z"
          fill="#FF5353"/>
    <mask id="mask0" mask-type="alpha" maskUnits="userSpaceOnUse" x="5" y="20" width="10" height="10">
        <path d="M15 25C15 27.7614 12.7614 30 10 30C7.23858 30 5 27.7614 5 25C5 22.2386 7.23858 20 10 20C12.7614 20 15 22.2386 15 25Z"
              fill="#FF5353"/>
    </mask>
    <g mask="url(#mask0)">
        <path fill-rule="evenodd" clip-rule="evenodd" d="M13.4339 30L6 21.7401L6.56609 21.1111L14 29.371L13.4339 30Z"
              fill="#F8F9FA"/>
        <path fill-rule="evenodd" clip-rule="evenodd"
              d="M14.7066 28.8889L7 20.326L7.29343 20L15 28.5629L14.7066 28.8889Z" fill="#F8F9FA"/>
        <path fill-rule="evenodd" clip-rule="evenodd" d="M11.7433 30L5 22.5075L5.25675 22.2222L12 29.7147L11.7433 30Z"
              fill="#F8F9FA"/>
    </g>
    <path fill-rule="evenodd" clip-rule="evenodd"
          d="M8.71429 31C7.76751 31 7 31.6334 7 32.4146V36.6585H13V32.4146C13 31.6334 12.2325 31 11.2857 31H10.4286V31.7073H9.57143V31H8.71429ZM7 38.0732V37.0122H13V38.0732H7ZM7 38.4268V60H13V38.4268H7Z"
          fill="#F8F9FA"/>
</svg>
