<?xml version="1.0" encoding="utf-8"?>
<!-- Generator: Adobe Illustrator 22.0.1, SVG Export Plug-In . SVG Version: 6.00 Build 0)  -->
<svg version="1.1" id="Layer_1" xmlns="http://www.w3.org/2000/svg" xmlns:xlink="http://www.w3.org/1999/xlink" x="0px" y="0px"
	 width="226.63px" height="250.1px" viewBox="0 0 226.63 250.1" enable-background="new 0 0 226.63 250.1" xml:space="preserve">
<path fill="#3C1053" d="M92.36,213.9v6.95h-8.47v18.11c0,3.23,1.53,3.86,4.36,3.86c1.65,0,2.89-0.32,3.48-0.5l0.63-0.2v6.97
	l-0.35,0.09c-2.38,0.6-4.36,0.8-7.29,0.8c-2.03,0-8.65-0.67-8.65-9.35v-19.78h-4.97v-0.47c0-0.34,0-2.73,0-4.95v-1.53h4.97v-8.92
	l7.82-2.74v11.65H92.36z M144.9,202.53l-9.36,46.7h-7.95l-8.28-32.52l-8.41,32.52h-7.82l-9.79-46.7h8.16l6.35,31.68l7.89-31.68h7.61
	c0.76,2.96,7.9,31.29,7.99,31.65c0.06-0.38,5.62-30.61,5.82-31.65H144.9z M153.01,227.91c0.2-3.33,2.55-7.68,7.53-7.68
	c5.4,0,7.04,4.77,7.22,7.68H153.01z M160.89,213.26c-5.96,0-16.03,3.89-16.03,18.47c0,17.36,13.82,18.25,16.58,18.25
	c5.87,0,8.48-1.22,11.06-2.43l0.28-0.13v-7.38l-0.74,0.45c-1.87,1.17-5.49,2.48-9.55,2.48c-8.21,0-9.37-5.87-9.48-8.34h22.57
	l0.04-0.4c0.71-4.87,0.01-11.7-3.99-16.34C168.99,214.82,165.36,213.26,160.89,213.26 M204.54,239.4c0,5.3-4.61,10.65-13.38,10.65
	c-3.85,0-8.1-0.95-11.15-2.43l-0.28-0.14v-7.58l0.72,0.39c2.54,1.37,6.61,2.82,10.5,2.82c3.55,0,5.58-1.27,5.58-3.49
	c0-2.09-1.25-2.73-4.33-4.09l-1.21-0.52c-1.49-0.64-2.8-1.22-4.94-2.21c-2.06-0.93-6.87-3.09-6.87-9.55c0-3.47,2.66-9.99,12.65-9.99
	c4.12,0,8.2,1.11,9.81,1.89l0.28,0.14v7.45l-0.72-0.34c-3.19-1.58-5.99-2.31-9.09-2.31c-1.14,0-4.92,0.23-4.92,2.87
	c0,2.01,2.38,3.05,4.3,3.92l0.37,0.16c1.39,0.61,2.48,1.12,3.41,1.49l1.01,0.43C202.29,231.6,204.54,234.41,204.54,239.4
	 M27.84,202.53h7.64v46.7h-7.43L7.68,216.71v32.52H0.05v-46.7h7.62l20.18,32.77V202.53z M218.11,220.85v18.11
	c0,3.24,1.53,3.86,4.36,3.86c1.61,0,2.85-0.32,3.47-0.49l0.64-0.21v6.97l-0.4,0.09c-2.34,0.6-4.32,0.8-7.26,0.8
	c-2.03,0-8.61-0.67-8.61-9.35v-19.78h-5v-0.47c-0.02-0.34-0.02-2.73,0-4.95v-1.53h5v-8.92l7.8-2.74v11.65h8.47v6.95H218.11z
	 M61.07,238.91c-0.9,1.11-3.71,4.03-8.08,4.03c-3.36,0-5.51-1.93-5.51-4.92c0-3.06,2.45-4.83,6.72-4.83h6.87V238.91z M55.04,213.15
	c-3.97,0-7.83,0.69-10.54,1.87l-0.31,0.11v7.19l0.71-0.35c1.83-0.89,6.23-1.7,8.98-1.7c6.86,0,7.16,2.61,7.18,6.01h-7.33
	c-9.72,0-14.14,6.09-14.14,11.73c0,7.87,6.26,11.96,12.47,11.96c4.23,0,6.9-1.59,9.05-3.49v2.74h7.74v-23.88
	C68.86,214.34,59.19,213.15,55.04,213.15"/>
<g>
	<polygon fill="#FFFFFF" points="99.27,170.33 113.3,145.94 127.37,170.33 183.55,170.33 183.56,170.33 211.63,121.69 183.54,73.04 
		183.55,73.04 155.43,73.04 169.49,48.7 141.4,0.05 141.4,0.05 85.23,0.05 57.16,48.67 71.26,73.04 43.08,73.04 15.02,121.66 
		15.01,121.66 15,121.68 43.08,170.33 99.25,170.33 	"/>
	<g>
		<defs>
			<polygon id="SVGID_1_" points="155.43,73.04 141.42,97.33 113.33,97.33 99.3,121.66 155.47,121.66 183.55,73.04 			"/>
		</defs>
		<clipPath id="SVGID_2_">
			<use xlink:href="#SVGID_1_"  overflow="visible"/>
		</clipPath>
		<defs>
			<filter id="Adobe_OpacityMaskFilter" filterUnits="userSpaceOnUse" x="78.25" y="36.57" width="126.35" height="121.58">
				<feColorMatrix  type="matrix" values="1 0 0 0 0  0 1 0 0 0  0 0 1 0 0  0 0 0 1 0"/>
			</filter>
		</defs>
		<mask maskUnits="userSpaceOnUse" x="78.25" y="36.57" width="126.35" height="121.58" id="SVGID_3_">
			<g filter="url(#Adobe_OpacityMaskFilter)">
				<g>
					<defs>
						
							<rect id="SVGID_4_" x="99.31" y="48.72" transform="matrix(0.5 -0.866 0.866 0.5 -13.5994 171.1528)" width="84.23" height="97.27"/>
					</defs>
					<clipPath id="SVGID_5_" clip-path="url(#SVGID_2_)">
						<use xlink:href="#SVGID_4_"  overflow="visible"/>
					</clipPath>
					
						<linearGradient id="SVGID_6_" gradientUnits="userSpaceOnUse" x1="366.6782" y1="765.0944" x2="369.6108" y2="765.0944" gradientTransform="matrix(14.3727 8.2981 8.2981 -14.3727 -11498.625 8038.9214)">
						<stop  offset="0" style="stop-color:#1A1A1A"/>
						<stop  offset="0.1413" style="stop-color:#222222"/>
						<stop  offset="0.3718" style="stop-color:#3B3B3B"/>
						<stop  offset="0.6627" style="stop-color:#626262"/>
						<stop  offset="1" style="stop-color:#999999"/>
					</linearGradient>
					<polygon clip-path="url(#SVGID_5_)" fill="url(#SVGID_6_)" points="109.84,-18.15 257.24,66.96 173.01,212.85 25.6,127.75 
											"/>
				</g>
			</g>
		</mask>
		
			<linearGradient id="SVGID_7_" gradientUnits="userSpaceOnUse" x1="366.6781" y1="765.0944" x2="369.6108" y2="765.0944" gradientTransform="matrix(14.3727 8.2981 8.2981 -14.3727 -11498.624 8038.9219)">
			<stop  offset="0" style="stop-color:#E40521"/>
			<stop  offset="1" style="stop-color:#E40521"/>
		</linearGradient>
		<polygon clip-path="url(#SVGID_2_)" mask="url(#SVGID_3_)" fill="url(#SVGID_7_)" points="120.36,36.57 204.6,85.2 162.48,158.14 
			78.25,109.51 		"/>
	</g>
	<g>
		<defs>
			<polygon id="SVGID_8_" points="57.17,48.67 57.17,48.67 71.26,73.04 99.26,73.04 113.33,97.33 141.42,97.33 113.33,48.67 			"/>
		</defs>
		<clipPath id="SVGID_9_">
			<use xlink:href="#SVGID_8_"  overflow="visible"/>
		</clipPath>
		<defs>
			<filter id="Adobe_OpacityMaskFilter_1_" filterUnits="userSpaceOnUse" x="33.21" y="7.19" width="132.17" height="131.63">
				<feColorMatrix  type="matrix" values="1 0 0 0 0  0 1 0 0 0  0 0 1 0 0  0 0 0 1 0"/>
			</filter>
		</defs>
		<mask maskUnits="userSpaceOnUse" x="33.21" y="7.19" width="132.17" height="131.63" id="SVGID_10_">
			<g filter="url(#Adobe_OpacityMaskFilter_1_)">
				<g>
					<defs>
						
							<rect id="SVGID_11_" x="53.58" y="25.09" transform="matrix(0.6428 -0.766 0.766 0.6428 -20.4549 102.136)" width="91.43" height="95.82"/>
					</defs>
					<clipPath id="SVGID_12_" clip-path="url(#SVGID_9_)">
						<use xlink:href="#SVGID_11_"  overflow="visible"/>
					</clipPath>
					
						<linearGradient id="SVGID_13_" gradientUnits="userSpaceOnUse" x1="442.1075" y1="754.9016" x2="445.0401" y2="754.9016" gradientTransform="matrix(-10.0181 11.9394 11.9394 10.0181 -4466.938 -12789.3857)">
						<stop  offset="0" style="stop-color:#1A1A1A"/>
						<stop  offset="0.1413" style="stop-color:#222222"/>
						<stop  offset="0.3718" style="stop-color:#3B3B3B"/>
						<stop  offset="0.6627" style="stop-color:#626262"/>
						<stop  offset="1" style="stop-color:#999999"/>
					</linearGradient>
					<polygon clip-path="url(#SVGID_12_)" fill="url(#SVGID_13_)" points="230.19,61.57 110.77,203.89 -31.61,84.43 87.81,-57.89 
											"/>
				</g>
			</g>
		</mask>
		
			<linearGradient id="SVGID_14_" gradientUnits="userSpaceOnUse" x1="442.1075" y1="754.9016" x2="445.0401" y2="754.9016" gradientTransform="matrix(-10.0181 11.9394 11.9394 10.0181 -4466.938 -12789.3857)">
			<stop  offset="0" style="stop-color:#E40521"/>
			<stop  offset="1" style="stop-color:#E40521"/>
		</linearGradient>
		<polygon clip-path="url(#SVGID_9_)" mask="url(#SVGID_10_)" fill="url(#SVGID_14_)" points="165.37,68.78 106.61,138.82 
			33.21,77.23 91.98,7.19 		"/>
	</g>
	<g>
		<defs>
			<polygon id="SVGID_15_" points="71.19,121.66 99.27,170.33 113.31,145.94 99.3,121.66 113.33,97.33 99.26,73.04 			"/>
		</defs>
		<clipPath id="SVGID_16_">
			<use xlink:href="#SVGID_15_"  overflow="visible"/>
		</clipPath>
		<defs>
			<filter id="Adobe_OpacityMaskFilter_2_" filterUnits="userSpaceOnUse" x="23.28" y="52.29" width="137.96" height="138.8">
				<feColorMatrix  type="matrix" values="1 0 0 0 0  0 1 0 0 0  0 0 1 0 0  0 0 0 1 0"/>
			</filter>
		</defs>
		<mask maskUnits="userSpaceOnUse" x="23.28" y="52.29" width="137.96" height="138.8" id="SVGID_17_">
			<g filter="url(#Adobe_OpacityMaskFilter_2_)">
				<g>
					<defs>
						
							<rect id="SVGID_18_" x="41.45" y="74.28" transform="matrix(0.6428 -0.766 0.766 0.6428 -60.2627 114.1372)" width="101.61" height="94.82"/>
					</defs>
					<clipPath id="SVGID_19_" clip-path="url(#SVGID_16_)">
						<use xlink:href="#SVGID_18_"  overflow="visible"/>
					</clipPath>
					
						<linearGradient id="SVGID_20_" gradientUnits="userSpaceOnUse" x1="379.0284" y1="764.66" x2="381.961" y2="764.66" gradientTransform="matrix(16.339 13.7104 13.7104 -16.339 -16604.3555 7402.1938)">
						<stop  offset="0" style="stop-color:#1A1A1A"/>
						<stop  offset="0.1413" style="stop-color:#222222"/>
						<stop  offset="0.3718" style="stop-color:#3B3B3B"/>
						<stop  offset="0.6627" style="stop-color:#626262"/>
						<stop  offset="1" style="stop-color:#999999"/>
					</linearGradient>
					<polygon clip-path="url(#SVGID_19_)" fill="url(#SVGID_20_)" points="80.28,-15.64 229.57,109.64 104.23,259.01 -45.06,133.74 
											"/>
				</g>
			</g>
		</mask>
		
			<linearGradient id="SVGID_21_" gradientUnits="userSpaceOnUse" x1="379.0284" y1="764.66" x2="381.961" y2="764.66" gradientTransform="matrix(16.339 13.7104 13.7104 -16.339 -16604.3555 7402.1934)">
			<stop  offset="0" style="stop-color:#E40521"/>
			<stop  offset="1" style="stop-color:#E40521"/>
		</linearGradient>
		<polygon clip-path="url(#SVGID_16_)" mask="url(#SVGID_17_)" fill="url(#SVGID_21_)" points="88.6,52.29 161.24,113.24 
			95.92,191.08 23.28,130.13 		"/>
	</g>
	<path fill="#E40521" d="M183.56,170.33h-0.01h-56.17L99.3,121.66h56.17l28.07-48.62l28.09,48.64L183.56,170.33z M71.19,121.66
		L71.19,121.66l28.07-48.62H43.09l-28.07,48.62h0L15,121.68l28.09,48.65h56.17h0.02L71.19,121.66z M141.4,0.06l28.09,48.64
		l-28.07,48.63l-28.08-48.66h0H57.17L85.23,0.06H141.4z M141.4,0.06L141.4,0.06L141.4,0.06z"/>
	<path fill="#D20A18" d="M183.54,73.04l28.09,48.64l-28.07,48.65l-28.09-48.67L183.54,73.04z M71.19,121.66H15.02L15,121.68
		l28.08,48.65h56.17h0.01L71.19,121.66z M113.33,48.67l28.09,48.66l28.07-48.63L141.4,0.06L113.33,48.67z"/>
</g>
</svg>
