<?xml version="1.0" encoding="UTF-8" standalone="no"?>
<!-- Created with Inkscape (http://www.inkscape.org/) -->

<svg
   xmlns:dc="http://purl.org/dc/elements/1.1/"
   xmlns:cc="http://creativecommons.org/ns#"
   xmlns:rdf="http://www.w3.org/1999/02/22-rdf-syntax-ns#"
   xmlns:svg="http://www.w3.org/2000/svg"
   xmlns="http://www.w3.org/2000/svg"
   xmlns:sodipodi="http://sodipodi.sourceforge.net/DTD/sodipodi-0.dtd"
   xmlns:inkscape="http://www.inkscape.org/namespaces/inkscape"
   width="272.73001"
   height="298"
   id="svg3340"
   version="1.1"
   inkscape:version="0.47 r22583"
   sodipodi:docname="New document 3">
  <defs
     id="defs3342">
    <inkscape:perspective
       sodipodi:type="inkscape:persp3d"
       inkscape:vp_x="0 : 526.18109 : 1"
       inkscape:vp_y="0 : 1000 : 0"
       inkscape:vp_z="744.09448 : 526.18109 : 1"
       inkscape:persp3d-origin="372.04724 : 350.78739 : 1"
       id="perspective3348" />
    <inkscape:perspective
       id="perspective3266"
       inkscape:persp3d-origin="0.5 : 0.33333333 : 1"
       inkscape:vp_z="1 : 0.5 : 1"
       inkscape:vp_y="0 : 1000 : 0"
       inkscape:vp_x="0 : 0.5 : 1"
       sodipodi:type="inkscape:persp3d" />
    <radialGradient
       fx="0"
       fy="0"
       cx="0"
       cy="0"
       r="1"
       gradientUnits="userSpaceOnUse"
       gradientTransform="matrix(0,78.395,78.395,0,209.499,642.352)"
       spreadMethod="pad"
       id="radialGradient332">
      <stop
         style="stop-opacity:1;stop-color:#ffd900"
         offset="0"
         id="stop334" />
      <stop
         style="stop-opacity:1;stop-color:#ee3869"
         offset="1"
         id="stop336" />
    </radialGradient>
    <radialGradient
       fx="0"
       fy="0"
       cx="0"
       cy="0"
       r="1"
       gradientUnits="userSpaceOnUse"
       gradientTransform="matrix(0,55.779,55.779,0,236.228,679.773)"
       spreadMethod="pad"
       id="radialGradient350">
      <stop
         style="stop-opacity:1;stop-color:#00b0d8"
         offset="0"
         id="stop352" />
      <stop
         style="stop-opacity:1;stop-color:#005ba6"
         offset="1"
         id="stop354" />
    </radialGradient>
    <radialGradient
       fx="0"
       fy="0"
       cx="0"
       cy="0"
       r="1"
       gradientUnits="userSpaceOnUse"
       gradientTransform="matrix(0,74.15,74.15,0,222.283,661.41)"
       spreadMethod="pad"
       id="radialGradient368">
      <stop
         style="stop-opacity:1;stop-color:#bed730"
         offset="0"
         id="stop370" />
      <stop
         style="stop-opacity:1;stop-color:#008f54"
         offset="1"
         id="stop372" />
    </radialGradient>
  </defs>
  <sodipodi:namedview
     id="base"
     pagecolor="#ffffff"
     bordercolor="#666666"
     borderopacity="1.0"
     inkscape:pageopacity="0.0"
     inkscape:pageshadow="2"
     inkscape:zoom="5.6"
     inkscape:cx="151.03607"
     inkscape:cy="348.22523"
     inkscape:document-units="px"
     inkscape:current-layer="layer1"
     showgrid="false"
     inkscape:window-width="1280"
     inkscape:window-height="750"
     inkscape:window-x="-8"
     inkscape:window-y="-8"
     inkscape:window-maximized="1" />
  <metadata
     id="metadata3345">
    <rdf:RDF>
      <cc:Work
         rdf:about="">
        <dc:format>image/svg+xml</dc:format>
        <dc:type
           rdf:resource="http://purl.org/dc/dcmitype/StillImage" />
        <dc:title></dc:title>
      </cc:Work>
    </rdf:RDF>
  </metadata>
  <g
     inkscape:label="Layer 1"
     inkscape:groupmode="layer"
     id="layer1"
     transform="translate(-138.63384,-257.00793)">
    <g
       transform="matrix(0,1.0768697,1.0768697,0,-422.76184,136.48296)"
       id="g3196">
      <g
         transform="translate(331.741,527.483)"
         id="g242">
        <path
           id="path244"
           style="fill:#231f20;fill-opacity:1;fill-rule:nonzero;stroke:none"
           d="M 0,0 0,-3.508 -18.547,0 l 0,3.52 L 0,0" />
      </g>
      <g
         transform="translate(316.822,545.732)"
         id="g246">
        <path
           id="path248"
           style="fill:#231f20;fill-opacity:1;fill-rule:nonzero;stroke:none"
           d="m 0,0 c -0.382,-1.073 -0.571,-2.25 -0.571,-3.35 0,-4.891 4.885,-6.569 8.567,-6.569 2.363,0 3.931,0.959 3.931,3.987 0,1.37 -0.303,2.689 -0.773,3.844 l 3.27,-0.25 c 0.436,-1.404 0.737,-3.078 0.737,-4.671 0,-5.632 -3.458,-6.895 -6.478,-6.895 -6.318,0 -12.442,3.709 -12.442,10.904 0,1.517 0.187,2.803 0.522,3.904 L 0,0" />
      </g>
      <g
         transform="translate(316.822,560.037)"
         id="g250">
        <path
           id="path252"
           style="fill:#231f20;fill-opacity:1;fill-rule:nonzero;stroke:none"
           d="m 0,0 c -0.382,-1.068 -0.571,-2.25 -0.571,-3.353 0,-4.883 4.885,-6.558 8.567,-6.558 2.363,0 3.931,0.958 3.931,3.982 0,1.371 -0.303,2.69 -0.773,3.843 l 3.27,-0.246 c 0.436,-1.405 0.737,-3.077 0.737,-4.669 0,-5.634 -3.458,-6.899 -6.478,-6.899 -6.318,0 -12.442,3.712 -12.442,10.91 0,1.51 0.187,2.798 0.522,3.898 L 0,0" />
      </g>
      <g
         transform="translate(316.822,581.106)"
         id="g254">
        <path
           id="path256"
           style="fill:#231f20;fill-opacity:1;fill-rule:nonzero;stroke:none"
           d="m 0,0 c -0.382,-1.073 -0.571,-2.247 -0.571,-3.348 0,-4.891 4.885,-6.566 8.567,-6.566 2.363,0 3.931,0.96 3.931,3.982 0,1.372 -0.303,2.691 -0.773,3.849 l 3.27,-0.253 c 0.436,-1.395 0.737,-3.078 0.737,-4.664 0,-5.633 -3.458,-6.898 -6.478,-6.898 -6.318,0 -12.442,3.711 -12.442,10.904 0,1.512 0.187,2.801 0.522,3.9 L 0,0" />
      </g>
      <g
         transform="translate(321.19,590.998)"
         id="g258">
        <path
           id="path260"
           style="fill:#231f20;fill-opacity:1;fill-rule:nonzero;stroke:none"
           d="m 0,0 c -0.63,-2.006 2.969,-4.393 7.58,-5.308 l 2.972,-0.574 0,-3.434 -7.146,1.371 c -1.918,0.386 -4.75,0.909 -6.51,1.187 l 0,3.321 c 1.045,-0.196 2.258,-0.523 4.12,-1.184 l 0,0.057 c -2.884,1.456 -4.782,2.937 -4.397,5.304 L 0,0" />
      </g>
      <g
         transform="translate(316.329,596.242)"
         id="g262">
        <path
           id="path264"
           style="fill:#231f20;fill-opacity:1;fill-rule:nonzero;stroke:none"
           d="m 0,0 c 0,-1.211 -0.962,-2.059 -2.035,-2.029 -1.261,0.023 -2.22,1.123 -2.22,2.333 0,1.182 0.928,2.057 1.973,2.033 C -0.962,2.311 0,1.207 0,0 z m 15.412,-1.484 0,-3.434 -13.656,2.609 0,3.435 13.656,-2.61" />
      </g>
      <g
         transform="translate(321.19,608.633)"
         id="g266">
        <path
           id="path268"
           style="fill:#231f20;fill-opacity:1;fill-rule:nonzero;stroke:none"
           d="m 0,0 c -0.272,-0.605 -0.414,-1.297 -0.414,-2.113 0,-2.859 3.189,-4.182 5.743,-4.182 1.293,0 2.42,0.545 2.42,2.423 0,0.879 -0.19,1.805 -0.527,2.549 l 3.053,-0.297 c 0.328,-0.935 0.545,-2.088 0.545,-3.275 0,-3.652 -1.861,-5.052 -4.717,-5.052 -5.223,0 -9.484,3.074 -9.484,8.05 0,0.989 0.141,1.862 0.355,2.714 L 0,0" />
      </g>
      <g
         transform="translate(324.377,617.779)"
         id="g270">
        <path
           id="path272"
           style="fill:#231f20;fill-opacity:1;fill-rule:nonzero;stroke:none"
           d="m 0,0 7.364,3.623 0,-4.149 -6.846,-2.879 6.846,-1.324 0,-3.435 -20.056,3.819 0,3.436 L -0.715,-3.19 -7.085,2.747 -5.3,5.438 0,0" />
      </g>
      <g
         transform="translate(320.394,630.391)"
         id="g274">
        <path
           id="path276"
           style="fill:#231f20;fill-opacity:1;fill-rule:nonzero;stroke:none"
           d="M 0,0 C 0,-1.794 1.649,-2.921 3.433,-3.411 3.321,-0.253 2.664,1.396 1.206,1.396 0.444,1.396 0,0.877 0,0 z m 5.764,-3.794 c 0.307,-0.034 0.775,-0.087 1.076,-0.087 1.565,0 2.034,0.605 2.034,2.505 0,1.315 -0.311,2.717 -0.822,3.98 l 2.688,0 c 0.58,-1.508 0.876,-3.295 0.876,-5.108 0,-3.462 -1.591,-4.837 -4.611,-4.837 -5.714,0 -9.591,3.46 -9.591,7.721 0,3.379 1.68,4.419 3.328,4.419 3.269,0 4.859,-3.24 5.022,-8.593" />
      </g>
      <g
         transform="translate(320.807,645.525)"
         id="g278">
        <path
           id="path280"
           style="fill:#231f20;fill-opacity:1;fill-rule:nonzero;stroke:none"
           d="m 0,0 0,-3.217 6.154,-1.156 c 1.647,-0.303 2.085,-0.08 2.085,1.046 0,0.686 -0.089,1.205 -0.194,1.708 l 2.808,-0.333 c 0.215,-0.91 0.35,-1.956 0.35,-2.806 0,-2.934 -1.403,-3.762 -4.665,-3.131 L 0,-6.65 l 0,-2.337 -2.722,0.553 0,2.3 -4.205,0.801 -0.71,3.569 4.915,-0.932 0,3.242 L 0,0" />
      </g>
      <g
         transform="translate(331.741,670.258)"
         id="g282">
        <path
           id="path284"
           style="fill:#231f20;fill-opacity:1;fill-rule:nonzero;stroke:none"
           d="m 0,0 0,-4.314 -10.22,-0.713 c -1.178,-0.079 -2.498,-0.031 -3.822,0.056 l 0,-0.025 c 1.299,-0.388 2.506,-0.827 3.741,-1.372 L 0,-10.987 l 0,-4.093 -18.547,-1.066 0,3.563 10.274,0.575 c 1.216,0.06 2.473,0 3.74,-0.08 l 0,0.036 c -1.238,0.436 -2.47,0.848 -3.652,1.391 l -10.362,4.729 0,3.731 10.305,0.881 c 1.045,0.087 2.33,0.112 3.62,0.028 l 0,0.033 c -1.29,0.409 -2.411,0.856 -3.563,1.316 l -10.362,4.451 0,3.652 L 0,0" />
      </g>
      <g
         transform="translate(320.807,684.157)"
         id="g286">
        <path
           id="path288"
           style="fill:#231f20;fill-opacity:1;fill-rule:nonzero;stroke:none"
           d="m 0,0 c 0,-2.551 3.047,-4.091 5.768,-4.091 1.486,0 2.414,0.606 2.414,2.193 0,2.445 -2.715,4.147 -5.766,4.147 C 0.851,2.249 0,1.59 0,0 z m 11.203,-2.363 c 0,-3.819 -1.807,-5.33 -4.891,-5.33 -5.704,0 -9.311,3.824 -9.311,8.218 0,3.9 2.087,5.355 4.977,5.355 5.626,0 9.225,-3.955 9.225,-8.243" />
      </g>
      <g
         transform="translate(321.19,700.592)"
         id="g290">
        <path
           id="path292"
           style="fill:#231f20;fill-opacity:1;fill-rule:nonzero;stroke:none"
           d="m 0,0 c -0.63,-2.009 2.969,-4.402 7.58,-5.314 l 2.972,-0.573 0,-3.435 -7.146,1.375 c -1.918,0.382 -4.75,0.911 -6.51,1.183 l 0,3.322 c 1.045,-0.191 2.258,-0.522 4.12,-1.178 l 0,0.049 c -2.884,1.462 -4.782,2.94 -4.397,5.305 L 0,0" />
      </g>
      <g
         transform="translate(331.741,704.348)"
         id="g294">
        <path
           id="path296"
           style="fill:#231f20;fill-opacity:1;fill-rule:nonzero;stroke:none"
           d="m 0,0 0,-3.428 -20.056,3.809 0,3.438 L 0,0" />
      </g>
      <g
         transform="translate(320.584,716.383)"
         id="g298">
        <path
           id="path300"
           style="fill:#231f20;fill-opacity:1;fill-rule:nonzero;stroke:none"
           d="m 0,0 c 0,-3.165 3.685,-4.617 6.535,-4.617 1.352,0 1.901,0.356 1.901,1.039 0,1.954 -4.476,4.397 -7.362,4.948 L 0.192,1.539 C 0.086,1.093 0,0.606 0,0 z M 6.24,3.816 C 7.749,3.539 9.894,3.158 11.157,2.935 l 0,-3.377 c -1.074,0.195 -2.45,0.63 -4.342,1.261 l 0,-0.051 c 2.008,-1.101 4.643,-2.997 4.643,-5.713 0,-2.093 -1.348,-3.217 -4.261,-3.217 -5.162,0 -9.946,2.775 -9.946,8.768 0,0.465 0.032,0.874 0.114,1.455 l -6.264,1.173 0,3.465 L 6.24,3.816" />
      </g>
      <g
         transform="translate(316.822,743.465)"
         id="g302">
        <path
           id="path304"
           style="fill:#231f20;fill-opacity:1;fill-rule:nonzero;stroke:none"
           d="m 0,0 c -0.382,-1.073 -0.571,-2.256 -0.571,-3.356 0,-4.89 4.885,-6.563 8.567,-6.563 2.363,0 3.931,0.962 3.931,3.985 0,1.371 -0.303,2.693 -0.773,3.845 l 3.27,-0.251 c 0.436,-1.4 0.737,-3.074 0.737,-4.665 0,-5.63 -3.458,-6.896 -6.478,-6.896 -6.318,0 -12.442,3.707 -12.442,10.904 0,1.511 0.187,2.805 0.522,3.906 L 0,0" />
      </g>
      <g
         transform="translate(325.23,756.894)"
         id="g306">
        <path
           id="path308"
           style="fill:#231f20;fill-opacity:1;fill-rule:nonzero;stroke:none"
           d="m 0,0 c 1.87,-0.355 4.86,-0.908 6.511,-1.185 l 0,-3.348 c -0.827,0.14 -2.086,0.467 -4.234,1.209 L 2.249,-3.376 c 2.444,-1.238 4.563,-3.133 4.563,-5.746 0,-2.635 -1.87,-3.425 -4.535,-2.934 l -9.422,1.815 0,3.429 8.576,-1.649 c 1.672,-0.301 2.359,-0.048 2.359,0.822 0,1.846 -4.282,4.315 -7.472,4.92 l -3.463,0.662 0,3.432 L 0,0" />
      </g>
      <g
         transform="translate(320.807,768.435)"
         id="g310">
        <path
           id="path312"
           style="fill:#231f20;fill-opacity:1;fill-rule:nonzero;stroke:none"
           d="m 0,0 c 0,-1.958 4.476,-4.367 7.304,-4.918 l 0.878,-0.169 c 0.137,0.444 0.248,1.049 0.248,1.54 0,3.133 -3.68,4.588 -6.532,4.588 C 0.546,1.041 0,0.656 0,0 z m 11.175,-4.176 c 0,-0.492 -0.024,-0.911 -0.107,-1.489 l 6.486,-1.206 0,-3.435 L 3.812,-7.7 c -2.356,0.471 -4.8,0.916 -6.534,1.187 l 0,3.381 c 1.077,-0.226 2.165,-0.547 4.288,-1.235 l 0.028,0.049 c -2.696,1.345 -4.616,3.274 -4.616,5.689 0,2.086 1.345,3.212 4.258,3.212 5.165,0 9.939,-2.77 9.939,-8.759" />
      </g>
      <g
         transform="translate(276.729,711.757)"
         id="g314">
        <path
           id="path316"
           style="fill:#231f20;fill-opacity:1;fill-rule:nonzero;stroke:none"
           d="m 0,0 6.798,0 0,-1.046 -6.798,0 0,-2.214 -0.885,0 0,5.482 L 0,2.222 0,0" />
      </g>
      <g
         transform="translate(283.527,722.188)"
         id="g318">
        <path
           id="path320"
           style="fill:#231f20;fill-opacity:1;fill-rule:nonzero;stroke:none"
           d="m 0,0 -4.437,-0.65 c -0.874,-0.122 -1.436,-0.191 -1.887,-0.238 l 0,-0.023 c 0.36,-0.082 0.837,-0.203 1.386,-0.376 L 0,-2.94 0,-4.049 -4.605,-5.613 c -0.586,-0.193 -1.217,-0.397 -1.719,-0.49 l 0,-0.009 c 0.624,-0.047 1.24,-0.128 1.988,-0.22 L 0,-6.848 l 0,-1.074 -7.683,1.127 0,1.285 4.836,1.613 c 0.562,0.196 1.071,0.345 1.529,0.438 l 0,0.019 c -0.538,0.115 -0.911,0.23 -1.457,0.412 l -4.908,1.672 0,1.299 L 0,1.107 0,0" />
      </g>
      <g
         id="g322">
        <g
           id="g324">
          <g
             id="g330">
            <path
               id="path338"
               style="fill:url(#radialGradient332);stroke:none"
               d="m 222.223,599.235 c -6.532,6.296 -8.711,8.767 -10.2,10.04 -1.498,1.278 -3.806,4.418 -6.402,-0.423 -1.107,-2.051 -7.717,-15.957 -9.291,-19.998 -1.569,-4.039 -3.854,-11.997 0.26,-17.359 4.12,-5.365 9.769,-6.19 12.502,-6.579 2.725,-0.394 5.881,-0.02 6.31,0.529 0.426,0.551 0.619,1.615 -2.461,3.307 -3.079,1.692 -6.236,4.307 -7.103,11.669 -0.496,4.128 0.299,8.221 1.361,11.256 l -0.01,0 c 0.863,2.916 2.252,6.654 2.944,7.389 0.972,1.035 2.188,0.67 3.83,-0.911 0.855,-0.823 1.916,-1.955 6.309,-6.403 3.21,-3.249 5.979,-6.919 6.139,-10.875 0.171,-4.339 -2.475,-9.373 -3.005,-10.47 -0.529,-1.088 -0.515,-1.744 -0.071,-2.278 0.447,-0.532 3.403,0.105 6.728,3.271 3.402,3.241 3.936,9.816 2.785,14.468 -1.167,4.647 -4.097,7.062 -10.625,13.367 z m -19.966,26.976 c -7.137,-12.831 -10.317,-33.045 -9.183,-36.489 0.767,-2.327 2.878,5.022 10.466,22.916 l 0,-0.043 c 1.052,2.747 4.677,9.119 7.456,4.306 0.05,-0.071 0.083,-0.124 0.128,-0.194 5.209,-10.035 11.684,-14.205 14.201,-15.793 1.756,-1.109 1.799,0.007 1.374,0.828 -0.274,0.486 -0.426,0.722 -0.426,0.722 -11.362,15.152 -11.185,26.244 -13.27,33.29 -0.9,3.08 -4.063,2.469 -10.746,-9.543 z m 17.002,4.411 c -0.686,-4.426 -0.086,-11.278 3.664,-18.66 3.753,-7.38 5.974,-9.029 4.998,-6.02 -0.767,2.365 -3.069,9.89 -3.412,12.16 -0.337,2.268 0.572,4.654 3.866,3.631 3.294,-1.024 8.291,-2.273 10.451,-3.069 2.161,-0.79 2.389,0.914 -1.591,3.639 -3.972,2.728 -9.828,6.922 -12.443,8.4 -2.612,1.474 -5.08,2.887 -5.533,-0.081 z m 13.09,-31.949 c 5.116,-10.793 12.451,-13.945 14.655,-14.541 5.914,-1.592 2.386,1.476 2.386,1.476 -8.632,6.475 -9.923,14.766 -10.349,17.258 -0.327,1.917 0.121,4.073 5.923,1.939 6.915,-2.545 13.859,-9.54 15.335,-11.019 1.476,-1.475 1.134,1.135 0.68,3.178 -0.456,2.047 -2.84,6.934 -8.629,11.817 -5.799,4.883 -19.43,8.636 -22.496,9.093 -3.07,0.451 -2.614,-8.411 2.495,-19.201 z m 19.54,-0.796 c -3.291,2.385 -6.064,-0.325 -6.59,-1.476 -0.564,-1.253 0.229,-4.094 1.819,-5.454 1.596,-1.368 2.683,-1.941 4.902,-1.454 2.357,0.516 3.51,2.136 3.51,3.387 0,1.25 -0.347,2.613 -3.641,4.997 z m -89.92,18.572 c -1.554,-1.638 -1.42,-2.246 -1.179,-2.467 0.558,-0.628 15.218,6.567 20.003,8.197 4.263,1.388 4.871,-2.533 4.465,-5.478 -2.318,-13.948 0.711,-24.861 2.021,-27.717 0.838,-1.822 1.85,-1.437 1.967,-0.602 2.498,26.855 11.007,44.449 14.856,48.655 3.448,3.769 0.722,4.411 -0.963,3.849 -24.532,-8.458 -40.181,-23.368 -41.17,-24.437 z m -3.426,39.466 c 0.266,-1.709 10.517,-6.968 13.666,-10.126 1.24,-1.241 3.545,-3.466 -1.746,-7.71 -5.091,-4.081 -10.211,-10.056 -11.745,-13.846 -1.535,-3.79 -1.052,-6.307 0.524,-4.729 1.581,1.584 10.749,8.96 14.306,11.358 4.058,2.735 8.827,5.972 13.488,8.494 5.091,2.754 9.098,4.173 4.957,6.743 -6.195,3.846 -13.874,6.015 -18.044,7.378 -4.269,1.397 -15.728,4.542 -15.406,2.438 z m -36.206,4.079 c -4.113,-1.589 -5.5,-4.185 -5.059,-9.558 0.492,-6.052 8.61,-9.552 12.655,-9.893 4.058,-0.349 7.577,2.202 8.252,8.226 0.68,6.021 -4.601,10.239 -6.837,10.94 -1.628,0.498 -4.904,1.867 -9.011,0.285 z m 16.139,-18.971 c -2.53,-3.826 -5.839,-7.939 -8.504,-8.768 -4.125,-1.288 -6.102,1.397 -6.818,2.353 -0.717,0.947 -2.134,1.543 -2.016,-0.644 0.12,-2.185 2.148,-8.119 6.686,-11.649 4.542,-3.523 9.439,-1.089 13.07,3.262 2.029,2.424 5.942,7.416 10.154,11.249 0.009,0.006 0.025,0.006 0.025,0.006 1.992,1.475 4.993,3.989 8.427,4.262 3.452,0.274 5.585,0.301 7.082,0.261 1.195,-0.032 1.511,0.133 1.904,0.663 0.779,1.063 0.15,2.305 -2.435,4.302 -3.371,2.606 -10.45,7.289 -13.869,9.396 -7.316,4.508 -8.667,-7.073 -13.706,-14.693 z m 30.129,-56.146 c -1.242,3.907 -4.668,6.098 -9.914,4.187 -5.247,-1.903 -6.584,-8.629 -6.492,-10.96 0.069,-1.728 0.214,-5.415 3.154,-8.485 2.682,-2.802 6.055,-3.044 9.816,-0.668 4.814,3.041 4.681,12.014 3.436,15.926 z m 13.223,30.249 c 0.705,3.547 -2.929,2.539 -2.929,2.539 -26.882,-6.462 -41.412,-24.129 -42.919,-25.845 -2.983,-3.394 0.225,-3.461 0.225,-3.461 19.269,0.188 30.935,9.669 34.633,13.218 0.631,0.56 1.226,0.711 1.139,-1.112 -1.541,-32.31 16.019,-37.279 18.669,-37.945 2.707,-0.697 2.707,0.46 1.574,2.537 -13.665,25.118 -11.133,46.343 -10.392,50.069 z m -26.986,9.658 c 2.006,4.741 4.035,9.18 3.228,9.964 -0.804,0.792 -3.84,-1.225 -6.166,-3.856 -2.319,-2.624 -7.594,-9.725 -15.101,-14.102 -7.5,-4.384 -13.045,1.836 -15.632,6.042 -2.594,4.209 -4.255,12.786 -4.383,14.018 -0.177,1.758 -0.896,3.858 -1.702,3.858 -0.91,0 -1.734,-1.091 -1.71,-2.822 0.402,-13.892 4.779,-23.861 8.958,-30.389 4.19,-6.546 12.508,-8.142 19.651,-3.061 7.152,5.08 10.886,15.688 12.857,20.348 z m 61.242,-35.109 c -4.371,1.774 -7.556,-1.946 -7.902,-4.58 -0.542,-4.114 0.259,-8.62 6.176,-11.257 5.866,-2.613 8.573,1.967 8.546,6.38 -0.027,4.414 -2.453,7.687 -6.82,9.457" />
          </g>
        </g>
      </g>
      <g
         id="g340">
        <g
           id="g342">
          <g
             id="g348">
            <path
               id="path356"
               style="fill:url(#radialGradient350);stroke:none"
               d="m 271.687,652.55 c -4.176,6.517 -7.594,9.148 -7.962,10.683 -0.405,1.691 3.7,2.695 7.387,4.429 2.31,1.091 4.148,2.537 4.443,3.45 0.289,0.912 -3.128,-0.469 -4.756,-0.805 -1.992,-0.412 -4.995,-1.124 -8.084,-1.517 -4.786,-0.609 -5.831,-0.602 -5.84,-2.244 -0.014,-3.175 4.928,-4.453 16.9,-19.536 0.826,-1.041 1.828,-0.577 -2.088,5.54 z m 7.813,20.805 c -1.179,-3.61 -3.603,-5.622 -5.64,-7.094 -2.88,-1.766 -4.067,-2.147 -5.758,-2.662 -1.442,-0.438 -2.025,-1.154 0.772,-4.055 5.385,-5.581 10.323,-14.963 12.273,-18.827 1.168,-2.315 1.249,-0.678 1.445,0.572 1.317,8.589 -6.188,16.102 -7.695,17.396 -0.675,0.582 -0.91,1.362 -0.186,2.002 2.556,2.13 6.608,8.608 6.718,11.894 0.099,2.975 -0.601,4.846 -1.929,0.774 z m -0.546,-14.833 c 0.318,-2.77 1.42,-3.691 3.465,-4.429 2.043,-0.742 2.985,1.109 2.517,5.167 -0.474,4.049 -2.204,3.865 -3.779,3.32 -1.571,-0.558 -2.472,-1.682 -2.203,-4.058 z m -21.465,49.857 c 0.581,-2.35 1.48,-7.835 1.362,-14.196 -0.116,-6.363 -2.07,-11.621 -2.838,-13.294 -0.676,-1.476 -0.563,-2.943 3.068,-4.2 3.681,-1.279 5.944,-2.111 13.06,-1.818 7.629,0.316 6.932,10.222 5.226,14.539 -1.702,4.316 -6.249,6.019 -4.422,3.295 1.812,-2.726 2.507,-6.047 -0.116,-9.805 -2.608,-3.75 -7.611,-2.695 -9.318,-2.347 -1.711,0.336 -2.939,0.831 -2.618,1.474 0.758,1.514 2.661,4.472 4.145,9.58 1.478,5.117 -0.052,10.977 -4.257,18.135 -4.201,7.16 -3.906,1.113 -3.292,-1.363 z m -23.513,11.53 c 1.874,-3.41 4.77,-3.235 6.643,-2.891 1.87,0.339 1.87,3.233 1.37,5.625 -0.521,2.38 -2.905,6.303 -7.333,6.641 -4.435,0.341 -1.917,-7.13 -0.68,-9.375 z m 32.083,-32.74 c 0.14,-0.87 0.492,-3.079 2.154,-3.774 2.149,-0.9 3.614,1.225 4.101,2.723 0.542,1.67 0.42,4.088 -0.744,6.579 -1.032,2.204 -3.357,2.114 -4.544,-0.273 -1.186,-2.396 -1.248,-3.513 -0.967,-5.255 z m -22.43,36.944 c 3.897,-7.294 -0.373,-15.9 -1.686,-18.272 -0.392,-0.673 -1.178,-0.784 -1.571,-0.055 -1.307,2.426 -5.053,10.856 -11.743,18.901 -7.832,9.425 -18.512,9.99 -24.997,9.99 -6.468,0 7.055,-5.111 16.819,-12.723 9.77,-7.612 17.863,-22.769 19.427,-25.33 2.16,-3.523 3.049,-1.782 5.112,0.567 2.23,2.537 6.661,10.326 6.891,16.117 0.212,5.791 -4.098,11.059 -5.446,12.238 -1.285,1.124 -6.88,6.194 -2.806,-1.433 z m -63.691,-8.851 c -0.481,0.205 -5.177,1.477 -16.842,3.626 -12.697,2.342 -18.698,-1.217 -23.767,-3.66 -1.519,-0.741 -1.383,-2.069 -1.335,-2.41 0.098,-0.625 1.209,-0.562 2.657,-0.653 1.449,-0.095 25.654,-0.554 30.976,-0.621 5.325,-0.062 5.681,0.671 7.251,1.909 1.311,1.032 1.49,1.628 1.06,1.809 z m 85.191,-42.15 c -2.712,0.515 -9.599,2.542 -10.704,3.116 -1.091,0.569 -2.691,1.138 -1.029,4.575 2.492,5.157 3.835,11.93 3.593,17.348 -0.213,4.773 -2.071,3.182 -2.267,1.156 -0.118,-1.237 -0.396,-3.19 -3.203,-9.364 -2.09,-4.598 -4.964,-7.233 -6.592,-8.636 -1.743,-1.504 -3.658,-3.759 2.575,-6.23 6.195,-2.455 13.815,-3.183 16.785,-3.087 2.842,0.093 3.541,0.611 0.842,1.122 z m -77.85,53.152 c -0.769,3.752 -7.118,5.712 -9.041,6.04 -7.207,1.237 -9.181,-2.724 -9.433,-5.681 -0.244,-2.956 4.812,-6.593 10.617,-7.332 5.805,-0.736 8.637,3.209 7.857,6.973 z m 64.433,-25.531 c 0.801,2.949 0.234,3.467 -0.224,2.752 -3.324,-5.529 -6.38,-9.698 -8.871,-11.864 -2.512,-2.153 -3.475,-0.395 -4.157,1.103 -5.779,12.7 -15.225,22.038 -16.868,23.775 -1.708,1.822 -6.138,5.801 -2.617,0 3.521,-5.788 10.792,-18.339 14.712,-30.611 0.657,-2.048 1.707,-2.701 2.937,-2.739 7.009,0.018 13.479,11.66 15.088,17.584 z m -27.172,-4.096 c -4.709,11.475 -9.94,21.005 -15.726,27.993 -1.896,2.291 -3.236,1.804 -2.434,0.029 1.381,-3.06 3.292,-8.154 4.754,-13.204 1.26,-4.354 0.458,-5.499 -2.177,-5.252 -3.881,0.365 -12.456,0.873 -15.944,0.871 -3.59,-10e-4 -4.051,-1.219 -0.903,-1.925 6.364,-1.428 14.614,-3.601 29.903,-13.116 4.231,-2.636 4.081,0.837 2.527,4.604 z m -27.44,13.929 c 3.756,0.429 5.872,0.602 8.536,0.774 2.405,0.087 0.693,4.822 -2.056,12.134 -3.73,9.921 -8.083,11.772 -15.124,10.945 -2.183,-0.256 -3.021,-1.024 -1.351,-2.346 2.255,-1.783 7.886,-6.558 10.024,-12.227 0.623,-1.653 0.414,-1.98 -1.316,-2.634 -4.028,-1.514 -12.14,-2.28 -15.889,-5.15 -1.566,-1.201 -0.536,-2 0.237,-2.249 1.378,-0.47 2.55,-0.783 3.07,-0.895 0.902,-0.192 1.819,-0.307 3.494,0.035 1.868,0.383 4.589,0.954 10.375,1.613" />
          </g>
        </g>
      </g>
      <g
         id="g358">
        <g
           id="g360">
          <g
             id="g366">
            <path
               id="path374"
               style="fill:url(#radialGradient368);stroke:none"
               d="m 208.41,671.776 c -47.698,23.371 -85.378,17.25 -88.081,17.012 -2.24,-0.197 -0.897,-2.255 0.026,-2.296 7.085,-0.308 33.309,3.41 79.469,-16.942 52.59,-23.186 67.528,-47.131 72.316,-55.224 1.767,-2.986 3.697,-1.492 2.622,0.679 -2.235,4.519 -13.908,31.073 -66.352,56.771 z m 62.022,-33.349 c 0.083,-2.055 0.373,-4.085 0.863,-6.092 0.154,-0.539 0.958,-2.088 1.58,-2.044 0.307,0.028 0.542,0.485 0.692,0.986 0.166,0.502 0.275,1.014 0.263,1.322 -0.083,2.055 -0.367,4.087 -0.864,6.098 -0.142,0.539 -0.954,2.078 -1.569,2.028 -0.608,-0.08 -0.965,-1.751 -0.965,-2.298 z m -17.514,18.186 c 0.813,-2.909 1.919,-5.719 3.292,-8.441 0.398,-0.724 2.084,-2.668 2.953,-2.398 0.436,0.149 0.604,0.876 0.677,1.65 0.055,0.779 0.037,1.554 -0.099,1.977 -0.804,2.918 -1.901,5.738 -3.281,8.451 -0.399,0.72 -2.083,2.67 -2.943,2.394 -0.84,-0.324 -0.79,-2.848 -0.599,-3.633 z m 23.42,-26.141 c 0.058,-1.622 0.286,-3.236 0.679,-4.835 0.117,-0.422 0.767,-1.653 1.253,-1.619 0.245,0.029 0.432,0.382 0.555,0.778 0.129,0.4 0.208,0.81 0.201,1.056 -0.065,1.626 -0.3,3.238 -0.685,4.831 -0.125,0.436 -0.77,1.656 -1.255,1.619 -0.477,-0.067 -0.762,-1.389 -0.748,-1.83 z m -19.614,-14.313 c 0.175,0.671 0.261,1.345 0.223,1.737 -0.339,2.642 -0.944,5.222 -1.829,7.743 -0.264,0.673 -1.541,2.561 -2.381,2.416 -0.827,-0.198 -1.146,-2.401 -1.093,-3.112 0.338,-2.635 0.946,-5.215 1.826,-7.749 0.261,-0.657 1.543,-2.545 2.396,-2.404 0.428,0.08 0.696,0.7 0.858,1.369 z m 8.872,-7.87 c 0.029,-1.605 0.237,-3.182 0.599,-4.752 0.117,-0.413 0.766,-1.622 1.272,-1.587 0.266,0.032 0.471,0.384 0.611,0.778 0.135,0.388 0.237,0.797 0.237,1.031 -0.036,1.604 -0.237,3.187 -0.602,4.754 -0.115,0.42 -0.758,1.621 -1.278,1.575 -0.503,-0.063 -0.83,-1.367 -0.839,-1.799 z m -4.929,10.046 c -0.635,-0.086 -1.051,-1.731 -1.055,-2.275 0.037,-2.019 0.283,-4.016 0.745,-5.995 0.145,-0.512 0.958,-2.031 1.604,-1.988 0.331,0.038 0.582,0.484 0.762,0.978 0.182,0.494 0.308,0.997 0.295,1.296 -0.034,2.022 -0.292,4.019 -0.754,5.992 -0.137,0.526 -0.952,2.041 -1.597,1.992 z m 1.973,29.195 c 0.378,-2.689 1.022,-5.31 1.923,-7.891 0.264,-0.681 1.537,-2.611 2.34,-2.477 0.401,0.084 0.641,0.706 0.783,1.392 0.153,0.672 0.223,1.368 0.168,1.766 -0.378,2.683 -1.023,5.318 -1.926,7.892 -0.269,0.683 -1.536,2.606 -2.325,2.471 -0.787,-0.197 -1.039,-2.429 -0.963,-3.153 z m -88.649,50.441 c 1.896,-3.257 4.109,-6.309 6.62,-9.155 0.697,-0.738 3.348,-2.558 4.298,-1.96 0.482,0.312 0.469,1.237 0.304,2.192 -0.168,0.965 -0.44,1.889 -0.723,2.374 -1.897,3.262 -4.102,6.313 -6.615,9.156 -0.705,0.743 -3.349,2.565 -4.301,1.966 -0.916,-0.659 -0.057,-3.675 0.417,-4.573 z m -9.975,1.145 c 1.663,-2.85 3.591,-5.509 5.781,-7.994 0.623,-0.653 2.934,-2.24 3.765,-1.717 0.419,0.266 0.409,1.085 0.262,1.915 -0.142,0.834 -0.378,1.648 -0.625,2.072 -1.663,2.854 -3.593,5.518 -5.782,8.005 -0.626,0.648 -2.926,2.239 -3.768,1.714 -0.789,-0.569 -0.047,-3.205 0.367,-3.995 z m 21.066,-4.144 c 2.142,-3.682 4.627,-7.137 7.48,-10.349 0.786,-0.834 3.785,-2.897 4.864,-2.22 0.539,0.351 0.52,1.41 0.333,2.483 -0.184,1.088 -0.496,2.131 -0.811,2.677 -2.143,3.691 -4.635,7.14 -7.476,10.354 -0.804,0.83 -3.783,2.896 -4.866,2.218 -1.031,-0.742 -0.059,-4.152 0.476,-5.163 z M 242.62,665.36 c 0.954,-3.151 2.242,-6.185 3.808,-9.103 0.454,-0.773 2.346,-2.843 3.28,-2.53 0.464,0.172 0.639,0.973 0.688,1.819 0.047,0.846 0,1.685 -0.138,2.155 -0.966,3.154 -2.246,6.183 -3.818,9.104 -0.459,0.774 -2.341,2.848 -3.277,2.529 -0.897,-0.376 -0.781,-3.118 -0.543,-3.974 z m -43.356,24.756 c 2.433,-4.2 5.276,-8.127 8.528,-11.799 0.897,-0.951 4.304,-3.29 5.53,-2.524 0.627,0.401 0.605,1.596 0.393,2.826 -0.222,1.24 -0.571,2.432 -0.929,3.057 -2.446,4.196 -5.291,8.134 -8.525,11.791 -0.918,0.956 -4.309,3.305 -5.537,2.536 -1.181,-0.851 -0.07,-4.733 0.54,-5.887 z m 29.674,-16.046 c 1.673,-3.767 3.71,-7.342 6.115,-10.73 0.669,-0.887 3.334,-3.178 4.441,-2.642 0.561,0.281 0.651,1.29 0.588,2.355 -0.068,1.064 -0.254,2.099 -0.508,2.661 -1.675,3.763 -3.709,7.344 -6.109,10.734 -0.676,0.884 -3.334,3.175 -4.444,2.636 -1.069,-0.616 -0.492,-3.985 -0.083,-5.014 z m -13.569,9.175 c 1.785,-3.996 3.97,-7.807 6.53,-11.411 0.721,-0.955 3.565,-3.394 4.748,-2.818 0.591,0.306 0.692,1.382 0.616,2.515 -0.073,1.129 -0.28,2.229 -0.54,2.826 -1.794,4.01 -3.968,7.823 -6.537,11.435 -0.724,0.947 -3.546,3.379 -4.729,2.807 -1.144,-0.645 -0.531,-4.244 -0.088,-5.354 z m -60.442,11.671 c -0.097,0.572 -0.256,1.13 -0.426,1.411 -1.13,1.952 -2.449,3.767 -3.948,5.459 -0.417,0.448 -1.987,1.537 -2.568,1.179 -0.537,-0.393 -0.028,-2.198 0.255,-2.725 1.128,-1.945 2.449,-3.765 3.947,-5.461 0.422,-0.441 1.994,-1.523 2.568,-1.166 0.276,0.189 0.272,0.736 0.172,1.303 z m -22.758,-22.162 c -0.079,0.522 -0.226,1.014 -0.374,1.274 -1.044,1.737 -2.267,3.354 -3.659,4.87 -0.408,0.397 -1.881,1.36 -2.429,1.03 -0.538,-0.353 -0.103,-1.966 0.17,-2.436 1.036,-1.737 2.259,-3.363 3.658,-4.881 0.389,-0.385 1.874,-1.355 2.434,-1.029 0.277,0.17 0.283,0.669 0.2,1.172 z m 7.594,-0.777 c -0.095,0.55 -0.245,1.101 -0.415,1.378 -1.141,1.911 -2.48,3.685 -4.01,5.343 -0.429,0.431 -2.057,1.484 -2.667,1.129 -0.572,-0.395 -0.087,-2.162 0.204,-2.681 1.128,-1.901 2.465,-3.673 3.999,-5.336 0.427,-0.43 2.056,-1.484 2.666,-1.132 0.3,0.192 0.309,0.727 0.223,1.299 z m -14.594,1.448 c -0.151,0.504 -0.358,0.971 -0.539,1.211 -1.256,1.592 -2.679,3.046 -4.249,4.372 -0.452,0.33 -2.04,1.102 -2.544,0.711 -0.488,-0.419 0.152,-1.965 0.48,-2.404 1.252,-1.58 2.674,-3.044 4.253,-4.372 0.439,-0.332 2.033,-1.097 2.55,-0.71 0.247,0.204 0.194,0.695 0.049,1.192 z m 123.54,-48.612 c 0.074,0.774 0.074,1.53 -0.053,1.955 -0.769,2.855 -1.859,5.629 -3.236,8.282 -0.41,0.701 -2.121,2.606 -3.035,2.329 -0.892,-0.327 -0.892,-2.804 -0.721,-3.583 0.782,-2.846 1.875,-5.61 3.254,-8.277 0.393,-0.7 2.124,-2.597 3.033,-2.326 0.464,0.148 0.667,0.862 0.758,1.62 z m -108.115,71.485 c -0.142,0.51 -0.356,0.975 -0.535,1.217 -1.252,1.592 -2.675,3.045 -4.25,4.37 -0.45,0.337 -2.039,1.105 -2.546,0.709 -0.489,-0.418 0.157,-1.964 0.485,-2.398 1.255,-1.586 2.669,-3.046 4.254,-4.368 0.439,-0.34 2.028,-1.107 2.545,-0.718 0.254,0.207 0.197,0.703 0.047,1.188 z m 23.227,-2.155 c -0.123,0.679 -0.318,1.345 -0.519,1.689 -1.362,2.351 -2.947,4.544 -4.752,6.595 -0.502,0.526 -2.399,1.837 -3.089,1.406 -0.657,-0.475 -0.047,-2.647 0.3,-3.289 1.354,-2.332 2.942,-4.525 4.751,-6.577 0.508,-0.531 2.406,-1.838 3.094,-1.404 0.344,0.223 0.338,0.887 0.215,1.58 z m -16.142,1.639 c -0.092,0.522 -0.233,1.03 -0.386,1.292 -1.032,1.779 -2.241,3.437 -3.607,4.992 -0.386,0.4 -1.823,1.394 -2.342,1.061 -0.496,-0.351 -0.039,-2.009 0.232,-2.488 1.027,-1.773 2.228,-3.436 3.595,-4.987 0.382,-0.396 1.831,-1.388 2.347,-1.071 0.257,0.175 0.252,0.681 0.161,1.201 z m 1.387,-25.803 c -0.106,0.68 -0.286,1.32 -0.494,1.665 -1.371,2.294 -2.991,4.439 -4.828,6.436 -0.519,0.52 -2.475,1.787 -3.211,1.365 -0.697,-0.471 -0.111,-2.602 0.235,-3.235 1.371,-2.281 2.98,-4.422 4.83,-6.422 0.518,-0.521 2.471,-1.794 3.204,-1.359 0.374,0.216 0.377,0.871 0.264,1.55 z M 214.898,644.6 c -0.059,1.081 -0.233,2.131 -0.494,2.7 -1.73,3.826 -3.863,7.439 -6.381,10.867 -0.727,0.902 -3.548,3.205 -4.774,2.647 -1.175,-0.626 -0.631,-4.058 -0.211,-5.106 1.737,-3.813 3.861,-7.432 6.393,-10.867 0.706,-0.9 3.547,-3.201 4.762,-2.649 0.617,0.298 0.744,1.326 0.705,2.408 z m -55.391,21.911 c -0.134,0.831 -0.366,1.62 -0.612,2.033 -1.666,2.794 -3.629,5.403 -5.873,7.827 -0.636,0.63 -3.007,2.178 -3.905,1.654 -0.846,-0.578 -0.133,-3.156 0.282,-3.929 1.671,-2.78 3.63,-5.388 5.875,-7.817 0.628,-0.633 3.01,-2.177 3.91,-1.656 0.443,0.268 0.446,1.068 0.323,1.888 z M 239,631.167 c 0.068,0.836 0.041,1.669 -0.101,2.129 -0.936,3.087 -2.202,6.064 -3.784,8.918 -0.459,0.761 -2.376,2.784 -3.366,2.455 -0.956,-0.377 -0.897,-3.065 -0.675,-3.909 0.945,-3.088 2.197,-6.062 3.779,-8.927 0.452,-0.746 2.38,-2.773 3.37,-2.453 0.496,0.178 0.704,0.957 0.777,1.787 z m -10.89,6.785 c -0.045,1.014 -0.206,1.985 -0.45,2.518 -1.599,3.556 -3.576,6.92 -5.913,10.11 -0.668,0.836 -3.292,2.981 -4.424,2.472 -1.089,-0.592 -0.597,-3.779 -0.205,-4.757 1.593,-3.546 3.582,-6.915 5.92,-10.101 0.662,-0.841 3.29,-2.984 4.42,-2.473 0.573,0.278 0.687,1.231 0.652,2.231 z m -56.73,25.652 c -0.151,0.949 -0.412,1.856 -0.699,2.328 -1.907,3.192 -4.149,6.173 -6.712,8.953 -0.726,0.722 -3.448,2.495 -4.469,1.898 -0.976,-0.657 -0.151,-3.617 0.327,-4.491 1.905,-3.188 4.151,-6.173 6.718,-8.947 0.713,-0.726 3.449,-2.49 4.467,-1.905 0.518,0.317 0.524,1.235 0.368,2.164 z m 29.36,-11.85 c -0.196,1.268 -0.554,2.481 -0.928,3.106 -2.549,4.264 -5.549,8.247 -8.979,11.962 -0.964,0.97 -4.594,3.328 -5.957,2.527 -1.307,-0.873 -0.21,-4.82 0.432,-5.988 2.544,-4.267 5.542,-8.251 8.983,-11.96 0.95,-0.961 4.6,-3.322 5.956,-2.531 0.688,0.416 0.693,1.635 0.493,2.884 z m -16.258,7.054 c -0.175,1.076 -0.471,2.106 -0.789,2.639 -2.169,3.621 -4.711,7.01 -7.626,10.163 -0.826,0.819 -3.911,2.829 -5.074,2.148 -1.103,-0.736 -0.169,-4.098 0.373,-5.09 2.162,-3.62 4.712,-7.01 7.624,-10.167 0.807,-0.808 3.919,-2.819 5.073,-2.147 0.579,0.351 0.585,1.39 0.419,2.454" />
          </g>
        </g>
      </g>
      <g
         transform="translate(380.522,649.283)"
         id="g376">
        <path
           id="path378"
           style="fill:#ee2d2f;fill-opacity:1;fill-rule:nonzero;stroke:none"
           d="m 0,0 c 0.304,-0.957 0.248,-3.409 0,-4.317 -1.009,-3.636 -6.827,-7.614 -16.244,-7.614 -10.629,0 -15.484,4.081 -15.964,8.194 -0.068,0.601 -0.068,2.562 0,3.158 0.48,4.112 5.335,8.201 15.964,8.201 C -6.827,7.622 -1.142,3.6 0,0 z m -38.862,0.386 c -0.155,-1.295 -0.234,-3.38 0,-5.085 0.91,-6.671 6.929,-16.417 21.95,-16.417 13.304,0 22.509,6.346 23.569,16.174 0.091,0.799 0.137,1.676 0.144,2.546 l 0,0.487 c -0.007,0.862 -0.053,1.739 -0.144,2.541 -1.06,9.812 -10.265,16.174 -23.569,16.174 -15.021,0 -21.14,-9.728 -21.95,-16.42" />
      </g>
      <g
         transform="translate(378.804,624.149)"
         id="g380">
        <path
           id="path382"
           style="fill:#ee2d2f;fill-opacity:1;fill-rule:nonzero;stroke:none"
           d="m 0,0 0.011,-20.765 c 0.036,-0.025 0,0 0,0 -8.043,4.561 -10.785,20.583 -23.764,20.583 -10.538,0 -14.097,-7.318 -14.214,-15.537 0,-0.15 -0.007,-0.302 -0.007,-0.459 0,-2.848 0.971,-11.479 10.249,-13.578 l 3.387,7.757 c -0.196,-0.019 -0.389,-0.059 -0.593,-0.059 -3.59,0 -6.503,2.912 -6.503,6.502 0,3.589 2.913,6.501 6.503,6.501 2.989,10e-4 6.062,-2.06 9.194,-6.109 5.38,-6.469 11.914,-16.523 21.659,-16.523 0.044,0 1.445,0 1.445,0 l 0,35.513 L 0,0" />
      </g>
      <g
         transform="translate(344.595,668.577)"
         id="g384">
        <path
           id="path386"
           style="fill:#ee2d2f;fill-opacity:1;fill-rule:nonzero;stroke:none"
           d="M 0,0 7,0 C 7,0.073 5.56,6.498 5.56,6.498 l 37.165,0.007 -2.106,8.577 -43.947,0 C -2.332,10.022 -0.293,1.248 0,0" />
      </g>
      <g
         transform="translate(344.595,689.452)"
         id="g388">
        <path
           id="path390"
           style="fill:#ee2d2f;fill-opacity:1;fill-rule:nonzero;stroke:none"
           d="M 0,0 7,0 C 7,0.07 5.56,6.498 5.56,6.498 l 37.165,0.003 -2.106,8.578 -43.947,0 C -2.332,10.017 -0.293,1.246 0,0" />
      </g>
    </g>
  </g>
</svg>
