<svg height="251.00941" width="300" xmlns="http://www.w3.org/2000/svg"><g transform="matrix(1.6208876 0 0 1.6208876 -808.245552 -811.31472)"><g fill-rule="evenodd"><path d="m503.96126 623.01909h-2.6587l-2.65876 14.05876h2.65876z" fill="#0e1522"/><path d="m515.6675 623.31159c-.83123-.25131-1.80749-.39626-2.94999-.39626-5.44121 0-8.24501 4.645-8.24501 9.43496 0 2.29126.95505 4.91501 5.21256 4.91501 1.20499 0 2.47245-.22873 3.53119-.56251l.18752-2.4775c-.8725.35377-1.86996.58251-2.90877.58251-2.28371 0-3.01125-1.18753-3.01125-2.97745 0-2.7913 1.26755-6.4988 4.96376-6.4988.8313 0 1.725.14504 2.5338.43755z" fill="#0e1522"/><path d="m526.17126 623.31159c-.83-.25131-1.80626-.39626-2.94876-.39626-5.4412 0-8.24493 4.645-8.24493 9.43496 0 2.29126.95497 4.91501 5.21248 4.91501 1.20499 0 2.47245-.22873 3.53126-.56251l.18624-2.4775c-.8725.35377-1.86875.58251-2.90756.58251-2.28372 0-3.01118-1.18753-3.01118-2.97745 0-2.7913 1.26748-6.4988 4.96369-6.4988.8313 0 1.72379.14504 2.5338.43755z" fill="#0e1522"/><path d="m541.88508 623.31159c-.8313-.25131-1.80757-.39626-2.95007-.39626-5.44121 0-8.24501 4.645-8.24501 9.43496 0 2.29126.95505 4.91501 5.21256 4.91501 1.20499 0 2.47245-.22873 3.53119-.56251l.18752-2.4775c-.87371.35377-1.86996.58251-2.90877.58251-2.28371 0-3.01125-1.18753-3.01125-2.97745 0-2.7913 1.26755-6.4988 4.96376-6.4988.8313 0 1.72379.14504 2.5338.43755z" fill="#0e1522"/><path d="m549.1288 626.51906c-1.78749-.29251-2.90879 1.14503-4.00879 3.33253h-.0425c.49874-1.41625.74875-2.33377.89379-3.125h-2.51374c-.20751 1.33369-.60127 3.4787-.89256 4.93621l-1.03874 5.41505h2.59628l.43625-2.24878c.68497-3.49876 2.49252-6.22748 4.00871-5.74875z" fill="#0e1522"/><path d="m554.39376 623.66529c.0213-.79124-.64376-1.49994-1.53625-1.49994-.9137 0-1.745.72869-1.7662 1.68748-.02.81252.6237 1.54121 1.53748 1.54121.91377 0 1.74377-.72869 1.76497-1.72875zm-.91376 3.0613h-2.59621l-1.9725 10.35126h2.59627z" fill="#0e1522"/><path d="m562.30125 626.78907c-.64499-.16625-1.30874-.27001-2.0562-.27001-3.75999 0-6.08626 3.22754-6.08626 7.18499 0 2.16629 1.06002 3.58254 3.82125 3.58254.89371 0 1.76621-.16625 2.47246-.41626l.2288-2.31256c-.56129.25003-1.26754.39628-1.93252.39628-1.4125 0-1.82747-.85373-1.82747-1.83243 0-1.93748.99747-4.3538 3.1575-4.3538.62249 0 1.1425.105 1.59874.3125z" fill="#0e1522"/><path d="m572.80129 627.47655-2.03499-1.35375-4.48624 4.83253 1.72372-9.08127h-2.59622l-2.8875 15.20379h2.59622l.99753-5.18502 2.18125 5.18502h3.13622l-2.74247-5.58121z" fill="#0e1522"/><path d="m581.75125 629.03905c0-1.25-.78995-2.51999-3.34374-2.51999-3.22006 0-5.83625 2.93625-5.83625 7.26876 0 2.28997 1.03874 3.49877 3.65501 3.49877 1.37123 0 2.72125-.22882 3.86253-.66628v-2.04125c-.95504.39498-2.01385.625-3.01124.625-1.4325 0-1.89011-.35499-1.89011-1.54121 0-.23003.0426-.5838.0626-.81253 4.04995-.12497 6.5012-1.33247 6.5012-3.81127zm-2.575.35377c0 1.10383-1.24747 1.60378-3.63495 1.68748.37378-1.35376 1.22497-2.60376 2.575-2.60376.66497 0 1.05995.33256 1.05995.91628" fill="#0e1522"/><path d="m589.65751 626.72659h-2.45125l.70626-3.7075-2.70004.54122-.60242 3.16628h-1.745l-.41511 2.06245h1.76506l-.93376 4.95628c-.47875 2.47872.14504 3.54127 2.36755 3.54127.64378 0 1.4325-.10375 2.11876-.2713l.24872-2.12373c-.37377.0825-.76874.14504-1.28745.14504-.85129 0-1.01754-.33256-.79003-1.58256l.8725-4.665h2.42996z" fill="#0e1522"/><path d="m613.49129 623.01909h-2.76253l-3.36372 7.85255c-.35378.87501-.68496 1.72866-.99746 2.70743h-.0201c.0626-.97877.0412-1.95747-.0213-2.74878l-.66499-7.8112h-2.82386l-3.57239 7.85255c-.41626.89492-.72753 1.83242-1.06002 2.76992h-.02c.0625-.95741.10375-1.91627.0625-2.83241l-.43625-7.79006h-2.69997l.80994 14.05876h3.0938l3.48999-7.81006c.41496-.9375.74753-1.85371 1.03874-2.83249h.02c-.0612.99998-.10375 2.00004-.0412 2.89505l.53994 7.7475h3.26126l6.16752-14.05876" fill="#0e1522"/><path d="m622.16377 630.28784c0-2.18629-1.1013-3.76878-4.04998-3.76878-3.32253 0-6.21003 2.72759-6.21003 7.06001 0 2.33247 1.1425 3.70752 4.02878 3.70752 3.23997 0 6.23123-2.72882 6.23123-6.99875zm-2.74125.33378c0 2.31247-1.28874 4.37371-3.13621 4.37371-1.20506 0-1.6613-.70748-1.6613-1.83251 0-2.06253 1.16249-4.37378 3.0938-4.37378 1.20499 0 1.70372.64506 1.70372 1.83258" fill="#0e1522"/><path d="m630.38628 626.51906c-1.78628-.29251-2.90749 1.14503-4.00872 3.33253h-.0412c.49752-1.41625.74753-2.33377.89249-3.125h-2.51374c-.20751 1.33369-.60126 3.4787-.89248 4.93621l-1.03874 5.41505h2.59621l.43625-2.24878c.68504-3.49876 2.49251-6.22748 4.00871-5.74875l.56129-2.56126" fill="#0e1522"/><path d="m635.65133 621.87406h-2.59629l-2.88628 15.20379h2.59629z" fill="#0e1522"/><path d="m646.82006 621.87406h-2.61748l-.89379 4.74876c-.43625-.0625-.74753-.0838-1.1-.0838-4.52751 0-6.62499 3.62504-6.62499 7.53999 0 2.20756.85121 3.22876 2.42996 3.22876 2.05505 0 3.48878-1.99997 4.31999-3.51997h.0412c-.47751 1.43622-.81001 2.47749-.95496 3.29002h2.55371c.16624-.95757.45753-2.58255.66505-3.7275zm-3.90502 6.89376-.125.66628c-.41505 2.1875-2.2638 5.58244-3.73879 5.58244-.51873 0-.7888-.41619-.7888-1.43747 0-2.16628 1.1013-4.95742 3.48876-4.95742.45754 0 .8313.0636 1.16379.14617" fill="#0e1522"/><path d="m662.70126 623.31159c-.83-.25131-1.80747-.39626-2.94876-.39626-5.4412 0-8.24623 4.645-8.24623 9.43496 0 2.29126.95619 4.91501 5.21378 4.91501 1.20491 0 2.47124-.22873 3.53126-.56251l.18616-2.4775c-.87242.35377-1.86997.58251-2.90741.58251-2.28501 0-3.01125-1.18753-3.01125-2.97745 0-2.7913 1.26625-6.4988 4.96376-6.4988.82993 0 1.72372.14504 2.53373.43755z" fill="#0e1522"/><path d="m672.68745 626.72659h-2.59613l-.49881 2.62496c-.45746 2.41501-2.3262 5.66499-3.7175 5.66499-.66497 0-.85121-.52124-.6237-1.79124l1.24626-6.49871h-2.59628l-1.37002 7.14371c-.37497 2.02002.22874 3.4375 2.22123 3.4375 1.9738 0 3.4063-1.6037 4.34127-3.4575l.0413.02c-.56006 1.62497-.81008 2.58255-.91376 3.20755h2.53371c.20883-1.24879.62379-3.52005.89379-4.9363l1.03866-5.41496" fill="#0e1522"/><path d="m683.72758 629.72654c0-2.20871-.85129-3.22876-2.43005-3.22876-1.82747 0-3.28125 1.45752-4.30001 3.49885l-.0412-.0213c.51873-1.60257.76874-2.4363.93507-3.24875h-2.55501c-.20752 1.31248-.54 3.1662-.89249 4.95749l-1.9738 10.41376h2.59629l.91377-4.91502c.43625.0625.74745.0825 1.12244.0825 4.52744-.00001 6.62499-3.62375 6.62499-7.53877zm-2.68007.50004c0 2.16498-1.1 4.9562-3.46747 4.9562-.37378 0-.83123-.0838-1.16371-.18745l.125-.66628c.41496-2.14492 2.24251-5.54001 3.7175-5.54001.49873 0 .78872.41626.78872 1.43754" fill="#0e1522"/><path d="m545.98748 645.1853h-2.35993l-2.01874 4.8088c-.26756.65247-.5188 1.33621-.77133 2.10747h-.015c.0587-.75622.0587-1.49872.015-2.07748l-.37117-4.83879h-2.33002l-2.22625 4.92751c-.29755.68253-.52003 1.36498-.75753 2.06254h-.015c.06-.72754.10388-1.45371.0738-2.10755l-.22247-4.8825h-2.31499l.51873 10.01876h2.59872l2.09251-4.79377c.31128-.71365.56382-1.43998.78629-2.21245h.015c-.0738.83122-.10363 1.6037-.0738 2.2863l.26626 4.71992h2.76124z" fill="#26b9f1"/><path d="m552.8363 645.1853h-5.52254l-1.89995 10.01876h5.52247l.37002-1.98875h-3.265l.43122-2.21252h3.08624l.37125-1.885h-3.1025l.37125-1.98875h3.2663z" fill="#26b9f1"/><path d="m559.84626 645.14029c-.56372-.0888-1.12876-.1487-1.75125-.1487-2.76122 0-4.11125 1.61872-4.11125 3.54751 0 2.38999 2.76002 2.36 2.76002 3.6512 0 .75752-.57877 1.17249-1.69122 1.17249-.55 0-1.1438-.11875-1.64756-.3112l-.40122 2.15247c.53375.11875 1.21748.19249 1.91497.19249 2.53754 0 4.30381-1.6175 4.30381-3.62121 0-2.42004-2.77503-2.46376-2.77503-3.76999 0-.57876.44502-1.08375 1.58752-1.08375.43121 0 .95001.10375 1.40999.25245z" fill="#26b9f1"/><path d="m567.96005 645.1853h-6.96129l-.37125 1.9738h2.34505l-1.52877 8.04496h2.25616l1.54381-8.04496h2.34504z" fill="#26b9f1"/><path d="m575.36248 645.1853h-2.25617l-1.90002 10.01876h2.25616z" fill="#26b9f1"/><path d="m585.50377 645.1853h-2.1962l-.72753 3.81377c-.14749.80247-.29625 1.7675-.38629 2.56875-.19249-.77248-.42999-1.63255-.72624-2.46376l-1.43997-3.91876h-2.6725l-1.89873 10.01876h2.1962l.78629-4.20127c.16372-.83115.26749-1.49873.35621-2.26998.1638.6675.37125 1.45378.63881 2.21123l1.49872 4.26002h2.65625z" fill="#26b9f1"/><path d="m594.77256 648.73281c0-2.45002-1.5438-3.60748-4.20005-3.60748-1.18743 0-2.46376.045-3.23624.0888l-1.90002 9.97497c.89126.0451 1.81129.0888 3.02879.0888 4.19999-.00006 6.30752-3.1613 6.30752-6.54509zm-2.41873.22248c0 1.6175-.86129 4.3338-3.56256 4.3338-.2375 0-.51872-.03-.72746-.0588l1.17249-6.13129c.26749-.0288.56366-.0288 1.03866-.0288 1.57379 0 2.07887.71251 2.07887 1.885" fill="#26b9f1"/><path d="m599.27498 645.1853h-2.25617l-1.90002 10.01876h2.25623l1.89995-10.01876" fill="#26b9f1"/><path d="m606.79001 645.1853h-5.52125l-1.89993 10.01876h5.52123l.37125-1.98875h-3.265l.42999-2.21252h3.08746l.37125-1.885h-3.1025l.37125-1.98875h3.265z" fill="#26b9f1"/><path d="m613.79998 645.14029c-.56367-.0888-1.12748-.1487-1.75118-.1487-2.76001 0-4.11132 1.61872-4.11132 3.54751 0 2.38999 2.7613 2.36 2.7613 3.6512 0 .75752-.57877 1.17249-1.69251 1.17249-.54871 0-1.14249-.11875-1.64749-.3112l-.40123 2.15247c.53498.11875 1.21743.19249 1.91497.19249 2.53877 0 4.30504-1.6175 4.30504-3.62121 0-2.42004-2.77626-2.46376-2.77626-3.76999 0-.57876.44495-1.08375 1.58875-1.08375.43 0 .95001.10375 1.40991.25245z" fill="#26b9f1"/><path d="m625.06379 647.35159c0-1.4238-.93499-2.33002-2.79123-2.33002-.87501 0-1.88506.23758-2.64129.56373v2.07879c.56374-.34249 1.20254-.53505 1.90003-.53505.59371 0 .95001.32631.95001.81626 0 .83122-.65376 1.79627-2.70248 3.72627l-1.63254 1.54374-.38628 1.98875h6.08628l.44501-2.19749c-1.11251 0-1.9738 0-3.02749.06l-.015-.015.96505-.93499c1.15745-1.12755 2.84996-2.73125 2.84996-4.76501" fill="#26b9f1"/><path d="m633.97499 648.3766c0-2.01881-.88996-3.32505-3.14622-3.32505-2.99872 0-4.98748 3.28004-4.98748 6.94626 0 2.27128 1.09871 3.35503 3.07251 3.35503 3.53249 0 5.06119-3.91869 5.06119-6.97624zm-2.32994-.045c0 2.04871-.905 5.09124-2.47879 5.09124-.65376 0-.99495-.44501-.99495-1.39503 0-1.3662.56495-5.09125 2.49374-5.09125.63874 0 .98.44503.98 1.39504" fill="#26b9f1"/><path d="m642.97883 648.3766c0-2.01881-.89135-3.32505-3.14752-3.32505-2.99751 0-4.98756 3.28004-4.98756 6.94626 0 2.27128 1.09879 3.35503 3.07251 3.35503 3.53256 0 5.06257-3.91869 5.06257-6.97624zm-2.33132-.045c0 2.04871-.905 5.09124-2.47872 5.09124-.65254 0-.9938-.44501-.9938-1.39503 0-1.3662.56381-5.09125 2.49252-5.09125.63882 0 .98.44503.98 1.39504" fill="#26b9f1"/><path d="m650.67498 645.1853h-6.11497l-.43121 2.22625c1.36628 0 2.9837-.03 3.5337-.045-1.11374 1.75125-2.79121 5.09125-3.84497 7.83753h2.5238c.93497-2.47872 2.43362-5.64003 3.96247-8.07503l.37118-1.94374" fill="#26b9f1"/></g><path d="m629.08745 612.4053v-4.60495h-1.72241v-.61752h4.1375v.61752h-1.72998v4.60495z" fill="#0e1522"/><path d="m632.19001 612.4053v-5.22247h1.03753l1.24252 3.69751c.1125.345.19623.60118.2475.77369.0612-.18875.14999-.46623.27748-.83748l1.25-3.63372h.92751v5.22247h-.66627v-4.36996l-1.51628 4.36996h-.62247l-1.51124-4.44374v4.44374z" fill="#0e1522"/><path d="m547.74254 521.96279s-4.63875-13.14994 14.86877-11.3787c0 0 25.15625 4.86373 47.51999.95618 0 0 19.79623-4.88868 27.16866.13002 0 0-.86868 7.38127-3.47366 15.63255 0 0-4.12499 16.50123-2.43126 24.08745 2.66876 11.94625 3.16497 11.94755-.06 25.52505 0 0-1.53625 5.09246.45998 9.88876 0 0 2.61245 4.42749 5.83748 7.67372 0 0-10.75249 11.66-29.03123 9.2987-10.30379-1.33117-27.00133-5.31371-44.01252-2.80493-5.47126.80618-8.33 2.43872-13.47626 4.27871 0 0-2.53624-9.73878.84252-18.8887 0 0 3.53248-8.85506 1.42753-19.35501 0 0-2.99629-6.93757-4.25758-11.58249-3.32992-12.26754 2.30507-21.65505-1.07498-32.5763l-.30747-.88501" fill="#26b9f1" fill-rule="evenodd"/><path d="m627.62626 508.73411c1.6388-.68252 3.265-1.20002 5.44869-1.58127 3.64136-.5088 4.55261-.4663 7.50634 2.8537 0 0-2.65504 5.42251-3.93501 9.32-1.185 3.61-1.18997 5.47256-1.69495 9.24506-.0751.56747-1.6938 1.12999-1.6938 1.12999-.15252-3.535.71876-12.5225 1.1113-14.55001.0287-.67628 1.31118-3.15003.73248-3.91252-2.8675-2.01247-3.57123-.83998-3.57123-.83998-1.10253.93246-1.21133 2.20496-2.54258.42121-1.30119-1.5612-2.75619-1.50375-1.36124-2.08618zm-33.385 24.43497c-1.03875-.10126-1.325.17876-2.46369-1.99379-1.03882-1.97746-.72006-3.40623-4.12757-4.97246-3.54249-1.6275-8.1437-3.52753-7.46872-4.7187.67627-1.19255 5.84877-.41878 6.21123-1.23749.36126-.81886-1.3375-1.89255-4.88624-2.64755-5.21881-1.10879-9.94994-2.71126-2.85126-4.82125 4.39629-1.30753 3.84125-3.14125-1.08124-3.19-3.07251-.0312-6.44248-1.01005-6.78748-3.02376-.42878-2.50129 10.02502-5.77125 12.25997-5.96627 11.58128-1.00997 11.71624 10.86999 12.83005 17.34628.74998 4.36118.19997 15.40496-1.63505 15.22499zm-7.66121 4.02375s-.38376.13625-2.83622.31501c-4.32131.31494-8.13257 1.73881-9.62754.80871-.57877-.35995 1.9587-2.17376 1.6375-2.97996-.32128-.80628-4.68247 2.31621-6.69252 2.23244-1.21375-.05-1.0575-1.2162 1.70754-3.33374 2.76619-2.11625.51499-3.36999-2.42881-1.13374-2.94495 2.23748-6.58494 4.53751-7.1737 2.6326-.59005-1.90505 2.35749-4.21509 1.7775-4.96757-1.11755-1.45004-6.23375.41756-9.23134 2.75871-3.4449 2.69005-9.67621 6.48751-13.39119 4.92752-2.23251-.9375 1.22628-8.73001 4.37874-12.91747 1.39504-1.8538 11.21003-8.9 22.12128-8.6438 3.60626.085 6.9725 3.27499 9.92996 5.43876 5.07881 3.71635 8.82881 6.7913 12.73506 10.64873 1.05118 1.05126-1.12 3.79379-2.90626 4.2138zm10.11001-6.76499s.70244-3.99003 4.42245-10.8963c3.72003-6.9075 7.95129-13.05245 13.04879-13.43376 5.09873-.38247 10.21751 4.13635 12.17248 6.28631 2.11501 2.32506 4.16625 5.31624 4.60753 8.55498.87494 6.41626-3.36501 4.11622-5.41755 2.0675-1.58875-1.58623-3.23876-3.30749-4.84878-4.84375-1.19492-1.13998-3.29743-2.58873-4.0625-2.17003-.90744.4963.10249 2.31751 1.70631 3.53875 1.09001.83 3.0925 3.43002 1.47628 5.28876-1.20376 1.38626-4.69627-.72746-5.7888-1.5612-1.09246-.83381-2.21748-.0825-1.13251 1.08994 1.75499 1.89628-.83496 3.41125-3.0162 2.23998-3.47374-1.86622-3.9238-.25871-.98877 1.48125 1.25122.74128.53497 1.74508-2.84874 1.74629-2.22748.001-4.00505 1.58128-5.17754 2.59751-.5262.45624-.86494.97878-1.83372 2.04003-1.56624 1.36992-2.72003.0175-2.85125-.32754-.29252-.76743.53252-3.69872.53252-3.69872zm-23.66127 11.52374c6.32119-2.72377 10.38629-3.42499 12.78366-2.50625 2.28883.87631-3.28491 4.89623-4.57619 6.12998-1.79496 1.71623-2.85751 3.44375-4.86373 7.24252-1.64757 3.11873-2.27997 3.2862-3.20495 1.23496-.92378-2.04994.26992-4.60495-1.37253-3.74-1.26.66375-2.94999 2.56004-4.86749 7.02132-1.17256 2.72744-2.18376 6.56495-4.20378 5.45869-2.02127-1.10626-3.25623-6.7762-1.96-10.81497 2.62001-8.16377 3.34624-6.18249 12.26501-10.02625zm37.26372-.33249c-.065 2.705-3.04122 5.71251-5.84251 5.75996-2.8537.0488-5.8825-2.42622-5.78499-6.36871l.0112-.21004c-.74501-.16876-1.30378-.61371-1.4988-1.43501-.21743-.9137.59747-2.33375.59747-2.33375s2.55882-3.62496 5.12008-4.48998c2.56249-.86625 11.52748-3.28003 15.79377-3.35373 7.38251-.12627 14.42618 3.2312 17.69622 7.82997 5.07623 7.13875 4.66248 16.0038 2.70753 17.51374-1.58128 1.22131-5.13879-4.40995-6.87753-7.99623-1.38122-2.84751-2.68249-5.77751-4.22622-5.75751-1.85249.0238 1.26121 7.29874-1.08002 8.13133-1.08253.38619-4.75753-3.84011-6.87752-7.04628-1.22124-1.84631-2.61123-1.96129-2.57621-.006.0324 1.78498.0688 2.99622-.80377 3.405-.87127.40871-2.15003-.71495-4.61127-3.10379-.55114-.53646-1.14364-.639-1.74743-.53897zm-26.47498 19.16626c-.46128.75249-2.35376-.67375-2.97372.36369-.42.7-2.36885-.21621-1.89628-1.00624.63873-1.06872-1.60874-1.72119-1.12625-2.5837 1.06125-1.8975 12.22503-22.40379 12.98248-23.7963.28999-.53376 2.16629-.13626 3.5575.58624 1.45249.75378 2.90628 2.06375 2.5338 2.7488-.63255 1.16248-12.4826 22.7137-13.07753 23.68751zm-6.62125 6.49124c-.33379.63744-1.63628 2.64374-1.93627 3.19373-.23995.44122-1.81-.35628-1.8425-.96252 1.08505-1.99371 1.53625-2.6725 1.875-3.23745.30129-.50378 2.16378.50621 1.90377 1.00624zm23.75625 20.5275c1.43997 1.05125-2.79999 7.70248-1.55747 8.49251 1.54374.98121 3.65875 2.95249 4.54499 6.94748 1.0337 4.655 4.63996 5.11001 4.23126 6.64001-.52627 1.9725-3.38005 2.155-4.19251 3.38501-.81253 1.22994-1.32378 2.40371-3.13873 2.6712-1.43005.21126-2.89375.50499-2.60757-.44876.28625-.95375 2.40752-1.66244 3.19-3.07251.78255-1.40992.54001-1.95122.56-3.01247.0188-1.05995-6.18996-9.12002-8.5112-9.70992-1.26625-.32258-1.57875-2.05758-1.61499-2.94129-.0325-.78751.53496-6.94626 1.315-8.22121.86998-1.42135 6.94374-1.3388 7.78122-.73005zm5.74746-20.44251c-1.35003.94125-1.04866 6.10001-1.0637 9.08997-.0138 2.49 1.36376 7.38754-3.97125 9.26124-4.24751 1.49125-14.36508-.2362-15.71129 1.81755-.36125.55245 1.67625 2.23496.15129 6.94749-.46996 1.45629-.48126 4.86747-.24001 5.55496.34247.97755 1.53998 1.96502 1.2838 2.85881-.25758.89249-1.40252 1.78619-3.36137 1.32621-1.95991-.46127-2.80868.0164-4.21745.56504-1.40998.55-3.06626.9375-3.83126.56999-.765-.36873-1.74621-.66871-1.08749-1.19499.66002-.52506 3.34-1.2825 4.10499-1.82504 1.37505-.97502 3.14629-1.90376 2.65755-4.54123-.48881-2.63749-.73127-7.21627-1.81625-10.05502-.39627-1.03751-.70374-5.39375-.0512-6.37122 1.60751-2.40875 10.39879-1.36505 13.24998-2.21756 2.51625-.75249 1.93877-6.57868.75126-7.71744-1.13503-1.08879-5.09873 2.46246-7.13875 2.20375-4.58122-.57876-8.23379-6.87126-9.43-7.59003-3.1675-1.90498-1.21125-4.89372.47873-5.01747 1.33508-.0975 3.31879 1.14502 3.5138 2.77496.23499 1.9513 3.69499 3.98629 5.46746 4.08256 2.18879.11875 6.02371-2.69377 7.52372-4.0763 1.99509-1.83876 6.93635-1.65123 10.86503-2.24998 3.82003-.58373 12.25127 3.76495 13.34877 7.06497.78003 2.34504-3.70377 9.78249-4.88 11.6188-.22246.34623-1.43127 2.14371-2.35877 2.36244-1.17874.27879-3.27622-.05-3.52745-1.87995-.10875-.79506 1.27502-2.36626 2.835-3.0938 1.86623-.8712 2.49001-5.23994 1.98502-7.32873-.53382-2.21122-4.25262-3.83125-5.53016-2.93998zm-5.50118-15.68748c.2925.0825.56122.17624.80872.28.9925.1 1.85622.24254 1.94503.3437.2887.32624-.12.67383.29373 1.20125.25376.32256.93628.50255 1.34247.96878.40878.46875-1.3237 1.23375-.68878 1.82625.44258.41252.26252 1.41746-.34997 1.595-.27244.0788-.60745.13001-.95748.1712-1.41998 1.99257-5.37003 3.91381-7.85873 2.27257-1.25878-.82879-.8413-3.00377-.41122-5.1638.50124-2.51251 3.62372-4.13491 5.87623-3.49495zm21.09245 17.41874c-.14373.36995-.27245.645-.39131.83619-.0986.15876-.25116.36254-.47867.39375-.29999.0412-.44502-.22248-.49378-.33372-.0638-.14625-.1025-.33377-.13-.52497-.1075-.75004-.0762-1.9638-.0825-2.34626-.0188-1.15502-1.9075-1.81878-1.99249-1.84624 0 0-.17623-.06-.39871-.15-.21751-.0862-.50004-.20882-.71136-.34004-.10113-.0613-.21615-.14251-.29366-.24246-.0837-.1075-.17875-.33128-.004-.53375.11375-.1313.29624-.1825.44998-.21126.1625-.03.39245-.0513.70748-.0562 1.64777-.02383 5.41159 1.24744 3.81902 5.35496zm-66.01875-3.6763c1.52374-1.06124 3.19625.68253 3.19625.68253-.07 2.44125 2.45622 18.1137 2.45622 18.1137 1.84257 8.1363 7.44385 16.57875 7.44385 16.57875.59119 3.58132-2.59133 3.4813-2.59133 3.4813-4.17-5.28503-7.155-13.76503-7.155-13.76503-1.55625-4.8912-2.5737-10.71625-3.2087-15.43373-.54504 2.32254-1.55129 4.70001-3.0925 7.36878l-.1625.40496c5.08995 14.3 13.15499 23.83255 13.15499 23.83255-1.34873 4.25872-2.86752 2.48245-2.86752 2.48245-4.49997-3.57375-8.67996-11.08871-12.01873-18.61251-.25749 3.74.23627 7.85255 1.53747 12.64877 1.37879-.52742 2.38129-.36873 3.99376-.44251l1.07628 2.435c-3.30254.81124-4.3013 1.40251-6.68251 4.05876 0 0-2.90497-5.12748-3.45627-8.92867-.63751-4.39385.13123-10.13383 1.83502-13.75634-3.65128-8.94249-5.93879-16.87874-5.93879-16.87874l.44128-.72128c4.20876-2.52869 5.56373.66376 5.56373.66376.57251 3.78876 1.46257 7.40005 2.53877 10.77629 1.59873-5.45624 1.51626-11.26252-1.08377-17.36-3.48746-8.18123-4.23621-17.54624-4.69618-20.36003 1.26495-1.02371 1.82495-1.7775 4.13246-3.63869.63751-.51506 3.23997-1.97502 3.9225-2.13005-1.30753 3.36754-2.445 6.13503-2.45751 7.67624-.0538 7.49504.9462 9.6225 3.31253 17.72629.31998 1.07871.58998 2.10746.8062 3.09745zm8.57375 1.2938.18128-2.68632c5.40254-1.95373 4.08875 1.26626 4.08875 1.26626-.40497.79132-.28374 2.80379-.28374 2.80379.30746 3.83874 2.4762 17.66625 3.96126 23.11875 1.4862 5.45128 3.38249 8.20878 3.38249 8.20878-2.30873 3.96125-4.9688 2.00744-4.9688 2.00744-.9362-2.08374-1.50619-3.96995-1.50619-3.96995-4.245-12.93878-4.85505-30.74875-4.85505-30.74875zm44.46129-12.08374c-.12125.29372-.2288.51124-.325.66124-.0487.075-.0987.14-.15374.19118-.0512.0488-.12505.1025-.22255.11625-.24246.0337-.34996-.18501-.38376-.27-.0449-.11625-.07-.26497-.0862-.41618-.0614-.5938-.001-1.55633.005-1.86005.0175-.91629-1.41869-1.43753-1.48499-1.46004 0 0-.13373-.0475-.30495-.11875-.16501-.0687-.38131-.16624-.54252-.27-.0763-.05-.16503-.115-.22376-.19501-.065-.0912-.12375-.26123.008-.41252.0888-.10125.2288-.14122.35003-.16495.12749-.0238.30624-.0412.55123-.045 1.28696-.01993 4.15942.99629 2.81321 4.24383zm-63.10126-33.68256s-.0275-1.14875 0-1.88125c.075-1.9175-.28748-2.56997.69122-4.87123.69129-1.62254 5.45379-6.78879 14.05502-4.57504 2.29005.59007 7.90993-.14243 7.90993-.14243.80635.92246 2.36885 2.16995.115 2.1762-2.39998.007-4.6962.44251-8.63868-.004-5.64508-.62752-8.87132 1.32752-8.60253 4.16878.0975 1.02249.69123 2.72995.69123 2.72995.00004.00027-6.00368 3.10032-6.22119 2.39902zm87.91625 35.98c1.88126 10.59875.63751 10.09757-2.01874 19.86007 0 0-.345 1.17249-.46379 2.82371-.12125 1.68748.0139 3.34497.8313 5.37499 1.83999 3.04001 4.785 7.48749 7.30995 10.02876 0 0-1.41746 2.14127-2.78121 3.20495-9.90501 7.72378-14.63501 8.7513-23.84873 8.49129-2.61131-.0738-7.75757-2.8775-3.76381-3.09867 13.57003.78995 25.16503-4.58008 25.16503-8.89885 0-2.435-3.79754-3.89999-5.23003-6.33248-1.39244-3.34625-.77255-7.72002.22629-11.21001 3.06999-12.93625-3.33634-23.04749 1.04126-22.60499 2.61245.26375 3.53248 2.36123 3.53248 2.36123" fill="#0e1522"/><path d="m587.62626 532.95279c-.15495-.31122-.51246-.72877-.51246-.72877-2.03125-1.79244-5.86876-5.37124-10.72998-8.92738-2.36626-1.73134-7.49382-4.66507-10.37751-4.76761-9.76127-.34996-17.84126 5.64507-19.15634 6.97006-3.02497 3.04756-5.47866 8.47748-2.71247 9.30871 3.09631.9288 7.93876-2.67876 10.94001-4.50501 3.49625-2.12624 9.19503-1.81252 10.09003-.65247.46371.60249-2.80754 3.20252-2.33628 4.72625.4725 1.52498 3.35251-1.25998 5.70755-3.04877 2.35498-1.79001 7.60499.59127 6.77369.80635-.78499.20241-3.96119 2.93746-2.98996 2.97745.83877.035 1.92871-1.18126 3.2975-1.26008 1.25496-.0725 3.26622.71503 3.38997 1.02379.25749.64499-2.155 1.77003-1.69251 2.05879 1.1963.7425 2.30004-.18883 5.83245-.3588 2.37884-.11375 5.47508-1.61125 4.47631-3.62251" fill="#80cc28" fill-rule="evenodd"/><path d="m594.20875 530.76284c1.08506-.91621.46006-10.66879-.23376-14.14001-1.08619-5.42755-1.56998-14.66873-10.83496-13.86124-1.78872.15625-8.25874.96496-6.20377 3.46496 1.16128 1.41374 3.00378 1.47751 4.67621 2.46003 2.40632 1.41495 3.9888 3.10745.65254 4.10247-4.73625 1.41251-2.09121 3.35755-.26122 3.89504 5.80871 1.7112 8.69751 4.31496 8.40751 4.96994-.28878.65506-5.18753.0725-5.72876 1.02631-.54.95245 3.42498 2.01249 5.97496 3.77495 1.23756.85625 1.3575 2.91504 2.09877 4.47624.2475.52002.80124.38253 1.45248-.16869" fill="#80cc28" fill-rule="evenodd"/><path d="m597.62756 532.19404c-.28503-1.37245 2.80251-7.71621 5.62874-12.96623 2.82745-5.24872 6.64871-9.58252 10.52246-9.87251 3.87375-.29 8.90381 2.34877 10.39001 3.98254 1.60874 1.7675 3.8588 3.8575 4.44504 6.27625.82001 3.38622-1.735 2.0562-3.29506.49995-1.2075-1.20622-2.02499-1.87127-3.27873-3.00752-4.29245-3.88617-6.57875-2.76496-8.43376-1.25747-.75371.86129.22499 1.62255 1.25 2.24251.895.54123 1.97754 2.12754 1.73874 3.83125-.23873 1.7025-2.96494-.0188-4.80995-.5075-1.02256-.27122-1.88508 1.98753-1.34125 2.34749 1.65375 1.09375.30876 2.24631-2.20749 1.10747-2.73629-1.23618-3.2 1.60004-.96877 2.92253.95001.56372.83747.71129-1.73379.71372-1.69373 0-1.58623-.0386-2.6387.51507-1.12999.59371-3.57499 3.71993-4.33129 3.79248-.45745.0437-.83244-.11375-.9362-.62003" fill="#80cc28" fill-rule="evenodd"/><path d="m599.32381 536.94532s2.15499-2.80502 4.33373-3.54126c2.1775-.73623 11.58622-2.59376 15.21247-2.65502 6.27503-.1075 11.78749 3.77502 14.49379 7.73123 5.13496 7.50504 5.06753 16.35751-1.64627 4.37883-1.31752-2.35131-3.56247-4.39751-4.87495-4.42376-1.99753-.04.61118 5.48249-1.37879 6.19126-.92003.32745-3.32253-2.31125-5.12496-5.03502-1.03753-1.56998-4.56132-1.33629-4.4188.1712.14245 1.51131.0862 2.61002-.68253 2.89376-1.3787.5075-1.01371-1.46249-3.10622-3.49495-.63623-.61753-1.40497-.33875-2.19003.18622-.6237-1.93503-2.05871-3.53377-4.1687-3.63753-3.23875-.15999-5.90751 1.67-6.79504 3.84887-1.20125-.42137.3463-2.61382.3463-2.61382" fill="#80cc28" fill-rule="evenodd"/><path d="m573.06755 543.39033c-6.90125 2.97371-7.46254 1.44127-9.49005 7.75749-1.00373 3.125-1.49124 6.68503-.006 7.49748 1.48498.81383 2.22869-2.00752 3.08998-4.01252 1.40998-3.27995 2.99369-4.11995 3.84872-4.71619 3.61496-2.5225 3.17879-1.55624 3.52379.44625.29374 1.70501.56617 2.80997 1.8412.39626 1.55128-2.93876 2.27631-4.19631 3.66501-5.52375.99876-.95505 5.19005-3.10631 3.41872-3.78502-1.85492-.70999-5-.16754-9.8912 1.94" fill="#80cc28" fill-rule="evenodd"/><path d="m591.30379 535.5216s-10.84374 19.15749-11.23124 20.03494c0 0-1.0025 1.36254.86876 2.20001 0 0 2.53495 1.62002 3.6187-1.09001l10.47501-19.02374s-.045-.60501-1.68251-1.92116c0 0-.84747-.63636-1.81626-.61881z" fill="#fab20b" fill-rule="evenodd"/><path d="m603.07495 556.53654c.0663.68375-3.55118 2.46124-3.88115 2.61878-2.61124.83123-2.3513-1.67251-2.30872-1.98875.94748-3.11752 2.87497-3.94493 4.40619-3.83498 1.38001.0987 1.7675 3.05121 1.78368 3.20495" fill="#ed1c24" fill-rule="evenodd"/><path d="m576.26251 604.39535c.26375-.35377 1.53878-1.11877 5.12626-2.44751l.13749-.0913c.0362-.03.0875-.0762.1487-.13755.11875-.1225.2713-.30251.41511-.54871.28748-.48874.53245-1.22498.41871-2.22878.0113-.25245.10362-2.32376-.009-4.66247-.11875-2.43378-.4612-5.29495-1.44119-6.60629-.18754-.45998-1.99754-5.20745 2.50366-5.95749 0 0 4.65629-.90371 8.41384-1.34751 0 0 .26749-.0412.66246-.14.39254-.0975.9163-.25245 1.44128-.47996 1.00746-.43625 2.1862-1.21254 2.24876-2.50999.0375-.1075.13245-.39376.22498-.79499.11751-.51002.23369-1.21627.22378-1.98754-.02-1.54617-.55382-3.40003-2.63383-4.43-.0288-.0137-.20118-.025-.23124-.015 0 0-2.37869.80628-5.79368 1.77628-.0689.0287-.23255.11875-.53758.19127-.32248.0775-.80627.13497-1.42623.0412-1.23375-.18631-3.04749-.97626-5.23246-3.48755l-3.10624-4.33746c.14618-.5188.47118-1.24375.9475-.61379 1.00997 1.33752 4.54497 4.52752 6.03874 5.28748l.13496.0325s1.54374.009 3.51875-.44746c1.95626-.45128 4.37379-1.36872 6.13121-3.23754.10388-.0725.65629-.42625 1.88378-.85998 1.41128-.49873 3.71253-1.10001 7.24755-1.49246.17623-.004 1.51122-.0175 3.49623.43495 2.14997.48881 5.05998 1.52504 8.08877 3.71001l.095.0613c.045.0325.1125.0862.18997.16877.15503.16372.35629.44372.50255.88873.29373.89249.3775 2.49505-.625 5.21623-.006.02-1.45126 4.63127-3.56125 6.66504-.49377.93376-4.46999 1.20872-1.8338-.79125 2.64625-2.00744 3.52753-4.98627 3.70003-6.55747.16502-1.50382.16746-3.52501-1.26252-4.56505-1.25-.90873-4.58381-2.64747-6.37497-1.87873-1.78123.765-2.8788 1.58248-2.68005 7.39746.05 1.44005.11375 2.55379.1313 3.45749.0175.90003-.0138 1.56502-.14625 2.12631-.25628 1.08871-.90249 1.8512-2.55249 3.19375-.12137.0662-.77256.41244-1.90629.83999-1.27746.48248-3.16246 1.06628-5.58746 1.4737-1.20629.20377-2.21877.2613-3.0838.26375-.87494.001-1.59996-.0549-2.22244-.0787-1.27251-.05-2.23381.025-3.12256 1.05628-.60127.69627-.67124 1.40748-.5362 2.1138.065.33242.17624.67368.30251 1.02372.11363.3212.23994.64995.34623.99242.0213.42381.21751 4.47633-.28504 6.41251l-.009.0875s.0337.87379.12 1.87752c.0838.98373.22118 2.15873.44243 2.72498.16006.28878.84877 1.67504-.23873 1.83252-.23125.008-2.88246.0987-3.92997.28502-.48004.0862-1.4875.39498-2.37503.68498-.74875.24253-1.41.47126-1.58745.53252-.33631.004-.66132-.0213-.86754-.085l-.0838-.0325" fill="#ed1c24" fill-rule="evenodd"/><path d="m599.42756 615.38777c.008-.02.0213-.0488.0475-.09.18745-.29998.76248-.84502 2.10503-1.81754l.0824-.09s.38262-.64125.74013-1.44126c.33996-.76126.70244-1.76247.59867-2.48124.006-.38497-.1025-3.77997-5.00373-8.06128-.0275-.02-3.91747-2.86248-4.81369-5.2137.0275-.27879.1387-1.34125.25992-1.8525.0364-.1538.07-.48004.14757-.90126.0725-.39879.18501-.88623.38367-1.39244.39384-.99999 1.11253-2.04506 2.5-2.59637.54756-.16493 3.79128-1.02622 2.88254 1.43502-.14374.1825-.73128.96626-1.13998 2.01752-.46127 1.19003-.71625 2.78625.25002 4.23751.085.18373.4087.62874 1.72996 1.64247.26626.37635 2.54752 3.63753 3.05504 5.88501l.0338.085s.50117.86006 1.16126 1.82129c.645.94001 1.48499 2.04757 2.16622 2.48871.28755.23124 1.26373 1.12876.15625 1.59881-.0575.01-.17625.0337-.33875.0775-.22377.0626-.53627.16625-.88501.33256-.69496.33249-1.54746.91874-2.1463 1.93619-1.08116 1.83625-3.28491 2.60376-3.85994 2.42501-.0513-.0163-.0875-.0312-.1125-.045" fill="#ed1c24" fill-rule="evenodd"/><path d="m545.73127 571.66906s8.67127 27.435 16.85502 34.74503c0 0 1.26502 1.49505 1.75621-.625 0 0-10.09369-12.51878-14.39125-30.01878 0 0-.43374-6.74872-3.86124-4.68871l-.35873.58746" fill="#fab20b" fill-rule="evenodd"/><path d="m556.39877 569.47653s.92125 8.2888 3.06999 16.88628c0 0 1.79627 9.4088 7.3687 16.57875 0 0 1.81008.71374 1.32759-2.20252 0 0-5.31875-8.69621-7.00751-15.29748 0 0-2.66625-14.28375-2.61003-16.2725 0 0-.38749-2.51503-1.68876-1.2275z" fill="#fab20b" fill-rule="evenodd"/><path d="m565.91629 569.01533s1.82876 17.29873 4.375 25.80246c0 0 .46371 1.53625 1.2275 3.2338 0 0 .3675 2.2187 2.24876-1.00876 0 0-1.11374-2.64-2.32376-7.0813-1.21003-4.44123-3.76999-16.57624-3.22503-19.41124 0 0-.26749-3.09875-.26749-3.98873 0 0 .99129-2.66128-2.05497-1.16501l.02 3.61878" fill="#fab20b" fill-rule="evenodd"/><path d="m602.6963 540.61781c-.29251.32126-.63255.73623-.80124 1.09375-.17753.37254-.47378 1.33376-.7138 2.15125-.39376-.69999-.50873-1.54625-.50873-2.29621 0-1.63246 1.65001-4.57756 5.18753-4.26002 2.28745.20622 3.35869 2.9512 2.4012 4.86747-.47118.94628-1.12251 2.09504-2.37121 2.74758-.12879-.48753-.21507-1.08132-.055-1.50635.32624-.8725.71121-1.81.71121-1.81.0163-.0412-.005-.0925-.0449-.10988l-.94628-.40001c-.0275-.0125-.1.0264-.1.0264-.001.001-.64872.83993-.98006 1.87363-.2324.72006-.3724 1.77627-.43617 2.34505-.51125-.0137-.89753-.0775-1.23245-.1812.0625-.72631.18248-1.74508.41-2.55134.19745-.7.4612-1.17622.67367-1.475.10625-.14999.19883-.25619.26505-.32364.0637-.0664.1025-.0964.1025-.0964.055-.0425.05-.10363-.01-.1387l-.9037-.52749c-.025-.015-.08-.009-.1.0113 0 0-.25375.23628-.54749.56" fill="#fff"/></g></svg>