<svg height="298" width="272.73001" xmlns="http://www.w3.org/2000/svg" xmlns:xlink="http://www.w3.org/1999/xlink"><radialGradient id="a" cx="0" cy="0" gradientTransform="matrix(0 78.395 78.395 0 209.499 642.352)" gradientUnits="userSpaceOnUse" r="1" spreadMethod="pad"><stop offset="0" stop-color="#ffd900"/><stop offset="1" stop-color="#ee3869"/></radialGradient><radialGradient id="b" cx="0" cy="0" gradientTransform="matrix(0 55.779 55.779 0 236.228 679.773)" gradientUnits="userSpaceOnUse" r="1" spreadMethod="pad"><stop offset="0" stop-color="#00b0d8"/><stop offset="1" stop-color="#005ba6"/></radialGradient><radialGradient id="c" cx="0" cy="0" gradientTransform="matrix(0 74.15 74.15 0 222.283 661.41)" gradientUnits="userSpaceOnUse" r="1" spreadMethod="pad"><stop offset="0" stop-color="#bed730"/><stop offset="1" stop-color="#008f54"/></radialGradient><g transform="matrix(0 1.0768697 1.0768697 0 -561.39568 -120.52497)"><g fill="#231f20"><path d="m0 0v-3.508l-18.547 3.508v3.52z" transform="translate(331.741 527.483)"/><path d="m0 0c-.382-1.073-.571-2.25-.571-3.35 0-4.891 4.885-6.569 8.567-6.569 2.363 0 3.931.959 3.931 3.987 0 1.37-.303 2.689-.773 3.844l3.27-.25c.436-1.404.737-3.078.737-4.671 0-5.632-3.458-6.895-6.478-6.895-6.318 0-12.442 3.709-12.442 10.904 0 1.517.187 2.803.522 3.904z" transform="translate(316.822 545.732)"/><path d="m0 0c-.382-1.068-.571-2.25-.571-3.353 0-4.883 4.885-6.558 8.567-6.558 2.363 0 3.931.958 3.931 3.982 0 1.371-.303 2.69-.773 3.843l3.27-.246c.436-1.405.737-3.077.737-4.669 0-5.634-3.458-6.899-6.478-6.899-6.318 0-12.442 3.712-12.442 10.91 0 1.51.187 2.798.522 3.898z" transform="translate(316.822 560.037)"/><path d="m0 0c-.382-1.073-.571-2.247-.571-3.348 0-4.891 4.885-6.566 8.567-6.566 2.363 0 3.931.96 3.931 3.982 0 1.372-.303 2.691-.773 3.849l3.27-.253c.436-1.395.737-3.078.737-4.664 0-5.633-3.458-6.898-6.478-6.898-6.318 0-12.442 3.711-12.442 10.904 0 1.512.187 2.801.522 3.9z" transform="translate(316.822 581.106)"/><path d="m0 0c-.63-2.006 2.969-4.393 7.58-5.308l2.972-.574v-3.434l-7.146 1.371c-1.918.386-4.75.909-6.51 1.187v3.321c1.045-.196 2.258-.523 4.12-1.184v.057c-2.884 1.456-4.782 2.937-4.397 5.304z" transform="translate(321.19 590.998)"/><path d="m0 0c0-1.211-.962-2.059-2.035-2.029-1.261.023-2.22 1.123-2.22 2.333 0 1.182.928 2.057 1.973 2.033 1.32-.026 2.282-1.13 2.282-2.337zm15.412-1.484v-3.434l-13.656 2.609v3.435z" transform="translate(316.329 596.242)"/><path d="m0 0c-.272-.605-.414-1.297-.414-2.113 0-2.859 3.189-4.182 5.743-4.182 1.293 0 2.42.545 2.42 2.423 0 .879-.19 1.805-.527 2.549l3.053-.297c.328-.935.545-2.088.545-3.275 0-3.652-1.861-5.052-4.717-5.052-5.223 0-9.484 3.074-9.484 8.05 0 .989.141 1.862.355 2.714z" transform="translate(321.19 608.633)"/><path d="m0 0 7.364 3.623v-4.149l-6.846-2.879 6.846-1.324v-3.435l-20.056 3.819v3.436l11.977-2.281-6.37 5.937 1.785 2.691z" transform="translate(324.377 617.779)"/><path d="m0 0c0-1.794 1.649-2.921 3.433-3.411-.112 3.158-.769 4.807-2.227 4.807-.762 0-1.206-.519-1.206-1.396zm5.764-3.794c.307-.034.775-.087 1.076-.087 1.565 0 2.034.605 2.034 2.505 0 1.315-.311 2.717-.822 3.98h2.688c.58-1.508.876-3.295.876-5.108 0-3.462-1.591-4.837-4.611-4.837-5.714 0-9.591 3.46-9.591 7.721 0 3.379 1.68 4.419 3.328 4.419 3.269 0 4.859-3.24 5.022-8.593" transform="translate(320.394 630.391)"/><path d="m0 0v-3.217l6.154-1.156c1.647-.303 2.085-.08 2.085 1.046 0 .686-.089 1.205-.194 1.708l2.808-.333c.215-.91.35-1.956.35-2.806 0-2.934-1.403-3.762-4.665-3.131l-6.538 1.239v-2.337l-2.722.553v2.3l-4.205.801-.71 3.569 4.915-.932v3.242z" transform="translate(320.807 645.525)"/><path d="m0 0v-4.314l-10.22-.713c-1.178-.079-2.498-.031-3.822.056v-.025c1.299-.388 2.506-.827 3.741-1.372l10.301-4.619v-4.093l-18.547-1.066v3.563l10.274.575c1.216.06 2.473 0 3.74-.08v.036c-1.238.436-2.47.848-3.652 1.391l-10.362 4.729v3.731l10.305.881c1.045.087 2.33.112 3.62.028v.033c-1.29.409-2.411.856-3.563 1.316l-10.362 4.451v3.652z" transform="translate(331.741 670.258)"/><path d="m0 0c0-2.551 3.047-4.091 5.768-4.091 1.486 0 2.414.606 2.414 2.193 0 2.445-2.715 4.147-5.766 4.147-1.565 0-2.416-.659-2.416-2.249zm11.203-2.363c0-3.819-1.807-5.33-4.891-5.33-5.704 0-9.311 3.824-9.311 8.218 0 3.9 2.087 5.355 4.977 5.355 5.626 0 9.225-3.955 9.225-8.243" transform="translate(320.807 684.157)"/><path d="m0 0c-.63-2.009 2.969-4.402 7.58-5.314l2.972-.573v-3.435l-7.146 1.375c-1.918.382-4.75.911-6.51 1.183v3.322c1.045-.191 2.258-.522 4.12-1.178v.049c-2.884 1.462-4.782 2.94-4.397 5.305z" transform="translate(321.19 700.592)"/><path d="m0 0v-3.428l-20.056 3.809v3.438z" transform="translate(331.741 704.348)"/><path d="m0 0c0-3.165 3.685-4.617 6.535-4.617 1.352 0 1.901.356 1.901 1.039 0 1.954-4.476 4.397-7.362 4.948l-.882.169c-.106-.446-.192-.933-.192-1.539zm6.24 3.816c1.509-.277 3.654-.658 4.917-.881v-3.377c-1.074.195-2.45.63-4.342 1.261v-.051c2.008-1.101 4.643-2.997 4.643-5.713 0-2.093-1.348-3.217-4.261-3.217-5.162 0-9.946 2.775-9.946 8.768 0 .465.032.874.114 1.455l-6.264 1.173v3.465z" transform="translate(320.584 716.383)"/><path d="m0 0c-.382-1.073-.571-2.256-.571-3.356 0-4.89 4.885-6.563 8.567-6.563 2.363 0 3.931.962 3.931 3.985 0 1.371-.303 2.693-.773 3.845l3.27-.251c.436-1.4.737-3.074.737-4.665 0-5.63-3.458-6.896-6.478-6.896-6.318 0-12.442 3.707-12.442 10.904 0 1.511.187 2.805.522 3.906z" transform="translate(316.822 743.465)"/><path d="m0 0c1.87-.355 4.86-.908 6.511-1.185v-3.348c-.827.14-2.086.467-4.234 1.209l-.028-.052c2.444-1.238 4.563-3.133 4.563-5.746 0-2.635-1.87-3.425-4.535-2.934l-9.422 1.815v3.429l8.576-1.649c1.672-.301 2.359-.048 2.359.822 0 1.846-4.282 4.315-7.472 4.92l-3.463.662v3.432z" transform="translate(325.23 756.894)"/><path d="m0 0c0-1.958 4.476-4.367 7.304-4.918l.878-.169c.137.444.248 1.049.248 1.54 0 3.133-3.68 4.588-6.532 4.588-1.352 0-1.898-.385-1.898-1.041zm11.175-4.176c0-.492-.024-.911-.107-1.489l6.486-1.206v-3.435l-13.742 2.606c-2.356.471-4.8.916-6.534 1.187v3.381c1.077-.226 2.165-.547 4.288-1.235l.028.049c-2.696 1.345-4.616 3.274-4.616 5.689 0 2.086 1.345 3.212 4.258 3.212 5.165 0 9.939-2.77 9.939-8.759" transform="translate(320.807 768.435)"/><path d="m0 0h6.798v-1.046h-6.798v-2.214h-.885v5.482h.885z" transform="translate(276.729 711.757)"/><path d="m0 0-4.437-.65c-.874-.122-1.436-.191-1.887-.238v-.023c.36-.082.837-.203 1.386-.376l4.938-1.653v-1.109l-4.605-1.564c-.586-.193-1.217-.397-1.719-.49v-.009c.624-.047 1.24-.128 1.988-.22l4.336-.516v-1.074l-7.683 1.127v1.285l4.836 1.613c.562.196 1.071.345 1.529.438v.019c-.538.115-.911.23-1.457.412l-4.908 1.672v1.299l7.683 1.164z" transform="translate(283.527 722.188)"/></g><path d="m222.223 599.235c-6.532 6.296-8.711 8.767-10.2 10.04-1.498 1.278-3.806 4.418-6.402-.423-1.107-2.051-7.717-15.957-9.291-19.998-1.569-4.039-3.854-11.997.26-17.359 4.12-5.365 9.769-6.19 12.502-6.579 2.725-.394 5.881-.02 6.31.529.426.551.619 1.615-2.461 3.307-3.079 1.692-6.236 4.307-7.103 11.669-.496 4.128.299 8.221 1.361 11.256h-.01c.863 2.916 2.252 6.654 2.944 7.389.972 1.035 2.188.67 3.83-.911.855-.823 1.916-1.955 6.309-6.403 3.21-3.249 5.979-6.919 6.139-10.875.171-4.339-2.475-9.373-3.005-10.47-.529-1.088-.515-1.744-.071-2.278.447-.532 3.403.105 6.728 3.271 3.402 3.241 3.936 9.816 2.785 14.468-1.167 4.647-4.097 7.062-10.625 13.367zm-19.966 26.976c-7.137-12.831-10.317-33.045-9.183-36.489.767-2.327 2.878 5.022 10.466 22.916v-.043c1.052 2.747 4.677 9.119 7.456 4.306.05-.071.083-.124.128-.194 5.209-10.035 11.684-14.205 14.201-15.793 1.756-1.109 1.799.007 1.374.828-.274.486-.426.722-.426.722-11.362 15.152-11.185 26.244-13.27 33.29-.9 3.08-4.063 2.469-10.746-9.543zm17.002 4.411c-.686-4.426-.086-11.278 3.664-18.66 3.753-7.38 5.974-9.029 4.998-6.02-.767 2.365-3.069 9.89-3.412 12.16-.337 2.268.572 4.654 3.866 3.631 3.294-1.024 8.291-2.273 10.451-3.069 2.161-.79 2.389.914-1.591 3.639-3.972 2.728-9.828 6.922-12.443 8.4-2.612 1.474-5.08 2.887-5.533-.081zm13.09-31.949c5.116-10.793 12.451-13.945 14.655-14.541 5.914-1.592 2.386 1.476 2.386 1.476-8.632 6.475-9.923 14.766-10.349 17.258-.327 1.917.121 4.073 5.923 1.939 6.915-2.545 13.859-9.54 15.335-11.019 1.476-1.475 1.134 1.135.68 3.178-.456 2.047-2.84 6.934-8.629 11.817-5.799 4.883-19.43 8.636-22.496 9.093-3.07.451-2.614-8.411 2.495-19.201zm19.54-.796c-3.291 2.385-6.064-.325-6.59-1.476-.564-1.253.229-4.094 1.819-5.454 1.596-1.368 2.683-1.941 4.902-1.454 2.357.516 3.51 2.136 3.51 3.387 0 1.25-.347 2.613-3.641 4.997zm-89.92 18.572c-1.554-1.638-1.42-2.246-1.179-2.467.558-.628 15.218 6.567 20.003 8.197 4.263 1.388 4.871-2.533 4.465-5.478-2.318-13.948.711-24.861 2.021-27.717.838-1.822 1.85-1.437 1.967-.602 2.498 26.855 11.007 44.449 14.856 48.655 3.448 3.769.722 4.411-.963 3.849-24.532-8.458-40.181-23.368-41.17-24.437zm-3.426 39.466c.266-1.709 10.517-6.968 13.666-10.126 1.24-1.241 3.545-3.466-1.746-7.71-5.091-4.081-10.211-10.056-11.745-13.846-1.535-3.79-1.052-6.307.524-4.729 1.581 1.584 10.749 8.96 14.306 11.358 4.058 2.735 8.827 5.972 13.488 8.494 5.091 2.754 9.098 4.173 4.957 6.743-6.195 3.846-13.874 6.015-18.044 7.378-4.269 1.397-15.728 4.542-15.406 2.438zm-36.206 4.079c-4.113-1.589-5.5-4.185-5.059-9.558.492-6.052 8.61-9.552 12.655-9.893 4.058-.349 7.577 2.202 8.252 8.226.68 6.021-4.601 10.239-6.837 10.94-1.628.498-4.904 1.867-9.011.285zm16.139-18.971c-2.53-3.826-5.839-7.939-8.504-8.768-4.125-1.288-6.102 1.397-6.818 2.353-.717.947-2.134 1.543-2.016-.644.12-2.185 2.148-8.119 6.686-11.649 4.542-3.523 9.439-1.089 13.07 3.262 2.029 2.424 5.942 7.416 10.154 11.249.009.006.025.006.025.006 1.992 1.475 4.993 3.989 8.427 4.262 3.452.274 5.585.301 7.082.261 1.195-.032 1.511.133 1.904.663.779 1.063.15 2.305-2.435 4.302-3.371 2.606-10.45 7.289-13.869 9.396-7.316 4.508-8.667-7.073-13.706-14.693zm30.129-56.146c-1.242 3.907-4.668 6.098-9.914 4.187-5.247-1.903-6.584-8.629-6.492-10.96.069-1.728.214-5.415 3.154-8.485 2.682-2.802 6.055-3.044 9.816-.668 4.814 3.041 4.681 12.014 3.436 15.926zm13.223 30.249c.705 3.547-2.929 2.539-2.929 2.539-26.882-6.462-41.412-24.129-42.919-25.845-2.983-3.394.225-3.461.225-3.461 19.269.188 30.935 9.669 34.633 13.218.631.56 1.226.711 1.139-1.112-1.541-32.31 16.019-37.279 18.669-37.945 2.707-.697 2.707.46 1.574 2.537-13.665 25.118-11.133 46.343-10.392 50.069zm-26.986 9.658c2.006 4.741 4.035 9.18 3.228 9.964-.804.792-3.84-1.225-6.166-3.856-2.319-2.624-7.594-9.725-15.101-14.102-7.5-4.384-13.045 1.836-15.632 6.042-2.594 4.209-4.255 12.786-4.383 14.018-.177 1.758-.896 3.858-1.702 3.858-.91 0-1.734-1.091-1.71-2.822.402-13.892 4.779-23.861 8.958-30.389 4.19-6.546 12.508-8.142 19.651-3.061 7.152 5.08 10.886 15.688 12.857 20.348zm61.242-35.109c-4.371 1.774-7.556-1.946-7.902-4.58-.542-4.114.259-8.62 6.176-11.257 5.866-2.613 8.573 1.967 8.546 6.38-.027 4.414-2.453 7.687-6.82 9.457" fill="url(#a)"/><path d="m271.687 652.55c-4.176 6.517-7.594 9.148-7.962 10.683-.405 1.691 3.7 2.695 7.387 4.429 2.31 1.091 4.148 2.537 4.443 3.45.289.912-3.128-.469-4.756-.805-1.992-.412-4.995-1.124-8.084-1.517-4.786-.609-5.831-.602-5.84-2.244-.014-3.175 4.928-4.453 16.9-19.536.826-1.041 1.828-.577-2.088 5.54zm7.813 20.805c-1.179-3.61-3.603-5.622-5.64-7.094-2.88-1.766-4.067-2.147-5.758-2.662-1.442-.438-2.025-1.154.772-4.055 5.385-5.581 10.323-14.963 12.273-18.827 1.168-2.315 1.249-.678 1.445.572 1.317 8.589-6.188 16.102-7.695 17.396-.675.582-.91 1.362-.186 2.002 2.556 2.13 6.608 8.608 6.718 11.894.099 2.975-.601 4.846-1.929.774zm-.546-14.833c.318-2.77 1.42-3.691 3.465-4.429 2.043-.742 2.985 1.109 2.517 5.167-.474 4.049-2.204 3.865-3.779 3.32-1.571-.558-2.472-1.682-2.203-4.058zm-21.465 49.857c.581-2.35 1.48-7.835 1.362-14.196-.116-6.363-2.07-11.621-2.838-13.294-.676-1.476-.563-2.943 3.068-4.2 3.681-1.279 5.944-2.111 13.06-1.818 7.629.316 6.932 10.222 5.226 14.539-1.702 4.316-6.249 6.019-4.422 3.295 1.812-2.726 2.507-6.047-.116-9.805-2.608-3.75-7.611-2.695-9.318-2.347-1.711.336-2.939.831-2.618 1.474.758 1.514 2.661 4.472 4.145 9.58 1.478 5.117-.052 10.977-4.257 18.135-4.201 7.16-3.906 1.113-3.292-1.363zm-23.513 11.53c1.874-3.41 4.77-3.235 6.643-2.891 1.87.339 1.87 3.233 1.37 5.625-.521 2.38-2.905 6.303-7.333 6.641-4.435.341-1.917-7.13-.68-9.375zm32.083-32.74c.14-.87.492-3.079 2.154-3.774 2.149-.9 3.614 1.225 4.101 2.723.542 1.67.42 4.088-.744 6.579-1.032 2.204-3.357 2.114-4.544-.273-1.186-2.396-1.248-3.513-.967-5.255zm-22.43 36.944c3.897-7.294-.373-15.9-1.686-18.272-.392-.673-1.178-.784-1.571-.055-1.307 2.426-5.053 10.856-11.743 18.901-7.832 9.425-18.512 9.99-24.997 9.99-6.468 0 7.055-5.111 16.819-12.723 9.77-7.612 17.863-22.769 19.427-25.33 2.16-3.523 3.049-1.782 5.112.567 2.23 2.537 6.661 10.326 6.891 16.117.212 5.791-4.098 11.059-5.446 12.238-1.285 1.124-6.88 6.194-2.806-1.433zm-63.691-8.851c-.481.205-5.177 1.477-16.842 3.626-12.697 2.342-18.698-1.217-23.767-3.66-1.519-.741-1.383-2.069-1.335-2.41.098-.625 1.209-.562 2.657-.653 1.449-.095 25.654-.554 30.976-.621 5.325-.062 5.681.671 7.251 1.909 1.311 1.032 1.49 1.628 1.06 1.809zm85.191-42.15c-2.712.515-9.599 2.542-10.704 3.116-1.091.569-2.691 1.138-1.029 4.575 2.492 5.157 3.835 11.93 3.593 17.348-.213 4.773-2.071 3.182-2.267 1.156-.118-1.237-.396-3.19-3.203-9.364-2.09-4.598-4.964-7.233-6.592-8.636-1.743-1.504-3.658-3.759 2.575-6.23 6.195-2.455 13.815-3.183 16.785-3.087 2.842.093 3.541.611.842 1.122zm-77.85 53.152c-.769 3.752-7.118 5.712-9.041 6.04-7.207 1.237-9.181-2.724-9.433-5.681-.244-2.956 4.812-6.593 10.617-7.332 5.805-.736 8.637 3.209 7.857 6.973zm64.433-25.531c.801 2.949.234 3.467-.224 2.752-3.324-5.529-6.38-9.698-8.871-11.864-2.512-2.153-3.475-.395-4.157 1.103-5.779 12.7-15.225 22.038-16.868 23.775-1.708 1.822-6.138 5.801-2.617 0 3.521-5.788 10.792-18.339 14.712-30.611.657-2.048 1.707-2.701 2.937-2.739 7.009.018 13.479 11.66 15.088 17.584zm-27.172-4.096c-4.709 11.475-9.94 21.005-15.726 27.993-1.896 2.291-3.236 1.804-2.434.029 1.381-3.06 3.292-8.154 4.754-13.204 1.26-4.354.458-5.499-2.177-5.252-3.881.365-12.456.873-15.944.871-3.59-.001-4.051-1.219-.903-1.925 6.364-1.428 14.614-3.601 29.903-13.116 4.231-2.636 4.081.837 2.527 4.604zm-27.44 13.929c3.756.429 5.872.602 8.536.774 2.405.087.693 4.822-2.056 12.134-3.73 9.921-8.083 11.772-15.124 10.945-2.183-.256-3.021-1.024-1.351-2.346 2.255-1.783 7.886-6.558 10.024-12.227.623-1.653.414-1.98-1.316-2.634-4.028-1.514-12.14-2.28-15.889-5.15-1.566-1.201-.536-2 .237-2.249 1.378-.47 2.55-.783 3.07-.895.902-.192 1.819-.307 3.494.035 1.868.383 4.589.954 10.375 1.613" fill="url(#b)"/><path d="m208.41 671.776c-47.698 23.371-85.378 17.25-88.081 17.012-2.24-.197-.897-2.255.026-2.296 7.085-.308 33.309 3.41 79.469-16.942 52.59-23.186 67.528-47.131 72.316-55.224 1.767-2.986 3.697-1.492 2.622.679-2.235 4.519-13.908 31.073-66.352 56.771zm62.022-33.349c.083-2.055.373-4.085.863-6.092.154-.539.958-2.088 1.58-2.044.307.028.542.485.692.986.166.502.275 1.014.263 1.322-.083 2.055-.367 4.087-.864 6.098-.142.539-.954 2.078-1.569 2.028-.608-.08-.965-1.751-.965-2.298zm-17.514 18.186c.813-2.909 1.919-5.719 3.292-8.441.398-.724 2.084-2.668 2.953-2.398.436.149.604.876.677 1.65.055.779.037 1.554-.099 1.977-.804 2.918-1.901 5.738-3.281 8.451-.399.72-2.083 2.67-2.943 2.394-.84-.324-.79-2.848-.599-3.633zm23.42-26.141c.058-1.622.286-3.236.679-4.835.117-.422.767-1.653 1.253-1.619.245.029.432.382.555.778.129.4.208.81.201 1.056-.065 1.626-.3 3.238-.685 4.831-.125.436-.77 1.656-1.255 1.619-.477-.067-.762-1.389-.748-1.83zm-19.614-14.313c.175.671.261 1.345.223 1.737-.339 2.642-.944 5.222-1.829 7.743-.264.673-1.541 2.561-2.381 2.416-.827-.198-1.146-2.401-1.093-3.112.338-2.635.946-5.215 1.826-7.749.261-.657 1.543-2.545 2.396-2.404.428.08.696.7.858 1.369zm8.872-7.87c.029-1.605.237-3.182.599-4.752.117-.413.766-1.622 1.272-1.587.266.032.471.384.611.778.135.388.237.797.237 1.031-.036 1.604-.237 3.187-.602 4.754-.115.42-.758 1.621-1.278 1.575-.503-.063-.83-1.367-.839-1.799zm-4.929 10.046c-.635-.086-1.051-1.731-1.055-2.275.037-2.019.283-4.016.745-5.995.145-.512.958-2.031 1.604-1.988.331.038.582.484.762.978.182.494.308.997.295 1.296-.034 2.022-.292 4.019-.754 5.992-.137.526-.952 2.041-1.597 1.992zm1.973 29.195c.378-2.689 1.022-5.31 1.923-7.891.264-.681 1.537-2.611 2.34-2.477.401.084.641.706.783 1.392.153.672.223 1.368.168 1.766-.378 2.683-1.023 5.318-1.926 7.892-.269.683-1.536 2.606-2.325 2.471-.787-.197-1.039-2.429-.963-3.153zm-88.649 50.441c1.896-3.257 4.109-6.309 6.62-9.155.697-.738 3.348-2.558 4.298-1.96.482.312.469 1.237.304 2.192-.168.965-.44 1.889-.723 2.374-1.897 3.262-4.102 6.313-6.615 9.156-.705.743-3.349 2.565-4.301 1.966-.916-.659-.057-3.675.417-4.573zm-9.975 1.145c1.663-2.85 3.591-5.509 5.781-7.994.623-.653 2.934-2.24 3.765-1.717.419.266.409 1.085.262 1.915-.142.834-.378 1.648-.625 2.072-1.663 2.854-3.593 5.518-5.782 8.005-.626.648-2.926 2.239-3.768 1.714-.789-.569-.047-3.205.367-3.995zm21.066-4.144c2.142-3.682 4.627-7.137 7.48-10.349.786-.834 3.785-2.897 4.864-2.22.539.351.52 1.41.333 2.483-.184 1.088-.496 2.131-.811 2.677-2.143 3.691-4.635 7.14-7.476 10.354-.804.83-3.783 2.896-4.866 2.218-1.031-.742-.059-4.152.476-5.163zm57.538-29.612c.954-3.151 2.242-6.185 3.808-9.103.454-.773 2.346-2.843 3.28-2.53.464.172.639.973.688 1.819.047.846 0 1.685-.138 2.155-.966 3.154-2.246 6.183-3.818 9.104-.459.774-2.341 2.848-3.277 2.529-.897-.376-.781-3.118-.543-3.974zm-43.356 24.756c2.433-4.2 5.276-8.127 8.528-11.799.897-.951 4.304-3.29 5.53-2.524.627.401.605 1.596.393 2.826-.222 1.24-.571 2.432-.929 3.057-2.446 4.196-5.291 8.134-8.525 11.791-.918.956-4.309 3.305-5.537 2.536-1.181-.851-.07-4.733.54-5.887zm29.674-16.046c1.673-3.767 3.71-7.342 6.115-10.73.669-.887 3.334-3.178 4.441-2.642.561.281.651 1.29.588 2.355-.068 1.064-.254 2.099-.508 2.661-1.675 3.763-3.709 7.344-6.109 10.734-.676.884-3.334 3.175-4.444 2.636-1.069-.616-.492-3.985-.083-5.014zm-13.569 9.175c1.785-3.996 3.97-7.807 6.53-11.411.721-.955 3.565-3.394 4.748-2.818.591.306.692 1.382.616 2.515-.073 1.129-.28 2.229-.54 2.826-1.794 4.01-3.968 7.823-6.537 11.435-.724.947-3.546 3.379-4.729 2.807-1.144-.645-.531-4.244-.088-5.354zm-60.442 11.671c-.097.572-.256 1.13-.426 1.411-1.13 1.952-2.449 3.767-3.948 5.459-.417.448-1.987 1.537-2.568 1.179-.537-.393-.028-2.198.255-2.725 1.128-1.945 2.449-3.765 3.947-5.461.422-.441 1.994-1.523 2.568-1.166.276.189.272.736.172 1.303zm-22.758-22.162c-.079.522-.226 1.014-.374 1.274-1.044 1.737-2.267 3.354-3.659 4.87-.408.397-1.881 1.36-2.429 1.03-.538-.353-.103-1.966.17-2.436 1.036-1.737 2.259-3.363 3.658-4.881.389-.385 1.874-1.355 2.434-1.029.277.17.283.669.2 1.172zm7.594-.777c-.095.55-.245 1.101-.415 1.378-1.141 1.911-2.48 3.685-4.01 5.343-.429.431-2.057 1.484-2.667 1.129-.572-.395-.087-2.162.204-2.681 1.128-1.901 2.465-3.673 3.999-5.336.427-.43 2.056-1.484 2.666-1.132.3.192.309.727.223 1.299zm-14.594 1.448c-.151.504-.358.971-.539 1.211-1.256 1.592-2.679 3.046-4.249 4.372-.452.33-2.04 1.102-2.544.711-.488-.419.152-1.965.48-2.404 1.252-1.58 2.674-3.044 4.253-4.372.439-.332 2.033-1.097 2.55-.71.247.204.194.695.049 1.192zm123.54-48.612c.074.774.074 1.53-.053 1.955-.769 2.855-1.859 5.629-3.236 8.282-.41.701-2.121 2.606-3.035 2.329-.892-.327-.892-2.804-.721-3.583.782-2.846 1.875-5.61 3.254-8.277.393-.7 2.124-2.597 3.033-2.326.464.148.667.862.758 1.62zm-108.115 71.485c-.142.51-.356.975-.535 1.217-1.252 1.592-2.675 3.045-4.25 4.37-.45.337-2.039 1.105-2.546.709-.489-.418.157-1.964.485-2.398 1.255-1.586 2.669-3.046 4.254-4.368.439-.34 2.028-1.107 2.545-.718.254.207.197.703.047 1.188zm23.227-2.155c-.123.679-.318 1.345-.519 1.689-1.362 2.351-2.947 4.544-4.752 6.595-.502.526-2.399 1.837-3.089 1.406-.657-.475-.047-2.647.3-3.289 1.354-2.332 2.942-4.525 4.751-6.577.508-.531 2.406-1.838 3.094-1.404.344.223.338.887.215 1.58zm-16.142 1.639c-.092.522-.233 1.03-.386 1.292-1.032 1.779-2.241 3.437-3.607 4.992-.386.4-1.823 1.394-2.342 1.061-.496-.351-.039-2.009.232-2.488 1.027-1.773 2.228-3.436 3.595-4.987.382-.396 1.831-1.388 2.347-1.071.257.175.252.681.161 1.201zm1.387-25.803c-.106.68-.286 1.32-.494 1.665-1.371 2.294-2.991 4.439-4.828 6.436-.519.52-2.475 1.787-3.211 1.365-.697-.471-.111-2.602.235-3.235 1.371-2.281 2.98-4.422 4.83-6.422.518-.521 2.471-1.794 3.204-1.359.374.216.377.871.264 1.55zm65.832-25.379c-.059 1.081-.233 2.131-.494 2.7-1.73 3.826-3.863 7.439-6.381 10.867-.727.902-3.548 3.205-4.774 2.647-1.175-.626-.631-4.058-.211-5.106 1.737-3.813 3.861-7.432 6.393-10.867.706-.9 3.547-3.201 4.762-2.649.617.298.744 1.326.705 2.408zm-55.391 21.911c-.134.831-.366 1.62-.612 2.033-1.666 2.794-3.629 5.403-5.873 7.827-.636.63-3.007 2.178-3.905 1.654-.846-.578-.133-3.156.282-3.929 1.671-2.78 3.63-5.388 5.875-7.817.628-.633 3.01-2.177 3.91-1.656.443.268.446 1.068.323 1.888zm79.493-35.344c.068.836.041 1.669-.101 2.129-.936 3.087-2.202 6.064-3.784 8.918-.459.761-2.376 2.784-3.366 2.455-.956-.377-.897-3.065-.675-3.909.945-3.088 2.197-6.062 3.779-8.927.452-.746 2.38-2.773 3.37-2.453.496.178.704.957.777 1.787zm-10.89 6.785c-.045 1.014-.206 1.985-.45 2.518-1.599 3.556-3.576 6.92-5.913 10.11-.668.836-3.292 2.981-4.424 2.472-1.089-.592-.597-3.779-.205-4.757 1.593-3.546 3.582-6.915 5.92-10.101.662-.841 3.29-2.984 4.42-2.473.573.278.687 1.231.652 2.231zm-56.73 25.652c-.151.949-.412 1.856-.699 2.328-1.907 3.192-4.149 6.173-6.712 8.953-.726.722-3.448 2.495-4.469 1.898-.976-.657-.151-3.617.327-4.491 1.905-3.188 4.151-6.173 6.718-8.947.713-.726 3.449-2.49 4.467-1.905.518.317.524 1.235.368 2.164zm29.36-11.85c-.196 1.268-.554 2.481-.928 3.106-2.549 4.264-5.549 8.247-8.979 11.962-.964.97-4.594 3.328-5.957 2.527-1.307-.873-.21-4.82.432-5.988 2.544-4.267 5.542-8.251 8.983-11.96.95-.961 4.6-3.322 5.956-2.531.688.416.693 1.635.493 2.884zm-16.258 7.054c-.175 1.076-.471 2.106-.789 2.639-2.169 3.621-4.711 7.01-7.626 10.163-.826.819-3.911 2.829-5.074 2.148-1.103-.736-.169-4.098.373-5.09 2.162-3.62 4.712-7.01 7.624-10.167.807-.808 3.919-2.819 5.073-2.147.579.351.585 1.39.419 2.454" fill="url(#c)"/><path d="m0 0c.304-.957.248-3.409 0-4.317-1.009-3.636-6.827-7.614-16.244-7.614-10.629 0-15.484 4.081-15.964 8.194-.068.601-.068 2.562 0 3.158.48 4.112 5.335 8.201 15.964 8.201 9.417 0 15.102-4.022 16.244-7.622zm-38.862.386c-.155-1.295-.234-3.38 0-5.085.91-6.671 6.929-16.417 21.95-16.417 13.304 0 22.509 6.346 23.569 16.174.091.799.137 1.676.144 2.546v.487c-.007.862-.053 1.739-.144 2.541-1.06 9.812-10.265 16.174-23.569 16.174-15.021 0-21.14-9.728-21.95-16.42" fill="#ee2d2f" transform="translate(380.522 649.283)"/><path d="m0 0 .011-20.765c.036-.025 0 0 0 0-8.043 4.561-10.785 20.583-23.764 20.583-10.538 0-14.097-7.318-14.214-15.537 0-.15-.007-.302-.007-.459 0-2.848.971-11.479 10.249-13.578l3.387 7.757c-.196-.019-.389-.059-.593-.059-3.59 0-6.503 2.912-6.503 6.502 0 3.589 2.913 6.501 6.503 6.501 2.989.001 6.062-2.06 9.194-6.109 5.38-6.469 11.914-16.523 21.659-16.523h1.445v35.513z" fill="#ee2d2f" transform="translate(378.804 624.149)"/><path d="m0 0h7c0 .073-1.44 6.498-1.44 6.498l37.165.007-2.106 8.577h-43.947c.996-5.06 3.035-13.834 3.328-15.082" fill="#ee2d2f" transform="translate(344.595 668.577)"/><path d="m0 0h7c0 .07-1.44 6.498-1.44 6.498l37.165.003-2.106 8.578h-43.947c.996-5.062 3.035-13.833 3.328-15.079" fill="#ee2d2f" transform="translate(344.595 689.452)"/></g></svg>