<?xml version="1.0" encoding="UTF-8" standalone="no"?>
<!-- Created with Inkscape (http://www.inkscape.org/) -->
<svg
   xmlns:dc="http://purl.org/dc/elements/1.1/"
   xmlns:cc="http://creativecommons.org/ns#"
   xmlns:rdf="http://www.w3.org/1999/02/22-rdf-syntax-ns#"
   xmlns:svg="http://www.w3.org/2000/svg"
   xmlns="http://www.w3.org/2000/svg"
   xmlns:sodipodi="http://sodipodi.sourceforge.net/DTD/sodipodi-0.dtd"
   xmlns:inkscape="http://www.inkscape.org/namespaces/inkscape"
   width="440"
   height="146.31"
   id="svg2"
   sodipodi:version="0.32"
   inkscape:version="0.46"
   version="1.0"
   sodipodi:docname="ANZ-brand.svg"
   inkscape:output_extension="org.inkscape.output.svg.inkscape">
  <defs
     id="defs4">
    <inkscape:perspective
       sodipodi:type="inkscape:persp3d"
       inkscape:vp_x="0 : 526.18109 : 1"
       inkscape:vp_y="0 : 1000 : 0"
       inkscape:vp_z="744.09448 : 526.18109 : 1"
       inkscape:persp3d-origin="372.04724 : 350.78739 : 1"
       id="perspective10" />
    <clipPath
       id="clipPath2420"
       clipPathUnits="userSpaceOnUse">
      <path
         id="path2422"
         d="M 4108.11,2.08594 L 4108.11,7014.58 L 841.895,7014.58 L 841.895,2.08594 L 4108.11,2.08594 z" />
    </clipPath>
    <inkscape:perspective
       id="perspective2410"
       inkscape:persp3d-origin="372.04724 : 350.78739 : 1"
       inkscape:vp_z="744.09448 : 526.18109 : 1"
       inkscape:vp_y="0 : 1000 : 0"
       inkscape:vp_x="0 : 526.18109 : 1"
       sodipodi:type="inkscape:persp3d" />
  </defs>
  <sodipodi:namedview
     id="base"
     pagecolor="#ffffff"
     bordercolor="#666666"
     borderopacity="1.0"
     gridtolerance="10000"
     guidetolerance="10"
     objecttolerance="10"
     inkscape:pageopacity="0.0"
     inkscape:pageshadow="2"
     inkscape:zoom="1.69"
     inkscape:cx="222.5"
     inkscape:cy="53.726415"
     inkscape:document-units="px"
     inkscape:current-layer="layer1"
     showgrid="false"
     inkscape:window-width="1680"
     inkscape:window-height="970"
     inkscape:window-x="-6"
     inkscape:window-y="-6" />
  <metadata
     id="metadata7">
    <rdf:RDF>
      <cc:Work
         rdf:about="">
        <dc:format>image/svg+xml</dc:format>
        <dc:type
           rdf:resource="http://purl.org/dc/dcmitype/StillImage" />
      </cc:Work>
    </rdf:RDF>
  </metadata>
  <g
     inkscape:label="Layer 1"
     inkscape:groupmode="layer"
     id="layer1"
     transform="translate(-154.41747,-426.18699)">
    <g
       id="g2458"
       transform="matrix(0,0.4391693,-0.4391693,0,602.83795,351.98447)"
       style="fill:#007dba;fill-opacity:1">
      <path
         d="M 275.86005,218.3392 C 275.86005,204.8152 287.60055,189.4207 303.81555,189.4207 C 312.95355,189.4207 320.00955,192.3337 326.45505,196.6192 C 330.56355,199.3657 335.29305,201.4597 338.71605,202.3237 C 342.58155,203.2537 351.94005,205.2922 352.09605,193.8502 C 352.28355,186.4072 345.80505,168.0877 327.96105,153.2902 C 313.62855,141.9052 295.45305,135.1372 275.62755,135.1372 C 229.29705,135.1372 191.72655,172.3417 191.72655,218.3392 C 191.72655,264.3487 229.29705,301.6207 275.62755,301.6207 C 295.45305,301.6207 313.62855,294.8632 327.96105,283.4662 C 345.80505,268.6462 352.28355,250.3387 352.09605,242.9062 C 351.94005,231.4642 342.58155,233.5357 338.71605,234.4222 C 335.29305,235.2637 330.56355,237.3682 326.45505,240.1372 C 320.00955,244.4122 312.95355,247.3357 303.81555,247.3357 C 287.60055,247.3027 275.86005,231.9292 275.86005,218.3392 M 360.65805,71.1622 C 357.83355,74.5732 353.71305,80.5552 351.81855,92.8372 C 349.27155,109.8832 353.26905,125.0917 356.90205,134.2507 C 361.66605,146.2897 372.49755,161.1217 386.60805,171.3667 C 401.51655,182.1772 424.02405,187.7707 447.48255,182.4082 C 454.08405,180.8917 457.80555,179.2522 462.43455,176.8042 C 468.72555,173.6032 477.50955,165.1642 479.09355,157.7752 C 480.30105,151.9387 476.94405,147.3757 474.40755,145.1377 C 457.16355,130.2532 390.38505,73.8427 381.85755,67.7287 C 373.38405,61.7242 365.24205,65.6467 360.65805,71.1622 M 356.90205,302.4622 C 353.26905,311.6212 349.27155,326.8177 351.81855,343.8637 C 353.71305,356.1472 357.83355,362.1832 360.65805,365.5507 C 365.24205,371.0662 373.38405,375.0202 381.85755,368.9842 C 390.38505,362.9032 457.16355,306.5047 474.40755,291.6187 C 476.94405,289.3807 480.30105,284.8177 479.09355,278.9692 C 477.50955,271.5367 468.72555,263.1307 462.43455,259.9417 C 457.80555,257.4592 454.08405,255.8542 447.48255,254.2927 C 424.02405,248.9422 401.51655,254.6242 386.60805,265.3342 C 372.49755,275.5912 361.66605,290.4442 356.90205,302.4622"
         style="fill:#007dba;fill-opacity:1;fill-rule:nonzero;stroke:none"
         id="path2426" />
      <path
         d="M 417.97755,401.7127 L 417.97755,471.2377 L 380.40855,442.7062 L 380.40855,519.9502 L 416.58255,547.4737 C 430.95855,557.7637 445.46805,558.7597 455.53755,558.7597 L 461.23005,558.7597 C 467.80905,558.7597 471.38655,554.6842 471.38655,548.6362 L 471.38655,401.7127 C 471.38655,395.7877 468.11805,391.7887 461.42955,391.7887 L 427.96905,391.7887 C 421.23405,391.7887 417.97755,395.7877 417.97755,401.7127 M 285.25455,797.4922 C 278.96355,798.5992 275.86155,802.8637 275.86155,808.4122 L 275.86155,828.0607 C 275.86155,848.5072 286.70505,866.5507 303.08655,876.6622 C 303.08655,876.6622 333.07005,895.4137 366.81705,916.4257 L 366.81705,783.0262 L 285.25455,797.4922 z M 285.82005,577.7662 C 279.12855,577.7662 275.86155,581.7532 275.86155,587.7232 L 275.86155,627.7192 C 275.86155,633.6442 279.12855,637.6432 285.82005,637.6432 L 361.62405,637.6432 L 293.47305,675.5557 C 280.91355,683.1322 276.13905,695.8912 275.86155,710.7772 L 275.86155,740.3392 C 275.86155,746.2102 279.12855,750.2197 285.82005,750.2197 L 366.86205,750.2197 L 366.86205,700.5322 L 380.40855,692.8897 L 380.40855,750.2197 L 461.42955,750.2197 C 468.11805,750.2197 471.44205,746.2102 471.44205,740.3392 L 471.44205,700.2442 C 471.44205,694.2862 468.11805,690.3427 461.42955,690.3427 L 385.14855,690.3652 L 453.85305,652.0972 C 466.34655,644.5987 471.12105,631.7947 471.44205,617.0092 L 471.44205,587.7232 C 471.44205,581.7532 468.11805,577.7662 461.42955,577.7662 L 380.40855,577.7662 L 380.40855,627.0982 L 366.86205,634.7197 L 366.86205,577.7662 L 285.82005,577.7662 z M 380.40855,780.6562 L 380.40855,846.5362 C 389.62305,844.8532 458.14005,832.7017 462.12705,831.9817 C 468.29655,830.8627 471.44205,827.0197 471.44205,821.3827 L 471.44205,776.0587 C 471.44205,771.9067 470.13555,769.8127 467.76555,767.8627 C 466.11405,766.5337 463.61055,765.9802 459.94455,766.6012 L 380.40855,780.6562 z M 459.18105,974.0758 C 462.24855,975.86995 465.47205,975.86995 467.56455,974.77375 C 470.01255,973.51105 471.44205,970.69795 471.44205,967.6627 L 471.44205,920.5897 C 471.44205,914.6542 468.24105,909.3472 463.45605,906.3907 L 380.40855,854.4442 L 380.40855,924.90985 C 419.18505,949.09975 458.28405,973.4671 459.18105,974.0758 M 329.20455,547.3177 L 329.20455,481.0837 L 366.81705,509.6482 L 366.81705,432.4267 L 329.76855,404.2612 C 318.31605,395.5657 308.06055,393.5512 298.98855,393.5512 L 286.08555,393.5512 C 279.47205,393.5512 275.86155,397.5487 275.86155,403.6402 L 275.86155,547.3177 C 275.86155,553.2442 279.12855,557.2087 285.82005,557.2087 L 319.28055,557.2087 C 325.94805,557.2087 329.20455,553.2442 329.20455,547.3177"
         style="fill:#007dba;fill-opacity:1;fill-rule:nonzero;stroke:none"
         id="path2428" />
    </g>
  </g>
</svg>
