<?xml version="1.0" encoding="utf-8"?>
<!-- Generator: Adobe Illustrator 14.0.0, SVG Export Plug-In . SVG Version: 6.00 Build 43363)  -->
<!DOCTYPE svg PUBLIC "-//W3C//DTD SVG 1.1//EN" "http://www.w3.org/Graphics/SVG/1.1/DTD/svg11.dtd">
<svg version="1.1" id="Layer_1" xmlns="http://www.w3.org/2000/svg" xmlns:xlink="http://www.w3.org/1999/xlink" x="0px" y="0px"
	 width="250px" height="88px" viewBox="0 0 250 88" enable-background="new 0 0 250 88" xml:space="preserve">
<g>
	<path fill="#000066" d="M29.219,60.303c-4.446,0-6.583-3.418-5.467-7.372c2.304-8.195,17.109-20.339,27.198-20.339
		c7.357,0,6.797,6.583,2.484,12.198l-2.384,2.639C42.499,55.82,34.572,60.303,29.219,60.303 M65.279,5.041
		c-12.876,0.005-27.055,7.882-35.96,15.342l0.703,1.019c13.822-9.689,33.001-15.989,38.288-6.539
		c2.792,4.985-1.947,15.053-8.621,23.01c1.596-3.514,0.542-10.261-8.764-10.261C35.455,27.612,5,48.105,5,69.078
		c0,8.401,5.828,13.882,15.428,13.882c25.696,0,60.544-42.12,60.544-63.275C80.972,12.212,76.673,5.041,65.279,5.041"/>
	<path fill="#000066" d="M98.361,60.303c-1.496,0-2.741-0.522-3.52-1.475c-0.812-0.999-1.054-2.415-0.669-3.877
		c0.855-3.172,4.274-5.664,7.79-5.664h8.27l-2.955,11.016H98.361z M122.129,27.279c-2.365-2.908-6.194-4.209-8.934-4.209H98.167
		l-2.551,9.514h14.173l1.358,0.143c0.014,0,1.301,0.15,2.019,1.116c0.58,0.808,0.665,2.008,0.248,3.582l-0.67,2.504h-8.93
		c-7.686,0-18.401,5.514-20.79,14.42c-1.188,4.441-0.147,8.288,2.161,11.115c2.29,2.806,6.612,4.355,11.281,4.355h8.27h-0.005
		h10.511l4.93-18.411l3.629-13.533C125.226,32.554,123.682,29.174,122.129,27.279"/>
	<path fill="#000066" d="M225.361,23.07c-4.066,0-7.844,1.203-10.916,3.48c-3.102,2.297-4.813,5.057-5.833,8.864
		c-2.213,8.251,4.271,12.233,9.481,15.056c3.737,2.024,6.969,3.77,6.269,6.356c-0.494,1.856-1.305,3.48-5.902,3.48h-14.033
		l-2.546,9.513h15.533c4.165,0,8.009-0.867,11.106-3.245c3.1-2.386,4.852-5.71,5.935-9.767c1.04-3.861,0.339-7.549-2.146-10.301
		c-2.071-2.311-5.05-3.916-7.675-5.334c-3.364-1.81-6.536-3.518-5.982-5.588c0.339-1.253,1.582-3,4.299-3h13.651l2.552-9.514
		H225.361z"/>
	<path fill="#000066" d="M143.921,23.07c-4.065,0-7.842,1.203-10.915,3.48c-3.102,2.297-4.813,5.057-5.843,8.864
		c-2.208,8.251,4.281,12.233,9.49,15.056c3.739,2.024,6.963,3.77,6.27,6.356c-0.499,1.856-1.306,3.48-5.903,3.48h-14.031
		l-2.551,9.513h15.532c4.17,0,8.013-0.867,11.11-3.245c3.105-2.386,4.853-5.71,5.936-9.767c1.036-3.861,0.334-7.549-2.141-10.301
		c-2.071-2.311-5.055-3.916-7.685-5.334c-3.359-1.81-6.527-3.518-5.972-5.588c0.333-1.253,1.581-3,4.293-3h13.643l2.556-9.514
		H143.921z"/>
	<polygon fill="#000066" points="165.115,23.07 152.932,69.819 163.225,69.819 175.398,23.07 	"/>
	<path fill="#000066" d="M202.781,23.07c-18.121,0.065-27.604,12.133-30.614,23.375c-3.566,13.33,3.53,23.375,16.507,23.375h8.696
		l2.546-9.513h-8.693c-4.857,0-11.536-3.822-8.844-13.862c2.138-7.98,9.919-13.86,18.454-13.86h5.522l2.551-9.514H202.781z"/>
	<path fill="#000066" d="M238.427,67.687h0.902v-2.024h0.717c0.479,0,0.818,0.052,1.004,0.16c0.321,0.195,0.489,0.589,0.489,1.18
		v0.41l0.013,0.165c0.01,0.021,0.01,0.037,0.015,0.06c0.005,0.015,0.01,0.029,0.015,0.05h0.846l-0.03-0.067
		c-0.017-0.042-0.031-0.133-0.042-0.267c-0.01-0.136-0.02-0.26-0.015-0.378v-0.381c-0.005-0.257-0.089-0.524-0.279-0.794
		c-0.186-0.271-0.484-0.439-0.887-0.504c0.316-0.052,0.568-0.131,0.743-0.252c0.339-0.213,0.505-0.552,0.5-1.009
		c0.005-0.643-0.263-1.077-0.789-1.3c-0.299-0.121-0.764-0.183-1.406-0.183h-1.795V67.687z M241.005,64.915
		c-0.189,0.074-0.475,0.116-0.859,0.116h-0.816V63.17h0.774c0.499,0,0.864,0.064,1.087,0.19c0.232,0.131,0.349,0.381,0.349,0.754
		C241.539,64.508,241.356,64.777,241.005,64.915 M243.628,61.833c-0.917-0.909-2.024-1.36-3.319-1.36
		c-1.283,0-2.386,0.451-3.298,1.36c-0.912,0.912-1.362,2.015-1.362,3.298c0,1.3,0.45,2.407,1.353,3.319
		c0.912,0.912,2.015,1.372,3.313,1.372c1.295,0,2.397-0.46,3.31-1.372c0.917-0.92,1.377-2.022,1.377-3.319
		C245,63.84,244.54,62.737,243.628,61.833 M243.158,62.285c0.788,0.789,1.177,1.733,1.177,2.846c0,1.119-0.389,2.076-1.177,2.867
		c-0.778,0.791-1.726,1.184-2.845,1.184c-1.117,0-2.066-0.393-2.855-1.184c-0.769-0.791-1.159-1.748-1.159-2.867
		c0-1.112,0.391-2.057,1.169-2.846c0.789-0.791,1.738-1.184,2.841-1.184C241.423,61.102,242.38,61.494,243.158,62.285"/>
</g>
</svg>
