<?xml version="1.0" encoding="UTF-8" standalone="no"?>
<!-- Created with Inkscape (http://www.inkscape.org/) -->

<svg
   xmlns:dc="http://purl.org/dc/elements/1.1/"
   xmlns:cc="http://creativecommons.org/ns#"
   xmlns:rdf="http://www.w3.org/1999/02/22-rdf-syntax-ns#"
   xmlns:svg="http://www.w3.org/2000/svg"
   xmlns="http://www.w3.org/2000/svg"
   xmlns:sodipodi="http://sodipodi.sourceforge.net/DTD/sodipodi-0.dtd"
   xmlns:inkscape="http://www.inkscape.org/namespaces/inkscape"
   width="114.5"
   height="30.5"
   viewBox="0 0 114.5 30.500001"
   id="svg4865"
   version="1.1"
   inkscape:version="0.91 r13725"
   sodipodi:docname="blk.svg">
  <defs
     id="defs4867">
    <clipPath
       id="clipPath3966"
       clipPathUnits="userSpaceOnUse">
      <path
         inkscape:connector-curvature="0"
         id="path3968"
         d="m 17.008,82.29 558.964,0 0,725.967 -558.964,0 0,-725.967 z" />
    </clipPath>
  </defs>
  <sodipodi:namedview
     id="base"
     pagecolor="#ffffff"
     bordercolor="#666666"
     borderopacity="1.0"
     inkscape:pageopacity="0.0"
     inkscape:pageshadow="2"
     inkscape:zoom="7.9039301"
     inkscape:cx="57.25"
     inkscape:cy="15.25"
     inkscape:document-units="px"
     inkscape:current-layer="layer1"
     showgrid="false"
     inkscape:window-width="1280"
     inkscape:window-height="744"
     inkscape:window-x="-4"
     inkscape:window-y="-4"
     inkscape:window-maximized="1"
     units="px" />
  <metadata
     id="metadata4870">
    <rdf:RDF>
      <cc:Work
         rdf:about="">
        <dc:format>image/svg+xml</dc:format>
        <dc:type
           rdf:resource="http://purl.org/dc/dcmitype/StillImage" />
        <dc:title></dc:title>
      </cc:Work>
    </rdf:RDF>
  </metadata>
  <g
     inkscape:label="Layer 1"
     inkscape:groupmode="layer"
     id="layer1"
     transform="translate(0,-1021.8622)">
    <g
       id="g4982"
       transform="translate(35.901652,471.06806)">
      <path
         d="m 73.915657,551.15857 -11.02,0 -12.9075,13.38125 11.21,-0.002 12.7175,-13.37875 z"
         style="fill:#231f20;fill-opacity:1;fill-rule:nonzero;stroke:none"
         id="path3960"
         inkscape:connector-curvature="0" />
      <g
         transform="matrix(1.25,0,0,-1.25,39.29641,574.8547)"
         id="g3970">
        <path
           inkscape:connector-curvature="0"
           id="path3972"
           style="fill:#231f20;fill-opacity:1;fill-rule:nonzero;stroke:none"
           d="m 0,0 0,-0.072 0,-0.536 0,-4.297 0.714,0 c 0.954,0 1.864,0.077 2.74,0.236 0.87,0.16 1.642,0.414 2.309,0.765 0.664,0.349 1.196,0.817 1.597,1.405 0.395,0.587 0.594,1.309 0.594,2.167 l 0,6.353 0,2.42 0,10.516 L 0,18.957 0,0 Z" />
      </g>
      <g
         transform="matrix(1.25,0,0,-1.25,61.19766,566.99195)"
         id="g3974">
        <path
           inkscape:connector-curvature="0"
           id="path3976"
           style="fill:#231f20;fill-opacity:1;fill-rule:nonzero;stroke:none"
           d="m 0,0 -8.968,0 9.969,-8.814 c 2.797,-2.388 5.638,-2.381 6.622,-2.381 l 6.097,0 L 0,0 Z" />
      </g>
      <g
         transform="matrix(1.25,0,0,-1.25,-7.953465,561.85658)"
         id="g3978">
        <path
           inkscape:connector-curvature="0"
           id="path3980"
           style="fill:#231f20;fill-opacity:1;fill-rule:nonzero;stroke:none"
           d="m 0,0 -13.858,0 c -0.236,0 -0.431,0.195 -0.431,0.431 l 0,1.56 c 0,0.238 0.195,0.429 0.431,0.429 L 0,2.42 C 1.119,2.42 2.027,1.88 2.027,1.211 2.027,0.544 1.119,0 0,0 m 0,-9.426 -13.858,0 c -0.236,0 -0.431,0.192 -0.431,0.429 l 0,1.561 c 0,0.238 0.195,0.43 0.431,0.43 l 13.858,0 c 1.119,0 2.027,-0.543 2.027,-1.21 0,-0.669 -0.908,-1.21 -2.027,-1.21 m 3.734,7.527 -0.04,0.001 c 2.981,0.321 5.291,2.529 5.291,5.209 0,2.898 -2.705,5.247 -6.038,5.247 L 2.353,8.551 C 2.216,8.554 2.084,8.558 1.943,8.558 l -24.101,0 0,-23.862 24.054,0 c 0.274,0 0.544,0.007 0.812,0.021 l 0.31,-0.009 c 4.265,0 7.721,3.005 7.721,6.712 0,3.493 -3.075,6.367 -7.005,6.681" />
      </g>
      <g
         transform="matrix(1.25,0,0,-1.25,16.87566,557.3542)"
         id="g3982">
        <path
           inkscape:connector-curvature="0"
           id="path3984"
           style="fill:#231f20;fill-opacity:1;fill-rule:nonzero;stroke:none"
           d="m 0,0 c 0,1.62 -0.654,2.859 -1.956,3.715 -1.303,0.857 -3.065,1.287 -5.288,1.287 l -0.713,0 0.022,-19.385 c 0.061,-0.655 0.243,-1.228 0.551,-1.715 0.379,-0.603 0.905,-1.112 1.569,-1.525 0.669,-0.415 1.447,-0.723 2.335,-0.929 0.89,-0.207 1.841,-0.31 2.858,-0.31 l 9.813,0 c 1.015,0 1.962,0.096 2.835,0.286 0.872,0.193 1.634,0.476 2.284,0.858 0.651,0.381 1.18,0.888 1.594,1.524 0.24,0.369 0.718,1.484 0.718,2.165 l 0,0.765 L 0,-13.264 0,0 Z" />
      </g>
    </g>
  </g>
</svg>
