<svg height="30.5" viewBox="0 0 114.5 30.500001" width="114.5" xmlns="http://www.w3.org/2000/svg"><g fill="#231f20" transform="translate(35.901652 -550.79414)"><path d="m73.915657 551.15857h-11.02l-12.9075 13.38125 11.21-.002 12.7175-13.37875z"/><path d="m0 0v-.072-.536-4.297h.714c.954 0 1.864.077 2.74.236.87.16 1.642.414 2.309.765.664.349 1.196.817 1.597 1.405.395.587.594 1.309.594 2.167v6.353 2.42 10.516h-7.954z" transform="matrix(1.25 0 0 -1.25 39.29641 574.8547)"/><path d="m0 0h-8.968l9.969-8.814c2.797-2.388 5.638-2.381 6.622-2.381h6.097z" transform="matrix(1.25 0 0 -1.25 61.19766 566.99195)"/><path d="m0 0h-13.858c-.236 0-.431.195-.431.431v1.56c0 .238.195.429.431.429h13.858c1.119 0 2.027-.54 2.027-1.209 0-.667-.908-1.211-2.027-1.211m0-9.426h-13.858c-.236 0-.431.192-.431.429v1.561c0 .238.195.43.431.43h13.858c1.119 0 2.027-.543 2.027-1.21 0-.669-.908-1.21-2.027-1.21m3.734 7.527-.04.001c2.981.321 5.291 2.529 5.291 5.209 0 2.898-2.705 5.247-6.038 5.247l-.594-.007c-.137.003-.269.007-.41.007h-24.101v-23.862h24.054c.274 0 .544.007.812.021l.31-.009c4.265 0 7.721 3.005 7.721 6.712 0 3.493-3.075 6.367-7.005 6.681" transform="matrix(1.25 0 0 -1.25 -7.953465 561.85658)"/><path d="m0 0c0 1.62-.654 2.859-1.956 3.715-1.303.857-3.065 1.287-5.288 1.287h-.713l.022-19.385c.061-.655.243-1.228.551-1.715.379-.603.905-1.112 1.569-1.525.669-.415 1.447-.723 2.335-.929.89-.207 1.841-.31 2.858-.31h9.813c1.015 0 1.962.096 2.835.286.872.193 1.634.476 2.284.858.651.381 1.18.888 1.594 1.524.24.369.718 1.484.718 2.165v.765h-16.622z" transform="matrix(1.25 0 0 -1.25 16.87566 557.3542)"/></g></svg>