<?xml version="1.0" encoding="UTF-8" standalone="no"?>
<!-- Created with Inkscape (http://www.inkscape.org/) -->

<svg
   xmlns:dc="http://purl.org/dc/elements/1.1/"
   xmlns:cc="http://creativecommons.org/ns#"
   xmlns:rdf="http://www.w3.org/1999/02/22-rdf-syntax-ns#"
   xmlns:svg="http://www.w3.org/2000/svg"
   xmlns="http://www.w3.org/2000/svg"
   xmlns:sodipodi="http://sodipodi.sourceforge.net/DTD/sodipodi-0.dtd"
   xmlns:inkscape="http://www.inkscape.org/namespaces/inkscape"
   width="70.5"
   height="48.5"
   viewBox="0 0 70.500001 48.500001"
   id="svg361382"
   version="1.1"
   inkscape:version="0.91 r13725"
   sodipodi:docname="canterbury.svg">
  <defs
     id="defs361384">
    <clipPath
       id="clipPath105002"
       clipPathUnits="userSpaceOnUse">
      <path
         inkscape:connector-curvature="0"
         id="path105004"
         d="m 63.868,333.897 56.132,0 0,38.617 -56.132,0 0,-38.617 z" />
    </clipPath>
  </defs>
  <sodipodi:namedview
     id="base"
     pagecolor="#ffffff"
     bordercolor="#666666"
     borderopacity="1.0"
     inkscape:pageopacity="0.0"
     inkscape:pageshadow="2"
     inkscape:zoom="11.195876"
     inkscape:cx="35.25"
     inkscape:cy="24.25"
     inkscape:document-units="px"
     inkscape:current-layer="layer1"
     showgrid="false"
     units="px"
     inkscape:window-width="1280"
     inkscape:window-height="744"
     inkscape:window-x="-4"
     inkscape:window-y="-4"
     inkscape:window-maximized="1" />
  <metadata
     id="metadata361387">
    <rdf:RDF>
      <cc:Work
         rdf:about="">
        <dc:format>image/svg+xml</dc:format>
        <dc:type
           rdf:resource="http://purl.org/dc/dcmitype/StillImage" />
        <dc:title></dc:title>
      </cc:Work>
    </rdf:RDF>
  </metadata>
  <g
     inkscape:label="Layer 1"
     inkscape:groupmode="layer"
     id="layer1"
     transform="translate(0,-1003.8622)">
    <g
       id="g361542"
       style="fill:#221f1f;fill-opacity:1"
       transform="translate(-447.60695,398.60771)">
      <g
         transform="matrix(1.25,0,0,-1.25,454.01626,644.54393)"
         id="g105006"
         style="fill:#221f1f;fill-opacity:1">
        <path
           inkscape:connector-curvature="0"
           id="path105008"
           style="fill:#221f1f;fill-opacity:1;fill-rule:evenodd;stroke:none"
           d="m 0,0 c -0.346,0.193 -0.751,0.289 -1.155,0.289 -1.55,0 -2.763,-1.098 -2.763,-2.686 0,-1.492 1.223,-2.58 2.686,-2.58 0.423,0 0.847,0.087 1.232,0.28 l 0,1.482 c -0.231,-0.212 -0.568,-0.337 -0.876,-0.337 -0.722,0 -1.232,0.501 -1.232,1.213 0,0.683 0.53,1.203 1.203,1.203 0.337,0 0.645,-0.154 0.905,-0.346 L 0,0 Z" />
      </g>
      <g
         transform="matrix(1.25,0,0,-1.25,458.60039,646.0843)"
         id="g105010"
         style="fill:#221f1f;fill-opacity:1">
        <path
           inkscape:connector-curvature="0"
           id="path105012"
           style="fill:#221f1f;fill-opacity:1;fill-rule:evenodd;stroke:none"
           d="m 0,0 c 0.712,0 1.126,-0.51 1.126,-1.117 0,-0.625 -0.414,-1.106 -1.126,-1.106 -0.712,0 -1.126,0.481 -1.126,1.106 C -1.126,-0.51 -0.712,0 0,0 m 2.82,1.357 -1.752,0 0,-0.481 c -0.365,0.433 -0.962,0.645 -1.53,0.645 -1.463,0 -2.474,-1.213 -2.474,-2.628 0,-1.415 1.03,-2.637 2.493,-2.637 0.578,0 1.184,0.221 1.492,0.712 l 0.019,0 0,-0.549 1.752,0 0,4.938 z" />
      </g>
      <g
         transform="matrix(1.25,0,0,-1.25,465.77014,644.38755)"
         id="g105014"
         style="fill:#221f1f;fill-opacity:1">
        <path
           inkscape:connector-curvature="0"
           id="path105016"
           style="fill:#221f1f;fill-opacity:1;fill-rule:evenodd;stroke:none"
           d="m 0,0 -1.752,0 0,-4.938 1.752,0 0,2.56 c 0,0.617 0.202,1.146 0.915,1.146 0.866,0 0.789,-0.828 0.789,-1.3 l 0,-2.406 1.752,0 0,3.051 c 0,1.213 -0.53,2.051 -1.858,2.051 -0.683,0 -1.175,-0.203 -1.579,-0.799 L 0,-0.635 0,0 Z" />
      </g>
      <g
         transform="matrix(1.25,0,0,-1.25,473.92651,646.1923)"
         id="g105018"
         style="fill:#221f1f;fill-opacity:1">
        <path
           inkscape:connector-curvature="0"
           id="path105020"
           style="fill:#221f1f;fill-opacity:1;fill-rule:evenodd;stroke:none"
           d="m 0,0 0.992,0 0,1.444 -0.992,0 0,1.482 -1.752,0 0,-1.482 -0.568,0 0,-1.444 0.568,0 0,-3.494 1.752,0 L 0,0 Z" />
      </g>
      <g
         transform="matrix(1.25,0,0,-1.25,477.63139,646.57755)"
         id="g105022"
         style="fill:#221f1f;fill-opacity:1">
        <path
           inkscape:connector-curvature="0"
           id="path105024"
           style="fill:#221f1f;fill-opacity:1;fill-rule:evenodd;stroke:none"
           d="M 0,0 C 0.106,0.51 0.529,0.78 1.04,0.78 1.511,0.78 1.944,0.472 2.031,0 L 0,0 Z m 3.658,-0.828 c 0,1.685 -0.992,2.744 -2.705,2.744 -1.608,0 -2.734,-0.992 -2.734,-2.638 0,-1.704 1.223,-2.628 2.859,-2.628 1.126,0 2.233,0.53 2.512,1.694 l -1.684,0 C 1.713,-1.983 1.444,-2.108 1.068,-2.108 c -0.721,0 -1.097,0.385 -1.097,1.098 l 3.687,0 0,0.182 z" />
      </g>
      <g
         transform="matrix(1.25,0,0,-1.25,485.39139,644.38755)"
         id="g105026"
         style="fill:#221f1f;fill-opacity:1">
        <path
           inkscape:connector-curvature="0"
           id="path105028"
           style="fill:#221f1f;fill-opacity:1;fill-rule:evenodd;stroke:none"
           d="m 0,0 -1.752,0 0,-4.938 1.752,0 0,1.992 c 0,0.847 0.241,1.493 1.213,1.493 0.269,0 0.5,-0.029 0.741,-0.164 l 0,1.685 -0.337,0 c -0.683,0 -1.261,-0.27 -1.598,-0.877 L 0,-0.809 0,0 Z" />
      </g>
      <g
         transform="matrix(1.25,0,0,-1.25,488.79151,650.56005)"
         id="g105030"
         style="fill:#221f1f;fill-opacity:1">
        <path
           inkscape:connector-curvature="0"
           id="path105032"
           style="fill:#221f1f;fill-opacity:1;fill-rule:evenodd;stroke:none"
           d="m 0,0 1.752,0 0,0.549 0.019,0 c 0.318,-0.491 0.914,-0.713 1.492,-0.713 1.473,0 2.493,1.213 2.493,2.638 0,1.415 -1.011,2.628 -2.474,2.628 -0.568,0 -1.155,-0.212 -1.53,-0.645 l 0,3.532 L 0,7.605 0,0 Z m 2.82,3.581 c 0.713,0 1.127,-0.51 1.127,-1.117 0,-0.626 -0.414,-1.107 -1.127,-1.107 -0.712,0 -1.126,0.481 -1.126,1.107 0,0.607 0.414,1.117 1.126,1.117" />
      </g>
      <g
         transform="matrix(1.25,0,0,-1.25,496.81901,644.38755)"
         id="g105034"
         style="fill:#221f1f;fill-opacity:1">
        <path
           inkscape:connector-curvature="0"
           id="path105036"
           style="fill:#221f1f;fill-opacity:1;fill-rule:evenodd;stroke:none"
           d="m 0,0 0,-2.974 c 0,-1.627 1.145,-2.128 2.628,-2.128 1.482,0 2.628,0.501 2.628,2.128 l 0,2.974 -1.752,0 0,-2.637 c 0,-0.626 -0.154,-1.069 -0.876,-1.069 -0.722,0 -0.876,0.443 -0.876,1.069 L 1.752,0 0,0 Z" />
      </g>
      <g
         transform="matrix(1.25,0,0,-1.25,506.70677,644.38755)"
         id="g105038"
         style="fill:#221f1f;fill-opacity:1">
        <path
           inkscape:connector-curvature="0"
           id="path105040"
           style="fill:#221f1f;fill-opacity:1;fill-rule:evenodd;stroke:none"
           d="m 0,0 -1.752,0 0,-4.938 1.752,0 0,1.992 c 0,0.847 0.241,1.493 1.213,1.493 0.269,0 0.5,-0.029 0.741,-0.164 l 0,1.685 -0.337,0 c -0.683,0 -1.261,-0.27 -1.598,-0.877 L 0,-0.809 0,0 Z" />
      </g>
      <g
         transform="matrix(1.25,0,0,-1.25,512.53039,649.7178)"
         id="g105042"
         style="fill:#221f1f;fill-opacity:1">
        <path
           inkscape:connector-curvature="0"
           id="path105044"
           style="fill:#221f1f;fill-opacity:1;fill-rule:evenodd;stroke:none"
           d="m 0,0 -1.685,-3.138 1.964,0 3.957,7.402 -1.993,0 -1.29,-2.531 -1.319,2.531 -2.021,0 L 0,0 Z" />
      </g>
    </g>
    <g
       id="g105046"
       transform="matrix(1.25,0,0,-1.25,47.74657,1015.7139)"
       style="fill:#df1e25;fill-opacity:1">
      <path
         d="M 0,0 C 2.158,4.43 2.726,5.453 5.299,5.718 8.854,6.084 9.842,3.462 12.988,3.181 14.569,3.039 16.921,3.294 17.547,3.369 15.061,6.997 10.885,9.39 6.153,9.39 -1.466,9.39 -7.645,3.206 -7.645,-4.413 -7.645,-5.077 -7.6,-5.73 -7.504,-6.369 -6.548,-5.683 -0.707,-1.454 0,0"
         style="fill:#df1e25;fill-opacity:1;fill-rule:nonzero;stroke:none"
         id="path105048"
         inkscape:connector-curvature="0" />
    </g>
    <g
       id="g105050"
       transform="matrix(1.25,0,0,-1.25,55.43819,1038.4718)"
       style="fill:#df1e25;fill-opacity:1">
      <path
         d="M 0,0 C 5.084,0 9.522,2.76 11.916,6.849 10.974,6.991 7.195,7.625 5.092,8.975 3.009,10.314 2.332,11.278 0.7,13.549 -0.55,15.292 -3.275,17.372 -6.153,15.783 -7.2,15.207 -12.512,11.211 -13.409,10.536 -11.939,4.493 -6.496,0 0,0"
         style="fill:#df1e25;fill-opacity:1;fill-rule:nonzero;stroke:none"
         id="path105052"
         inkscape:connector-curvature="0" />
    </g>
    <g
       id="g105054"
       transform="matrix(1.25,0,0,-1.25,25.22181,1005.8528)"
       style="fill:#df1e25;fill-opacity:1">
      <path
         d="m 0,0 c -1.876,0.961 -3.998,1.501 -6.246,1.501 -7.619,0 -13.798,-6.184 -13.798,-13.803 0,-0.664 0.051,-1.317 0.142,-1.956 0.956,0.686 6.796,4.915 7.503,6.369 2.161,4.43 2.727,5.453 5.302,5.718 1.722,0.174 2.842,-0.351 3.897,-0.97 0.905,1.197 1.985,2.255 3.2,3.141"
         style="fill:#df1e25;fill-opacity:1;fill-rule:nonzero;stroke:none"
         id="path105056"
         inkscape:connector-curvature="0" />
    </g>
    <g
       id="g105058"
       transform="matrix(1.25,0,0,-1.25,17.38681,1021.2303)"
       style="fill:#df1e25;fill-opacity:1">
      <path
         d="m 0,0 c 0,0.202 0.006,0.405 0.013,0.602 -1.418,1.47 -3.727,2.722 -6.143,1.388 -1.047,-0.576 -6.36,-4.572 -7.255,-5.247 1.465,-6.043 6.911,-10.536 13.407,-10.536 2.249,0 4.37,0.548 6.246,1.5 C 2.469,-9.533 0,-5.046 0,0"
         style="fill:#df1e25;fill-opacity:1;fill-rule:nonzero;stroke:none"
         id="path105060"
         inkscape:connector-curvature="0" />
    </g>
    <g
       id="g105062"
       transform="matrix(1.25,0,0,-1.25,44.24344,1005.8694)"
       style="fill:#df1e25;fill-opacity:1">
      <path
         d="m 0,0 c -1.882,0.97 -4.013,1.514 -6.266,1.514 -7.627,0 -13.804,-6.184 -13.804,-13.803 0,-0.664 0.051,-1.317 0.141,-1.956 0.955,0.686 6.798,4.915 7.504,6.369 2.161,4.43 2.728,5.453 5.306,5.718 1.733,0.176 2.858,-0.36 3.924,-0.987 C -2.291,-1.947 -1.214,-0.887 0,0"
         style="fill:#df1e25;fill-opacity:1;fill-rule:nonzero;stroke:none"
         id="path105064"
         inkscape:connector-curvature="0" />
    </g>
    <g
       id="g105066"
       transform="matrix(1.25,0,0,-1.25,36.43906,1021.2303)"
       style="fill:#df1e25;fill-opacity:1">
      <path
         d="m 0,0 c 0,0.188 0.005,0.374 0.012,0.559 -1.418,1.487 -3.751,2.779 -6.194,1.431 -1.045,-0.576 -6.36,-4.572 -7.252,-5.247 1.464,-6.043 6.908,-10.536 13.412,-10.536 2.253,0 4.384,0.553 6.265,1.514 C 2.458,-9.517 0,-5.038 0,0"
         style="fill:#df1e25;fill-opacity:1;fill-rule:nonzero;stroke:none"
         id="path105068"
         inkscape:connector-curvature="0" />
    </g>
  </g>
</svg>
