<svg height="48.5" viewBox="0 0 70.500001 48.500001" width="70.5" xmlns="http://www.w3.org/2000/svg"><g fill="#221f1f" fill-rule="evenodd" transform="translate(-447.60695 -605.25449)"><path d="m0 0c-.346.193-.751.289-1.155.289-1.55 0-2.763-1.098-2.763-2.686 0-1.492 1.223-2.58 2.686-2.58.423 0 .847.087 1.232.28v1.482c-.231-.212-.568-.337-.876-.337-.722 0-1.232.501-1.232 1.213 0 .683.53 1.203 1.203 1.203.337 0 .645-.154.905-.346z" transform="matrix(1.25 0 0 -1.25 454.01626 644.54393)"/><path d="m0 0c.712 0 1.126-.51 1.126-1.117 0-.625-.414-1.106-1.126-1.106s-1.126.481-1.126 1.106c0 .607.414 1.117 1.126 1.117m2.82 1.357h-1.752v-.481c-.365.433-.962.645-1.53.645-1.463 0-2.474-1.213-2.474-2.628s1.03-2.637 2.493-2.637c.578 0 1.184.221 1.492.712h.019v-.549h1.752z" transform="matrix(1.25 0 0 -1.25 458.60039 646.0843)"/><path d="m0 0h-1.752v-4.938h1.752v2.56c0 .617.202 1.146.915 1.146.866 0 .789-.828.789-1.3v-2.406h1.752v3.051c0 1.213-.53 2.051-1.858 2.051-.683 0-1.175-.203-1.579-.799h-.019z" transform="matrix(1.25 0 0 -1.25 465.77014 644.38755)"/><path d="m0 0h.992v1.444h-.992v1.482h-1.752v-1.482h-.568v-1.444h.568v-3.494h1.752z" transform="matrix(1.25 0 0 -1.25 473.92651 646.1923)"/><path d="m0 0c.106.51.529.78 1.04.78.471 0 .904-.308.991-.78zm3.658-.828c0 1.685-.992 2.744-2.705 2.744-1.608 0-2.734-.992-2.734-2.638 0-1.704 1.223-2.628 2.859-2.628 1.126 0 2.233.53 2.512 1.694h-1.684c-.193-.327-.462-.452-.838-.452-.721 0-1.097.385-1.097 1.098h3.687z" transform="matrix(1.25 0 0 -1.25 477.63139 646.57755)"/><path d="m0 0h-1.752v-4.938h1.752v1.992c0 .847.241 1.493 1.213 1.493.269 0 .5-.029.741-.164v1.685h-.337c-.683 0-1.261-.27-1.598-.877h-.019z" transform="matrix(1.25 0 0 -1.25 485.39139 644.38755)"/><path d="m0 0h1.752v.549h.019c.318-.491.914-.713 1.492-.713 1.473 0 2.493 1.213 2.493 2.638 0 1.415-1.011 2.628-2.474 2.628-.568 0-1.155-.212-1.53-.645v3.532l-1.752-.384zm2.82 3.581c.713 0 1.127-.51 1.127-1.117 0-.626-.414-1.107-1.127-1.107-.712 0-1.126.481-1.126 1.107 0 .607.414 1.117 1.126 1.117" transform="matrix(1.25 0 0 -1.25 488.79151 650.56005)"/><path d="m0 0v-2.974c0-1.627 1.145-2.128 2.628-2.128 1.482 0 2.628.501 2.628 2.128v2.974h-1.752v-2.637c0-.626-.154-1.069-.876-1.069s-.876.443-.876 1.069v2.637z" transform="matrix(1.25 0 0 -1.25 496.81901 644.38755)"/><path d="m0 0h-1.752v-4.938h1.752v1.992c0 .847.241 1.493 1.213 1.493.269 0 .5-.029.741-.164v1.685h-.337c-.683 0-1.261-.27-1.598-.877h-.019z" transform="matrix(1.25 0 0 -1.25 506.70677 644.38755)"/><path d="m0 0-1.685-3.138h1.964l3.957 7.402h-1.993l-1.29-2.531-1.319 2.531h-2.021z" transform="matrix(1.25 0 0 -1.25 512.53039 649.7178)"/></g><g fill="#df1e25"><path d="m0 0c2.158 4.43 2.726 5.453 5.299 5.718 3.555.366 4.543-2.256 7.689-2.537 1.581-.142 3.933.113 4.559.188-2.486 3.628-6.662 6.021-11.394 6.021-7.619 0-13.798-6.184-13.798-13.803 0-.664.045-1.317.141-1.956.956.686 6.797 4.915 7.504 6.369" transform="matrix(1.25 0 0 -1.25 47.74657 11.8517)"/><path d="m0 0c5.084 0 9.522 2.76 11.916 6.849-.942.142-4.721.776-6.824 2.126-2.083 1.339-2.76 2.303-4.392 4.574-1.25 1.743-3.975 3.823-6.853 2.234-1.047-.576-6.359-4.572-7.256-5.247 1.47-6.043 6.913-10.536 13.409-10.536" transform="matrix(1.25 0 0 -1.25 55.43819 34.6096)"/><path d="m0 0c-1.876.961-3.998 1.501-6.246 1.501-7.619 0-13.798-6.184-13.798-13.803 0-.664.051-1.317.142-1.956.956.686 6.796 4.915 7.503 6.369 2.161 4.43 2.727 5.453 5.302 5.718 1.722.174 2.842-.351 3.897-.97.905 1.197 1.985 2.255 3.2 3.141" transform="matrix(1.25 0 0 -1.25 25.22181 1.9906)"/><path d="m0 0c0 .202.006.405.013.602-1.418 1.47-3.727 2.722-6.143 1.388-1.047-.576-6.36-4.572-7.255-5.247 1.465-6.043 6.911-10.536 13.407-10.536 2.249 0 4.37.548 6.246 1.5-3.799 2.76-6.268 7.247-6.268 12.293" transform="matrix(1.25 0 0 -1.25 17.38681 17.3681)"/><path d="m0 0c-1.882.97-4.013 1.514-6.266 1.514-7.627 0-13.804-6.184-13.804-13.803 0-.664.051-1.317.141-1.956.955.686 6.798 4.915 7.504 6.369 2.161 4.43 2.728 5.453 5.306 5.718 1.733.176 2.858-.36 3.924-.987.904 1.198 1.981 2.258 3.195 3.145" transform="matrix(1.25 0 0 -1.25 44.24344 2.0072)"/><path d="m0 0c0 .188.005.374.012.559-1.418 1.487-3.751 2.779-6.194 1.431-1.045-.576-6.36-4.572-7.252-5.247 1.464-6.043 6.908-10.536 13.412-10.536 2.253 0 4.384.553 6.265 1.514-3.785 2.762-6.243 7.241-6.243 12.279" transform="matrix(1.25 0 0 -1.25 36.43906 17.3681)"/></g></svg>