<svg enable-background="new 0 0 150 264" height="264" viewBox="0 0 150 264" xmlns="http://www.w3.org/2000/svg"><path d="m147.9 151c-.1-1.1-3.3-34-2-44.1 1.2-10.2-3.3-30.2-.4-45.3 2.8-15.1 1.6-60 1.6-60s-18.8 9.4-39.2 5.7c-20.4-3.2-19.6-8.1-38.8-4-19.6 4.1-18 5.3-28.6 2-4-1.2-8-2.6-11.9-3.7h-17.4c-4.9 2.7-9.1 2.5-10.6 5v6.1c2.8 9.3 6.5 37.5 3.2 49.7-3.3 12.7-3.3 28.2-.4 46.9 3.3 18.8-2 41.2-2 41.2s21.6-4.9 35.1-2.5c7.3 1.3 16.8 2.6 26.5 2.9h7.5c6.3-.2 12.6-.9 18.2-2.5 16.7-4.1 23.2-6.1 38-2 13.2 4.1 20.1 4.5 21.1 4.5z"/><g fill="#fff"><path d="m47.8 7.1c3.1 5.3 6.2 11.2 7.9 16.2 4.1 12.7 11 28.2 11.4 32.6.4 9 4.5 12.7 8.2 4.9s15.9-24.1 24.1-34.3c3.7-4.6 6.9-11.7 9.7-19 3.8.6 7.5.8 11 .6-.9 4.4-2.4 9-4.8 13.5-6.9 13.5-12.7 25.3-19.6 33.9-7.3 9-14.7 18.4-19.6 28.6-7.3 15.5-19.2 40.8-23.3 48.2-3.2 5.5-7 13.2-9 17.1-2.6-.4-5.1-.8-7.3-1.2-.6-.1-1.2-.2-1.9-.3 4-8.9 13.6-30.4 16.2-38.1 3.7-9.4 6.1-29 4.1-40.8-1.6-11.4-2.5-20-5.7-29.8-3.3-9.8-7.8-21.2-9.8-27.7-.5-2.1-2-4.9-3.6-7.6l4.8 1.5c3.2.9 5.3 1.5 7.2 1.7z"/><path d="m20.1.1c4.6 7.5 17.6 30.2 19.6 49.7 2.5 21.2 5.4 29.4 2.5 41.2-4.1 15.9-5.3 23.7-14.7 42.4-1.7 3.3-6.3 9.6-10.9 14.7-8.4.9-15.2 2.5-15.2 2.5s.6-2.3 1.2-6.2c7.1-4.7 16.2-12.1 18.8-20 4.5-13.1 10.6-34.3 7.8-57.5-2.5-22.9-9.4-44.5-13.1-51.4-2.2-4.3-4.5-9.7-6-13.3.4-.2.7-.4 1.1-.6 2.6-1.4 5.7-1.8 8.9-1.5z"/><path d="m4.3 117.3c7.3-10 16.1-24 15.8-32.8 0-14.7-4.1-35.1-6.5-42.8-2.4-8.2-4.9-17.1-7.3-22.4-1.2-2.7-3.7-7.9-5.8-12.4-.6 1.2-.7 3 .1 5.9 1.7 5.6 3.7 18.1 4.4 29.7 3.9 8.2 9 17.3 8.3 25.3-.8 9.4-1.6 16.3-4.9 22.4-1.1 2.4-3.5 6.6-6 10.7.3 2.8.7 5.6 1.1 8.5.4 2.6.7 5.2.8 7.9z"/></g><path d="m71.6 39.2c-4.1-.4-4.5-9.8-2-15.1 3.3-6.1 5.3 1.2 8.6-2 1.6-1.6 1.2-4.1 2.9-6.9 1.6-2.9 8.2-9.4 8.6-4.9 2.3 24.4-13.6 29.7-18.1 28.9z" fill="#fcb131"/><path d="m59.8 150.9c1.9-6.1 10.6-31.6 24.9-50.9 6.1-8.6 13.9-23.3 18.8-36.7 4.9-13.1 13.9-24.1 16.7-34.3 1.5-4.6 8.8-14.6 15.5-23.2 4.2-1.1 7.5-2.4 9.4-3.2-5.2 12-15.5 25.9-20.9 42.4-4.1 12.5-14.3 26-18.3 46-3.5 14.9-23.1 49.5-29 59.6-5.6.5-11.5.5-17.1.3z" fill="#fff"/><path d="m93.2 147.4c4.8-9.2 22.3-43.3 29-60.1 6.7-16.5 15.1-51.8 25.2-65.3 0 4.4 0 9-.1 13.7-3.6 14.2-7.5 21.8-9.1 27.1-2.9 10.2-5.7 27.7-11.8 44.9-4.5 11.9-10.6 27.8-13.9 36.6-6 0-11.5 1.2-19.3 3.1z" fill="#fff"/><path d="m120.9 145.1c5.2-5.9 12.9-16.4 14.7-28 1.9-12.8 5.6-26.5 9-37.5.4 8.2 1.4 16.2 1.4 22.4-3.2 13.7-9.1 37.9-13 46.3-1.9-.5-4.1-1.1-6.4-1.8-2-.6-3.9-1-5.7-1.4z" fill="#fff"/><path d="m9.5 252.2c-.8-.4-1.6-.4-2-.4-3.3 0-5.3 2-5.3 4.1 0 2.9 3.3 2.9 2.9 4.5 0 .8-.8 1.2-2 1.2-.4 0-1.2 0-2-.4l-.5 2.8h2c3.3 0 5.3-2 5.3-4.1.4-2.8-2.9-2.8-2.9-4.5 0-.8.8-1.2 2-1.2h1.6z"/><path d="m19.3 258.3c0-2.5-1.2-3.7-3.7-3.7-3.7 0-6.1 2.9-6.1 5.7-.4 2.5.8 3.7 3.7 3.7s5.7-2.4 6.1-5.7zm-2.8.4c0 1.2-1.2 2.8-2.9 2.8-.8 0-1.2-.4-1.2-1.6 0-2 1.6-2.8 2.9-2.8.8 0 1.2.4 1.2 1.6z"/><path d="m30.8 254.6h-2.9l-1.2 5.3c-.4 1.2-.8 1.6-2 1.6s-1.6-.4-1.2-1.6l1.2-5.3h-2.5l-1.6 5.7c-.4 2.5.4 3.7 3.3 3.7 3.3 0 4.9-1.6 5.3-3.7z"/><path d="m39.3 254.6h-6.9l-.8 2.5h2.4l-2 6.9h2.9l1.6-6.9h2.4z"/><path d="m49.5 254.6h-2.4l-.8 3.3h-3.3l.8-3.3h-2.8l-2.1 9.4h2.5l.8-3.7h3.3l-.9 3.7h2.9z"/><path d="m63.8 264-.8-11.8h-2.9l-7.3 11.8h2.9l1.2-2.5h4.1v2.5zm-2.8-4.5h-2.9l1.2-2.5c.4-.4.8-1.2 1.2-2v2z"/><path d="m73.2 254.6h-5.3l-2.4 9.4h2.4l.8-3.7h2.9l.8-2h-2.9l.4-1.6h2.9z"/><path d="m82.2 257.1c0-1.6-.8-2.5-2.8-2.5-1.2 0-2.9 0-3.7 0l-2.4 9.4h2.4l1.2-3.7.8 3.7h3.3l-1.2-2.8c0-.4 0-.8-.4-1.2 1.2-.1 2.4-1.3 2.8-2.9zm-2.9.4c0 .8-.8 1.2-1.6 1.2h-.4l.4-2h.4c.8 0 1.2.4 1.2.8z"/><path d="m87.5 254.6h-2.4l-2.5 9.4h2.8z"/><path d="m96.5 254.6c-.4 0-1.2 0-2 0-3.7 0-5.7 2.9-6.1 5.7 0 2.5 1.2 3.7 3.7 3.7.8 0 1.6 0 2-.4l.4-2.4c-.4.4-.8.4-1.6.4s-1.6-.4-1.6-1.6 1.2-2.8 3.3-2.8h1.2z"/><path d="m105 264-.8-9.4h-3.2l-5.7 9.4h2.9l.8-1.6h2.9l.4 1.6zm-3.2-3.7h-1.6l.8-1.6c.4-.4.4-.8.8-1.2v1.2z"/><path d="m119.7 254.6c0-1.6-.8-2.8-3.3-2.8-.8 0-2 .4-3.3.8v2.5c.8-.4 1.6-.8 2.4-.8.4 0 .8.4.8 1.2s-.8 2-3.3 4.1l-2 2-.8 2.5h7.3l.4-2.8c-1.2 0-2 0-3.3 0h-.4l1.2-.8c1.9-1.8 3.9-3.4 4.3-5.9z"/><path d="m129.9 255.8c.4-2.4-.8-4.1-3.3-4.1-3.7 0-6.1 4.1-6.5 8.1 0 2.9.8 4.1 3.3 4.1 4.1.1 6.5-4.4 6.5-8.1zm-2.4 0c-.4 2.5-1.6 5.7-3.7 5.7-.8 0-.8-.4-.8-1.6 0-1.6.8-5.7 3.3-5.7.8 0 1.2.4 1.2 1.6z"/><path d="m140.5 255.8c0-2.4-.8-4.1-3.7-4.1-3.3 0-6.1 4.1-6.1 8.1-.4 2.9.8 4.1 3.3 4.1 4.1.1 6.1-4.4 6.5-8.1zm-2.8 0c0 2.5-1.6 5.7-3.3 5.7-.8 0-1.2-.4-1.2-1.6.4-1.6 1.2-5.7 3.7-5.7.4 0 .8.4.8 1.6z"/><path d="m148.3 254.6c.4-1.6-.4-2.8-2.8-2.8-.8 0-2 .4-2.9.4v2.5c.4-.4 1.2-.4 1.6-.4 1.2 0 1.2.4 1.2.8 0 .8-1.2 2-3.3 1.6l-.8 2.5c2.8-.4 3.3.4 2.8.8 0 1.2-.8 1.6-2.4 1.6-.4 0-.8 0-1.2 0l-.8 2c.4.4 1.2.4 1.6.4 2.8 0 5.3-1.6 5.7-4.1.4-1.2 0-2.4-1.2-2.4 1.3-.4 2.1-1.7 2.5-2.9z"/><path d="m11.2 184h-4.9l-5.7 22.1h4.9z"/><path d="m29.5 184.9c-1.2-.4-2.9-.8-4.5-.8-8.6 0-13.5 7.3-14.3 14.7 0 3.3.8 7.4 7.8 7.4 1.6 0 3.7 0 5.3-.4l.8-4.9c-1.2.4-2.9.8-4.1.8-3.3 0-4.1-1.6-4.1-4.1.4-3.3 2.5-9 7.8-9 1.2 0 2.4.4 3.7.8z"/><path d="m46.3 184.9c-1.2-.4-2.9-.8-4.5-.8-8.6 0-13.5 7.3-14.3 14.7 0 3.3.8 7.4 7.7 7.4 1.6 0 3.7 0 5.3-.4l.8-4.9c-1.2.4-2.9.8-4.1.8-3.3 0-4.1-1.6-4.1-4.1.4-3.3 2.4-9 7.7-9 1.2 0 2.5.4 3.7.8z"/><path d="m71.2 184.9c-1.2-.4-2.5-.8-4.1-.8-8.6 0-13.5 7.3-14.3 14.7 0 3.3.8 7.4 7.8 7.4 1.6 0 3.7 0 5.3-.4l.8-4.9c-1.2.4-2.9.8-4.5.8-2.9 0-3.7-1.6-3.7-4.1.4-3.3 2.4-9 7.8-9 1.2 0 2.4.4 3.3.8z"/><path d="m82.6 189.7c-2.5-.4-4.1 1.2-6.1 4.5.8-2 1.2-3.3 1.6-4.1h-4.5c-.8 1.6-1.6 5.3-2 7.3l-2.4 8.6h4.8l.8-3.7c1.6-5.7 4.5-9 6.5-8.2z"/><path d="m92 185.3c.4-1.6-.8-2.9-2.5-2.9-1.6 0-3.3 1.2-3.3 3.3 0 1.2.8 2.4 2.5 2.4s3.3-1.2 3.3-2.8zm-1.6 4.9h-4.9l-4.1 15.9h4.9z"/><path d="m104.2 190.2c-.8-.4-2-.4-3.3-.4-5.7 0-9.8 4.9-10.2 11-.4 3.3 1.2 5.7 5.7 5.7 1.2 0 2.4-.4 3.7-.8l.8-4.1c-.8.4-2 .4-2.8.4-1.6 0-2-1.2-2-2.4 0-2.5 1.6-5.7 4.5-5.7.8 0 1.6 0 2 .4z"/><path d="m121.8 191.4-3.7-2.5-7.3 7.4 3.6-13.9h-4.5l-6.5 23.7h4.9l2-7.8 2.5 7.8h5.7l-3.3-8.6z"/><path d="m136.1 193.8c0-2-.8-4.1-5.3-4.1-4.9 0-9.4 4.1-10.2 11 0 3.3 1.2 5.7 5.7 5.7 2 0 4.5-.4 6.1-1.2l.4-3.7c-1.6.4-3.3.8-4.9.8-2 0-2.5-.4-2.5-1.6 0-.4 0-.8.4-.8 5.8-.4 9.8-2 10.3-6.1zm-4.9.4c0 1.6-2 2.5-4.9 2.5.8-1.6 2-3.7 3.7-3.7.8 0 1.2.4 1.2 1.2z"/><path d="m149.1 190.2h-3.3l1.2-5.7-4.9.8-1.2 4.9h-2.5l-1.2 3.7h2.5l-1.6 6.9c-1.2 3.7 0 5.7 3.3 5.7 1.2 0 2.5-.4 3.7-.8l.8-3.7c-.4 0-1.2.4-2 .4-1.2 0-1.2-.8-.8-2l1.6-6.5h3.3z"/><path d="m30.4 217.5h-5.3l-4.9 10.2c-.8 1.6-1.6 2.9-2 4.5 0-1.6.4-3.3.4-4.5v-10.2h-5.3l-5.7 10.6c-.4 1.2-1.2 2.9-1.6 4.5 0-1.6.4-3.3.4-4.5l.4-10.6h-5.4l-.4 21.6h5.7l5.3-10.6c.8-1.2 1.2-2.9 2-4.5-.4 1.6-.4 3.3-.4 4.9l-.4 10.2h6.1z"/><path d="m44.2 228.5c.4-3.3-1.2-5.7-5.7-5.7-5.3 0-10.2 4.1-11 10.6 0 3.7 1.6 6.1 6.1 6.1 5.3 0 10.2-4.5 10.6-11zm-4.9.8c-.4 2.9-2 5.7-4.5 5.7-1.6 0-2-.8-2-2 0-2.8 2-6.1 4.5-6.1 1.6 0 2 .8 2 2.4z"/><path d="m58.9 222.8c-2.5-.4-4.1 1.2-6.1 4.5.8-2 1.2-3.3 1.6-4.1h-4.9c-.4 1.6-1.2 5.7-1.6 7.3l-2.4 8.6h4.9l.8-3.3c1.6-6.1 4.5-9 6.5-8.6z"/><path d="m69.5 215.5h-4.9l-6.1 23.6h4.9z"/><path d="m88.3 215.5h-4.9l-1.6 7.3c-.8 0-1.2 0-1.6 0-6.9 0-10.6 5.3-11 11.4-.4 3.7.8 5.3 3.3 5.3 2.9 0 4.9-2.4 6.5-4.5-.4 1.7-1.2 2.9-1.2 4.1h4.5c.4-1.6 1.2-4.5 1.2-5.7zm-7.7 11.4-.4.8c-.8 2.9-3.7 7.3-5.3 7.3-.8 0-.8-.4-.8-1.6 0-2.8 2-6.9 4.9-6.9.7 0 1.1 0 1.6.4z"/><path d="m115.2 217.9c-1.2-.4-2.9-.8-4.5-.8-8.6 0-13.5 7.3-13.9 14.7-.4 3.3.8 7.8 7.8 7.8 1.6 0 3.7-.4 5.3-.8l.4-4.5c-1.2.4-2.4.4-4.1.4-3.3 0-4.1-1.7-3.7-4.1 0-3.3 2-9 7.3-9 1.2 0 2.5.4 3.7.8z"/><path d="m132 223.2h-4.9l-1.2 4.1c-.8 3.7-4.1 7.8-5.7 7.8-.4 0-.8-.4-.4-2l2.9-9.8h-4.9l-2.8 11c-.8 2.9-.4 5.3 2.8 5.3 2.9 0 4.9-2 6.5-4.5h.4c-1.2 1.7-1.2 3.3-1.6 4.1h4.5c.4-2 1.6-5.7 2-7.8z"/><path d="m149.9 227.7c.4-3.3-.8-4.9-3.7-4.9-2.4 0-4.5 1.6-6.5 4.5.8-2 1.2-3.3 1.6-4.1h-4.5c-.8 1.6-1.6 5.7-2 7.3l-4.5 15.9h4.9l2-7.3c.4.4.8.4 1.2.4 7.5 0 11.1-5.7 11.5-11.8zm-4.9.8c-.4 3.3-2 6.9-5.3 6.9-.4 0-.8 0-1.2 0v-.8c.8-3.3 3.7-7.8 5.7-7.8.4.1.8.5.8 1.7z"/></svg>