<svg height="64.616859" viewBox="0 0 300 64.616861" width="300" xmlns="http://www.w3.org/2000/svg"><path d="m0 0h-37.453v-34.554z" fill="#44c8f5" transform="matrix(1.812145 0 0 -1.812145 68.87208 1)"/><path d="m0 0h-18.724v-17.285z" fill="#231f20" transform="matrix(1.812145 0 0 -1.812145 34.9306 1)"/><g fill="#00a0e4"><path d="m0 0-4.889-19.547h8.638l4.885 19.547z" transform="matrix(1.812145 0 0 -1.812145 163.64545 14.59109)"/><path d="m0 0h-1.981l3.194 5.639 1.036-5.639zm-1.229 11.331-11.109-19.546h5.713l1.844 3.258h7.931l.591-3.258h8.432l-3.584 19.546z" transform="matrix(1.812145 0 0 -1.812145 127.89546 35.12088)"/><path d="m0 0-4.876-19.547h8.636l4.877 19.547z" transform="matrix(1.812145 0 0 -1.812145 235.13095 14.59109)"/><path d="m0 0h-8.851l-7.409-6.394 1.617 6.394h-8.279l-4.876-19.547h8.253l1.686 6.748 4.413-6.748h9.99l-7.399 10.237z" transform="matrix(1.812145 0 0 -1.812145 228.13607 14.59109)"/><path d="m0 0s-.561-6.349-5.971-6.349h-3.061l2.696 10.543h2.778c.994-.006 3.871-.264 3.558-4.194zm-.438 8.874-2.234.007h-10.808l-4.876-19.539h10.732l4.246-.006c5.978 0 11.861 4.45 11.861 11.266 0 8.02-8.921 8.272-8.921 8.272" transform="matrix(1.812145 0 0 -1.812145 93.25449 30.68837)"/><path d="m0 0-2.881-11.51-3.838 11.51h-9.606l-4.88-19.55h5.973l2.909 11.611 3.85-11.611h9.565l4.887 19.55z" transform="matrix(1.812145 0 0 -1.812145 288.16518 14.58565)"/></g></svg>