<svg enable-background="new 0 0 300 300" height="316.227766" viewBox="0 0 300 300" width="316.227766" xmlns="http://www.w3.org/2000/svg" xmlns:xlink="http://www.w3.org/1999/xlink"><linearGradient id="a" gradientUnits="userSpaceOnUse" x1="145.9999" x2="145.9999" y1="16.4698" y2="279.081"><stop offset=".1263" stop-color="#2561ae"/><stop offset=".2144" stop-color="#255ca7"/><stop offset=".3427" stop-color="#264c93"/><stop offset=".495" stop-color="#283374"/><stop offset=".5437" stop-color="#282968"/></linearGradient><path d="m235.19 215.89c-6.99 11.56-15.17 22.39-24.37 32.24-9.23 9.82-19.3 18.85-30.24 26.71-5.46 3.93-28.14 16.82-33.93 19.66-5.8-2.84-55.09-36.42-64.35-46.22-9.24-9.83-17.43-20.66-24.4-32.25-7.07-11.53-12.81-23.89-17.16-36.76.91 3.27 1.93 6.52 3.03 9.74 1.15 3.2 2.35 6.39 3.68 9.52 2.62 6.29 5.64 12.41 8.96 18.37 6.73 11.88 14.77 23.02 23.89 33.21 9.1 10.21 19.39 19.37 30.4 27.49 5.52 4.04 11.26 7.79 17.12 11.32 5.89 3.48 11.93 6.7 18.08 9.71l.76.37.76-.37c6.14-3.01 12.17-6.24 18.05-9.73 5.85-3.54 11.57-7.31 17.07-11.37 5.51-4.05 10.79-8.42 15.85-13.01 5.07-4.59 9.88-9.46 14.42-14.56 9.08-10.21 17.11-21.34 23.86-33.19 3.34-5.94 6.38-12.05 9.03-18.32 1.36-3.12 2.57-6.3 3.75-9.49 1.12-3.21 2.16-6.44 3.1-9.7-4.46 12.82-10.27 25.13-17.36 36.63z" fill="#faad1b"/><path d="m261.06 142.5 5.19.59.01-13.11 14.77-14.77h-22.73v-30.04c-19.11-10.53-43.86-22.27-71.81-28.58.03.19.08.38.12.57l2.08 2.33 6.65 4.35 1.65 10.35.27.45c24.96 5.16 40.92 17.09 51.12 28.08v.51c-10.33-11.08-30.21-19.86-53.95-24.53l-1.78-2.9-1.47-9.26-5.47-3.58-3.37-3.79c-2.15-16.13-13.73-26.4-28.64-29.55l-.16-2.02-1.57-1.38v-2.59c2.81-.68 4.66-1.81 4.66-3.09 0-1.29-1.85-2.42-4.66-3.09v-2.76l-4.01-2.24-.21-1.46h1.42l.6-2.07h-1.59l-2.26-7.92-2.25 7.92h-1.59l.61 2.07h1.42l-.21 1.46-4.01 2.24v2.76c-2.81.68-4.65 1.81-4.65 3.09s1.85 2.42 4.65 3.09v2.59l-1.56 1.38-.16 2.36c-14.23 3.64-25.17 13.59-27.25 29.2l-3.37 3.79-5.47 3.58-1.47 9.26-2.12 3.25c-21.33 4.49-40.4 12.52-53.63 23.96v-.28c12.62-10.92 28.22-22.73 50.84-27.72l.57-.87 1.64-10.29 6.65-4.35 2.07-2.33c.04-.23.1-.46.14-.69-27.96 6.16-52.72 17.64-71.83 28.05v30.69h-23.97l16.25 14.91v42.45l13.46 6.35c9.76 33.38 35.94 82.1 105.94 115.75 70.17-33.74 96.31-82.63 106.01-116.01l13.92-6.09v-23.15l-1.18-1.49c-1.73-2.21-3.03-3.85-4.31-5.43z" fill="url(#a)"/><g fill="#fff"><path d="m227.68 213.83c-6.4 10.58-13.88 20.49-22.31 29.51-8.45 8.98-17.66 17.25-27.68 24.44-5 3.6-10.14 7-15.43 10.16-5.09 2.99-10.3 5.76-15.61 8.36-5.31-2.6-10.54-5.36-15.64-8.35-5.3-3.15-10.46-6.54-15.48-10.12-10.04-7.17-19.31-15.39-27.79-24.36-8.46-9-15.96-18.91-22.33-29.52-6.47-10.56-11.73-21.87-15.71-33.65.84 2.99 1.77 5.96 2.77 8.91 1.05 2.93 2.15 5.85 3.37 8.71 2.4 5.75 5.16 11.36 8.2 16.81 6.16 10.87 13.52 21.07 21.87 30.39 8.33 9.35 17.74 17.72 27.82 25.16 5.06 3.7 10.3 7.13 15.67 10.36 5.39 3.19 10.92 6.13 16.54 8.89l.7.34.7-.34c5.62-2.75 11.14-5.71 16.52-8.9 5.36-3.24 10.59-6.69 15.62-10.41 5.04-3.71 9.87-7.7 14.51-11.91 4.64-4.2 9.05-8.65 13.2-13.33 8.31-9.34 15.66-19.53 21.84-30.37 3.05-5.44 5.83-11.03 8.27-16.76 1.24-2.86 2.35-5.77 3.43-8.68 1.03-2.94 1.98-5.9 2.84-8.88-4.08 11.74-9.4 23.01-15.89 33.54z"/><path d="m105.04 74.09.7-5.51 5.26-2.98 3.56-3.89s1.29-22.23 25.65-28.53c0 0-14.81 3.79-19.6 21.06-1.33 4.81.59 10.21.59 10.21l-.54 10.53s-11.38 1.06-17.63 3.58z"/><path d="m154.01 33.54s15.11 1.1 20.17 13.51c0 0-8.01-9.35-20.17-13.51z"/><path d="m142.59 33.17s-9.93 7.15-8.63 40.83l3.98-.23c0 .01-3.52-30.33 4.65-40.6z"/><path d="m97.04 90.64c6.1-1.37 9.18-1.95 15.35-2.9 2.45 1.51 3.68 2.21 6.15 3.59.04 7.94.06 9.54.1 17.49-2.32 1.66-3.47 2.53-5.79 4.39-6.32 0-9.48 0-15.8 0-.01-11.69-.01-10.88-.01-22.57zm12.5 2.9c-1.47.2-2.21.3-3.68.52.02 6.22.03 7.72.06 13.93 1.48-.05 2.21-.07 3.69-.12-.02-6.38-.04-7.95-.07-14.33z"/><path d="m122.38 86.44c6.64-.72 9.97-.95 16.64-1.17 0 2.6.01 3.75.01 5.89-3.04.08-4.55.14-7.58.31.01 2.12.01 3.07.02 4.94 2.51-.11 3.76-.15 6.27-.21 0 1.9.01 2.79.01 4.65-2.51.04-3.76.07-6.26.15.01 2.42.01 3.61.02 6.4 3.11-.04 4.66-.05 7.77-.07 0 2.15.01 3.29.01 5.89-6.71 0-10.07 0-16.78 0-.06-13.38-.08-13.41-.13-26.78z"/><path d="m141.92 85.19c3.63-.08 5.45-.08 9.08-.01-.01 11.26-.01 12.84-.03 22.13 3.22.01 4.83.02 8.05.06-.01 2.13-.01 3.26-.02 5.85-6.82 0-10.23 0-17.05 0-.02-13.88-.02-14.16-.03-28.03z"/><path d="m173.85 97.82c.02-3.81.03-5.66.05-11.03 3.57.43 5.34.68 8.89 1.26-.05 12.73-.07 12.44-.12 25.17-3.56 0-5.34 0-8.91 0 .02-5.37.03-7.22.05-11.03-1.48-.07-2.22-.11-3.7-.17-.02 3.88-.03 5.76-.05 11.2-3.61 0-5.41 0-9.01 0 .04-13.7.06-13.91.09-27.61 3.62.23 5.44.39 9.05.76-.02 5.44-.03 7.32-.05 11.2 1.49.09 2.23.14 3.71.25z"/><path d="m187.28 88.82c3.58.65 5.37 1.02 8.92 1.82v22.58c-3.61 0-5.41 0-9.01 0 .03-12.42.05-11.98.09-24.4z"/><path d="m187.29 88.82s4.47.76 10.65 2.16c3.15.71 5.97 1.48 5.97 1.48l-10.18 4.28z"/><path d="m106.23 88.82s-4.47.76-10.65 2.16c-3.15.71-5.97 1.48-5.97 1.48l10.18 4.28z"/><path d="m70.54 120.06c-3.33 14.86-5.16 30.03-8.04 44.99 4.68-1.76 7.04-2.61 11.77-4.18.45-2.64.68-4.12 1.13-7.18 2.8-.8 4.2-1.18 7-1.89.35 2.7.52 3.98.87 6.3 4.78-1.35 7.17-1.95 11.93-2.87-2.7-11.67-4.91-23.44-7.39-35.16h-17.27zm5.84 25.58c.66-5.88 1.34-11.75 2.04-17.62.46-.02.69-.03 1.16-.06.69 5.53 1.35 11.07 2.04 16.6-2.1.42-3.15.63-5.24 1.08z"/><path d="m170.92 120.06c-8.42 0-16.84 0-25.26 0v6.08h6.77c0 8.75.01 17.5.01 26.25 4.74.03 7.1.06 11.84.16-.01-8.8-.03-17.59-.04-26.39 2.68.01 4.02.02 6.7.03-.01-2.44-.02-3.67-.02-6.13z"/><path d="m219.33 120.06h-11.95c-.14 12.26-.26 24.52-.4 36.77 7.42 2.03 14.64 4.38 21.87 6.98.08-2.63.13-4.16.21-7.4-4.2-1.33-6.28-1.97-10.42-3.14.23-11.07.42-22.14.69-33.21z"/><path d="m98.58 120.06c-.07 11.56-.13 23.12-.21 34.69 4.79-.83 7.17-1.12 11.9-1.37.01-4.53.02-6.79.04-11.32 3.08-.11 4.63-.15 7.71-.24 3.23-1.97 4.85-2.94 8.08-4.86.01-4.85.01-7.27.02-12.12-3.22-1.9-4.83-2.85-8.05-4.78zm16.08 15.63c-1.73.04-2.59.06-4.32.1.01-3.78.02-5.68.03-9.46 1.73-.02 2.59-.02 4.32-.04-.01 3.76-.02 5.64-.03 9.4z"/><path d="m129.98 152.62c4.79-.12 7.19-.16 11.98-.2.01-10.79.01-21.57.02-32.36h-11.95c-.01 10.85-.03 21.7-.05 32.56z"/><path d="m190.7 148.48c-2.72-.2-4.08-.3-6.8-.47-.38 2.43-.57 3.6-.95 5.71-4.6-.34-6.9-.49-11.5-.72 2.59-10.92 4.66-21.98 7.05-32.95h16.95c2.89 11.81 5 23.79 7.77 35.62-4.61-.55-6.92-.79-11.54-1.23-.4-2.21-.59-3.43-.98-5.96zm-4.32-21.54c-.67 5.58-1 8.76-1.67 14.6 2.04.1 3.06.15 5.1.27-.92-5.99-1.38-9.22-2.29-14.85-.46-.01-.68-.01-1.14-.02z"/><path d="m243.88 138.78c.09-4.43.13-6.62.22-10.56 2 .11 3 .17 5 .29-.05 2.69-.07 4.14-.12 7.1 4.68.54 7.03.81 11.8 1.35 0-4.26 0-6.33.01-10.01l8.75-6.89h-16.81-12.45c-3.24 2.16-4.86 3.36-8.09 5.72-.14 5.07-.21 8.06-.35 13.94 3.23 3.33 4.84 5.15 8.11 8.95 3.48 1.12 5.23 1.71 8.78 2.91-.08 4.74-.11 7.09-.19 11.29-2.06-.69-3.09-1.04-5.12-1.72.06-2.56.09-3.92.14-6.72-4.87-1.37-7.26-2.05-12-3.33-.08 3.34-.12 4.97-.2 7.94 3.01 3.48 4.52 5.26 7.6 8.62 5.33 2.07 8.04 3.15 13.66 5.31 3.36-1.02 5.05-1.74 8.45-3.62v-18.03c-3.48-4.41-5.16-6.54-8.49-10.45-3.51-.86-5.25-1.28-8.7-2.09z"/><path d="m40.47 120.06h-16.09l8.33 6.9c-.01.01-.01.01-.02.02v42.53c3.2 1.95 4.8 2.69 8.02 3.72 4.72-1.85 7.12-2.82 11.96-4.72 3.17-3.4 4.78-5.22 7.99-8.79.08-4.88.12-7.73.2-13.38-4.64 1.03-6.95 1.57-11.54 2.64-.06 5.32-.09 7.99-.15 12.69-2.04.69-3.06 1.04-5.09 1.73.11-11.59.21-23.17.32-34.76 2.06-.11 3.09-.17 5.16-.28-.05 3.85-.07 5.98-.12 10.29 4.6-.64 6.92-.97 11.56-1.6.07-4.71.1-7.04.17-11.15-3.13-2.4-4.69-3.62-7.81-5.82h-12.89z"/><path d="m165.71 170.22s2.22 1.01 4.32 2.89c0 0 4.7-2.02 2.79-9.04.11 3.36-2.4 5.79-7.11 6.15z"/><path d="m120.55 163.78s3.86 3.49 5.05 3.78l-2.44.35s4.05 3.04 6.68 2.84l-3.32 2.14c-.01 0-4.95-3.91-5.97-9.11z"/><path d="m123.71 192.45s-.46 13.28 5.08 18.83c0 0-5.33-4.68-7.43-12.56z"/><path d="m169.86 194.79s-1.51 12.07-7.25 17.42c0 0 6.31-3.86 8.68-11.67z"/></g><path d="m173.18 161.17c-2.56-.59-4.69 1.9-5.35 2.78s-1.17 2.2-4.47 3.44c3.37.22 8.94-1.9 9.45-2.71.15 1.54.16 4.12-2.78 8.42l2.49 1.98s4.76-5.86.66-13.91z" fill="#d71921"/><path d="m148.79 209.89c.58 3.19 7.33 2.98 9.73 1.86s3.23-4.43 3.23-4.43-.29.29-1.7 1.12-3.64.91-3.64.91 3.15-1.37 4.6-3.65.87-4.06.87-4.06-1.28 2.53-3.11 3.98c-1.82 1.45-5.43 2.07-5.43 2.07s4.47-2.4 5.76-4.18c1.28-1.78 1.62-3.93 1.62-3.93s-6.83 4.51-5.92 3.85 4.47-4.72 4.47-4.72l-3.06-.58-2.11 1.45.14.4c.21.6.18 1.25-.07 1.83l-1.98 4.56c-.13.31-.33.59-.57.82z" fill="#fff"/><path d="m151.37 237.33c-.65.37-2.27.97-4.45.96-2.98-.02-5.81-.15-7.29-1.47-2.34-2.08-3.38-4.74-3.38-4.74.04 1.37-.15 2.81-.91 3.73 0 0 4.22 2.38 4.87 6.2.5 2.91 11.56 3.4 12.37-.64.74-3.68 2.41-5.46 3.97-5.56-.61-1.37-.7-3.73-.7-3.73s-2.64 4.2-4.48 5.25z" fill="#fff"/><path d="m168.98 191.33s.07-6.48-4.76-8.01c.07 1.9-1.03 3.91-1.46 4.57 1.46-.66-.85 2.17-.95 3.2-.2 2.05-1.88 3.64-5.31 3.78-.62-.07-1.03-.24-1.23-.31l3.99 3.55c4.01-.74 5.15-5.52 5.19-5.83.03-.25.39.51.7 1.94.07.22.73 5.2.05 8.75 2.65-5.03 1.82-12.04 1.82-12.04-.16-.76-.33-1.26-.38-1.43-.23-.66 2.34 1.83 2.34 1.83z" fill="#d71921"/><path d="m134.22 198.67-.17.03s.63.71 1.42 1.59c1.1 1.22 2.53 2.75 3.06 3.13.62.45-2.3-1.46-4.26-2.75-.94-.62-1.67-1.1-1.67-1.1s.09.56.34 1.35c.24.75.64 1.71 1.27 2.59 1.28 1.78 5.76 4.18 5.76 4.18s-3.6-.62-5.43-2.07c-1.82-1.45-3.11-3.98-3.11-3.98s-.58 1.78.87 4.06 4.6 3.65 4.6 3.65-2.24-.08-3.65-.91-1.7-1.12-1.7-1.12.83 3.31 3.23 4.43 9.15 1.33 9.73-1.86l-2.82-2.71c-.24-.23-.43-.51-.57-.82l-1.98-4.56c-.25-.58-.28-1.23-.07-1.83l.14-.4-1.22-.84-.89-.61-2.69.51z" fill="#fff"/><path d="m118.33 183.09c-1.63 3.29-.93 6.23-6.53 11.23.3.2 1.12-.2 1.52-.2-2.74 3.15-2.44 7.82-2.24 9.04.51.1 2.03-.81 2.54-1.02.51-.2-1.02 6.1 2.44 11.48.41-.81.91-.81 1.12-1.83.22.1.47.23.73.39 3.28 1.93 9.21 8.07 11.56 12.11.71-.3 1.52-.81 1.52-.81s.31 1.69 1.5 3.92c.8 1.5 3.55 4.06 3.55 4.06-.31-2.55-1.71-7.3-1.39-9.81-6.1-2.44-11.69-8.84-12.8-10.47.81.41 2.13.2 2.44.51-.13-.13-1.89-1.87-3.74-4.15-1.83-2.26-3.75-5.05-4.29-7.33 0 0 4.47-5.79 4.57-10.87.05-2.29.73-5.1 1.93-7.58.78-1.62 1.79-3.11 2.98-4.2-5.43 1.39-7.39 5.48-7.41 5.53z" fill="#fff"/><path d="m157.09 192.08c.18.26.48.43.82.43.53 0 .95-.41.99-.93.72-.3 1.35-.93 1.78-1.46.06.4.11 1.71-1.56 2.77-1.99 1.26-3.48-.41-3.48-.41.64.01 1.08-.15 1.45-.4z" fill="#d71921"/><path d="m158.89 191.59c0-.02.01-.04.01-.07 0-.34-.17-.64-.43-.82.86-.83 2.18-.69 2.18-.69s.01.05.02.12c-.43.52-1.06 1.15-1.78 1.46z" fill="#fff"/><path d="m136.29 192.08c-.18.26-.48.43-.82.43-.53 0-.95-.41-.99-.93-.72-.3-1.35-.93-1.78-1.46-.06.4-.11 1.71 1.56 2.77 1.99 1.26 3.48-.41 3.48-.41-.65.01-1.09-.15-1.45-.4z" fill="#d71921"/><path d="m134.48 191.59c0-.02-.01-.04-.01-.07 0-.34.17-.64.43-.82-.86-.83-2.18-.69-2.18-.69s-.01.05-.02.12c.43.52 1.06 1.15 1.78 1.46z" fill="#fff"/><path d="m136.08 213.67c.04 1.14.51 4.03 3.35 6.08-.91-2.96.32-6.08.32-6.08s-2.6.36-3.67 0z" fill="#fff"/><path d="m155.86 213.67c-1.07.36-3.67 0-3.67 0s1.22 3.12.32 6.08c2.84-2.05 3.31-4.93 3.35-6.08z" fill="#fff"/><path d="m141.02 213.9s4.32-.83 5.67-.83c1.52 0 4.79.87 4.79.87s.72 1.68.28 2.69c0 0-.37-1.34-.83-1.34-.16 0-2.69-.02-4.24 0-1.75.02-5.31 0-5.43 0-.41-.01-.8 1.36-.8 1.33-.08-.74-.07-2.59.56-2.72z" fill="#fff"/><path d="m138.64 234.3 2.41 1.14c-.32-.43-1.89-3.75-1.54-6.08-1.86 3.76-.87 4.94-.87 4.94z" fill="#fff"/><path d="m152.89 234.3s.99-1.18-.87-4.93c.36 2.33-1.22 5.64-1.54 6.08z" fill="#fff"/><path d="m143.38 220.19 3.25 5.89-.41-5.97s3.48 1.28 4.57 5.36c1.08 4.04.81 4.93-3.29 5.36-7.28 0-7.2-1.79-7.2-1.79-.27-3.75 3.08-8.85 3.08-8.85z" fill="#d71921"/><path d="m149.52 235.27s-2.04.34-3.83.33c-2.19-.02-3.34-.35-3.74-.49-.12-.04-.21-.13-.25-.24-.16-.39-.47-1.31-.12-2.22 0 0 .21 1.11.6 1.11.14 0 7.1-.05 7.2-.05.34.01.67-1.08.68-1.06.18.7-.01 2.52-.54 2.62z" fill="#fff"/><path d="m164.22 183.31c-1.39 2.15-2.26 4.66-2.26 4.66.15 2.74-.83 4.31-1.56 5.09-.15.16-.32.31-.51.42-2.18 1.37-4.44 1.04-4.63 1.07 0 0 2.71 1.52 5.42.01 1.32-.74 1.36-3.23 1.36-3.23 3-2.23 2.18-8.02 2.18-8.02z" fill="#fff"/><path d="m154.89 169.8c1.17 1.32 1.62 1.79 2 3.05-4.77-3.93-13.91-5.31-19.7.94 2.73-6.63 14.27-8.1 17.99-8.24 0 0-8.89-3.86-19.78 1.15-.9.41-1.81.89-2.73 1.43-.72.42-4.68-1.15-6.22-2.95-.01-.01-.02-.02-.03-.03-2.32-2.25-3.95-4-6.4-3.96-1.2 1.36-1.87 4.25-1.66 6.96.21 2.72.95 5.48 2.38 6.76.75-.7 2.44-1.93 2.44-1.93s-2.09-1.86-2.63-5.22c-.11-.66-.16-1.36-.12-2.13.02-.35.15-1.03.21-1.41.17.32.84.96 1.18 1.27 1.05.92 2.61 1.69 3.2 1.88.02.01.05.02.06.02.71.2-2.11.41-2.11.41s1.73 2.34 5.49 3.25c.13.03-3.01 1.9-9.51 11.05.88-.97 1.67-1.8 2.73-2.53 1.19-.81 4.03-1.98 4.03-1.98.79-.7 1.66-1.22 2.6-1.52-1.42 1.52-2.3 3.19-2.84 4.85-1.61 5.03.01 9.99-.14 10.45-.2.61 2.24-2.03 2.24-2.03s-.42 1.27-.64 3.19c-.35 1.99-.54 5.28.81 9.04.28.79.63 1.59 1.06 2.41-.18-.92-.28-1.82-.33-2.68-.15-2.45.37-6.87.36-6.89 1.12 1.8 3.1 2.91 5.63 3.6l3.67-3.43c-.59.22-3.06.67-4.38-.58-.07.39-.21.47-.16 1.05 0 0-2.41-.66-2.19-3.74-2.08-2.93-1.17-3.81.07-3.37-.59-1.38-2.59-3.99-2.19-8.5.04-.5.11-1.03.22-1.58 0 0 .13-.43.48-1.11-.17.37-.38 2.08-.31 2.52.95 5.89 6.09 9.98 6.02 9.36-.07-.66.56-1.36-.25-2.17.95.07 1.9 1.06 3.07 3.63.32.67 3.24 2.82 3.24 2.82l.02.06 2.17 1.52-3.58-.68c-.23-.04-.46-.02-.67.08l-1.55.69 1.85.39c.28.06.53.19.73.39l2.31 2.27-2.84-1.31-.84-.26c-.36-.11-.74-.05-1.05.16l-1.35.92 1.55-.03c.38-.01.75.14 1.01.42l1.16 1.2-.26 1.34c-.09.44-.06.88.08 1.31l.55 1.74c.1.32.32.59.62.74l4.32 2.29c.47.25 1.04.25 1.51 0l4.28-2.28c.29-.16.52-.42.62-.74l.55-1.74c.13-.42.16-.87.08-1.31l-.26-1.34 1.57-1.29c.19-.16.43-.24.68-.24l1.39.01-1.41-.96c-.25-.17-.57-.21-.85-.09l-3.73 1.48 2.34-2.3c.18-.18.41-.3.65-.35l1.89-.4-1.67-.74c-.13-.06-.28-.08-.42-.05l-3.71.7 2.11-1.52 2.27-.33.15-.08c.01-.01.05-.06.05-.07.19-.34-.05-1.97.2-2.17v.06c.29.07 1.65-2.88 3.85-4.23-.66.88-.62 1.78-.23 2.23 3.71-1.44 5.28-7.78 5.43-9.68-.03-.03-1.54-6.21-8.43-8.92zm-10.33 3.91c.44-1.17 2.12-2.05 2.12-2.05s1.61.73 2.05 2.05c5.46.5 7.81 3.44 8.74 5.43-.5-.72-5.78-3.6-10.82-1.57-5.5-2.69-10.33 1.8-10.33 1.8 1.72-5.76 8.49-5.54 8.24-5.66zm2.12 11.66c-2.54-3.62-8.44-2.54-10.51-.64 3.16-4.87 9.18-4.26 9.18-4.26l1.33-1.25s.56.65 1.16 1.32c.54-.44 6.71-.46 9.83 3.8-.48-.71-7.14-3.19-10.99 1.03z" fill="#d71921"/><path d="m139.12 192.47 2.63.48c-.21-1.55-3.76-5.9-7.06-7.33 0 0 1.04 2.18.41 2.39-.63.2-3.26-3.27-3.77-4.13 0 0-.11 1.82 1.49 3.69 1.46 1.71 3.89.54 6.3 4.9z" fill="#fff"/><path d="m154.04 192.65-2.48.31c.45-1.45 4.29-6.02 6.91-7.16 0 0-1.04 2.18-.41 2.39.63.2 3.12-3.13 3.63-4 0 0 .25 1.69-1.35 3.56-1.46 1.71-3.89.54-6.3 4.9z" fill="#fff"/><path d="m133.71 193.7c-.04-.03-.09-.07-.14-.11-.03-.02-.05-.04-.08-.07-.77-.66-2.22-2.34-2.05-5.55 0 0-.58-2.82-1.98-4.97 0 0-1.1 6.09 1.9 8.34 0 0-.46 3.08 2.18 3.74 0 0 1.86.69 4.58-.52-.55.21-3.01.15-4.41-.86z" fill="#fff"/><path d="m173.67 183.09c1.63 3.29.93 6.23 6.53 11.23-.3.2-1.12-.2-1.52-.2 2.74 3.15 2.44 7.82 2.24 9.04-.51.1-2.03-.81-2.54-1.02-.51-.2 1.02 6.1-2.44 11.48-.41-.81-.91-.81-1.12-1.83-.22.1-.47.23-.73.39-3.28 1.93-9.21 8.07-11.56 12.11-.71-.3-1.52-.81-1.52-.81s-.31 1.69-1.5 3.92c-.8 1.5-3.55 4.06-3.55 4.06.31-2.55 1.71-7.3 1.39-9.81 6.1-2.44 11.69-8.84 12.8-10.47-.81.41-2.13.2-2.44.51.13-.13 1.89-1.87 3.74-4.15 1.83-2.26 3.75-5.05 4.29-7.33 0 0-4.47-5.79-4.57-10.87-.05-2.29-.73-5.1-1.93-7.58-.78-1.62-1.79-3.11-2.98-4.2 5.42 1.39 7.38 5.48 7.41 5.53z" fill="#fff"/><path d="m99.75 176.08s1.1 3.22.87 5.85c-.22 2.56-2.37 5.24-2.37 5.24s3.65-2.22 3.76-2.24c.12-.02.52-4.57.6-4.69.07-.12-2.51-4.33-2.51-4.33z" fill="#fff"/><path d="m86.77 197.11-1.44.46-1.15 1.05s2.02.73 3.26-.77c.23-.28.39-.53.5-.76" fill="#d71921"/><path d="m86.77 197.11-.65-.34 1.79-1.12s.5.46.02 1.44c0 0-.49.24-1.16.02z" fill="#fff"/><path d="m76.54 209.67c.8-.4 4.94-4 4.63-3.81-.32.19-5.1 1.79-4.81 1.67s3.83-3.41 3.83-3.41l-2.82-.34-5.66 1.74c-.19.88.63 2.71-1.39 5.17.74 1.33 3.44 2.17 3.44 2.17s2.45.15 6.32-2.09c.34-.79.86-1.58 1.64-2.3-.73.42-5.98 1.6-5.18 1.2z" fill="#fff"/><path d="m98.7 173.93c-2.22.68-2.75 3.53-2.86 4.49-.12.96.07 2.2-1.9 4.61 2.68-1.32 6-5.4 6.03-6.24.79 1.11 2.84 2.85 1.59 7.67l2.74-.62c-.01-.01 1.09-5.55-5.6-9.91z" fill="#d71921"/><path d="m76.38 214.2c.52 1.04 2.16 3.48 5.63 4.18-2.08-2.34-2.26-5.72-2.26-5.72s-2.24 1.42-3.37 1.54z" fill="#fff"/><path d="m92.49 229.24c-.79-.63-2.58-2.48-2.56-5.54 1.62 2.19 4.47 2.98 4.47 2.98s-.75 2.04-1.91 2.56z" fill="#fff"/><path d="m95.05 213.32-1.68 3.53.1-3.82s-1.82 1.12-1.82 5.48c0 2.64.77 4.48 2.88 5.41 1.87-.65 3.69-4.47 3.69-4.47-2.64-1.75-3.17-6.13-3.17-6.13z" fill="#d71921"/><path d="m68.99 206.34-.79 1.39 1.6 2.28c.97-.81.98-1.82 1.12-3.68 0 0-.6-.06-1.93.01z" fill="#d71921"/><path d="m104.94 197.09c-.15 2.48-.58 7.13 4.63 10.94-1.97-1.97-3.66-10.29.07-14.55 1.9-2.17 3.25-8.55 6.16-11.47.14-.14.27-.4.27-.4-5.19 2.78-9.43 5.58-9.16 5.14.67-1.09 3.33-6.16 7.58-8.21-1.52.03-10.78 3.16-15.69 7.89.08-.6-.08-1.91.4-2.91-.12.07-7.53 2.94-12.22 7.08.04-.46.44-1.55.66-1.86-5.26 1.8-9.87 8.57-9.87 8.57s.28.9.3 1.24c-.02.01-.03.02-.05.03-.2.12-.53.35-.53.35-5.16 3.4-8.14 6.7-8.14 6.7l2.35-.1 5.63-1.74c.71-.19 4.53-1.38 5.1-1.79 1.45 2.85 10.78 4.48 10.97 4.42-2.54 1.02-5.54 1.11-5.85 1.09l-6.63 3.31s7.46-3.14 13.93.55c2.93 1.92 4.79 3.84 4.84 6.37l.37-.63c-.29-3.16-1.38-5.72-7.46-8.8 0 0 4.6-.1 8.91 1.35-.85-2.21-.35-6.78.48-9.43 1.49-4.77.05-9.35-1.99-12.96 1.36 1.23 5.22 5.29 4.94 9.82zm-17.61 3.6c-4.46-1.07-7.7-.24-8.2-.02l6.2-6.21.06 1.85c1.67-2.75 2.04-3.25 4.94-4.31.55 2.59.51 5.65-3 8.69zm10.91-10.75c-1 1.11-2.13 3.99-1.82 5.22-2.95 2.01-3.14 8.01-3.14 8.01-.83-2.32-.53-7.86.03-9.07.56-1.2 5.93-5.28 4.93-4.16z" fill="#d71921"/><path d="m107.32 213.26s1.93-.33 4.85 1.83c-.93-1.14-1.66-5.85-1.66-5.85-4.79 2.03-7.04-6.74-6.97-7.71 0 0-1.76 5.97 1.48 12.09.02.05-1.98-1.93-6.36-2.83 0 0 5.72 6.32 1.28 8 0 0 0 .01.01.04 2.63 7.64-2.92 10.11-2.92 10.11l.22-3.53c-.7.77-.81 3.67-4.35 4.67-.63 1.58.57 3.5.57 3.5l.79-.99s2.67 1.83 2.84 2.05c1.06-1.02 5.07-4.16 7.23-5.33-.04-1.09-.11-4.55.32-6.73 1.15-4.07 3.76-5.06 5.53-4.84-.32-1.09-.83-3.33-2.86-4.48z" fill="#fff"/><path d="m79.11 200.69c.2-3.18 2.7-6.87 6.99-9.13-.73.73-1.24 1.43-1.2 2.03 0 0 4.58-5.11 13.36-5.11-9.39 2.77-12.9 7.85-12.9 7.85l-.06-1.85z" fill="#fff"/><path d="m79.11 200.69s2.14-1.52 8.22 0c0-.05-3.69.84-3.69.84-.61-.56-2.89-1.07-4.53-.84z" fill="#fff"/><path d="m100.49 197.62-4.07-2.46c-1.74.79-2.92 3.05-3.14 8.01 0 0 1.89-3.73 7.21-5.55z" fill="#fff"/><path d="m108.69 214.51s4.94 1.63 6.15 4.27c3.51.57 10.64 5.73 11.96 8.79 0 0 .04-5.9-10.27-11.24 0 0-4.85-2.37-6.03-7.08 0 0-2.47 3.6-3.89 3.25-.63-.15-3.06 3.65 1.09 4.57-.27-.82 2.2-1.7.99-2.56z" fill="#fff"/><path d="m192.27 176.08s-1.1 3.22-.87 5.85c.22 2.56 2.37 5.24 2.37 5.24s-3.65-2.22-3.76-2.24c-.12-.02-.52-4.57-.6-4.69-.07-.12 2.51-4.33 2.51-4.33z" fill="#fff"/><path d="m205.25 197.11 1.44.46 1.15 1.05s-2.02.73-3.26-.77c-.23-.28-.39-.53-.5-.76" fill="#d71921"/><path d="m205.25 197.11.65-.34-1.79-1.12s-.5.46-.02 1.44c0 0 .49.24 1.16.02z" fill="#fff"/><path d="m215.48 209.67c-.8-.4-4.94-4-4.63-3.81.32.19 5.1 1.79 4.81 1.67s-3.83-3.41-3.83-3.41l2.82-.34 5.66 1.74c.19.88-.63 2.71 1.39 5.17-.74 1.33-3.44 2.17-3.44 2.17s-2.45.15-6.32-2.09c-.34-.79-.86-1.58-1.64-2.3.73.42 5.98 1.6 5.18 1.2z" fill="#fff"/><path d="m193.32 173.93c2.22.68 2.75 3.53 2.86 4.49.12.96-.07 2.2 1.9 4.61-2.68-1.32-6-5.4-6.03-6.24-.79 1.11-2.84 2.85-1.59 7.67l-2.74-.62c.01-.01-1.09-5.55 5.6-9.91z" fill="#d71921"/><path d="m215.64 214.2c-.52 1.04-2.16 3.48-5.63 4.18 2.08-2.34 2.26-5.72 2.26-5.72s2.24 1.42 3.37 1.54z" fill="#fff"/><path d="m199.53 229.24c.79-.63 2.58-2.48 2.56-5.54-1.62 2.19-4.47 2.98-4.47 2.98s.75 2.04 1.91 2.56z" fill="#fff"/><path d="m196.97 213.32 1.68 3.53-.1-3.82s1.82 1.12 1.82 5.48c0 2.64-.77 4.48-2.88 5.41-1.87-.65-3.69-4.47-3.69-4.47 2.64-1.75 3.17-6.13 3.17-6.13z" fill="#d71921"/><path d="m223.03 206.34.79 1.39-1.6 2.28c-.97-.81-.98-1.82-1.12-3.68 0 0 .6-.06 1.93.01z" fill="#d71921"/><path d="m187.08 197.09c.15 2.48.58 7.13-4.63 10.94 1.97-1.97 3.66-10.29-.07-14.55-1.9-2.17-3.25-8.55-6.16-11.47-.14-.14-.27-.4-.27-.4 5.19 2.78 9.43 5.58 9.16 5.14-.67-1.09-3.33-6.16-7.58-8.21 1.52.03 10.78 3.16 15.69 7.89-.08-.6.08-1.91-.4-2.91.12.07 7.53 2.94 12.22 7.08-.04-.46-.44-1.55-.66-1.86 5.26 1.8 9.87 8.57 9.87 8.57s-.27.9-.3 1.24c.02.01.03.02.05.03.2.12.53.35.53.35 5.16 3.4 8.14 6.7 8.14 6.7l-2.35-.1-5.63-1.74c-.71-.19-4.53-1.38-5.1-1.79-1.45 2.85-10.78 4.48-10.97 4.42 2.54 1.02 5.54 1.11 5.85 1.09l6.63 3.31s-7.46-3.14-13.93.55c-2.93 1.92-4.79 3.84-4.84 6.37l-.37-.63c.29-3.16 1.38-5.72 7.46-8.8 0 0-4.6-.1-8.91 1.35.85-2.21.35-6.78-.48-9.43-1.49-4.77-.05-9.35 1.99-12.96-1.35 1.23-5.22 5.29-4.94 9.82zm17.61 3.6c4.46-1.07 7.7-.24 8.2-.02l-6.2-6.21-.06 1.85c-1.67-2.75-2.04-3.25-4.94-4.31-.55 2.59-.51 5.65 3 8.69zm-10.91-10.75c1 1.11 2.13 3.99 1.82 5.22 2.95 2.01 3.14 8.01 3.14 8.01.83-2.32.53-7.86-.03-9.07-.56-1.2-5.93-5.28-4.93-4.16z" fill="#d71921"/><path d="m184.7 213.26s-1.93-.33-4.85 1.83c.93-1.14 1.66-5.85 1.66-5.85 4.79 2.03 7.04-6.74 6.97-7.71 0 0 1.76 5.97-1.48 12.09-.02.05 1.98-1.93 6.36-2.83 0 0-5.72 6.32-1.28 8 0 0 0 .01-.01.04-2.63 7.64 2.92 10.11 2.92 10.11l-.22-3.53c.7.77.81 3.67 4.35 4.67.63 1.58-.57 3.5-.57 3.5l-.79-.99s-2.67 1.83-2.84 2.05c-1.06-1.02-5.07-4.16-7.23-5.33.04-1.09.11-4.55-.32-6.73-1.15-4.07-3.76-5.06-5.53-4.84.32-1.09.83-3.33 2.86-4.48z" fill="#fff"/><path d="m212.91 200.69c-.2-3.18-2.7-6.87-6.99-9.13.73.73 1.24 1.43 1.2 2.03 0 0-4.58-5.11-13.36-5.11 9.39 2.77 12.9 7.85 12.9 7.85l.06-1.85z" fill="#fff"/><path d="m212.91 200.69s-2.14-1.52-8.22 0c0-.05 3.69.84 3.69.84.61-.56 2.89-1.07 4.53-.84z" fill="#fff"/><path d="m191.53 197.62 4.07-2.46c1.74.79 2.92 3.05 3.14 8.01 0 0-1.89-3.73-7.21-5.55z" fill="#fff"/><path d="m183.33 214.51s-4.94 1.63-6.15 4.27c-3.51.57-10.64 5.73-11.96 8.79 0 0-.04-5.9 10.27-11.24 0 0 4.85-2.37 6.03-7.08 0 0 2.47 3.6 3.89 3.25.63-.15 3.06 3.65-1.09 4.57.27-.82-2.2-1.7-.99-2.56z" fill="#fff"/></svg>