<svg height="54.549721" viewBox="0 0 46.114269 14.432947" width="174.29015" xmlns="http://www.w3.org/2000/svg"><g fill="#ed1b2f" transform="translate(-34.317612 -175.634559)"><path d="m0 0h-11.441v-30.15h11.441c4.618 0 8.543 1.429 11.35 4.131 2.812 2.705 4.297 6.49 4.297 10.944s-1.485 8.238-4.297 10.945c-2.807 2.702-6.732 4.13-11.35 4.13m-5.02-6.04h4.957c5.729 0 9.014-3.293 9.014-9.035 0-5.657-3.37-9.035-9.014-9.035h-4.957z" transform="matrix(.35277777 0 0 -.35277777 38.486036 176.17011)"/><path d="m0 0c-2.115 0-3.771-1.675-3.771-3.814 0-2.115 1.656-3.771 3.771-3.771 2.127 0 3.793 1.656 3.793 3.771 0 2.139-1.666 3.814-3.793 3.814" transform="matrix(.35277777 0 0 -.35277777 46.102014 175.76685)"/><path d="m45.047844 186.80664h2.130778v-7.41785h-2.130778z"/><path d="m0 0c-1.52 1.581-3.611 2.411-6.093 2.411-2.567 0-4.975-1.049-6.78-2.954-1.882-1.984-2.919-4.748-2.919-7.782 0-3.024 1.037-5.781 2.919-7.763 1.806-1.903 4.214-2.951 6.78-2.951 2.505 0 4.538.791 6.051 2.353v-.762c0-3.245-2.088-5.182-5.586-5.182-2.335 0-4.567.691-6.631 2.053l-.255.168-2.176-4.981.172-.121c2.237-1.581 5.648-2.524 9.124-2.524 6.988 0 11.328 4.146 11.328 10.82v19.076h-5.934zm-4.696-13.443c-2.843 0-4.907 2.152-4.907 5.118 0 2.979 2.064 5.141 4.907 5.141 2.877 0 4.886-2.114 4.886-5.141 0-2.966-2.054-5.118-4.886-5.118" transform="matrix(.35277777 0 0 -.35277777 53.837655 180.04509)"/><path d="m0 0c-2.115 0-3.772-1.675-3.772-3.814 0-2.115 1.657-3.771 3.772-3.771 2.127 0 3.793 1.656 3.793 3.771 0 2.139-1.666 3.814-3.793 3.814" transform="matrix(.35277777 0 0 -.35277777 58.47386 175.76685)"/><path d="m57.41976 186.80664h2.130778v-7.41785h-2.130778z"/><path d="m0 0c-1.194-1.302-2.673-1.991-4.277-1.991-2.819 0-4.865 2.268-4.865 5.394s2.055 5.395 4.886 5.395c1.623 0 2.917-.609 4.194-1.972l.166-.178 4.356 3.637-.149.196c-1.951 2.564-4.94 3.976-8.419 3.976-6.583 0-11.18-4.546-11.18-11.054s4.597-11.053 11.18-11.053c3.46 0 6.456 1.404 8.438 3.952l.152.194-4.314 3.687z" transform="matrix(.35277777 0 0 -.35277777 66.071953 184.29437)"/><path d="m0 0s-1.38-.258-3.218-.258c-5.698 0-7.592 2.932-7.592 7.955v21.135h6.005v-20.51c0-2.311.667-3.111 2.564-3.262 1.13-.09 2.241.087 2.241.087z" transform="matrix(.35277777 0 0 -.35277777 80.299586 186.71534)"/><path d="m0 0c-1.409-1.161-3.254-1.854-4.952-1.854-2.606 0-4.352 1.325-4.95 3.74h14.446l.03.223c.065.475.109 1.238.109 1.897v.001c-.011 3.204-.995 5.956-2.847 7.958-1.858 2.01-4.411 3.073-7.381 3.073-3.088 0-5.741-1.068-7.674-3.088-1.934-2.02-2.956-4.797-2.956-8.028 0-3.224 1.052-5.98 3.042-7.97 1.975-1.976 4.695-3.02 7.863-3.02 2.933 0 5.475.678 7.534 2.091.838.576 1.501 1.302 1.726 1.567zm-5.587 9.76c2.138 0 3.601-1.272 4.147-3.591h-8.444c.4 1.706 1.479 3.591 4.297 3.591" transform="matrix(.35277777 0 0 -.35277777 73.835568 184.49958)"/></g></svg>