<svg enable-background="new 0 0 160 200" height="200" viewBox="0 0 160 200" xmlns="http://www.w3.org/2000/svg"><path d="m149.8 171.6h-4.3c-.7 0-1-.1-1.3-.3-.2-.2-.3-.5-.3-1.1v-2.4h4.3c.3 0 .3-.1.3-.3v-1c0-.3-.1-.3-.3-.3h-4.3v-3.2h5.7c.3 0 .3-.1.3-.3v-1.1c0-.3-.1-.3-.3-.3h-9.5c-.1 0-.1.1-.1.1l.1.1c.1.2.7.8.8.9.1.2.2.3.2.5v7.7c0 .9.1 1.5.5 1.9.5.5 1.2.7 2.3.7h5.9c.3 0 .3-.1.3-.3v-1c0-.2 0-.3-.3-.3z" fill="#ff0045"/><path d="m9.8 171.6h-4.3c-.7 0-1-.1-1.3-.3-.2-.2-.3-.5-.3-1.1v-2.4h4.3c.3 0 .3-.1.3-.3v-1c0-.3-.1-.3-.3-.3h-4.2v-3.2h5.7c.3 0 .3-.1.3-.3v-1.1c0-.3-.1-.3-.3-.3h-9.6c-.1 0-.1.1-.1.1l.1.1c.1.2.7.8.8.9.1.2.2.3.2.5v7.7c0 .9.1 1.5.5 1.9.5.5 1.2.7 2.3.7h5.9c.3 0 .3-.1.3-.3v-1c.1-.2 0-.3-.3-.3z" fill="#ff0045"/><path d="m61.5 197.2h-9.9c2-1.9 4.3-4.3 6.1-6.2 2.6-2.7 3.7-4.7 3.7-7.1 0-3.3-2.7-5.9-7.8-5.9-2 0-4.1.3-5.9 1.1-.5.2-.7.4-.7 1v1.6c0 .2.1.3.3.3.1 0 .3-.1.9-.4 1.7-.9 3.5-1.6 5.2-1.6 2.2 0 3.9 1.3 3.9 3.5 0 1.5-.7 3.1-2.9 5.5-2.1 2.2-5.8 6.1-7.5 7.9-.4.4-.5.6-.5 1.2v.6c0 .5.1.6.6.6h14.5c.5 0 .6-.1.6-.6v-1.1c0-.3-.1-.4-.6-.4z" fill="#ff0045"/><path d="m91.6 178.6h-4.8c-.2 0-.3.1-.3.3 0 .1 0 .1.1.2.4.4 1.1 1.1 1.5 1.6.3.3.3.4.3.9v17.3c0 .5.1.6.7.6h2.7c.5 0 .7-.1.7-.6v-19.6c-.2-.5-.3-.7-.9-.7z" fill="#ff0045"/><path d="m22.2 161.3h-1.2c-.3 0-.3.1-.3.3v7.5c-1.9-2.1-5.5-6.3-6.5-7.3-.4-.5-.5-.5-.9-.5h-1.5c-.3 0-.4.1-.4.3v11.2c0 .3.1.3.3.3h1.1c.3 0 .3-.1.3-.3v-7.7c1.9 2.1 4.9 5.6 6.7 7.5.4.5.5.5.9.5h1.3c.3 0 .4-.1.4-.3v-11.2c.1-.2 0-.3-.2-.3z" fill="#ff0045"/><path d="m46.9 172.9c.2-.5.5-1.2.9-2.1h5.3c.4.9.7 1.6 1 2.1.1.3.2.3.5.3h2.5c.2 0 .3-.1.3-.2l-.1-.1c-2.2-4.5-4.3-8.8-5.5-11.1-.2-.5-.3-.5-.9-.5h-2.7c-.1 0-.1.1-.1.1l.1.1c.3.3.6.7.8.9.2.3.3.3.3.5 0 .1 0 .1-.1.2-.9 2.1-2.6 5.7-3.9 8.6h-3.3c-.6 0-1-.1-1.2-.3-.3-.2-.3-.5-.3-1.1v-8.7c0-.3-.1-.3-.3-.3h-3.5c-.1 0-.1.1-.1.1l.1.1c.1.1.7.8.8.9.1.2.1.3.1.5v7.5c0 1 .2 1.6.7 2s1.1.6 2.2.6h6c.2.2.3.2.4-.1zm3.5-7.9c.6 1.3 1.3 2.8 2 4.2h-3.9c.7-1.5 1.3-3 1.9-4.2z" fill="#ff0045"/><path d="m74.3 178c-7.5 0-11.2 5.5-11.2 11s3.7 11 11.2 11 11.2-5.5 11.2-11-3.8-11-11.2-11zm0 19.9c-4.3 0-6.7-3.9-6.7-8.9s2.4-8.9 6.7-8.9 6.7 3.8 6.7 8.9c0 5-2.4 8.9-6.7 8.9z" fill="#ff0045"/><path d="m139.6 171.7h-3.1c-.6 0-1-.1-1.2-.3-.3-.2-.3-.5-.3-1.1v-8.7c0-.3-.1-.3-.3-.3h-3.5c-.1 0-.1.1-.1.1l.1.1c.1.1.7.8.8.9.1.2.2.3.2.5v7.6c0 1 .2 1.6.7 2s1.2.6 2.2.6h4.9c.3 0 .3-.1.3-.3v-1c-.3 0-.4-.1-.7-.1z" fill="#ff0045"/><path d="m103.7 178c-5.1 0-8.9 2.9-8.9 7.3 0 4 3.4 6.8 8.1 6.8 2.6 0 4.9-1.1 5.9-1.9-.9 4.5-4.9 6.9-10.6 7.2-.5 0-.6.1-.6.5v1.1c0 .5.3.5 1.8.5 8.7 0 14.1-4.9 14.1-11.6 0-5.9-3.5-9.9-9.8-9.9zm4 10.5c-.8.7-2.1 1.1-3.6 1.1-3.1 0-5-1.7-5-4.7 0-2.9 1.9-4.8 4.7-4.8 1.7 0 3.1.7 4.1 1.9.7 1 1.2 2.3 1.2 3.6-.1 1.2-.5 2.2-1.4 2.9z" fill="#ff0045"/><path d="m157.2 166.4c-.7-.4-1-.5-1.7-.9-1.5-.7-1.7-1.1-1.7-1.6 0-.7.9-1.2 2.1-1.2.9 0 2 .3 3 .9.1.1.1.1.2.1s.2-.1.2-.3v-1.2c0-.3-.1-.5-.4-.6-.9-.3-2-.5-3.1-.5-2.6 0-4.5 1.2-4.5 3.4 0 1.3.8 2.4 2.2 3.1.8.5 1.3.7 2.1 1.1 1.3.7 1.7 1.1 1.7 1.7 0 .9-.9 1.5-2 1.5-1.2 0-2.3-.4-3.6-1.2-.1-.1-.1-.1-.2-.1s-.2.1-.2.3v1.3c0 .4.1.5.6.7.9.4 2.1.6 3.5.6 2.8 0 4.5-1.5 4.5-3.7-.1-1.4-.7-2.4-2.7-3.4z" fill="#ff0045"/><path d="m121.1 161.4c0-.1-.1-.1-.2-.1h-3.2c-.1 0-.1.1-.1.1l.1.1c.3.3.7.8.9 1.1.1.1.1.1.1.2s0 .1-.1.1c-.5 1.2-2 4.5-2.9 6.6-1.4-3.2-2.6-6.1-3.3-7.7-.2-.4-.3-.5-.9-.5h-2.3c-.2 0-.3.1-.3.2l.1.2c.5 1 1.2 2.6 1.5 3.3l-1.9 4.6c-1.2-2.8-2.8-6.5-3.4-7.7-.1-.4-.3-.5-.8-.5h-2.4c-.2 0-.3.1-.3.2l.1.2c.6 1.3 4.1 9.1 5.1 11.3.1.2.2.3.4.3h1.2c.2 0 .3-.1.4-.3.7-1.5 1.8-4.2 2.5-5.9.9 2 2.1 4.7 2.7 5.9.1.2.2.3.4.3h1.2c.2 0 .3-.1.4-.3.9-2.2 3.9-8.9 5-11.3 0-.2 0-.3 0-.4z" fill="#ff0045"/><path d="m125.5 161.6c-.1-.2-.2-.3-.5-.3h-1c-.3 0-.4.1-.5.3-.4.9-4.7 10.4-5.1 11.3 0 .1-.1.1-.1.2s.1.2.3.2h1.2c.3 0 .4-.1.5-.3.3-.6.6-1.3.9-2.1h5.3c.4.8.7 1.5 1 2.1.1.3.2.3.5.3h2.6c.2 0 .3-.1.3-.2l-.1-.1c-1.7-4.2-4.2-9.2-5.3-11.4zm-3.4 7.6c.6-1.3 1.2-2.7 1.9-4.2.6 1.3 1.3 2.8 2 4.2z" fill="#ff0045"/><path d="m35.4 166.8h-4.4c-.1 0-.2.1-.2.1 0 .1.1.1.1.1.5.3 1.1.8 1.7 1.2.1.1.2.2.2.5v2.1c0 .3-.1.4-.2.5-.5.3-1.1.5-1.9.5-1.3 0-2.3-.5-2.9-1.5-.6-.8-.9-2-.9-3.3 0-2.9 1.7-4.6 4.2-4.6 1.2 0 2.3.4 3.5 1.2l.1.1c.1 0 .2-.1.2-.3v-1.4c0-.3-.1-.3-.3-.5-.9-.3-2.3-.6-3.8-.6-4.3 0-7.1 2.5-7.1 6.3 0 2 .8 3.6 2.1 4.6 1.2.9 2.7 1.5 4.8 1.5 1.7 0 3.7-.5 4.9-1.1.2-.1.2-.2.2-.4v-4.8c.1-.2 0-.2-.3-.2z" fill="#ff0045"/><path d="m91.8 174c1.6 0 3-.6 4.1-1.5.4.4.7.7 1.1 1 .3.3.4.3.7.3h2.9c.1 0 .2-.1.2-.2s0-.1-.1-.2c-1-.9-2.1-1.9-3.2-3 .4-.7.8-1.5 1.1-2.2h1.1c.1 0 .1-.1.1-.1v-.1c-.4-.9-1.3-2.8-1.7-3.7-.1-.1-.1-.1-.1-.1-.1 0-.1.1-.1.1-.1 2.1-.7 3.8-1.5 5.1-1.4-1.3-2.7-2.6-3.7-3.5-1.5-1.5-1.9-1.9-1.9-2.5 0-1 .9-1.5 1.9-1.5 1.1 0 1.9.5 1.9 1.1 0 .1-.1.2-.3.5s-.3.5-.3.7.1.5.3.9c.2.5.3.8.3 1.2 0 .1.1.1.1.1.1 0 .1 0 .2-.1.8-.7 1.4-1.5 1.4-2.7 0-2.1-1.5-3.3-3.8-3.3-1.1 0-2.1.3-2.9.9s-1.3 1.5-1.3 2.7c0 .9.3 1.6.9 2.3-1.6.7-2.7 1.9-2.7 3.5.1 2.5 2.2 4.3 5.3 4.3zm-1.2-6.5c1.1 1.1 2.6 2.5 4 3.8-.7.5-1.5.7-2.3.7-1.6 0-2.8-1.1-2.8-2.5.1-.7.5-1.5 1.1-2z" fill="#ff0045"/><path d="m71.7 173.2h4.1c2.2 0 4.1-.5 5.3-1.6 1.1-1.1 1.8-2.6 1.8-4.3s-.7-3.3-1.8-4.3c-1.2-1.1-3.1-1.6-5.3-1.6h-4c-.3 0-.4.1-.4.3v11.3c-.1.2 0 .2.3.2zm2.6-10.4h1c1.7 0 2.7.3 3.3 1.1.8.8 1.1 2 1.1 3.4s-.3 2.6-1.1 3.4c-.7.7-1.7 1.1-3.3 1.1h-1z" fill="#ff0045"/><path d="m58.8 173.2h1.1c.3 0 .3-.1.3-.3v-7.7c1.9 2.1 4.9 5.7 6.7 7.6.4.5.5.5.9.5h1.3c.3 0 .4-.1.4-.3v-11.2c0-.3-.1-.3-.3-.3h-1.1c-.3 0-.3.1-.3.3v7.5c-2.1-2.5-5.8-6.5-6.5-7.3-.4-.5-.5-.5-.9-.5h-2.9c-.1 0-.1.1-.1.1l.1.1c.3.3.7.9 1 1.1.2.2.2.3.2.5v9.7c-.2.2-.1.2.1.2z" fill="#ff0045"/><g fill="#5f717f"><path d="m83.4 156.3h1.2l1.4-5.3 1.5 5.3h1.1l1.4-4.1 1-3.2h-1.5l-1.5 4.9-1.2-4.9h-1.5l-1.3 4.9-.9-3.3-.5-1.6h-1.5z"/><path d="m114.4 149h-2.4v7.3h2.4c2.3 0 3.7-1.4 3.7-3.7 0-1.4-.6-2.5-1.6-3.1-.5-.3-1.3-.5-2.1-.5zm2.3 3.6c0 1.4-1 2.4-2.4 2.4h-.9v-4.7h1c.9 0 1.5.4 1.9 1 .3.3.4.8.4 1.3z"/><path d="m106.2 149v7.3h5v-1.3h-3.6v-6z"/><path d="m128.8 149v4.4c0 1.2.4 2.1 1.2 2.5.5.3 1.1.5 1.7.5.7 0 1.3-.1 1.7-.5.8-.5 1.2-1.3 1.2-2.5v-4.4h-1.4v4.3c0 .5-.1 1-.4 1.3s-.7.5-1.1.5c-1 0-1.5-.7-1.5-1.7v-4.4z"/><path d="m72.5 149v1.2h2v6.1h1.4v-6.1h2v-1.2z"/><path d="m136.1 149v7.3h1.4v-2.5h1.1c1.7 0 2.7-.9 2.7-2.4s-.9-2.4-2.5-2.4zm3.5 1.6c.1.2.2.4.2.7s-.1.5-.2.7c-.2.3-.6.5-1.1.5h-1v-2.2h1.1c.4-.1.7.1 1 .3z"/><path d="m125.1 150.2c.6 0 1.1.2 1.4.4.2.1.3.3.5.4l.1.1.6-.7.3-.4h-.1c-.1-.1-.3-.3-.5-.4-.5-.3-.9-.5-1.5-.7-.3-.1-.5-.1-.8-.1-1 0-1.9.3-2.5.8-.8.7-1.3 1.7-1.3 2.9 0 2.2 1.5 3.7 3.7 3.7.9 0 1.7-.2 2.3-.6.1-.1.3-.2.4-.3l-.1-.2-.6-.9-.1.1c-.1.1-.3.3-.5.3-.4.3-.9.3-1.5.3-.5 0-.9-.1-1.3-.3-.7-.4-1.1-1.1-1.1-2.1 0-.7.2-1.3.6-1.7.7-.3 1.3-.6 2-.6z"/><path d="m59.1 150c-.4-.4-.9-.7-1.4-.9-.4-.1-.9-.3-1.4-.3-2.3 0-3.7 1.5-3.7 3.7 0 .5.1 1.1.3 1.5.5 1.3 1.7 2.2 3.4 2.2.7 0 1.5-.1 2-.4.3-.1.5-.3.7-.5l.1-.1-.7-1.1-.1.1c-.1.1-.2.1-.3.2-.5.3-1 .5-1.7.5-.8 0-1.4-.3-1.8-.8-.3-.4-.5-.9-.5-1.5 0-.8.3-1.5.8-1.9.4-.3.9-.5 1.4-.5.8 0 1.4.3 1.7.7.1.1.1.1.1.1l.1.1.6-.7z"/><path d="m30 151.2c.5-.6 1.1-.9 1.9-.9.3 0 .7.1 1 .1.1 0 .3.1.4.1l.3-.9.1-.4c-.5-.1-1-.2-1.5-.2-.7 0-1.5.1-2 .5-.7.3-1.2.8-1.6 1.5-.4.6-.7 1.3-.8 2.1-.2 1.1-.1 2.2.6 2.9.5.4 1.1.7 2.1.7.2 0 .5 0 .7-.1.5-.1.9-.1 1.3-.3v-.3l.1-.9c-.4.2-1 .3-1.5.3-1.5 0-1.9-.9-1.7-2.5.1-.9.3-1.3.6-1.7z"/><path d="m60 149v7.3h1.4v-2.1l.5-.5.4-.5c.3.3.7.7.9 1.2.4.6.8 1.3 1 1.8v.1h1.5l-.1-.1c-.1-.1-.1-.2-.1-.3-.5-1.1-1.3-2.3-2.1-3.2-.1-.1-.3-.3-.4-.4l1.9-2.3.7-.9h-1.8l-1.3 1.6-1.4 1.7v-3.3z"/><path d="m23.4 152.6c.3-1.4 1.1-2.5 2.5-2.5.3 0 .6.1.9.1.2 0 .3.1.5.1l.3-.9.1-.4c-.5-.1-1-.2-1.5-.2-1.7 0-3 .8-3.7 2.1-.3.5-.5 1.2-.7 1.9-.2.9-.1 1.7.2 2.4 0 0 0 .1.1.1.4.7 1.1 1.1 2.5 1.1.2 0 .4 0 .6-.1.5-.1.9-.1 1.3-.3l.1-1.3c-.4.2-1 .3-1.5.3-.4 0-.7-.1-1-.2-.2-.1-.4-.3-.5-.5-.2-.3-.3-.7-.2-1.3 0 0 0-.2 0-.4z"/><path d="m71.8 155h-3.8v-1.7h3.4v-1.3h-3.4v-1.8h3.7v-1.2h-5.1v7.3h5.2z"/><path d="m44.8 156.3v-2.5h.9s0 0 .1.1c.7.7 1.3 1.4 1.7 2.5v.1h1.5l-.1-.1c-.5-1.1-1-1.9-1.8-2.7.1 0 .1-.1.1-.1.1 0 .1-.1.2-.1.7-.4 1.1-1.1 1.1-1.9 0-.5-.1-.9-.3-1.1-.4-.7-1.1-1.1-2.3-1.1h-2.7v7.3h1.5v-.4zm0-6.1h1.2c.8 0 1.3.4 1.3 1.1s-.5 1.1-1.3 1.1h-1.1v-2.2z"/><path d="m20 149-1.1 5.6-.3 1.7h1.4l1.4-7.3z"/><path d="m97.2 155.6c.8-.7 1.3-1.7 1.3-2.9 0-2.2-1.5-3.7-3.7-3.7-1 0-1.9.3-2.5.9-.7.7-1.2 1.7-1.2 2.8 0 2.1 1.5 3.7 3.7 3.7 1 0 1.8-.4 2.4-.8zm-.1-3c0 1.4-.9 2.4-2.2 2.4s-2.3-1-2.3-2.4.9-2.4 2.3-2.4c1.3 0 2.2 1 2.2 2.4z"/><path d="m101 156.3v-2.5h.9c.2.1.3.3.5.5.3.3.6.7.8 1.1.1.3.3.5.5.8v.1h1.5l-.1-.1c-.3-.7-.7-1.4-1.1-1.9-.2-.3-.4-.5-.7-.8.1 0 .1-.1.2-.1s.1-.1.1-.1c.7-.4 1.1-1.1 1.1-2 0-1.5-.9-2.3-2.5-2.3h-2.7v7.3zm1-3.8h-1v-2.2h1.1c.4 0 .7.1.9.3s.3.5.3.8-.1.6-.3.8-.6.3-1 .3z"/><path d="m51.4 156.3v-7.3h-1.4v7.3z"/><path d="m39.7 156.4c.7 0 1.3-.1 1.9-.3.3-.1.6-.3.9-.5l-.1-.1-.6-1-.1.1c-.3.2-.5.3-.8.5-.1 0-.1.1-.1.1-.3.1-.7.1-1 .1-.5 0-.9-.1-1.3-.3-.7-.4-1.1-1.1-1.1-2.1 0-.7.2-1.3.6-1.7s.9-.7 1.6-.7c.9 0 1.5.5 1.9.8l.1.1.6-.7.3-.3-.1-.1c-.1-.1-.3-.3-.5-.4-.3-.3-.7-.4-1.1-.5-.3-.1-.7-.2-1.1-.2-2.3 0-3.7 1.5-3.7 3.7 0 .5.1 1.1.3 1.5.5 1.1 1.7 2 3.4 2z"/></g><path d="m40.9 44.4c-.1.1-.1.1-.1.1-.1.1-.1.1-.2.2s-.1.1-.2.1c-.1.1-.2.1-.3.3-.1.1-.1.1-.2.2s-.1.1-.2.2-.3.3-.5.4c-.1.1-.1.1-.2.1-.1.1-.2.2-.3.3s-.1.1-.1.1c-.4.3-.8.7-1.2 1.2 0 .1-.1.1-.1.1-.5.5-.9 1-1.5 1.5 0 0 0 0-.1.1-2.7 3.3-6.1 7.7-8.7 13.4 0 .1-.1.1-.1.1-.3.7-.7 1.4-.9 2.1-2.4 5.7-4.1 12.6-4.1 20.5 0 12.2 4.1 23.5 11.1 32.6.1.1.1 0 .1-.1s-.5-.9-1.4-2.5c-1.5-2.5-3.5-6.1-5-10.7-.1-.3-.2-.7-.3-1.1-.1-.3-.1-.5-.3-.7-.1-.3-.2-.7-.3-1.1-.1-.3-.1-.5-.2-.8-.1-.4-.2-.7-.3-1.1-.1-.3-.1-.5-.2-.8-.1-.4-.1-.8-.3-1.2-.1-.3-.1-.5-.2-.9s-.1-.8-.2-1.3c-.1-.3-.1-.6-.1-.9-.1-.5-.1-.9-.1-1.4 0-.3-.1-.5-.1-.8-.1-.5-.1-1.1-.1-1.5 0-.2-.1-.5-.1-.7.1-.4.1-1.2.1-2 0-.7 0-1.4.1-2.1 0-.2 0-.4 0-.6 0-.5.1-.9.1-1.4 0-.2.1-.5.1-.7.1-.4.1-.9.1-1.3 0-.2.1-.5.1-.7.1-.4.1-.8.2-1.2.1-.2.1-.4.1-.7.1-.4.1-.8.2-1.2.1-.2.1-.4.1-.6.1-.4.1-.8.3-1.1.1-.2.1-.4.1-.6.1-.4.2-.7.3-1.1.1-.2.1-.4.1-.6.1-.3.2-.7.3-1.1.1-.2.1-.4.2-.6.1-.3.2-.7.3-1.1.1-.2.1-.4.2-.5.1-.3.3-.7.3-1 .1-.2.1-.4.2-.5.1-.3.3-.7.4-.9s.1-.4.3-.5c.1-.3.3-.6.4-.9.1-.2.2-.4.3-.5.1-.3.3-.5.4-.8.1-.2.2-.4.3-.6.1-.3.3-.5.4-.7s.2-.4.3-.6.3-.5.4-.7l.3-.6c4-6.9 8.5-11.2 9.9-12.6.5-.5 1-1.1 1.1-1.9 0-.1 0-.2 0-.3s0-.2 0-.3 0-.1 0-.1c-.1-.5-.1-1-.3-1.5-.1-1.2-.3-2.1-.3-2.1h-.1l-.1.1s-.1.1-.1.1c0 .1 0 .1-.1.1z" fill="#ff0045"/><path d="m117.9 48.4c.1.8.5 1.4 1.1 1.9 1.5 1.4 6 5.7 10 12.7.1.2.2.3.3.5.1.3.3.5.4.7s.2.3.3.5c.1.3.3.5.4.8.1.2.2.3.3.5.1.3.3.5.4.9.1.2.2.4.3.5.1.3.3.6.4.9.1.2.1.4.3.5.1.3.3.6.4.9.1.2.1.4.2.5.1.3.3.7.3 1 .1.2.1.4.2.6.1.3.2.7.3 1 .1.2.1.4.2.6.1.3.2.7.3 1.1.1.2.1.4.2.6.1.3.2.7.3 1.1.1.2.1.4.1.6.1.4.1.7.3 1.1.1.2.1.4.1.6.1.4.1.8.2 1.2.1.2.1.4.1.7.1.4.1.8.1 1.2 0 .2.1.5.1.7.1.4.1.9.1 1.3 0 .2.1.4.1.7.1.5.1.9.1 1.5v.5c0 .7.1 1.3.1 2.1v.7c0 .5 0 1.1-.1 1.6 0 .3-.1.5-.1.9 0 .5-.1.9-.1 1.4 0 .3-.1.5-.1.7-.1.5-.1.9-.1 1.4 0 .2-.1.4-.1.7-.1.5-.1 1-.2 1.5 0 .2-.1.3-.1.5-.1.5-.2 1-.3 1.5-.1.1-.1.3-.1.5-.1.5-.3 1-.3 1.5 0 .1-.1.3-.1.3-.1.5-.3 1-.4 1.5 0 .1-.1.2-.1.3-.1.5-.3 1-.5 1.5-1.5 4.6-3.5 8.2-5 10.7-1 1.5-1.4 2.4-1.4 2.5s.1.1.1.1c7-9.2 11.1-20.4 11.1-32.6 0-9-2.1-16.5-5.1-22.6 0 0 0-.1-.1-.1-2.7-5.7-6.1-10.1-8.8-13.3-.5-.6-1-1.1-1.5-1.6l-.1-.1c-.4-.5-.9-.9-1.2-1.2-.1-.1-.1-.1-.1-.1-.1-.1-.2-.2-.3-.3s-.1-.1-.1-.1c-.1-.1-.3-.3-.5-.4-.1-.1-.1-.1-.2-.2s-.1-.1-.2-.2-.2-.2-.3-.3-.1-.1-.1-.1c-.1-.1-.1-.1-.3-.2-.1 0-.1-.1-.1-.1-.1-.1-.1-.1-.2-.2l-.1-.1h-.1l-.2-.1s0 .1-.1.3c-.1.5-.3 1.2-.4 2.1-.1.4-.1.7-.1 1.1v.4c.1 0 .1.1.1.2z" fill="#ff0045"/><path d="m56.4 21.4c.1.1.1.1.1 0 .2-.1.3-.1.5-.2.1 0 .1-.1.2-.1.1-.1.3-.1.5-.1.1 0 .1-.1.3-.1.2-.1.3-.1.5-.2.1 0 .1 0 .1-.1.2-.1.5-.1.7-.2.1-.1.3-.1.4-.1s.1-.1.3-.1c.1 0 .1-.1.2-.1s.1 0 .1-.1c.1 0 .2-.1.3-.1l.1-.1c.1-.1.2-.1.3-.3v-.1s0 0 0-.1c0 0 0 0 0-.1.2-.9.9-5.3 4.3-9.4 3.7-4.3 9.1-7 14.6-7 3.2 0 5.3.6 5.9.8.3.1.1.4-.1.5-1.6 1.3-3.3 3.1-4.3 4-1 1.1-2.3 2.9-3.3 4.5-.1.2-.3.5-.4.7 0 .1-.1.1-.1.1-.1.2-.2.4-.3.5 0 .1-.1.1-.1.1v.1c-.1.1-.1.3-.2.4v.1.1h.3s.2-.1.3-.1h.1.1c.1-.1.3-.1.6-.4.2-.1.3-.4.6-.7.1-.1.3-.3.3-.5.1-.1.1-.2.2-.3.6-.8 1.3-1.6 2.1-2.4.9-1 2-2 3.1-2.8 0 0 .1 0 .1-.1.3-.3.7-.5.9-.7.1-.1.1-.1.2-.1.3-.3.6-.5.9-.7.1 0 .1-.1.1-.1.7-.5 1.3-.9 1.8-1.3.9-.6 1.7-1.1 2.3-1.3l.7-.4s0 0 0-.1v.4c-.6-.3-5.2-3.1-11.7-3.1-4.6 0-8.2 1.3-10.9 2.6 0 0-.1 0-.1.1-.3.1-.5.3-.7.4-.1 0-.1.1-.1.1-.2.1-.4.3-.6.3-.1.1-.1.1-.2.1-.2.1-.3.2-.5.3-.1.3-.2.3-.3.3-.1.1-.3.2-.5.3 0 .2-.1.2-.1.2-.2.1-.3.3-.5.3-.2.2-.5.3-.7.5-.1.1-.1.1-.2.2s-.3.2-.3.3c-.2.1-.3.2-.4.3s-.1.1-.2.2-.3.3-.4.4l-.1.1c-.1.1-.3.3-.5.5-.5.5-.9 1-1.3 1.5-1 1.2-1.7 2.3-2.1 3.2-.5.8-.9 1.7-1.3 2.6-.9 2.2-1.4 4.5-1.6 6.6z" fill="#5f717f"/><path d="m119.8 42.6c.1.1.2.3.3.3s4.1 3.6 8.1 9c.6.8 1.3 1.7 1.9 2.6 0 .1.1.1.1.1.4.5.7 1.1 1.1 1.7 0 0 0 .1.1.1 0 .1.1.1.1.1s.1.1.1.1c.1.1.1.2.2.3v.1c.1.3.3.6.5 1 .3.6.7 1.3 1.1 2.2.1.3.3.6.4.9.1.3.3.6.4.9v.1c.1.3.3.6.4.9 0 .1.1.1.1.2.1.3.3.6.3.9 0 .1.1.1.1.2.1.3.3.7.4 1.1 0 .1.1.1.1.1.1.3.3.7.3 1 .1.1.1.2.1.3.1.3.2.6.3.9 0 .1.1.2.1.3.1.4.3.9.4 1.3 0 .1.1.1.1.2.1.3.2.7.3 1.1.1.1.1.3.1.5.1.3.1.7.3 1 0 .1.1.3.1.4.1.5.2.9.3 1.4 0 .1 0 .2.1.3.1.4.1.8.2 1.2 0 .2.1.3.1.5.1.3.1.7.1 1.1 0 .2.1.3.1.5.1.5.1 1 .2 1.5v.2c.1.5.1.9.1 1.4 0 .2 0 .3.1.5 0 .4.1.8.1 1.2v.5 1.6.1c0 18.8-9.5 33-17.7 40.7-.3.3-.7.6-1 .9-.1.1-.1.1-.3.2-.3.3-.6.5-.9.8l-.1.1c-.7.6-1.4 1.1-2.1 1.7-2.5 1.9-4.7 3.3-6.1 4.3-1.2.7-1.7 1.5-1.2 2.9.1.2.1.4.3.6v.1c.1.1.1.3.1.5v.1c.1.1.1.2.1.3.3-.1 1.3-.7 2.9-1.6 1.9-1.1 4.5-2.7 7.4-4.9.5-.4 1-.8 1.5-1.2.3-.3.7-.5.9-.8.1-.1.2-.2.3-.3.2-.2.5-.4.7-.6.1-.1.3-.3.4-.3.2-.2.4-.3.6-.5.1-.1.3-.3.5-.4s.3-.3.5-.5l.5-.5.5-.5.5-.5.5-.5c.2-.2.3-.3.5-.5.1-.1.3-.3.5-.5s.3-.4.5-.6c.1-.1.3-.3.4-.5.2-.2.4-.4.5-.7.1-.1.3-.3.4-.5.2-.2.4-.5.6-.7.1-.1.2-.3.3-.4.2-.3.4-.5.6-.7.1-.1.2-.3.3-.4.2-.3.4-.5.7-.9.1-.1.1-.2.2-.3.3-.3.5-.7.7-1 1.4-2.1 2.8-4.3 4-6.6 0-.1.1-.1.1-.1.2-.4.4-.8.6-1.3.1-.1.1-.1.1-.3.2-.4.4-.8.6-1.2.1-.1.1-.2.1-.3.2-.4.3-.8.5-1.2.1-.1.1-.2.1-.3.2-.4.3-.9.5-1.3.1-.1.1-.2.1-.3.1-.4.3-.9.5-1.3.1-.1.1-.2.1-.3.1-.5.3-.9.5-1.3.1-.1.1-.2.1-.3.1-.5.3-.9.5-1.4 0-.1.1-.2.1-.3.1-.5.3-1 .4-1.5 0-.1 0-.1.1-.1.1-.3.1-.5.2-.7 0-.1.1-.2.1-.3 0 .1-.1.2-.1.3 1.1-4.5 1.8-9.5 1.8-14.8 0-8.1-1.5-15.3-3.9-21.4 0-.1-.1-.2-.1-.3-.3-.7-.5-1.3-.7-1.9-.1-.1-.1-.2-.1-.3-.1-.3-.3-.7-.4-1-.1-.2-.2-.4-.3-.6-.2-.5-.4-.9-.6-1.3-.1-.3-.2-.5-.3-.7-.1-.3-.3-.6-.5-.9s-.3-.7-.5-1c-.1-.2-.2-.4-.3-.5-.2-.4-.5-.8-.7-1.2-.1-.1-.1-.3-.2-.3-.3-.4-.5-.8-.7-1.2 0-.1-.1-.1-.1-.1s0 0 0-.1c-6.3-9.9-13.6-15.5-15.1-16.5-.1 0-.1-.1-.1-.1-.1-.1-.1-.1-.1-.1h-.1-.1c-.2 1.5-.6 4.3-.9 5.9 0 .2-.1.4-.1.5-.1.3-.1.5-.1.6v.1.2c0 1.2 0 1.9.7 2.8z" fill="#5f717f"/><path d="m96.2 126.3c.1 0 .1 0 .1.1.1.1.2.1.3.1h.1c.1 0 .3-.2.1-.4s-.3-.3-.5-.5l-.1-.1c-.1-.1-.3-.3-.5-.4-.1-.1-.1-.1-.1-.1-.1-.1-.2-.2-.3-.3s-.1-.1-.2-.1c0 0-.1 0-.1-.1-.1-.1-.1-.1-.3-.2-.1-.1-.1-.1-.2-.1-.1-.1-.2-.1-.3-.3-.1-.1-.1-.1-.2-.1-.1-.1-.2-.1-.3-.2s-.1-.1-.2-.1c-.1-.1-.2-.1-.3-.2s-.1-.1-.2-.1c-.1-.1-.2-.1-.3-.2s-.1-.1-.2-.1c-.1-.1-.2-.1-.3-.2s-.1-.1-.2-.1c-.1-.1-.2-.1-.3-.2s-.1-.1-.2-.1c-.1-.1-.2-.1-.3-.2s-.1-.1-.2-.1c-.1-.1-.2-.1-.3-.2s-.1-.1-.2-.1c-.1-.1-.3-.2-.5-.3 0 0-.1 0-.1-.1-.4-.2-.8-.4-1.2-.7-.1 0-.1-.1-.1-.1-.2-.1-.3-.2-.5-.3-.1 0-.1-.1-.1-.1-.3-.2-.5-.5-.5-.9 0-.2 0-.4.1-.6 2.7-5.1 5.1-10.1 7.3-15 .1-.2.1-.3.2-.5.5-1.1 1-2.3 1.5-3.4 0-.1.1-.1.1-.1.9-2.1 1.7-4.1 2.4-6.1.2-.5.3-.9.5-1.3.1-.5.3-.9.5-1.3 1.9-5.3 3.5-10.4 4.9-15.1.2-.7.4-1.5.6-2.2v-.1c.1-.3.2-.6.3-.9.1-.5.3-.9.3-1.3.1-.2.1-.4.1-.5.1-.5.3-1.1.4-1.5s.2-.8.3-1.2c.1-.3.1-.5.2-.7 1.4-5.5 2.3-10.1 3.1-14.3v.1c0-.1 0-.1 0-.1.1-.9.3-1.7.5-2.6v-.5c.1-.9.3-1.8.4-2.7 1-6.7 1.9-15.1 2.1-17.4.1-.6.1-1 0-1.3-.1-.6-.3-.9-.7-1.2s-2.1-1.1-2.5-1.3c-.1 0-.1 0-.1-.1s-.2 2.9-.6 6.8v.3c-.2 2.1-.5 4.3-.8 6.7-.1.9-.2 1.7-.3 2.5-.1.4-.1.7-.1 1.1 0 .1 0 .2-.1.3-.1.3-.1.7-.1 1 0 .1-.1.3-.1.4 0 .2-.1.5-.1.7 0 .1-.1.3-.1.5-.1.3-.1.5-.1.7 0 .1-.1.3-.1.5s-.1.4-.1.6c0 .1-.1.3-.1.5s-.1.4-.1.5 0 .1-.1.3c-.1.3-.1.5-.1.7v.1c-.1.3-.1.5-.1.7-.4 2.3-1 5.5-1.3 7.2 0 .1-.1.3-.1.3 0 .1 0 .1-.1.2 0 .1 0 .1-.1.2 0 .1-.1.2-.1.3s0 .1-.1.1c0 .1-.1.1-.1.2s-.1.1-.1.2v.1c-.1.2-.1.5-.3.6-.1.1-.1.1-.1.1h-.1s.1-.3.6-4c.3-1.7.6-4 1-7.3.3-2.7.6-5.5.9-7.8.2-2.2.4-4.1.5-5.1 0-.3.1-.5.1-.7.1-1.1.2-2.3.3-3.3-.1 1.2-.2 2.6-.3 4 .5-5.9.7-10.7.7-11s-.1 0-.1-.1-.1-.1-.4-.2c-1.3-.6-6-2.8-13.5-4.5-.1 0-.1 0-.2-.1-.4-.1-.7-.1-1.1-.3-.1 0-.1 0-.1 0h-.1c-.1 0-.1 0-.2-.1-.3-.1-.5-.1-.7-.1-.1 0-.1 0-.3-.1-.1 0-.1 0-.1 0-.1 0-.1 0-.1 0-.3-.1-.5-.1-.7-.1-.1 0-.3-.1-.3-.1h-.1-.1c-.1 0-.3-.1-.4-.1s-.2 0-.3-.1c-.1 0-.2-.1-.3-.1s-.1 0-.1 0c-.2 0-.3-.1-.5-.1-.1 0-.3-.1-.3-.1s-.1 0-.1 0c-.1 0-.3-.1-.5-.1-.1 0-.3-.1-.5-.1h-.1c-.1 0-.3 0-.5-.1-.1 0-.3 0-.5-.1 0 0 0 0-.1 0-.2 0-.3 0-.5-.1-.1 0-.2 0-.3 0h.3c-.1 0-.3 0-.4 0 0 .5-.4.5-.8.5-.1 0-.1 0-.1 0-.4 0-.8-.1-1.3-.1-.1 0-.1 0-.1 0-.4 0-.8 0-1.2 0h-.1c-.1 0-.1 0-.2 0-.3 0-.7 0-1 0h-.2c-.3 0-.6 0-.9 0h-.1c-.1 0-.1 0-.1 0h-.1c-.3 0-.5 0-.7 0-.1 0-.3 0-.5 0-.1 0-.1 0-.1 0-.4 0-.8 0-1.3.1-.1 0-.1 0-.1 0-.1 0-.1 0-.2 0-.4 0-.7.1-1.1.1-.3 0-.6.1-.9.1 0 0 0 0-.1 0-.3 0-.6.1-.9.1-.1 0-.2 0-.3.1-.2 0-.5.1-.7.1-.1 0-.3 0-.3.1-.2 0-.4.1-.6.1-.1 0-.1 0-.1 0-.1 0-.1 0-.3.1-.1 0-.3.1-.5.1-.1 0-.2 0-.3.1-.1 0-.1 0-.1 0-.1 0-.2.1-.3.1s-.2.1-.3.1-.3.1-.4.1c-.1 0-.1 0-.2.1-.1 0-.1 0-.3.1-.3.1-.5.1-.8.1-.1 0-.1 0-.2.1-.1 0-.1 0-.1 0-.1 0-.1 0-.1 0-.4.1-.7.1-1.1.3-.1 0-.1 0-.1 0-7.5 1.7-12.1 3.8-13.5 4.5-.3.1-.4.2-.4.2s-.1 0-.1.1.2 4.8.7 10.9v.1.1c0 .2.1.5.1.7.2 2.2.6 6.3 1.1 10.3.1.6.1 1.1.2 1.7.4 3.3.8 5.7 1 7.3.5 3.7.6 3.9.6 4h-.1c-.1 0-.1-.1-.1-.1-.1-.1-.2-.4-.3-.6v-.1c0-.1-.1-.1-.1-.3 0 0 0 0 0-.1s-.1-.2-.1-.3 0-.1 0-.1c0-.1-.1-.2-.1-.3-.1-.1-.1-.3-.1-.5-.3-1.7-.9-5-1.3-7.2 0-.1 0-.1 0-.1 0-.1-.1-.3-.1-.5 0-.1 0-.1-.1-.3s-.1-.4-.1-.7c0-.1 0-.2-.1-.3 0-.2-.1-.4-.1-.5s-.1-.2-.1-.3c-.1-.3-.1-.5-.1-.7 0-.1-.1-.2-.1-.3-.1-.3-.1-.6-.1-.9 0-.1 0-.1-.1-.2-.1-.3-.1-.6-.1-.9 0-.1 0-.1-.1-.3-.1-.3-.1-.7-.1-1.1 0-.1 0-.2-.1-.3-.1-.4-.1-.8-.1-1.1-.1-.8-.2-1.7-.3-2.5-.3-2.4-.6-4.7-.8-6.7 0-.1 0-.1 0-.2-.1-.5-.1-.9-.1-1.4 0-.2-.1-.5-.1-.7 0-.2-.1-.4-.1-.6 0-.1 0-.1 0-.2s0-.2 0-.3 0-.2 0-.3 0-.1 0-.1c-.1-.4-.1-.7-.1-1.1-.1-1.3-.2-2.1-.2-2.1-.1.1-2.1 1-2.5 1.3-.6.5-.9 1-.7 2.5-.2 2.4.7 10.8 1.7 17.4.3 1.8.5 3.6.9 5.5-.1-.3-.1-.5-.1-.9.7 4.4 1.7 9.1 3.2 15.1.7 2.6 1.4 5.4 2.3 8.5 3.6 12.5 9.2 27.8 17.2 43 .2.4.1.9-.1 1.2-.1.1-.2.3-.4.3-.1 0-.1.1-.1.1-.1.1-.3.1-.4.2-.3.1-.5.3-.7.4h-.1c-.1.1-.3.2-.5.3-.1.1-.1.1-.2.1-.1.1-.3.1-.3.2-.1.1-.1.1-.2.1-.1.1-.2.1-.3.2s-.1.1-.3.1c-.1.1-.2.1-.3.1-.1.1-.1.1-.3.1-.1.1-.2.1-.3.1-.1.1-.1.1-.3.1-.1.1-.1.1-.3.1-.1.1-.1.1-.2.1-.1.1-.1.1-.3.2-.1.1-.1.1-.2.1-.1.1-.1.1-.3.2-.1.1-.1.1-.2.1-.1.1-.2.1-.3.2s-.1.1-.2.1c-.1.1-.2.1-.3.2s-.1.1-.2.1c-.1.1-.2.2-.3.3s-.1.1-.2.1c-.1.1-.2.2-.3.3s-.1.1-.1.1c-.1.1-.3.3-.5.5-.2.2-.3.3-.5.5-.1.1-.1.3-.1.3l.1.1h.1c.1 0 .1-.1.3-.1h.1c.1 0 .1-.1.1-.1.1 0 .1-.1.2-.1h.1c.1 0 .1-.1.3-.1h.1c.1-.1.2-.1.3-.1.3-.1.5-.2.8-.3 1.9-.7 3.7-1.1 5.7-1.5.1 0 .2-.1.3-.1.7-.1 1.4-.3 2.1-.3 1.1-.1 2.2-.3 3.1-.3.4 0 .8-.1 1.3-.1h.3 1.5.1.7.3c.5 0 1.1 0 1.7.1.3 0 .5 0 .7.1.9.1 1.8.1 2.7.3.7.1 1.5.2 2.3.3.1 0 .2.1.3.1.4.1.7.1 1.1.3.2.1.3.1.5.1h.1c.5.1 1 .3 1.5.4.3.1.5.1.8.3.1 0 .2.1.3.1.3.1.5.1.8.3.1 0 .1 0 .1.1h.4l.5.1c.1 0 .1 0 .1.1.1 0 .2.1.3.1h.1c.2.1.4.1.6.2h.1s.1.1.2.1zm-1.3 1c-1.1-.4-1.7-.6-1.7-.6-1.2-.4-2.1-.7-2.1-.7h-.1c-.1 0-.1 0-.1 0-.1 0-.1 0-.1 0s0 0-.1 0-.1 0-.2-.1c-.1 0-.1-.1-.2-.1s-.3-.1-.3-.1c-.1 0-.3-.1-.3-.1s-.1 0-.2-.1c-.1 0-.1 0-.1 0-.6-.1-1.2-.2-1.8-.3-.1 0-.2 0-.3-.1-.3-.1-.5-.1-.7-.1-.1 0-.3 0-.4-.1-.2 0-.5-.1-.7-.1-.1 0-.3 0-.4-.1-.2 0-.5-.1-.7-.1-.1 0-.2 0-.3 0-1.4-.1-3-.1-3.9-.1h-.1c-.5 0-2 0-3.6.1-.1 0-.2 0-.3 0-.2 0-.4.1-.6.1-.1 0-.3 0-.5.1-.2 0-.4.1-.6.1-.1 0-.3.1-.5.1s-.4.1-.6.1c-.1 0-.3.1-.4.1-.2 0-.4.1-.5.1s-.3.1-.4.1c-.2 0-.4.1-.5.1s-.3.1-.4.1-.1 0-.2.1 0 0-.1 0h.1c-.9.2-2 .5-3.2.8h.1-.1s0 0-.1 0h.1c-.2.1-.4.1-.7.2-.2.1-.5.1-.7.3-.1 0-.1 0-.1.1-.1 0-.1.1-.1.1-.1.1-.3.1-.5.2-.1 0-.1.1-.2.1-.1.1-.2.1-.3.1h-.1s0 0-.1 0c-1 .4-1.9.9-2.7 1.3-.3.2-.5.3-.8.5-.5.3-.9.7-1.4 1.1 0 0 0 0-.1.1-.2.1-.3.3-.5.5l-.1.1c-.1.1-.3.3-.5.5l-.1.1c-.1.1-.3.3-.4.5-.3.4-.6.7-.8 1.1v.1c-.3.3-.5.7-.7 1.1-1.4 2.2-2.1 3.9-2.2 5.3 0 .1 0 .3.1.2s.2-.1.3-.3c.1-.1 2.6-2.1 10.5-3.5 2.1-.4 4.6-.7 7.5-1 .3 0 .5-.1.7-.1.3 0 .7-.1 1.1-.1.3 0 .5 0 .7-.1.5 0 .9-.1 1.3-.1h.6c.7 0 1.3 0 2.1-.1h.7c6 .1 10.5.7 14.1 1.3 1.3.3 2.5.5 3.5.7 2.9.7 4.8 1.5 5.8 2 .8.4 1.1.7 1.2.7l.1.1c.1.1.1.1.2.1l.1.1h.1c.1 0 .1-.1.1-.1v-.1c0-.1-.1-.3-.1-.4s0-.1 0-.1c-.1-.1-.1-.3-.1-.5-.1-.1-.1-.3-.1-.5 0-.1 0-.1-.1-.1-.1-.2-.1-.4-.2-.5-.1-.2-.2-.4-.3-.6 0-.1-.1-.1-.1-.1-.2-.4-.4-.9-.7-1.3 0-.1-.1-.1-.1-.1-.1-.3-.3-.5-.5-.7-.2-.3-.5-.7-.7-1-.3-.3-.5-.7-.8-1 0 0 0 0 0-.1l-.1-.1-.1-.1c-.2-.2-.3-.4-.5-.7s0 0-.1-.1c-.2-.2-.3-.3-.5-.5 0 0-.1 0-.1-.1-.1-.1-.1-.1-.1-.1-.1-.1-.3-.3-.4-.3-.1-.1-.1-.1-.1-.1-.1-.1-.2-.1-.3-.2s-.1-.1-.3-.2c-.1-.1-.1-.1-.2-.1-.1-.1-.3-.2-.5-.3l-.1-.1c-.1-.1-.1-.1-.2-.1-.2-.1-.4-.3-.7-.4-.1 0-.1-.1-.1-.1-.3-.1-.5-.3-.7-.4h.4c0-.4-.9-.8-2.1-1.3zm-39-98.5c0-.1 1.2-.5 3.1-1.2.2-.1.4-.1.5-.2 2-.7 4.7-1.5 7.5-2.1 1.9-.4 3.6-.7 5.1-.9 3.1-.5 5.6-.6 7.1-.6h.6.7c.4 0 .8 0 1.3.1h.1.6.1c.2 0 .4 0 .6.1h.2c.2 0 .3 0 .5.1h.2c.2 0 .3 0 .5.1h.3c.2 0 .3.1.5.1.1 0 .2 0 .3.1.2 0 .3.1.5.1.1 0 .2 0 .3.1.2 0 .4.1.6.1.1 0 .3.1.4.1.2 0 .4.1.6.1.1 0 .3.1.4.1.2 0 .4.1.6.1.1 0 .3.1.4.1.2.1.5.1.7.1.1 0 .3.1.3.1.3.1.5.1.7.1.1 0 .2.1.3.1.3.1.6.1.9.2 2.7.6 5.3 1.4 7.3 2.1.2.1.3.1.5.2.5.2 1 .3 1.4.5 1.2.5 1.9.7 1.9.7s-.1 0-.2-.1c.1.1.2.1.2.1v.1.1.1s0 .1-.1.1c-.1.1-.1.1-.3.1-.5-.1-3.2-1-3.6-1.1-.1 0-.3-.1-.6 0-.1 0-.1.1-.1.1s0 0-.1.1l-.1.1v.1.1c0 .1-.1.1-.1.2-2.4 7.7-9.3 13.6-18.1 13.8-.8 0-2.1-.1-2.7-.1l-.2-.1c-.5-.1-.7-.5-.9-.9-.6-1.5-.1-3.7.1-5.1.5-2.5 1.4-4.9 2.3-7.2.1-.2.5-1.3.5-1.3 0-.3-1.5.9-2 1.9.3-.4.5-.7.7-.9-.2.2-.5.5-.7.9-.9 1.4-2 4.1-2.9 7.7-.3 1.3-.4 2.5-.6 4.3-.5-.1-.9-.3-1.3-.5-.1 0-.1-.1-.1-.1.1 0 .1.1.1.1-.2-.1-.4-.3-.5-.4-.6-1-.4-2.4-.2-3.5.5-2.8 1.3-5.5 2.4-8.1 0-.1.4-.9.5-1.3.1-.3-.1-.2-.2-.1-.7.5-1.3 1.1-1.7 1.9.3-.4.7-.9 1.2-1.1.1-.1.1-.1.2-.1-.1 0-.1 0-.2.1-.5.3-.9.7-1.2 1.1-1.2 2-2.2 4.9-2.6 6.4-.1.4-.3 1.5-.5 2.4-.1.5-.1.9-.2 1.4-.3-.2-.7-.4-1.3-.9-.1-.1-.3-.3-.4-.4.1.1.3.3.4.4-.1-.1-.3-.3-.4-.5-.1-.5-.2-1.7.2-3.7.4-1.8.9-3.7 1.6-5.4 0-.1.1-.1.1-.1 0 .1 0 .1-.1.1.2-.5.3-.9.4-1.1v-.1c0-.1-.1-.1-.3.1-.5.4-1.4 1.4-1.7 2.2-.7 1.1-1.2 2.7-1.7 4.1-.2.9-.5 1.7-.6 2.5-1.9-2.1-2.7-3.1-3.5-4.5-.7-1.3-1.3-2.7-1.7-4.1v-.1c-.1-.2-.2-.3-.2-.3s0 0-.1 0c-.1-.1-.3-.1-.5-.1-.1 0-.1 0-.1 0s-.1.1-.3.1c-.8.3-3.2 1-3.9 1.2-.1 0-.2.1-.2.1-.1 0-.1 0-.2 0-.1 0-.1-.1-.1-.1 0-.1-.1-.1-.1-.1s0 0 0-.1c0-.1 0-.1 0-.1.9-.8.9-.8.9-.9zm1.4 2.2c0-.1 0-.3 0-.4 0-.3 0-.4 0-.5h.1s.1.7.5 1.7c.1.1.1.2.1.3.5 1.2 1.2 2.8 2.3 4.5v.1c.1.1.2.3.3.4 0 0 0 .1.1.1.1.1.2.3.3.4l.1.1c.1.1.2.3.3.4 0 .1.1.1.1.1.1.1.2.3.3.4 0 .1.1.1.1.1.1.1.2.3.3.4 0 .1.1.1.1.1.1.1.2.3.3.4s.1.1.1.1c.1.1.2.3.3.4s.1.1.1.1l.4.4.1.1.4.4.1.1c.1.1.3.3.5.4.3.3.7.6 1.1.9 3.4 2.5 8 4.9 14.3 4.9h.2c8.5-.1 13.5-4.3 15.4-5.8.5-.4.9-.8 1.4-1.3.1-.1.1-.1.1-.1 1.3-1.4 2.6-3.2 3.5-4.7.3-.5.6-1.1.8-1.6 1-2.2 1.3-3.7 1.3-3.7v-.1c0 .1 0 .5-.1.9v.1c-.1.9-.2 2.5-.3 3v.1c-.1.3-.2 2.2-.5 4.5-.2 1.6-.3 3.3-.5 5.1-.3 2.3-.5 4.4-.6 5.7-.1.5-.1.9-.1 1.1-.1.4-.1.8-.1 1.2-.1.8-.2 1.6-.3 2.5-.1.3-.1.7-.1 1-.1.9-.2 1.9-.3 2.8 0 .3-.1.5-.1.7-.3 2-.5 4-.8 5.9-.1.3-.1.6-.1.9-3.1 20.1-7.7 33.9-10.3 40.8-.3.8-.9 2.3-1.7 4.3-.1.1-.1.3-.2.5-.9 2.1-1.9 4.4-2.9 6.5-.1.1-.3.5-.5.7-.1 0-.2.1-.3.1 0 0-.1 0-.1-.1s-.1-.1-.1-.1c0-.1 0-.1 0-.2v-.1c0-.1 0-.1 0-.2s0-.2.1-.4c0-.3.1-.5.1-1 .3-2.1.8-6.5 1.4-12.7.5-5.5 1.3-13.5 1.8-21.2.1-.6.1-1.2.1-1.8.1-1.3.2-2.7.3-4.2v-.1c0-.3.1-.7.1-1.1 0-.1 0-.2 0-.3 0-.3.1-.7.1-1s0-.5.1-.7c0-.1 0-.1 0-.3.2-3.4.4-6.7.5-9.2v-.1c0-.1 0-.2 0-.3.1-1.7.1-2.9.2-3.4.1-1.3.3-6.2.3-8.9.1-1 .1-1.7.1-1.8 0-.3-.1-.5-.3-.6-.1-.1-.2-.1-.3-.1s-.3.1-.5.1c-.7.1-1.7.4-2 .5s-.4.2-.5.3v.1c-.1.1-.1.3-.1.3s0 .5-.1 1.2c0 1-.1 2.6-.1 4.3-.1 3.3-.3 7.3-.3 9-.2 3.1-1.1 19.6-1.4 21.9 0 .2-.1.3-.1.2s0-.3 0-.3c0-.3-.1-4 0-6.1 0-.3 0-1.3 0-2.7 0-5 .1-15.6.1-22 0-3 0-5.1 0-5.3 0-.3-.1-.5-.5-.5-.5 0-.9 0-1.4 0s-.9 0-1.4 0c-.1 0-.2 0-.3 0-.2.1-.3.3-.3.5v.9 3.9c0 8.2.1 24 .1 25.2.1 2.3 0 6.1 0 6.2v.3c0 .1-.1 0-.1-.2-.3-2.3-1.2-18.8-1.4-21.9-.1-1.8-.3-6.4-.3-9.9-.1-2.5-.1-4.5-.1-4.6s0-.3-.1-.4-.1-.2-.3-.3c-.1-.1-.1-.1-.2-.1-.4-.1-2-.5-2.5-.6-.1 0-.2 0-.3 0s-.3.1-.3.3c-.1.1-.1.2-.1.4s.1 2.1.1 4.4c.1 2.5.2 5.4.3 6.3 0 .5.1 1.7.2 3.5 0 0 0 0 0-.1.2 4.3.7 11.4 1 17v.2c0 .3 0 .5.1.7v.2c0 .3.1.5.1.7.1 1 .1 2.1.2 3.1v.1c.1 1 .1 2 .2 2.9v.1.2.1c0-.1 0-.2 0-.3v.3c.1.5.1 1 .1 1.5 0 .1 0 .3.1.4.1.6.1 1.2.1 1.8 0 .1 0 .3.1.4.1.5.1.9.1 1.3 0 .2.1.4.1.6.1.5.1 1.1.1 1.5 0 .2.1.4.1.7s.1.7.1 1 .1.5.1.7c0 .3.1.7.1 1s.1.7.1 1 .1.5.1.7c0 .3.1.5.1.7 0 .3.1.7.1.9v.3c.6 6.3 1.1 10.6 1.4 12.7 0-.1-.1-.3-.1-.5 0 .2.1.4.1.5.1.7.1 1.1.1 1.3v.5c0 .1-.1.1-.1.1h-.1-.1c-.1 0-.2-.1-.3-.1-.3-.2-.5-.5-.5-.7-1-2.1-2-4.5-2.9-6.5-.1-.1-.1-.3-.1-.3-.8-1.9-1.5-3.6-1.8-4.4-3.1-6.8-7.6-20.5-10.8-40.7-.1-.4-.1-.9-.2-1.3-.1-.9-.3-1.7-.3-2.6-.1-.5-.1-1.1-.2-1.6-.1-.7-.2-1.5-.3-2.2s-.2-1.4-.3-2.1c-.1-.6-.1-1.1-.2-1.7-.1-.7-.1-1.4-.3-2.1-.1-.6-.1-1.2-.2-1.7 0-.2-.1-.5-.1-1-.1-.8-.2-1.9-.3-3.1-.6-5-1.6-14.1-1.6-14.7z" fill="#5f717f"/><path d="m92.9 4.7c-.9.5-3.6 1.9-6.6 4.8-1.4 1.3-2.4 2.7-3.1 3.6-.3.5-.7.9-.9 1.2 0 0-.1.1-.1.2-.1.1-.2.3-.3.4 0 .1-.1.1-.1.1v.1c0 .1 0 .1.1.2h.1c.2 0 .4-.1.6-.2h.1c.2-.1.3-.2.5-.3.1-.1.1-.1.2-.1.3-.3.7-.7.9-1v-.1c.1-.1.1-.1.1-.1.8-.9 1.8-1.9 2.3-2.3.1-.1.2-.2.2-.2.1-.1 2.2-2.1 5.1-3.6.7-.4 1.9-.9 2.5-1.2.5-.2.6-.3.7-.3s.1-.1.1-.1 0-.1-.1-.1c-.4-.3-1.2-.9-1.5-1.2l-.1-.1c-.1 0-.1 0-.2 0 0 0 0 0-.1 0-.1.3-.3.3-.4.3z" fill="#5f717f"/><path d="m96.4 7.5c-.1.1-.4.1-.8.3-1 .5-2.6 1.3-4.4 2.7-.3.3-.7.6-1.1 1-.1.1-.1.1-.2.1-.1.1-.2.2-.3.3s-.3.3-.4.4-.1.1-.2.2c-.2.2-.4.4-.6.6l-.1.1c-.2.2-.3.3-.5.5-.1.1-.1.1-.1.1-.1.1-.3.3-.4.5-.1.1-.1.1-.1.1v.1c-.1.1-.2.3-.3.4 0 0 0 .1-.1.1 0 0 0 0-.1.1s-.2.3-.3.4v.1l.1.1h.1c.3 0 .6 0 1-.1.1-.1.3-.1.3-.2.1-.1.1-.1.3-.3h.1l.1-.1c.2-.2.5-.4.7-.7.1-.1.1-.1.2-.2.7-.7 1.7-1.5 2.3-1.9 1.5-1 2.8-1.7 3.1-1.7.3-.1.3.1.4.1l.1.1v.1c.1.1.1.1.1.2.6.7 1.9 2.5 2.6 4.3 1.2 2.7 1.4 4.8 1.5 5 .1.3.3.4.4.4.3.1.7.2 1 .3.3.1.7.2 1.1.3h.1c.1.1.3.1.5.2h.1c.2.1.4.1.6.2l.1-.1c-.1-.5-.1-.9-.1-1.3 0-.1-.1-.3-.1-.4-.1-.3-.1-.6-.1-.9 0-.1-.1-.3-.1-.3-.1-.3-.1-.7-.3-1-.1-.1-.1-.3-.1-.4-.1-.2-.1-.3-.1-.5-.1-.1-.1-.3-.1-.4-.1-.3-.2-.5-.3-.7-.1-.1-.1-.2-.1-.3-.1-.2-.1-.3-.2-.5-.1-.1-.1-.2-.1-.3-.1-.3-.2-.5-.3-.7-.1-.1-.1-.1-.1-.2-.1-.3-.3-.5-.3-.7-.1-.1-.1-.2-.2-.3-.9-1.5-1.9-2.9-2.8-4-.3-.3-.5-.6-.8-.9-.1-.1-.1-.1-.1-.1-.1 0-.1 0-.1 0s0 0-.1 0c-.3-.2-.3-.2-.4-.2z" fill="#5f717f"/><path d="m14.7 86c0 .4.1.8.1 1.2 0 .3.1.5.1.8.1.4.1.7.1 1.1v.3.1-.1c0 .2.1.4.1.6.1.4.1.8.1 1.2 0 .2.1.5.1.7 0 0 0 0 0-.1v.1.1c.1.4.1.7.2 1.1.1.2.1.5.1.7.1.4.1.8.3 1.2.1.2.1.4.1.6.1.4.2.8.3 1.1 0 .1 0 .1.1.2v-.1.2c.1.3.1.5.2.7v.1c.1.5.3 1 .4 1.5 0 .1.1.1.1.2.1.5.3.9.5 1.4 0 .1.1.2.1.3.1.5.3.9.5 1.3.1.1.1.2.1.3.1.5.3.9.5 1.3.1.1.1.2.1.3.2.4.3.9.5 1.3.1.1.1.2.1.3.2.4.3.9.5 1.3.1.1.1.2.1.3.2.4.4.9.6 1.3.1.1.1.1.1.2.2.4.4.9.7 1.3 0 .1.1.1.1.1 1.5 2.7 3.1 5.3 4.7 7.6.1.1.1.2.2.3.2.3.4.6.7.9.1.1.2.3.3.4.2.3.4.5.6.8.1.1.2.3.3.4.2.3.4.5.6.7.1.1.3.3.4.5.2.2.4.4.5.7.1.1.3.3.4.5.2.2.3.4.5.6l.5.5c.2.2.3.4.5.5l.5.5c.1.2.3.3.5.5.1.2.3.3.5.5l.5.5.5.5c.1.1.3.3.5.4.2.2.4.3.6.5.1.1.3.3.4.3.2.2.5.4.7.6.1.1.2.2.3.3.3.3.7.5 1 .8.9.7 1.9 1.5 2.7 2.1 4.9 3.5 8.6 5.4 9.1 5.7h.1c0-.1.1-.2.1-.3.1-.1.1-.3.2-.5.1-.2.1-.4.3-.6.5-1.3 0-2.1-1.2-2.9-1.5-.9-3.7-2.3-6.1-4.3-.7-.5-1.3-1.1-2.1-1.7l-.1-.1c-.3-.3-.6-.5-.9-.8-.1-.1-.1-.1-.3-.2-.3-.3-.7-.6-1-.9-1.9-1.8-3.9-4-5.9-6.5-1.9-2.4-3.7-5.2-5.3-8.2-.3-.5-.5-1-.7-1.5-.3-.5-.5-1.1-.7-1.6-2-4.3-3.5-9.1-4.3-14.5-.1-.5-.1-1.1-.2-1.5-.1-.5-.1-1.1-.2-1.7-.1-1.7-.3-3.5-.3-5.3 0-.3 0-.5 0-.8s0-.5 0-.8 0-.7.1-1c0-.2 0-.4 0-.5 0-.3.1-.7.1-1.1 0-.1 0-.1 0-.2 1.1-13.2 6.7-22.5 7.6-23.9 1-1.7 2-3.2 3.1-4.6 4-5.4 8.1-9 8.1-9 .4-.4.6-.7.7-1.1 0-.1.1-.1.1-.2s.1-.1.1-.1c.1-.5.1-1 0-1.6 0-.1-.1-1.1-.3-2.3 0-.1-.1-.3-.1-.5 0-.1 0-.1-.1-.3 0-.1-.1-.3-.1-.3 0-.1 0-.1 0-.1-.3-.5-.3-1.1-.5-1.6v-.1c-.1-.4-.1-.7-.1-1.1v-.1c0-.1-.1-.3-.1-.4v-.1c0-.1-.1-.3-.1-.5h-.1s0 0-.1.1c-1.5 1-24.8 17.8-24.8 49.4 0 1.1.1 2.2.1 3.3.1.1.1.3.1.5z" fill="#5f717f"/></svg>