<?xml version="1.0" encoding="utf-8"?>
<!-- Generator: Adobe Illustrator 22.1.0, SVG Export Plug-In . SVG Version: 6.00 Build 0)  -->
<svg version="1.1" id="Layer_1" xmlns="http://www.w3.org/2000/svg" xmlns:xlink="http://www.w3.org/1999/xlink" wide="160px" height="200px"
	 viewBox="0 0 160 200" style="enable-background:new 0 0 160 200;" xml:space="preserve">
<style type="text/css">
	.st0{fill:#FF0045;}
	.st1{fill:#5F717F;}
</style>
<g>
	<path class="st0" d="M149.8,171.6h-4.3c-0.7,0-1-0.1-1.3-0.3c-0.2-0.2-0.3-0.5-0.3-1.1v-2.4h4.3c0.3,0,0.3-0.1,0.3-0.3v-1
		c0-0.3-0.1-0.3-0.3-0.3h-4.3V163h5.7c0.3,0,0.3-0.1,0.3-0.3v-1.1c0-0.3-0.1-0.3-0.3-0.3h-9.5c-0.1,0-0.1,0.1-0.1,0.1l0.1,0.1
		c0.1,0.2,0.7,0.8,0.8,0.9c0.1,0.2,0.2,0.3,0.2,0.5v7.7c0,0.9,0.1,1.5,0.5,1.9c0.5,0.5,1.2,0.7,2.3,0.7h5.9c0.3,0,0.3-0.1,0.3-0.3
		v-1C150.1,171.7,150.1,171.6,149.8,171.6z"/>
	<path class="st0" d="M9.8,171.6H5.5c-0.7,0-1-0.1-1.3-0.3c-0.2-0.2-0.3-0.5-0.3-1.1v-2.4h4.3c0.3,0,0.3-0.1,0.3-0.3v-1
		c0-0.3-0.1-0.3-0.3-0.3H4V163h5.7c0.3,0,0.3-0.1,0.3-0.3v-1.1c0-0.3-0.1-0.3-0.3-0.3H0.1c-0.1,0-0.1,0.1-0.1,0.1l0.1,0.1
		c0.1,0.2,0.7,0.8,0.8,0.9c0.1,0.2,0.2,0.3,0.2,0.5v7.7c0,0.9,0.1,1.5,0.5,1.9c0.5,0.5,1.2,0.7,2.3,0.7h5.9c0.3,0,0.3-0.1,0.3-0.3
		v-1C10.2,171.7,10.1,171.6,9.8,171.6z"/>
	<path class="st0" d="M61.5,197.2h-9.9c2-1.9,4.3-4.3,6.1-6.2c2.6-2.7,3.7-4.7,3.7-7.1c0-3.3-2.7-5.9-7.8-5.9c-2,0-4.1,0.3-5.9,1.1
		c-0.5,0.2-0.7,0.4-0.7,1v1.6c0,0.2,0.1,0.3,0.3,0.3c0.1,0,0.3-0.1,0.9-0.4c1.7-0.9,3.5-1.6,5.2-1.6c2.2,0,3.9,1.3,3.9,3.5
		c0,1.5-0.7,3.1-2.9,5.5c-2.1,2.2-5.8,6.1-7.5,7.9c-0.4,0.4-0.5,0.6-0.5,1.2v0.6c0,0.5,0.1,0.6,0.6,0.6h14.5c0.5,0,0.6-0.1,0.6-0.6
		v-1.1C62.1,197.3,62,197.2,61.5,197.2z"/>
	<path class="st0" d="M91.6,178.6h-4.8c-0.2,0-0.3,0.1-0.3,0.3c0,0.1,0,0.1,0.1,0.2c0.4,0.4,1.1,1.1,1.5,1.6
		c0.3,0.3,0.3,0.4,0.3,0.9v17.3c0,0.5,0.1,0.6,0.7,0.6h2.7c0.5,0,0.7-0.1,0.7-0.6v-19.6C92.3,178.8,92.2,178.6,91.6,178.6z"/>
	<path class="st0" d="M22.2,161.3H21c-0.3,0-0.3,0.1-0.3,0.3v7.5c-1.9-2.1-5.5-6.3-6.5-7.3c-0.4-0.5-0.5-0.5-0.9-0.5h-1.5
		c-0.3,0-0.4,0.1-0.4,0.3v11.2c0,0.3,0.1,0.3,0.3,0.3h1.1c0.3,0,0.3-0.1,0.3-0.3v-7.7c1.9,2.1,4.9,5.6,6.7,7.5
		c0.4,0.5,0.5,0.5,0.9,0.5h1.3c0.3,0,0.4-0.1,0.4-0.3v-11.2C22.5,161.4,22.4,161.3,22.2,161.3z"/>
	<path class="st0" d="M46.9,172.9c0.2-0.5,0.5-1.2,0.9-2.1h5.3c0.4,0.9,0.7,1.6,1,2.1c0.1,0.3,0.2,0.3,0.5,0.3h2.5
		c0.2,0,0.3-0.1,0.3-0.2l-0.1-0.1c-2.2-4.5-4.3-8.8-5.5-11.1c-0.2-0.5-0.3-0.5-0.9-0.5h-2.7c-0.1,0-0.1,0.1-0.1,0.1l0.1,0.1
		c0.3,0.3,0.6,0.7,0.8,0.9c0.2,0.3,0.3,0.3,0.3,0.5c0,0.1,0,0.1-0.1,0.2c-0.9,2.1-2.6,5.7-3.9,8.6H42c-0.6,0-1-0.1-1.2-0.3
		c-0.3-0.2-0.3-0.5-0.3-1.1v-8.7c0-0.3-0.1-0.3-0.3-0.3h-3.5c-0.1,0-0.1,0.1-0.1,0.1l0.1,0.1c0.1,0.1,0.7,0.8,0.8,0.9
		c0.1,0.2,0.1,0.3,0.1,0.5v7.5c0,1,0.2,1.6,0.7,2c0.5,0.4,1.1,0.6,2.2,0.6h6C46.7,173.2,46.8,173.2,46.9,172.9z M50.4,165
		c0.6,1.3,1.3,2.8,2,4.2h-3.9C49.2,167.7,49.8,166.2,50.4,165z"/>
	<path class="st0" d="M74.3,178c-7.5,0-11.2,5.5-11.2,11s3.7,11,11.2,11c7.5,0,11.2-5.5,11.2-11C85.5,183.5,81.7,178,74.3,178z
		 M74.3,197.9c-4.3,0-6.7-3.9-6.7-8.9c0-5,2.4-8.9,6.7-8.9s6.7,3.8,6.7,8.9C81,194,78.6,197.9,74.3,197.9z"/>
	<path class="st0" d="M139.6,171.7h-3.1c-0.6,0-1-0.1-1.2-0.3c-0.3-0.2-0.3-0.5-0.3-1.1v-8.7c0-0.3-0.1-0.3-0.3-0.3h-3.5
		c-0.1,0-0.1,0.1-0.1,0.1l0.1,0.1c0.1,0.1,0.7,0.8,0.8,0.9c0.1,0.2,0.2,0.3,0.2,0.5v7.6c0,1,0.2,1.6,0.7,2c0.5,0.4,1.2,0.6,2.2,0.6
		h4.9c0.3,0,0.3-0.1,0.3-0.3v-1C140,171.8,139.9,171.7,139.6,171.7z"/>
	<path class="st0" d="M103.7,178c-5.1,0-8.9,2.9-8.9,7.3c0,4,3.4,6.8,8.1,6.8c2.6,0,4.9-1.1,5.9-1.9c-0.9,4.5-4.9,6.9-10.6,7.2
		c-0.5,0-0.6,0.1-0.6,0.5v1.1c0,0.5,0.3,0.5,1.8,0.5c8.7,0,14.1-4.9,14.1-11.6C113.5,182,110,178,103.7,178z M107.7,188.5
		c-0.8,0.7-2.1,1.1-3.6,1.1c-3.1,0-5-1.7-5-4.7c0-2.9,1.9-4.8,4.7-4.8c1.7,0,3.1,0.7,4.1,1.9c0.7,1,1.2,2.3,1.2,3.6
		C109,186.8,108.6,187.8,107.7,188.5z"/>
	<path class="st0" d="M157.2,166.4c-0.7-0.4-1-0.5-1.7-0.9c-1.5-0.7-1.7-1.1-1.7-1.6c0-0.7,0.9-1.2,2.1-1.2c0.9,0,2,0.3,3,0.9
		c0.1,0.1,0.1,0.1,0.2,0.1c0.1,0,0.2-0.1,0.2-0.3v-1.2c0-0.3-0.1-0.5-0.4-0.6c-0.9-0.3-2-0.5-3.1-0.5c-2.6,0-4.5,1.2-4.5,3.4
		c0,1.3,0.8,2.4,2.2,3.1c0.8,0.5,1.3,0.7,2.1,1.1c1.3,0.7,1.7,1.1,1.7,1.7c0,0.9-0.9,1.5-2,1.5c-1.2,0-2.3-0.4-3.6-1.2
		c-0.1-0.1-0.1-0.1-0.2-0.1c-0.1,0-0.2,0.1-0.2,0.3v1.3c0,0.4,0.1,0.5,0.6,0.7c0.9,0.4,2.1,0.6,3.5,0.6c2.8,0,4.5-1.5,4.5-3.7
		C159.8,168.4,159.2,167.4,157.2,166.4z"/>
	<path class="st0" d="M121.1,161.4c0-0.1-0.1-0.1-0.2-0.1h-3.2c-0.1,0-0.1,0.1-0.1,0.1l0.1,0.1c0.3,0.3,0.7,0.8,0.9,1.1
		c0.1,0.1,0.1,0.1,0.1,0.2s0,0.1-0.1,0.1c-0.5,1.2-2,4.5-2.9,6.6c-1.4-3.2-2.6-6.1-3.3-7.7c-0.2-0.4-0.3-0.5-0.9-0.5h-2.3
		c-0.2,0-0.3,0.1-0.3,0.2l0.1,0.2c0.5,1,1.2,2.6,1.5,3.3l-1.9,4.6c-1.2-2.8-2.8-6.5-3.4-7.7c-0.1-0.4-0.3-0.5-0.8-0.5H102
		c-0.2,0-0.3,0.1-0.3,0.2l0.1,0.2c0.6,1.3,4.1,9.1,5.1,11.3c0.1,0.2,0.2,0.3,0.4,0.3h1.2c0.2,0,0.3-0.1,0.4-0.3
		c0.7-1.5,1.8-4.2,2.5-5.9c0.9,2,2.1,4.7,2.7,5.9c0.1,0.2,0.2,0.3,0.4,0.3h1.2c0.2,0,0.3-0.1,0.4-0.3c0.9-2.2,3.9-8.9,5-11.3
		C121.1,161.6,121.1,161.5,121.1,161.4z"/>
	<path class="st0" d="M125.5,161.6c-0.1-0.2-0.2-0.3-0.5-0.3h-1c-0.3,0-0.4,0.1-0.5,0.3c-0.4,0.9-4.7,10.4-5.1,11.3
		c0,0.1-0.1,0.1-0.1,0.2c0,0.1,0.1,0.2,0.3,0.2h1.2c0.3,0,0.4-0.1,0.5-0.3c0.3-0.6,0.6-1.3,0.9-2.1h5.3c0.4,0.8,0.7,1.5,1,2.1
		c0.1,0.3,0.2,0.3,0.5,0.3h2.6c0.2,0,0.3-0.1,0.3-0.2l-0.1-0.1C129.1,168.8,126.6,163.8,125.5,161.6z M122.1,169.2
		c0.6-1.3,1.2-2.7,1.9-4.2c0.6,1.3,1.3,2.8,2,4.2H122.1z"/>
	<path class="st0" d="M35.4,166.8H31c-0.1,0-0.2,0.1-0.2,0.1c0,0.1,0.1,0.1,0.1,0.1c0.5,0.3,1.1,0.8,1.7,1.2
		c0.1,0.1,0.2,0.2,0.2,0.5v2.1c0,0.3-0.1,0.4-0.2,0.5c-0.5,0.3-1.1,0.5-1.9,0.5c-1.3,0-2.3-0.5-2.9-1.5c-0.6-0.8-0.9-2-0.9-3.3
		c0-2.9,1.7-4.6,4.2-4.6c1.2,0,2.3,0.4,3.5,1.2l0.1,0.1c0.1,0,0.2-0.1,0.2-0.3V162c0-0.3-0.1-0.3-0.3-0.5c-0.9-0.3-2.3-0.6-3.8-0.6
		c-4.3,0-7.1,2.5-7.1,6.3c0,2,0.8,3.6,2.1,4.6c1.2,0.9,2.7,1.5,4.8,1.5c1.7,0,3.7-0.5,4.9-1.1c0.2-0.1,0.2-0.2,0.2-0.4V167
		C35.8,166.8,35.7,166.8,35.4,166.8z"/>
	<path class="st0" d="M91.8,174c1.6,0,3-0.6,4.1-1.5c0.4,0.4,0.7,0.7,1.1,1c0.3,0.3,0.4,0.3,0.7,0.3h2.9c0.1,0,0.2-0.1,0.2-0.2
		c0-0.1,0-0.1-0.1-0.2c-1-0.9-2.1-1.9-3.2-3c0.4-0.7,0.8-1.5,1.1-2.2h1.1c0.1,0,0.1-0.1,0.1-0.1V168c-0.4-0.9-1.3-2.8-1.7-3.7
		c-0.1-0.1-0.1-0.1-0.1-0.1c-0.1,0-0.1,0.1-0.1,0.1c-0.1,2.1-0.7,3.8-1.5,5.1c-1.4-1.3-2.7-2.6-3.7-3.5c-1.5-1.5-1.9-1.9-1.9-2.5
		c0-1,0.9-1.5,1.9-1.5c1.1,0,1.9,0.5,1.9,1.1c0,0.1-0.1,0.2-0.3,0.5c-0.2,0.3-0.3,0.5-0.3,0.7s0.1,0.5,0.3,0.9
		c0.2,0.5,0.3,0.8,0.3,1.2c0,0.1,0.1,0.1,0.1,0.1c0.1,0,0.1,0,0.2-0.1c0.8-0.7,1.4-1.5,1.4-2.7c0-2.1-1.5-3.3-3.8-3.3
		c-1.1,0-2.1,0.3-2.9,0.9c-0.8,0.6-1.3,1.5-1.3,2.7c0,0.9,0.3,1.6,0.9,2.3c-1.6,0.7-2.7,1.9-2.7,3.5C86.6,172.2,88.7,174,91.8,174z
		 M90.6,167.5c1.1,1.1,2.6,2.5,4,3.8c-0.7,0.5-1.5,0.7-2.3,0.7c-1.6,0-2.8-1.1-2.8-2.5C89.6,168.8,90,168,90.6,167.5z"/>
	<path class="st0" d="M71.7,173.2h4.1c2.2,0,4.1-0.5,5.3-1.6c1.1-1.1,1.8-2.6,1.8-4.3c0-1.7-0.7-3.3-1.8-4.3
		c-1.2-1.1-3.1-1.6-5.3-1.6h-4c-0.3,0-0.4,0.1-0.4,0.3V173C71.3,173.2,71.4,173.2,71.7,173.2z M74.3,162.8h1c1.7,0,2.7,0.3,3.3,1.1
		c0.8,0.8,1.1,2,1.1,3.4s-0.3,2.6-1.1,3.4c-0.7,0.7-1.7,1.1-3.3,1.1h-1V162.8z"/>
	<path class="st0" d="M58.8,173.2h1.1c0.3,0,0.3-0.1,0.3-0.3v-7.7c1.9,2.1,4.9,5.7,6.7,7.6c0.4,0.5,0.5,0.5,0.9,0.5h1.3
		c0.3,0,0.4-0.1,0.4-0.3v-11.2c0-0.3-0.1-0.3-0.3-0.3h-1.1c-0.3,0-0.3,0.1-0.3,0.3v7.5c-2.1-2.5-5.8-6.5-6.5-7.3
		c-0.4-0.5-0.5-0.5-0.9-0.5h-2.9c-0.1,0-0.1,0.1-0.1,0.1l0.1,0.1c0.3,0.3,0.7,0.9,1,1.1c0.2,0.2,0.2,0.3,0.2,0.5v9.7
		C58.5,173.2,58.6,173.2,58.8,173.2z"/>
	<polygon class="st1" points="83.4,156.3 83.4,156.3 84.6,156.3 86,151 87.5,156.3 87.5,156.3 87.5,156.3 88.6,156.3 88.6,156.3 
		88.6,156.3 90,152.2 91,149 91,149 91,149 89.5,149 88,153.9 86.8,149 86.8,149 86.8,149 85.3,149 85.3,149 85.3,149 84,153.9 
		83.1,150.6 82.6,149 82.6,149 82.6,149 81.1,149 	"/>
	<path class="st1" d="M114.4,149H112l0,0l0,0v7.3h2.4c2.3,0,3.7-1.4,3.7-3.7c0-1.4-0.6-2.5-1.6-3.1C116,149.2,115.2,149,114.4,149z
		 M116.7,152.6c0,1.4-1,2.4-2.4,2.4h-0.9v-4.7h1c0.9,0,1.5,0.4,1.9,1C116.6,151.6,116.7,152.1,116.7,152.6z"/>
	<polygon class="st1" points="106.2,149 106.2,149 106.2,149 106.2,156.3 111.2,156.3 111.2,155 107.6,155 107.6,149 107.6,149 
		107.6,149 	"/>
	<path class="st1" d="M128.8,149v4.4c0,1.2,0.4,2.1,1.2,2.5c0.5,0.3,1.1,0.5,1.7,0.5c0.7,0,1.3-0.1,1.7-0.5c0.8-0.5,1.2-1.3,1.2-2.5
		V149h-1.4v4.3c0,0.5-0.1,1-0.4,1.3c-0.3,0.3-0.7,0.5-1.1,0.5c-1,0-1.5-0.7-1.5-1.7V149l0,0l0,0L128.8,149L128.8,149z"/>
	<polygon class="st1" points="72.5,149 72.5,150.2 74.5,150.2 74.5,156.3 75.9,156.3 75.9,150.2 77.9,150.2 77.9,150.2 77.9,150.2 
		77.9,149 77.9,149 77.9,149 	"/>
	<path class="st1" d="M136.1,149L136.1,149L136.1,149v7.3h1.4l0,0l0,0v-2.5h1.1c1.7,0,2.7-0.9,2.7-2.4s-0.9-2.4-2.5-2.4L136.1,149
		L136.1,149z M139.6,150.6c0.1,0.2,0.2,0.4,0.2,0.7c0,0.3-0.1,0.5-0.2,0.7c-0.2,0.3-0.6,0.5-1.1,0.5h-1v-2.2h1.1
		C139,150.2,139.3,150.4,139.6,150.6z"/>
	<path class="st1" d="M125.1,150.2c0.6,0,1.1,0.2,1.4,0.4l0,0c0.2,0.1,0.3,0.3,0.5,0.4l0.1,0.1l0,0l0,0l0,0l0.6-0.7l0.3-0.4l0,0l0,0
		h-0.1c-0.1-0.1-0.3-0.3-0.5-0.4c-0.5-0.3-0.9-0.5-1.5-0.7c-0.3-0.1-0.5-0.1-0.8-0.1c-1,0-1.9,0.3-2.5,0.8c-0.8,0.7-1.3,1.7-1.3,2.9
		c0,2.2,1.5,3.7,3.7,3.7c0.9,0,1.7-0.2,2.3-0.6c0.1-0.1,0.3-0.2,0.4-0.3l0,0l0,0l-0.1-0.2l-0.6-0.9l0,0l0,0l-0.1,0.1
		c-0.1,0.1-0.3,0.3-0.5,0.3c-0.4,0.3-0.9,0.3-1.5,0.3c-0.5,0-0.9-0.1-1.3-0.3c-0.7-0.4-1.1-1.1-1.1-2.1c0-0.7,0.2-1.3,0.6-1.7
		C123.8,150.5,124.4,150.2,125.1,150.2z"/>
	<path class="st1" d="M59.1,150L59.1,150c-0.4-0.4-0.9-0.7-1.4-0.9c-0.4-0.1-0.9-0.3-1.4-0.3c-2.3,0-3.7,1.5-3.7,3.7
		c0,0.5,0.1,1.1,0.3,1.5c0.5,1.3,1.7,2.2,3.4,2.2c0.7,0,1.5-0.1,2-0.4c0.3-0.1,0.5-0.3,0.7-0.5l0.1-0.1l-0.7-1.1l0,0l0,0l-0.1,0.1
		c-0.1,0.1-0.2,0.1-0.3,0.2c-0.5,0.3-1,0.5-1.7,0.5c-0.8,0-1.4-0.3-1.8-0.8c-0.3-0.4-0.5-0.9-0.5-1.5c0-0.8,0.3-1.5,0.8-1.9
		c0.4-0.3,0.9-0.5,1.4-0.5c0.8,0,1.4,0.3,1.7,0.7c0.1,0.1,0.1,0.1,0.1,0.1l0.1,0.1l0,0l0,0l0.6-0.7L59.1,150L59.1,150L59.1,150
		L59.1,150z"/>
	<path class="st1" d="M30,151.2c0.5-0.6,1.1-0.9,1.9-0.9c0.3,0,0.7,0.1,1,0.1c0.1,0,0.3,0.1,0.4,0.1l0.3-0.9l0.1-0.4l0,0l0,0
		c-0.5-0.1-1-0.2-1.5-0.2c-0.7,0-1.5,0.1-2,0.5c-0.7,0.3-1.2,0.8-1.6,1.5c-0.4,0.6-0.7,1.3-0.8,2.1c-0.2,1.1-0.1,2.2,0.6,2.9
		c0.5,0.4,1.1,0.7,2.1,0.7c0.2,0,0.5,0,0.7-0.1c0.5-0.1,0.9-0.1,1.3-0.3l0,0l0,0v-0.3l0.1-0.9l0,0l0,0l0,0c-0.4,0.2-1,0.3-1.5,0.3
		c-1.5,0-1.9-0.9-1.7-2.5C29.5,152,29.7,151.6,30,151.2z"/>
	<path class="st1" d="M60,149v7.3l0,0l0,0h1.4v-2.1l0.5-0.5l0.4-0.5c0.3,0.3,0.7,0.7,0.9,1.2c0.4,0.6,0.8,1.3,1,1.8v0.1l0,0l0,0h1.5
		l-0.1-0.1c-0.1-0.1-0.1-0.2-0.1-0.3c-0.5-1.1-1.3-2.3-2.1-3.2c-0.1-0.1-0.3-0.3-0.4-0.4l1.9-2.3l0.7-0.9l0,0l0,0h-1.8l0,0l0,0
		l-1.3,1.6l-1.4,1.7v-3.3l0,0l0,0L60,149L60,149z"/>
	<path class="st1" d="M23.4,152.6c0.3-1.4,1.1-2.5,2.5-2.5c0.3,0,0.6,0.1,0.9,0.1c0.2,0,0.3,0.1,0.5,0.1l0.3-0.9l0.1-0.4l0,0l0,0
		c-0.5-0.1-1-0.2-1.5-0.2c-1.7,0-3,0.8-3.7,2.1c-0.3,0.5-0.5,1.2-0.7,1.9c-0.2,0.9-0.1,1.7,0.2,2.4c0,0,0,0.1,0.1,0.1
		c0.4,0.7,1.1,1.1,2.5,1.1c0.2,0,0.4,0,0.6-0.1c0.5-0.1,0.9-0.1,1.3-0.3l0,0l0,0l0.1-1.3l0,0l0,0c-0.4,0.2-1,0.3-1.5,0.3
		c-0.4,0-0.7-0.1-1-0.2c-0.2-0.1-0.4-0.3-0.5-0.5c-0.2-0.3-0.3-0.7-0.2-1.3C23.4,153,23.4,152.8,23.4,152.6z"/>
	<polygon class="st1" points="71.8,155 68,155 68,153.3 71.4,153.3 71.4,152 71.4,152 71.4,152 68,152 68,150.2 71.7,150.2 
		71.7,149 66.6,149 66.6,156.3 66.6,156.3 66.6,156.3 71.8,156.3 	"/>
	<path class="st1" d="M44.8,156.3v-2.5h0.9c0,0,0,0,0.1,0.1c0.7,0.7,1.3,1.4,1.7,2.5v0.1H49l0,0l-0.1-0.1c-0.5-1.1-1-1.9-1.8-2.7
		c0.1,0,0.1-0.1,0.1-0.1c0.1,0,0.1-0.1,0.2-0.1l0,0c0.7-0.4,1.1-1.1,1.1-1.9c0-0.5-0.1-0.9-0.3-1.1c-0.4-0.7-1.1-1.1-2.3-1.1h-2.7
		v7.3l0,0l0,0h1.5V156.3z M44.8,150.2H46c0.8,0,1.3,0.4,1.3,1.1s-0.5,1.1-1.3,1.1h-1.1V150.2z"/>
	<polygon class="st1" points="20,149 18.9,154.6 18.6,156.3 20,156.3 21.4,149 20,149 	"/>
	<path class="st1" d="M97.2,155.6c0.8-0.7,1.3-1.7,1.3-2.9c0-2.2-1.5-3.7-3.7-3.7c-1,0-1.9,0.3-2.5,0.9c-0.7,0.7-1.2,1.7-1.2,2.8
		c0,2.1,1.5,3.7,3.7,3.7C95.8,156.4,96.6,156,97.2,155.6z M97.1,152.6c0,1.4-0.9,2.4-2.2,2.4c-1.3,0-2.3-1-2.3-2.4s0.9-2.4,2.3-2.4
		C96.2,150.2,97.1,151.2,97.1,152.6z"/>
	<path class="st1" d="M101,156.3L101,156.3v-2.5h0.9c0.2,0.1,0.3,0.3,0.5,0.5c0.3,0.3,0.6,0.7,0.8,1.1c0.1,0.3,0.3,0.5,0.5,0.8v0.1
		l0,0l0,0h1.5l-0.1-0.1c-0.3-0.7-0.7-1.4-1.1-1.9c-0.2-0.3-0.4-0.5-0.7-0.8c0.1,0,0.1-0.1,0.2-0.1s0.1-0.1,0.1-0.1
		c0.7-0.4,1.1-1.1,1.1-2c0-1.5-0.9-2.3-2.5-2.3h-2.7v7.3l0,0l0,0L101,156.3L101,156.3z M102,152.5H101v-2.2h1.1
		c0.4,0,0.7,0.1,0.9,0.3c0.2,0.2,0.3,0.5,0.3,0.8c0,0.3-0.1,0.6-0.3,0.8C102.8,152.4,102.4,152.5,102,152.5z"/>
	<polygon class="st1" points="51.4,156.3 51.4,149 50,149 50,149 50,149 50,156.3 50,156.3 50,156.3 	"/>
	<path class="st1" d="M39.7,156.4c0.7,0,1.3-0.1,1.9-0.3c0.3-0.1,0.6-0.3,0.9-0.5l0,0l0,0l-0.1-0.1l-0.6-1l0,0l0,0l0,0l-0.1,0.1
		c-0.3,0.2-0.5,0.3-0.8,0.5c-0.1,0-0.1,0.1-0.1,0.1c-0.3,0.1-0.7,0.1-1,0.1c-0.5,0-0.9-0.1-1.3-0.3c-0.7-0.4-1.1-1.1-1.1-2.1
		c0-0.7,0.2-1.3,0.6-1.7c0.4-0.4,0.9-0.7,1.6-0.7c0.9,0,1.5,0.5,1.9,0.8l0.1,0.1l0,0l0,0l0,0l0.6-0.7l0.3-0.3l0,0l0,0l-0.1-0.1
		c-0.1-0.1-0.3-0.3-0.5-0.4c-0.3-0.3-0.7-0.4-1.1-0.5c-0.3-0.1-0.7-0.2-1.1-0.2c-2.3,0-3.7,1.5-3.7,3.7c0,0.5,0.1,1.1,0.3,1.5
		C36.8,155.5,38,156.4,39.7,156.4z"/>
	<path class="st0" d="M40.9,44.4c-0.1,0.1-0.1,0.1-0.1,0.1c-0.1,0.1-0.1,0.1-0.2,0.2c-0.1,0.1-0.1,0.1-0.2,0.1
		c-0.1,0.1-0.2,0.1-0.3,0.3c-0.1,0.1-0.1,0.1-0.2,0.2c-0.1,0.1-0.1,0.1-0.2,0.2c-0.1,0.1-0.3,0.3-0.5,0.4c-0.1,0.1-0.1,0.1-0.2,0.1
		c-0.1,0.1-0.2,0.2-0.3,0.3c-0.1,0.1-0.1,0.1-0.1,0.1c-0.4,0.3-0.8,0.7-1.2,1.2c0,0.1-0.1,0.1-0.1,0.1c-0.5,0.5-0.9,1-1.5,1.5
		c0,0,0,0-0.1,0.1C33,52.6,29.6,57,27,62.7c0,0.1-0.1,0.1-0.1,0.1c-0.3,0.7-0.7,1.4-0.9,2.1l0,0l0,0c-2.4,5.7-4.1,12.6-4.1,20.5
		c0,12.2,4.1,23.5,11.1,32.6c0.1,0.1,0.1,0,0.1-0.1s-0.5-0.9-1.4-2.5c-1.5-2.5-3.5-6.1-5-10.7c-0.1-0.3-0.2-0.7-0.3-1.1
		c-0.1-0.3-0.1-0.5-0.3-0.7c-0.1-0.3-0.2-0.7-0.3-1.1c-0.1-0.3-0.1-0.5-0.2-0.8c-0.1-0.4-0.2-0.7-0.3-1.1c-0.1-0.3-0.1-0.5-0.2-0.8
		c-0.1-0.4-0.1-0.8-0.3-1.2c-0.1-0.3-0.1-0.5-0.2-0.9c-0.1-0.4-0.1-0.8-0.2-1.3c-0.1-0.3-0.1-0.6-0.1-0.9c-0.1-0.5-0.1-0.9-0.1-1.4
		c0-0.3-0.1-0.5-0.1-0.8c-0.1-0.5-0.1-1.1-0.1-1.5c0-0.2-0.1-0.5-0.1-0.7C24,90,24,89.2,24,88.4c0-0.7,0-1.4,0.1-2.1
		c0-0.2,0-0.4,0-0.6c0-0.5,0.1-0.9,0.1-1.4c0-0.2,0.1-0.5,0.1-0.7c0.1-0.4,0.1-0.9,0.1-1.3c0-0.2,0.1-0.5,0.1-0.7
		c0.1-0.4,0.1-0.8,0.2-1.2c0.1-0.2,0.1-0.4,0.1-0.7c0.1-0.4,0.1-0.8,0.2-1.2c0.1-0.2,0.1-0.4,0.1-0.6c0.1-0.4,0.1-0.8,0.3-1.1
		c0.1-0.2,0.1-0.4,0.1-0.6c0.1-0.4,0.2-0.7,0.3-1.1c0.1-0.2,0.1-0.4,0.1-0.6c0.1-0.3,0.2-0.7,0.3-1.1c0.1-0.2,0.1-0.4,0.2-0.6
		c0.1-0.3,0.2-0.7,0.3-1.1c0.1-0.2,0.1-0.4,0.2-0.5c0.1-0.3,0.3-0.7,0.3-1c0.1-0.2,0.1-0.4,0.2-0.5c0.1-0.3,0.3-0.7,0.4-0.9
		c0.1-0.2,0.1-0.4,0.3-0.5c0.1-0.3,0.3-0.6,0.4-0.9c0.1-0.2,0.2-0.4,0.3-0.5c0.1-0.3,0.3-0.5,0.4-0.8c0.1-0.2,0.2-0.4,0.3-0.6
		c0.1-0.3,0.3-0.5,0.4-0.7c0.1-0.2,0.2-0.4,0.3-0.6c0.1-0.2,0.3-0.5,0.4-0.7c0.1-0.2,0.2-0.4,0.3-0.6c4-6.9,8.5-11.2,9.9-12.6
		c0.5-0.5,1-1.1,1.1-1.9l0,0l0,0c0-0.1,0-0.2,0-0.3c0-0.1,0-0.2,0-0.3c0-0.1,0-0.1,0-0.1c-0.1-0.5-0.1-1-0.3-1.5
		c-0.1-1.2-0.3-2.1-0.3-2.1h-0.1l0,0l0,0l-0.1,0.1c0,0-0.1,0.1-0.1,0.1C41,44.4,41,44.4,40.9,44.4z"/>
	<path class="st0" d="M117.9,48.4L117.9,48.4L117.9,48.4c0.1,0.8,0.5,1.4,1.1,1.9c1.5,1.4,6,5.7,10,12.7c0.1,0.2,0.2,0.3,0.3,0.5
		c0.1,0.3,0.3,0.5,0.4,0.7c0.1,0.2,0.2,0.3,0.3,0.5c0.1,0.3,0.3,0.5,0.4,0.8c0.1,0.2,0.2,0.3,0.3,0.5c0.1,0.3,0.3,0.5,0.4,0.9
		c0.1,0.2,0.2,0.4,0.3,0.5c0.1,0.3,0.3,0.6,0.4,0.9c0.1,0.2,0.1,0.4,0.3,0.5c0.1,0.3,0.3,0.6,0.4,0.9c0.1,0.2,0.1,0.4,0.2,0.5
		c0.1,0.3,0.3,0.7,0.3,1c0.1,0.2,0.1,0.4,0.2,0.6c0.1,0.3,0.2,0.7,0.3,1c0.1,0.2,0.1,0.4,0.2,0.6c0.1,0.3,0.2,0.7,0.3,1.1
		c0.1,0.2,0.1,0.4,0.2,0.6c0.1,0.3,0.2,0.7,0.3,1.1c0.1,0.2,0.1,0.4,0.1,0.6c0.1,0.4,0.1,0.7,0.3,1.1c0.1,0.2,0.1,0.4,0.1,0.6
		c0.1,0.4,0.1,0.8,0.2,1.2c0.1,0.2,0.1,0.4,0.1,0.7c0.1,0.4,0.1,0.8,0.1,1.2c0,0.2,0.1,0.5,0.1,0.7c0.1,0.4,0.1,0.9,0.1,1.3
		c0,0.2,0.1,0.4,0.1,0.7c0.1,0.5,0.1,0.9,0.1,1.5c0,0.2,0,0.3,0,0.5c0,0.7,0.1,1.3,0.1,2.1c0,0.3,0,0.5,0,0.7c0,0.5,0,1.1-0.1,1.6
		c0,0.3-0.1,0.5-0.1,0.9c0,0.5-0.1,0.9-0.1,1.4c0,0.3-0.1,0.5-0.1,0.7c-0.1,0.5-0.1,0.9-0.1,1.4c0,0.2-0.1,0.4-0.1,0.7
		c-0.1,0.5-0.1,1-0.2,1.5c0,0.2-0.1,0.3-0.1,0.5c-0.1,0.5-0.2,1-0.3,1.5c-0.1,0.1-0.1,0.3-0.1,0.5c-0.1,0.5-0.3,1-0.3,1.5
		c0,0.1-0.1,0.3-0.1,0.3c-0.1,0.5-0.3,1-0.4,1.5c0,0.1-0.1,0.2-0.1,0.3c-0.1,0.5-0.3,1-0.5,1.5c-1.5,4.6-3.5,8.2-5,10.7
		c-1,1.5-1.4,2.4-1.4,2.5c0,0.1,0.1,0.1,0.1,0.1c7-9.2,11.1-20.4,11.1-32.6c0-9-2.1-16.5-5.1-22.6c0,0,0-0.1-0.1-0.1
		c-2.7-5.7-6.1-10.1-8.8-13.3l0,0c-0.5-0.6-1-1.1-1.5-1.6l-0.1-0.1c-0.4-0.5-0.9-0.9-1.2-1.2c-0.1-0.1-0.1-0.1-0.1-0.1
		c-0.1-0.1-0.2-0.2-0.3-0.3c-0.1-0.1-0.1-0.1-0.1-0.1c-0.1-0.1-0.3-0.3-0.5-0.4c-0.1-0.1-0.1-0.1-0.2-0.2c-0.1-0.1-0.1-0.1-0.2-0.2
		c-0.1-0.1-0.2-0.2-0.3-0.3c-0.1-0.1-0.1-0.1-0.1-0.1c-0.1-0.1-0.1-0.1-0.3-0.2c-0.1,0-0.1-0.1-0.1-0.1c-0.1-0.1-0.1-0.1-0.2-0.2
		l0,0l-0.1-0.1h-0.1l-0.2-0.1c0,0,0,0.1-0.1,0.3c-0.1,0.5-0.3,1.2-0.4,2.1c-0.1,0.4-0.1,0.7-0.1,1.1c0,0.1,0,0.3,0,0.4
		C117.9,48.2,117.9,48.3,117.9,48.4z"/>
	<path class="st1" d="M56.4,21.4L56.4,21.4L56.4,21.4L56.4,21.4c0.1,0.1,0.1,0.1,0.1,0c0.2-0.1,0.3-0.1,0.5-0.2
		c0.1,0,0.1-0.1,0.2-0.1c0.1-0.1,0.3-0.1,0.5-0.1c0.1,0,0.1-0.1,0.3-0.1c0.2-0.1,0.3-0.1,0.5-0.2c0.1,0,0.1,0,0.1-0.1
		c0.2-0.1,0.5-0.1,0.7-0.2l0,0c0.1-0.1,0.3-0.1,0.4-0.1c0.1,0,0.1-0.1,0.3-0.1c0.1,0,0.1-0.1,0.2-0.1s0.1,0,0.1-0.1
		c0.1,0,0.2-0.1,0.3-0.1l0.1-0.1c0.1-0.1,0.2-0.1,0.3-0.3v-0.1c0,0,0,0,0-0.1c0,0,0,0,0-0.1l0,0c0.2-0.9,0.9-5.3,4.3-9.4
		c3.7-4.3,9.1-7,14.6-7c3.2,0,5.3,0.6,5.9,0.8c0.3,0.1,0.1,0.4-0.1,0.5c-1.6,1.3-3.3,3.1-4.3,4c-1,1.1-2.3,2.9-3.3,4.5l0,0
		c-0.1,0.2-0.3,0.5-0.4,0.7c0,0.1-0.1,0.1-0.1,0.1c-0.1,0.2-0.2,0.4-0.3,0.5c0,0.1-0.1,0.1-0.1,0.1c0,0,0,0,0,0.1l0,0
		c-0.1,0.1-0.1,0.3-0.2,0.4l0,0c0,0.1,0,0.1,0,0.1v0.1l0,0l0,0l0,0c0.1,0,0.1,0,0.3,0s0.2-0.1,0.3-0.1l0,0c0,0,0,0,0.1,0
		c0,0,0,0,0.1,0c0.1-0.1,0.3-0.1,0.6-0.4l0,0l0,0c0.2-0.1,0.3-0.4,0.6-0.7c0.1-0.1,0.3-0.3,0.3-0.5c0.1-0.1,0.1-0.2,0.2-0.3l0,0
		c0.6-0.8,1.3-1.6,2.1-2.4c0.9-1,2-2,3.1-2.8c0,0,0.1,0,0.1-0.1c0.3-0.3,0.7-0.5,0.9-0.7c0.1-0.1,0.1-0.1,0.2-0.1
		c0.3-0.3,0.6-0.5,0.9-0.7c0.1,0,0.1-0.1,0.1-0.1c0.7-0.5,1.3-0.9,1.8-1.3l0,0c0.9-0.6,1.7-1.1,2.3-1.3l0.7-0.4l0,0l0,0l0,0
		c0,0,0,0,0-0.1V3.1C91.1,2.8,86.5,0,80,0c-4.6,0-8.2,1.3-10.9,2.6c0,0-0.1,0-0.1,0.1c-0.3,0.1-0.5,0.3-0.7,0.4
		c-0.1,0-0.1,0.1-0.1,0.1c-0.2,0.1-0.4,0.3-0.6,0.3c-0.1,0.1-0.1,0.1-0.2,0.1c-0.2,0.1-0.3,0.2-0.5,0.3c-0.1,0.3-0.2,0.3-0.3,0.3
		c-0.1,0.1-0.3,0.2-0.5,0.3C66.1,4.7,66,4.7,66,4.7c-0.2,0.1-0.3,0.3-0.5,0.3l0,0c-0.2,0.2-0.5,0.3-0.7,0.5
		c-0.1,0.1-0.1,0.1-0.2,0.2c-0.1,0.1-0.3,0.2-0.3,0.3c-0.2,0.1-0.3,0.2-0.4,0.3c-0.1,0.1-0.1,0.1-0.2,0.2c-0.1,0.1-0.3,0.3-0.4,0.4
		l-0.1,0.1c-0.1,0.1-0.3,0.3-0.5,0.5l0,0c-0.5,0.5-0.9,1-1.3,1.5l0,0l0,0c-1,1.2-1.7,2.3-2.1,3.2l0,0c-0.5,0.8-0.9,1.7-1.3,2.6
		C57.1,17,56.6,19.3,56.4,21.4L56.4,21.4z"/>
	<path class="st1" d="M119.8,42.6c0.1,0.1,0.2,0.3,0.3,0.3l0,0l0,0c0,0,4.1,3.6,8.1,9l0,0c0.6,0.8,1.3,1.7,1.9,2.6l0,0
		c0,0.1,0.1,0.1,0.1,0.1c0.4,0.5,0.7,1.1,1.1,1.7c0,0,0,0.1,0.1,0.1c0,0.1,0.1,0.1,0.1,0.1l0,0c0,0,0.1,0.1,0.1,0.1
		c0.1,0.1,0.1,0.2,0.2,0.3c0,0,0,0,0,0.1c0.1,0.3,0.3,0.6,0.5,1l0,0c0.3,0.6,0.7,1.3,1.1,2.2l0,0c0.1,0.3,0.3,0.6,0.4,0.9l0,0l0,0
		l0,0c0.1,0.3,0.3,0.6,0.4,0.9v0.1c0.1,0.3,0.3,0.6,0.4,0.9c0,0.1,0.1,0.1,0.1,0.2c0.1,0.3,0.3,0.6,0.3,0.9c0,0.1,0.1,0.1,0.1,0.2
		c0.1,0.3,0.3,0.7,0.4,1.1c0,0.1,0.1,0.1,0.1,0.1c0.1,0.3,0.3,0.7,0.3,1c0.1,0.1,0.1,0.2,0.1,0.3c0.1,0.3,0.2,0.6,0.3,0.9
		c0,0.1,0.1,0.2,0.1,0.3c0.1,0.4,0.3,0.9,0.4,1.3c0,0.1,0.1,0.1,0.1,0.2c0.1,0.3,0.2,0.7,0.3,1.1c0.1,0.1,0.1,0.3,0.1,0.5
		c0.1,0.3,0.1,0.7,0.3,1c0,0.1,0.1,0.3,0.1,0.4c0.1,0.5,0.2,0.9,0.3,1.4c0,0.1,0,0.2,0.1,0.3c0.1,0.4,0.1,0.8,0.2,1.2
		c0,0.2,0.1,0.3,0.1,0.5c0.1,0.3,0.1,0.7,0.1,1.1c0,0.2,0.1,0.3,0.1,0.5c0.1,0.5,0.1,1,0.2,1.5c0,0.1,0,0.1,0,0.2
		c0.1,0.5,0.1,0.9,0.1,1.4c0,0.2,0,0.3,0.1,0.5c0,0.4,0.1,0.8,0.1,1.2c0,0.2,0,0.4,0,0.5c0,0.5,0,1.1,0,1.6v0.1
		c0,18.8-9.5,33-17.7,40.7l0,0c-0.3,0.3-0.7,0.6-1,0.9c-0.1,0.1-0.1,0.1-0.3,0.2c-0.3,0.3-0.6,0.5-0.9,0.8l-0.1,0.1
		c-0.7,0.6-1.4,1.1-2.1,1.7c-2.5,1.9-4.7,3.3-6.1,4.3c-1.2,0.7-1.7,1.5-1.2,2.9l0,0c0.1,0.2,0.1,0.4,0.3,0.6v0.1
		c0.1,0.1,0.1,0.3,0.1,0.5c0,0,0,0,0,0.1c0.1,0.1,0.1,0.2,0.1,0.3l0,0l0,0l0,0l0,0l0,0l0,0l0,0c0.3-0.1,1.3-0.7,2.9-1.6
		c1.9-1.1,4.5-2.7,7.4-4.9c0.5-0.4,1-0.8,1.5-1.2c0.3-0.3,0.7-0.5,0.9-0.8c0.1-0.1,0.2-0.2,0.3-0.3c0.2-0.2,0.5-0.4,0.7-0.6
		c0.1-0.1,0.3-0.3,0.4-0.3c0.2-0.2,0.4-0.3,0.6-0.5c0.1-0.1,0.3-0.3,0.5-0.4c0.2-0.1,0.3-0.3,0.5-0.5c0.1-0.1,0.3-0.3,0.5-0.5
		c0.1-0.1,0.3-0.3,0.5-0.5c0.2-0.2,0.3-0.3,0.5-0.5c0.1-0.1,0.3-0.3,0.5-0.5c0.2-0.2,0.3-0.3,0.5-0.5c0.1-0.1,0.3-0.3,0.5-0.5
		c0.2-0.2,0.3-0.4,0.5-0.6c0.1-0.1,0.3-0.3,0.4-0.5c0.2-0.2,0.4-0.4,0.5-0.7c0.1-0.1,0.3-0.3,0.4-0.5c0.2-0.2,0.4-0.5,0.6-0.7
		c0.1-0.1,0.2-0.3,0.3-0.4c0.2-0.3,0.4-0.5,0.6-0.7c0.1-0.1,0.2-0.3,0.3-0.4c0.2-0.3,0.4-0.5,0.7-0.9c0.1-0.1,0.1-0.2,0.2-0.3
		c0.3-0.3,0.5-0.7,0.7-1l0,0c1.4-2.1,2.8-4.3,4-6.6c0-0.1,0.1-0.1,0.1-0.1c0.2-0.4,0.4-0.8,0.6-1.3c0.1-0.1,0.1-0.1,0.1-0.3
		c0.2-0.4,0.4-0.8,0.6-1.2c0.1-0.1,0.1-0.2,0.1-0.3c0.2-0.4,0.3-0.8,0.5-1.2c0.1-0.1,0.1-0.2,0.1-0.3c0.2-0.4,0.3-0.9,0.5-1.3
		c0.1-0.1,0.1-0.2,0.1-0.3c0.1-0.4,0.3-0.9,0.5-1.3c0.1-0.1,0.1-0.2,0.1-0.3c0.1-0.5,0.3-0.9,0.5-1.3c0.1-0.1,0.1-0.2,0.1-0.3
		c0.1-0.5,0.3-0.9,0.5-1.4c0-0.1,0.1-0.2,0.1-0.3c0.1-0.5,0.3-1,0.4-1.5c0-0.1,0-0.1,0.1-0.1c0.1-0.3,0.1-0.5,0.2-0.7l0,0l0,0l0,0
		c0-0.1,0.1-0.2,0.1-0.3l0,0c0,0.1-0.1,0.2-0.1,0.3l0,0c1.1-4.5,1.8-9.5,1.8-14.8c0-8.1-1.5-15.3-3.9-21.4c0-0.1-0.1-0.2-0.1-0.3
		c-0.3-0.7-0.5-1.3-0.7-1.9c-0.1-0.1-0.1-0.2-0.1-0.3c-0.1-0.3-0.3-0.7-0.4-1c-0.1-0.2-0.2-0.4-0.3-0.6c-0.2-0.5-0.4-0.9-0.6-1.3
		c-0.1-0.3-0.2-0.5-0.3-0.7c-0.1-0.3-0.3-0.6-0.5-0.9c-0.2-0.3-0.3-0.7-0.5-1c-0.1-0.2-0.2-0.4-0.3-0.5c-0.2-0.4-0.5-0.8-0.7-1.2
		c-0.1-0.1-0.1-0.3-0.2-0.3c-0.3-0.4-0.5-0.8-0.7-1.2l0,0c0-0.1-0.1-0.1-0.1-0.1c0,0,0,0,0-0.1c-6.3-9.9-13.6-15.5-15.1-16.5
		c-0.1,0-0.1-0.1-0.1-0.1l0,0c-0.1-0.1-0.1-0.1-0.1-0.1h-0.1h-0.1c-0.2,1.5-0.6,4.3-0.9,5.9c0,0.2-0.1,0.4-0.1,0.5l0,0
		c-0.1,0.3-0.1,0.5-0.1,0.6l0,0c0,0.1,0,0.1,0,0.1c0,0.1,0,0.2,0,0.2C119.1,41,119.1,41.7,119.8,42.6L119.8,42.6z"/>
	<path class="st1" d="M96.2,126.3c0.1,0,0.1,0,0.1,0.1c0.1,0.1,0.2,0.1,0.3,0.1h0.1c0.1,0,0.3-0.2,0.1-0.4c-0.2-0.2-0.3-0.3-0.5-0.5
		l-0.1-0.1c-0.1-0.1-0.3-0.3-0.5-0.4c-0.1-0.1-0.1-0.1-0.1-0.1c-0.1-0.1-0.2-0.2-0.3-0.3c-0.1-0.1-0.1-0.1-0.2-0.1
		c0,0-0.1,0-0.1-0.1c-0.1-0.1-0.1-0.1-0.3-0.2c-0.1-0.1-0.1-0.1-0.2-0.1c-0.1-0.1-0.2-0.1-0.3-0.3c-0.1-0.1-0.1-0.1-0.2-0.1
		c-0.1-0.1-0.2-0.1-0.3-0.2c-0.1-0.1-0.1-0.1-0.2-0.1c-0.1-0.1-0.2-0.1-0.3-0.2c-0.1-0.1-0.1-0.1-0.2-0.1c-0.1-0.1-0.2-0.1-0.3-0.2
		c-0.1-0.1-0.1-0.1-0.2-0.1c-0.1-0.1-0.2-0.1-0.3-0.2c-0.1-0.1-0.1-0.1-0.2-0.1c-0.1-0.1-0.2-0.1-0.3-0.2c-0.1-0.1-0.1-0.1-0.2-0.1
		c-0.1-0.1-0.2-0.1-0.3-0.2c-0.1-0.1-0.1-0.1-0.2-0.1c-0.1-0.1-0.2-0.1-0.3-0.2c-0.1-0.1-0.1-0.1-0.2-0.1c-0.1-0.1-0.3-0.2-0.5-0.3
		c0,0-0.1,0-0.1-0.1c-0.4-0.2-0.8-0.4-1.2-0.7l0,0c-0.1,0-0.1-0.1-0.1-0.1l0,0c-0.2-0.1-0.3-0.2-0.5-0.3c-0.1,0-0.1-0.1-0.1-0.1
		c-0.3-0.2-0.5-0.5-0.5-0.9c0-0.2,0-0.4,0.1-0.6c2.7-5.1,5.1-10.1,7.3-15c0.1-0.2,0.1-0.3,0.2-0.5c0.5-1.1,1-2.3,1.5-3.4
		c0-0.1,0.1-0.1,0.1-0.1c0.9-2.1,1.7-4.1,2.4-6.1c0.2-0.5,0.3-0.9,0.5-1.3l0,0c0.1-0.5,0.3-0.9,0.5-1.3c1.9-5.3,3.5-10.4,4.9-15.1
		c0.2-0.7,0.4-1.5,0.6-2.2c0,0,0-0.1,0-0.1c0.1-0.3,0.2-0.6,0.3-0.9c0.1-0.5,0.3-0.9,0.3-1.3c0.1-0.2,0.1-0.4,0.1-0.5
		c0.1-0.5,0.3-1.1,0.4-1.5c0.1-0.4,0.2-0.8,0.3-1.2c0.1-0.3,0.1-0.5,0.2-0.7l0,0c1.4-5.5,2.3-10.1,3.1-14.3v0.1c0-0.1,0-0.1,0-0.1
		c0.1-0.9,0.3-1.7,0.5-2.6V50c0.1-0.9,0.3-1.8,0.4-2.7c1-6.7,1.9-15.1,2.1-17.4c0.1-0.6,0.1-1,0-1.3c-0.1-0.6-0.3-0.9-0.7-1.2
		s-2.1-1.1-2.5-1.3c-0.1,0-0.1,0-0.1-0.1H110c0,0-0.2,2.9-0.6,6.8c0,0.1,0,0.2,0,0.3c-0.2,2.1-0.5,4.3-0.8,6.7
		c-0.1,0.9-0.2,1.7-0.3,2.5c-0.1,0.4-0.1,0.7-0.1,1.1c0,0.1,0,0.2-0.1,0.3c-0.1,0.3-0.1,0.7-0.1,1c0,0.1-0.1,0.3-0.1,0.4
		c0,0.2-0.1,0.5-0.1,0.7c0,0.1-0.1,0.3-0.1,0.5c-0.1,0.3-0.1,0.5-0.1,0.7c0,0.1-0.1,0.3-0.1,0.5c0,0.2-0.1,0.4-0.1,0.6
		c0,0.1-0.1,0.3-0.1,0.5c0,0.2-0.1,0.4-0.1,0.5c0,0.1,0,0.1-0.1,0.3c-0.1,0.3-0.1,0.5-0.1,0.7v0.1c-0.1,0.3-0.1,0.5-0.1,0.7
		c-0.4,2.3-1,5.5-1.3,7.2c0,0.1-0.1,0.3-0.1,0.3c0,0.1,0,0.1-0.1,0.2c0,0.1,0,0.1-0.1,0.2c0,0.1-0.1,0.2-0.1,0.3
		c0,0.1,0,0.1-0.1,0.1c0,0.1-0.1,0.1-0.1,0.2c0,0.1-0.1,0.1-0.1,0.2l0,0v0.1c-0.1,0.2-0.1,0.5-0.3,0.6c-0.1,0.1-0.1,0.1-0.1,0.1
		h-0.1c0,0,0.1-0.3,0.6-4c0.3-1.7,0.6-4,1-7.3c0.3-2.7,0.6-5.5,0.9-7.8c0.2-2.2,0.4-4.1,0.5-5.1c0-0.3,0.1-0.5,0.1-0.7
		c0.1-1.1,0.2-2.3,0.3-3.3c-0.1,1.2-0.2,2.6-0.3,4c0.5-5.9,0.7-10.7,0.7-11l0,0l0,0l0,0l0,0l0,0l0,0l0,0c0,0-0.1,0-0.1-0.1l0,0l0,0
		c0,0-0.1-0.1-0.4-0.2c-1.3-0.6-6-2.8-13.5-4.5c-0.1,0-0.1,0-0.2-0.1c-0.4-0.1-0.7-0.1-1.1-0.3c-0.1,0-0.1,0-0.1,0h-0.1
		c-0.1,0-0.1,0-0.2-0.1c-0.3-0.1-0.5-0.1-0.7-0.1c-0.1,0-0.1,0-0.3-0.1c-0.1,0-0.1,0-0.1,0c-0.1,0-0.1,0-0.1,0
		c-0.3-0.1-0.5-0.1-0.7-0.1c-0.1,0-0.3-0.1-0.3-0.1h-0.1h-0.1c-0.1,0-0.3-0.1-0.4-0.1c-0.1,0-0.2,0-0.3-0.1c-0.1,0-0.2-0.1-0.3-0.1
		c-0.1,0-0.1,0-0.1,0c-0.2,0-0.3-0.1-0.5-0.1c-0.1,0-0.3-0.1-0.3-0.1s-0.1,0-0.1,0c-0.1,0-0.3-0.1-0.5-0.1c-0.1,0-0.3-0.1-0.5-0.1
		h-0.1c-0.1,0-0.3,0-0.5-0.1c-0.1,0-0.3,0-0.5-0.1c0,0,0,0-0.1,0c-0.2,0-0.3,0-0.5-0.1c-0.1,0-0.2,0-0.3,0c0.1,0,0.2,0,0.3,0
		c-0.1,0-0.3,0-0.4,0l0,0l0,0C85,19,84.6,19,84.2,19c-0.1,0-0.1,0-0.1,0c-0.4,0-0.8-0.1-1.3-0.1c-0.1,0-0.1,0-0.1,0
		c-0.4,0-0.8,0-1.2,0h-0.1c-0.1,0-0.1,0-0.2,0l0,0c-0.3,0-0.7,0-1,0l0,0H80l0,0c-0.3,0-0.6,0-0.9,0H79c-0.1,0-0.1,0-0.1,0h-0.1
		c-0.3,0-0.5,0-0.7,0l0,0c-0.1,0-0.3,0-0.5,0c-0.1,0-0.1,0-0.1,0c-0.4,0-0.8,0-1.3,0.1c-0.1,0-0.1,0-0.1,0c-0.1,0-0.1,0-0.2,0l0,0
		c-0.4,0-0.7,0.1-1.1,0.1l0,0l0,0c-0.3,0-0.6,0.1-0.9,0.1c0,0,0,0-0.1,0c-0.3,0-0.6,0.1-0.9,0.1c-0.1,0-0.2,0-0.3,0.1
		c-0.2,0-0.5,0.1-0.7,0.1c-0.1,0-0.3,0-0.3,0.1c-0.2,0-0.4,0.1-0.6,0.1l0,0l0,0c-0.1,0-0.1,0-0.1,0c-0.1,0-0.1,0-0.3,0.1
		c-0.1,0-0.3,0.1-0.5,0.1c-0.1,0-0.2,0-0.3,0.1c-0.1,0-0.1,0-0.1,0c-0.1,0-0.2,0.1-0.3,0.1c-0.1,0-0.2,0.1-0.3,0.1
		c-0.1,0-0.3,0.1-0.4,0.1l0,0c-0.1,0-0.1,0-0.2,0.1c-0.1,0-0.1,0-0.3,0.1c-0.3,0.1-0.5,0.1-0.8,0.1c-0.1,0-0.1,0-0.2,0.1
		c-0.1,0-0.1,0-0.1,0c-0.1,0-0.1,0-0.1,0c-0.4,0.1-0.7,0.1-1.1,0.3c-0.1,0-0.1,0-0.1,0c-7.5,1.7-12.1,3.8-13.5,4.5
		c-0.3,0.1-0.4,0.2-0.4,0.2l0,0l0,0c0,0-0.1,0-0.1,0.1l0,0l0,0l0,0l0,0l0,0l0,0c0,0,0.2,4.8,0.7,10.9v0.1v0.1l0,0
		c0,0.2,0.1,0.5,0.1,0.7c0.2,2.2,0.6,6.3,1.1,10.3c0.1,0.6,0.1,1.1,0.2,1.7c0.4,3.3,0.8,5.7,1,7.3c0.5,3.7,0.6,3.9,0.6,4h-0.1
		c-0.1,0-0.1-0.1-0.1-0.1c-0.1-0.1-0.2-0.4-0.3-0.6v-0.1l0,0c0-0.1-0.1-0.1-0.1-0.3c0,0,0,0,0-0.1c0-0.1-0.1-0.2-0.1-0.3
		c0-0.1,0-0.1,0-0.1c0-0.1-0.1-0.2-0.1-0.3c-0.1-0.1-0.1-0.3-0.1-0.5c-0.3-1.7-0.9-5-1.3-7.2c0-0.1,0-0.1,0-0.1
		c0-0.1-0.1-0.3-0.1-0.5c0-0.1,0-0.1-0.1-0.3c-0.1-0.2-0.1-0.4-0.1-0.7c0-0.1,0-0.2-0.1-0.3c0-0.2-0.1-0.4-0.1-0.5
		c0-0.1-0.1-0.2-0.1-0.3c-0.1-0.3-0.1-0.5-0.1-0.7c0-0.1-0.1-0.2-0.1-0.3c-0.1-0.3-0.1-0.6-0.1-0.9c0-0.1,0-0.1-0.1-0.2
		c-0.1-0.3-0.1-0.6-0.1-0.9c0-0.1,0-0.1-0.1-0.3c-0.1-0.3-0.1-0.7-0.1-1.1c0-0.1,0-0.2-0.1-0.3c-0.1-0.4-0.1-0.8-0.1-1.1
		c-0.1-0.8-0.2-1.7-0.3-2.5c-0.3-2.4-0.6-4.7-0.8-6.7c0-0.1,0-0.1,0-0.2c-0.1-0.5-0.1-0.9-0.1-1.4l0,0c0-0.2-0.1-0.5-0.1-0.7l0,0
		c0-0.2-0.1-0.4-0.1-0.6c0-0.1,0-0.1,0-0.2s0-0.2,0-0.3c0-0.1,0-0.2,0-0.3c0-0.1,0-0.1,0-0.1c-0.1-0.4-0.1-0.7-0.1-1.1l0,0
		c-0.1-1.3-0.2-2.1-0.2-2.1l0,0l0,0l0,0l0,0c-0.1,0.1-2.1,1-2.5,1.3c-0.6,0.5-0.9,1-0.7,2.5c-0.2,2.4,0.7,10.8,1.7,17.4
		c0.3,1.8,0.5,3.6,0.9,5.5c-0.1-0.3-0.1-0.5-0.1-0.9c0.7,4.4,1.7,9.1,3.2,15.1l0,0c0.7,2.6,1.4,5.4,2.3,8.5
		c3.6,12.5,9.2,27.8,17.2,43c0.2,0.4,0.1,0.9-0.1,1.2c-0.1,0.1-0.2,0.3-0.4,0.3c-0.1,0-0.1,0.1-0.1,0.1c-0.1,0.1-0.3,0.1-0.4,0.2
		l0,0l0,0l0,0c-0.3,0.1-0.5,0.3-0.7,0.4h-0.1c-0.1,0.1-0.3,0.2-0.5,0.3c-0.1,0.1-0.1,0.1-0.2,0.1c-0.1,0.1-0.3,0.1-0.3,0.2
		c-0.1,0.1-0.1,0.1-0.2,0.1c-0.1,0.1-0.2,0.1-0.3,0.2c-0.1,0.1-0.1,0.1-0.3,0.1c-0.1,0.1-0.2,0.1-0.3,0.1c-0.1,0.1-0.1,0.1-0.3,0.1
		c-0.1,0.1-0.2,0.1-0.3,0.1c-0.1,0.1-0.1,0.1-0.3,0.1c-0.1,0.1-0.1,0.1-0.3,0.1c-0.1,0.1-0.1,0.1-0.2,0.1c-0.1,0.1-0.1,0.1-0.3,0.2
		c-0.1,0.1-0.1,0.1-0.2,0.1c-0.1,0.1-0.1,0.1-0.3,0.2c-0.1,0.1-0.1,0.1-0.2,0.1c-0.1,0.1-0.2,0.1-0.3,0.2s-0.1,0.1-0.2,0.1
		c-0.1,0.1-0.2,0.1-0.3,0.2s-0.1,0.1-0.2,0.1c-0.1,0.1-0.2,0.2-0.3,0.3c-0.1,0.1-0.1,0.1-0.2,0.1c-0.1,0.1-0.2,0.2-0.3,0.3
		c-0.1,0.1-0.1,0.1-0.1,0.1c-0.1,0.1-0.3,0.3-0.5,0.5l0,0c-0.2,0.2-0.3,0.3-0.5,0.5c-0.1,0.1-0.1,0.3-0.1,0.3l0.1,0.1h0.1
		c0.1,0,0.1-0.1,0.3-0.1h0.1c0.1,0,0.1-0.1,0.1-0.1c0.1,0,0.1-0.1,0.2-0.1h0.1c0.1,0,0.1-0.1,0.3-0.1h0.1c0.1-0.1,0.2-0.1,0.3-0.1
		l0,0c0.3-0.1,0.5-0.2,0.8-0.3l0,0l0,0l0,0c1.9-0.7,3.7-1.1,5.7-1.5c0.1,0,0.2-0.1,0.3-0.1c0.7-0.1,1.4-0.3,2.1-0.3
		c1.1-0.1,2.2-0.3,3.1-0.3c0.4,0,0.8-0.1,1.3-0.1c0.1,0,0.3,0,0.3,0c0.5,0,1,0,1.5,0h0.1c0.2,0,0.4,0,0.7,0c0.1,0,0.2,0,0.3,0
		c0.5,0,1.1,0,1.7,0.1c0.3,0,0.5,0,0.7,0.1c0.9,0.1,1.8,0.1,2.7,0.3c0.7,0.1,1.5,0.2,2.3,0.3c0.1,0,0.2,0.1,0.3,0.1
		c0.4,0.1,0.7,0.1,1.1,0.3c0.2,0.1,0.3,0.1,0.5,0.1c0.1,0,0.1,0,0.1,0c0.5,0.1,1,0.3,1.5,0.4c0.3,0.1,0.5,0.1,0.8,0.3
		c0.1,0,0.2,0.1,0.3,0.1c0.3,0.1,0.5,0.1,0.8,0.3c0.1,0,0.1,0,0.1,0.1H94l0.5,0.1c0.1,0,0.1,0,0.1,0.1c0.1,0,0.2,0.1,0.3,0.1
		c0,0,0,0,0.1,0c0.2,0.1,0.4,0.1,0.6,0.2c0,0,0,0,0.1,0s0.1,0.1,0.2,0.1L96.2,126.3z M94.9,127.3c-1.1-0.4-1.7-0.6-1.7-0.6
		c-1.2-0.4-2.1-0.7-2.1-0.7h-0.1c-0.1,0-0.1,0-0.1,0c-0.1,0-0.1,0-0.1,0c0,0,0,0-0.1,0s-0.1,0-0.2-0.1c-0.1,0-0.1-0.1-0.2-0.1
		c-0.1,0-0.3-0.1-0.3-0.1l0,0c-0.1,0-0.3-0.1-0.3-0.1s-0.1,0-0.2-0.1c-0.1,0-0.1,0-0.1,0l0,0l0,0c-0.6-0.1-1.2-0.2-1.8-0.3
		c-0.1,0-0.2,0-0.3-0.1c-0.3-0.1-0.5-0.1-0.7-0.1c-0.1,0-0.3,0-0.4-0.1c-0.2,0-0.5-0.1-0.7-0.1c-0.1,0-0.3,0-0.4-0.1
		c-0.2,0-0.5-0.1-0.7-0.1c-0.1,0-0.2,0-0.3,0l0,0l0,0c-1.4-0.1-3-0.1-3.9-0.1h-0.1c-0.5,0-2,0-3.6,0.1l0,0l0,0l0,0
		c-0.1,0-0.2,0-0.3,0c-0.2,0-0.4,0.1-0.6,0.1c-0.1,0-0.3,0-0.5,0.1c-0.2,0-0.4,0.1-0.6,0.1c-0.1,0-0.3,0.1-0.5,0.1s-0.4,0.1-0.6,0.1
		c-0.1,0-0.3,0.1-0.4,0.1c-0.2,0-0.4,0.1-0.5,0.1s-0.3,0.1-0.4,0.1c-0.2,0-0.4,0.1-0.5,0.1c-0.1,0-0.3,0.1-0.4,0.1
		c-0.1,0-0.1,0-0.2,0.1l0,0l0,0l0,0l0,0l0,0c0,0,0,0-0.1,0l0,0c0,0,0,0,0.1,0l0,0c-0.9,0.2-2,0.5-3.2,0.8h0.1l0,0h-0.1l0,0l0,0l0,0
		c0,0,0,0-0.1,0l0,0c0,0,0,0,0.1,0c-0.2,0.1-0.4,0.1-0.7,0.2l0,0c-0.2,0.1-0.5,0.1-0.7,0.3l0,0l0,0l0,0l0,0c-0.1,0-0.1,0-0.1,0.1
		c-0.1,0-0.1,0.1-0.1,0.1c-0.1,0.1-0.3,0.1-0.5,0.2l0,0c-0.1,0-0.1,0.1-0.2,0.1c-0.1,0.1-0.2,0.1-0.3,0.1h-0.1l0,0c0,0,0,0-0.1,0
		l0,0l0,0l0,0l0,0l0,0c-1,0.4-1.9,0.9-2.7,1.3l0,0c-0.3,0.2-0.5,0.3-0.8,0.5l0,0c-0.5,0.3-0.9,0.7-1.4,1.1c0,0,0,0-0.1,0.1
		c-0.2,0.1-0.3,0.3-0.5,0.5l-0.1,0.1c-0.1,0.1-0.3,0.3-0.5,0.5l-0.1,0.1c-0.1,0.1-0.3,0.3-0.4,0.5l0,0l0,0c-0.3,0.4-0.6,0.7-0.8,1.1
		c0,0,0,0,0,0.1c-0.3,0.3-0.5,0.7-0.7,1.1l0,0l0,0c-1.4,2.2-2.1,3.9-2.2,5.3c0,0.1,0,0.3,0.1,0.2c0.1-0.1,0.2-0.1,0.3-0.3
		c0.1-0.1,2.6-2.1,10.5-3.5c2.1-0.4,4.6-0.7,7.5-1c0.3,0,0.5-0.1,0.7-0.1c0.3,0,0.7-0.1,1.1-0.1c0.3,0,0.5,0,0.7-0.1
		c0.5,0,0.9-0.1,1.3-0.1c0.2,0,0.4,0,0.6,0c0.7,0,1.3,0,2.1-0.1l0,0c0.1,0,0.6,0,0.7,0l0,0c6,0.1,10.5,0.7,14.1,1.3
		c1.3,0.3,2.5,0.5,3.5,0.7c2.9,0.7,4.8,1.5,5.8,2c0.8,0.4,1.1,0.7,1.2,0.7l0.1,0.1c0.1,0.1,0.1,0.1,0.2,0.1l0.1,0.1
		c0.1,0,0.1,0,0.1,0l0,0c0.1,0,0.1-0.1,0.1-0.1v-0.1l0,0c0-0.1-0.1-0.3-0.1-0.4c0-0.1,0-0.1,0-0.1c-0.1-0.1-0.1-0.3-0.1-0.5l0,0
		c-0.1-0.1-0.1-0.3-0.1-0.5c0-0.1,0-0.1-0.1-0.1c-0.1-0.2-0.1-0.4-0.2-0.5l0,0c-0.1-0.2-0.2-0.4-0.3-0.6c0-0.1-0.1-0.1-0.1-0.1
		c-0.2-0.4-0.4-0.9-0.7-1.3c0-0.1-0.1-0.1-0.1-0.1c-0.1-0.3-0.3-0.5-0.5-0.7l0,0l0,0c-0.2-0.3-0.5-0.7-0.7-1l0,0
		c-0.3-0.3-0.5-0.7-0.8-1c0,0,0,0,0-0.1l-0.1-0.1l-0.1-0.1l0,0l0,0c-0.2-0.2-0.3-0.4-0.5-0.7l0,0l0,0c0,0,0,0-0.1-0.1
		c-0.2-0.2-0.3-0.3-0.5-0.5c0,0-0.1,0-0.1-0.1c-0.1-0.1-0.1-0.1-0.1-0.1c-0.1-0.1-0.3-0.3-0.4-0.3c-0.1-0.1-0.1-0.1-0.1-0.1
		c-0.1-0.1-0.2-0.1-0.3-0.2c-0.1-0.1-0.1-0.1-0.3-0.2c-0.1-0.1-0.1-0.1-0.2-0.1c-0.1-0.1-0.3-0.2-0.5-0.3l-0.1-0.1
		c-0.1-0.1-0.1-0.1-0.2-0.1c-0.2-0.1-0.4-0.3-0.7-0.4c-0.1,0-0.1-0.1-0.1-0.1c-0.3-0.1-0.5-0.3-0.7-0.4H97
		C97,128.2,96.1,127.8,94.9,127.3z M55.9,28.8L55.9,28.8L55.9,28.8C55.9,28.8,55.9,28.8,55.9,28.8c0-0.1,1.2-0.5,3.1-1.2
		c0.2-0.1,0.4-0.1,0.5-0.2c2-0.7,4.7-1.5,7.5-2.1c1.9-0.4,3.6-0.7,5.1-0.9c3.1-0.5,5.6-0.6,7.1-0.6c0.2,0,0.4,0,0.6,0
		c0.2,0,0.4,0,0.7,0c0.4,0,0.8,0,1.3,0.1h0.1c0.2,0,0.4,0,0.6,0h0.1c0.2,0,0.4,0,0.6,0.1c0.1,0,0.1,0,0.2,0c0.2,0,0.3,0,0.5,0.1
		c0.1,0,0.1,0,0.2,0c0.2,0,0.3,0,0.5,0.1c0.1,0,0.2,0,0.3,0c0.2,0,0.3,0.1,0.5,0.1c0.1,0,0.2,0,0.3,0.1c0.2,0,0.3,0.1,0.5,0.1
		c0.1,0,0.2,0,0.3,0.1c0.2,0,0.4,0.1,0.6,0.1c0.1,0,0.3,0.1,0.4,0.1c0.2,0,0.4,0.1,0.6,0.1c0.1,0,0.3,0.1,0.4,0.1
		c0.2,0,0.4,0.1,0.6,0.1c0.1,0,0.3,0.1,0.4,0.1c0.2,0.1,0.5,0.1,0.7,0.1c0.1,0,0.3,0.1,0.3,0.1c0.3,0.1,0.5,0.1,0.7,0.1
		c0.1,0,0.2,0.1,0.3,0.1c0.3,0.1,0.6,0.1,0.9,0.2c2.7,0.6,5.3,1.4,7.3,2.1c0.2,0.1,0.3,0.1,0.5,0.2c0.5,0.2,1,0.3,1.4,0.5
		c1.2,0.5,1.9,0.7,1.9,0.7s-0.1,0-0.2-0.1c0.1,0.1,0.2,0.1,0.2,0.1l0,0l0,0l0,0c0,0,0,0.1,0,0.1c0,0,0,0.1,0,0.1l0,0c0,0,0,0,0,0.1
		s0,0.1-0.1,0.1l0,0l0,0c-0.1,0.1-0.1,0.1-0.3,0.1c-0.5-0.1-3.2-1-3.6-1.1c-0.1,0-0.3-0.1-0.6,0c-0.1,0-0.1,0.1-0.1,0.1
		c0,0,0,0-0.1,0.1l-0.1,0.1v0.1v0.1c0,0.1-0.1,0.1-0.1,0.2c-2.4,7.7-9.3,13.6-18.1,13.8c-0.8,0-2.1-0.1-2.7-0.1l0,0l-0.2-0.1
		c-0.5-0.1-0.7-0.5-0.9-0.9c-0.6-1.5-0.1-3.7,0.1-5.1c0.5-2.5,1.4-4.9,2.3-7.2l0,0c0.1-0.2,0.5-1.3,0.5-1.3c0-0.3-1.5,0.9-2,1.9
		c0.3-0.4,0.5-0.7,0.7-0.9c-0.2,0.2-0.5,0.5-0.7,0.9c-0.9,1.4-2,4.1-2.9,7.7l0,0c-0.3,1.3-0.4,2.5-0.6,4.3c-0.5-0.1-0.9-0.3-1.3-0.5
		c-0.1,0-0.1-0.1-0.1-0.1c0.1,0,0.1,0.1,0.1,0.1c-0.2-0.1-0.4-0.3-0.5-0.4c-0.6-1-0.4-2.4-0.2-3.5c0.5-2.8,1.3-5.5,2.4-8.1l0,0
		c0-0.1,0.4-0.9,0.5-1.3c0.1-0.3-0.1-0.2-0.2-0.1c-0.7,0.5-1.3,1.1-1.7,1.9c0.3-0.4,0.7-0.9,1.2-1.1c0.1-0.1,0.1-0.1,0.2-0.1
		c-0.1,0-0.1,0-0.2,0.1c-0.5,0.3-0.9,0.7-1.2,1.1l0,0c-1.2,2-2.2,4.9-2.6,6.4l0,0l0,0c-0.1,0.4-0.3,1.5-0.5,2.4
		c-0.1,0.5-0.1,0.9-0.2,1.4c-0.3-0.2-0.7-0.4-1.3-0.9c-0.1-0.1-0.3-0.3-0.4-0.4c0.1,0.1,0.3,0.3,0.4,0.4c-0.1-0.1-0.3-0.3-0.4-0.5
		c-0.1-0.5-0.2-1.7,0.2-3.7c0.4-1.8,0.9-3.7,1.6-5.4c0-0.1,0.1-0.1,0.1-0.1c0,0.1,0,0.1-0.1,0.1c0.2-0.5,0.3-0.9,0.4-1.1v-0.1
		c0-0.1-0.1-0.1-0.3,0.1c-0.5,0.4-1.4,1.4-1.7,2.2l0,0c-0.7,1.1-1.2,2.7-1.7,4.1l0,0c-0.2,0.9-0.5,1.7-0.6,2.5
		c-1.9-2.1-2.7-3.1-3.5-4.5c-0.7-1.3-1.3-2.7-1.7-4.1v-0.1l0,0l0,0c-0.1-0.2-0.2-0.3-0.2-0.3l0,0l0,0c0,0,0,0-0.1,0
		c-0.1-0.1-0.3-0.1-0.5-0.1c-0.1,0-0.1,0-0.1,0c0,0-0.1,0.1-0.3,0.1c-0.8,0.3-3.2,1-3.9,1.2c-0.1,0-0.2,0.1-0.2,0.1
		c-0.1,0-0.1,0-0.2,0l0,0c-0.1,0-0.1-0.1-0.1-0.1c0-0.1-0.1-0.1-0.1-0.1c0,0,0,0,0-0.1l0,0c0-0.1,0-0.1,0-0.1
		C55.9,28.9,55.9,28.9,55.9,28.8C55.9,28.9,55.9,28.8,55.9,28.8z M57.3,31L57.3,31L57.3,31c0-0.1,0-0.3,0-0.4c0-0.3,0-0.4,0-0.5h0.1
		l0,0c0,0,0.1,0.7,0.5,1.7l0,0c0.1,0.1,0.1,0.2,0.1,0.3l0,0c0.5,1.2,1.2,2.8,2.3,4.5c0,0,0,0,0,0.1c0.1,0.1,0.2,0.3,0.3,0.4
		c0,0,0,0.1,0.1,0.1c0.1,0.1,0.2,0.3,0.3,0.4l0.1,0.1c0.1,0.1,0.2,0.3,0.3,0.4c0,0.1,0.1,0.1,0.1,0.1c0.1,0.1,0.2,0.3,0.3,0.4
		c0,0.1,0.1,0.1,0.1,0.1c0.1,0.1,0.2,0.3,0.3,0.4c0,0.1,0.1,0.1,0.1,0.1c0.1,0.1,0.2,0.3,0.3,0.4c0.1,0.1,0.1,0.1,0.1,0.1
		c0.1,0.1,0.2,0.3,0.3,0.4c0.1,0.1,0.1,0.1,0.1,0.1c0.1,0.1,0.3,0.3,0.4,0.4l0.1,0.1c0.1,0.1,0.3,0.3,0.4,0.4l0.1,0.1
		c0.1,0.1,0.3,0.3,0.5,0.4l0,0l0,0c0.3,0.3,0.7,0.6,1.1,0.9c3.4,2.5,8,4.9,14.3,4.9h0.2c8.5-0.1,13.5-4.3,15.4-5.8l0,0l0,0
		c0.5-0.4,0.9-0.8,1.4-1.3l0,0c0.1-0.1,0.1-0.1,0.1-0.1c1.3-1.4,2.6-3.2,3.5-4.7c0.3-0.5,0.6-1.1,0.8-1.6c1-2.2,1.3-3.7,1.3-3.7
		l0-0.1c0,0.1,0,0.5-0.1,0.9l0,0l0,0c0,0.1,0,0.1,0,0.1c-0.1,0.9-0.2,2.5-0.3,3v0.1l0,0c-0.1,0.3-0.2,2.2-0.5,4.5
		c-0.2,1.6-0.3,3.3-0.5,5.1l0,0c-0.3,2.3-0.5,4.4-0.6,5.7c-0.1,0.5-0.1,0.9-0.1,1.1c-0.1,0.4-0.1,0.8-0.1,1.2
		c-0.1,0.8-0.2,1.6-0.3,2.5c-0.1,0.3-0.1,0.7-0.1,1c-0.1,0.9-0.2,1.9-0.3,2.8c0,0.3-0.1,0.5-0.1,0.7c-0.3,2-0.5,4-0.8,5.9l0,0
		c-0.1,0.3-0.1,0.6-0.1,0.9c-3.1,20.1-7.7,33.9-10.3,40.8c-0.3,0.8-0.9,2.3-1.7,4.3l0,0c-0.1,0.1-0.1,0.3-0.2,0.5l0,0
		c-0.9,2.1-1.9,4.4-2.9,6.5c-0.1,0.1-0.3,0.5-0.5,0.7c-0.1,0-0.2,0.1-0.3,0.1c0,0-0.1,0-0.1-0.1l0,0c0,0-0.1-0.1-0.1-0.1
		c0-0.1,0-0.1,0-0.2v-0.1c0-0.1,0-0.1,0-0.2s0-0.2,0.1-0.4c0-0.3,0.1-0.5,0.1-1l0,0l0,0l0,0c0.3-2.1,0.8-6.5,1.4-12.7
		c0.5-5.5,1.3-13.5,1.8-21.2c0.1-0.6,0.1-1.2,0.1-1.8l0,0c0.1-1.3,0.2-2.7,0.3-4.2v-0.1c0-0.3,0.1-0.7,0.1-1.1c0-0.1,0-0.2,0-0.3
		c0-0.3,0.1-0.7,0.1-1c0-0.3,0-0.5,0.1-0.7c0-0.1,0-0.1,0-0.3c0.2-3.4,0.4-6.7,0.5-9.2v-0.1c0-0.1,0-0.2,0-0.3l0,0
		c0.1-1.7,0.1-2.9,0.2-3.4c0.1-1.3,0.3-6.2,0.3-8.9c0.1-1,0.1-1.7,0.1-1.8c0-0.3-0.1-0.5-0.3-0.6c-0.1-0.1-0.2-0.1-0.3-0.1
		c-0.1,0-0.3,0.1-0.5,0.1c-0.7,0.1-1.7,0.4-2,0.5c-0.3,0.1-0.4,0.2-0.5,0.3l0,0v0.1c-0.1,0.1-0.1,0.3-0.1,0.3s0,0.5-0.1,1.2
		c0,1-0.1,2.6-0.1,4.3l0,0c-0.1,3.3-0.3,7.3-0.3,9c-0.2,3.1-1.1,19.6-1.4,21.9c0,0.2-0.1,0.3-0.1,0.2s0-0.3,0-0.3l0,0l0,0l0,0
		c0-0.3-0.1-4,0-6.1c0-0.3,0-1.3,0-2.7l0,0l0,0l0,0c0-5,0.1-15.6,0.1-22l0,0c0-3,0-5.1,0-5.3c0-0.3-0.1-0.5-0.5-0.5
		c-0.5,0-0.9,0-1.4,0c-0.5,0-0.9,0-1.4,0c-0.1,0-0.2,0-0.3,0c-0.2,0.1-0.3,0.3-0.3,0.5c0,0.1,0,0.4,0,0.9c0,0.9,0,2.2,0,3.9l0,0
		c0,8.2,0.1,24,0.1,25.2c0.1,2.3,0,6.1,0,6.2c0,0,0,0.3,0,0.3c0,0.1-0.1,0-0.1-0.2c-0.3-2.3-1.2-18.8-1.4-21.9
		c-0.1-1.8-0.3-6.4-0.3-9.9l0,0c-0.1-2.5-0.1-4.5-0.1-4.6c0-0.1,0-0.3-0.1-0.4c-0.1-0.1-0.1-0.2-0.3-0.3c-0.1-0.1-0.1-0.1-0.2-0.1
		c-0.4-0.1-2-0.5-2.5-0.6c-0.1,0-0.2,0-0.3,0c-0.1,0-0.3,0.1-0.3,0.3c-0.1,0.1-0.1,0.2-0.1,0.4c0,0.2,0.1,2.1,0.1,4.4l0,0
		c0.1,2.5,0.2,5.4,0.3,6.3c0,0.5,0.1,1.7,0.2,3.5c0,0,0,0,0-0.1c0.2,4.3,0.7,11.4,1,17l0,0c0,0.1,0,0.1,0,0.2c0,0.3,0,0.5,0.1,0.7
		c0,0.1,0,0.1,0,0.2c0,0.3,0.1,0.5,0.1,0.7c0.1,1,0.1,2.1,0.2,3.1v0.1c0.1,1,0.1,2,0.2,2.9v0.1c0,0.1,0,0.1,0,0.2v0.1
		c0-0.1,0-0.2,0-0.3c0,0.1,0,0.2,0,0.3c0.1,0.5,0.1,1,0.1,1.5c0,0.1,0,0.3,0.1,0.4c0.1,0.6,0.1,1.2,0.1,1.8c0,0.1,0,0.3,0.1,0.4
		c0.1,0.5,0.1,0.9,0.1,1.3c0,0.2,0.1,0.4,0.1,0.6c0.1,0.5,0.1,1.1,0.1,1.5c0,0.2,0.1,0.4,0.1,0.7c0,0.3,0.1,0.7,0.1,1
		c0,0.3,0.1,0.5,0.1,0.7c0,0.3,0.1,0.7,0.1,1s0.1,0.7,0.1,1c0,0.3,0.1,0.5,0.1,0.7c0,0.3,0.1,0.5,0.1,0.7c0,0.3,0.1,0.7,0.1,0.9
		c0,0.1,0,0.2,0,0.3c0.6,6.3,1.1,10.6,1.4,12.7l0,0c0-0.1-0.1-0.3-0.1-0.5l0,0c0,0.2,0.1,0.4,0.1,0.5l0,0c0.1,0.7,0.1,1.1,0.1,1.3
		c0,0.2,0,0.3,0,0.5c0,0.1-0.1,0.1-0.1,0.1l0,0h-0.1h-0.1c-0.1,0-0.2-0.1-0.3-0.1c-0.3-0.2-0.5-0.5-0.5-0.7c-1-2.1-2-4.5-2.9-6.5
		l0,0c-0.1-0.1-0.1-0.3-0.1-0.3l0,0c-0.8-1.9-1.5-3.6-1.8-4.4C69,99,64.5,85.3,61.3,65.1c-0.1-0.4-0.1-0.9-0.2-1.3l0,0
		c-0.1-0.9-0.3-1.7-0.3-2.6c-0.1-0.5-0.1-1.1-0.2-1.6c-0.1-0.7-0.2-1.5-0.3-2.2c-0.1-0.7-0.2-1.4-0.3-2.1c-0.1-0.6-0.1-1.1-0.2-1.7
		c-0.1-0.7-0.1-1.4-0.3-2.1c-0.1-0.6-0.1-1.2-0.2-1.7c0-0.2-0.1-0.5-0.1-1c-0.1-0.8-0.2-1.9-0.3-3.1C58.3,40.7,57.3,31.6,57.3,31z"
		/>
	<path class="st1" d="M92.9,4.7c-0.9,0.5-3.6,1.9-6.6,4.8c-1.4,1.3-2.4,2.7-3.1,3.6c-0.3,0.5-0.7,0.9-0.9,1.2c0,0-0.1,0.1-0.1,0.2
		c-0.1,0.1-0.2,0.3-0.3,0.4l0,0c0,0.1-0.1,0.1-0.1,0.1c0,0,0,0,0,0.1l0,0c0,0.1,0,0.1,0.1,0.2c0.1,0,0.1,0,0.1,0
		c0.2,0,0.4-0.1,0.6-0.2l0,0l0,0c0,0,0,0,0.1,0c0.2-0.1,0.3-0.2,0.5-0.3c0.1-0.1,0.1-0.1,0.2-0.1c0.3-0.3,0.7-0.7,0.9-1v-0.1
		c0.1-0.1,0.1-0.1,0.1-0.1c0.8-0.9,1.8-1.9,2.3-2.3c0.1-0.1,0.2-0.2,0.2-0.2c0.1-0.1,2.2-2.1,5.1-3.6l0,0l0,0
		c0.7-0.4,1.9-0.9,2.5-1.2l0,0C95,6,95.1,5.9,95.2,5.9s0.1-0.1,0.1-0.1s0-0.1-0.1-0.1c-0.4-0.3-1.2-0.9-1.5-1.2l-0.1-0.1
		c-0.1,0-0.1,0-0.2,0c0,0,0,0-0.1,0C93.2,4.7,93,4.7,92.9,4.7z"/>
	<path class="st1" d="M96.4,7.5c-0.1,0.1-0.4,0.1-0.8,0.3l0,0l0,0c-1,0.5-2.6,1.3-4.4,2.7c-0.3,0.3-0.7,0.6-1.1,1l0,0
		c-0.1,0.1-0.1,0.1-0.2,0.1c-0.1,0.1-0.2,0.2-0.3,0.3c-0.1,0.1-0.3,0.3-0.4,0.4c-0.1,0.1-0.1,0.1-0.2,0.2c-0.2,0.2-0.4,0.4-0.6,0.6
		l-0.1,0.1c-0.2,0.2-0.3,0.3-0.5,0.5c-0.1,0.1-0.1,0.1-0.1,0.1c-0.1,0.1-0.3,0.3-0.4,0.5c-0.1,0.1-0.1,0.1-0.1,0.1c0,0,0,0,0,0.1
		l0,0l0,0c-0.1,0.1-0.2,0.3-0.3,0.4c0,0,0,0.1-0.1,0.1c0,0,0,0-0.1,0.1c-0.1,0.1-0.2,0.3-0.3,0.4l0,0l0,0l0,0c0,0.1,0,0.1,0,0.1
		l0.1,0.1h0.1c0.3,0,0.6,0,1-0.1c0.1-0.1,0.3-0.1,0.3-0.2c0.1-0.1,0.1-0.1,0.3-0.3c0,0,0,0,0.1,0l0,0l0.1-0.1
		c0.2-0.2,0.5-0.4,0.7-0.7l0,0c0.1-0.1,0.1-0.1,0.2-0.2c0.7-0.7,1.7-1.5,2.3-1.9c1.5-1,2.8-1.7,3.1-1.7c0.3-0.1,0.3,0.1,0.4,0.1
		l0.1,0.1c0,0,0,0,0,0.1c0.1,0.1,0.1,0.1,0.1,0.2l0,0c0.6,0.7,1.9,2.5,2.6,4.3c1.2,2.7,1.4,4.8,1.5,5c0.1,0.3,0.3,0.4,0.4,0.4
		c0.3,0.1,0.7,0.2,1,0.3l0,0c0.3,0.1,0.7,0.2,1.1,0.3h0.1c0.1,0.1,0.3,0.1,0.5,0.2h0.1c0.2,0.1,0.4,0.1,0.6,0.2l0.1-0.1l0,0l0,0l0,0
		c-0.1-0.5-0.1-0.9-0.1-1.3c0-0.1-0.1-0.3-0.1-0.4c-0.1-0.3-0.1-0.6-0.1-0.9c0-0.1-0.1-0.3-0.1-0.3c-0.1-0.3-0.1-0.7-0.3-1
		c-0.1-0.1-0.1-0.3-0.1-0.4c-0.1-0.2-0.1-0.3-0.1-0.5c-0.1-0.1-0.1-0.3-0.1-0.4c-0.1-0.3-0.2-0.5-0.3-0.7c-0.1-0.1-0.1-0.2-0.1-0.3
		c-0.1-0.2-0.1-0.3-0.2-0.5c-0.1-0.1-0.1-0.2-0.1-0.3c-0.1-0.3-0.2-0.5-0.3-0.7c-0.1-0.1-0.1-0.1-0.1-0.2c-0.1-0.3-0.3-0.5-0.3-0.7
		c-0.1-0.1-0.1-0.2-0.2-0.3c-0.9-1.5-1.9-2.9-2.8-4c-0.3-0.3-0.5-0.6-0.8-0.9c-0.1-0.1-0.1-0.1-0.1-0.1c-0.1,0-0.1,0-0.1,0
		c0,0,0,0-0.1,0l0,0C96.5,7.5,96.5,7.5,96.4,7.5L96.4,7.5z"/>
	<path class="st1" d="M14.7,86c0,0.4,0.1,0.8,0.1,1.2c0,0.3,0.1,0.5,0.1,0.8c0.1,0.4,0.1,0.7,0.1,1.1c0,0.1,0,0.1,0,0.3l0,0v0.1l0,0
		v-0.1c0,0.2,0.1,0.4,0.1,0.6c0.1,0.4,0.1,0.8,0.1,1.2c0,0.2,0.1,0.5,0.1,0.7c0,0,0,0,0-0.1l0,0c0,0,0,0,0,0.1l0,0
		c0,0.1,0,0.1,0,0.1c0.1,0.4,0.1,0.7,0.2,1.1c0.1,0.2,0.1,0.5,0.1,0.7c0.1,0.4,0.1,0.8,0.3,1.2c0.1,0.2,0.1,0.4,0.1,0.6
		c0.1,0.4,0.2,0.8,0.3,1.1c0,0.1,0,0.1,0.1,0.2l0,0v-0.1l0,0V97l0,0c0.1,0.3,0.1,0.5,0.2,0.7c0,0.1,0,0.1,0,0.1
		c0.1,0.5,0.3,1,0.4,1.5c0,0.1,0.1,0.1,0.1,0.2c0.1,0.5,0.3,0.9,0.5,1.4c0,0.1,0.1,0.2,0.1,0.3c0.1,0.5,0.3,0.9,0.5,1.3
		c0.1,0.1,0.1,0.2,0.1,0.3c0.1,0.5,0.3,0.9,0.5,1.3c0.1,0.1,0.1,0.2,0.1,0.3c0.2,0.4,0.3,0.9,0.5,1.3c0.1,0.1,0.1,0.2,0.1,0.3
		c0.2,0.4,0.3,0.9,0.5,1.3c0.1,0.1,0.1,0.2,0.1,0.3c0.2,0.4,0.4,0.9,0.6,1.3c0.1,0.1,0.1,0.1,0.1,0.2c0.2,0.4,0.4,0.9,0.7,1.3
		c0,0.1,0.1,0.1,0.1,0.1c1.5,2.7,3.1,5.3,4.7,7.6c0.1,0.1,0.1,0.2,0.2,0.3c0.2,0.3,0.4,0.6,0.7,0.9c0.1,0.1,0.2,0.3,0.3,0.4
		c0.2,0.3,0.4,0.5,0.6,0.8c0.1,0.1,0.2,0.3,0.3,0.4c0.2,0.3,0.4,0.5,0.6,0.7c0.1,0.1,0.3,0.3,0.4,0.5c0.2,0.2,0.4,0.4,0.5,0.7
		c0.1,0.1,0.3,0.3,0.4,0.5c0.2,0.2,0.3,0.4,0.5,0.6c0.1,0.1,0.3,0.3,0.5,0.5c0.2,0.2,0.3,0.4,0.5,0.5c0.1,0.1,0.3,0.3,0.5,0.5
		c0.1,0.2,0.3,0.3,0.5,0.5c0.1,0.2,0.3,0.3,0.5,0.5c0.1,0.1,0.3,0.3,0.5,0.5c0.2,0.2,0.3,0.3,0.5,0.5c0.1,0.1,0.3,0.3,0.5,0.4
		c0.2,0.2,0.4,0.3,0.6,0.5c0.1,0.1,0.3,0.3,0.4,0.3c0.2,0.2,0.5,0.4,0.7,0.6c0.1,0.1,0.2,0.2,0.3,0.3c0.3,0.3,0.7,0.5,1,0.8
		c0.9,0.7,1.9,1.5,2.7,2.1c4.9,3.5,8.6,5.4,9.1,5.7h0.1l0,0l0,0c0-0.1,0.1-0.2,0.1-0.3l0,0c0.1-0.1,0.1-0.3,0.2-0.5l0,0l0,0
		c0.1-0.2,0.1-0.4,0.3-0.6l0,0l0,0c0.5-1.3,0-2.1-1.2-2.9c-1.5-0.9-3.7-2.3-6.1-4.3c-0.7-0.5-1.3-1.1-2.1-1.7l-0.1-0.1
		c-0.3-0.3-0.6-0.5-0.9-0.8c-0.1-0.1-0.1-0.1-0.3-0.2c-0.3-0.3-0.7-0.6-1-0.9c-1.9-1.8-3.9-4-5.9-6.5c-1.9-2.4-3.7-5.2-5.3-8.2
		c-0.3-0.5-0.5-1-0.7-1.5c-0.3-0.5-0.5-1.1-0.7-1.6c-2-4.3-3.5-9.1-4.3-14.5c-0.1-0.5-0.1-1.1-0.2-1.5c-0.1-0.5-0.1-1.1-0.2-1.7l0,0
		c-0.1-1.7-0.3-3.5-0.3-5.3c0-0.3,0-0.5,0-0.8c0-0.3,0-0.5,0-0.8c0-0.3,0-0.7,0.1-1c0-0.2,0-0.4,0-0.5c0-0.3,0.1-0.7,0.1-1.1
		c0-0.1,0-0.1,0-0.2c1.1-13.2,6.7-22.5,7.6-23.9c1-1.7,2-3.2,3.1-4.6l0,0c4-5.4,8.1-9,8.1-9c0.4-0.4,0.6-0.7,0.7-1.1l0,0
		c0-0.1,0.1-0.1,0.1-0.2s0.1-0.1,0.1-0.1c0.1-0.5,0.1-1,0-1.6c0-0.1-0.1-1.1-0.3-2.3l0,0c0-0.1-0.1-0.3-0.1-0.5c0-0.1,0-0.1-0.1-0.3
		c0-0.1-0.1-0.3-0.1-0.3c0-0.1,0-0.1,0-0.1C40,36.1,40,35.5,39.8,35v-0.1c-0.1-0.4-0.1-0.7-0.1-1.1v-0.1c0-0.1-0.1-0.3-0.1-0.4v-0.1
		c0-0.1-0.1-0.3-0.1-0.5h-0.1c0,0,0,0-0.1,0.1l0,0c-1.5,1-24.8,17.8-24.8,49.4c0,1.1,0.1,2.2,0.1,3.3C14.7,85.6,14.7,85.8,14.7,86z"
		/>
</g>
</svg>
