<svg height="190.09" width="181.92999" xmlns="http://www.w3.org/2000/svg" xmlns:xlink="http://www.w3.org/1999/xlink"><clipPath id="a"><path d="m891.195 448.347h97.013v83.324h-97.013z"/></clipPath><clipPath id="b"><path d="m904.289 456.255h65.021v70.299h-65.021z"/></clipPath><g clip-path="url(#b)" fill="#ffd5d5" transform="matrix(2.797718 0 0 -2.678198125 -2529.75222535535 1410.61400270889)"><path d="m0 0c3.371 4.968 5.342 10.963 5.342 17.419 0 17.157-13.906 31.067-31.066 31.067-17.158 0-31.069-13.91-31.069-31.067 0-6.456 1.971-12.451 5.343-17.419l-6.786-4.581c7.067-10.399 18.99-17.232 32.512-17.232 13.52 0 25.442 6.833 32.509 17.232z" fill="#fff" transform="translate(962.5247 478.0681)"/></g><path d="m0 0 2.7 2.178.297-.368-2.7-2.177z" transform="matrix(2.797718 0 0 -2.678198125 10.04859 144.6573725)"/><g clip-path="url(#a)" transform="matrix(2.797718 0 0 -2.678198125 -2529.752125 1411.34801)"><path d="m0 0 .652 2.435c.074.288.161.541.251.782-.255-.269-.849-.852-1.248-1.23l-.81-.767-.318.336 2.519 2.384.428-.451-.626-2.368c-.072-.281-.168-.569-.259-.832.296.307.905.905 1.323 1.301l.716.678.315-.333-2.52-2.383z" transform="translate(910.6599 469.778)"/><path d="m0 0c.058.171.118.321.18.463l-.009.006c-.125-.09-.258-.182-.405-.275l-1.166-.714.959-.77zm-.863-2.474.284.814-1.152.924-.734-.454-.377.303 3.161 1.918.409-.329-1.177-3.508z" transform="translate(915.5151 468.7367)"/><path d="m0 0c-.235.157-.433.333-.579.505l.299.344c.135-.195.316-.379.53-.522.333-.223.716-.28.954.075.435.649-1.041 1.265-.426 2.185.318.475.906.576 1.556.141.167-.111.348-.257.484-.405l-.279-.315c-.122.151-.277.297-.444.409-.393.264-.699.215-.882-.06-.417-.624 1.055-1.282.448-2.187-.346-.518-1.016-.602-1.661-.17" transform="translate(916.1985 465.1126)"/><path d="m0 0c-.246.138-.458.298-.616.457l.271.367c.15-.185.345-.352.569-.478.349-.196.734-.223.943.149.382.681-1.136 1.179-.596 2.143.279.496.857.645 1.538.263.175-.098.367-.229.515-.365l-.253-.336c-.134.14-.3.274-.475.372-.412.232-.713.158-.874-.128-.366-.655 1.152-1.194.619-2.144-.304-.543-.964-.68-1.641-.3" transform="translate(918.6537 463.5846)"/><path d="m0 0c-.526.233-1.186.013-1.54-.785-.335-.757-.244-1.415.428-1.713.517-.23 1.189-.033 1.551.785.36.814.195 1.431-.439 1.713m-1.32-2.866c-.954.422-1.134 1.261-.707 2.223.468 1.058 1.416 1.369 2.243 1.003.855-.38 1.169-1.182.706-2.226-.468-1.057-1.415-1.367-2.242-1" transform="translate(923.2207 464.8056)"/><path d="m0 0c-1.06.347-1.279 1.165-.974 2.099.33 1.005 1.074 1.594 2.187 1.23.254-.083.512-.206.724-.35l-.207-.387c-.204.154-.442.286-.692.367-.752.246-1.263-.225-1.499-.947-.266-.811-.067-1.395.699-1.647.24-.078.55-.103.777-.07l-.054-.415c-.282-.021-.629.011-.961.12" transform="translate(925.6921 460.5096)"/><path d="m0 0 .848 3.367.459-.116-.848-3.367z" transform="translate(927.5792 460.0131)"/><path d="m0 0c-.031.178-.049.338-.064.492l-.01.002c-.067-.14-.139-.284-.224-.436l-.683-1.184 1.21-.217zm.425-2.584-.14.85-1.454.26-.426-.749-.476.085 1.858 3.194.516-.092.643-3.642-.521.094z" transform="translate(930.8557 461.8276)"/><path d="m0 0-.307-3.059-.47.047.306 3.059-.992.1.04.394 2.46-.248-.039-.393z" transform="translate(933.6331 462.0654)"/><path d="m0 0 .14 3.468.473-.019-.141-3.468z" transform="translate(935.0563 458.8842)"/><path d="m0 0c-.575-.019-1.073-.504-1.044-1.377.028-.828.396-1.381 1.13-1.356.565.018 1.084.488 1.055 1.382-.03.889-.447 1.374-1.141 1.351m.059-3.156c-1.043-.035-1.569.642-1.604 1.695-.039 1.155.679 1.848 1.583 1.879.935.03 1.566-.555 1.604-1.696.039-1.155-.679-1.848-1.583-1.878" transform="translate(937.9493 461.9684)"/><path d="m0 0-1.614 1.942c-.193.226-.349.443-.493.656.072-.364.206-1.186.284-1.731l.158-1.106-.459-.066-.492 3.439.617.088 1.573-1.88c.188-.223.368-.467.531-.693-.081.42-.217 1.263-.299 1.833l-.14.978.453.065.492-3.438z" transform="translate(942.8023 459.3256)"/><path d="m0 0-.554-.174-1.332 2.029c-.114.175-.215.359-.303.535l-.005-.001c.036-.198.055-.398.061-.606l.082-2.427-.54-.169-1.912 3.039.481.15 1.236-1.983c.128-.203.231-.392.333-.597l.005.002c-.032.222-.052.442-.06.655l-.071 2.376.51.16 1.324-2.005c.103-.156.218-.353.315-.543l.006.002c-.026.202-.046.385-.057.575l-.131 2.428.447.14z" transform="translate(949.087 460.9267)"/><path d="m0 0-1.35 3.197.436.183 1.35-3.196z" transform="translate(950.8246 461.62)"/><path d="m0 0 1.365-2.756-.424-.21-1.365 2.756-.894-.443-.176.355 2.217 1.099.176-.356z" transform="translate(951.9286 465.5068)"/><path d="m0 0-.841 1.36-1.505-.932.842-1.359-.402-.249-1.827 2.951.402.249.774-1.25 1.504.931-.774 1.25.403.249 1.826-2.951z" transform="translate(956.8118 464.7681)"/><path d="m0 0 .563-.697.871.705.346-.428-.871-.704.918-1.136-.52-.421-2.183 2.7 1.444 1.167.356-.439z" fill="#d2ac2b" transform="translate(957.8929 469.144)"/><path d="m0 0-2.333 2.57.494.449 2.334-2.57z" fill="#d2ac2b" transform="translate(961.2325 468.1608)"/><path d="m0 0c-.842-.874-1.695-.594-2.317.005-.792.763-.948 1.713-.141 2.551.171.176.375.344.576.464l.387-.472c-.205-.117-.395-.263-.559-.433-.449-.467-.319-1.035.166-1.503.544-.524 1.066-.591 1.551-.087.146.152.298.398.363.585l.484-.359c-.112-.249-.285-.518-.51-.751" fill="#d2ac2b" transform="translate(963.4885 470.2886)"/><path d="m0 0c-.191.068-.355.134-.534.224l-.002-.004c.114-.144.235-.315.35-.492l.494-.799.606.755zm2.142-.767-.706.256-.82-1.024.402-.633-.421-.526-1.951 3.12.474.59 3.486-1.205z" fill="#d2ac2b" transform="translate(963.8417 474.0447)"/><path d="m0 0c-15.633 0-28.351-12.717-28.351-28.348 0-15.628 12.718-28.343 28.351-28.343 15.631 0 28.348 12.715 28.348 28.343 0 15.631-12.717 28.348-28.348 28.348m0-57.246c-15.938 0-28.905 12.964-28.905 28.898 0 15.937 12.967 28.903 28.905 28.903 15.937 0 28.902-12.966 28.902-28.903 0-15.934-12.965-28.898-28.902-28.898" fill="#d2ac2b" transform="translate(936.8007 523.8352)"/><path d="m0 0c-9.953 0-18.023 8.069-18.023 18.023 0 9.953 8.07 18.022 18.023 18.022 9.954 0 18.024-8.069 18.024-18.022 0-9.954-8.07-18.023-18.024-18.023m0 44.339c-14.534 0-26.317-11.781-26.317-26.316 0-14.534 11.783-26.317 26.317-26.317 14.535 0 26.316 11.783 26.316 26.317 0 14.535-11.781 26.316-26.316 26.316" fill="#d2ac2b" transform="translate(936.813 477.4321)"/><g fill="#fff"><path d="m0 0 1.089 1.131-1.103 1.063-1.089-1.131-.502.483 2.509 2.605.502-.483-1.004-1.042 1.103-1.063 1.005 1.042.501-.484-2.509-2.605z" transform="translate(920.9767 477.9382)"/><path d="m0 0c.05.205.103.382.178.576l-.004.003c-.139-.133-.302-.276-.476-.413l-.778-.592.843-.552zm-.581-2.296.194.756-1.143.749-.616-.48-.588.384 3.04 2.334.66-.432-.902-3.734z" transform="translate(925.1944 477.5363)"/><path d="m0 0 1.511 3.287.633-.291-1.256-2.732 1.067-.491-.256-.554z" transform="translate(926.2283 474.3542)"/><path d="m0 0 1.104 3.443.663-.213-.918-2.862 1.117-.357-.186-.582z" transform="translate(928.8316 473.2408)"/><path d="m0 0c-.496.044-.992-.307-1.066-1.119-.07-.764.183-1.288.829-1.347.47-.043 1.005.274 1.084 1.138.074.802-.227 1.27-.847 1.328m-.343-3.091c-1.1.101-1.575.85-1.472 1.965.11 1.19.971 1.833 1.937 1.744.96-.088 1.585-.727 1.472-1.96-.109-1.191-.96-1.84-1.937-1.749" transform="translate(934.8784 475.0158)"/><path d="m0 0 .066-.93 1.165.083.041-.572-1.165-.083.107-1.518-.695-.049-.256 3.608 1.93.137.042-.588z" transform="translate(938.0925 474.9432)"/><path d="m0 0 .239-.902 1.13.301.147-.555-1.13-.3.391-1.472-.674-.179-.928 3.498 1.871.497.151-.57z" transform="translate(941.9211 475.5464)"/><path d="m0 0c-.141.156-.259.298-.378.469l-.005-.002c.033-.189.06-.405.078-.625l.056-.975.929.391zm1.581-1.763-.519.583-1.259-.531.055-.778-.647-.274-.24 3.824.726.306 2.595-2.831z" transform="translate(945.2066 475.832)"/><path d="m0 0-1.185 1.282c-.237.253-.415.456-.579.65l-.008-.006c.089-.218.186-.465.27-.75l.549-1.826-.572-.388-1.4 1.075c-.246.189-.506.408-.704.624l-.009-.007c.163-.277.292-.533.435-.819l.77-1.493-.585-.398-1.577 3.305.674.459 1.549-1.197c.215-.164.407-.331.592-.517l.009.006c-.113.261-.179.462-.255.734l-.539 1.897.669.456 2.503-2.674z" transform="translate(951.2867 476.784)"/><path d="m0 0-2.559 2.554 1.388 1.392.413-.413-.896-.899.629-.628.852.854.402-.402-.852-.853.694-.692.897.898.421-.42z" transform="translate(952.8422 478.1352)"/><path d="m0 0-2.409 2.7.52.464 2.409-2.7z" transform="translate(923.204 510.2247)"/><path d="m0 0c-1.042-.716-1.854-.253-2.364.489-.649.945-.609 1.947.388 2.633.213.146.456.273.687.354l.296-.563c-.234-.077-.458-.185-.661-.325-.557-.382-.542-.989-.145-1.568.446-.649.964-.826 1.565-.414.181.125.387.345.493.521l.419-.467c-.167-.231-.4-.469-.678-.66" transform="translate(925.7882 512.1887)"/><path d="m0 0c-1.142-.542-1.87.043-2.256.856-.492 1.036-.294 2.019.799 2.539.232.11.493.198.734.241l.203-.604c-.243-.038-.481-.11-.704-.215-.61-.29-.692-.892-.391-1.526.338-.711.821-.968 1.48-.656.198.094.437.279.569.437l.34-.527c-.201-.202-.468-.4-.774-.545" transform="translate(928.5546 513.7161)"/><path d="m0 0c-1.239-.251-1.804.492-1.983 1.374-.228 1.123.201 2.03 1.387 2.27.252.051.527.074.77.058l.052-.635c-.245.022-.493.01-.735-.039-.662-.134-.886-.699-.747-1.386.157-.772.564-1.138 1.278-.993.215.044.491.165.658.286l.202-.593c-.243-.147-.551-.275-.882-.342" transform="translate(933.1483 515.1559)"/><path d="m0 0c-.102-.004-.203-.013-.273-.026l.036-1.043c.049-.004.146-.006.253-.003.417.015.667.238.655.575-.012.348-.232.512-.671.497m.867-3.041-1.059 1.459-.026-.001.051-1.494-.696-.024-.125 3.613c.283.026.62.043 1.038.058.797.027 1.321-.233 1.347-.972.019-.535-.343-.934-.886-1.038.106-.13.213-.266.308-.386l.909-1.185z" transform="translate(935.8057 518.5821)"/><path d="m0 0 .336 3.603.694-.064-.336-3.604z" transform="translate(938.3276 515.4785)"/><path d="m0 0c-1.233.276-1.447 1.185-1.251 2.063.25 1.118 1.01 1.772 2.191 1.508.251-.056.511-.147.727-.261l-.211-.601c-.215.12-.447.21-.688.264-.658.147-1.093-.277-1.246-.962-.171-.768.052-1.268.762-1.427.215-.048.516-.049.718-.007l-.057-.623c-.283-.036-.616-.027-.945.046" transform="translate(941.528 514.9263)"/><path d="m0 0-.412 2.048-.662-1.604-.644.265 1.38 3.343.644-.266-.626-1.515 1.71 1.067.783-.323-1.89-1.109.564-2.255z" transform="translate(945.0192 513.7853)"/><path d="m0 0 1.892 3.086 1.678-1.028-.306-.499-1.083.665-.466-.759 1.029-.631-.297-.485-1.029.631-.513-.837 1.084-.664-.311-.507z" transform="translate(946.4523 513.0856)"/><path d="m0 0-1.941-2.315-.534.448 1.942 2.315-.718.602.382.455 1.97-1.652-.382-.455z" transform="translate(951.8738 512.9498)"/></g><path d="m0 0s.735.658 1.321 1.028c0 0 .287.176.29.525 0 0 .012.332-.378.659 0 0-.119.112-.205.253 0 0-.132.233.026.578 0 0 .126.26.393.357 0 0 .128.05.449.13 0 0 .198.028.309.121.126.112.139.347.073.506 0 0-.093.258-.68.295 0 0-.396.055-.923-.068 0 0-.392-.071-.923-.293-.32-.17-5.401-2.138-8.742-12.002 0 0-1.46-4.555-1.587-9.406 0 0-.207-3.389.907-5.244 0 0 .161-.294.526-.579 0 0 .308-.262.629.022 0 0 .326.253-.008.777 0 0-.051.077-.116.272 0 0-.079.3.038.581 0 0 .146.47.72.531 0 0 .583-.015.86.342 0 0 .274.385.182.943 0 0-.067.718-.132 1.664-.098 1.685.005 3.187.422 5.397 0 0 .606 2.943 1.213 4.428.603 1.488 1.733 4.725 5.336 8.183m-9.006-2.256c1.47 2.671 3.92 5.014 4.62 5.617.479.442.41.835.41.835-.099.415-.911.677-1.953.756-7.166.375-13.537-5.132-13.72-12.301-.06-2.343.293-4.062 1.124-5.806.253-.522.842-.373.907.057.168 3.292 1.29 7.391 2.422 9.411.758 1.266 1.537 2.548 2.53 1.71.408-.432-.211-1.179-.869-2.589-1.127-2.555-1.597-4.821-1.927-6.466-.351-2.018-.47-4.131-.306-5.889.15-2.578 1.289-4.196 2.001-3.698.465.393-.284.779-.059 1.26 0 0 .138.28.456.28 0 0 .123-.021.379-.005.463.029.357.79.357.79-.247 2.699.296 6.067.296 6.067.579 3.885 1.862 7.299 3.332 9.971m13.479.582s-.243.385.126.872c0 0 .219.244.626.313 0 0 .108.018.239.041 0 0 .457.07.44.577 0 0 .011.437-.661.503 0 0-.619.057-1.295-.242 0 0-1.396-.552-3.347-2.558-1.479-1.523-3.321-4.691-4.349-8.075-1.047-3.446-1.492-6.648-.961-9.965 0 0 .303-1.618 1.175-2.222 0 0 .293-.209.588-.108 0 0 .164.076.226.179.067.111.141.33-.005.535 0 0-.044.073-.109.171 0 0-.145.221-.177.481 0 0-.082.456.127.735.177.264.431.332.431.332 4.415 1.452 8.194 5.862 8.557 11.327.141 2.731-.307 4.952-1.631 7.104" fill="#d2ac2b" transform="translate(943.5793 503.4045)"/></g></svg>