<?xml version="1.0" encoding="utf-8"?>
<!-- Generator: Adobe Illustrator 16.0.0, SVG Export Plug-In . SVG Version: 6.00 Build 0)  -->
<!DOCTYPE svg PUBLIC "-//W3C//DTD SVG 1.1//EN" "http://www.w3.org/Graphics/SVG/1.1/DTD/svg11.dtd">
<svg version="1.1" id="Layer_1" xmlns="http://www.w3.org/2000/svg" xmlns:xlink="http://www.w3.org/1999/xlink" x="0px" y="0px"
	 width="100px" height="100px" viewBox="0.5 0.5 100 100" enable-background="new 0.5 0.5 100 100" xml:space="preserve">
<g>
	<path d="M50.5,0.5c-27.614,0-50,22.386-50,50s22.386,50,50,50s50-22.386,50-50S78.114,0.5,50.5,0.5z M50.5,90.5
		c-22.091,0-40-17.908-40-40c0-22.091,17.909-40,40-40c22.092,0,40,17.909,40,40C90.5,72.592,72.592,90.5,50.5,90.5z"/>
</g>
<rect x="-9.5" y="45.5" transform="matrix(0.7071 -0.7071 0.7071 0.7071 -20.9176 50.5001)" width="120" height="10"/>
</svg>
