<svg height="244.5" width="237.4" xmlns="http://www.w3.org/2000/svg" xmlns:xlink="http://www.w3.org/1999/xlink"><linearGradient id="a" gradientUnits="userSpaceOnUse" x1="22.7" x2="23.2" y1="9.3" y2="11.2"><stop offset="0" stop-color="#fff"/><stop offset="1" stop-color="#cecedb"/></linearGradient><linearGradient id="b" gradientTransform="matrix(5.5901073 0 0 5.6932796 -15.4846 -14.29265)" gradientUnits="userSpaceOnUse" x1="22.4" x2="24.2" y1="7.8" y2="14.8"><stop offset="0" stop-color="#cecedb"/><stop offset=".0054" stop-color="#cbcbd7"/><stop offset=".0705" stop-color="#a5a5ad"/><stop offset=".1338" stop-color="#87878c"/><stop offset=".19410001" stop-color="#727274"/><stop offset=".2502" stop-color="#656566"/><stop offset=".29769999" stop-color="#616161"/><stop offset="1"/></linearGradient><linearGradient id="c" gradientTransform="matrix(5.5901073 0 1.4975897 5.6932796 -1651.7386 -14.29265)" gradientUnits="userSpaceOnUse" x1="311.2" x2="311.2" y1="17.5" y2="23.2"><stop offset="0" stop-color="#cecedb"/><stop offset=".29769999" stop-color="#828282"/><stop offset="1"/></linearGradient><linearGradient id="d" gradientTransform="matrix(5.5901073 0 0 5.6932796 -15.4846 -14.29265)" gradientUnits="userSpaceOnUse" x1="24.2" x2="24.2" y1="18.9" y2="20.5"><stop offset="0" stop-color="#fff"/><stop offset="1" stop-color="#e9e9ef"/></linearGradient><path d="m228.9 81.1h-189.5l183-49.9c1.1-.3 1.9-1 2.5-1.9.5-1 .7-2.1.4-3.2l-6-23c-.3-1.1-1-2-1.9-2.5-.9-.6-2-.7-3.1-.4l-211.3 57.6c-1.1.3-1.9 1-2.5 1.9-.3.7-.5 1.4-.5 2.1 0 .4 0 .7.1 1.1l6 22.8v23.3c0 2.3 1.8 4.2 4.1 4.2h8.5v114.7c0 6.9 5.4 12.3 13.7 12.3h183.1c7.6 0 13.7-6.3 13.7-14.1v-112.9c2.1-.2 3.8-1.9 3.8-4.1v-23.8c0-2.3-1.8-4.2-4.1-4.2z"/><path d="m233.3 85.5h-189.5l183-49.9c1.1-.3 1.9-1 2.5-1.9.5-1 .7-2.1.4-3.2l-6.1-23c-.2-1-.9-2-1.9-2.5-.9-.6-2-.7-3.1-.4-70 19.1-140.9 38.4-211.2 57.6-1.1.3-1.9 1-2.5 1.9-.4.6-.6 1.4-.6 2.1 0 .4 0 .7.1 1.1l6 22.8v23.3c0 2.3 1.8 4.2 4.1 4.2h8.5v122.2c0 2.1 1.5 3.9 3.6 4.1l1.2.2c1.3.2 4.8.5 8.9.5h183.1c7.5 0 13.7-6.3 13.7-14.1v-112.9c2.1-.2 3.8-1.9 3.8-4.1v-23.8c0-2.3-1.8-4.2-4.1-4.2z" opacity=".2"/><path d="m231.1 83.3h-189.5l183-49.9c1.1-.3 1.9-1 2.5-1.9.5-1 .7-2.1.4-3.2l-6-23c-.3-1.1-1-2-1.9-2.5-1-.6-2.1-.7-3.1-.4l-211.3 57.6c-1.1.3-1.9 1-2.5 1.9-.3.7-.5 1.4-.5 2.1 0 .4 0 .7.1 1.1l6 22.8v23.3c0 2.3 1.8 4.2 4.1 4.2h8.5v122.2c0 2.1 1.5 3.9 3.6 4.1l1.2.2c1.3.2 4.8.5 8.9.5h183.1c7.6 0 13.7-6.3 13.7-14.1v-112.9c2.1-.2 3.8-1.9 3.8-4.1v-23.8c0-2.3-1.8-4.2-4.1-4.2z" opacity=".2"/><path d="m11.6 86.7h215.9v20.8h-215.9z" fill="url(#d)"/><path d="m27.9 107.5h20.5l-9.1-20.8h-20.5zm95.1-20.8h-20.5l9.1 20.8h20.5zm-41.9 0h-20.5l9.1 20.8h20.5zm125.6 0h-20.5l9.1 20.8h20.5zm-41.9 0h-20.5l9.1 20.8h20.5z" fill="url(#c)"/><path d="m4.8 17.1 37.3-10-1-3.5-37.3 9.9z" fill="url(#a)" transform="matrix(5.5901073 0 0 5.6932796 -15.4846 -14.29265)"/><path d="m26.8 78.7 19.8-5.4-8.8-19.2-19.8 5.4zm91.9-46.7-19.8 5.4 8.8 19.2 19.8-5.4zm-40.4 11.1-19.8 5.4 8.8 19.2 19.7-5.4zm121.3-33.1-19.8 5.4 8.8 19.1 19.8-5.3zm-40.4 11-19.8 5.4 8.8 19.2 19.8-5.4z" fill="url(#b)"/><path d="m24.2 113.6h198.4v120h-198.4z" fill="#fff"/><path d="m24.2 113.6h198.4v40h-198.4z" fill="#ff9932"/><path d="m24.2 193.6h198.4v40h-198.4z" fill="#128807"/><path d="m123.4 155.6c-10 0-18 8.1-18 18s8.1 18 18 18c10 0 18-8.1 18-18s-8.1-18-18-18zm0 1.8-.5 9 .5 5.2.5-5.2-.5-9c.5 0 .9 0 1.4.1v.1c0 .4.3.7.7.7s.7-.3.7-.6c.4.1.9.2 1.3.3l-2.8 8.6-.9 5.1 1.8-4.9 1.9-8.9c.4.1.9.3 1.3.4 0 .1-.1.2-.1.3 0 .4.3.7.7.7.3 0 .6-.2.7-.4l1.2.6-4.9 7.6-2.2 4.7 3-4.2 4.1-8.1c.4.2.8.5 1.1.7-.1.1-.2.3-.2.5 0 .4.3.7.7.7.2 0 .5-.1.6-.3.3.3.7.6 1 .9l-6.7 6.1-3.3 4 4-3.3 6.1-6.7c.3.3.6.7.9 1-.2.1-.3.3-.3.6 0 .4.3.7.7.7.2 0 .3-.1.4-.1.3.4.5.8.7 1.1l-8.1 4.1-4.2 3 4.7-2.2 7.6-4.9c.2.4.5.8.7 1.3-.3.1-.5.4-.5.7 0 .4.3.7.7.7.1 0 .2 0 .3-.1.1.4.3.8.4 1.2l-8.9 1.9-4.9 1.8 5.1-.9 8.6-2.8c.1.4.2.9.3 1.3-.4.1-.6.4-.6.7 0 .4.3.7.7.7h.1c0 .5.1.9.1 1.4l-9.1-.5-5.2.5 5.2.5 9.1-.5c0 .5 0 .9-.1 1.4h-.1c-.4 0-.7.3-.7.7s.3.7.6.7c-.1.5-.2.9-.3 1.3l-3.1-1-5.5-1.8-5.1-.9 4.9 1.8 8.9 1.9c-.1.4-.3.9-.4 1.3h-.1c-.1 0-.1 0-.1 0-.4 0-.7.3-.7.7 0 .1 0 .2.1.3.1.1.1.2.2.3h.1.1.1c-.2.4-.4.8-.6 1.2l-7.6-4.9-4.7-2.2 2.5 1.7 1.8 1.2 8.1 4.1c-.2.4-.5.8-.7 1.2-.1-.1-.3-.1-.4-.1-.4 0-.7.3-.7.7 0 .2.1.4.3.6-.3.3-.6.7-.9 1l-6.1-6.7-4-3.3 3.3 4 6.7 6.1c-.3.3-.6.6-1 .9-.1-.1-.3-.2-.5-.2-.4 0-.7.3-.7.7 0 .1 0 .2.1.3-.4.3-.8.5-1.2.8l-4.1-8.1-3-4.2 2.2 4.7 4.9 7.6c-.4.2-.8.4-1.2.6-.1-.3-.4-.4-.7-.4-.4 0-.7.3-.7.7 0 .1 0 .2.1.3-.4.2-.9.3-1.3.4l-1.9-8.9-1.8-4.9.9 5.1 2.8 8.6c-.4.1-.9.2-1.3.3-.1-.4-.4-.6-.7-.6-.4 0-.7.3-.7.7v.1c-.5 0-.9.1-1.4.1l.5-9.1-.5-5.2-.5 5.2.5 9c-.5 0-.9 0-1.4-.1v-.1c0-.4-.3-.7-.7-.7s-.7.3-.7.6c-.4-.1-.9-.2-1.3-.3l2.8-8.6.9-5.1-1.8 4.9-1.9 8.9c-.4-.1-.9-.3-1.3-.4 0-.1.1-.2.1-.3 0-.4-.3-.7-.7-.7-.3 0-.6.2-.7.4-.4-.2-.8-.4-1.2-.6l4.9-7.6 2.2-4.7-3 4.2-4.1 8.1c-.4-.2-.8-.5-1.2-.7.1-.1.1-.3.1-.4 0-.4-.3-.7-.7-.7-.2 0-.4.1-.6.3-.3-.3-.7-.6-1-.9l6.7-6.1 3.3-4-4 3.3-6.1 6.7c-.3-.3-.6-.7-.9-1 .2-.1.3-.3.3-.6 0-.4-.3-.7-.7-.7-.2 0-.3.1-.4.1-.3-.4-.5-.8-.7-1.1l8.1-4.1 4.2-3-4.7 2.2-7.6 4.9c-.2-.4-.4-.8-.6-1.2.3-.1.5-.4.5-.7 0-.4-.3-.7-.7-.7-.1 0-.2 0-.3.1-.2-.4-.3-.9-.4-1.3l8.9-1.9 4.9-1.8-5.1.9-8.6 2.8c-.1-.4-.2-.9-.3-1.3.4-.1.6-.4.6-.7 0-.4-.3-.7-.7-.7h-.1c0-.5-.1-.9-.1-1.4l9.1.5 5.2-.5-5.2-.5-9.1.5c0-.5 0-.9.1-1.4h.1c.4 0 .7-.3.7-.7s-.3-.7-.7-.7c.1-.5.2-.9.3-1.3l8.6 2.8 5.1.9-4.9-1.8-8.9-1.9c.1-.4.3-.9.4-1.3.1 0 .2.1.3.1.4 0 .7-.3.7-.7 0-.3-.2-.6-.4-.7l.6-1.2 7.6 4.9 4.7 2.2-4.3-3-8.1-4.1c.2-.4.5-.8.7-1.2.1.1.3.1.5.1.4 0 .7-.3.7-.7 0-.2-.1-.5-.3-.6.3-.3.6-.7.9-1l6.1 6.7 4 3.3-3.3-4-6.7-6.1c.3-.3.7-.6 1-.9.1.2.3.3.6.3.4 0 .7-.3.7-.7 0-.2-.1-.3-.1-.4.4-.3.7-.5 1.1-.7l4.1 8.1 3 4.2-2.2-4.7-4.9-7.6c.4-.2.8-.4 1.2-.6.1.3.4.5.7.5.4 0 .7-.3.7-.7 0-.1 0-.2-.1-.3.4-.2.9-.3 1.3-.4l1.9 8.9 1.8 4.9-.9-5.1-2.8-8.6c.4-.1.9-.2 1.3-.3.1.4.4.6.7.6.4 0 .7-.3.7-.7v-.1c.5 0 .9-.1 1.4-.1z" fill="#000080"/><path d="m24.8 21.6c0 1.8-1.4 3.2-3.2 3.2s-3.2-1.4-3.2-3.2 1.4-3.2 3.2-3.2 3.2 1.4 3.2 3.2z" fill="#fff" transform="matrix(.83624894 0 0 .83430696 105.36892 155.57012)"/><path d="m24.1 21.6c0 1.4-1.1 2.5-2.5 2.5s-2.5-1.1-2.5-2.5 1.1-2.5 2.5-2.5 2.5 1.1 2.5 2.5z" fill="#000080" transform="matrix(.83624894 0 0 .83430696 105.36892 155.57012)"/><path d="m213.3 235.7c7.6 0 11.3-3.5 11.3-11.5v-112.7h-202.3v112.8c0 8 3.8 11.4 10.3 11.4h180.8z" fill="none" stroke="#000" stroke-width="4.147708"/></svg>