<svg height="62.218742" width="113.1328" xmlns="http://www.w3.org/2000/svg"><path d="m74.850883.375c1.97722 20.812305 2.5972 41.488882 0 61.843742h37.438167l.84375-9.46875c-5.56226 1.37524-11.89511 2.32431-19.281917 1.875-2.89134-18.083328-1.08809-36.166659-.0312-54.249992h-18.96875zm-22.09375-.375-27.9548.375c2.40509 20.177294 2.29965 40.920632.86105 61.843742h18.9375c-1.73815-9.79234-2.31988-18.3792-1.54989-28.343738 12.0789 3.67253 27.99397-1.86561 27.99397-16.937504 0-15.071895-7.25749-15.878134-18.28783-16.9375zm-8.15625 6.90625c8.45955.57725 9.7813 5.095961 9.7813 11.671875s-3.60624 11.129719-9.7813 11.671879zm-44.600883-6.52248h18.943153c-2.01882 20.86021-1.64706 41.421592 0 61.823562h-18.943153c2.018824-21.11256 1.647061-41.627471 0-61.823562z" fill="#00237d"/></svg>