<?xml version="1.0" encoding="UTF-8" standalone="no"?>
<!-- Created with Inkscape (http://www.inkscape.org/) -->

<svg
   xmlns:dc="http://purl.org/dc/elements/1.1/"
   xmlns:cc="http://creativecommons.org/ns#"
   xmlns:rdf="http://www.w3.org/1999/02/22-rdf-syntax-ns#"
   xmlns:svg="http://www.w3.org/2000/svg"
   xmlns="http://www.w3.org/2000/svg"
   xmlns:xlink="http://www.w3.org/1999/xlink"
   xmlns:sodipodi="http://sodipodi.sourceforge.net/DTD/sodipodi-0.dtd"
   xmlns:inkscape="http://www.inkscape.org/namespaces/inkscape"
   id="svg2"
   version="1.1"
   inkscape:version="0.48.0 r9654"
   width="113.1328"
   height="62.218742"
   sodipodi:docname="Dlf_ipl.svg">
  <metadata
     id="metadata8">
    <rdf:RDF>
      <cc:Work
         rdf:about="">
        <dc:format>image/svg+xml</dc:format>
        <dc:type
           rdf:resource="http://purl.org/dc/dcmitype/StillImage" />
      </cc:Work>
    </rdf:RDF>
  </metadata>
  <defs
     id="defs6">
    <linearGradient
       inkscape:collect="always"
       id="linearGradient4572">
      <stop
         style="stop-color: rgb(255, 255, 255); stop-opacity: 1;"
         offset="0"
         id="stop4574" />
      <stop
         style="stop-color: rgb(255, 255, 255); stop-opacity: 0;"
         offset="1"
         id="stop4576" />
    </linearGradient>
    <inkscape:perspective
       sodipodi:type="inkscape:persp3d"
       inkscape:vp_x="0 : 0.5 : 1"
       inkscape:vp_y="0 : 1000 : 0"
       inkscape:vp_z="1 : 0.5 : 1"
       inkscape:persp3d-origin="0.5 : 0.33333333 : 1"
       id="perspective10" />
    <linearGradient
       inkscape:collect="always"
       xlink:href="#linearGradient4572"
       id="linearGradient4578"
       x1="11.015512"
       y1="20.381397"
       x2="11.490893"
       y2="22.826786"
       gradientUnits="userSpaceOnUse"
       gradientTransform="translate(11.3976,9.38216)" />
  </defs>
  <sodipodi:namedview
     pagecolor="#ffffff"
     bordercolor="#666666"
     borderopacity="1"
     objecttolerance="10"
     gridtolerance="10"
     guidetolerance="10"
     inkscape:pageopacity="0"
     inkscape:pageshadow="2"
     inkscape:window-width="1280"
     inkscape:window-height="643"
     id="namedview4"
     showgrid="false"
     inkscape:zoom="1.0265152"
     inkscape:cx="-78.436689"
     inkscape:cy="87.17529"
     inkscape:window-x="0"
     inkscape:window-y="24"
     inkscape:window-maximized="1"
     inkscape:current-layer="svg2"
     fit-margin-top="0"
     fit-margin-left="0"
     fit-margin-right="0"
     fit-margin-bottom="0" />
  <path
     id="path4336"
     style="fill:#00237d;fill-opacity:1;fill-rule:nonzero;stroke:none"
     d="m 74.850883,0.375 c 1.97722,20.812305 2.5972,41.488882 0,61.843742 l 37.438167,0 0.84375,-9.46875 c -5.56226,1.37524 -11.89511,2.32431 -19.281917,1.875 C 90.959543,36.541664 92.762793,18.458333 93.819683,0.375 l -18.96875,0 -5e-5,0 z M 52.757133,0 24.802333,0.375 c 2.40509,20.177294 2.29965,40.920632 0.86105,61.843742 l 18.9375,0 c -1.73815,-9.79234 -2.31988,-18.3792 -1.54989,-28.343738 12.0789,3.67253 27.99397,-1.86561 27.99397,-16.937504 0,-15.071895 -7.25749,-15.878134 -18.28783,-16.9375 z m -8.15625,6.90625 c 8.45955,0.57725 9.7813,5.095961 9.7813,11.671875 0,6.575914 -3.60624,11.129719 -9.7813,11.671879 l 0,-23.343754 z M 0,0.38377 l 18.943153,0 c -2.01882,20.86021 -1.64706,41.421592 0,61.823562 L 0,62.207332 C 2.018824,41.094772 1.647061,20.579861 0,0.38377 z"
     sodipodi:nodetypes="cccccccccccccsccsccccccc"
     inkscape:connector-curvature="0" />
</svg>
