<svg enable-background="new 0 0 226.63 250.1" height="250.1" viewBox="0 0 226.63 250.1" width="226.63" xmlns="http://www.w3.org/2000/svg" xmlns:xlink="http://www.w3.org/1999/xlink"><clipPath id="a"><path d="m155.43 73.04-14.01 24.29h-28.09l-14.03 24.33h56.17l28.08-48.62z"/></clipPath><mask id="b" height="121.58" maskUnits="userSpaceOnUse" width="126.35" x="78.25" y="36.57"><path clip-path="url(#c)" d="m109.84-18.15 147.4 85.11-84.23 145.89-147.41-85.1z" fill="url(#e)"/></mask><clipPath id="c" clip-path="url(#a)"><path d="m99.31 48.72h84.23v97.27h-84.23z" transform="matrix(.5 -.866 .866 .5 -13.5994 171.1528)"/></clipPath><linearGradient id="d"><stop offset="0" stop-color="#1a1a1a"/><stop offset=".1413" stop-color="#222"/><stop offset=".3718" stop-color="#3b3b3b"/><stop offset=".6627" stop-color="#626262"/><stop offset="1" stop-color="#999"/></linearGradient><linearGradient id="e" gradientTransform="matrix(14.3727 8.2981 8.2981 -14.3727 -11498.625 8038.9214)" gradientUnits="userSpaceOnUse" x1="366.6782" x2="369.6108" xlink:href="#d" y1="765.0944" y2="765.0944"/><linearGradient id="f"><stop offset="0" stop-color="#e40521"/><stop offset="1" stop-color="#e40521"/></linearGradient><linearGradient id="g" gradientTransform="matrix(14.3727 8.2981 8.2981 -14.3727 -11498.624 8038.9219)" gradientUnits="userSpaceOnUse" x1="366.6781" x2="369.6108" xlink:href="#f" y1="765.0944" y2="765.0944"/><clipPath id="h"><path d="m57.17 48.67 14.09 24.37h28l14.07 24.29h28.09l-28.09-48.66z"/></clipPath><mask id="i" height="131.63" maskUnits="userSpaceOnUse" width="132.17" x="33.21" y="7.19"><path clip-path="url(#j)" d="m230.19 61.57-119.42 142.32-142.38-119.46 119.42-142.32z" fill="url(#k)"/></mask><clipPath id="j" clip-path="url(#h)"><path d="m53.58 25.09h91.43v95.82h-91.43z" transform="matrix(.6428 -.766 .766 .6428 -20.4549 102.136)"/></clipPath><linearGradient id="k" gradientTransform="matrix(-10.0181 11.9394 11.9394 10.0181 -4466.938 -12789.3857)" gradientUnits="userSpaceOnUse" x1="442.1075" x2="445.0401" xlink:href="#d" y1="754.9016" y2="754.9016"/><linearGradient id="l" gradientTransform="matrix(-10.0181 11.9394 11.9394 10.0181 -4466.938 -12789.3857)" gradientUnits="userSpaceOnUse" x1="442.1075" x2="445.0401" xlink:href="#f" y1="754.9016" y2="754.9016"/><clipPath id="m"><path d="m71.19 121.66 28.08 48.67 14.04-24.39-14.01-24.28 14.03-24.33-14.07-24.29z"/></clipPath><mask id="n" height="138.8" maskUnits="userSpaceOnUse" width="137.96" x="23.28" y="52.29"><path clip-path="url(#o)" d="m80.28-15.64 149.29 125.28-125.34 149.37-149.29-125.27z" fill="url(#p)"/></mask><clipPath id="o" clip-path="url(#m)"><path d="m41.45 74.28h101.61v94.82h-101.61z" transform="matrix(.6428 -.766 .766 .6428 -60.2627 114.1372)"/></clipPath><linearGradient id="p" gradientTransform="matrix(16.339 13.7104 13.7104 -16.339 -16604.3555 7402.1938)" gradientUnits="userSpaceOnUse" x1="379.0284" x2="381.961" xlink:href="#d" y1="764.66" y2="764.66"/><linearGradient id="q" gradientTransform="matrix(16.339 13.7104 13.7104 -16.339 -16604.3555 7402.1934)" gradientUnits="userSpaceOnUse" x1="379.0284" x2="381.961" xlink:href="#f" y1="764.66" y2="764.66"/><path d="m92.36 213.9v6.95h-8.47v18.11c0 3.23 1.53 3.86 4.36 3.86 1.65 0 2.89-.32 3.48-.5l.63-.2v6.97l-.35.09c-2.38.6-4.36.8-7.29.8-2.03 0-8.65-.67-8.65-9.35v-19.78h-4.97v-.47c0-.34 0-2.73 0-4.95v-1.53h4.97v-8.92l7.82-2.74v11.65h8.47zm52.54-11.37-9.36 46.7h-7.95l-8.28-32.52-8.41 32.52h-7.82l-9.79-46.7h8.16l6.35 31.68 7.89-31.68h7.61c.76 2.96 7.9 31.29 7.99 31.65.06-.38 5.62-30.61 5.82-31.65zm8.11 25.38c.2-3.33 2.55-7.68 7.53-7.68 5.4 0 7.04 4.77 7.22 7.68zm7.88-14.65c-5.96 0-16.03 3.89-16.03 18.47 0 17.36 13.82 18.25 16.58 18.25 5.87 0 8.48-1.22 11.06-2.43l.28-.13v-7.38l-.74.45c-1.87 1.17-5.49 2.48-9.55 2.48-8.21 0-9.37-5.87-9.48-8.34h22.57l.04-.4c.71-4.87.01-11.7-3.99-16.34-2.64-3.07-6.27-4.63-10.74-4.63m43.65 26.14c0 5.3-4.61 10.65-13.38 10.65-3.85 0-8.1-.95-11.15-2.43l-.28-.14v-7.58l.72.39c2.54 1.37 6.61 2.82 10.5 2.82 3.55 0 5.58-1.27 5.58-3.49 0-2.09-1.25-2.73-4.33-4.09l-1.21-.52c-1.49-.64-2.8-1.22-4.94-2.21-2.06-.93-6.87-3.09-6.87-9.55 0-3.47 2.66-9.99 12.65-9.99 4.12 0 8.2 1.11 9.81 1.89l.28.14v7.45l-.72-.34c-3.19-1.58-5.99-2.31-9.09-2.31-1.14 0-4.92.23-4.92 2.87 0 2.01 2.38 3.05 4.3 3.92l.37.16c1.39.61 2.48 1.12 3.41 1.49l1.01.43c6.01 2.64 8.26 5.45 8.26 10.44m-176.7-36.87h7.64v46.7h-7.43l-20.37-32.52v32.52h-7.63v-46.7h7.62l20.18 32.77v-32.77zm190.27 18.32v18.11c0 3.24 1.53 3.86 4.36 3.86 1.61 0 2.85-.32 3.47-.49l.64-.21v6.97l-.4.09c-2.34.6-4.32.8-7.26.8-2.03 0-8.61-.67-8.61-9.35v-19.78h-5v-.47c-.02-.34-.02-2.73 0-4.95v-1.53h5v-8.92l7.8-2.74v11.65h8.47v6.95h-8.47zm-157.04 18.06c-.9 1.11-3.71 4.03-8.08 4.03-3.36 0-5.51-1.93-5.51-4.92 0-3.06 2.45-4.83 6.72-4.83h6.87zm-6.03-25.76c-3.97 0-7.83.69-10.54 1.87l-.31.11v7.19l.71-.35c1.83-.89 6.23-1.7 8.98-1.7 6.86 0 7.16 2.61 7.18 6.01h-7.33c-9.72 0-14.14 6.09-14.14 11.73 0 7.87 6.26 11.96 12.47 11.96 4.23 0 6.9-1.59 9.05-3.49v2.74h7.74v-23.88c.01-11-9.66-12.19-13.81-12.19" fill="#3c1053"/><path d="m99.27 170.33 14.03-24.39 14.07 24.39h56.18.01l28.07-48.64-28.09-48.65h.01-28.12l14.06-24.34-28.09-48.65h-56.17l-28.07 48.62 14.1 24.37h-28.18l-28.06 48.62h-.01l-.01.02 28.08 48.65h56.17z" fill="#fff"/><path clip-path="url(#a)" d="m120.36 36.57 84.24 48.63-42.12 72.94-84.23-48.63z" fill="url(#g)" mask="url(#b)"/><path clip-path="url(#h)" d="m165.37 68.78-58.76 70.04-73.4-61.59 58.77-70.04z" fill="url(#l)" mask="url(#i)"/><path clip-path="url(#m)" d="m88.6 52.29 72.64 60.95-65.32 77.84-72.64-60.95z" fill="url(#q)" mask="url(#n)"/><path d="m183.56 170.33h-.01-56.17l-28.08-48.67h56.17l28.07-48.62 28.09 48.64zm-112.37-48.67 28.07-48.62h-56.17l-28.07 48.62-.02.02 28.09 48.65h56.17.02zm70.21-121.6 28.09 48.64-28.07 48.63-28.08-48.66h-56.17l28.06-48.61z" fill="#e40521"/><path d="m183.54 73.04 28.09 48.64-28.07 48.65-28.09-48.67zm-112.35 48.62h-56.17l-.02.02 28.08 48.65h56.17.01zm42.14-72.99 28.09 48.66 28.07-48.63-28.09-48.64z" fill="#d20a18"/></svg>