<svg height="157.86795" viewBox="0 0 494.47144 157.86795" width="494.47144" xmlns="http://www.w3.org/2000/svg"><g transform="matrix(1.4351494 0 0 1.4351494 -73.537369 -151.06329)"><g fill="#2151a1"><path d="m271.685 156.535c-1.20625.39125-2.855.7225-4.9025.97875-.97625.1275-2.06125.19125-3.3325.19125-2.13375 0-4.44625-.17-6.685-.345l-.0775-.003c-2.07375-.15625-4.03625-.30375-5.91875-.30375-1.345 0-2.5775.08-3.76.23125-3.5175.43625-6.29125 1.54125-6.29125 1.54125l.03-.28625c.68125-7.05375 6.60875-13.07625 13.78125-14.02875.66125-.0775 1.3425-.12125 2.02375-.12125 6.7575 0 13.31125 5.1225 15.25875 11.9275l.0488.17625zm8.25625 2.995-.002-.0962c-.0312-.45375-.1175-1.1875-.2125-1.97625-.185-1.43125-.4975-2.84-.93-4.19875-3.26175-10.2888-11.993-16.9288-22.24425-16.9288-1.0225 0-2.08.065-3.1225.2075-13.14625 1.69125-22.075 13.60625-20.33625 27.12375 1.58125 12.2375 11.4275 20.62125 23.41 20.62125 1.01125 0 2.06375-.07 3.1275-.1975 6.38625-.81125 11.9975-3.48625 16.20125-8.6875.23625-.29625.35375-.675.31-1.01375-.0387-.30125-.215-.5875-.5325-.8175-.705-.5075-3.2225-1.72875-4.5925-2.38125-.4025-.20125-.7275-.3575-.9075-.4475-.415-.21375-.7125-.31-.98375-.31-.3325 0-.6475.17-.955.54375-2.71 3.15-6.14 4.805-9.64375 5.265-.695.085-1.36875.13-2.02375.13-6.38625 0-12.83125-4.27625-14.7025-10.145l-.0463-.15375.1375-.0662c.33125-.165 3.32-1.55625 7.74875-1.55625.54875 0 1.10875.0225 1.655.0713 1.27.1 2.54625.265 3.89125.435 2.48375.32875 5.05875.66875 8.065.66875 1.8525 0 3.67375-.13375 5.53125-.3925 7.31-1.40875 10.21-3.45875 10.2325-3.4775 1.0325-.6675.99375-1.22125.925-2.22"/><path d="m394.45375 139.02375c0-.61375-.50375-1.1075-1.11125-1.1075h-6.05c-.6025 0-1.10125.49375-1.10125 1.1075v43.0175c0 .6075.49875 1.11 1.10125 1.11h6.05c.6075 0 1.11125-.5025 1.11125-1.11z"/><path d="m390.3225 122.57375c-3.0075 0-5.46125 2.455-5.46125 5.4675 0 3.005 2.45375 5.455 5.46125 5.455 3.015 0 5.46125-2.45 5.46125-5.455 0-3.0125-2.44625-5.4675-5.46125-5.4675"/><path d="m310.235 144.5c8.57375 0 15.2925 7.05625 15.2925 16.07 0 9.0675-6.375 15.89875-14.83125 15.89875-4.27 0-8.2275-1.53125-11.12375-4.305-2.9875-2.8525-4.62625-6.88-4.62625-11.32375 0-9.01 6.8575-16.34 15.28875-16.34m-.26875 39.7975c.3825.0162.77875.0312 1.16375.0312 6.21625 0 11.9925-2.4 16.285-6.725 4.3525-4.40875 6.7425-10.455 6.7425-17.03375 0-13.59125-10.46375-24.24-23.825-24.24-10.8725 0-20.05125 7.16-22.8575 17.81-.4775 1.80875-.97125 6.42-.97125 11.01875v33.75237c0 .61526.49375 1.11626 1.10875 1.11626h6.00125c.62 0 1.1225-.50738 1.1225-1.125l-.005-21.26238.315.30625c2.9475 2.86375 8.41375 6.04625 14.92 6.35125"/><path d="m202.4175 144.5c8.56625 0 15.2875 7.05625 15.2875 16.07 0 9.0675-6.3725 15.89875-14.83625 15.89875-4.28 0-8.22-1.53125-11.11375-4.305-2.9925-2.8525-4.63875-6.88-4.63875-11.32375 0-9.01 6.86375-16.34 15.30125-16.34m-.26625 39.7975c.3825.0162.77625.0312 1.155.0312 6.2225 0 12.00125-2.4 16.28625-6.725 4.35375-4.40875 6.75125-10.455 6.75125-17.03375 0-13.59125-10.4725-24.24-23.83625-24.24-10.86875 0-20.05625 7.16-22.85625 17.81-.48625 1.80875-.9725 6.42-.9725 11.01875v33.75237c0 .61526.49875 1.11626 1.09875 1.11626h6.01875c.6175 0 1.12-.50738 1.12-1.125l-.01-21.26238.30375.30625c2.94875 2.86375 8.415 6.04625 14.94125 6.35125"/><path d="m339.93875 176.7625c5.225 4.78125 10.9325 7.5125 18.3425 7.5125h.235c12.79-.0825 18.505-7.07375 18.505-13.96125 0-9.5275-8.98875-12.13125-11.7425-12.70875-.88375-.1725-1.8025-.345-2.745-.5325-2.22625-.42875-4.5375-.87125-6.6375-1.45125-1.4725-.405-6.2725-2.00375-6.2725-5.5925 0-3.95125 4.385-6.08125 8.50375-6.08125 3.46 0 6.345.5825 10.03625 3.465.28875.2275.69375.4875 1.1875.4875.365 0 .715-.12625 1.09125-.395 1.0225-.75375 2.8925-2.33125 4.1275-3.56625.29125-.295.4275-.6175.41-.955-.0288-.52375-.4175-.9525-.6175-1.1175-4.93625-3.91625-9.6875-5.51875-16.38625-5.53625h-.0487c-9.5825 0-16.81625 6.16-16.81625 14.32625 0 6.47125 5.32 11.0675 14.9625 12.96125l6.03875 1.1575c3.96875.72875 6.2 2.83625 6.1225 5.7875-.0713 2.87625-3.59875 5.855-9.395 5.855-4.73125 0-8.89875-1.8475-12.39-5.01625l-.0512-.05c-.24625-.22375-.54125-.49625-.9375-.49625-.2775 0-.57125.12875-.88875.37625-.36375.295-4.39625 3.48375-4.82625 3.935-.1975.21125-.29.435-.28625.67.01.3725.25625.72125.47875.92625"/></g><g><path d="m145.13125 199.15238c-21.474 21.47899-56.304625 21.47649-77.77775 0-21.484375-21.48238-21.484375-56.30988 0-77.78488 21.478-21.4775 56.30375-21.4775 77.774.002 21.48375 21.4725 21.48375 56.3.004 77.78238" fill="#fff"/><path d="m149.0575 132.505c1.03 3.3375 1.595 6.88 1.595 10.5525 0 11.85-5.82625 22.27-14.6875 28.79875-15.40838 11.34875-37.866875 11.36375-68.876125 21.135 9.358875 11.186 23.422875 18.30612 39.151375 18.30612 28.1885 0 51.0385-22.84987 51.0385-51.03737 0-10.2325-3.02875-19.75875-8.22125-27.755" fill="#2151a1"/><path d="m136.84875 119.42375c-8.52875-6.41-19.12412-10.2025-30.607-10.2025-28.1875 0-51.036625 22.855-51.036625 51.03875 0 11.345 3.701125 21.82375 9.960875 30.29625 34.32625-9.995 61.43025-36.92125 71.68275-71.1325" fill="#eb1933"/></g></g></svg>