<svg enable-background="new 0 0 250 250" height="250" viewBox="0 0 250 250" width="250" xmlns="http://www.w3.org/2000/svg"><path d="m125.003 245c65.731 0 119.029-53.737 119.029-120.005 0-66.269-53.298-119.995-119.029-119.995-65.745 0-119.035 53.726-119.035 119.995 0 66.268 53.29 120.005 119.035 120.005" fill="#fff"/><path d="m125.022 238.195c61.707 0 111.738-50.441 111.738-112.644 0-62.211-50.031-112.646-111.738-112.646-61.717 0-111.743 50.434-111.743 112.646 0 62.203 50.026 112.644 111.743 112.644" fill="#124bb6"/><g fill="#fff"><path d="m35.662 74.422c1.007-.007 1.828-.842 1.814-1.868 0-1.025-.826-1.853-1.84-1.846-1.009.015-1.822.838-1.816 1.868.007 1.018.833 1.853 1.842 1.846"/><path d="m44.731 73.839c1.009-.007 1.822-.838 1.814-1.864 0-1.018-.826-1.846-1.84-1.838-1.014.007-1.827.835-1.822 1.86.008 1.022.826 1.846 1.848 1.842"/><path d="m50.125 66.204c1.009-.003 1.829-.838 1.822-1.864-.005-1.022-.831-1.846-1.846-1.842-1.009.007-1.829.842-1.822 1.86.006 1.033.839 1.861 1.846 1.846"/><path d="m41.44 65.476c1.015-.007 1.828-.839 1.822-1.872-.007-1.018-.833-1.846-1.847-1.838-1.007.007-1.82.839-1.82 1.86.005 1.029.831 1.85 1.845 1.85"/><path d="m48.127 56.917c1.014-.007 1.834-.846 1.827-1.864-.005-1.029-.836-1.853-1.846-1.846-1.014.003-1.827.838-1.822 1.864.008 1.026.827 1.846 1.841 1.846"/><path d="m56.693 58.701c1.009-.007 1.822-.846 1.816-1.864-.007-1.029-.833-1.849-1.834-1.849-1.015.003-1.828.838-1.828 1.864.006 1.028.832 1.852 1.846 1.849"/><path d="m55.212 49.666c1.009-.007 1.829-.842 1.822-1.868-.005-1.025-.826-1.846-1.848-1.838-1.007 0-1.827.828-1.82 1.86.013 1.022.831 1.853 1.846 1.846"/><path d="m63.904 51.841c1.009 0 1.827-.842 1.827-1.868-.013-1.021-.838-1.853-1.846-1.838-1.009.004-1.829.839-1.822 1.864.006 1.022.832 1.846 1.841 1.842"/><path d="m63.209 43.06c1.017-.003 1.822-.838 1.822-1.86-.006-1.033-.832-1.849-1.84-1.846-1.015.007-1.835.842-1.828 1.868.007 1.025.832 1.845 1.846 1.838"/><path d="m71.651 46.158c1.007-.007 1.827-.838 1.82-1.864-.005-1.029-.831-1.846-1.846-1.842-1.009 0-1.827.842-1.827 1.86.005 1.025.837 1.853 1.853 1.846"/><path d="m71.731 37.244c1.003-.007 1.822-.838 1.816-1.867-.007-1.022-.833-1.838-1.842-1.838-1.014.007-1.827.842-1.814 1.86 0 1.033.82 1.853 1.84 1.845"/><path d="m79.654 41.258c1.009-.003 1.827-.835 1.822-1.864-.007-1.018-.831-1.849-1.84-1.834-1.014.003-1.834.835-1.827 1.86.005 1.018.831 1.845 1.845 1.838"/><path d="m80.379 32.348c1.009-.007 1.834-.838 1.814-1.864 0-1.029-.826-1.853-1.833-1.85-1.016.007-1.829.839-1.829 1.864.008 1.03.84 1.85 1.848 1.85"/><path d="m88.441 36.886c1.001-.008 1.82-.842 1.82-1.868 0-1.018-.837-1.846-1.84-1.846-1.015.015-1.833.846-1.822 1.875.001 1.018.826 1.846 1.842 1.839"/><path d="m90.073 28.221c1.015-.007 1.828-.835 1.822-1.864-.007-1.021-.838-1.842-1.84-1.834-1.015.003-1.829.835-1.822 1.86.005 1.025.826 1.846 1.84 1.838"/><path d="m97.366 33.692c1.007-.015 1.82-.846 1.815-1.868 0-1.025-.826-1.853-1.84-1.846-1.015.007-1.828.835-1.822 1.864.007 1.03.825 1.85 1.847 1.85"/><path d="m100.038 25.416c1.009-.007 1.827-.846 1.822-1.868-.005-1.025-.832-1.85-1.848-1.838-1.007 0-1.827.842-1.82 1.86.005 1.026.831 1.853 1.846 1.846"/><path d="m106.543 31.671c1.02-.007 1.833-.85 1.828-1.868-.007-1.025-.833-1.853-1.84-1.846-1.016.007-1.829.85-1.822 1.868-.001 1.026.825 1.853 1.834 1.846"/><path d="m110.254 23.259c1.022-.003 1.835-.846 1.828-1.864-.005-1.025-.832-1.853-1.846-1.846-1.016.007-1.822.838-1.816 1.86 0 1.033.826 1.85 1.834 1.85"/><path d="m116.128 30.038c1.002-.007 1.822-.85 1.815-1.868-.006-1.018-.824-1.846-1.833-1.838-1.015.007-1.828.838-1.828 1.868.007 1.017.832 1.845 1.846 1.838"/><path d="m120.49 22.281c1.009-.007 1.827-.842 1.822-1.868-.007-1.025-.831-1.846-1.84-1.838-1.021.007-1.834.838-1.827 1.856.005 1.03.831 1.854 1.845 1.85"/><path d="m125.842 29.583c1.014-.007 1.828-.839 1.828-1.86-.008-1.025-.839-1.846-1.848-1.842-1.015.004-1.828.839-1.822 1.864 0 1.018.833 1.846 1.842 1.838"/><path d="m130.6 22.351c1.007-.003 1.819-.838 1.816-1.856-.008-1.029-.832-1.853-1.85-1.85-1.007.007-1.813.839-1.813 1.864.004 1.018.832 1.849 1.847 1.842"/><path d="m135.302 30.316c1.014-.007 1.827-.842 1.819-1.86-.003-1.025-.823-1.853-1.838-1.846s-1.827.85-1.824 1.864c.008 1.029.835 1.849 1.843 1.842"/><path d="m140.835 23.468c1.018 0 1.831-.839 1.823-1.86-.007-1.025-.835-1.853-1.834-1.838-1.015 0-1.835.828-1.828 1.86.008 1.025.832 1.852 1.839 1.838"/><path d="m144.775 31.572c1.011-.003 1.823-.838 1.823-1.864-.007-1.025-.842-1.846-1.853-1.842-1.011.011-1.824.842-1.816 1.86.008 1.029.825 1.853 1.846 1.846"/><path d="m150.825 25.379c1.011-.007 1.835-.842 1.816-1.868 0-1.025-.828-1.853-1.835-1.838-1.015.003-1.827.838-1.827 1.86.015 1.026.832 1.85 1.846 1.846"/><path d="m160.167 28.338c1.015-.011 1.827-.835 1.82-1.864 0-1.029-.832-1.853-1.839-1.849-1.011.015-1.823.85-1.823 1.868.015 1.025.835 1.853 1.842 1.845"/><path d="m153.981 34.011c1.011-.003 1.831-.846 1.824-1.864-.008-1.025-.835-1.853-1.846-1.846s-1.816.846-1.816 1.864c.007 1.022.832 1.846 1.838 1.846"/><path d="m162.555 37.229c1.007-.003 1.827-.827 1.82-1.86-.004-1.018-.828-1.838-1.839-1.838-1.021.007-1.835.835-1.827 1.86.004 1.026.839 1.846 1.846 1.838"/><path d="m169.26 31.957c1.011-.007 1.831-.842 1.831-1.868-.015-1.018-.842-1.846-1.853-1.838-1.011.003-1.831.838-1.824 1.856.008 1.029.839 1.853 1.846 1.85"/><path d="m170.871 41.247c1.004 0 1.824-.839 1.816-1.864-.004-1.018-.827-1.846-1.846-1.842-1.011.004-1.82.842-1.82 1.864.004 1.025.833 1.849 1.85 1.842"/><path d="m178.364 37.01c1.007-.007 1.819-.834 1.819-1.86-.003-1.025-.831-1.846-1.846-1.846-1.007.007-1.827.842-1.819 1.864.003 1.022.828 1.853 1.846 1.842"/><path d="m178.672 46.048c1.014 0 1.827-.835 1.823-1.856-.007-1.029-.835-1.853-1.842-1.842-1.021 0-1.835.835-1.827 1.86.007 1.025.831 1.853 1.846 1.838"/><path d="m186.424 42.474c1.015-.007 1.828-.846 1.82-1.875-.008-1.018-.831-1.842-1.838-1.834-1.019.003-1.831.838-1.824 1.856 0 1.025.835 1.86 1.842 1.853"/><path d="m186.216 51.775c1.018-.007 1.834-.842 1.823-1.868-.008-1.025-.835-1.846-1.842-1.838-1.021.007-1.827.839-1.82 1.86.011 1.026.835 1.85 1.839 1.846"/><path d="m194.491 49.102c1.015-.007 1.835-.835 1.828-1.86-.004-1.025-.832-1.853-1.843-1.846-1.018.007-1.831.842-1.823 1.868.004 1.025.827 1.849 1.838 1.838"/><path d="m193.25 58.287c1.015-.007 1.827-.842 1.827-1.868-.015-1.018-.838-1.846-1.853-1.838-1.004.007-1.816.842-1.81 1.868.001 1.025.836 1.845 1.836 1.838"/><path d="m201.79 56.668c1.021-.007 1.827-.842 1.827-1.868-.007-1.025-.831-1.853-1.838-1.838-1.025.007-1.839.832-1.831 1.86.007 1.026.842 1.853 1.842 1.846"/><path d="m199.904 65.721c1.018-.007 1.823-.842 1.823-1.868-.007-1.018-.835-1.846-1.842-1.846-1.021.007-1.835.85-1.827 1.868.007 1.025.836 1.846 1.846 1.846"/><path d="m208.188 64.358c1.015-.007 1.835-.835 1.824-1.864-.008-1.022-.828-1.85-1.842-1.842-1.022 0-1.828.842-1.828 1.868.012 1.018.832 1.846 1.846 1.838"/><path d="m205.521 73.55c1.015-.007 1.828-.839 1.824-1.868-.008-1.018-.835-1.85-1.85-1.842-1.007.011-1.82.846-1.82 1.864.009 1.026.833 1.854 1.846 1.846"/><path d="m213.938 72.711c1.011-.007 1.823-.838 1.82-1.86-.008-1.021-.824-1.853-1.843-1.845-1.007.003-1.831.846-1.819 1.864.003 1.025.831 1.853 1.842 1.841"/><path d="m210.495 81.907c1.003-.007 1.827-.839 1.82-1.86-.004-1.025-.839-1.85-1.846-1.846-1.008.007-1.828.842-1.82 1.868.011 1.018.828 1.846 1.846 1.838"/><path d="m218.914 82.251c1.015-.007 1.835-.835 1.82-1.868-.004-1.018-.824-1.846-1.839-1.838-1.014.007-1.823.842-1.823 1.864.007 1.022.835 1.853 1.842 1.842"/><path d="m214.685 91.059c1.021-.007 1.835-.838 1.831-1.864-.008-1.025-.835-1.853-1.842-1.838-1.022.007-1.835.835-1.828 1.864.008 1.017.832 1.842 1.839 1.838"/><path d="m222.858 91.795c1.011 0 1.823-.835 1.816-1.864-.008-1.021-.824-1.849-1.846-1.842-1.004.007-1.816.842-1.816 1.868.015 1.025.836 1.853 1.846 1.838"/><path d="m26.34 159.043c1.007.052 1.864-.732 1.915-1.758.044-1.032-.738-1.89-1.747-1.94-1.007-.052-1.871.739-1.915 1.765-.05 1.018.731 1.882 1.747 1.933"/><path d="m34.917 161.548c1.003.052 1.866-.732 1.91-1.758.051-1.025-.73-1.89-1.745-1.934-1.014-.051-1.866.74-1.91 1.758-.052 1.026.73 1.89 1.745 1.934"/><path d="m29.78 168.792c1.001.044 1.866-.74 1.916-1.766.045-1.025-.736-1.89-1.745-1.94-1.015-.044-1.871.732-1.915 1.765-.052 1.025.73 1.889 1.744 1.941"/><path d="m38.421 169.854c1.003.052 1.866-.747 1.91-1.765.051-1.019-.731-1.89-1.74-1.941-1.014-.036-1.871.747-1.922 1.766-.044 1.024.738 1.896 1.752 1.94"/><path d="m34.526 178.203c1.015.052 1.872-.747 1.916-1.765.044-1.025-.731-1.897-1.74-1.948-1.014-.037-1.871.747-1.915 1.772-.051 1.018.725 1.89 1.739 1.941"/><path d="m43.206 178.35c1.014.044 1.878-.739 1.922-1.758.05-1.025-.732-1.896-1.747-1.94-1.007-.052-1.871.739-1.915 1.758-.044 1.025.738 1.896 1.74 1.94"/><path d="m39.959 186.985c1.009.044 1.86-.74 1.917-1.766.044-1.018-.738-1.89-1.747-1.94-1.014-.044-1.866.747-1.915 1.765-.044 1.025.731 1.897 1.745 1.941"/><path d="m48.677 186.355c1.014.051 1.871-.74 1.915-1.772.044-1.025-.738-1.89-1.739-1.934-1.015-.052-1.879.747-1.923 1.765-.044 1.025.738 1.89 1.747 1.941"/><path d="m46.067 195.02c1.015.052 1.872-.747 1.916-1.765.044-1.025-.725-1.89-1.74-1.941-1.014-.051-1.871.74-1.915 1.766-.051 1.031.731 1.889 1.739 1.94"/><path d="m54.69 193.716c1.014.052 1.864-.739 1.915-1.758.051-1.025-.725-1.882-1.745-1.948-1.009-.044-1.866.747-1.91 1.78-.051 1.025.724 1.89 1.74 1.926"/><path d="m52.734 202.293c1.016.051 1.866-.747 1.917-1.766.049-1.025-.73-1.89-1.739-1.94-1.015-.052-1.866.739-1.923 1.765-.051 1.018.731 1.889 1.745 1.941"/><path d="m61.641 200.477c1.009.065 1.866-.732 1.91-1.751.051-1.032-.73-1.89-1.732-1.94-1.016-.052-1.873.732-1.917 1.765-.058 1.017.724 1.874 1.739 1.926"/><path d="m60.091 208.672c1.007.052 1.864-.732 1.916-1.765.049-1.025-.731-1.89-1.747-1.934-1.007-.044-1.864.747-1.91 1.765-.049 1.026.725 1.898 1.741 1.934"/><path d="m68.518 205.933c1.014.037 1.871-.739 1.922-1.765.049-1.033-.738-1.904-1.752-1.941-1.003-.051-1.866.747-1.91 1.766-.051 1.025.731 1.881 1.74 1.94"/><path d="m67.855 214.553c1.016.052 1.873-.739 1.923-1.757.051-1.025-.731-1.897-1.745-1.948-1.009-.037-1.866.747-1.917 1.779-.044 1.011.732 1.89 1.739 1.926"/><path d="m76.075 210.877c1.014.051 1.871-.747 1.915-1.766.044-1.018-.73-1.89-1.745-1.926-1.009-.052-1.866.725-1.917 1.765-.044 1.019.738 1.875 1.747 1.927"/><path d="m76.314 219.688c1.007.036 1.871-.747 1.915-1.766.044-1.032-.73-1.89-1.745-1.94-1.009-.052-1.866.747-1.917 1.765-.043 1.018.739 1.889 1.747 1.941"/><path d="m84.168 215.337c1.014.036 1.871-.74 1.915-1.772.051-1.025-.738-1.896-1.745-1.934-1.009-.051-1.866.747-1.917 1.766-.044 1.024.738 1.881 1.747 1.94"/><path d="m85.719 223.936c1.007.051 1.858-.747 1.915-1.766.044-1.018-.738-1.89-1.747-1.94-1.015-.052-1.872.747-1.916 1.765-.043 1.018.732 1.889 1.748 1.941"/><path d="m92.948 219.028c1.014.051 1.866-.74 1.922-1.758.037-1.025-.745-1.897-1.752-1.948-1.016-.044-1.866.747-1.917 1.765-.037 1.025.732 1.897 1.747 1.941"/><path d="m95.412 227.539c1.001.051 1.864-.74 1.91-1.766.05-1.018-.732-1.89-1.747-1.94-1.015-.052-1.872.747-1.916 1.779-.043 1.019.737 1.89 1.753 1.927"/><path d="m102.174 221.563c1.009.051 1.86-.74 1.91-1.766.051-1.018-.73-1.89-1.745-1.94-1.009-.037-1.866.747-1.917 1.765-.044 1.024.738 1.903 1.752 1.941"/><path d="m104.892 229.963c1.007.052 1.866-.747 1.915-1.765.051-1.025-.73-1.89-1.745-1.941-1.009-.051-1.866.74-1.917 1.766-.044 1.032.73 1.889 1.747 1.94"/><path d="m111.294 223.444c1.002.052 1.866-.747 1.916-1.765.044-1.025-.736-1.89-1.752-1.941-1.001-.036-1.864.74-1.915 1.766-.044 1.017.737 1.89 1.751 1.94"/><path d="m120.464 224.302c1.009.051 1.866-.747 1.91-1.766.051-1.018-.731-1.89-1.745-1.94-1.009-.052-1.872.739-1.917 1.765-.044 1.018.738 1.889 1.752 1.941"/><path d="m114.673 231.486c1.015.037 1.879-.747 1.916-1.779.057-1.019-.724-1.89-1.74-1.941-1.007-.036-1.858.755-1.915 1.766-.044 1.025.737 1.889 1.739 1.954"/><path d="m124.253 232.065c1.009.036 1.866-.74 1.917-1.766.044-1.032-.738-1.89-1.747-1.94-1.009-.037-1.866.747-1.923 1.765-.043 1.019.739 1.89 1.753 1.941"/><path d="m129.926 224.323c1.014.052 1.878-.739 1.915-1.765.044-1.019-.732-1.89-1.732-1.941-1.015-.036-1.871.747-1.928 1.78-.052 1.018.73 1.89 1.745 1.926"/><path d="m134.4 231.501c1 .052 1.864-.747 1.908-1.765.051-1.033-.729-1.89-1.743-1.941-1.019-.044-1.875.74-1.919 1.766-.043 1.017.74 1.889 1.754 1.94"/><path d="m138.791 223.444c1.011.052 1.868-.747 1.912-1.779.051-1.019-.74-1.89-1.739-1.927-1.015-.051-1.872.74-1.923 1.766-.037 1.017.732 1.89 1.75 1.94"/><path d="m144.064 230.124c1 .037 1.864-.747 1.908-1.779.048-1.019-.729-1.875-1.747-1.927-1.007-.051-1.863.747-1.915 1.751-.043 1.032.729 1.904 1.754 1.955"/><path d="m148.063 221.906c1.019.052 1.875-.732 1.927-1.765.048-1.019-.732-1.89-1.751-1.927-1.011-.051-1.867.726-1.911 1.766-.044 1.018.733 1.89 1.735 1.926"/><path d="m154.022 227.847c1.007.036 1.863-.762 1.915-1.766.051-1.025-.732-1.904-1.739-1.94-1.008-.052-1.872.739-1.923 1.758-.044 1.025.74 1.896 1.747 1.948"/><path d="m156.769 219.043c1.007.051 1.864-.74 1.908-1.766.044-1.018-.729-1.89-1.743-1.94-1.011-.052-1.868.747-1.919 1.765-.044 1.025.739 1.889 1.754 1.941"/><path d="m163.909 224.36c1.008.051 1.864-.74 1.923-1.751.044-1.018-.736-1.89-1.75-1.94-1.011-.052-1.868.747-1.912 1.765-.051 1.025.732 1.889 1.739 1.926"/><path d="m165.627 215.402c1 .052 1.868-.747 1.912-1.779.051-1.018-.729-1.875-1.743-1.926-1.011-.052-1.875.739-1.919 1.765-.044 1.017.732 1.89 1.75 1.94"/><path d="m173.062 219.951c1.018.051 1.875-.74 1.922-1.766.044-1.018-.735-1.89-1.746-1.94-1.011-.052-1.864.747-1.908 1.765-.053 1.018.728 1.889 1.732 1.941"/><path d="m174.134 210.942c1.008.044 1.864-.732 1.923-1.758.044-1.018-.739-1.89-1.75-1.94-1.011-.052-1.868.747-1.919 1.765-.044 1.025.732 1.889 1.746 1.933"/><path d="m181.854 214.985c1.015.051 1.872-.747 1.923-1.765.037-1.019-.739-1.89-1.743-1.927-1.018-.065-1.867.732-1.919 1.766-.052 1.018.732 1.875 1.739 1.926"/><path d="m181.897 205.684c1.008.037 1.872-.747 1.916-1.779.059-1.019-.726-1.89-1.743-1.927-1.011-.051-1.86.732-1.912 1.751-.051 1.032.726 1.889 1.739 1.955"/><path d="m189.921 208.95c1.019.037 1.868-.747 1.912-1.765.051-1.033-.74-1.897-1.736-1.941-1.011-.051-1.871.74-1.915 1.766-.055 1.017.725 1.889 1.739 1.94"/><path d="m189.05 199.847c1.011.051 1.867-.747 1.911-1.766.044-1.018-.732-1.89-1.742-1.94-1.012-.052-1.868.739-1.92 1.765-.051 1.032.732 1.889 1.751 1.941"/><path d="m197.228 202.329c1.021.052 1.871-.747 1.915-1.75.059-1.033-.726-1.89-1.732-1.956-1.015-.036-1.871.747-1.923 1.78-.045 1.018.74 1.89 1.74 1.926"/><path d="m195.854 192.954c1.015.044 1.864-.732 1.908-1.765.048-1.025-.729-1.897-1.739-1.934-1.015-.059-1.864.732-1.915 1.75-.042 1.041.728 1.898 1.746 1.949"/><path d="m204.057 195.042c1.004.051 1.868-.74 1.919-1.751.044-1.018-.739-1.89-1.75-1.955-1.019-.037-1.868.747-1.912 1.779-.044 1.019.732 1.89 1.743 1.927"/><path d="m202.156 185.776c1.007.052 1.856-.739 1.908-1.765.051-1.033-.732-1.89-1.736-1.941-1.018-.051-1.875.747-1.919 1.766-.051 1.025.733 1.89 1.747 1.94"/><path d="m210.418 186.436c1.015.037 1.871-.747 1.915-1.765.059-1.025-.725-1.89-1.735-1.941-1.019-.051-1.868.74-1.919 1.766-.044 1.017.732 1.889 1.739 1.94"/><path d="m207.185 177.874c1.018.051 1.875-.732 1.919-1.766.055-1.018-.726-1.882-1.743-1.934-1.011-.051-1.868.74-1.919 1.766-.041 1.026.739 1.882 1.743 1.934"/><path d="m216.018 177.771c1.007.051 1.864-.74 1.908-1.766.051-1.018-.726-1.89-1.74-1.934s-1.867.732-1.911 1.758c-.055 1.026.724 1.891 1.743 1.942"/><path d="m39.21 113.383h2.823c3.492 0 6.473-3.249 6.473-11.4 0-7.646-2.88-10.568-6.769-10.568h-2.527zm-11.169 30.632v-1.318c0-4.556 2.836-.659 2.836-6.321v-41.432c0-5.662-2.836-1.762-2.836-6.325v-1.314h17.384c6.055 0 11.924 4.46 11.924 14.604 0 12.488-7.361 15.586-13.475 15.586h-4.664v18.88c0 5.662 3.283 1.766 3.283 6.321v1.318h-14.452z"/><path d="m73.282 144.015v-1.063c0-4.724 2.761-.703 2.761-6.276v-39.996c0-5.574-2.761-1.545-2.761-6.277v-1.062l10.527-.495v47.829c0 5.573 2.772 1.553 2.772 6.276v1.063h-13.299"/><path d="m88.202 144.015v-1.063c0-4.724 2.767-.703 2.767-6.276v-39.996c0-5.574-2.767-1.545-2.767-6.277v-1.062l10.532-.495v47.829c0 5.573 2.767 1.553 2.767 6.276v1.063h-13.299"/><path d="m133.046 139.093c.718 1.325 1.644 1.948 2.717 1.948 4.654 0 5.482-9.727 5.482-15.251 0-5.058-.688-15.864-5.047-15.864-1.072 0-2.373.542-3.152 1.787zm-5.73 4.922h-1.948v-47.335c0-5.574-2.759-1.545-2.759-6.277v-1.062l10.437-.495v18.9c1.497-1.794 3.878-2.651 5.774-2.651 7.075 0 10.488 8.559 10.488 19.457 0 11.735-4.131 20.458-11.561 20.458-2.766 0-5.233-1.561-7.614-3.662z"/><path d="m68.902 136.676c0 5.573 2.715 1.553 2.715 6.276v1.063h-13.714v-1.063c0-4.724 3.265-.703 3.265-6.276v-23.685c0-5.577-2.761-1.556-2.761-6.284v-1.062l10.496-.491v31.522"/><path d="m60.103 94.798c0-3.681 1.935-6.321 4.438-6.321 2.496 0 4.424 2.64 4.424 6.321 0 3.677-1.928 6.317-4.424 6.317-2.503 0-4.438-2.64-4.438-6.317"/><path d="m174.395 136.676c0 5.573 2.713 1.553 2.713 6.276v1.063h-10.184v-3.392c-1.846 3.318-4.369 4.497-7.09 4.497-6.6 0-7.273-6.086-7.273-13.747v-18.393c0-5.585-2.769-1.557-2.769-6.288v-1.058l10.43-.495v26.548c0 5.53.345 7.903 3.014 7.903 1.022 0 2.956-1.113 3.498-2.688v-23.922c0-5.585-2.78-1.557-2.78-6.288v-1.058l10.441-.495z"/><path d="m188.559 136.676c0 5.573 3.311 1.553 3.311 6.276v1.063h-13.747v-1.063c0-4.724 2.747-.703 2.747-6.276v-23.648c0-5.57-2.776-1.619-2.776-6.35v-1.055l9.829-.469v10.166h.103c1.398-4.9 3.493-10.737 7.478-10.737 2.578 0 3.981 2.611 3.981 6.248 0 3.076-1.103 6.05-3.611 6.105-1.095.025-1.762-.495-2.237-1.201-.359-.531-.699-1.439-.843-2.707-.41.041-1.582 2.121-2.834 5.753-.755 2.179-1.399 5.687-1.399 9.196v8.699"/><path d="m217.694 145.055c-2.007 7.836-5.222 12.268-10.616 12.121-3.189-.088-6.866-2.601-7.071-6.673-.165-3.215 1.494-5.559 4.179-5.668 2.208-.081 3.53 1.758 3.556 3.618.011 1.472-.498 2.606-1.268 3.485.389.439 1.099.594 1.831.41 1.615-.41 2.505-2.284 3.377-5.705.3-1.179.417-1.67.417-1.67l-9.353-32.602c-1.297-4.699-2.798-1.491-2.798-5.299v-1.421h13.326v1.421c0 4.351-2.472 1.025-2.472 3.871 0 1.033.534 2.772.769 3.633l4.135 16.694 3.6-16.163c.245-1.109.688-2.769.688-3.955 0-3.633-2.446.029-2.446-4.317v-1.183h11.111v1.183c0 4.186-1.611 1.483-2.388 4.566 0 0-6.848 26.922-8.577 33.654"/><path d="m108.351 138.602c.587.857 1.942 1.802 3.378 1.802 2.093 0 4.375-1.216 4.338-4.958-.07-8.099-13.438-7.659-13.495-20.345-.039-7.302 5.698-10.745 10.354-10.624 3.215.091 8.976 1.582 8.976 7.584 0 2.93-1.651 4.351-3.347 4.351-1.732 0-3.34-1.058-3.459-3.677-.057-1.208.39-1.952.775-2.571-.586-.864-1.645-1.238-2.767-1.238-1.827 0-3.744 1.238-3.744 3.933 0 8.485 13.463 7.222 13.463 20.462 0 8.298-6.253 11.491-10.519 11.696-4.438.205-10.576-2.212-10.93-8.848-.165-2.944 1.587-5.112 4.034-5.156 1.884-.029 3.688 1.194 3.75 4.373.018 1.326-.398 2.351-.807 3.216"/></g></svg>