<svg enable-background="new 0 0 64.5 100" height="100" viewBox="0 0 64.5 100" xmlns="http://www.w3.org/2000/svg" xmlns:xlink="http://www.w3.org/1999/xlink"><radialGradient id="a" cx="17.1574" cy="230.92" gradientTransform="matrix(.9659 -.2588 .2588 .9659 -43.4778 -198.2442)" gradientUnits="userSpaceOnUse" r="41.177"><stop offset=".5" stop-color="#de4221"/><stop offset="1" stop-color="#422b1a"/></radialGradient><path d="m25.4 81.6v-3.3h3.4v2.8l-1.6 2.9h-1.4l.8-2.3h-1.2z"/><path d="m39.6 78.5v1.9c-.5.7-1 1.7-1.6 2.8-.5 1-.9 1.9-1.2 2.8s-.5 1.9-.7 2.8-.2 1.9-.2 2.8h-4.1c.2-1 .4-2 .8-2.9.9-2.6 2.2-5 3.8-7.2h-6.1l.2-3z"/><path d="m48.8 78.5-.2 3h-5.9l-.1 2.3c1-.4 1.9-.6 2.7-.6s1.6.2 2.2.6c.7.4 1.2.9 1.6 1.5s.6 1.3.6 2.1-.2 1.6-.7 2.3-1.1 1.2-1.9 1.6-1.7.6-2.7.6c-.7 0-1.4-.1-2-.3-.7-.2-1.3-.5-1.8-.9s-1-.9-1.4-1.4l2.2-1.6c.8 1.2 1.7 1.8 2.9 1.8.6 0 1.1-.2 1.4-.5.4-.3.6-.8.6-1.3 0-.3-.1-.7-.3-1s-.4-.5-.7-.7-.7-.3-1-.3c-.6 0-1.3.2-2 .6l-2.3-1.3.5-6.4h8.3z"/><circle cx="37.5" cy="37.5" fill="url(#a)" r="26.3"/><path d="m37.5 67.3c-16.4 0-29.7-13.3-29.7-29.7s13.3-29.7 29.7-29.7h1l-1.8-7.9c-20.3.4-36.7 17.1-36.7 37.5 0 20.7 16.8 37.5 37.5 37.5 5.6 0 10.9-1.2 15.6-3.4l-1.8-7.8c-4.1 2.2-8.8 3.5-13.8 3.5z"/><path d="m18.6 93.9h37.8v6.1h-37.8z"/><g fill="#fff"><path d="m14.5 50.8c-.2.1-.4 0-.6-.2s-.2-.6 0-.8l1.6-1.5c.2-.2.6-.2.8 0s.2.6 0 .8l-1.6 1.5c0 .1-.1.1-.2.2z"/><path d="m17.1 50.1c-.2.1-.4 0-.6-.2s-.2-.6 0-.8l1.6-1.5c.2-.2.6-.2.8 0s.2.6 0 .8l-1.6 1.6c-.1 0-.2.1-.2.1z"/><path d="m19.6 49.4c-.2.1-.4 0-.6-.2s-.2-.6 0-.8l1.6-1.5c.2-.2.6-.2.8 0s.2.6 0 .8l-1.6 1.5c-.1.2-.1.2-.2.2z"/><path d="m22.1 48.7c-.2.1-.4 0-.6-.2s-.2-.6 0-.8l1.6-1.5c.2-.2.6-.2.8 0s.2.6 0 .8l-1.6 1.5c0 .2-.1.2-.2.2z"/><path d="m24.6 48.1c-.2.1-.4 0-.6-.2s-.2-.6 0-.8l1.6-1.5c.2-.2.6-.2.8 0s.2.6 0 .8l-1.6 1.5c0 .1-.1.1-.2.2z"/><path d="m27.1 47.4c-.2.1-.4 0-.6-.2s-.2-.6 0-.8l1.6-1.5c.2-.2.6-.2.8 0s.2.6 0 .8l-1.6 1.5c0 .1-.1.2-.2.2z"/><path d="m29.7 46.7c-.2.1-.4 0-.6-.2s-.2-.6 0-.8l1.6-1.5c.2-.2.6-.2.8 0s.2.6 0 .8l-1.6 1.5c-.1.1-.1.2-.2.2z"/><path d="m32.2 46c-.2.1-.4 0-.6-.2s-.2-.6 0-.8l1.6-1.5c.2-.2.6-.2.8 0s.2.6 0 .8l-1.6 1.5c0 .2-.1.2-.2.2z"/><path d="m34.7 45.4c-.2.1-.4 0-.6-.2s-.2-.6 0-.8l1.6-1.5c.2-.2.6-.2.8 0s.2.6 0 .8l-1.5 1.5c-.1.1-.2.1-.3.2z"/><path d="m37.2 44.7c-.2.1-.4 0-.6-.2s-.2-.6 0-.8l1.6-1.5c.2-.2.6-.2.8 0s.2.6 0 .8l-1.6 1.5c0 .1-.1.2-.2.2z"/><path d="m39.8 44c-.2.1-.4 0-.6-.2s-.2-.6 0-.8l1.6-1.5c.2-.2.6-.2.8 0s.2.6 0 .8l-1.6 1.6c-.1 0-.1.1-.2.1z"/><path d="m42.3 43.3c-.2.1-.4 0-.6-.2s-.2-.6 0-.8l1.6-1.5c.2-.2.6-.2.8 0s.2.6 0 .8l-1.6 1.5c0 .2-.1.2-.2.2z"/><path d="m44.8 42.7c-.2.1-.4 0-.6-.2s-.2-.6 0-.8l1.6-1.5c.2-.2.6-.2.8 0s.2.6 0 .8l-1.6 1.5c0 .1-.1.1-.2.2z"/><path d="m47.3 42c-.2.1-.4 0-.6-.2s-.2-.6 0-.8l1.6-1.5c.2-.2.6-.2.8 0s.2.6 0 .8l-1.6 1.5c0 .1-.1.2-.2.2z"/><path d="m49.9 41.3c-.2.1-.4 0-.6-.2s-.2-.6 0-.8l1.6-1.5c.2-.2.6-.2.8 0s.2.6 0 .8l-1.6 1.5c-.1.1-.2.2-.2.2z"/><path d="m52.4 40.6c-.2.1-.4 0-.6-.2s-.2-.6 0-.8l1.6-1.5c.2-.2.6-.2.8 0s.2.6 0 .8l-1.6 1.5c0 .2-.1.2-.2.2z"/><path d="m54.9 40c-.2.1-.4 0-.6-.2s-.2-.6 0-.8l1.6-1.5c.2-.2.6-.2.8 0s.2.6 0 .8l-1.6 1.5c0 .1-.1.1-.2.2z"/><path d="m57.4 39.3c-.2.1-.4 0-.6-.2s-.2-.6 0-.8l1.6-1.5c.2-.2.6-.2.8 0s.2.6 0 .8l-1.6 1.5c0 .1-.1.2-.2.2z"/><path d="m60 38.6c-.2.1-.4 0-.6-.2s-.2-.6 0-.8l1.6-1.5c.2-.2.6-.2.8 0s.2.6 0 .8l-1.6 1.5c-.1.1-.2.2-.2.2z"/><path d="m62.5 37.9c-.2.1-.4 0-.6-.2s-.2-.6 0-.8l1.6-1.5c.2-.2.6-.2.8 0s.2.6 0 .8l-1.6 1.5c-.1.2-.1.2-.2.2z"/><path d="m13.9 48.2c-.2.1-.4 0-.6-.2s-.2-.6 0-.8l1.6-1.5c.2-.2.6-.2.8 0s.2.6 0 .8l-1.6 1.5c-.1.2-.2.2-.2.2z"/><path d="m16.4 47.6c-.2.1-.4 0-.6-.2s-.2-.6 0-.8l1.6-1.5c.2-.2.6-.2.8 0s.2.6 0 .8l-1.6 1.5c-.1.1-.1.1-.2.2z"/><path d="m18.9 46.9c-.2.1-.4 0-.6-.2s-.2-.6 0-.8l1.6-1.5c.2-.2.6-.2.8 0s.2.6 0 .8l-1.6 1.5c0 .1-.1.2-.2.2z"/><path d="m21.4 46.2c-.2.1-.4 0-.6-.2s-.2-.6 0-.8l1.6-1.5c.2-.2.6-.2.8 0s.2.6 0 .8l-1.6 1.5c0 .1-.1.2-.2.2z"/><path d="m23.9 45.5c-.2.1-.4 0-.6-.2s-.2-.6 0-.8l1.6-1.5c.2-.2.6-.2.8 0s.2.6 0 .8l-1.6 1.5c0 .2-.1.2-.2.2z"/><path d="m26.5 44.9c-.2.1-.4 0-.6-.2s-.2-.6 0-.8l1.6-1.5c.2-.2.6-.2.8 0s.2.6 0 .8l-1.6 1.5c-.1.1-.1.1-.2.2z"/><path d="m29 44.2c-.2.1-.4 0-.6-.2s-.2-.6 0-.8l1.6-1.5c.2-.2.6-.2.8 0s.2.6 0 .8l-1.6 1.5c0 .1-.1.2-.2.2z"/><path d="m31.5 43.5c-.2.1-.4 0-.6-.2s-.2-.6 0-.8l1.6-1.5c.2-.2.6-.2.8 0s.2.6 0 .8l-1.6 1.5c0 .1-.1.2-.2.2z"/><path d="m34 42.8c-.2.1-.4 0-.6-.2s-.2-.6 0-.8l1.6-1.5c.2-.2.6-.2.8 0s.2.6 0 .8l-1.6 1.5c0 .2-.1.2-.2.2z"/><path d="m36.6 42.2c-.2.1-.4 0-.6-.2s-.2-.6 0-.8l1.6-1.5c.2-.2.6-.2.8 0s.2.6 0 .8l-1.6 1.5c-.1.1-.1.1-.2.2z"/><path d="m39.1 41.5c-.2.1-.4 0-.6-.2s-.2-.6 0-.8l1.6-1.5c.2-.2.6-.2.8 0s.2.6 0 .8l-1.6 1.5c0 .1-.1.2-.2.2z"/><path d="m41.6 40.8c-.2.1-.4 0-.6-.2s-.2-.6 0-.8l1.6-1.5c.2-.2.6-.2.8 0s.2.6 0 .8l-1.6 1.5c0 .1-.1.2-.2.2z"/><path d="m44.1 40.1c-.2.1-.4 0-.6-.2s-.2-.6 0-.8l1.6-1.5c.2-.2.6-.2.8 0s.2.6 0 .8l-1.5 1.6c-.1.1-.2.1-.3.1z"/><path d="m46.7 39.5c-.2.1-.4 0-.6-.2s-.2-.6 0-.8l1.6-1.5c.2-.2.6-.2.8 0s.2.6 0 .8l-1.6 1.5c-.1.1-.2.1-.2.2z"/><path d="m49.2 38.8c-.2.1-.4 0-.6-.2s-.2-.6 0-.8l1.6-1.5c.2-.2.6-.2.8 0s.2.6 0 .8l-1.6 1.5c0 .1-.1.2-.2.2z"/><path d="m51.7 38.1c-.2.1-.4 0-.6-.2s-.2-.6 0-.8l1.6-1.5c.2-.2.6-.2.8 0s.2.6 0 .8l-1.6 1.6s-.1.1-.2.1z"/><path d="m54.2 37.4c-.2.1-.4 0-.6-.2s-.2-.6 0-.8l1.6-1.5c.2-.2.6-.2.8 0s.2.6 0 .8l-1.6 1.5c0 .2-.1.2-.2.2z"/><path d="m56.7 36.7c-.2.1-.4 0-.6-.2s-.2-.6 0-.8l1.6-1.5c.2-.2.6-.2.8 0s.2.6 0 .8l-1.5 1.6c-.1.1-.2.1-.3.1z"/><path d="m59.3 36.1c-.2.1-.4 0-.6-.2s-.2-.6 0-.8l1.6-1.5c.2-.2.6-.2.8 0s.2.6 0 .8l-1.6 1.5c-.1.1-.1.1-.2.2z"/><path d="m61.8 35.4c-.2.1-.4 0-.6-.2s-.2-.6 0-.8l1.6-1.5c.2-.2.6-.2.8 0s.2.6 0 .8l-1.6 1.6s-.1.1-.2.1z"/><path d="m12.2 42.2c-.2.1-.4 0-.6-.2s-.2-.6 0-.8l1.6-1.5c.2-.2.6-.2.8 0s.2.6 0 .8l-1.5 1.5c-.1.1-.2.1-.3.2z"/><path d="m14.7 41.5c-.2.1-.4 0-.6-.2s-.2-.6 0-.8l1.6-1.5c.2-.2.6-.2.8 0s.2.6 0 .8l-1.5 1.6c-.1 0-.2.1-.3.1z"/><path d="m17.3 40.8c-.2.1-.4 0-.6-.2s-.2-.6 0-.8l1.6-1.5c.2-.2.6-.2.8 0s.2.6 0 .8l-1.6 1.5c-.1.2-.1.2-.2.2z"/><path d="m19.8 40.1c-.2.1-.4 0-.6-.2s-.2-.6 0-.8l1.6-1.5c.2-.2.6-.2.8 0s.2.6 0 .8l-1.6 1.6c0 .1-.1.1-.2.1z"/><path d="m22.3 39.5c-.2.1-.4 0-.6-.2s-.2-.6 0-.8l1.6-1.5c.2-.2.6-.2.8 0s.2.6 0 .8l-1.6 1.5c0 .1-.1.1-.2.2z"/><path d="m24.8 38.8c-.2.1-.4 0-.6-.2s-.2-.6 0-.8l1.6-1.5c.2-.2.6-.2.8 0s.2.6 0 .8l-1.6 1.5c0 .1-.1.2-.2.2z"/><path d="m27.4 38.1c-.2.1-.4 0-.6-.2s-.2-.6 0-.8l1.6-1.5c.2-.2.6-.2.8 0s.2.6 0 .8l-1.6 1.6c-.1 0-.1.1-.2.1z"/><path d="m29.9 37.4c-.2.1-.4 0-.6-.2s-.2-.6 0-.8l1.6-1.5c.2-.2.6-.2.8 0s.2.6 0 .8l-1.6 1.5c0 .2-.1.2-.2.2z"/><path d="m32.4 36.8c-.2.1-.4 0-.6-.2s-.2-.6 0-.8l1.6-1.5c.2-.2.6-.2.8 0s.2.6 0 .8l-1.6 1.5c0 .1-.1.1-.2.2z"/><path d="m34.9 36.1c-.2.1-.4 0-.6-.2s-.2-.6 0-.8l1.6-1.5c.2-.2.6-.2.8 0s.2.6 0 .8l-1.5 1.6c-.1 0-.2.1-.3.1z"/><path d="m37.5 35.4c-.2.1-.4 0-.6-.2s-.2-.6 0-.8l1.6-1.5c.2-.2.6-.2.8 0s.2.6 0 .8l-1.6 1.5c-.1.1-.2.2-.2.2z"/><path d="m40 34.7c-.2.1-.4 0-.6-.2s-.2-.6 0-.8l1.6-1.5c.2-.2.6-.2.8 0s.2.6 0 .8l-1.6 1.5c0 .2-.1.2-.2.2z"/><path d="m42.5 34.1c-.2.1-.4 0-.6-.2s-.2-.6 0-.8l1.6-1.5c.2-.2.6-.2.8 0s.2.6 0 .8l-1.6 1.5c0 .1-.1.1-.2.2z"/><path d="m45 33.4c-.2.1-.4 0-.6-.2s-.2-.6 0-.8l1.6-1.5c.2-.2.6-.2.8 0s.2.6 0 .8l-1.6 1.5c0 .1-.1.2-.2.2z"/><path d="m47.6 32.7c-.2.1-.4 0-.6-.2s-.2-.6 0-.8l1.6-1.5c.2-.2.6-.2.8 0s.2.6 0 .8l-1.6 1.5c-.1.1-.2.2-.2.2z"/><path d="m50.1 32c-.2.1-.4 0-.6-.2s-.2-.6 0-.8l1.6-1.5c.2-.2.6-.2.8 0s.2.6 0 .8l-1.6 1.5c-.1.2-.1.2-.2.2z"/><path d="m52.6 31.4c-.2.1-.4 0-.6-.2s-.2-.6 0-.8l1.6-1.5c.2-.2.6-.2.8 0s.2.6 0 .8l-1.6 1.5c0 .1-.1.1-.2.2z"/><path d="m55.1 30.7c-.2.1-.4 0-.6-.2s-.2-.6 0-.8l1.6-1.5c.2-.2.6-.2.8 0s.2.6 0 .8l-1.6 1.5c0 .1-.1.2-.2.2z"/><path d="m57.6 30c-.2.1-.4 0-.6-.2s-.2-.6 0-.8l1.6-1.5c.2-.2.6-.2.8 0s.2.6 0 .8l-1.6 1.5c0 .1-.1.2-.2.2z"/><path d="m60.2 29.3c-.2.1-.4 0-.6-.2s-.2-.6 0-.8l1.6-1.5c.2-.2.6-.2.8 0s.2.6 0 .8l-1.6 1.5c-.1.2-.1.2-.2.2z"/><path d="m11.5 39.6c-.2.1-.4 0-.6-.2s-.2-.6 0-.8l1.6-1.5c.2-.2.6-.2.8 0s.2.6 0 .8l-1.6 1.5c0 .2-.1.2-.2.2z"/><path d="m14.1 39c-.2.1-.4 0-.6-.2s-.2-.6 0-.8l1.6-1.5c.2-.2.6-.2.8 0s.2.6 0 .8l-1.6 1.5c-.1.1-.1.1-.2.2z"/><path d="m16.6 38.3c-.2.1-.4 0-.6-.2s-.2-.6 0-.8l1.6-1.5c.2-.2.6-.2.8 0s.2.6 0 .8l-1.6 1.5c0 .1-.1.2-.2.2z"/><path d="m19.1 37.6c-.2.1-.4 0-.6-.2s-.2-.6 0-.8l1.6-1.5c.2-.2.6-.2.8 0s.2.6 0 .8l-1.6 1.5c0 .1-.1.2-.2.2z"/><path d="m21.6 36.9c-.2.1-.4 0-.6-.2s-.2-.6 0-.8l1.6-1.5c.2-.2.6-.2.8 0s.2.6 0 .8l-1.6 1.5c0 .2-.1.2-.2.2z"/><path d="m24.2 36.3c-.2.1-.4 0-.6-.2s-.2-.6 0-.8l1.6-1.5c.2-.2.6-.2.8 0s.2.6 0 .8l-1.6 1.5c-.1.1-.1.1-.2.2z"/><path d="m26.7 35.6c-.2.1-.4 0-.6-.2s-.2-.6 0-.8l1.6-1.5c.2-.2.6-.2.8 0s.2.6 0 .8l-1.6 1.5c0 .1-.1.2-.2.2z"/><path d="m29.2 34.9c-.2.1-.4 0-.6-.2s-.2-.6 0-.8l1.6-1.5c.2-.2.6-.2.8 0s.2.6 0 .8l-1.6 1.5c0 .1-.1.2-.2.2z"/><path d="m31.7 34.2c-.2.1-.4 0-.6-.2s-.2-.6 0-.8l1.6-1.5c.2-.2.6-.2.8 0s.2.6 0 .8l-1.5 1.6c-.1.1-.2.1-.3.1z"/><path d="m34.3 33.6c-.2.1-.4 0-.6-.2s-.2-.6 0-.8l1.6-1.5c.2-.2.6-.2.8 0s.2.6 0 .8l-1.6 1.5c-.1.1-.2.1-.2.2z"/><path d="m36.8 32.9c-.2.1-.4 0-.6-.2s-.2-.6 0-.8l1.6-1.5c.2-.2.6-.2.8 0s.2.6 0 .8l-1.6 1.5c0 .1-.1.2-.2.2z"/><path d="m39.3 32.2c-.2.1-.4 0-.6-.2s-.2-.6 0-.8l1.6-1.5c.2-.2.6-.2.8 0s.2.6 0 .8l-1.6 1.5c0 .1-.1.2-.2.2z"/><path d="m41.8 31.5c-.2.1-.4 0-.6-.2s-.2-.6 0-.8l1.6-1.5c.2-.2.6-.2.8 0s.2.6 0 .8l-1.6 1.5c0 .2-.1.2-.2.2z"/><path d="m44.4 30.9c-.2.1-.4 0-.6-.2s-.2-.6 0-.8l1.6-1.5c.2-.2.6-.2.8 0s.2.6 0 .8l-1.6 1.5c-.1.1-.2.1-.2.2z"/><path d="m46.9 30.2c-.2.1-.4 0-.6-.2s-.2-.6 0-.8l1.6-1.5c.2-.2.6-.2.8 0s.2.6 0 .8l-1.6 1.5c-.1.1-.1.2-.2.2z"/><path d="m49.4 29.5c-.2.1-.4 0-.6-.2s-.2-.6 0-.8l1.6-1.5c.2-.2.6-.2.8 0s.2.6 0 .8l-1.6 1.5c0 .1-.1.2-.2.2z"/><path d="m51.9 28.8c-.2.1-.4 0-.6-.2s-.2-.6 0-.8l1.6-1.5c.2-.2.6-.2.8 0s.2.6 0 .8l-1.6 1.5c0 .2-.1.2-.2.2z"/><path d="m54.4 28.1c-.2.1-.4 0-.6-.2s-.2-.6 0-.8l1.6-1.5c.2-.2.6-.2.8 0s.2.6 0 .8l-1.5 1.6c-.1.1-.2.1-.3.1z"/><path d="m57 27.5c-.2.1-.4 0-.6-.2s-.2-.6 0-.8l1.6-1.5c.2-.2.6-.2.8 0s.2.6 0 .8l-1.6 1.5c-.1.1-.1.1-.2.2z"/><path d="m59.5 26.8c-.2.1-.4 0-.6-.2s-.2-.6 0-.8l1.6-1.5c.2-.2.6-.2.8 0s.2.6 0 .8l-1.6 1.5c0 .1-.1.2-.2.2z"/></g></svg>