<svg height="25.535" viewBox="0 0 125.26737 25.535" width="125.26737" xmlns="http://www.w3.org/2000/svg" xmlns:xlink="http://www.w3.org/1999/xlink"><linearGradient id="a" gradientUnits="userSpaceOnUse" spreadMethod="pad" x1="267.16909" x2="279.337145" y1="-369.88816" y2="-369.88816"><stop offset="0" stop-color="#fff"/><stop offset=".43000001" stop-color="#fff"/><stop offset="1" stop-color="#a2a5a3"/></linearGradient><linearGradient id="b" gradientUnits="userSpaceOnUse" spreadMethod="pad" x1="280.76433" x2="291.649778" y1="-358.59867" y2="-358.59867"><stop offset="0" stop-color="#fff"/><stop offset=".9" stop-color="#a2a5a3"/><stop offset="1" stop-color="#a2a5a3"/></linearGradient><linearGradient id="c" gradientTransform="matrix(.22627037 -2.5862826 2.5862826 .22627037 284.08827 -365.42342)" gradientUnits="userSpaceOnUse" spreadMethod="pad" x1="0" x2="1" y1="0" y2="0"><stop offset="0" stop-color="#fff"/><stop offset=".65" stop-color="#fff"/><stop offset=".95" stop-color="#a2a5a3"/><stop offset="1" stop-color="#a2a5a3"/></linearGradient><linearGradient id="d" gradientTransform="matrix(-16.79475 -24.528115 24.528115 -16.79475 288.7644 -354.30146)" gradientUnits="userSpaceOnUse" spreadMethod="pad" x1="0" x2="1" y1="0" y2="0"><stop offset="0" stop-color="#be0000" stop-opacity=".996078"/><stop offset="1" stop-color="#f00"/></linearGradient><g transform="translate(-266.354054 379.30287)"><path d="m266.85518-378.80287h-.001l.315.825 1.3975 3.665 7.63875 20.045h25.16375l-20.16375-20.25125c-2.68625-2.6875-6.3325-4.28375-10.13125-4.28375h-4.21875z" fill="url(#d)"/><path d="m268.56605-374.31274c2.755 4.705 9.985 5.20125 10.77125 12.5175.0325.3.2625.54125.5625.58875 4.16625.65125 8.22375 2.36625 11.75 5.1925l.002.002c.0237.0187.0475.0275.0787.0275s.0625-.0113.0875-.0337c.05-.0487.0512-.1275.004-.1775-2.44125-2.56625-5.425-4.6175-8.77375-5.965l-1.01875-.41c-.525-.21125-.88875-.73125-.8725-1.33.0562-2.185 5.22625-1.74125 5.75-2.79125l.09-.18125c-1.06375-.91-2.32875-1.59375-3.72125-1.97625-.0125.0525-.0462.3075.23625.76875.30875.5025-.33625 1.3-1.27625.43875l-.0787-.0713c-6.985-6.4-12.22125-3.08125-14.98875-10.265l1.3975 3.665z" fill="#fff"/><path d="m283.02768-367.26037v1.74375c.75375-.2175 1.61125-.3525 2.33375-.50375v-.97125s-1.145.0563-1.8475-1.08875c.20875.34125-.0225.81875-.48625.82" fill="url(#c)"/><path d="m280.76393-361.05537c3.86125.7425 7.60375 2.41 10.885 5.04125-5.25-4.48625-8.45-5.17-9.92375-5.17-.58 0-.89375.10625-.96125.12875" fill="url(#b)"/><path d="m267.16893-377.97787 1.3975 3.665c2.75375 4.705 9.98375 5.20125 10.77125 12.515-.79625-9.335-4.89625-7.94-9.30125-12.1875-1.13625-.80875-2.0975-1.99375-2.8675-3.9925z" fill="url(#a)"/><g fill="#323232"><path d="m304.06705-361.41549c2.71625 0 5.0025-1.34375 5.0025-3.1875s-2.28625-3.1875-5.0025-3.1875-5.0025 1.34375-5.0025 3.1875 2.28625 3.1875 5.0025 3.1875m-.1425 2.64375c-4.975 0-8.13375-2.58625-8.13375-5.83125 0-3.30125 3.345-5.83125 8.27625-5.83125s8.27625 2.54375 8.27625 5.7025c0 1.415-.62875 2.57375-1.83 3.545h2.93l-.7 1.20125c-.44375.7575-.98625 1.21375-2.15875 1.21375z"/><path d="m319.1593-363.10212h5.17375l-2.40125-4.27375c-.0563-.1-.1-.12875-.185-.12875-.0863 0-.12875.0288-.18625.12875zm6.50375 2.35875h-7.8325l-1.115 1.9725h-3.245l5.43125-9.405c.42875-.74375 1.04375-1.315 2.2725-1.315h1.215c1.23 0 1.84375.57125 2.2725 1.315l5.43125 9.405h-3.315z"/><path d="m345.55768-369.49112v10.72h-2.90125l-8.51875-7.10375v7.10375h-2.9025v-10.72h1.81625c.92875 0 1.4.2425 1.92875.7l7.67625 6.39v-7.09z"/><path d="m355.87618-367.07549v8.305h-2.90125v-8.305h-5.94625v-2.415h14.79375v2.415z"/><path d="m364.98018-363.10212h5.17375l-2.40125-4.27375c-.0575-.1-.1-.12875-.185-.12875-.0863 0-.12875.0288-.18625.12875zm6.50375 2.35875h-7.8325l-1.115 1.9725h-3.245l5.43125-9.405c.42875-.74375 1.04375-1.315 2.2725-1.315h1.215c1.23 0 1.84375.57125 2.2725 1.315l5.43125 9.405h-3.315z"/><path d="m376.9138-359.543-.27125-.0863.72875-2.32875c2.08625.67125 4.31625.9425 6.33125.9425 3.3025 0 4.1175-.38625 4.1175-.8 0-.17125-.115-.3-.3725-.38625-.32875-.11375-1.24375-.3-3.945-.7425-2.9875-.48625-4.33-.73-5.31625-1.1875-.98625-.45625-1.5875-1.18625-1.5875-2.2575 0-.815.40125-1.4725 1.04375-1.9875 1.14375-.88625 3.10125-1.2425 5.23125-1.2425 2.745 0 5.04625.22875 7.60375.8575l.22875.0713-.61375 2.2725c-2.85875-.615-4.445-.78625-6.6175-.815-1.53-.0138-2.5875.1-3.145.27125-.315.10125-.44375.24375-.44375.415 0 .1575.1.3.415.4.3425.115.9.24375 3.83.715 3.17375.515 4.2175.72875 5.08875 1.0725 1.18625.45625 1.90125 1.3 1.90125 2.3575 0 1.33-1.02875 2.31625-2.81625 2.85875-1.1.32875-2.5725.515-4.23.515-2.60125 0-5.375-.34375-7.16125-.915"/></g></g></svg>