<svg height="436" viewBox="-1.77756879 -1.77756879 147.56287758 62.80743058" width="1024" xmlns="http://www.w3.org/2000/svg"><path d="m41.6775 58.831663h6.78c5.175 0 9.695-1.23625 9.695-6.385 0-3.36375-2.4425-5.49125-5.905-5.76625 3.2075-.82375 5.24875-2.47125 5.24875-5.76625 0-4.42875-3.645-6.04125-8.93-6.04125h-6.88875zm3.645-10.915h2.36875c3.135 0 6.5975.515 6.5975 4.22125 0 3.22625-2.9525 3.87875-6.2325 3.87875h-2.73375zm0-10.22875h3.8275c2.11375 0 4.70125.72 4.70125 3.56875 0 3.53625-2.98875 3.845-6.52375 3.845h-2.005zm35.3425-2.22c-1.8225-.755-3.75375-1.03-5.7225-1.03-7.76375 0-13.45 4.90875-13.45 12.28875 0 7.62 5.35875 12.49375 13.41375 12.49375 1.49375 0 3.86375-.1025 5.795-.8575l-.21875-3.33c-1.275.72125-3.7175 1.16625-5.54 1.16625-5.285 0-9.58625-3.74125-9.58625-9.37 0-5.38875 3.9-9.37125 9.76875-9.37125 1.85875 0 3.645.44625 5.24875 1.33875zm-52.9375 7.22375-3.92125 8.95375h7.88625zm5.3325 11.99875h-10.6975l-1.9225 4.1675h-3.75875l10.8825-23.8325 11.0125 23.8325h-3.71zm-19.465-19.36625c-1.74875-.58375-3.75375-.85875-5.43-.85875-4.59375 0-8.165 2.26625-8.165 6.5225 0 7.44875 10.935 5.9725 10.935 11.3275 0 2.81375-2.91625 3.9125-4.99375 3.9125-1.85875 0-4.04625-.68625-5.285-1.1675l-.365 3.1925c1.67625.515 3.42625.99625 5.2125.99625 5.1025 0 9.295-2.02625 9.295-7.14 0-7.895-10.935-6.83125-10.935-11.43 0-2.50625 2.405-3.1925 4.44625-3.1925 1.89625 0 2.91625.30875 4.775.995z"/><path d="m82.13524 2.1539127s22.22-7.585 45.13625 5.7125l.15625 8.0187503s8.525-2.5025 16.58.46875l-7.89875 6.84125s-20.57125-22.64000034-52.16875-14.1150003z" fill="#feb912"/><path d="m74.3195 19.915283 3.56125 5.90125s25.57375-14.74125 48.1775 6.64875l5.3975-4.65375s-24.0125-25.7275003-57.13625-7.89625" fill="#009247"/><path d="m97.23774 27.498913s13.33375-1.52625 24.01125 9.4625l-5.1225 5.1225s-5.27875-7.27375-18.88875-7.89875z" fill="#0060af"/><path d="m97.08149 41.146043s7.54875-1.21375 14.39125 5.1225l-14.07875 12.98375z" fill="#ed1c24"/></svg>