<?xml version="1.0" encoding="utf-8"?>
<!-- Generator: Adobe Illustrator 22.1.0, SVG Export Plug-In . SVG Version: 6.00 Build 0)  -->
<svg version="1.1" id="Layer_1" xmlns="http://www.w3.org/2000/svg" xmlns:xlink="http://www.w3.org/1999/xlink" wide="300px" height="60.6px"
	 viewBox="0 0 300 60.6" style="enable-background:new 0 0 300 60.6;" xml:space="preserve">
<style type="text/css">
	.st0{fill:#005199;}
</style>
<g>
	<path class="st0" d="M47,2.4C43.2,1.5,35,0,25.4,0C15.8,0,7.5,1.5,3.8,2.4C2.4,2.5,1.5,3.7,1.4,5.2c-0.6,6-1.8,21.3-1.2,27.4
		c1.5,14.5,12.4,23.7,25.2,27.9c1.6-0.6,3.3-1.2,4.8-1.8L8.4,16.2l-2.1-1.5c-0.3-0.3-0.5-0.6-0.5-1V7c0-0.3,0.3-0.6,0.6-0.6
		c0.2,0,0.3,0,0.4,0.1l5.2,3.9c0.3,0.3,0.4,0.6,0.4,1v2.5c2.4-1.3,5.4-1.9,8.4-1.8c4.8,0.3,8.1,3.4,13.8,3.7
		c4.6,0.3,7.8-1.3,10.2-2.7c0.3,3.3,0.4,7,0.6,10.5v3.3c-2.5,2.1-6.9,4-9.3,4c-4,0-6.7-2.5-10.5-2.5c-1.8,0-3.6,0.6-4.9,1.5
		l13.5,26.4c8.5-4.9,15-12.9,16.2-23.8c0.6-6.1-0.6-21.4-1.2-27.4C49.2,3.7,48.3,2.5,47,2.4z M22.8,54.1l-1.2-0.6
		c-9-4.2-15.4-11.4-16.5-21.4C4.8,29.4,5,24.3,5.3,19.2L22.8,54.1z M34.8,11.7c-5.7-0.3-8.8-3.3-13.6-3.4c-1.8-0.2-3.4,0.1-5.1,0.6
		L11.9,6H12c3.7-0.6,8.4-0.9,13.3-0.9c8.1,0,15.1,1.2,19.2,1.9l0.2,2.2C42.3,10.5,39.3,11.8,34.8,11.7z M35.9,49.3l-7.3-14.2
		c-0.6-1.2-1.5-1.9-1.5-1.9c2.2,0.7,4.9,2.4,9.4,2.4c4.2,0,7.8-2.5,9.1-3.7C44.9,39.3,41.3,45.1,35.9,49.3z"/>
	<path class="st0" d="M272.6,16.6c-1.9,0-3.9,1-5.2,1.9c-0.6,0.3-1,0.8-1.3,1l-0.1-1l-0.2-1.5h-4.2v1.5v17.7h4.9V22.3
		c0.8-0.5,2.7-1.8,4.5-1.8c2.2,0,2.4,1.5,2.4,4v11.7h4.9V23.7c0-1.8,0-3.7-1-5.1C276.5,17.4,275,16.6,272.6,16.6z"/>
	<path class="st0" d="M91.4,33.1c-2.1,0-2.1-1.3-2.1-2.8v-10h5.2l0.3-1.6l0.3-1.5h-5.8v-6.3l-4.2,0.7l-0.7,5.4L81,17.5v0.9v1.6h3.3
		v9.3c0,2.7,0.1,4.6,1.5,6c0.7,0.8,2.1,1.2,3.9,1.2c3.3,0,5.4-1.2,5.8-1.3l-1-2.7C94.2,32.5,92.9,33.1,91.4,33.1z"/>
	<path class="st0" d="M73.8,20.7c-2.2-0.7-3.9-1.2-4.9-2.1l0,0C68.3,18,68,17.4,68,16.5c0-2.5,2.2-3.7,4.6-3.7c3,0,5.5,0.9,6.1,1
		l1.2-3.3c-0.9-0.4-4-1.6-7.6-1.6c-5.8,0-9.4,3-9.4,7.9c0,0.6,0,1.2,0.1,1.8c1.2,5.8,8.4,5.5,11.2,7.8c0.9,0.6,1.2,1.3,1.2,2.5
		c0,2.2-1.9,3.9-5.1,3.9c-3.4,0-5.8-1.3-6.1-1.5l-1.6,3.3c0.1,0.1,3.3,2.1,8.2,2.1c6.3,0,9.9-3.1,9.9-8.5
		C80.7,23.5,77.9,21.9,73.8,20.7z"/>
	<polygon class="st0" points="291.9,26.2 298.2,18.6 299.4,16.9 294.3,16.9 293,18.6 287.4,25.6 287.4,18.6 287.4,7.8 282.5,8.5 
		282.5,18.6 282.5,36.3 287.4,36.3 287.4,27.3 294.3,36.3 300,36.3 	"/>
	<path class="st0" d="M250.7,16.6c-3.6,0-7.2,1.5-7.5,1.6l0.2,0.3l0.7,2.5c0.5-0.2,2.8-0.8,4.9-0.8c2.8,0,3.1,1,3.1,3.3v1
		c-4.3,0.3-10.6,0.1-10.6,6.1c0,4,2.4,6,5.4,6c3,0,5.1-2.1,5.5-2.5l0.3,2.2h4V24.4c0.1-2.5,0.1-4.5-0.9-5.8
		C255,17.4,253.5,16.6,250.7,16.6z M252.3,31.6c-0.3,0.3-1.6,1.5-3.4,1.5c-1.3,0-2.5-0.6-2.5-2.7c0-2.5,1.8-3.3,6-3.6V31.6z"/>
	<path class="st0" d="M182.4,20.2l-0.2-1.6l-0.1-1.5h-4.2v1.5v17.7h4.9V23.5c0.8-0.8,2.5-2.5,6.7-2.7v-4.3c-2.4,0-4.2,1-5.4,1.9
		C183.3,19.2,182.7,19.9,182.4,20.2z"/>
	<path class="st0" d="M127.7,16.6c-1.9,0-3.9,1-5.2,1.9l0,0c-0.6,0.3-1,0.7-1.3,1l-0.1-1l-0.1-1.5h-4.2v1.5v17.7h4.9V22.3
		c0.7-0.5,2.7-1.8,4.5-1.8c2.2,0,2.4,1.5,2.4,4v11.7h4.9V23.7c-0.2-1.6-0.2-3.7-1.2-5.1C131.4,17.4,130.1,16.6,127.7,16.6z"/>
	<path class="st0" d="M232.5,22.3c2.7-0.5,4.5-1.8,5.2-3.7c0.3-0.7,0.5-1.6,0.5-2.5c0-6.6-5.7-6.7-10.6-6.7h-7.5v9.3v17.7h6.6
		c4.8,0,6.1-0.1,7.8-0.7c2.8-1,4.3-3.3,4.3-6.6C238.8,24.9,236.6,22.8,232.5,22.3z M225,18.4v-5.7h2.5c2.4,0,3.3,0.2,4.2,0.6
		c0.9,0.6,1.3,1.8,1.3,3.1c0,0.7-0.2,1.5-0.3,1.9c-0.6,1.6-2.4,2.2-5.8,2.2H225V18.4z M231.5,32.1c-1.2,0.6-2.4,0.6-4.6,0.6H225
		v-8.5h2.5c2.4,0,3.3,0.1,4,0.6c1.2,0.6,1.8,1.8,1.8,3.6C233.6,30.3,232.7,31.5,231.5,32.1z"/>
	<path class="st0" d="M167,16.6c-3.6,0-7.2,1.5-7.5,1.6l0.1,0.3l0.8,2.5c0.4-0.2,2.8-0.8,4.9-0.8c2.8,0,3.1,1,3.1,3.3v1
		c-4.3,0.3-10.6,0.1-10.6,6.1c0,4,2.4,6,5.4,6s5.1-2.1,5.5-2.5l0.3,2.2h4V24.4c0-2.5,0-4.5-0.9-5.8C171.3,17.4,169.8,16.6,167,16.6z
		 M168.5,31.6c-0.3,0.3-1.6,1.5-3.4,1.5c-1.3,0-2.5-0.6-2.5-2.7c0-2.5,1.8-3.3,6-3.6V31.6z"/>
	<path class="st0" d="M105.9,16.6c-3.6,0-7.2,1.5-7.5,1.6l0.1,0.3l0.8,2.5c0.4-0.2,2.8-0.8,4.9-0.8c2.8,0,3.1,1,3.1,3.3v1
		c-4.3,0.3-10.6,0.1-10.6,6.1c0,4,2.4,6,5.4,6s5.1-2.1,5.5-2.5l0.3,2.2h4V24.4c0-2.5,0-4.5-0.9-5.8
		C110.3,17.4,108.8,16.6,105.9,16.6z M107.4,31.6c-0.3,0.3-1.6,1.5-3.4,1.5c-1.3,0-2.5-0.6-2.5-2.7c0-2.5,1.8-3.3,6-3.6V31.6z"/>
	<path class="st0" d="M202.7,18.6v0.3c-0.1-0.1-0.3-0.3-0.4-0.3c-1.3-1-2.8-1.9-5.1-1.9c-1.9,0-3.6,0.8-4.6,1.9
		c-1.6,1.8-2.4,4.5-2.4,8.2c0,6.3,3,9.9,7.3,9.9c3.1,0,5.1-2.2,5.5-2.7l0.3,2.2h4.2V18.6V7.8l-4.8,0.7V18.6z M202.7,30.7
		c-0.5,0.5-1.8,1.9-3.9,1.9c-2.2,0-3.6-1.8-3.6-6c0-4.3,1.5-6,3.7-6c1.8,0,3.1,1,3.7,1.3V30.7z"/>
	<polygon class="st0" points="207.5,7.8 207.5,7.8 207.6,7.8 	"/>
	<path class="st0" d="M149.6,18.6v0.3c-0.1-0.1-0.3-0.3-0.4-0.3c-1.3-1-2.8-1.9-5.1-1.9c-1.9,0-3.6,0.8-4.6,1.9
		c-1.6,1.8-2.4,4.5-2.4,8.2c0,6.3,3,9.9,7.3,9.9c3.1,0,5.1-2.2,5.5-2.7l0.3,2.2h4.2V18.6V7.8l-4.8,0.7V18.6z M149.6,30.7
		c-0.4,0.5-1.8,1.9-3.9,1.9c-2.2,0-3.6-1.8-3.6-6c0-4.3,1.5-6,3.7-6c1.8,0,3.1,1,3.7,1.3V30.7z"/>
	<polygon class="st0" points="154.4,7.8 154.4,7.8 154.5,7.8 	"/>
</g>
</svg>
