<svg enable-background="new 0 0 300 60.6" height="60.6" viewBox="0 0 300 60.6" xmlns="http://www.w3.org/2000/svg"><g fill="#005199"><path d="m47 2.4c-3.8-.9-12-2.4-21.6-2.4s-17.9 1.5-21.6 2.4c-1.4.1-2.3 1.3-2.4 2.8-.6 6-1.8 21.3-1.2 27.4 1.5 14.5 12.4 23.7 25.2 27.9 1.6-.6 3.3-1.2 4.8-1.8l-21.8-42.5-2.1-1.5c-.3-.3-.5-.6-.5-1v-6.7c0-.3.3-.6.6-.6.2 0 .3 0 .4.1l5.2 3.9c.3.3.4.6.4 1v2.5c2.4-1.3 5.4-1.9 8.4-1.8 4.8.3 8.1 3.4 13.8 3.7 4.6.3 7.8-1.3 10.2-2.7.3 3.3.4 7 .6 10.5v3.3c-2.5 2.1-6.9 4-9.3 4-4 0-6.7-2.5-10.5-2.5-1.8 0-3.6.6-4.9 1.5l13.5 26.4c8.5-4.9 15-12.9 16.2-23.8.6-6.1-.6-21.4-1.2-27.4 0-1.4-.9-2.6-2.2-2.7zm-24.2 51.7-1.2-.6c-9-4.2-15.4-11.4-16.5-21.4-.3-2.7-.1-7.8.2-12.9zm12-42.4c-5.7-.3-8.8-3.3-13.6-3.4-1.8-.2-3.4.1-5.1.6l-4.2-2.9h.1c3.7-.6 8.4-.9 13.3-.9 8.1 0 15.1 1.2 19.2 1.9l.2 2.2c-2.4 1.3-5.4 2.6-9.9 2.5zm1.1 37.6-7.3-14.2c-.6-1.2-1.5-1.9-1.5-1.9 2.2.7 4.9 2.4 9.4 2.4 4.2 0 7.8-2.5 9.1-3.7-.7 7.4-4.3 13.2-9.7 17.4z"/><path d="m272.6 16.6c-1.9 0-3.9 1-5.2 1.9-.6.3-1 .8-1.3 1l-.1-1-.2-1.5h-4.2v1.5 17.7h4.9v-13.9c.8-.5 2.7-1.8 4.5-1.8 2.2 0 2.4 1.5 2.4 4v11.7h4.9v-12.5c0-1.8 0-3.7-1-5.1-.8-1.2-2.3-2-4.7-2z"/><path d="m91.4 33.1c-2.1 0-2.1-1.3-2.1-2.8v-10h5.2l.3-1.6.3-1.5h-5.8v-6.3l-4.2.7-.7 5.4-3.4.5v.9 1.6h3.3v9.3c0 2.7.1 4.6 1.5 6 .7.8 2.1 1.2 3.9 1.2 3.3 0 5.4-1.2 5.8-1.3l-1-2.7c-.3 0-1.6.6-3.1.6z"/><path d="m73.8 20.7c-2.2-.7-3.9-1.2-4.9-2.1-.6-.6-.9-1.2-.9-2.1 0-2.5 2.2-3.7 4.6-3.7 3 0 5.5.9 6.1 1l1.2-3.3c-.9-.4-4-1.6-7.6-1.6-5.8 0-9.4 3-9.4 7.9 0 .6 0 1.2.1 1.8 1.2 5.8 8.4 5.5 11.2 7.8.9.6 1.2 1.3 1.2 2.5 0 2.2-1.9 3.9-5.1 3.9-3.4 0-5.8-1.3-6.1-1.5l-1.6 3.3c.1.1 3.3 2.1 8.2 2.1 6.3 0 9.9-3.1 9.9-8.5 0-4.7-2.8-6.3-6.9-7.5z"/><path d="m291.9 26.2 6.3-7.6 1.2-1.7h-5.1l-1.3 1.7-5.6 7v-7-10.8l-4.9.7v10.1 17.7h4.9v-9l6.9 9h5.7z"/><path d="m250.7 16.6c-3.6 0-7.2 1.5-7.5 1.6l.2.3.7 2.5c.5-.2 2.8-.8 4.9-.8 2.8 0 3.1 1 3.1 3.3v1c-4.3.3-10.6.1-10.6 6.1 0 4 2.4 6 5.4 6s5.1-2.1 5.5-2.5l.3 2.2h4v-11.9c.1-2.5.1-4.5-.9-5.8-.8-1.2-2.3-2-5.1-2zm1.6 15c-.3.3-1.6 1.5-3.4 1.5-1.3 0-2.5-.6-2.5-2.7 0-2.5 1.8-3.3 6-3.6v4.8z"/><path d="m182.4 20.2-.2-1.6-.1-1.5h-4.2v1.5 17.7h4.9v-12.8c.8-.8 2.5-2.5 6.7-2.7v-4.3c-2.4 0-4.2 1-5.4 1.9-.8.8-1.4 1.5-1.7 1.8z"/><path d="m127.7 16.6c-1.9 0-3.9 1-5.2 1.9-.6.3-1 .7-1.3 1l-.1-1-.1-1.5h-4.2v1.5 17.7h4.9v-13.9c.7-.5 2.7-1.8 4.5-1.8 2.2 0 2.4 1.5 2.4 4v11.7h4.9v-12.5c-.2-1.6-.2-3.7-1.2-5.1-.9-1.2-2.2-2-4.6-2z"/><path d="m232.5 22.3c2.7-.5 4.5-1.8 5.2-3.7.3-.7.5-1.6.5-2.5 0-6.6-5.7-6.7-10.6-6.7h-7.5v9.3 17.7h6.6c4.8 0 6.1-.1 7.8-.7 2.8-1 4.3-3.3 4.3-6.6 0-4.2-2.2-6.3-6.3-6.8zm-7.5-3.9v-5.7h2.5c2.4 0 3.3.2 4.2.6.9.6 1.3 1.8 1.3 3.1 0 .7-.2 1.5-.3 1.9-.6 1.6-2.4 2.2-5.8 2.2h-1.9zm6.5 13.7c-1.2.6-2.4.6-4.6.6h-1.9v-8.5h2.5c2.4 0 3.3.1 4 .6 1.2.6 1.8 1.8 1.8 3.6.3 1.9-.6 3.1-1.8 3.7z"/><path d="m167 16.6c-3.6 0-7.2 1.5-7.5 1.6l.1.3.8 2.5c.4-.2 2.8-.8 4.9-.8 2.8 0 3.1 1 3.1 3.3v1c-4.3.3-10.6.1-10.6 6.1 0 4 2.4 6 5.4 6s5.1-2.1 5.5-2.5l.3 2.2h4v-11.9c0-2.5 0-4.5-.9-5.8-.8-1.2-2.3-2-5.1-2zm1.5 15c-.3.3-1.6 1.5-3.4 1.5-1.3 0-2.5-.6-2.5-2.7 0-2.5 1.8-3.3 6-3.6v4.8z"/><path d="m105.9 16.6c-3.6 0-7.2 1.5-7.5 1.6l.1.3.8 2.5c.4-.2 2.8-.8 4.9-.8 2.8 0 3.1 1 3.1 3.3v1c-4.3.3-10.6.1-10.6 6.1 0 4 2.4 6 5.4 6s5.1-2.1 5.5-2.5l.3 2.2h4v-11.9c0-2.5 0-4.5-.9-5.8-.7-1.2-2.2-2-5.1-2zm1.5 15c-.3.3-1.6 1.5-3.4 1.5-1.3 0-2.5-.6-2.5-2.7 0-2.5 1.8-3.3 6-3.6v4.8z"/><path d="m202.7 18.6v.3c-.1-.1-.3-.3-.4-.3-1.3-1-2.8-1.9-5.1-1.9-1.9 0-3.6.8-4.6 1.9-1.6 1.8-2.4 4.5-2.4 8.2 0 6.3 3 9.9 7.3 9.9 3.1 0 5.1-2.2 5.5-2.7l.3 2.2h4.2v-17.6-10.8l-4.8.7zm0 12.1c-.5.5-1.8 1.9-3.9 1.9-2.2 0-3.6-1.8-3.6-6 0-4.3 1.5-6 3.7-6 1.8 0 3.1 1 3.7 1.3v8.8z"/><path d="m207.5 7.8h.1z"/><path d="m149.6 18.6v.3c-.1-.1-.3-.3-.4-.3-1.3-1-2.8-1.9-5.1-1.9-1.9 0-3.6.8-4.6 1.9-1.6 1.8-2.4 4.5-2.4 8.2 0 6.3 3 9.9 7.3 9.9 3.1 0 5.1-2.2 5.5-2.7l.3 2.2h4.2v-17.6-10.8l-4.8.7zm0 12.1c-.4.5-1.8 1.9-3.9 1.9-2.2 0-3.6-1.8-3.6-6 0-4.3 1.5-6 3.7-6 1.8 0 3.1 1 3.7 1.3v8.8z"/><path d="m154.4 7.8h.1z"/></g></svg>