<svg enable-background="new 0 0 200 111.1" height="111.1" viewBox="0 0 200 111.1" xmlns="http://www.w3.org/2000/svg"><path d="m0 20.1h90.1v30.3h-90.1z" fill="#e42d2e"/><path d="m0 54.8h2.3l1.2 8.1.1 1.1c.1.6.2 1.2.2 1.8l.2 1.5v.2.4l.1-.6c.1-1 .2-1.9.3-2.7s.2-1.6.3-2.3l1.2-7.5h1.8l1.2 7.3c.2 1.1.3 2.1.4 3s.2 1.8.3 2.6c.1-.9.2-1.7.3-2.6.1-.8.2-1.6.3-2.4l.2-1.2 1-6.8h2.2l-3.1 17.4h-1.8l-1.2-7.5s0-.2-.1-.4c0-.2-.1-.5-.1-.9l-.3-1.7c0-.1 0-.3 0-.6s-.1-.6-.1-1l-.1-.7v.4.3c0 .5-.1.9-.1 1.2s0 .4-.1.5l-.2 1.7c-.1.4-.1.7-.1.9s-.1.4-.1.4l-1.3 7.5h-1.9z"/><path d="m24.2 63.9c0 3.1-.3 5.2-1 6.5s-1.8 1.9-3.4 1.9c-1.7 0-2.9-.7-3.6-2.1s-1-3.8-1-7.2c0-3.1.3-5.3 1-6.6s1.8-1.9 3.5-1.9c1.5 0 2.5.5 3.2 1.5.5.7.8 1.6 1 2.8s.3 2.9.3 5.1zm-2.4.2c0-3-.1-5-.4-6s-.8-1.5-1.7-1.5c-.8 0-1.4.5-1.7 1.4s-.4 2.7-.4 5.5c0 2.5.1 4.3.4 5.3.3.9.8 1.4 1.6 1.4s1.3-.4 1.6-1.3c.4-.9.6-2.4.6-4.8z"/><path d="m27.1 54.8h3.1c1.3 0 2.2.3 2.8.9.8.8 1.2 2 1.2 3.6 0 1.2-.2 2.2-.6 3s-1 1.2-1.8 1.4l3.2 8.4h-2.4l-3.2-8.5v8.5h-2.3zm2.4 7.7c.9 0 1.5-.2 1.9-.6s.6-1.1.6-2.1c0-.5 0-1-.1-1.4s-.2-.7-.4-.9-.4-.4-.7-.5-.6-.2-.9-.2h-.4z"/><path d="m37.4 54.8h2.3v15.4h3.8v2h-6.2v-17.4z"/><path d="m44.8 54.8h2.9c.9 0 1.6.1 2.2.3s1 .5 1.5 1c.7.7 1.1 1.7 1.4 2.8s.4 2.7.4 4.8c0 1.9-.2 3.5-.5 4.7s-.8 2-1.5 2.6c-.8.8-2.4 1.1-4.6 1.1h-1.9v-17.3zm2.4 15.3c1.4 0 2.4-.4 2.9-1.3s.7-2.5.7-5c0-2.7-.2-4.5-.7-5.5s-1.3-1.5-2.6-1.5h-.3z"/><path d="m69 55.1v2.1c-.6-.3-1.1-.4-1.5-.4-.6 0-1 .1-1.4.4s-.7.7-1 1.3-.4 1.3-.6 2.2c-.1.9-.2 1.9-.2 3.1 0 4.3 1.1 6.4 3.3 6.4.4 0 .8-.1 1.4-.4v2.1c-.6.3-1.2.5-1.9.5-3.5 0-5.3-2.9-5.3-8.6 0-3.1.4-5.4 1.3-6.9s2.2-2.3 3.9-2.3c.7-.1 1.4.1 2 .5z"/><path d="m71.6 54.8h2.3v12.2c0 1.3.1 2.1.3 2.5s.7.6 1.4.6 1.1-.2 1.3-.5c.2-.4.3-1.1.3-2.2v-12.6h2.3v12.6c0 1.9-.3 3.2-.9 3.8-.7.8-1.7 1.1-3.2 1.1-1.6 0-2.7-.5-3.3-1.5-.4-.7-.7-1.9-.7-3.8v-12.2z"/><path d="m82.8 54.8h3.1c1.5 0 2.6.4 3.2 1.1.7.8 1 2 1 3.6 0 2.3-.7 3.8-2 4.5-.7.3-1.7.5-3 .5v7.7h-2.3zm2.3 7.6c1 0 1.6-.2 2-.6s.6-1.1.6-2.1-.2-1.8-.5-2.3c-.4-.5-.9-.7-1.7-.7h-.3v5.7z"/><path d="m10.8 25 2.3 15.3h.1l2.4-15.3h4l2.4 15.3h.1l2.3-15.3h4l-3.8 20.8h-4.6l-2.3-15.1h-.1l-2.3 15.1h-4.7l-3.8-20.8z" fill="#fff"/><path d="m32.5 25h4.2v20.8h-4.2z" fill="#fff"/><path d="m42 25h4.2v17.3h7.4v3.4h-11.6z" fill="#fff"/><path d="m56.2 25h4.2v17.3h7.4v3.4h-11.6z" fill="#fff"/><path d="m73.7 39.8c0 .5 0 .9.1 1.3s.2.7.4 1 .5.5.9.6c.4.2.8.2 1.4.2s1.2-.2 1.7-.6.8-1.1.8-1.9c0-.5-.1-.9-.2-1.2s-.3-.6-.6-.9-.7-.5-1.1-.7c-.5-.2-1.1-.5-1.8-.7-.9-.3-1.7-.6-2.4-1s-1.2-.8-1.7-1.3-.8-1.1-1-1.7-.3-1.4-.3-2.3c0-2.1.6-3.6 1.7-4.6s2.7-1.5 4.7-1.5c.9 0 1.8.1 2.6.3s1.5.5 2 1c.6.5 1 1 1.3 1.7s.5 1.6.5 2.5v.6h-4c0-1-.2-1.7-.5-2.3-.3-.5-.9-.8-1.7-.8-.5 0-.9.1-1.2.2s-.6.3-.7.5c-.2.2-.3.5-.4.8-.2.4-.2.7-.2 1 0 .6.1 1.2.4 1.6s.9.8 1.7 1.2l3.2 1.4c.8.3 1.4.7 1.9 1.1s.9.8 1.2 1.2.5.9.6 1.4.2 1.1.2 1.7c0 2.2-.6 3.8-1.9 4.8s-3 1.5-5.3 1.5c-2.4 0-4.1-.5-5.1-1.5s-1.5-2.5-1.5-4.4v-.8h4.2v.6z" fill="#fff"/><path d="m27.4 80.1h3.3v14.4h-1.9v-12.7h-1.4z"/><path d="m39.7 94.5h-2.1l1.4-2.8c.2-.5.5-1 .7-1.6.2-.5.5-1.1.7-1.7-.5.4-1 .6-1.5.6-.9 0-1.5-.3-1.9-1s-.6-1.8-.6-3.2c0-1.7.2-3 .7-3.7.5-.8 1.3-1.1 2.4-1.1s1.9.4 2.4 1.1c.5.8.7 2 .7 3.8 0 1.3-.1 2.5-.4 3.6-.1.5-.3 1.2-.6 1.8-.3.7-.6 1.4-1 2.3l-.8 1.6zm1.1-9.9c0-1.9-.4-2.8-1.2-2.8s-1.2.9-1.2 2.8c0 1 .1 1.7.3 2.1s.5.7.9.7.7-.2.9-.7.3-1.2.3-2.1z"/><path d="m49.3 94.5h-2.1l1.4-2.8c.2-.5.5-1 .7-1.6.2-.5.5-1.1.7-1.7-.5.4-1 .6-1.5.6-.9 0-1.5-.3-1.9-1s-.6-1.8-.6-3.2c0-1.7.2-3 .7-3.7.5-.8 1.3-1.1 2.4-1.1s1.9.4 2.4 1.1c.5.8.7 2 .7 3.8 0 1.3-.1 2.5-.4 3.6-.1.5-.3 1.2-.6 1.8-.3.7-.6 1.4-1 2.3l-.8 1.6zm1.1-9.9c0-1.9-.4-2.8-1.2-2.8s-1.2.9-1.2 2.8c0 1 .1 1.7.3 2.1s.5.7.9.7.7-.2.9-.7.3-1.2.3-2.1z"/><path d="m58.7 80.1h2.1l-1.4 2.8c-.2.5-.5 1-.7 1.6s-.5 1.2-.8 1.8c.5-.4 1.1-.6 1.6-.6.8 0 1.4.3 1.9 1 .4.7.6 1.8.6 3.5 0 1.6-.2 2.7-.7 3.4s-1.3 1-2.3 1c-1.1 0-1.9-.4-2.4-1.1-.5-.8-.7-2-.7-3.8 0-1.5.2-2.9.6-4.2.2-.7.5-1.4.9-2.3.2-.8.7-1.9 1.3-3.1zm1.4 10.1c0-.5 0-.9-.1-1.3 0-.4-.1-.6-.2-.9-.1-.2-.2-.4-.4-.5s-.3-.2-.6-.2c-.2 0-.4.1-.6.2s-.3.3-.4.5-.2.5-.2.9-.1.8-.1 1.3c0 1.9.4 2.8 1.2 2.8 1 0 1.4-.9 1.4-2.8z"/><g fill="#e42d2e"><path d="m119.5 106.2c-.3-.1-.5-.2-.8-.3-.6-.2-1.2-.4-1.8-.6-.7-.2-1.7-.3-2.8-.3-1 0-1.6-.3-2-.5-.2-.1-.3-.2-.6-.2-1.6-.1-2.2-1-2.5-1.5l-.1-.1c-.4-.6-.5-1.3-.5-2.1h-25.3c-.1.3-.2.5-.3 1.3-.2 1.1-.3 1.4-.5 1.8 0 .1-.1.1-.1.3-.2.6-.3 1.1-.3 1.1l-.2 1.2s-.2.4.1.8 1.1.7 1.1 1.2c.1.6.5 1.1.1 1.8-.1.2-.2.5-.3.8h37.5v-4.6c-.1 0-.2-.1-.3-.1-.1.1-.2.1-.4 0z"/><path d="m74.6 109.5c-.1-.1-.1-.2-.2-.3-.6-.9-1.1-1.9-.4-3.8.3-.8.6-1.3.8-1.6 0 0 0 0 0-.1v-.4c0-.4 0-.4-.5-1.3l-.4-.8c-.1-.2-.2-.4-.3-.5h-73.6v10.3h75.8v-.9z"/><path d="m159.1 1.1c-.8-.2-1.6-.3-2.5-.4l.6 31.5z"/><path d="m162.4 1.9c-.6-.2-1.3-.3-2-.5l-2.2 30.2z"/><path d="m165 2.7c-.5-.2-1-.3-1.5-.5l-4.3 29.4z"/><path d="m167.5 3.6c-.5-.2-1-.4-1.5-.6l-5.8 28.9z"/><path d="m141.2.5c-.9.1-1.7.3-2.6.4l13 29.3z"/><path d="m144.4.2c-.6 0-1.1.1-1.7.2l9.6 29.5z"/><path d="m147.1 0c-.6 0-1.2 0-1.8.1l7.8 29.2z"/><path d="m150 0c-.4 0-.9 0-1.3 0-.2 0-.5 0-.7 0l6 29.8z"/><path d="m123.9 6.4c-.5.3-1 .6-1.5.9l22.7 23.1z"/><path d="m127 4.8c-.7.3-1.4.7-2.1 1l20.7 24z"/><path d="m129.7 3.6c-.6.2-1.2.5-1.8.7l18.8 25.2z"/><path d="m132.5 2.6c-.6.2-1.3.4-1.9.7l17 26z"/></g><path d="m175.9 7.8c-.5-.3-1.1-.7-1.6-1l-9.1 26.9z" fill="#ffd530"/><path d="m178.5 9.5c-.5-.3-.9-.7-1.4-1l-11.1 25.2z" fill="#ffd530"/><path d="m180.8 11.3c-.4-.3-.9-.7-1.3-1l-12.6 24z" fill="#ffd530"/><path d="m183 13.2c-.4-.4-.8-.7-1.3-1.1l-13.7 22.6z" fill="#ffd530"/><path d="m189.2 19.8c-.4-.5-.7-1-1.1-1.4l-17.5 20.6z" fill="#ffd530"/><path d="m191 22.3c-.3-.4-.6-.9-.9-1.3l-18.6 18.4z" fill="#ffd530"/><path d="m192.5 24.7c-.3-.4-.6-.9-.8-1.3l-19.6 16.9z" fill="#ffd530"/><path d="m193.9 27.1c-.3-.5-.5-.9-.8-1.4l-20.1 15.3z" fill="#ffd530"/><path d="m198.8 62.7c.1-.5.2-1.1.3-1.6l-29.8-1.4z" fill="#009245"/><path d="m199.3 59.9c.1-.6.2-1.1.3-1.7l-30.1.5z" fill="#009245"/><path d="m199.7 57.1c.1-.5.1-1.1.1-1.6l-29.8 2.2z" fill="#009245"/><path d="m199.9 54c0-.7 0-1.4.1-2.1l-29.9 4.8z" fill="#009245"/><path d="m199.6 45c-.1-.6-.2-1.3-.3-1.9l-28.5 9.3z" fill="#009245"/><path d="m199.1 41.7c-.1-.6-.2-1.1-.3-1.7l-28 11.6z" fill="#009245"/><path d="m198.5 39.2c-.2-.6-.3-1.3-.5-1.9l-27.4 13.4z" fill="#009245"/><path d="m197.7 36.2c-.2-.6-.4-1.3-.6-1.9l-26.7 15z" fill="#009245"/><path d="m180.1 92c.5-.4 1-.8 1.5-1.2l-20.3-21.7z" fill="#e42d2e"/><path d="m182.5 90c.4-.4.9-.8 1.3-1.2l-22-20z" fill="#e42d2e"/><path d="m184.4 88.3c.4-.4.8-.7 1.1-1.1l-23.1-18.5z" fill="#e42d2e"/><path d="m186.4 86.3c.5-.6 1-1.1 1.5-1.7l-24.6-16.6z" fill="#e42d2e"/><path d="m191.9 79.1c.4-.6.8-1.2 1.1-1.8l-27.3-12.4z" fill="#e42d2e"/><path d="m193.6 76.4c.2-.4.4-.8.6-1.2l-28-10.7z" fill="#e42d2e"/><path d="m196 71.4c.3-.6.5-1.2.7-1.8l-28.9-7.2z" fill="#e42d2e"/><path d="m194.7 74.1c.2-.5.5-1 .7-1.5l-28.3-9z" fill="#e42d2e"/><g fill="#2959ae"><path d="m172.8 96.8c.5-.3 1-.6 1.5-.8l-15.8-24.5z"/><path d="m164.4 100.3c.6-.2 1.1-.4 1.7-.6l-11.1-27.1z"/><path d="m167.4 99.3c.5-.2 1-.4 1.5-.6l-12.6-26.5z"/><path d="m170.1 98.1c.5-.2 1-.5 1.6-.7l-14.3-25.5z"/><path d="m156 102.3c.7-.1 1.3-.2 2-.3l-6.7-29.8z"/><path d="m152.5 102.7c.6 0 1.3-.1 1.9-.2l-3.8-29.4z"/><path d="m150 102.8c.5 0 1.1 0 1.6-.1l-1.7-30.6z"/><path d="m146.8 102.8h1.9.1l-.1-30.7z"/><path d="m129.4 99c.6.2 1.2.5 1.8.7l11.2-28z"/><path d="m132 100c.7.2 1.4.5 2 .7l9-28.7z"/><path d="m135.2 101c.7.2 1.3.3 2 .5l6.8-29.3z"/><path d="m138.4 101.8c.6.1 1.3.2 1.9.3l4.3-29.8z"/></g><path d="m120.6 20.4c2.4 1.7 19.5 12.9 20.5 12.9.5 0 .3-1.1.2-1.6s-7.4-6.1-12.6-10.7c-5.3-4.6-11.2-10-11.9-10.3s-1.5 0-1.7 1.3.4 2.2.6 3 2.6 3.7 4.9 5.4z"/><path d="m107.6 81.2c-.7-.4-1.4-1-1.4-1s.6-.7.6-1.7.2-1.7-.3-2-.8-.4-.8-.4 0 .8-.3 1.4c-.3.7-.5 1.2-1.2 2-.8.8-1.4.9-2 1s-.7-.3-1.8.6-1.1 1.1-1.8 2 .2.7-1.4 1.1c-1.6.5-1.4.2-3.1 1.1s-2.1.9-3.2 1.8c-1.1 1-1 1.1-2.1 1.8s-1.3.5-2.5 1.4c-1.1 1-1.3 1.4-2.1 1.5s-.9-.5-.3-1.4c.6-1 .1-.9 2.1-2.6s1.9-1.9 3.7-3 2.1-.9 3.5-1.8 3.1-2.9 3.8-4 1.7-2.3 2.1-3.6 1.2-1.8 1.3-3.3.5-2.5.4-3.7 0-2.6.6-3.3.7-.9 1.1-1.1.8-.6.8-.6-1.1-.2-1.7.2-1.2.8-1.7 1.8c-.5 1.1-.6 1.1-.6 2.7 0 1.5 0 2.2-.3 3.3s-.5 2.1-1.1 3.2c-.7 1.1-.4 1.7-1.9 3.3s-2.2 2.9-3.4 3.5c-1.2.7-2.6 1-3.4 1.6-.9.7-1.2.7-2.9 1.8-1.6 1.1-1.9 1.4-2.6 2.4s-.7 1-1.3 2.3c-.7 1.3-1.2 2-1.2 2-.7 1.2-1.4 1.3-3 1.6-1.5.3-1.4.6-2.4 1.1s-1.4 2-1.4 3.2c0 1.1.3 1.6 1.1 3.3.9 1.7.8 1.4.9 2.6.1 1.1-.4.9-1 2.4s0 1.9.5 2.7 1.2.8 2.5 1.1c1.2.3 2.1.5 2.1.5s-1.1-1-1.3-1.2c-.3-.3-.5-.2-1.1-.7s-1.3-.5-1.3-1.2.4-.8.8-1.9 0-2.2-.1-3.4-1-1.9-1.3-2.6c-.4-.7-.2-2 .3-2.7s1-.5 1-.5 0 .3.1 1.2c.1 1 .8 1 .8 1s.2-1 .3-1.5c.1-.6.5-1.1 1-1.2s2-.2 3.2-.7c1.1-.5 1.7-.7 2.6-1.3 0 0 1-.8 2.8-2s2.4-1.5 3.5-2.9c1.1-1.3 1.7-1.7 3.6-2.5s2.7-.4 3.7-.7c1.1-.3 1.4-1.6 1.7-2.2s1.1-1.1 2-1.1c1 0 2.5-.5 3.1-.6s.6.1.9.8.1 1.3-.6 2.1-2.4 1.9-5 3.3c-2.6 1.3-3.6 1.6-5.5 2.8-1.9 1.1-2.7 1.2-4.5 2.2s-2.3 1.1-3.5 1.3c-1.6.2-2.3 1.3-3.6 2.3s-1.9.8-2.6 1.8c-.7 1.1-1.1 1.1-1.6 1.8s-.1.7.5 1.5-.2 1.1-.6 2.4.9 1.2.9 1.2.1-.7.4-1.4c.3-.8.3-.3.6-1.8s.5-1.6.9-2.4 2.2-1.6 3.4-2 2.2-1.1 3.5-2 1.6-.7 3.3-1.3c1.5-.6 1.7-.3 3.2-1.2s1.6-1.1 3.3-2.1 2.8-1.5 4.8-2.6 2.6-.8 3.5-1.7c1-1 1.6-1.5 1.2-2.9-.8-1.2-.5-1.8-1.2-2.2z"/><path d="m123.2 66.6c-.4-.1-1.3.3-1.6.9s.5 1.3 1.6 2.5c1.1 1.1-.2 3-.9 4.2s-.9 3-1.2 4.4-.9 2-1.1 4.2-.7 3.2-.9 5.4-.2 1.2-.7 2.3-.3 1.1-.5 3.3c-.2 2.3-.2.7-.6 1.6s-.3 2.2-.3 2.2.1 1.3.2 1.6c.3.9.2 1.2 1 1.4s1.8.6 2.1.8 2 .7 2.5 1.2c.5.6.6 1.2.5 1.6s-1.1.4-2.3-.1c-1.1-.5-1.6-.6-3.1-1.1-1.4-.5-1.4-.8-2.8-.9-1.3-.1-2.4-.2-3-.5s-1 .1-1.1-1-.2-1.7-.2-1.7-.4.3-.7 1-.4 1.5-.1 1.9.5.9 1.5 1c1.1.1 1.2.7 2.4.7s2.3.1 3.2.3 1.8.6 2.7.9.5.4 1.8.5 1.7.6 2.2 0 .6-.7.5-1.5c-.1-.9.2-1.5-1-2.1-1.1-.6-1.3-.9-2.8-1.4s-2.5-.5-2.7-1.1c0 0 0-.8 0-1.4s.2-.8.6-1.7c.4-1 1.1-1.5 1.5-3.4.5-1.9.5-2.1.9-3.5s.3-1.7.4-3.4.6-1.8.9-3.5.3-1.1.6-3.3.5-2.7.9-4 .9-1.6 1.1-3.3.1-1.6 0-3.2c0-1.8-1.1-1.7-1.5-1.8z"/><path d="m112.5 83.4c-.5 1.4-.2 2-.6 3.6s0 .7.4 2.1 0 1-.1 2.1 0 .6.5 2.1.1 1-.3 2.1.1 1.1.1 1.1.7-.6 1.2-2.7c.6-2.1-.3-1.9-.3-3.5s-.1-1.2.1-3.3.7-2.1 1.1-3.3c.4-1.1.7-1.5 1.5-2.6.9-1.1 1-1.8 1-3.4s-.5-2-.7-2.6-1-1.2-1-1.2.1 1.3.1 3-.8 2-1.3 3.5c-.5 1.6-1.2 1.5-1.7 3z"/><path d="m110.9 72.4c.3-.9-.1-1.5-.5-2.2s-.1-1.1-1.1-2.2-1.6-.1-1.6-.1.6.1.9.2.2.3.5 1.6.6.8 1.1 1.6-.3 1.2-1.2 1.4-.8.2-1.5 1.1c-.8.9-.3 1.2-.3 1.2s.7-.1 2-.8c1.2-.6 1.4-1 1.7-1.8z"/><path d="m105.6 59.9c.8 1.1 1.9 1.2 1.9 1.2s-.3-1.1-1.1-1.6c-.9-.6-.4-1.6-.5-2.6s0-1.5.8-2.8c.8-1.2.9-1.5 2-3.3s1.2-2.4 1.2-3.1.5-2.5.5-3.5c0-1.1.4-.8 1.1-1.1.8-.4.7-.7 1.4-1.9.8-1.2.8-1.4 1.7-2.5 1-1.1.8-.5 1.5-.7.8-.2.9 0 1.1-.8.3-.8.3-1.4.7-2.2s1.2-.4 1.7-.2.4.9.3 1.8c-.1 1-.4.3-1.3 1.1-1 .8 0 1.1.7 1.1.7-.1.6-.6 1.1-.6s1.6 1.1 1.7 1.8c.1.8-.5.6-1.4 1.1-1 .6-1.3.5-2 1s-.7 1.8.7 1.6c1.3-.2 2.6-1.2 3.4-1.5.9-.3 1.4 1.1 1.9 1.5.5.5 1.1-.2 1.8-.9s1.3-.5 2.8-1c1.4-.5 1.5-1.1 2.1-2.2s.5-2.5.6-4.8-2.2-3.8-3.4-4.4-3.6-.8-5.1-.4c-1.4.4-1.8 1.1-2.6 2-.8 1-1.3.8-2.7 1.1-1.3.4-1.4.8-2.5 1.5-1.1.8-1.8 1.6-2.9 3.4s-1.6 1.1-2 1.7-1.3.8-2 1.2c-.7.5-.1 1.1-.1 2.5s-.1 1.1-.4 2.3c-.3 1.1-.2.9-.2 2.3s-.9 2-2 3.2c-1.1 1.1-1.2 1.1-2 2.5s-.2 1.9.3 3.4c.6 2 .5 1.8 1.2 2.8z"/><path d="m140.5 37.8c-.8.4-.4.2-.8 1.1s-.8.8-1.1 1.4-.1 1-.2 2.1-.3 1.2-.6 2.1-.2 1.1-.6 2.3c-.4 1.1-1.9 1.3-3.3 2s-1.4.2-4.2.6-1.8.2-3.7 1-2.9.3-4.8.9-1.7.6-2.5 1.4-.8 1.2-.8 2.7c0 1.4 0 1.7-.1 3.1-.1 1.3-1.1 1.7-1.1 1.7s-.7.8-.8 1.7c-.1 1-.3.6-.7 1.1s0 .9 1 1.2c1 .4.8.7 2 .7s2 .5 2 .5-.5-1-.9-1.1-.5-.2-1.1-.3-.6-.9-.5-1.6c.1-.8.1-1.4.5-2.2s.3-2.1.2-3 .7-1.6 1.3-2.4c.7-.8 1.4-1.3 2.8-1.5 1.3-.2 1.9-.3 3.6-.9s2.7-.4 4.6-.8 1.9-.5 2.8-.8 1.4-.4 2.3-1.2c.9-.9 1.4-1.1 2.3-1.8s.8-1.8 1.1-3.1.2-1.3.5-2.6c.3-1.2.4-.8 1-1.5.6-.8.5-1 .7-1.9s-.1-1.3-.9-.9z"/></svg>