<svg enable-background="new 0 0 213.6 207.4" height="207.4" viewBox="0 0 213.6 207.4" xmlns="http://www.w3.org/2000/svg"><path d="m178.8 130.2c-1.6 0-3.1-.2-4.6-.5-.4-.1-.8-.2-1.2-.3-.1 0-.1 0-.2-.1-.3-.1-.7-.2-1-.3h-.1c-.4-.1-.7-.2-1.1-.4-.4-.1-.8-.3-1.1-.5-8-3.6-13.6-11.7-13.6-21 0-10.1 6.5-18.6 15.5-21.7.4-.1.8-.3 1.2-.4h.1c.4-.1.8-.2 1.1-.3h.1c.4-.1.8-.2 1.1-.2h.1c.4-.1.8-.1 1.2-.2.9-.1 1.7-.2 2.6-.2 12.7 0 23 10.3 23 23-.1 12.8-10.5 23.1-23.1 23.1z" fill="#fff"/><path d="m23 50.8c.4.3.7.5 1 .9.3.3.5.7.6 1.1s.2.8.2 1.2 0 .9-.1 1.3c.2-.2.5-.4.8-.6s.6-.2.9-.3c.3 0 .6 0 1 .1.3.1.7.2 1 .5.3.2.6.5.9.8s.5.7.7 1c.2.4.3.8.4 1.3s.1 1 0 1.5c-.1.6-.2 1.1-.4 1.7s-.6 1.3-1.1 2l-2.3 3.4c-.2.3-.4.4-.6.4s-.4-.1-.7-.3l-9.3-9.3c-.2-.2-.4-.5-.4-.8s.1-.5.2-.7l2-3c.4-.7.9-1.2 1.3-1.6s.9-.7 1.3-.9.9-.3 1.3-.2c.4 0 .9.2 1.3.5zm-1.3 2.9c-.2-.1-.4-.2-.5-.2-.2 0-.4 0-.5.1-.2.1-.4.2-.5.3-.2.2-.4.4-.6.7l-.9 1.4 2.8 2.8 1-1.4c.3-.4.4-.8.5-1.2s0-.7-.1-1-.2-.6-.4-.8c-.3-.3-.5-.5-.8-.7zm5 4c-.4-.3-.8-.3-1.3-.2-.4.1-.9.5-1.3 1.2l-1.1 1.7 3.1 3.1 1.2-1.8c.3-.5.5-.9.6-1.3s.1-.8 0-1.1-.2-.6-.4-.9c-.3-.3-.5-.5-.8-.7z"/><path d="m29.6 39.2s.1.1.2.2.2.2.3.3.2.2.3.4c.1.1.2.3.2.4.1.1.1.2.1.4 0 .1 0 .2-.1.3l-3.5 4 2.3 2.9 3-3.4c.1-.1.2-.1.2-.1.1 0 .2.1.3.2 0 0 .1.1.2.2l.3.3c.1.1.2.2.3.4.1.1.2.2.2.4.1.1.1.2.1.3s0 .2-.1.3l-3 3.4 2.6 3.4 3.5-4.1c.1-.1.1-.1.2-.1s.2.1.3.2c0 0 .1.1.2.2l.3.3s.2.2.3.4c.1.1.2.3.2.4.1.1.1.2.1.4 0 .1 0 .2-.1.3l-4.9 5.7c-.1.1-.2.2-.3.2-.1.1-.2.1-.3.1s-.2 0-.3-.1-.2-.2-.3-.3l-8.2-10.5c-.2-.3-.3-.5-.3-.8s.1-.5.3-.7l4.9-5.6c.1-.5.2-.5.5-.3z"/><path d="m48.3 40.4c.1.2.2.3.2.5v.5c0 .1-.1.3-.2.4s-.2.2-.3.3l-1 .9c-.2.2-.4.3-.6.4s-.3.1-.5.1-.4-.1-.6-.2-.5-.3-.8-.5l-6.1-3.5c-.5-.3-.9-.6-1.4-.9s-.9-.6-1.3-.9c.3.5.7 1 1 1.5s.6 1 .9 1.6l3.9 6.7c0 .1.1.1.1.2s0 .2-.1.3-.2.2-.3.4c-.1.1-.3.3-.5.5s-.4.3-.5.4-.3.2-.4.2-.2 0-.2 0c-.1 0-.1-.1-.1-.2l-6.9-11.9c-.2-.3-.2-.6-.2-.9.1-.3.2-.6.4-.8l1.2-1c.2-.2.4-.3.5-.4.2-.1.4-.1.5-.1.2 0 .4.1.6.1.2.1.4.2.7.4l6.1 3.6c.4.2.8.5 1.1.7.4.2.7.5 1.1.7-.3-.5-.6-1-.9-1.5s-.6-1-.9-1.5l-3.6-6.2c0-.1-.1-.1-.1-.2s0-.2.1-.3.2-.2.3-.3.3-.3.5-.5.4-.3.5-.4.3-.2.4-.2h.2c.1 0 .1.1.2.1z"/><path d="m51.6 22.7c0 .1.1.1.1.2.1.1.1.2.2.3s.1.3.2.4.1.3.1.4v.3c0 .1 0 .2-.1.2-.1.1-.2.1-.4.1s-.4 0-.7.1c-.3 0-.5.1-.9.2-.3.1-.6.3-1 .5-.3.2-.6.5-.8.7-.2.3-.3.5-.3.8v.8c.1.2.2.5.3.7.2.2.3.4.6.5.2.1.5.2.8.2h1c.3 0 .7 0 1-.1h1.1c.4 0 .7.1 1.1.2s.7.3 1 .5.6.6.9 1c.4.6.7 1.2.8 1.9s.1 1.4-.1 2c-.2.7-.5 1.3-1 2-.5.6-1.1 1.2-1.9 1.7-.4.3-.8.5-1.2.7s-.8.3-1.1.4-.6.1-.9.2c-.3 0-.5 0-.6 0-.2 0-.3-.1-.4-.3 0-.1-.1-.1-.1-.2-.1-.1-.1-.2-.2-.4-.1-.1-.1-.3-.2-.4s-.1-.3-.1-.4 0-.2 0-.3 0-.2.1-.2c.1-.1.3-.1.5-.1s.5 0 .8-.1c.3 0 .6-.1 1-.2s.8-.3 1.2-.6.7-.5.9-.8.4-.6.5-.9.1-.6 0-.9c0-.3-.2-.6-.3-.8-.2-.2-.4-.4-.6-.5s-.5-.2-.8-.2-.6 0-.9 0-.7 0-1 .1c-.4 0-.7 0-1.1 0s-.7-.1-1.1-.2c-.3-.1-.7-.3-1-.5s-.6-.6-.9-1c-.4-.6-.6-1.2-.7-1.8s-.1-1.3.1-1.9.5-1.2.9-1.8 1-1.1 1.7-1.6c.3-.2.6-.4 1-.5.3-.1.6-.3.9-.3.3-.1.5-.1.8-.2h.5c.1 0 .2.1.3.1-.1-.2-.1-.1 0 0z"/><path d="m67.8 18.8c.3.6.6 1.3.8 2s.4 1.5.5 2.3.1 1.6 0 2.4-.3 1.6-.7 2.4c-.3.8-.8 1.5-1.5 2.1s-1.5 1.2-2.4 1.7c-.8.4-1.6.7-2.4.8-.7.1-1.4.1-2-.1s-1.2-.5-1.7-1-1-1.1-1.4-1.9c-.3-.7-.6-1.4-.8-2.1-.2-.8-.4-1.6-.5-2.4s-.1-1.6 0-2.4.3-1.6.7-2.4c.3-.8.8-1.5 1.5-2.1.6-.6 1.4-1.2 2.4-1.7.8-.4 1.6-.7 2.4-.8.7-.1 1.4-.1 2 .1s1.2.5 1.7 1c.6.7 1 1.3 1.4 2.1zm-2.7 1.7c-.2-.4-.4-.8-.7-1.1s-.6-.5-.9-.6-.7-.2-1.1-.1c-.4 0-.8.2-1.3.4-.6.3-1.1.7-1.4 1.1-.3.5-.6 1-.8 1.5s-.2 1.1-.2 1.7.1 1.2.2 1.7c.1.6.2 1.1.4 1.6s.3.9.5 1.3.4.8.7 1.1.6.5.9.6.7.2 1.1.1c.4 0 .8-.2 1.3-.4.6-.3 1.1-.7 1.4-1.1s.6-.9.7-1.5c.2-.5.2-1.1.2-1.7s-.1-1.2-.2-1.7c-.1-.6-.2-1.1-.4-1.6-.1-.5-.3-.9-.4-1.3z"/><path d="m83.5 23.3v.5c0 .2-.1.3-.2.4s-.2.2-.3.3-.3.1-.4.2l-1.2.4c-.3.1-.5.1-.7.1s-.4 0-.5-.1c-.2-.1-.3-.2-.5-.4s-.4-.5-.6-.8l-4-5.8c-.3-.4-.6-.9-.9-1.4s-.6-.9-.8-1.4c.1.6.2 1.2.3 1.8s.1 1.2.2 1.8l.7 7.8v.2c0 .1-.1.1-.2.2s-.2.1-.4.2-.4.1-.6.2c-.3.1-.5.1-.6.2-.2 0-.3 0-.4 0s-.2 0-.2-.1-.1-.1-.1-.2l-1.3-13.7c0-.4 0-.7.2-.9s.4-.4.7-.5l1.3-.3c.2-.1.5-.1.7-.1s.4 0 .5.1c.2.1.3.2.5.4.1.2.3.4.5.6l4.1 5.8c.3.4.5.7.8 1.1.2.4.5.7.7 1.1-.1-.6-.2-1.1-.2-1.7-.1-.6-.1-1.2-.2-1.7l-.7-7.2c0-.1 0-.2 0-.2 0-.1.1-.1.2-.2s.2-.1.4-.2.4-.1.6-.2c.3-.1.5-.1.7-.2h.4c.1 0 .2 0 .2.1 0 0 .1.1.1.2z"/><path d="m100.4 20.9c-.7.5-1.5.9-2.3 1.3-.9.4-1.8.6-2.9.6-.7.1-1.4 0-2-.1s-1.2-.3-1.6-.6c-.5-.3-.8-.6-1.1-1.1-.3-.4-.4-1-.5-1.5 0-.5 0-.9.1-1.4s.3-.9.6-1.4c.3-.4.7-.9 1.1-1.3.5-.4 1.1-.8 1.8-1.3-.2-.3-.4-.6-.6-.9s-.3-.6-.4-.8c-.1-.3-.2-.5-.2-.7s-.1-.4-.1-.5c0-.3 0-.5 0-.9 0-.3.1-.6.2-.9s.3-.6.5-.9.5-.6.9-.8.8-.4 1.4-.6c.5-.2 1.2-.3 1.9-.3.8-.1 1.5 0 2.1.1s1.1.3 1.4.5c.4.2.6.5.8.8s.3.7.3 1c0 .5 0 .9-.1 1.3s-.4.9-.7 1.3-.8.9-1.4 1.3c-.6.5-1.3.9-2.2 1.4.2.3.4.6.7.8.2.2.4.5.6.7s.4.5.7.7c.2.2.5.5.7.7.3-.4.5-.8.7-1.2s.3-.8.3-1.1c.1-.3.1-.5.1-.7 0-.1 0-.2.1-.3 0-.1.1-.1.2-.2.1 0 .2-.1.4-.1s.4-.1.7-.1h1c.2 0 .3.1.3.3 0 .1 0 .4-.1.7s-.1.7-.2 1c-.1.4-.2.7-.4 1.1s-.3.8-.5 1.1-.4.7-.6.9c.4.3.7.5 1 .7.3.1.5.2.7.2s.3 0 .3.1c.1.1.1.2.1.3v.4c0 .2 0 .4-.1.5 0 .2-.1.4-.1.5 0 .2-.1.3-.2.4s-.2.1-.3.2c-.2.1-.3.1-.5.1-.1 0-.3 0-.5-.1-.2 0-.4-.1-.6-.2s-.5-.2-.8-.4c-.1-.1-.4-.4-.7-.6zm-5.4-4.9c-.3.2-.6.4-.9.7-.3.2-.5.5-.6.7-.2.2-.3.5-.3.7-.1.3-.1.5-.1.8 0 .2.1.4.2.6s.2.4.4.5.4.3.8.3c.3.1.7.1 1.1.1.2 0 .5-.1.7-.1.2-.1.5-.1.7-.2s.5-.2.7-.3.4-.3.6-.4c-.3-.3-.6-.5-.9-.8s-.6-.5-.8-.8c-.3-.3-.5-.6-.8-.9s-.6-.6-.8-.9zm1.2-3.2c.6-.3 1.1-.6 1.5-.9s.7-.5.9-.8c.2-.2.3-.5.4-.7s.1-.4.1-.6c0-.1 0-.2-.1-.3s-.1-.2-.3-.3-.4-.2-.6-.2-.4-.1-.7 0c-.4 0-.8.1-1 .3-.3.1-.5.3-.6.5s-.2.4-.3.6c0 .2-.1.4-.1.6 0 .1 0 .2.1.4 0 .1.1.3.1.4.1.2.1.3.2.5.1.1.2.3.4.5z"/><path d="m121.8 23.4c0 .1-.1.1-.1.2-.1.1-.2.1-.3.1s-.3 0-.5 0-.4 0-.7-.1c-.3 0-.5-.1-.7-.1s-.3-.1-.4-.2-.2-.1-.2-.2 0-.1 0-.2l2.1-5.8-5.5-.8-2.1 5.8c0 .1-.1.1-.1.2-.1.1-.2.1-.3.1s-.3 0-.5 0-.4 0-.7-.1c-.3 0-.5-.1-.7-.1s-.3-.1-.4-.2-.2-.1-.2-.2 0-.1 0-.2l4.8-13.6c0-.1.1-.1.1-.2.1-.1.2-.1.3-.1h.5c.2 0 .4 0 .7.1.3 0 .5.1.7.1s.3.1.4.2.2.1.2.2v.2l-1.9 5.3 5.5.8 1.9-5.3c0-.1.1-.1.1-.2.1-.1.2-.1.3-.1h.5c.2 0 .4 0 .7.1.3 0 .5.1.7.1s.3.1.4.2.2.1.2.2v.2z"/><path d="m139 13.5s0 .1-.1.2c0 .1-.1.2-.2.4-.1.1-.1.3-.2.4s-.2.3-.3.4-.2.2-.3.2c-.1.1-.2.1-.3 0l-5.1-1.5-1.7 3.3 4.4 1.3c.1 0 .2.1.2.2v.3c0 .1 0 .1-.1.2 0 .1-.1.2-.2.4-.1.1-.1.3-.2.4s-.2.2-.3.3-.2.2-.3.2c-.1.1-.2.1-.3 0l-4.3-1.3-2 3.8 5.2 1.5c.1 0 .1.1.2.2v.4c0 .1 0 .1-.1.2 0 .1-.1.2-.2.4-.1.1-.1.3-.2.4s-.2.2-.3.4c-.1.1-.2.2-.3.2-.1.1-.2.1-.3 0l-7.2-2.1c-.1 0-.2-.1-.3-.1-.1-.1-.2-.1-.2-.2s-.1-.2 0-.3c0-.1.1-.3.1-.4l6.1-11.8c.2-.3.4-.5.6-.6s.5-.1.7 0l7.1 2.1c.4 0 .5.2.4.5z"/><path d="m150.6 24c-.2.4-.4.9-.7 1.3s-.6.9-.9 1.3-.7.8-1.1 1.2-.9.7-1.4 1-1.1.5-1.7.7-1.2.3-1.9.3-1.4 0-2.2-.2-1.6-.4-2.6-.9l-3.5-1.6c-.1-.1-.2-.1-.3-.2s-.2-.2-.2-.3 0-.2 0-.3.1-.3.2-.4l7.7-10.8c.2-.3.4-.5.7-.5.3-.1.5 0 .8.1l3.3 1.5c1.1.5 1.9 1 2.6 1.5.6.5 1.1 1.1 1.4 1.8.3.6.4 1.3.4 2 0 1-.2 1.7-.6 2.5zm-3-.9c.2-.4.3-.9.4-1.3s0-.8-.1-1.2-.4-.8-.7-1.1-.9-.7-1.6-1l-1.4-.6-6 8.5 1.5.7c.7.3 1.4.5 2 .6.6 0 1.1 0 1.7-.1.5-.1 1-.4 1.5-.6.5-.3.9-.6 1.2-1 .4-.4.7-.8 1-1.2 0-.8.3-1.3.5-1.7z"/><path d="m165.9 29.3c0 .1-.1.1-.2.2s-.2.2-.3.3-.2.2-.3.3-.2.2-.3.2c-.1.1-.2.1-.3.1s-.2 0-.2 0c-.1-.1-.2-.2-.3-.4s-.3-.5-.4-.8c-.2-.3-.5-.7-.8-1-.3-.4-.8-.7-1.3-1.1-.6-.4-1.1-.6-1.7-.7s-1.1-.2-1.7-.2-1.1.1-1.6.3-1 .4-1.5.7-.9.6-1.3 1-.7.8-1 1.3-.5 1-.6 1.4c-.1.5-.1.9 0 1.3s.3.8.6 1.2.7.7 1.2 1c.3.2.7.4 1 .5.4.1.7.2 1.1.3l2.5-2.5-2.4-1.5c-.1-.1-.1-.1-.1-.2s0-.2.1-.3c0-.1.1-.1.2-.2s.2-.2.3-.3.2-.2.3-.3.2-.2.3-.2c.1-.1.2-.1.3-.1h.3l4.2 2.7c.2.1.3.3.3.5s-.1.4-.3.6l-4.3 4.4c-.1.1-.2.2-.3.3s-.2.1-.3.1-.3 0-.7 0c-.3-.1-.7-.2-1.2-.3-.4-.1-.9-.3-1.4-.5s-1-.5-1.5-.8c-.9-.6-1.6-1.2-2.2-1.8-.6-.7-.9-1.3-1.1-2s-.2-1.4-.1-2.2.5-1.5 1-2.3c.5-.7 1-1.3 1.6-1.9s1.2-1.1 1.9-1.5 1.4-.7 2.2-1c.8-.2 1.6-.3 2.4-.3s1.7.1 2.5.4c.9.3 1.7.7 2.6 1.2.5.3.9.6 1.3 1 .4.3.7.7 1 1s.5.6.6.9.2.5.3.6v.3c-.2.1-.3.2-.4.3z"/><path d="m176.4 36.8s-.1.1-.2.2-.2.2-.3.3-.2.2-.4.3c-.1.1-.3.2-.4.2-.1.1-.2.1-.4.1-.1 0-.2 0-.3-.1l-4.1-3.5-2.9 2.3 3.4 2.9c.1.1.1.1.1.2s-.1.2-.2.3c0 0-.1.1-.2.2s-.2.2-.3.3-.2.2-.4.3c-.1.1-.2.2-.4.2-.1.1-.2.1-.3.1s-.2 0-.3-.1l-3.4-2.9-3.4 2.6 4.1 3.5c.1.1.1.1.1.2s-.1.2-.2.3c0 0-.1.1-.2.2s-.2.2-.3.3-.2.2-.4.3c-.1.1-.2.2-.4.2-.1.1-.2.1-.4.1-.1 0-.2 0-.3-.1l-5.7-4.9c-.1-.1-.2-.2-.2-.3-.1-.1-.1-.2-.1-.3s0-.2.1-.3.2-.2.3-.3l10.5-8.2c.3-.2.5-.3.8-.3s.5.1.7.3l5.7 4.8c.5.2.5.4.3.6z"/><path d="m183.2 45.2s-.1.1-.2.2-.2.1-.3.2-.2.2-.4.2c-.1.1-.3.1-.4.2-.1 0-.2.1-.3.1s-.2 0-.2-.1c-.1-.1-.1-.2-.2-.4 0-.2-.1-.4-.2-.6s-.2-.5-.3-.8-.4-.6-.6-.9c-.3-.3-.6-.5-.9-.7-.3-.1-.6-.2-.8-.2-.3 0-.5 0-.7.1s-.4.2-.6.4-.3.4-.4.7c-.1.2-.1.5 0 .8 0 .3.1.6.2.9s.2.7.2 1c.1.3.1.7.2 1.1v1.1c-.1.4-.2.7-.3 1.1-.2.4-.4.7-.8 1-.5.5-1.1.9-1.8 1.1s-1.3.3-2 .2-1.4-.3-2.1-.7-1.4-.9-2-1.6c-.3-.4-.6-.7-.9-1.1-.2-.4-.4-.7-.6-1-.1-.3-.2-.6-.3-.9-.1-.2-.1-.5-.1-.6 0-.2.1-.3.3-.5 0 0 .1-.1.2-.2s.2-.1.3-.2.3-.2.4-.2c.1-.1.3-.1.4-.2.1 0 .2-.1.3-.1s.2 0 .2.1c.1.1.2.2.2.5 0 .2.1.5.2.8s.2.6.4 1 .4.7.8 1.1c.3.3.6.6.9.8s.6.3.9.3.6 0 .9-.1.5-.3.8-.5c.2-.2.3-.4.4-.7.1-.2.1-.5.1-.8s-.1-.6-.2-.9-.2-.7-.2-1c-.1-.3-.1-.7-.2-1.1 0-.4 0-.7 0-1.1.1-.4.2-.7.4-1.1s.5-.7.8-1.1c.5-.5 1.1-.8 1.7-1s1.2-.3 1.9-.2c.6.1 1.3.3 1.9.6s1.2.8 1.8 1.4c.3.3.5.6.7.9s.4.6.5.8c.1.3.2.5.3.7s.1.4.1.5 0 .2-.1.3c-.2.2-.2.3-.3.4z"/><path d="m34.7 171.1c-.2.1-.4.1-.5.1-.2 0-.3-.1-.4-.2s-.3-.2-.5-.4-.4-.4-.6-.7c-.3-.3-.5-.6-.6-.8-.2-.2-.3-.4-.3-.5-.1-.1-.1-.3 0-.4 0-.1.1-.2.2-.3l7.1-6.4-10 2.7c-.2.1-.4.1-.5.1s-.3 0-.4-.1-.3-.2-.5-.4-.4-.4-.6-.8c-.3-.4-.5-.7-.7-.9s-.3-.4-.3-.6c-.1-.2 0-.3 0-.4.1-.1.2-.2.3-.4l9.7-8.9c.2-.2.3-.3.5-.4.1-.1.3-.1.4-.1s.3.1.4.3.3.4.6.7c.2.2.4.5.5.6.1.2.2.3.2.4v.3c0 .1-.1.2-.2.2l-8.7 7.4 12-3.2c.2 0 .3-.1.4-.1s.2 0 .4.1c.1.1.3.2.4.3.1.2.3.4.6.6.2.3.4.5.5.7s.2.3.2.4v.3c-.1.1-.1.2-.3.3l-8.5 7.6 12.1-3.4c.1 0 .2-.1.3 0s.2 0 .3.1.2.2.4.3c.1.2.3.4.5.6.2.3.4.5.5.6.1.2.1.3.1.4s-.1.2-.3.3-.4.1-.7.2z"/><path d="m57.1 178c-.4.5-.9 1.1-1.5 1.6s-1.2 1-1.9 1.5c-.7.4-1.4.8-2.2 1.1s-1.6.4-2.4.5c-.8 0-1.7-.1-2.6-.4s-1.8-.8-2.6-1.4c-.7-.6-1.3-1.2-1.8-1.8-.4-.6-.7-1.2-.8-1.9-.1-.6-.1-1.3.1-2s.6-1.4 1.1-2.1c.4-.6 1-1.1 1.5-1.7.6-.5 1.2-1 1.9-1.5.7-.4 1.4-.8 2.2-1 .8-.3 1.6-.4 2.4-.4s1.7.1 2.5.4c.9.3 1.7.8 2.6 1.4.7.6 1.3 1.2 1.8 1.8.4.6.7 1.2.8 1.9.1.6.1 1.3-.1 2-.1.5-.5 1.2-1 2zm-2.7-1.8c.3-.4.5-.7.7-1.1s.2-.7.2-1.1c0-.3-.1-.7-.3-1s-.5-.7-1-1c-.5-.4-1.1-.7-1.6-.8-.6-.1-1.1-.1-1.7 0s-1.1.3-1.6.6-1 .6-1.5.9-.9.7-1.2 1.1c-.4.4-.7.7-.9 1-.3.4-.5.7-.7 1.1-.1.4-.2.7-.2 1.1 0 .3.1.7.4 1 .2.3.5.7 1 1 .5.4 1.1.7 1.6.8.6.1 1.1.1 1.7 0 .5-.1 1.1-.3 1.6-.5l1.5-.9c.5-.3.9-.7 1.2-1.1.2-.4.5-.8.8-1.1z"/><path d="m69.3 182.3c-.2.4-.5.8-.9 1.2-.3.4-.7.7-1.2.9s-1 .4-1.6.5-1.2.1-1.9-.1c.3.3.4.7.4 1.2s-.1 1.1-.3 1.9l-.9 3c-.1.2-.1.3-.1.4s-.1.2-.1.3-.1.1-.2.1-.2 0-.3 0-.3-.1-.5-.2-.5-.2-.8-.4-.5-.3-.7-.4-.3-.2-.4-.3-.1-.2-.1-.2c0-.1 0-.2 0-.2l1-3.2c.1-.4.2-.7.3-1 0-.3 0-.6 0-.8-.1-.2-.2-.5-.3-.7-.2-.2-.4-.4-.7-.5l-.8-.4-3.7 4.5c0 .1-.1.1-.2.1s-.2 0-.3 0-.3-.1-.5-.2-.4-.2-.7-.3-.5-.3-.6-.4c-.2-.1-.3-.2-.4-.3s-.1-.2-.1-.2c0-.1 0-.1.1-.2l8.8-10.8c.2-.3.4-.4.7-.5.3 0 .5 0 .8.1l3.5 1.9c.6.3 1.2.7 1.6 1.1s.8.8 1 1.2.3.9.3 1.3c.2.6.1 1.1-.2 1.6zm-3.1-1c.1-.2.2-.4.2-.6s0-.4-.1-.6-.2-.4-.4-.6-.5-.4-.8-.5l-1.5-.8-2.7 3.4 1.3.7c.5.3 1 .4 1.4.5.4 0 .8 0 1.2-.1.3-.1.6-.3.9-.5.1-.4.3-.6.5-.9z"/><path d="m74 194.2c0 .1-.1.1-.1.2-.1.1-.1.2-.2.4-.1.1-.2.3-.3.4s-.2.3-.3.4-.2.2-.3.2c-.1.1-.2.1-.3 0l-6.4-2.4c-.1 0-.2-.1-.3-.2s-.1-.2-.2-.3c0-.1 0-.2 0-.3s.1-.3.2-.4l7.3-11.8c0-.1.1-.1.2-.2.1 0 .2-.1.3 0 .1 0 .3 0 .5.1s.4.1.7.2.5.2.7.3.3.2.4.2c.1.1.1.1.1.2v.2l-6.5 10.6 4.4 1.6c.1 0 .2.1.2.2s-.1.3-.1.4z"/><path d="m91.2 190.6c-.1.5-.2.9-.4 1.4s-.4 1-.6 1.5-.5 1-.9 1.4c-.3.5-.7.9-1.2 1.3-.4.4-.9.8-1.5 1.1-.5.3-1.1.5-1.8.7s-1.4.3-2.2.3-1.7-.1-2.7-.3l-3.7-.8c-.1 0-.2-.1-.3-.1-.1-.1-.2-.1-.2-.2-.1-.1-.1-.2-.1-.3s0-.3.1-.4l5.3-12.2c.1-.3.3-.5.6-.6.2-.1.5-.1.8-.1l3.5.8c1.2.3 2.1.6 2.8 1s1.3.9 1.7 1.4c.4.6.7 1.2.8 1.9.3.6.2 1.3 0 2.2zm-3.2-.3c.1-.5.1-.9.1-1.4 0-.4-.2-.8-.4-1.2s-.5-.7-1-.9c-.4-.3-1-.5-1.7-.6l-1.5-.3-4.2 9.5 1.6.3c.8.2 1.5.2 2.1.1s1.1-.2 1.6-.5.9-.6 1.3-.9c.4-.4.7-.8 1-1.2s.5-.9.7-1.4.3-1 .4-1.5z"/><path d="m109 187.1c0 .2 0 .5-.1.9s-.2.7-.3.9-.2.3-.4.3c-.1 0-.2-.1-.4-.2s-.3-.3-.5-.4-.5-.3-.9-.4c-.3-.1-.8-.2-1.3-.2-.6 0-1.1.1-1.6.3s-.9.5-1.3.9-.7.8-1 1.3-.5 1-.7 1.5-.3 1-.4 1.6c-.1.5-.1 1-.1 1.5s.1 1 .2 1.4.3.7.6 1 .6.5.9.6c.4.1.8.2 1.2.2.5 0 1-.1 1.4-.2s.7-.2 1-.4c.3-.1.5-.3.7-.4s.3-.2.5-.2c.1 0 .2 0 .2.1s.1.2.1.3v.2c0 .1 0 .2-.1.4 0 .1-.1.3-.1.4 0 .2-.1.3-.1.4s-.1.3-.1.4c-.1.1-.1.2-.2.3s-.3.2-.5.3-.5.3-.9.4-.8.2-1.2.3-.9.1-1.4.1c-.8 0-1.6-.1-2.3-.3s-1.2-.6-1.7-1c-.5-.5-.8-1-1.1-1.7s-.4-1.5-.4-2.4c0-.7.1-1.5.2-2.2s.4-1.5.7-2.3c.3-.7.7-1.4 1.1-2.1.5-.7 1-1.2 1.6-1.7s1.3-.9 2.1-1.2 1.7-.4 2.6-.4c.5 0 1 .1 1.5.2s.9.3 1.3.4c.4.2.6.4.7.5.4.2.5.4.5.6z"/><path d="m121.9 192.9c0 1-.2 1.9-.5 2.6-.3.8-.7 1.5-1.2 2-.5.6-1.2 1.1-1.9 1.4-.7.4-1.6.6-2.5.8-1 .2-1.9.2-2.6.1-.8-.1-1.4-.4-1.9-.8s-.9-1-1.1-1.7-.3-1.6-.3-2.6l.3-9.1c0-.1 0-.2.1-.2 0-.1.1-.1.2-.2s.3-.1.5-.2.4-.1.7-.2c.3 0 .5-.1.7-.1h.5c.1 0 .2.1.2.1 0 .1.1.1.1.2l-.3 9c0 .6 0 1.1.1 1.5s.3.7.6 1c.2.2.6.4.9.5.4.1.8.1 1.3 0s.9-.2 1.3-.4.7-.5 1-.8.5-.7.6-1.2c.2-.4.2-.9.3-1.5l.3-9.1c0-.1 0-.2.1-.2 0-.1.1-.1.2-.2s.3-.1.5-.2.4-.1.7-.2c.3 0 .5-.1.7-.1h.4c.1 0 .2.1.2.1 0 .1.1.1.1.2z"/><path d="m134.1 183.2c.1.4.2.9.3 1.3v1.5c-.1.5-.2 1-.4 1.5s-.5 1-.9 1.4-.9.9-1.4 1.2c-.6.4-1.3.7-2.1.9l-1.5.5.5 4.9v.2c0 .1-.1.2-.2.2-.1.1-.3.2-.4.2-.2.1-.4.2-.7.2-.3.1-.5.1-.7.2-.2 0-.3.1-.5 0-.1 0-.2 0-.3-.1-.1 0-.1-.1-.1-.2l-1.4-13.7c0-.4 0-.7.2-.9s.4-.4.7-.5l3.1-1c.4-.1.7-.2 1-.3s.6-.1.9-.2c.5-.1.9 0 1.3 0 .4.1.8.2 1.1.4s.6.5.9.8c.2.6.4 1 .6 1.5zm-3 1.3c-.1-.4-.3-.6-.5-.8s-.6-.3-1-.3c-.2 0-.4 0-.6.1-.2 0-.4.1-.6.2l-1.3.4.6 5.1 1.3-.4c.4-.1.8-.3 1-.5.3-.2.5-.4.7-.6s.3-.5.4-.8.1-.5.2-.8c0-.3 0-.5 0-.8 0-.4-.1-.6-.2-.8z"/><path d="m150.7 186s.1.1.1.2.1.2.1.4c0 .1.1.3.1.4v.4c0 .1 0 .3-.1.4 0 .1-.1.2-.2.2l-7.5 3.5c-.1 0-.2 0-.3 0-.1-.1-.2-.2-.2-.3 0 0-.1-.1-.1-.2s-.1-.2-.1-.4c0-.1-.1-.3-.1-.4 0-.2 0-.3 0-.4s0-.2.1-.3c0-.1.1-.2.2-.2l2.5-1.2-2.4-9.5-1.9 2.4c-.1.1-.2.2-.3.3s-.2.1-.2.1c-.1 0-.1 0-.2-.1 0-.1-.1-.1-.1-.2s-.1-.2-.2-.4-.1-.4-.1-.6 0-.4 0-.6.1-.3.1-.5l2.4-3.5c0-.1.1-.1.1-.1s.1-.1.2-.1c.1-.1.2-.1.3-.2s.3-.2.5-.3c.3-.1.5-.2.6-.3.2-.1.3-.1.4-.1h.2s.1.1.1.2l3.1 12.2 2.2-1.1h.3c.2 0 .3.1.4.3z"/><path d="m150.3 178.3c-.2-.3-.4-.7-.5-1.1-.2-.4-.3-.9-.4-1.4s-.1-1-.1-1.6c0-.5.2-1.1.4-1.6s.6-1.1 1-1.6 1-1 1.7-1.4c.6-.4 1.2-.6 1.8-.7.5-.1 1.1-.1 1.5.1.5.2.9.4 1.3.8s.7.8 1.1 1.4c.1.2.3.6.5 1s.4.9.6 1.5.4 1.2.6 1.8.3 1.3.4 2 .1 1.4 0 2.1-.2 1.4-.5 2.1-.6 1.3-1.1 1.9-1.2 1.1-2 1.6c-.3.2-.5.3-.7.4s-.5.2-.7.3-.4.1-.6.2c-.2 0-.4.1-.5.1-.2 0-.3 0-.4 0s-.2-.1-.3-.2c0 0-.1-.1-.1-.2s-.1-.2-.1-.3-.1-.3-.1-.4-.1-.3-.1-.4 0-.2 0-.3.1-.2.1-.2c.1-.1.2-.1.4-.1s.4-.1.6-.1c.2-.1.5-.1.8-.2s.6-.2.9-.4c.6-.3 1-.7 1.3-1.2.3-.4.5-.9.6-1.4s.1-1.1.1-1.6c-.1-.6-.2-1.1-.3-1.7-.2.4-.5.8-.9 1.2s-.8.7-1.4 1.1c-.6.3-1.1.5-1.6.6s-.9.1-1.3 0-.8-.3-1.1-.6c-.4-.8-.7-1.1-.9-1.5zm2.3-1.9c.1.2.2.3.4.5.1.1.3.2.5.3h.6c.2 0 .4-.1.7-.3.2-.1.4-.2.5-.4.2-.1.3-.3.5-.5.1-.2.3-.3.4-.5s.2-.4.3-.6c-.2-.5-.3-.9-.5-1.2-.2-.4-.3-.7-.5-.9-.4-.6-.7-1-1.1-1.1s-.8 0-1.3.2c-.3.2-.5.4-.7.6s-.3.5-.4.8-.1.6-.1.8c0 .3 0 .6.1.9s.1.5.2.8c.2.2.3.4.4.6z"/><path d="m160.1 172.4c-.2-.3-.4-.7-.6-1.1s-.4-.9-.5-1.4-.2-1-.2-1.6c0-.5.1-1.1.2-1.7.2-.6.5-1.1.8-1.7.4-.5.9-1.1 1.6-1.5.6-.4 1.2-.7 1.7-.9.5-.1 1-.2 1.5 0 .5.1.9.3 1.3.7.4.3.8.8 1.2 1.3.2.2.4.5.6.9s.5.9.8 1.4.5 1.1.7 1.7.4 1.3.6 2c.1.7.2 1.4.2 2.1s-.1 1.4-.3 2.1-.5 1.4-1 2c-.4.6-1.1 1.2-1.8 1.8-.2.2-.5.3-.7.5-.2.1-.4.2-.7.3-.2.1-.4.2-.6.2-.2.1-.4.1-.5.2-.2 0-.3.1-.4 0-.1 0-.2-.1-.3-.2 0 0-.1-.1-.1-.2-.1-.1-.1-.2-.2-.3s-.1-.3-.2-.4-.1-.3-.1-.4 0-.2 0-.3.1-.2.1-.2c.1-.1.2-.1.4-.2.2 0 .3-.1.6-.2.2-.1.5-.2.7-.3.3-.1.6-.3.8-.5.5-.4.9-.8 1.2-1.3s.4-1 .5-1.5 0-1.1-.1-1.6c-.1-.6-.3-1.1-.5-1.7-.2.4-.4.8-.8 1.2-.3.4-.7.8-1.3 1.2-.5.4-1 .6-1.5.8-.5.1-.9.2-1.3.1s-.8-.2-1.1-.5c-.1-.2-.4-.5-.7-.8zm2.2-2.2c.1.2.3.3.4.4.2.1.3.2.5.2s.4 0 .6-.1.4-.2.6-.3.3-.3.5-.4c.2-.2.3-.3.4-.5s.3-.4.4-.6.2-.4.3-.6c-.2-.4-.4-.8-.6-1.2-.2-.3-.4-.6-.5-.9-.4-.6-.8-.9-1.2-1s-.8 0-1.2.3c-.3.2-.5.4-.6.7-.1.2-.2.5-.3.8s-.1.6 0 .9c0 .3.1.6.2.8.1.3.2.5.3.8 0 .3.1.6.2.7z"/><path d="m180.5 165.1s.1.1.2.2.1.2.2.3.1.3.2.4.1.3.1.4.1.2 0 .4c0 .1 0 .2-.1.3l-6.5 5.7c-.1.1-.2.2-.3.2s-.2.1-.3.1-.2 0-.2-.1c-.1 0-.1-.1-.2-.2s-.2-.2-.3-.4-.2-.4-.3-.6-.2-.5-.2-.7c-.1-.3-.1-.6 0-.9l.6-4.6c.1-.6.1-1.2.1-1.7s0-.9 0-1.3-.1-.7-.1-1c-.1-.3-.1-.6-.2-.8s-.2-.4-.3-.6-.2-.3-.3-.4-.2-.2-.4-.3c-.1-.1-.3-.2-.5-.2s-.4 0-.6.1-.4.2-.7.4c-.3.3-.6.6-.8.9s-.4.7-.5 1-.2.6-.3.8-.2.4-.2.4c-.1.1-.2.1-.3 0-.1 0-.2-.1-.3-.2 0 0-.1-.1-.2-.2s-.1-.2-.2-.3-.1-.2-.2-.4c-.1-.1-.1-.3-.2-.4s-.1-.3-.1-.4 0-.2 0-.3.1-.3.2-.6.3-.6.5-1 .4-.7.7-1.1.6-.7 1-1c.6-.5 1.2-.9 1.7-1.1s1-.3 1.5-.3c.4 0 .8.2 1.2.4s.7.5.9.7c.2.3.4.5.6.8s.3.6.5 1c.1.4.2.8.3 1.3s.1 1 .1 1.6 0 1.3-.1 2c-.1.8-.2 1.6-.4 2.6l-.4 2.7 4.3-3.7c.1-.1.2-.1.3-.1.3 0 .4 0 .5.2z"/><path d="m82.6 88.1c38.8-3 65.2 3.1 72 4.8 1.7-2.8 3.8-5.3 6.4-7.4-5-1.4-27.6-7-69.6-4.7-42.6 2.4-79 13.3-84.6 15v3.6c5.6-1.4 34.8-8.1 75.8-11.3z" fill="#195286"/><path d="m6.8 104.4v3.9c4.8-1.1 44-9.2 86.9-10 27.8-.5 49.5 4.5 57 6.5.3-3 1-5.8 2.1-8.5-5.5-1.5-18-4.7-54.1-4.7-42.2 0-86.5 11.4-91.9 12.8z" fill="#a4c300"/><path d="m90.4 103c-43.5.3-78.8 8.6-83.6 9.7v3.8c3.3-.6 38.6-7.2 79.3-7.1 40.6.1 61.9 7.3 67 9.3-1.4-3-2.2-6.2-2.4-9.7-6.4-1.7-23.7-6.3-60.3-6z" fill="#d4282a"/><path d="m178.8 79.1c-1.4 0-2.8.1-4.1.3-10.1-28.7-37.5-49.3-69.6-49.3-35.6 0-65.4 25.4-72.3 59 1.7-.4 3.6-.8 5.4-1.2 7.2-30.2 34.4-52.7 66.8-52.7 29.7 0 55.1 19 64.6 45.5-11 3.8-19 14.2-19 26.6 0 11.4 6.9 21.2 16.7 25.6-10.9 23.5-34.8 39.8-62.3 39.8-35.1 0-64.1-26.4-68.2-60.4-1.7.2-3.4.4-5 .6 4.4 36.5 35.5 64.9 73.2 64.9 29.8 0 55.5-17.7 67.1-43.2 2.1.5 4.3.8 6.6.8 15.5 0 28.1-12.6 28.1-28.1s-12.6-28.2-28-28.2zm0 51.1c-1.6 0-3.1-.2-4.6-.5-.4-.1-.8-.2-1.2-.3-.1 0-.1 0-.2-.1-.3-.1-.7-.2-1-.3h-.1c-.4-.1-.7-.2-1.1-.4-.4-.1-.8-.3-1.1-.5-8-3.6-13.6-11.7-13.6-21 0-10.1 6.5-18.6 15.5-21.7.4-.1.8-.3 1.2-.4h.1c.4-.1.8-.2 1.1-.3h.1c.4-.1.8-.2 1.1-.2h.1c.4-.1.8-.1 1.2-.2.9-.1 1.7-.2 2.6-.2 12.7 0 23 10.3 23 23-.1 12.8-10.5 23.1-23.1 23.1z"/></svg>