<?xml version="1.0" encoding="utf-8"?>
<!-- Generator: Adobe Illustrator 14.0.0, SVG Export Plug-In . SVG Version: 6.00 Build 43363)  -->
<!DOCTYPE svg PUBLIC "-//W3C//DTD SVG 1.1//EN" "http://www.w3.org/Graphics/SVG/1.1/DTD/svg11.dtd">
<svg version="1.1" id="Layer_1" xmlns="http://www.w3.org/2000/svg" xmlns:xlink="http://www.w3.org/1999/xlink" x="0px" y="0px"
	 width="250px" height="250px" viewBox="0 0 250 250" enable-background="new 0 0 250 250" xml:space="preserve">
<g>
	<path fill="#FFFFFF" d="M125.003,245c65.731,0,119.029-53.737,119.029-120.005C244.032,58.726,190.734,5,125.003,5
		C59.258,5,5.968,58.726,5.968,124.995C5.968,191.263,59.258,245,125.003,245"/>
	<path fill="#124BB6" d="M125.022,238.195c61.707,0,111.738-50.441,111.738-112.644c0-62.211-50.031-112.646-111.738-112.646
		c-61.717,0-111.743,50.434-111.743,112.646C13.279,187.754,63.305,238.195,125.022,238.195"/>
	<path fill="#FFFFFF" d="M35.662,74.422c1.007-0.007,1.828-0.842,1.814-1.868c0-1.025-0.826-1.853-1.84-1.846
		c-1.009,0.015-1.822,0.838-1.816,1.868C33.827,73.594,34.653,74.429,35.662,74.422"/>
	<path fill="#FFFFFF" d="M35.649,72.569"/>
	<path fill="#FFFFFF" d="M44.731,73.839c1.009-0.007,1.822-0.838,1.814-1.864c0-1.018-0.826-1.846-1.84-1.838
		c-1.014,0.007-1.827,0.835-1.822,1.86C42.891,73.019,43.709,73.843,44.731,73.839"/>
	<path fill="#FFFFFF" d="M44.718,71.983"/>
	<path fill="#FFFFFF" d="M50.125,66.204c1.009-0.003,1.829-0.838,1.822-1.864c-0.005-1.022-0.831-1.846-1.846-1.842
		c-1.009,0.007-1.829,0.842-1.822,1.86C48.285,65.391,49.118,66.219,50.125,66.204"/>
	<path fill="#FFFFFF" d="M50.114,64.351"/>
	<path fill="#FFFFFF" d="M41.44,65.476c1.015-0.007,1.828-0.839,1.822-1.872c-0.007-1.018-0.833-1.846-1.847-1.838
		c-1.007,0.007-1.82,0.839-1.82,1.86C39.6,64.655,40.426,65.476,41.44,65.476"/>
	<path fill="#FFFFFF" d="M41.428,63.615"/>
	<path fill="#FFFFFF" d="M48.127,56.917c1.014-0.007,1.834-0.846,1.827-1.864c-0.005-1.029-0.836-1.853-1.846-1.846
		c-1.014,0.003-1.827,0.838-1.822,1.864C46.294,56.097,47.113,56.917,48.127,56.917"/>
	<path fill="#FFFFFF" d="M48.122,55.061"/>
	<path fill="#FFFFFF" d="M56.693,58.701c1.009-0.007,1.822-0.846,1.816-1.864c-0.007-1.029-0.833-1.849-1.834-1.849
		c-1.015,0.003-1.828,0.838-1.828,1.864C54.853,57.88,55.679,58.704,56.693,58.701"/>
	<path fill="#FFFFFF" d="M56.68,56.84"/>
	<path fill="#FFFFFF" d="M55.212,49.666c1.009-0.007,1.829-0.842,1.822-1.868c-0.005-1.025-0.826-1.846-1.848-1.838
		c-1.007,0-1.827,0.828-1.82,1.86C53.379,48.842,54.197,49.673,55.212,49.666"/>
	<path fill="#FFFFFF" d="M55.206,47.806"/>
	<path fill="#FFFFFF" d="M63.904,51.841c1.009,0,1.827-0.842,1.827-1.868c-0.013-1.021-0.838-1.853-1.846-1.838
		c-1.009,0.004-1.829,0.839-1.822,1.864C62.069,51.021,62.895,51.845,63.904,51.841"/>
	<path fill="#FFFFFF" d="M63.891,49.988"/>
	<path fill="#FFFFFF" d="M63.209,43.06c1.017-0.003,1.822-0.838,1.822-1.86c-0.006-1.033-0.832-1.849-1.84-1.846
		c-1.015,0.007-1.835,0.842-1.828,1.868C61.37,42.247,62.195,43.067,63.209,43.06"/>
	<path fill="#FFFFFF" d="M63.199,41.207"/>
	<path fill="#FFFFFF" d="M71.651,46.158c1.007-0.007,1.827-0.838,1.82-1.864c-0.005-1.029-0.831-1.846-1.846-1.842
		c-1.009,0-1.827,0.842-1.827,1.86C69.803,45.337,70.635,46.165,71.651,46.158"/>
	<path fill="#FFFFFF" d="M71.638,44.305"/>
	<path fill="#FFFFFF" d="M71.731,37.244c1.003-0.007,1.822-0.838,1.816-1.867c-0.007-1.022-0.833-1.838-1.842-1.838
		c-1.014,0.007-1.827,0.842-1.814,1.86C69.891,36.432,70.711,37.252,71.731,37.244"/>
	<path fill="#FFFFFF" d="M71.719,35.392"/>
	<path fill="#FFFFFF" d="M79.654,41.258c1.009-0.003,1.827-0.835,1.822-1.864c-0.007-1.018-0.831-1.849-1.84-1.834
		c-1.014,0.003-1.834,0.835-1.827,1.86C77.814,40.438,78.64,41.265,79.654,41.258"/>
	<path fill="#FFFFFF" d="M79.642,39.405"/>
	<path fill="#FFFFFF" d="M80.379,32.348c1.009-0.007,1.834-0.838,1.814-1.864c0-1.029-0.826-1.853-1.833-1.85
		c-1.016,0.007-1.829,0.839-1.829,1.864C78.539,31.528,79.371,32.348,80.379,32.348"/>
	<path fill="#FFFFFF" d="M80.374,30.495"/>
	<path fill="#FFFFFF" d="M88.441,36.886c1.001-0.008,1.82-0.842,1.82-1.868c0-1.018-0.837-1.846-1.84-1.846
		c-1.015,0.015-1.833,0.846-1.822,1.875C86.6,36.065,87.425,36.893,88.441,36.886"/>
	<path fill="#FFFFFF" d="M88.429,35.033"/>
	<path fill="#FFFFFF" d="M90.073,28.221c1.015-0.007,1.828-0.835,1.822-1.864c-0.007-1.021-0.838-1.842-1.84-1.834
		c-1.015,0.003-1.829,0.835-1.822,1.86C88.238,27.408,89.059,28.229,90.073,28.221"/>
	<path fill="#FFFFFF" d="M90.06,26.368"/>
	<path fill="#FFFFFF" d="M97.366,33.692c1.007-0.015,1.82-0.846,1.815-1.868c0-1.025-0.826-1.853-1.84-1.846
		c-1.015,0.007-1.828,0.835-1.822,1.864C95.526,32.872,96.344,33.692,97.366,33.692"/>
	<path fill="#FFFFFF" d="M97.346,31.832"/>
	<path fill="#FFFFFF" d="M100.038,25.416c1.009-0.007,1.827-0.846,1.822-1.868c-0.005-1.025-0.832-1.85-1.848-1.838
		c-1.007,0-1.827,0.842-1.82,1.86C98.197,24.596,99.023,25.423,100.038,25.416"/>
	<path fill="#FFFFFF" d="M100.024,23.556"/>
	<path fill="#FFFFFF" d="M106.543,31.671c1.02-0.007,1.833-0.85,1.828-1.868c-0.007-1.025-0.833-1.853-1.84-1.846
		c-1.016,0.007-1.829,0.85-1.822,1.868C104.708,30.851,105.534,31.678,106.543,31.671"/>
	<path fill="#FFFFFF" d="M106.536,29.811"/>
	<path fill="#FFFFFF" d="M110.254,23.259c1.022-0.003,1.835-0.846,1.828-1.864c-0.005-1.025-0.832-1.853-1.846-1.846
		c-1.016,0.007-1.822,0.838-1.816,1.86C108.42,22.442,109.246,23.259,110.254,23.259"/>
	<path fill="#FFFFFF" d="M110.249,21.402"/>
	<path fill="#FFFFFF" d="M116.128,30.038c1.002-0.007,1.822-0.85,1.815-1.868c-0.006-1.018-0.824-1.846-1.833-1.838
		c-1.015,0.007-1.828,0.838-1.828,1.868C114.289,29.217,115.114,30.045,116.128,30.038"/>
	<path fill="#FFFFFF" d="M116.123,28.185"/>
	<path fill="#FFFFFF" d="M120.49,22.281c1.009-0.007,1.827-0.842,1.822-1.868c-0.007-1.025-0.831-1.846-1.84-1.838
		c-1.021,0.007-1.834,0.838-1.827,1.856C118.65,21.461,119.476,22.285,120.49,22.281"/>
	<path fill="#FFFFFF" d="M120.478,20.428"/>
	<path fill="#FFFFFF" d="M125.842,29.583c1.014-0.007,1.828-0.839,1.828-1.86c-0.008-1.025-0.839-1.846-1.848-1.842
		c-1.015,0.004-1.828,0.839-1.822,1.864C124,28.763,124.833,29.591,125.842,29.583"/>
	<path fill="#FFFFFF" d="M125.835,27.734"/>
	<path fill="#FFFFFF" d="M130.6,22.351c1.007-0.003,1.819-0.838,1.816-1.856c-0.008-1.029-0.832-1.853-1.85-1.85
		c-1.007,0.007-1.813,0.839-1.813,1.864C128.757,21.527,129.585,22.358,130.6,22.351"/>
	<path fill="#FFFFFF" d="M130.581,20.498"/>
	<path fill="#FFFFFF" d="M135.302,30.316c1.014-0.007,1.827-0.842,1.819-1.86c-0.003-1.025-0.823-1.853-1.838-1.846
		s-1.827,0.85-1.824,1.864C133.467,29.503,134.294,30.323,135.302,30.316"/>
	<path fill="#FFFFFF" d="M135.29,28.463"/>
	<path fill="#FFFFFF" d="M140.835,23.468c1.018,0,1.831-0.839,1.823-1.86c-0.007-1.025-0.835-1.853-1.834-1.838
		c-1.015,0-1.835,0.828-1.828,1.86C139.004,22.655,139.828,23.482,140.835,23.468"/>
	<path fill="#FFFFFF" d="M140.824,21.615"/>
	<path fill="#FFFFFF" d="M144.775,31.572c1.011-0.003,1.823-0.838,1.823-1.864c-0.007-1.025-0.842-1.846-1.853-1.842
		c-1.011,0.011-1.824,0.842-1.816,1.86C142.937,30.755,143.754,31.579,144.775,31.572"/>
	<path fill="#FFFFFF" d="M144.761,29.719"/>
	<path fill="#FFFFFF" d="M150.825,25.379c1.011-0.007,1.835-0.842,1.816-1.868c0-1.025-0.828-1.853-1.835-1.838
		c-1.015,0.003-1.827,0.838-1.827,1.86C148.994,24.559,149.811,25.383,150.825,25.379"/>
	<path fill="#FFFFFF" d="M150.817,23.526"/>
	<path fill="#FFFFFF" d="M160.167,28.338c1.015-0.011,1.827-0.835,1.82-1.864c0-1.029-0.832-1.853-1.839-1.849
		c-1.011,0.015-1.823,0.85-1.823,1.868C158.34,27.518,159.16,28.346,160.167,28.338"/>
	<path fill="#FFFFFF" d="M160.156,26.478"/>
	<path fill="#FFFFFF" d="M153.981,34.011c1.011-0.003,1.831-0.846,1.824-1.864c-0.008-1.025-0.835-1.853-1.846-1.846
		s-1.816,0.846-1.816,1.864C152.15,33.187,152.975,34.011,153.981,34.011"/>
	<path fill="#FFFFFF" d="M153.971,32.154"/>
	<path fill="#FFFFFF" d="M162.555,37.229c1.007-0.003,1.827-0.827,1.82-1.86c-0.004-1.018-0.828-1.838-1.839-1.838
		c-1.021,0.007-1.835,0.835-1.827,1.86C160.713,36.417,161.548,37.237,162.555,37.229"/>
	<path fill="#FFFFFF" d="M162.544,35.377"/>
	<path fill="#FFFFFF" d="M169.26,31.957c1.011-0.007,1.831-0.842,1.831-1.868c-0.015-1.018-0.842-1.846-1.853-1.838
		c-1.011,0.003-1.831,0.838-1.824,1.856C167.422,31.136,168.253,31.96,169.26,31.957"/>
	<path fill="#FFFFFF" d="M169.253,30.104"/>
	<path fill="#FFFFFF" d="M170.871,41.247c1.004,0,1.824-0.839,1.816-1.864c-0.004-1.018-0.827-1.846-1.846-1.842
		c-1.011,0.004-1.82,0.842-1.82,1.864C169.025,40.43,169.854,41.254,170.871,41.247"/>
	<path fill="#FFFFFF" d="M170.856,39.394"/>
	<path fill="#FFFFFF" d="M178.364,37.01c1.007-0.007,1.819-0.834,1.819-1.86c-0.003-1.025-0.831-1.846-1.846-1.846
		c-1.007,0.007-1.827,0.842-1.819,1.864C176.521,36.19,177.346,37.021,178.364,37.01"/>
	<path fill="#FFFFFF" d="M178.35,35.157"/>
	<path fill="#FFFFFF" d="M178.672,46.048c1.014,0,1.827-0.835,1.823-1.856c-0.007-1.029-0.835-1.853-1.842-1.842
		c-1.021,0-1.835,0.835-1.827,1.86C176.833,45.235,177.657,46.063,178.672,46.048"/>
	<path fill="#FFFFFF" d="M178.657,44.195"/>
	<path fill="#FFFFFF" d="M186.424,42.474c1.015-0.007,1.828-0.846,1.82-1.875c-0.008-1.018-0.831-1.842-1.838-1.834
		c-1.019,0.003-1.831,0.838-1.824,1.856C184.582,41.646,185.417,42.481,186.424,42.474"/>
	<path fill="#FFFFFF" d="M186.413,40.613"/>
	<path fill="#FFFFFF" d="M186.216,51.775c1.018-0.007,1.834-0.842,1.823-1.868c-0.008-1.025-0.835-1.846-1.842-1.838
		c-1.021,0.007-1.827,0.839-1.82,1.86C184.388,50.955,185.212,51.779,186.216,51.775"/>
	<path fill="#FFFFFF" d="M186.208,49.922"/>
	<path fill="#FFFFFF" d="M194.491,49.102c1.015-0.007,1.835-0.835,1.828-1.86c-0.004-1.025-0.832-1.853-1.843-1.846
		c-1.018,0.007-1.831,0.842-1.823,1.868C192.657,48.289,193.48,49.113,194.491,49.102"/>
	<path fill="#FFFFFF" d="M194.484,47.249"/>
	<path fill="#FFFFFF" d="M193.25,58.287c1.015-0.007,1.827-0.842,1.827-1.868c-0.015-1.018-0.838-1.846-1.853-1.838
		c-1.004,0.007-1.816,0.842-1.81,1.868C191.415,57.474,192.25,58.294,193.25,58.287"/>
	<path fill="#FFFFFF" d="M193.239,56.434"/>
	<path fill="#FFFFFF" d="M201.79,56.668c1.021-0.007,1.827-0.842,1.827-1.868c-0.007-1.025-0.831-1.853-1.838-1.838
		c-1.025,0.007-1.839,0.832-1.831,1.86C199.955,55.848,200.79,56.675,201.79,56.668"/>
	<path fill="#FFFFFF" d="M201.786,54.815"/>
	<path fill="#FFFFFF" d="M199.904,65.721c1.018-0.007,1.823-0.842,1.823-1.868c-0.007-1.018-0.835-1.846-1.842-1.846
		c-1.021,0.007-1.835,0.85-1.827,1.868C198.065,64.9,198.894,65.721,199.904,65.721"/>
	<path fill="#FFFFFF" d="M199.894,63.86"/>
	<path fill="#FFFFFF" d="M208.188,64.358c1.015-0.007,1.835-0.835,1.824-1.864c-0.008-1.022-0.828-1.85-1.842-1.842
		c-1.022,0-1.828,0.842-1.828,1.868C206.354,63.538,207.174,64.366,208.188,64.358"/>
	<path fill="#FFFFFF" d="M208.173,62.505"/>
	<path fill="#FFFFFF" d="M205.521,73.55c1.015-0.007,1.828-0.839,1.824-1.868c-0.008-1.018-0.835-1.85-1.85-1.842
		c-1.007,0.011-1.82,0.846-1.82,1.864C203.684,72.73,204.508,73.558,205.521,73.55"/>
	<path fill="#FFFFFF" d="M205.507,71.697"/>
	<path fill="#FFFFFF" d="M213.938,72.711c1.011-0.007,1.823-0.838,1.82-1.86c-0.008-1.021-0.824-1.853-1.843-1.845
		c-1.007,0.003-1.831,0.846-1.819,1.864C212.099,71.895,212.927,72.723,213.938,72.711"/>
	<path fill="#FFFFFF" d="M213.923,70.858"/>
	<path fill="#FFFFFF" d="M210.495,81.907c1.003-0.007,1.827-0.839,1.82-1.86c-0.004-1.025-0.839-1.85-1.846-1.846
		c-1.008,0.007-1.828,0.842-1.82,1.868C208.66,81.087,209.477,81.915,210.495,81.907"/>
	<path fill="#FFFFFF" d="M210.487,80.054"/>
	<path fill="#FFFFFF" d="M218.914,82.251c1.015-0.007,1.835-0.835,1.82-1.868c-0.004-1.018-0.824-1.846-1.839-1.838
		c-1.014,0.007-1.823,0.842-1.823,1.864C217.079,81.431,217.907,82.262,218.914,82.251"/>
	<path fill="#FFFFFF" d="M218.91,80.398"/>
	<path fill="#FFFFFF" d="M214.685,91.059c1.021-0.007,1.835-0.838,1.831-1.864c-0.008-1.025-0.835-1.853-1.842-1.838
		c-1.022,0.007-1.835,0.835-1.828,1.864C212.854,90.238,213.678,91.063,214.685,91.059"/>
	<path fill="#FFFFFF" d="M214.677,89.209"/>
	<path fill="#FFFFFF" d="M222.858,91.795c1.011,0,1.823-0.835,1.816-1.864c-0.008-1.021-0.824-1.849-1.846-1.842
		c-1.004,0.007-1.816,0.842-1.816,1.868C221.027,90.982,221.848,91.81,222.858,91.795"/>
	<path fill="#FFFFFF" d="M222.847,89.942"/>
	<path fill="#FFFFFF" d="M26.34,159.043c1.007,0.052,1.864-0.732,1.915-1.758c0.044-1.032-0.738-1.89-1.747-1.94
		c-1.007-0.052-1.871,0.739-1.915,1.765C24.543,158.128,25.324,158.992,26.34,159.043"/>
	<path fill="#FFFFFF" d="M26.42,157.19"/>
	<path fill="#FFFFFF" d="M34.917,161.548c1.003,0.052,1.866-0.732,1.91-1.758c0.051-1.025-0.73-1.89-1.745-1.934
		c-1.014-0.051-1.866,0.74-1.91,1.758C33.12,160.64,33.902,161.504,34.917,161.548"/>
	<path fill="#FFFFFF" d="M34.999,159.71"/>
	<path fill="#FFFFFF" d="M29.78,168.792c1.001,0.044,1.866-0.74,1.916-1.766c0.045-1.025-0.736-1.89-1.745-1.94
		c-1.015-0.044-1.871,0.732-1.915,1.765C27.984,167.876,28.766,168.74,29.78,168.792"/>
	<path fill="#FFFFFF" d="M29.863,166.938"/>
	<path fill="#FFFFFF" d="M38.421,169.854c1.003,0.052,1.866-0.747,1.91-1.765c0.051-1.019-0.731-1.89-1.74-1.941
		c-1.014-0.036-1.871,0.747-1.922,1.766C36.625,168.938,37.407,169.81,38.421,169.854"/>
	<path fill="#FFFFFF" d="M38.503,168.001"/>
	<path fill="#FFFFFF" d="M34.526,178.203c1.015,0.052,1.872-0.747,1.916-1.765c0.044-1.025-0.731-1.897-1.74-1.948
		c-1.014-0.037-1.871,0.747-1.915,1.772C32.736,177.28,33.512,178.152,34.526,178.203"/>
	<path fill="#FFFFFF" d="M34.614,176.351"/>
	<path fill="#FFFFFF" d="M43.206,178.35c1.014,0.044,1.878-0.739,1.922-1.758c0.05-1.025-0.732-1.896-1.747-1.94
		c-1.007-0.052-1.871,0.739-1.915,1.758C41.422,177.435,42.204,178.306,43.206,178.35"/>
	<path fill="#FFFFFF" d="M43.301,176.497"/>
	<path fill="#FFFFFF" d="M39.959,186.985c1.009,0.044,1.86-0.74,1.917-1.766c0.044-1.018-0.738-1.89-1.747-1.94
		c-1.014-0.044-1.866,0.747-1.915,1.765C38.17,186.069,38.945,186.941,39.959,186.985"/>
	<path fill="#FFFFFF" d="M40.042,185.132"/>
	<path fill="#FFFFFF" d="M48.677,186.355c1.014,0.051,1.871-0.74,1.915-1.772c0.044-1.025-0.738-1.89-1.739-1.934
		c-1.015-0.052-1.879,0.747-1.923,1.765C46.886,185.439,47.668,186.304,48.677,186.355"/>
	<path fill="#FFFFFF" d="M48.765,184.502"/>
	<path fill="#FFFFFF" d="M46.067,195.02c1.015,0.052,1.872-0.747,1.916-1.765c0.044-1.025-0.725-1.89-1.74-1.941
		c-1.014-0.051-1.871,0.74-1.915,1.766C44.277,194.111,45.059,194.969,46.067,195.02"/>
	<path fill="#FFFFFF" d="M46.155,193.167"/>
	<path fill="#FFFFFF" d="M54.69,193.716c1.014,0.052,1.864-0.739,1.915-1.758c0.051-1.025-0.725-1.882-1.745-1.948
		c-1.009-0.044-1.866,0.747-1.91,1.78C52.899,192.815,53.674,193.68,54.69,193.716"/>
	<path fill="#FFFFFF" d="M54.778,191.863"/>
	<path fill="#FFFFFF" d="M52.734,202.293c1.016,0.051,1.866-0.747,1.917-1.766c0.049-1.025-0.73-1.89-1.739-1.94
		c-1.015-0.052-1.866,0.739-1.923,1.765C50.938,201.37,51.72,202.241,52.734,202.293"/>
	<path fill="#FFFFFF" d="M52.824,200.439"/>
	<path fill="#FFFFFF" d="M61.641,200.477c1.009,0.065,1.866-0.732,1.91-1.751c0.051-1.032-0.73-1.89-1.732-1.94
		c-1.016-0.052-1.873,0.732-1.917,1.765C59.844,199.568,60.626,200.425,61.641,200.477"/>
	<path fill="#FFFFFF" d="M61.729,198.623"/>
	<path fill="#FFFFFF" d="M60.091,208.672c1.007,0.052,1.864-0.732,1.916-1.765c0.049-1.025-0.731-1.89-1.747-1.934
		c-1.007-0.044-1.864,0.747-1.91,1.765C58.301,207.764,59.075,208.636,60.091,208.672"/>
	<path fill="#FFFFFF" d="M60.179,206.826"/>
	<path fill="#FFFFFF" d="M68.518,205.933c1.014,0.037,1.871-0.739,1.922-1.765c0.049-1.033-0.738-1.904-1.752-1.941
		c-1.003-0.051-1.866,0.747-1.91,1.766C66.727,205.018,67.509,205.874,68.518,205.933"/>
	<path fill="#FFFFFF" d="M68.606,204.08"/>
	<path fill="#FFFFFF" d="M67.855,214.553c1.016,0.052,1.873-0.739,1.923-1.757c0.051-1.025-0.731-1.897-1.745-1.948
		c-1.009-0.037-1.866,0.747-1.917,1.779C66.072,213.638,66.848,214.517,67.855,214.553"/>
	<path fill="#FFFFFF" d="M67.95,212.7"/>
	<path fill="#FFFFFF" d="M76.075,210.877c1.014,0.051,1.871-0.747,1.915-1.766c0.044-1.018-0.73-1.89-1.745-1.926
		c-1.009-0.052-1.866,0.725-1.917,1.765C74.284,209.969,75.066,210.825,76.075,210.877"/>
	<path fill="#FFFFFF" d="M76.157,209.023"/>
	<path fill="#FFFFFF" d="M76.314,219.688c1.007,0.036,1.871-0.747,1.915-1.766c0.044-1.032-0.73-1.89-1.745-1.94
		c-1.009-0.052-1.866,0.747-1.917,1.765C74.524,218.765,75.306,219.636,76.314,219.688"/>
	<path fill="#FFFFFF" d="M76.402,217.834"/>
	<path fill="#FFFFFF" d="M84.168,215.337c1.014,0.036,1.871-0.74,1.915-1.772c0.051-1.025-0.738-1.896-1.745-1.934
		c-1.009-0.051-1.866,0.747-1.917,1.766C82.377,214.421,83.159,215.278,84.168,215.337"/>
	<path fill="#FFFFFF" d="M84.256,213.484"/>
	<path fill="#FFFFFF" d="M85.719,223.936c1.007,0.051,1.858-0.747,1.915-1.766c0.044-1.018-0.738-1.89-1.747-1.94
		c-1.015-0.052-1.872,0.747-1.916,1.765C83.928,223.013,84.703,223.884,85.719,223.936"/>
	<path fill="#FFFFFF" d="M85.799,222.082"/>
	<path fill="#FFFFFF" d="M92.948,219.028c1.014,0.051,1.866-0.74,1.922-1.758c0.037-1.025-0.745-1.897-1.752-1.948
		c-1.016-0.044-1.866,0.747-1.917,1.765C91.164,218.112,91.933,218.984,92.948,219.028"/>
	<path fill="#FFFFFF" d="M93.041,217.175"/>
	<path fill="#FFFFFF" d="M95.412,227.539c1.001,0.051,1.864-0.74,1.91-1.766c0.05-1.018-0.732-1.89-1.747-1.94
		c-1.015-0.052-1.872,0.747-1.916,1.779C93.616,226.631,94.396,227.502,95.412,227.539"/>
	<path fill="#FFFFFF" d="M95.493,225.686"/>
	<path fill="#FFFFFF" d="M102.174,221.563c1.009,0.051,1.86-0.74,1.91-1.766c0.051-1.018-0.73-1.89-1.745-1.94
		c-1.009-0.037-1.866,0.747-1.917,1.765C100.378,220.646,101.16,221.525,102.174,221.563"/>
	<path fill="#FFFFFF" d="M102.257,219.709"/>
	<path fill="#FFFFFF" d="M104.892,229.963c1.007,0.052,1.866-0.747,1.915-1.765c0.051-1.025-0.73-1.89-1.745-1.941
		c-1.009-0.051-1.866,0.74-1.917,1.766C103.101,229.055,103.875,229.912,104.892,229.963"/>
	<path fill="#FFFFFF" d="M104.972,228.11"/>
	<path fill="#FFFFFF" d="M111.294,223.444c1.002,0.052,1.866-0.747,1.916-1.765c0.044-1.025-0.736-1.89-1.752-1.941
		c-1.001-0.036-1.864,0.74-1.915,1.766C109.499,222.521,110.28,223.394,111.294,223.444"/>
	<path fill="#FFFFFF" d="M111.377,221.592"/>
	<path fill="#FFFFFF" d="M120.464,224.302c1.009,0.051,1.866-0.747,1.91-1.766c0.051-1.018-0.731-1.89-1.745-1.94
		c-1.009-0.052-1.872,0.739-1.917,1.765C118.668,223.379,119.45,224.25,120.464,224.302"/>
	<path fill="#FFFFFF" d="M120.547,222.448"/>
	<path fill="#FFFFFF" d="M114.673,231.486c1.015,0.037,1.879-0.747,1.916-1.779c0.057-1.019-0.724-1.89-1.74-1.941
		c-1.007-0.036-1.858,0.755-1.915,1.766C112.89,230.557,113.671,231.421,114.673,231.486"/>
	<path fill="#FFFFFF" d="M114.768,229.634"/>
	<path fill="#FFFFFF" d="M124.253,232.065c1.009,0.036,1.866-0.74,1.917-1.766c0.044-1.032-0.738-1.89-1.747-1.94
		c-1.009-0.037-1.866,0.747-1.923,1.765C122.457,231.143,123.239,232.014,124.253,232.065"/>
	<path fill="#FFFFFF" d="M124.335,230.212"/>
	<path fill="#FFFFFF" d="M129.926,224.323c1.014,0.052,1.878-0.739,1.915-1.765c0.044-1.019-0.732-1.89-1.732-1.941
		c-1.015-0.036-1.871,0.747-1.928,1.78C128.129,223.415,128.911,224.287,129.926,224.323"/>
	<path fill="#FFFFFF" d="M130.014,222.471"/>
	<path fill="#FFFFFF" d="M134.4,231.501c1,0.052,1.864-0.747,1.908-1.765c0.051-1.033-0.729-1.89-1.743-1.941
		c-1.019-0.044-1.875,0.74-1.919,1.766C132.603,230.578,133.386,231.45,134.4,231.501"/>
	<path fill="#FFFFFF" d="M134.484,229.648"/>
	<path fill="#FFFFFF" d="M138.791,223.444c1.011,0.052,1.868-0.747,1.912-1.779c0.051-1.019-0.74-1.89-1.739-1.927
		c-1.015-0.051-1.872,0.74-1.923,1.766C137.004,222.521,137.773,223.394,138.791,223.444"/>
	<path fill="#FFFFFF" d="M138.876,221.592"/>
	<path fill="#FFFFFF" d="M144.064,230.124c1,0.037,1.864-0.747,1.908-1.779c0.048-1.019-0.729-1.875-1.747-1.927
		c-1.007-0.051-1.863,0.747-1.915,1.751C142.267,229.201,143.039,230.073,144.064,230.124"/>
	<path fill="#FFFFFF" d="M144.146,228.271"/>
	<path fill="#FFFFFF" d="M148.063,221.906c1.019,0.052,1.875-0.732,1.927-1.765c0.048-1.019-0.732-1.89-1.751-1.927
		c-1.011-0.051-1.867,0.726-1.911,1.766C146.284,220.998,147.061,221.87,148.063,221.906"/>
	<path fill="#FFFFFF" d="M148.159,220.054"/>
	<path fill="#FFFFFF" d="M154.022,227.847c1.007,0.036,1.863-0.762,1.915-1.766c0.051-1.025-0.732-1.904-1.739-1.94
		c-1.008-0.052-1.872,0.739-1.923,1.758C152.231,226.924,153.015,227.795,154.022,227.847"/>
	<path fill="#FFFFFF" d="M154.11,225.993"/>
	<path fill="#FFFFFF" d="M156.769,219.043c1.007,0.051,1.864-0.74,1.908-1.766c0.044-1.018-0.729-1.89-1.743-1.94
		c-1.011-0.052-1.868,0.747-1.919,1.765C154.971,218.127,155.754,218.991,156.769,219.043"/>
	<path fill="#FFFFFF" d="M156.853,217.204"/>
	<path fill="#FFFFFF" d="M163.909,224.36c1.008,0.051,1.864-0.74,1.923-1.751c0.044-1.018-0.736-1.89-1.75-1.94
		c-1.011-0.052-1.868,0.747-1.912,1.765C162.119,223.459,162.902,224.323,163.909,224.36"/>
	<path fill="#FFFFFF" d="M164.001,222.507"/>
	<path fill="#FFFFFF" d="M165.627,215.402c1,0.052,1.868-0.747,1.912-1.779c0.051-1.018-0.729-1.875-1.743-1.926
		c-1.011-0.052-1.875,0.739-1.919,1.765C163.833,214.479,164.609,215.352,165.627,215.402"/>
	<path fill="#FFFFFF" d="M165.708,213.55"/>
	<path fill="#FFFFFF" d="M173.062,219.951c1.018,0.051,1.875-0.74,1.922-1.766c0.044-1.018-0.735-1.89-1.746-1.94
		c-1.011-0.052-1.864,0.747-1.908,1.765C171.277,219.028,172.058,219.899,173.062,219.951"/>
	<path fill="#FFFFFF" d="M173.156,218.098"/>
	<path fill="#FFFFFF" d="M174.134,210.942c1.008,0.044,1.864-0.732,1.923-1.758c0.044-1.018-0.739-1.89-1.75-1.94
		c-1.011-0.052-1.868,0.747-1.919,1.765C172.344,210.034,173.12,210.898,174.134,210.942"/>
	<path fill="#FFFFFF" d="M174.222,209.09"/>
	<path fill="#FFFFFF" d="M181.854,214.985c1.015,0.051,1.872-0.747,1.923-1.765c0.037-1.019-0.739-1.89-1.743-1.927
		c-1.018-0.065-1.867,0.732-1.919,1.766C180.063,214.077,180.847,214.934,181.854,214.985"/>
	<path fill="#FFFFFF" d="M181.938,213.133"/>
	<path fill="#FFFFFF" d="M181.897,205.684c1.008,0.037,1.872-0.747,1.916-1.779c0.059-1.019-0.726-1.89-1.743-1.927
		c-1.011-0.051-1.86,0.732-1.912,1.751C180.107,204.761,180.884,205.618,181.897,205.684"/>
	<path fill="#FFFFFF" d="M181.989,203.816"/>
	<path fill="#FFFFFF" d="M189.921,208.95c1.019,0.037,1.868-0.747,1.912-1.765c0.051-1.033-0.74-1.897-1.736-1.941
		c-1.011-0.051-1.871,0.74-1.915,1.766C188.127,208.027,188.907,208.899,189.921,208.95"/>
	<path fill="#FFFFFF" d="M190.002,207.098"/>
	<path fill="#FFFFFF" d="M189.05,199.847c1.011,0.051,1.867-0.747,1.911-1.766c0.044-1.018-0.732-1.89-1.742-1.94
		c-1.012-0.052-1.868,0.739-1.92,1.765C187.248,198.938,188.031,199.795,189.05,199.847"/>
	<path fill="#FFFFFF" d="M189.134,197.993"/>
	<path fill="#FFFFFF" d="M197.228,202.329c1.021,0.052,1.871-0.747,1.915-1.75c0.059-1.033-0.726-1.89-1.732-1.956
		c-1.015-0.036-1.871,0.747-1.923,1.78C195.443,201.421,196.228,202.293,197.228,202.329"/>
	<path fill="#FFFFFF" d="M197.326,200.477"/>
	<path fill="#FFFFFF" d="M195.854,192.954c1.015,0.044,1.864-0.732,1.908-1.765c0.048-1.025-0.729-1.897-1.739-1.934
		c-1.015-0.059-1.864,0.732-1.915,1.75C194.066,192.046,194.836,192.903,195.854,192.954"/>
	<path fill="#FFFFFF" d="M195.935,191.102"/>
	<path fill="#FFFFFF" d="M204.057,195.042c1.004,0.051,1.868-0.74,1.919-1.751c0.044-1.018-0.739-1.89-1.75-1.955
		c-1.019-0.037-1.868,0.747-1.912,1.779C202.27,194.134,203.046,195.005,204.057,195.042"/>
	<path fill="#FFFFFF" d="M204.142,193.203"/>
	<path fill="#FFFFFF" d="M202.156,185.776c1.007,0.052,1.856-0.739,1.908-1.765c0.051-1.033-0.732-1.89-1.736-1.941
		c-1.018-0.051-1.875,0.747-1.919,1.766C200.358,184.861,201.142,185.726,202.156,185.776"/>
	<path fill="#FFFFFF" d="M202.244,183.924"/>
	<path fill="#FFFFFF" d="M210.418,186.436c1.015,0.037,1.871-0.747,1.915-1.765c0.059-1.025-0.725-1.89-1.735-1.941
		c-1.019-0.051-1.868,0.74-1.919,1.766C208.635,185.513,209.411,186.385,210.418,186.436"/>
	<path fill="#FFFFFF" d="M210.514,184.583"/>
	<path fill="#FFFFFF" d="M207.185,177.874c1.018,0.051,1.875-0.732,1.919-1.766c0.055-1.018-0.726-1.882-1.743-1.934
		c-1.011-0.051-1.868,0.74-1.919,1.766C205.401,176.966,206.181,177.822,207.185,177.874"/>
	<path fill="#FFFFFF" d="M207.272,176.021"/>
	<path fill="#FFFFFF" d="M216.018,177.771c1.007,0.051,1.864-0.74,1.908-1.766c0.051-1.018-0.726-1.89-1.74-1.934
		c-1.014-0.044-1.867,0.732-1.911,1.758C214.22,176.855,214.999,177.72,216.018,177.771"/>
	<path fill="#FFFFFF" d="M216.098,175.926"/>
	<path fill="#FFFFFF" d="M39.21,113.383h2.823c3.492,0,6.473-3.249,6.473-11.4c0-7.646-2.88-10.568-6.769-10.568H39.21V113.383
		 M28.041,144.015v-1.318c0-4.556,2.836-0.659,2.836-6.321V94.944c0-5.662-2.836-1.762-2.836-6.325v-1.314h17.384
		c6.055,0,11.924,4.46,11.924,14.604c0,12.488-7.361,15.586-13.475,15.586H39.21v18.88c0,5.662,3.283,1.766,3.283,6.321v1.318
		H28.041z"/>
	<path fill="#FFFFFF" d="M73.282,144.015v-1.063c0-4.724,2.761-0.703,2.761-6.276V96.68c0-5.574-2.761-1.545-2.761-6.277v-1.062
		l10.527-0.495v47.829c0,5.573,2.772,1.553,2.772,6.276v1.063H73.282"/>
	<path fill="#FFFFFF" d="M88.202,144.015v-1.063c0-4.724,2.767-0.703,2.767-6.276V96.68c0-5.574-2.767-1.545-2.767-6.277v-1.062
		l10.532-0.495v47.829c0,5.573,2.767,1.553,2.767,6.276v1.063H88.202"/>
	<path fill="#FFFFFF" d="M133.046,139.093c0.718,1.325,1.644,1.948,2.717,1.948c4.654,0,5.482-9.727,5.482-15.251
		c0-5.058-0.688-15.864-5.047-15.864c-1.072,0-2.373,0.542-3.152,1.787V139.093 M127.316,144.015h-1.948V96.68
		c0-5.574-2.759-1.545-2.759-6.277v-1.062l10.437-0.495v18.9c1.497-1.794,3.878-2.651,5.774-2.651
		c7.075,0,10.488,8.559,10.488,19.457c0,11.735-4.131,20.458-11.561,20.458c-2.766,0-5.233-1.561-7.614-3.662L127.316,144.015z"/>
	<path fill="#FFFFFF" d="M68.902,136.676c0,5.573,2.715,1.553,2.715,6.276v1.063H57.903v-1.063c0-4.724,3.265-0.703,3.265-6.276
		v-23.685c0-5.577-2.761-1.556-2.761-6.284v-1.062l10.496-0.491V136.676"/>
	<path fill="#FFFFFF" d="M60.103,94.798c0-3.681,1.935-6.321,4.438-6.321c2.496,0,4.424,2.64,4.424,6.321
		c0,3.677-1.928,6.317-4.424,6.317C62.038,101.115,60.103,98.475,60.103,94.798"/>
	<path fill="#FFFFFF" d="M174.395,136.676c0,5.573,2.713,1.553,2.713,6.276v1.063h-10.184v-3.392
		c-1.846,3.318-4.369,4.497-7.09,4.497c-6.6,0-7.273-6.086-7.273-13.747V112.98c0-5.585-2.769-1.557-2.769-6.288v-1.058l10.43-0.495
		v26.548c0,5.53,0.345,7.903,3.014,7.903c1.022,0,2.956-1.113,3.498-2.688V112.98c0-5.585-2.78-1.557-2.78-6.288v-1.058
		l10.441-0.495V136.676"/>
	<path fill="#FFFFFF" d="M188.559,136.676c0,5.573,3.311,1.553,3.311,6.276v1.063h-13.747v-1.063c0-4.724,2.747-0.703,2.747-6.276
		v-23.648c0-5.57-2.776-1.619-2.776-6.35v-1.055l9.829-0.469v10.166h0.103c1.398-4.9,3.493-10.737,7.478-10.737
		c2.578,0,3.981,2.611,3.981,6.248c0,3.076-1.103,6.05-3.611,6.105c-1.095,0.025-1.762-0.495-2.237-1.201
		c-0.359-0.531-0.699-1.439-0.843-2.707c-0.41,0.041-1.582,2.121-2.834,5.753c-0.755,2.179-1.399,5.687-1.399,9.196V136.676"/>
	<path fill="#FFFFFF" d="M217.694,145.055c-2.007,7.836-5.222,12.268-10.616,12.121c-3.189-0.088-6.866-2.601-7.071-6.673
		c-0.165-3.215,1.494-5.559,4.179-5.668c2.208-0.081,3.53,1.758,3.556,3.618c0.011,1.472-0.498,2.606-1.268,3.485
		c0.389,0.439,1.099,0.594,1.831,0.41c1.615-0.41,2.505-2.284,3.377-5.705c0.3-1.179,0.417-1.67,0.417-1.67l-9.353-32.602
		c-1.297-4.699-2.798-1.491-2.798-5.299v-1.421h13.326v1.421c0,4.351-2.472,1.025-2.472,3.871c0,1.033,0.534,2.772,0.769,3.633
		l4.135,16.694l3.6-16.163c0.245-1.109,0.688-2.769,0.688-3.955c0-3.633-2.446,0.029-2.446-4.317v-1.183h11.111v1.183
		c0,4.186-1.611,1.483-2.388,4.566C226.271,111.401,219.423,138.323,217.694,145.055"/>
	<path fill="#FFFFFF" d="M108.351,138.602c0.587,0.857,1.942,1.802,3.378,1.802c2.093,0,4.375-1.216,4.338-4.958
		c-0.07-8.099-13.438-7.659-13.495-20.345c-0.039-7.302,5.698-10.745,10.354-10.624c3.215,0.091,8.976,1.582,8.976,7.584
		c0,2.93-1.651,4.351-3.347,4.351c-1.732,0-3.34-1.058-3.459-3.677c-0.057-1.208,0.39-1.952,0.775-2.571
		c-0.586-0.864-1.645-1.238-2.767-1.238c-1.827,0-3.744,1.238-3.744,3.933c0,8.485,13.463,7.222,13.463,20.462
		c0,8.298-6.253,11.491-10.519,11.696c-4.438,0.205-10.576-2.212-10.93-8.848c-0.165-2.944,1.587-5.112,4.034-5.156
		c1.884-0.029,3.688,1.194,3.75,4.373C109.176,136.712,108.76,137.737,108.351,138.602"/>
</g>
</svg>
