<svg enable-background="new 0 0 203.9 208.7" height="208.7" viewBox="0 0 203.9 208.7" xmlns="http://www.w3.org/2000/svg"><path d="m199.6 124.9s-3.8 4.8-7.7 7.7c-4.5 3.3-9.1 4.4-11.7 4.8-1.1-8.5-3.9-13.2-4-13.4l-2.3-3.8-1.8 4.1c-6 13.5-18.2 23-27.3 28.6-8.7 5.4-16.5 8.3-18.3 9-.3.1-.4.1-.4.2-.3.1-.9.3-1.7.5l1 12.6c-11.9 3.3-22.2 3.9-23.4 3.9-1.1-.1-11.5-.6-23.4-3.9l1-12.6c-.8-.2-1.3-.3-1.7-.5s-.2-.1-.4-.2c-1.9-.7-9.6-3.6-18.3-9-9.1-5.6-21.3-15.1-27.3-28.6l-1.8-4.1-2.3 3.8c-.1.2-2.9 4.9-4 13.4-2.6-.4-7.2-1.5-11.7-4.8-4-2.8-7.7-7.7-7.7-7.7 1.8 5 3.5 8.9 4.3 10.6 0 .1.2.4.4.9 2.2 4.2 11.6 21.8 24.3 29.5l-6.6 7.2-1.4 1.5 1.3 1.6c.2.3 6.2 7.3 18.5 14.2 10.9 6.2 29.1 13.5 54.5 14h2.4 2.4c25.4-.4 43.6-7.8 54.5-14 12.3-7 18.2-13.9 18.5-14.2l1.3-1.6-1.4-1.5-6.6-7.2c12.7-7.6 22.1-25.2 24.3-29.5.2-.5.4-.8.4-.9.6-1.8 2.3-5.6 4.1-10.6z" fill="#f3b71a"/><path d="m192.6 134.9c-.1.1-.2.1-.2.2-.2.1-.3.2-.5.3-.1.1-.2.1-.3.2s-.3.2-.4.3-.2.1-.3.2-.3.2-.4.2c-.1.1-.2.1-.3.2s-.3.1-.4.2-.2.1-.3.2-.2.1-.4.2c-.1.1-.2.1-.3.2s-.2.1-.4.2c-.1 0-.2.1-.3.1-.1.1-.2.1-.4.2-.1 0-.2.1-.3.1s-.2.1-.3.1-.2.1-.3.1-.2.1-.3.1-.2.1-.3.1-.2.1-.3.1-.2.1-.3.1-.2.1-.3.1-.2.1-.3.1-.2.1-.3.1-.2.1-.3.1-.2.1-.3.1-.2.1-.3.1-.2.1-.3.1-.2 0-.3.1c-.1 0-.2 0-.3.1-.1 0-.2 0-.3.1-.1 0-.2 0-.3.1-.1 0-.2 0-.3.1s-.2 0-.2 0c-.1 0-.2 0-.2 0-.1 0-.2 0-.2 0-.1 0-.2 0-.2 0-.1 0-.1 0-.2 0s-.1 0-.2 0-.1 0-.2 0-.1 0-.2 0-.1 0-.2 0-.1 0-.2 0-.1 0-.2 0-.1 0-.2 0h-.1c-.1 0-.1 0-.2 0h-.1c-.1 0-.1 0-.2 0 0 0 0 0-.1 0-.6 0-.9 0-.9 0-.8-9.6-3.9-14.7-3.9-14.7-12.2 27.2-47.5 39-47.5 39h1.4.7.8.7.8.7.8.7.7.7.7.7c.2 0 .5 0 .7-.1.2 0 .4 0 .6-.1.2 0 .5 0 .7-.1.2 0 .4 0 .6-.1.2 0 .4 0 .7-.1.2 0 .4 0 .6-.1.2 0 .4 0 .6-.1.2 0 .4 0 .6-.1.2 0 .4 0 .6-.1.2 0 .4 0 .6-.1.2 0 .4-.1.6-.1s.4-.1.6-.1.4-.1.6-.1.4-.1.6-.1.4-.1.6-.1.4-.1.5-.1c.2 0 .4-.1.5-.1.2 0 .3-.1.5-.1s.3-.1.5-.1.3-.1.5-.1.3-.1.5-.1.3-.1.5-.1.3-.1.5-.1.3-.1.4-.1c.2 0 .3-.1.4-.1s.3-.1.4-.1.3-.1.4-.1.3-.1.4-.1.3-.1.4-.1.2-.1.4-.1c.1 0 .2-.1.4-.1.1 0 .2-.1.3-.1s.2 0 .3-.1c.1 0 .2 0 .3-.1.1 0 .2 0 .3-.1.1 0 .2 0 .3-.1.1 0 .2 0 .3-.1.1 0 .2 0 .2-.1.1 0 .2 0 .2-.1.1 0 .2 0 .2-.1.1 0 .1 0 .2-.1h.2.2.1.2.1.1.1.1c-17.5 19.1-53.7 20.7-54.5 20.7s-36.9-1.6-54.5-20.7h.1.1.1.1.2.1.2.2c.1 0 .1 0 .2.1.1 0 .1 0 .2.1.1 0 .2 0 .2.1.1 0 .2 0 .2.1.1 0 .2 0 .3.1.1 0 .2 0 .3.1.1 0 .2 0 .3.1.1 0 .2 0 .3.1.1 0 .2 0 .3.1.1 0 .2 0 .3.1.1 0 .2.1.4.1.1 0 .2.1.4.1.1 0 .3.1.4.1s.3.1.4.1.3.1.4.1.3.1.4.1.3.1.4.1.3.1.4.1c.2 0 .3.1.5.1s.3.1.5.1.3.1.5.1.3.1.5.1.3.1.5.1.3.1.5.1.4.1.5.1c.2 0 .4.1.5.1.2 0 .4.1.6.1s.4.1.6.1.4.1.6.1.4.1.6.1.4.1.6.1.4 0 .6.1c.2 0 .4 0 .6.1.2 0 .4 0 .6.1.2 0 .4 0 .6.1.2 0 .4 0 .6.1.2 0 .4 0 .7.1.2 0 .4 0 .6.1.2 0 .5 0 .7.1.2 0 .4 0 .6.1.2 0 .5 0 .7.1h.7.7.7.7.7.8.7.8.7.8.7 1.4s-35.3-11.8-47.5-39c0 0-3.2 5.1-3.9 14.7 0 0-.3 0-.9 0 0 0 0 0-.1 0s-.1 0-.2 0h-.1c-.1 0-.1 0-.2 0h-.1c-.1 0-.1 0-.2 0s-.1 0-.2 0-.1 0-.2 0-.1 0-.2 0-.1 0-.2 0-.1 0-.2 0-.1 0-.2 0-.1 0-.2 0-.2 0-.2 0c-.1 0-.2 0-.2 0-.1 0-.2 0-.2 0-.1 0-.2 0-.2 0-.1 0-.2 0-.3-.1-.1 0-.2 0-.3-.1-.1 0-.2 0-.3-.1-.1 0-.2 0-.3-.1-.1 0-.2 0-.3-.1-.1 0-.2 0-.3-.1-.1 0-.2 0-.3-.1-.1 0-.2-.1-.3-.1s-.2-.1-.3-.1-.2-.1-.3-.1-.2-.1-.3-.1-.2-.1-.3-.1-.2-.1-.3-.1-.2-.1-.3-.1-.2-.1-.3-.1-.2-.1-.3-.1-.2-.1-.3-.1-.2-.1-.3-.1-.2-.1-.3-.1c-.1-.1-.2-.1-.4-.2-.1 0-.2-.1-.3-.1-.1-.1-.2-.1-.4-.2-.1 0-.2-.1-.3-.2s-.2-.1-.4-.2c-.1-.1-.2-.1-.3-.2s-.3-.1-.4-.2-.2-.1-.3-.2-.3-.2-.4-.2c-.1-.1-.2-.1-.3-.2s-.3-.2-.4-.3-.2-.1-.3-.2c-.2-.1-.3-.2-.5-.3-.1-.1-.2-.1-.2-.2-.2-.2-.5-.3-.7-.5 0 0 0 .1.1.2 0 .1.1.2.1.3.1.1.1.2.2.4v.1c.1.1.1.3.2.5.1.2.2.4.3.6v.1c.1.2.2.4.3.6.1.2.3.5.4.7.7 1.3 1.7 3 2.8 4.8.2.4.5.7.7 1.1.2.4.5.7.7 1.1.2.4.5.8.8 1.1.3.4.5.8.8 1.2 1.7 2.4 3.6 5 5.8 7.4.3.4.7.8 1.1 1.2.4.4.7.8 1.1 1.1.4.4.7.7 1.1 1.1.4.4.7.7 1.1 1.1.4.3.8.7 1.2 1 1.6 1.4 3.3 2.6 5 3.6l7.6-5-5.5 6.1-2.2 2.4-6.5 7s23 27.4 73.6 27.4c50.5 0 73.6-27.4 73.6-27.4l-6.5-7-2.2-2.4-5.5-6.1 7.6 5c1.7-1 3.4-2.2 5-3.6.4-.3.8-.7 1.2-1 .4-.3.8-.7 1.1-1.1.4-.4.7-.7 1.1-1.1.4-.4.7-.7 1.1-1.1.4-.4.7-.8 1.1-1.2 2.1-2.4 4.1-4.9 5.8-7.4.3-.4.5-.8.8-1.2.3-.4.5-.8.8-1.1.2-.4.5-.8.7-1.1.2-.4.5-.7.7-1.1 1.1-1.8 2.1-3.5 2.8-4.8.1-.3.3-.5.4-.7.1-.2.2-.4.3-.6 0 0 0 0 0-.1.1-.2.2-.4.3-.6.1-.2.2-.3.2-.5 0 0 0 0 0-.1.1-.1.1-.3.2-.4.1-.1.1-.2.1-.3.1-.1.1-.2.1-.2 1.3.2 1.1.4.9.5z" fill="#0c562e"/><path d="m32.3 4.4v47.9.2 1.8 1.8c.2 10.2 1.3 19.7 3.4 28.8 3 13.4 8.1 25.8 15.2 36.9 11.3 17.8 24.3 30.6 33.3 38.2 9.7 8.3 16.6 12.3 16.9 12.4l.9.5.9-.5c.3-.2 7.2-4.2 16.9-12.4 8.9-7.6 21.9-20.4 33.3-38.2 7-11.1 12.2-23.5 15.2-36.9 2.1-9.1 3.2-18.5 3.4-28.8v-1.8-1.8-.2-47.9z" fill="#0c562e"/><path d="m169.8 6.1v48.2h-23.2v-12.4h-25v-13.1h-39.4v13.1h-24.9v12.4h-23.2-.1v-48.2z" fill="#f3b71a"/><path d="m96.5 139.8s-.4-15.4-9.8-18.4c-9.4-3.1-21.7-1-25.4-14.5 0 0-3.8 14.4 1.9 21.4s20.9 2.8 33.3 11.5z" fill="#f3b71a"/><path d="m107.4 139.8s.4-15.4 9.8-18.4c9.4-3.1 21.7-1 25.4-14.5 0 0 3.8 14.4-1.9 21.4-5.8 7-20.9 2.8-33.3 11.5z" fill="#f3b71a"/><path d="m106.1 153.5c-2.4-1.7-3-6.4-3-6.4s0-28 0-28.9-1.2-.9-1.2-.9-1.2 0-1.2.9 0 28.9 0 28.9-.5 4.6-3 6.4c0 0 .6 1.1 2.8 1.8 0 0-.2 1.8 1.4 3.5 1.6-1.7 1.4-3.5 1.4-3.5 2.2-.6 2.8-1.8 2.8-1.8z" fill="#f3b71a"/><path d="m90.2 112.2s-16.2-4.2-21.2-17.2-3.8-18.8-5.1-22.4c-1.3-3.5-2.6-6.8-2.6-6.8s11.1 5.6 12 11.3.4 12.9 3.7 19.3c3.5 6.5 8.8 12.3 13.2 15.8z" fill="#f3b71a"/><path d="m95.6 112.8s-12-5.5-17.2-18-1.3-20.7-4.4-26c0 0 6.7 3.4 8.7 6.9s1.1 9.7 1.3 13.3c.2 3.7 3 16.6 11.6 23.8z" fill="#f3b71a"/><path d="m97.8 111.2s-7.8-5.6-10.8-15.1c-3.6-11.3 1.3-21.2-1.5-28.2 0 0 7.9 3 7.4 12.1-.5 9.2-1.9 17.9 4.9 31.2z" fill="#f3b71a"/><path d="m113.7 112.2s16.2-4.2 21.2-17.2 3.8-18.8 5.1-22.4c1.3-3.5 2.6-6.8 2.6-6.8s-11.1 5.6-12 11.3-.4 12.9-3.7 19.3c-3.5 6.5-8.8 12.3-13.2 15.8z" fill="#f3b71a"/><path d="m108.3 112.8s12-5.5 17.2-18 1.3-20.7 4.4-26c0 0-6.7 3.4-8.7 6.9-2 3.4-1.2 9.7-1.4 13.4-.1 3.6-2.9 16.5-11.5 23.7z" fill="#f3b71a"/><path d="m106.1 111.2s7.8-5.6 10.8-15.1c3.6-11.3-1.3-21.2 1.5-28.2 0 0-7.9 3-7.4 12.1.5 9.2 1.9 17.9-4.9 31.2z" fill="#f3b71a"/><path d="m101.9 66.5c-18.3 20.7 0 46.8 0 46.8s18.3-26.1 0-46.8z" fill="#f3b71a"/><g fill="#fff"><path d="m74.2 75.7c-.1-2.5-.3-4.5-1.2-6.2-.5 1-.9 1.8-1.1 2.6 1 1.1 1.8 2.3 2.3 3.6z"/><path d="m132 72.1c-.2-.8-.6-1.6-1.1-2.6-.9 1.6-1.1 3.7-1.2 6.2.5-1.3 1.3-2.5 2.3-3.6z"/><path d="m74.5 67.8c.3.1 7 3.7 9.2 7.4.6 1.1 1 2.3 1.2 3.6.4-4 .7-7.5-.5-10.4-.2-.4-.1-.9.3-1.3.2-.2.5-.4.8-.4.1 0 .3 0 .4.1.1 0 7.6 2.9 8.1 11.4 1.4-4.5 3.7-8.7 7-12.5.2-.3.5-.4.9-.4.3 0 .7.1.9.4 3.3 3.8 5.7 7.9 7 12.5.6-8.4 8.1-11.3 8.1-11.4.1-.1.3-.1.4-.1.3 0 .6.1.8.4.3.3.4.8.3 1.3-1.1 2.9-.8 6.4-.5 10.4.2-1.3.6-2.6 1.2-3.6 2.1-3.7 8.9-7.2 9.2-7.4.1-.1.3-.1.4-.1-1.5-2.2-3.8-4.8-7.3-7.7-11.5-9.4-14.2-12.1-17.5-11.6-2.2.3-3 2.3-3 2.3s-.8-2-3-2.3c-3.3-.5-6 2.2-17.5 11.6-3.5 2.9-5.8 5.5-7.3 7.7.1 0 .3 0 .4.1z"/><path d="m49.4 180.4c.9.4 1.8.7 2.7 1.1-.2.8-.2 1.5.1 2.1s.9 1.1 1.7 1.5c.9.4 1.6.5 2.2.4s1-.4 1.2-.8c.1-.3.1-.6 0-.8-.1-.3-.3-.6-.7-.9-.3-.2-.9-.7-1.9-1.5-1.3-1-2-1.8-2.4-2.6-.5-1-.4-2 0-2.9.3-.6.8-1 1.4-1.3s1.3-.4 2.1-.4c.8.1 1.6.3 2.6.7 1.5.7 2.5 1.5 3.1 2.5.5 1 .6 2 .2 3.1-.9-.3-1.8-.6-2.6-1 .2-.6.1-1.2-.1-1.6s-.7-.8-1.4-1.1-1.4-.5-1.9-.4c-.4 0-.6.2-.7.5s-.1.6 0 .9c.2.4.9 1 2 1.9 1.1.8 2 1.5 2.4 2.1.5.6.8 1.1 1 1.8.1.6.1 1.3-.2 2.1-.3.7-.7 1.2-1.4 1.6s-1.5.6-2.4.5-2-.4-3.2-.9c-1.7-.8-2.9-1.8-3.5-2.9-.8-1.1-.8-2.4-.3-3.7z"/><path d="m72.6 193.9c-1.1-.3-2.1-.6-3.2-.9-.1-1-.3-2.1-.4-3.1-1.9-.6-3.7-1.2-5.5-1.8-.7.8-1.4 1.5-2.1 2.3-1-.4-2-.8-3-1.2 3.4-3.2 6.6-6.5 9.6-10 .9.3 1.8.6 2.7.9.4 4.5 1.1 9.1 1.9 13.8zm-3.8-6.4c-.2-1.7-.3-3.4-.4-5.1-1.1 1.3-2.2 2.6-3.3 3.9 1.2.4 2.4.8 3.7 1.2z"/><path d="m86.6 191.9c.9.4 1.8.8 2.7 1.1-.6 1.3-1.4 2.3-2.5 2.8s-2.5.7-4 .4c-1.9-.3-3.4-1.2-4.4-2.6s-1.2-3.1-.8-5c.5-2.1 1.4-3.5 2.8-4.4s2.9-1.2 4.8-.9c1.6.3 2.8.9 3.7 1.9.5.6.9 1.4 1.1 2.5-.9.1-1.9.2-2.8.3-.1-.7-.3-1.2-.8-1.7-.4-.5-1-.7-1.7-.9-1-.2-1.8 0-2.6.6-.7.5-1.3 1.6-1.6 3-.3 1.6-.2 2.8.3 3.6s1.3 1.3 2.3 1.5c.8.1 1.5 0 2.1-.3.5-.4 1-1 1.4-1.9z"/><path d="m90.1 197c.4-4.2.9-8.4 1.3-12.7 1.9.2 3.7.3 5.6.4 1.4.1 2.4.2 3.1.5.6.2 1.1.7 1.5 1.2.4.6.6 1.3.6 2 0 1-.3 1.7-.9 2.4-.6.6-1.6 1-2.8 1.1.6.3 1.1.7 1.5 1.1s.9 1.1 1.6 2.1c.6.8 1.2 1.7 1.8 2.5-1.2 0-2.4 0-3.6 0-.7-.9-1.4-1.9-2-2.8-.7-1-1.2-1.7-1.4-1.9-.3-.3-.5-.5-.8-.6s-.8-.2-1.4-.2c-.2 0-.4 0-.6 0-.1 1.8-.3 3.5-.4 5.3-1.1-.2-2.1-.3-3.1-.4zm3.6-7c.7.1 1.4.1 2.1.1 1.3.1 2.2.1 2.5 0s.6-.3.8-.5c.2-.3.3-.6.3-.9 0-.4-.1-.8-.3-1-.2-.3-.6-.4-1-.5-.2 0-.9-.1-2-.1-.7 0-1.4-.1-2.1-.1-.2.8-.3 1.9-.3 3z"/><path d="m103.6 197.7c-.1-4.2-.1-8.5-.2-12.7.9 0 1.8 0 2.7-.1.2 4.2.3 8.5.5 12.7-1 0-2 0-3 .1z"/><path d="m117 192c1 .1 1.9.3 2.9.4-.2 1.4-.8 2.6-1.7 3.4s-2.2 1.3-3.8 1.5c-2 .2-3.6-.3-4.9-1.3-1.3-1.1-2-2.6-2.1-4.6-.1-2.1.4-3.8 1.5-5s2.5-1.9 4.3-2.1c1.6-.2 2.9.1 4.1.9.7.5 1.2 1.2 1.7 2.1-.9.3-1.7.7-2.6 1-.2-.6-.6-1.1-1.2-1.4-.5-.3-1.2-.4-1.9-.4-1 .1-1.8.5-2.3 1.2-.6.7-.8 1.8-.7 3.4s.5 2.7 1.2 3.4c.7.6 1.6.9 2.6.8.8-.1 1.4-.4 1.9-.9.6-.7.9-1.4 1-2.4z"/><path d="m121.9 196c-.7-4.2-1.4-8.4-2.1-12.6.9-.1 1.8-.3 2.6-.5.4 1.9.7 3.7 1.1 5.6 1.5-2.2 2.9-4.5 4.2-6.7 1.2-.3 2.3-.6 3.5-.9-1.1 2.1-2.4 4.1-3.7 6.1 2.4 2.1 4.9 4.1 7.5 6.1-1.2.4-2.5.7-3.8 1-1.8-1.6-3.6-3.2-5.2-4.9-.6.9-1.2 1.7-1.8 2.6.2 1.3.5 2.5.7 3.8-1.1.1-2.1.2-3 .4z"/><path d="m135.2 192.9c-1.2-4.1-2.4-8.1-3.6-12.2 3.2-.9 6.3-2 9.3-3.2.3.7.5 1.3.8 2-2.3.9-4.6 1.7-6.9 2.5.3.9.6 1.8.9 2.7 2.2-.7 4.4-1.5 6.6-2.4.3.7.5 1.3.8 2-2.2.9-4.5 1.7-6.7 2.4.4 1.1.7 2.2 1.1 3.3 2.6-.8 5.2-1.8 7.7-2.8.3.7.5 1.3.8 2-3.6 1.4-7.2 2.7-10.8 3.7z"/><path d="m150.3 187.4c-1.4-3.2-2.9-6.4-4.3-9.7-1.2.6-2.5 1.1-3.7 1.6-.3-.7-.5-1.3-.8-2 3.3-1.3 6.5-2.8 9.7-4.5.3.6.7 1.3 1 1.9-1.2.6-2.4 1.3-3.6 1.8 1.5 3.2 3.1 6.4 4.6 9.5-1.1.5-2 .9-2.9 1.4z"/></g></svg>