<?xml version="1.0" encoding="UTF-8" standalone="no"?>
<svg xmlns:dc="http://purl.org/dc/elements/1.1/" xmlns:cc="http://creativecommons.org/ns#" xmlns:rdf="http://www.w3.org/1999/02/22-rdf-syntax-ns#" xmlns:svg="http://www.w3.org/2000/svg" xmlns="http://www.w3.org/2000/svg" xmlns:sodipodi="http://sodipodi.sourceforge.net/DTD/sodipodi-0.dtd" xmlns:inkscape="http://www.inkscape.org/namespaces/inkscape" width="486" height="309" version="1.1" id="svg670" sodipodi:docname="WestIndiesCricketFlagPre1999.min(1).svg" inkscape:version="0.92.2 (5c3e80d, 2017-08-06)">
  <metadata id="metadata676">
    <rdf:RDF>
      <cc:Work rdf:about="">
        <dc:format>image/svg+xml</dc:format>
        <dc:type rdf:resource="http://purl.org/dc/dcmitype/StillImage"/>
      </cc:Work>
    </rdf:RDF>
  </metadata>
  <defs id="defs674"/>
  <sodipodi:namedview pagecolor="#ffffff" bordercolor="#666666" borderopacity="1" objecttolerance="10" gridtolerance="10" guidetolerance="10" inkscape:pageopacity="0" inkscape:pageshadow="2" inkscape:window-width="1356" inkscape:window-height="819" id="namedview672" showgrid="false" inkscape:zoom="0.76375405" inkscape:cx="81.298729" inkscape:cy="154.5" inkscape:window-x="0" inkscape:window-y="0" inkscape:window-maximized="0" inkscape:current-layer="svg670">
    <sodipodi:guide position="0,0" orientation="0,486" id="guide678" inkscape:locked="false"/>
    <sodipodi:guide position="486,0" orientation="-309,0" id="guide680" inkscape:locked="false"/>
    <sodipodi:guide position="486,309" orientation="0,-486" id="guide682" inkscape:locked="false"/>
    <sodipodi:guide position="0,309" orientation="309,0" id="guide684" inkscape:locked="false"/>
  </sodipodi:namedview>
  <path d="M 0,0 H 486 V 309 H 0 Z" id="path554" inkscape:connector-curvature="0" style="fill:#800000;fill-rule:evenodd;stroke-width:1.00069654"/>
  <path d="M158.048 229.814l-22.655-23.342-2.746-24.715 9.61-29.52 6.18-21.97.686-12.358-1.373-10.985-3.432-10.985-1.373-10.298 12.357-12.357 18.536-15.79 14.418 3.432L205.42 62.3l15.103-4.12 19.91-8.924 6.178 2.06 28.835 10.298 19.91-.687 13.044-4.12 29.52 26.776 3.432 2.06-7.552 18.536-2.06 12.356 6.866 28.148 10.298 32.267 4.806 17.85-4.806 13.73-15.79 19.224-6.866 4.806-166.14 1.373z" fill="#76d7ea" id="path556"/>
  <path d="M244.88 271.672l22.332-12.622 16.99-7.767 21.846-8.738 15.05-8.253 8.252-2.912-166.024.97 17.96 8.253 22.817 9.71 33.01 16.99z" fill="#99d5a6" id="path558"/>
  <path d="M162.114 229.52l-6.375-.062-18.126-16.688.75-5.437 11.437.25z" fill="#76d7ea" id="path560"/>
  <path d="M327.614 224.645l2.563 2.188-7.75 4.25-.688-.188h-2.876l.813-5.937 3.124-1.125z" fill="#bfcbca" id="path562"/>
  <path d="M322.926 225.27l1.813.938 1.75 1.187 1 1.438-3.814 1.812-1.375.25-4.06-.062.124-2.625 1.438-2.125z" fill="#5a7270" id="path564"/>
  <path d="M181.4 67.388a7.972 7.972 0 0 1 2.713-2.8c5.925 4.675 8.325 12.375 10.037 19.4 4.2-8.887 13.238-16.15 23.563-15.775 1.85.963 3.65 2.063 5.4 3.213-.125 5.4-6.025-.063-8.963-.05-8.137 1.187-14.125 8.9-16.312 16.45 3.6-3.175 6.675-7 11.075-9.175h10.525c1.237.35 2.45.75 3.662 1.213 1.55 1.538 3.813 2.838 3.663 5.35-2.5.288-4.6-.962-6.425-2.5-2.775-1.825-7.225-2.062-10.138-.3-2.937 1.688-5.937 3.288-8.625 5.35-1.8 1.6-3.087 3.763-3.95 6 2.15-1.175 4.313-2.962 6.838-1.612-2.1.413-6.65 4.776-1.963 3.9.463.288 1.4.876 1.863 1.163-1.375.863-2.75 1.7-4.05 2.663 2.65 1.1 5.762 1.237 8.125 2.912a40.852 40.852 0 0 1-4.363 1.338l-1.012-.4c-1.138-.438-11.013-.888-7.85 2.687.112.538.325 1.625.437 2.175-.575 2.063 2.788 7.688-1.162 6.388.337-3.363-1.138-6.138-2.663-8.875-.062-.55-.187-1.65-.237-2.2.462-.237 1.412-.712 1.887-.95 3.95-.862 1.575-6.037 1.975-9.05.388-1.924-1-3.074-2.4-4.05-.025 1.913-.05 5.738-.075 7.65-6.15-2.6-12.387-.737-17.725 2.476-2.225 1.475-4.375 3.187-5.725 5.537-1.375.35-2.75.65-4.15.888.138-1.862.45-3.712.788-5.55 2.862-2.424 6.337-3.9 9.525-5.824 4.062-.613 8.175-.85 12.262-1.35.5-2.65-2.337-3.538-4.225-4.413-5.212 0-11.662-.687-15.787 3.325-2.5 1.725-4.313 4.838-7.55 5.175-1.338-7.125 6.437-10.387 12.162-11.837 3.538.1 7.075.2 10.613.312 1.637.413 3.25.95 4.9 1.35-2.463-3.012-5.163-6.2-8.988-7.412-3.762-.2-7.475.737-11.212 1.062.337-1.3.712-2.575 1.162-3.85 2.225-.6 4.788-.612 6.588-2.25 7 .438 11.737 6.575 16.087 11.475-.212-2.025-1.237-3.787-2.3-5.462-3.137-4.362-2.962-10.762-8-13.762z" fill="#78be46" id="path566"/>
  <path d="M193.05 89.85c1.4.976 2.788 2.126 2.4 4.05-.4 3.013 1.975 8.188-1.975 9.05a39.155 39.155 0 0 0-.275-3.187 153.83 153.83 0 0 0-.225-2.262c.025-1.912.05-5.737.075-7.65z" fill="maroon" id="path568"/>
  <path d="M202.188 96.113c3.4-1.25 7.05-1.012 10.625-1.187 4.437 2.025 8.275 6.362 7.3 11.55-3.138.925-4.663-1.213-5.413-3.938-1.475-4.412-6.725-4.862-10.65-5.262l-1.862-1.163z" fill="#77bf8e" id="path570"/>
  <path d="M176.625 103.976c5.625-1.063 10.638-5.35 16.575-4.213.138 1.063.225 2.125.275 3.188-3.125-2.662-6.625-.074-9.625 1.376-.525.25-1.575.737-2.112.975-2.463.463-5.238 1.626-5.238 4.563-1.287 1.213-2.55 2.45-3.737 3.763-3.513 2.925-3.638 7.912-6.25 11.45-2.325-.063-2.225-3.25-2.725-4.913 2.725-6.5 7.15-12.012 12.837-16.187z" fill="#80c192" id="path572"/>
  <path d="M304.375 126.15c.2-1.374-1.55-5.212.9-4.737.088 2.05-.237 4.725 2.725 3.738 2.675.638-.037-2.7 0-3.85 3.463-.962 2.325 2.738 2.3 4.85-1.975.076-4.6 2.35-5.925 0z" fill="#f3e4c1" id="path574"/>
  <path d="M305.275 121.413c.688-.037 2.038-.087 2.725-.112-.037 1.15 2.675 4.488 0 3.85-2.962.988-2.637-1.687-2.725-3.737z" fill="#ebd197" id="path576"/>
  <path d="M263.163 126.55c3-.974 3.975 2.538 3.537 4.813a49.09 49.09 0 0 1-5.075 0c.013-1.75-.237-3.8 1.538-4.812z" fill="#ebd0a5" id="path578"/>
  <path d="M194.275 132.6l1.125.138c.025 2.475.013 4.95.025 7.425-.037 7.5-.062 14.988 0 22.488-.025 2.5.013 5 0 7.5h-1.237c-.075-12.512-.05-25.037.087-37.55z" fill="#ca7977" id="path580"/>
  <path d="M194.188 170.15h1.237c.05 5.538-.05 11.1-1.025 16.576-.1-4.288-.212-8.55-.262-12.825l.05-3.75z" fill="#ae7972" id="path582"/>
  <path d="M234.638 204.526c7.85.825 12.2-9.138 20.312-6.313 5.425 1.263 13.163-1.187 16.763 4.338-5.475-.6-10.975-1.174-16.488-1.25l-1.012-.174c-4.35-2.438-8.05-1.088-10.213 2.65-4.037 1.275-8.287 2.037-11.962 4.25-3.263 3.3-4.35 9.825-10.263 8.55 2.45-2.988 6.288-4.85 7.338-8.838 1.712-1.275 3.437-2.612 5.525-3.212z" fill="#cedcde" id="path584"/>
  <path d="M244 203.776c2.163-3.738 5.863-5.088 10.213-2.65-.963.837-1.9 1.712-2.813 2.6-2.212 3.162-4.95 2.687-7.4.05z" fill="#c2d1d2" id="path586"/>
  <path d="M251.4 203.726a69.222 69.222 0 0 1 2.813-2.6l1.012.175c6.263.026 12.038 1.9 15.6 7.126 4.863-1.325 9.875 4.387 14.35 1.562 2-1.375 4.375.038 6.538.138.562.362 1.687 1.075 2.25 1.437 3.512 3.488 8.212 2.825 12.637 3.488.263.363.788 1.088 1.05 1.463 1.775 4.188 8.163 2.85 11.95 4.488.263.376.788 1.1 1.05 1.463l-.237 1.2c-1.938.625-3.863 1.3-5.863 1.663.238-1.225.45-2.45.65-3.688-3.537-1.675-7.212-.825-10.887-.425-3.925-1.937-8.038-4.837-12.675-2.475-4.713 2.5-9.538-1.175-14.175-1.887-1.513-1.624-3.2-3.062-5.463-3.45-5.187-2.174-11.412-1.962-16.437.563-4.3 2.013-8.288-1.7-12.713-.287l.05-7.213c3.025 1.913 5.538 5.6 9.538 5.05-.15-1.712-.938-3.862 1.4-4.375-.738-1.187-1.625-2.287-2.438-3.412z" fill="#9aaeb1" id="path588"/>
  <path d="M255.225 201.3c5.513.076 11.013.65 16.488 1.25-.225 4.376 3.637 4.45 6.525 2.45 3.262.163 6.462.813 9.637 1.526 1.175 1.3 2.5 2.462 3.838 3.6-2.163-.1-4.538-1.513-6.538-.138-4.475 2.825-9.487-2.887-14.35-1.562-3.562-5.225-9.337-7.1-15.6-7.125z" fill="#adbfc3" id="path590"/>
  <path d="M271.713 202.55c.612.026 1.825.076 2.437.1 1.338.8 2.725 1.563 4.088 2.35-2.888 2-6.75 1.926-6.525-2.45z" fill="#cbd9db" id="path592"/>
  <path d="M274.15 202.65c4.763.388 11.2-1.3 13.725 3.876-3.175-.713-6.375-1.363-9.637-1.525-1.363-.787-2.75-1.55-4.088-2.35z" fill="#e5edef" id="path594"/>
  <path d="M232.038 208.026c3.675-2.213 7.925-2.975 11.962-4.25 2.45 2.637 5.188 3.112 7.4-.05.813 1.125 1.7 2.225 2.438 3.412-2.338.513-1.55 2.663-1.4 4.375-4 .55-6.513-3.137-9.538-5.05l-.05 7.213c-1.35.287-2.662.675-3.95 1.162-3.112 1.325-6.162 2.975-9.637 3.063-2.425-.874-4.663.288-6.425 1.888l-1.35.125c.075-.837.212-2.5.287-3.337 5.913 1.275 7-5.25 10.263-8.55z" fill="#aabdc1" id="path596"/>
  <path d="M255.563 213.963c5.025-2.525 11.25-2.737 16.437-.562-2.537.738-5.15 1.213-7.675 1.988-.35 1.775 1.838 4.913-1.012 5.163-5.075.676-6.563 6.013-9.275 9.638-3.363-.212-6.575-1.412-9.788-2.375.4-3.512-2.2-6.037-4.95-7.712-5.812 3.75-9.45 11.888-17.537 10.176l1.15 2.4c-6.825-.063-13.713.312-20.45-1.1.9-.075 2.687-.225 3.575-.288-.5-2.712 2.65-3.3 4.475-4.387 1.7 1.388 3.287 2.95 5.125 4.176 4.037-1.313 11.312-3.025 7.887-9.213-.175-.512-.512-1.55-.687-2.075 2.362 1.063 5.412.863 6.425-1.887 3.475-.087 6.525-1.737 9.637-3.062 3.3.038 6.95 0 8.35 3.563 3.275.576 6.488-1.75 8.313-4.437z" fill="#7e9294" id="path598"/>
  <path d="M293.963 211.563c4.587.15 10.525-1.8 12.637 3.488-4.425-.662-9.125 0-12.637-3.487z" fill="#d0e1e1" id="path600"/>
  <path d="M242.85 213.676c4.425-1.413 8.413 2.3 12.713.287-1.825 2.688-5.038 5.013-8.313 4.438-1.4-3.562-5.05-3.524-8.35-3.562 1.288-.487 2.6-.875 3.95-1.162z" fill="#8e9ea1" id="path602"/>
  <path d="M264.325 215.388c2.525-.775 5.138-1.25 7.675-1.987 2.263.388 3.95 1.826 5.463 3.45 4.637.713 9.462 4.388 14.175 1.888-1.675 4.5-7.163 1.975-10.9 2.875.887 5.15-3.8 5.388-7.663 5.925-2.825-3.7-7.687-5.162-12.275-4.65-1.912 2.888-2.012 8.488-6.762 7.3 2.712-3.625 4.2-8.962 9.275-9.637 2.85-.25.662-3.387 1.012-5.162z" fill="#77878a" id="path604"/>
  <path d="M307.65 216.513c3.888 1.488 9.325 1.013 11.95 4.488-3.787-1.637-10.175-.3-11.95-4.487z" fill="#cbd8d8" id="path606"/>
  <path d="M222.838 219.788c1.762-1.6 4-2.762 6.425-1.887-1.013 2.75-4.063 2.95-6.425 1.888z" fill="#8ea5ab" id="path608"/>
  <path d="M291.638 218.738c4.637-2.362 8.75.538 12.675 2.475 3.675-.4 7.35-1.25 10.887.425a119.53 119.53 0 0 1-.65 3.688c2-.363 3.925-1.038 5.863-1.663.65.425 1.937 1.25 2.575 1.675l-.563.975c-.55.275-1.675.825-2.237 1.1l-1.988-.1c-4.862-.862-9.225-3.25-13.75-4.712-.787 3.188.95 9.213-6.425 5.038-3.087.65.4-7.275-3.375-4.287-4.712 3.45-12.575 1.288-14.425 8.013-9.525.1-19.05-.025-28.562.05-6.3-.112-12.588.238-18.863-.125.4-6.487 7.275-3.837 11.45-3.475 3.213.963 6.425 2.163 9.788 2.375 4.75 1.188 4.85-4.412 6.762-7.3 4.588-.512 9.45.95 12.275 4.65 3.863-.537 8.55-.775 7.663-5.925 3.737-.9 9.225 1.625 10.9-2.875z" fill="#697e80" id="path610"/>
  <path d="M215.425 223.676c1.45-2.113 3.325-3.85 6.063-3.763-1.225 2.138.95 3.438 1.587 5.288-2.587-.25-5.1-.987-7.65-1.524z" fill="#acbfc3" id="path612"/>
  <path d="M221.488 219.913l1.35-.125c.175.525.512 1.563.687 2.075 3.425 6.188-3.85 7.9-7.887 9.213-1.838-1.225-3.425-2.788-5.125-4.175 2.062-.424 3.95-1.212 4.912-3.224 2.55.537 5.063 1.275 7.65 1.525-.637-1.85-2.812-3.15-1.587-5.287z" fill="#8da2a4" id="path614"/>
  <path d="M221.763 230.276c8.087 1.712 11.725-6.425 17.537-10.175 2.75 1.676 5.35 4.2 4.95 7.713-4.175-.362-11.05-3.012-11.45 3.475 6.275.363 12.563.013 18.863.125l.012 1.225c-3.387.038-6.775.088-10.15.138h-1.012c-5.875-.125-11.725-.075-17.6-.1l-1.15-2.4z" fill="#718b88" id="path616"/>
  <path d="M294.65 223.35c3.775-2.987.288 4.938 3.375 4.288 7.375 4.175 5.638-1.85 6.425-5.037 4.525 1.463 8.888 3.85 13.75 4.713-3.737 2.438-8.3-.637-11.712 2.35 1.825.488 3.675.938 5.487 1.488-3.775.026-7.5.2-11.262.1-3.038-3.824-11.138-5.124-13.088.076-2.475.05-4.937.062-7.4.037 1.85-6.725 9.713-4.562 14.425-8.012z" fill="#5a7170" id="path618"/>
  <path d="M320.65 222.463c2.65.088 5.225.713 7.288 2.45-1.65.138-3.3.275-4.95.425-.638-.425-1.925-1.25-2.575-1.675z" fill="#becbca" id="path620"/>
  <path d="M202.463 231.576c1.55-5.788 7.637-7.663 12.962-7.9-.962 2.012-2.85 2.8-4.912 3.225-1.825 1.088-4.975 1.676-4.475 4.388-.888.063-2.675.213-3.575.288z" fill="#b4bdc1" id="path622"/>
  <path d="M287.625 231.326c1.95-5.2 10.05-3.9 13.088-.075-1.7.076-3.388.176-5.088.288-2.662-.062-5.337-.15-8-.212z" fill="#4c6865" id="path624"/>
  <path d="M306.488 229.663c3.412-2.987 7.975.088 11.712-2.35l1.988.1c2.512 2.575-.25 3.138-2.55 3.825-1.9.038-3.775 0-5.663-.087-1.812-.55-3.662-1-5.487-1.487z" fill="#4c645e" id="path626"/>
  <path d="M251.663 231.413c9.512-.075 19.037.05 28.562-.05 2.463.025 4.925.013 7.4-.037 2.663.062 5.338.15 8 .212-.437.325-1.337 1-1.787 1.325a533.51 533.51 0 0 0-14.825-.175c-9.125-.1-18.238-.012-27.338-.05z" fill="#68a787" id="path628"/>
  <path d="M206.363 241.613c2.125-4.5 7.225-1.312 10.475.188-.875 3.863-6.75.388-9.85 1.9-.15-.524-.475-1.562-.625-2.087z" fill="#d9f1d2" id="path630"/>
  <path d="M259.54 78.367l-3.842-1.857-3.7 2.128.57-4.247-3.156-2.88 4.194-.767 1.75-3.91 2.02 3.774 4.238.465-2.944 3.1zM291.766 84.564l-3.84-1.858-3.7 2.13.57-4.25-3.158-2.88 4.194-.767 1.75-3.91 2.02 3.774 4.238.464-2.944 3.1zM311.304 128.733l-3.842-1.857-3.7 2.13.57-4.25-3.157-2.88 4.194-.767 1.748-3.91 2.022 3.773 4.238.465-2.944 3.1zM267.803 134.03l-3.842-1.86-3.7 2.13.57-4.247-3.156-2.88 4.194-.768 1.75-3.91 2.02 3.774 4.24.464-2.946 3.1zM289.886 99.332l-2.174-1.143-2.095 1.31.323-2.615-1.787-1.773 2.374-.472.99-2.406 1.144 2.322 2.4.286-1.667 1.908zM281.28 100.246l-2.175-1.143-2.094 1.31.323-2.614-1.787-1.774 2.374-.472.99-2.406 1.145 2.322 2.398.286-1.666 1.908zM281.186 109.168l-2.175-1.144-2.093 1.31.323-2.614-1.787-1.773 2.374-.472.99-2.406 1.144 2.32 2.4.287-1.667 1.908zM284.968 116.733l-2.174-1.143-2.094 1.31.322-2.615-1.786-1.772 2.373-.473.99-2.406 1.144 2.323 2.398.286-1.666 1.907zM288.86 125.433l-2.175-1.143-2.094 1.31.324-2.614-1.787-1.773 2.374-.472.99-2.405 1.145 2.322 2.4.286-1.668 1.908zM272.107 103.115l-2.174-1.143-2.094 1.31.32-2.614-1.786-1.773 2.374-.473.99-2.405 1.145 2.322 2.398.285-1.665 1.908z" fill="#f7c02d" fill-rule="evenodd" id="path632"/>
  <path d="M194.404 184.354c-.123-2.86-.24-10.995-.183-12.6l.058-1.585H195.385l-.002 2.292c-.004 4.312-.186 7.83-.576 11.088-.3 2.518-.326 2.568-.402.804z" fill="#ca7978" fill-rule="evenodd" id="path634"/>
  <path d="M212.87 130.76c-2.196-.78-3.23-2.12-5.995-7.77-1.616-3.3-5.324-9.624-6.823-11.635-1.162-1.557-2.54-3.058-4.364-4.752-.55-.513-1.088-1.097-1.192-1.298-.624-1.21 1.588-1.998 5.52-1.964 1.45.014 1.385.072-.215.194-.643.048-1.17.13-1.17.18 0 .05.8 1.112 1.776 2.362 6.28 8.04 9.462 13.263 11.572 18.998.62 1.685 1.674 5.438 1.608 5.73-.037.164-.142.158-.716-.045zM213.655 113.6c-2.648-3.096-5.998-6.477-8.716-8.797-.886-.756-1.052-.954-.862-1.026 1.304-.497 3.862-1.185 4.063-1.09.72.333 5.635 5.11 7.78 7.56l.775.882-.663 1.672c-.364.92-.745 1.83-.846 2.023l-.183.35zM193.98 117.44c-.034-.093-.33-1.282-.662-2.643-.762-3.143-1.23-5.64-1.33-7.088l-.08-1.138.93 1.873c1.077 2.165 1.46 3.47 1.57 5.37l.082 1.358.398.08c.678.135.876.09 1.243-.276.32-.318.35-.427.283-1.036-.1-.927-.138-1.145-.48-2.71-.163-.747-.277-1.56-.253-1.805.04-.413.1-.338.793 1.026.735 1.446 1.118 2.46 1.5 3.976l.195.765-1.357.96c-1.82 1.288-2.686 1.682-2.83 1.29zM228.923 98.723c-1.64-.593-3.056-1.27-5.818-2.774-4.522-2.466-6.33-3.258-8.693-3.806-1.783-.414-4.485-.433-7.875-.055-2.004.222-2.39.233-2.808.077-.585-.22-1.55-.366-1.662-.253-.045.044-.323.093-.62.107-.55.028-2.89 1.096-3.342 1.526-.238.227-.545.348-.545.216 0-.04.093-.253.207-.472.113-.22.173-.452.133-.517-.04-.065-.023-.14.038-.163.062-.025.34-.436.617-.915.706-1.215 1.56-2.382 2.19-2.99l.536-.517.088.918c.142 1.5-.143 1.464 3.348.427 4.098-1.218 5.356-1.47 7.383-1.484l1.632-.012.775.54c2.045 1.43 4.657 2.184 6.258 1.81.504-.12.63-.077 2.206.742 2.834 1.472 5.46 3.636 6.393 5.265.42.734.887 2.23.806 2.58-.034.143-.315.086-1.247-.252z" fill="#78be8d" fill-rule="evenodd" id="path636"/>
  <path d="M272.643 232.664c-20.573-.07-20.796-.076-20.796-.603 0-.528.2-.532 21.732-.53h21.732l-.802.658c-.442.36-.863.632-.937.602-.073-.03-9.492-.087-20.93-.126z" fill="#99d5a6" fill-rule="evenodd" id="path638"/>
  <path fill="#99d5a6" fill-rule="evenodd" d="M161.776 230.91h163.97v1.89h-163.97z" id="path640"/>
  <path d="M193.566 175.472v-55.475h2.685v110.95H193.565z" fill="maroon" fill-rule="evenodd" id="path642"/>
  <path d="M193.576 120.042c.1-.702.167-1.07.167-1.07l.1-.502.2-.2.235-.402.268-.234.334-.067.368.1.2.168.2.3.102.235.133.3.134.37v.333l.033.3.067.135.034.3-2.574-.066z" fill="maroon" fill-rule="evenodd" id="path644"/>
  <path d="M240.492 273.99c-2.522-1.998-8.064-5.213-14.996-8.7-6.01-3.023-28.915-13.572-40.037-18.44-22.59-9.888-32.757-14.902-37.36-18.43-7.95-6.088-14.677-15.437-18.355-25.51-2.892-7.923-1.248-18.456 5.75-36.832 4.097-10.753 6.655-20.132 9.037-33.13 3.71-20.235 2.993-26.73-4.682-42.484l-2.47-5.067.847-.845c.465-.465 8.432-7.358 17.706-15.318 14.122-12.123 17.017-14.446 17.824-14.305.53.092 3.567.796 6.748 1.564 9.288 2.242 16.872 3.364 22.788 3.37 6.61.007 15.604-3.29 29.68-10.88 3.16-1.705 6.083-3.313 6.494-3.574.64-.405 1.084-.27 3.024.91 6.99 4.26 19.052 9.686 26.142 11.762 8.858 2.593 20.32 2.09 34.256-1.503l5.078-1.31 1.353.922c2.575 1.755 21.225 16.745 34.153 27.45.674.56.63.752-.98 4.288-2.298 5.057-5.763 14.16-6.483 17.038-1.62 6.476.38 21.937 4.832 37.372.984 3.41 4.068 13.04 6.854 21.4 6.956 20.875 8.595 27.746 8.144 34.152-.692 9.817-8.56 22.265-19.145 30.282-4.31 3.264-12.1 7.264-27.837 14.292-43.222 19.3-57.653 26.354-64.358 31.456-1.073.817-2.022 1.476-2.11 1.465-.086-.012-.94-.64-1.898-1.398zm3.804-5.586c2.086-1.68 8.52-5.495 13.797-8.18 4.72-2.402 28.752-13.46 45.355-20.872 8.596-3.837 19.305-8.9 23.293-11.017 2.21-1.172 6.42-4.45 9.065-7.06 7.364-7.266 14.02-20.193 13.978-27.155-.03-5.14-2.67-15.625-6.337-25.15-3.912-10.166-5.147-13.904-7.654-23.16-4.503-16.623-6.292-26.477-6.014-33.13.26-6.198 2.65-14.897 6.802-24.755l.577-1.37-8.77-7.436c-4.826-4.09-11.516-9.762-14.868-12.605l-6.096-5.168-6.636 1.208c-12.81 2.333-20.546 3.044-26.182 2.41-6.074-.686-13.978-3.456-25.942-9.09-3.61-1.7-6.825-3.174-7.144-3.273-.32-.1-3.126 1.05-6.237 2.552-6.905 3.337-15.384 6.81-20.236 8.287-8.32 2.536-15.696 2.34-33.44-.883l-6.64-1.207-5.086 4.357c-2.796 2.396-9.413 8.06-14.702 12.588l-9.617 8.23 1.906 4.698c2.457 6.058 3.947 10.717 5.04 15.767 1.497 6.91.743 15.59-2.72 31.278-2.645 11.995-4.79 18.87-8.615 27.616-4.882 11.165-6.87 18.92-6.846 26.698.014 4.55.128 5.39 1.11 8.233 3.222 9.34 9.81 18.517 17.5 24.385 3.785 2.89 13.1 7.534 31.334 15.625 36.73 16.298 50.244 22.913 55.805 27.317.958.758 1.976 1.388 2.264 1.4.287.012 1.17-.502 1.96-1.138z" fill="#f7912d" fill-rule="evenodd" id="path646"/>
  <path d="M243.494 241.89c2.125-4.5 7.225-1.312 10.475.188-.876 3.862-6.75.387-9.85 1.9-.15-.525-.476-1.563-.626-2.088zM242.403 254.64c2.125-4.5 7.225-1.31 10.475.19-.875 3.86-6.75.386-9.85 1.9-.15-.526-.475-1.564-.625-2.09zM225.583 251.21c2.125-4.5 7.225-1.314 10.475.186-.875 3.863-6.75.388-9.85 1.9-.15-.525-.475-1.562-.625-2.087zM226.016 239.096c2.125-4.5 7.225-1.312 10.475.188-.874 3.862-6.75.387-9.85 1.9-.15-.525-.474-1.563-.624-2.088zM188.758 240.067c2.125-4.5 7.225-1.312 10.475.188-.875 3.862-6.75.387-9.85 1.9-.15-.525-.475-1.563-.625-2.088zM260.632 245.73c2.125-4.5 7.225-1.313 10.475.187-.875 3.862-6.75.387-9.85 1.9-.15-.525-.475-1.563-.625-2.088zM273.64 238.508c2.125-4.5 7.225-1.313 10.475.187-.875 3.863-6.75.388-9.85 1.9-.15-.525-.475-1.562-.625-2.087zM293.55 235.762c2.125-4.5 7.225-1.313 10.475.187-.875 3.862-6.75.387-9.85 1.9-.15-.526-.475-1.563-.625-2.088z" fill="#d9f1d2" id="path648"/>
  <path d="M197.614 114.708l-1.063-3.688-.75-1.812-.25-1-3.31-2.563h-.44l.19 2.375 1.124 3.875 1.25 4.125z" fill="#78be8d" id="path650"/>
  <path d="M201.05 90.02l.25-1.437-.124-1.25-3.812 2.687.437 3.438 3.5-1.25z" fill="#77bf8e" id="path652"/>
  <path d="M182.176 105.02l-1.937 1.313-2.75 2.187-1.25 1.563-1.376-.438 1.375-2.812 2.81-1.625z" fill="#77bf8f" id="path654"/>
  <path d="M175.48 109.836l-.614-.198.696-1.407.695-1.405 1.4-.803 1.398-.804 1.393-.09c.766-.048 1.443-.08 1.505-.07.07.01-.226.242-.78.61-.492.327-1.526 1.098-2.3 1.714-1.242.988-1.468 1.196-1.93 1.78-.29.365-.557.712-.595.772-.09.144-.146.137-.87-.098z" fill="#78be8d" fill-rule="evenodd" id="path656"/>
  <path d="M175.498 109.847c-.327-.106-.602-.2-.61-.207-.01-.008.292-.646.67-1.415l.69-1.4 1.39-.805 1.39-.805 1.25-.083a41.56 41.56 0 0 1 1.532-.082c.24 0 .265.012.165.075-.79.507-2.098 1.463-3.165 2.315-1.292 1.03-1.67 1.403-2.268 2.244-.14.198-.3.36-.354.357-.053 0-.364-.088-.69-.193z" fill="#78be8d" fill-rule="evenodd" id="path658"/>
  <path d="M175.507 109.857a6.68 6.68 0 0 1-.61-.205c-.013-.014.28-.656.655-1.426l.68-1.4 1.43-.822 1.43-.82 1.455-.08c.8-.04 1.468-.063 1.485-.047.016.016-.26.22-.612.456-.865.575-1.387.962-2.64 1.96-1.187.942-1.547 1.292-2.113 2.05-.214.286-.43.52-.482.517a6.493 6.493 0 0 1-.678-.183z" fill="#78be8d" fill-rule="evenodd" id="path660"/>
  <path d="M165.994 124.958c-.335-.09-.58-.254-.884-.59-.438-.484-.66-1.132-1.05-3.07l-.23-1.153.245-.566c.893-2.064 2.26-4.493 3.627-6.45 1.355-1.937 2.548-3.35 4.353-5.152 1.468-1.465 2.158-2.08 3.614-3.227l.952-.748.64-.14c1.104-.244 2.927-.888 5.454-1.927 1.34-.55 2.834-1.144 3.32-1.317.997-.355 2.393-.722 3.274-.858.942-.147 2.36-.18 3.144-.072.37.05.686.102.7.116.08.08.32 3.084.24 3.034-.03-.018-.24-.16-.467-.312-1.022-.686-2.274-.894-3.67-.61-1.04.213-1.932.587-4.26 1.785-.635.328-1.52.764-1.968.97-.752.346-.847.375-1.256.374-.243 0-.954.03-1.58.067l-1.14.068-1.387.795-1.388.795-.703 1.404c-.386.772-.703 1.423-.703 1.448 0 .024.287.134.64.244.352.11.646.205.654.21.008.005-.973 1.006-2.18 2.224-1.38 1.392-2.364 2.44-2.65 2.823-.854 1.138-1.4 2.26-2.538 5.226-.88 2.292-1.264 3.11-1.96 4.18-.365.556-.373.56-.846.432z" fill="#78be8d" fill-rule="evenodd" id="path662"/>
  <path d="M206.96 123.09c-1.077-2.154-2.88-5.376-4.556-8.14-2.287-3.77-3.108-4.82-6.072-7.757-.94-.932-1.71-1.683-1.71-1.67 0 .06.218.445.384.678.15.21.227.48.462 1.607.27 1.292.3 1.387.63 2 .49.913 1.032 2.097 1.305 2.86.225.626.722 2.338.717 2.47 0 .034-.12.145-.265.246-1.788 1.24-2.318 1.587-2.826 1.85-.695.362-.922.393-1.023.14-.135-.342-.91-3.576-1.315-5.492-.332-1.567-.652-3.564-.726-4.524-.04-.513-.245-2.536-.318-3.137l-.036-.295.99-.493c.544-.27 1.125-.53 1.29-.575.415-.113.997-.502 1.236-.826.712-.966.83-2.165.49-5.05a22.49 22.49 0 0 1-.118-3.592c.02-.5.003-.695-.09-.97-.17-.495-.58-1.094-1.075-1.567-.42-.4-1.18-.994-1.273-.994-.025 0-.06 1.69-.08 3.753-.017 2.063-.047 3.767-.066 3.786-.02.02-.297-.063-.617-.182-3.933-1.464-8.286-1.248-12.927.642-2.94 1.197-5.584 2.873-7.574 4.802-.878.85-1.355 1.41-1.93 2.266-.204.302-.42.563-.48.582-.336.102-2.043.487-2.8.63-.48.09-.94.182-1.024.202l-.15.037.045-.556c.11-1.382.674-4.882.804-5 1.073-.962 2.955-2.166 5.952-3.808.928-.508 2.096-1.157 2.594-1.442l.906-.518 1.438-.19c1.612-.21 2.687-.33 6.344-.693 1.392-.14 2.967-.303 3.5-.362l.968-.108.04-.28c.108-.804-.204-1.643-.84-2.264-.5-.488-1.116-.86-2.416-1.462l-1.01-.468-3.168-.006c-3.275-.007-4.16.034-5.784.267-.926.133-2.214.442-2.978.714-1.23.44-2.576 1.214-3.47 1.997-.24.21-.675.57-.967.796-.293.227-1.08.927-1.75 1.555-2.15 2.016-3 2.608-4.284 2.986-.24.07-.547.137-.683.148-.247.02-.247.018-.302-.263-.1-.51-.077-1.985.04-2.583.464-2.364 2.053-4.335 4.865-6.032 1.335-.805 3.462-1.716 5.394-2.31 1.964-.6 1.162-.56 7.265-.376l5.36.16 1.56.45c2.09.6 3.17.886 3.206.85.017-.018-.246-.363-.584-.768-2.97-3.562-5.193-5.425-7.62-6.383-.78-.31-1.416-.363-3.087-.266-1.384.08-2.238.176-4.82.537-2.352.33-3.917.51-3.97.457-.073-.073.954-3.528 1.104-3.715.03-.04.133-.085.226-.1.96-.17 3.124-.65 3.642-.81l.653-.2 3.267-.02 3.265-.02.79.41c1.978 1.023 3.975 2.59 6.148 4.82.817.84 3.174 3.442 4.278 4.726.17.197.327.36.35.36.06 0-.05-.643-.225-1.308-.308-1.166-.923-2.406-2.14-4.314a19.578 19.578 0 0 1-1.462-2.71c-.274-.634-.737-1.843-.737-1.928 0-.03 1.066-.054 2.368-.054h2.37l.073.203c.596 1.67 1.314 4.065 1.85 6.172.16.635.314 1.194.338 1.24.03.056.216-.236.53-.832a30.217 30.217 0 0 1 4.182-6.08l.622-.704h5.197l-.596.61c-2.218 2.264-4.175 5.356-5.45 8.61-.328.837-.81 2.285-.772 2.323.03.03 1.058-.927 3.134-2.92 3.616-3.47 5.1-4.665 7.324-5.896l.635-.35H219.4l.925.283c1.16.356 2.67.886 2.778.976.065.053.082.542.082 2.342v2.274l-.328-.164c-.603-.302-1.072-.604-1.89-1.216-.892-.667-1.376-.952-2.107-1.24-2.49-.983-5.517-.976-7.8.018-.456.2-3.99 2.2-5.563 3.15-1.494.905-3.413 2.203-4.052 2.744l-.21.177.1.992c.115 1.173.165 1.288.555 1.286.313 0 .467-.04 3.42-.892 3.756-1.082 4.678-1.256 7.002-1.324l1.346-.04.81.543c1.258.84 2.384 1.36 3.655 1.688.552.143.794.17 1.53.175a23.27 23.27 0 0 0 1.313-.025l.438-.03.875.438.874.437.016 2.328c.01 1.282 0 2.33-.02 2.33s-.814-.414-1.766-.92c-6.005-3.188-8.195-3.615-15-2.923-.835.085-1.7.155-1.92.155-.5 0-.88.16-1.746.733-.79.523-1.874 1.587-2.115 2.076-.092.188-.168.436-.168.55 0 .267.218.493.53.552.4.075 1.28-.017 1.797-.187 1.743-.573 3.622-.802 7.553-.92l2.536-.076.684.36c3.515 1.863 5.838 4.675 6.536 7.912.138.637.177 2.18.073 2.87l-.052.34-.31.08c-1.124.29-2.194.107-3.047-.52-.73-.535-1.428-1.685-1.892-3.114-.61-1.885-1.57-3.04-3.28-3.96-1.308-.7-3.037-1.15-5.656-1.473-.722-.09-1.405-.16-1.52-.16-.154 0-.5.185-1.405.755-.93.584-2.45 1.603-2.665 1.785-.014.012-.01.038.01.058.1.1 1.62.578 3.07.967 2.063.552 2.835.805 3.697 1.213.696.33 1.338.706 1.28.75-.016.013.18.2.438.415 1.382 1.154 4.854 4.572 6.563 6.46l1.07 1.182.225.25-.618 1.528c-.34.84-.715 1.737-.834 1.993l-.215.467-.608-.708a103.843 103.843 0 0 0-6.304-6.74c-1.248-1.223-3.772-3.508-3.924-3.554a30.25 30.25 0 0 1-.697-.26c-.613-.234-.93-.292-2.25-.407-.25-.023-.86.003-1.42.06-.93.093-1.174.135-1.174.202 0 .07.512.76 2.143 2.885 5.156 6.72 7.84 10.882 9.83 15.244.413.903.964 2.218.964 2.3 0 .016-.914.03-2.03.03h-2.032l-.538-1.08zm-8.212-29.956c0-.017-.085.013-.188.066-.103.053-.187.11-.187.128 0 .017.084-.012.187-.065.103-.054.188-.11.188-.13z" fill="#78be8d" fill-rule="evenodd" id="path664"/>
  <path d="M212.586 130.558c-1.857-.764-2.657-1.805-5.34-6.948-3.49-6.686-6.377-11.435-8.36-13.75-.952-1.113-4.033-4.25-4.173-4.25-.054 0 .02.235.167.52.146.287.405 1.085.575 1.773.17.688.51 1.65.754 2.135 1.02 2.025 2.056 4.996 1.815 5.205-.33.284-2.56 1.758-2.994 1.977-.948.48-.965.463-1.395-1.328-1.123-4.685-1.546-7.048-1.773-9.907-.08-.997-.17-1.855-.202-1.908-.032-.053.635-.425 1.482-.828.847-.403 1.692-.894 1.877-1.092.814-.87.95-1.88.675-5.007-.11-1.25-.2-2.813-.2-3.474 0-1.3-.1-1.613-.79-2.47-.37-.463-1.416-1.346-1.592-1.346-.05 0-.132 1.68-.182 3.733l-.09 3.732-1.098-.34c-1.857-.578-2.656-.688-4.935-.68-1.944.007-3.893.234-4.33.504-.068.04-.3.102-.516.136-.584.093-2.492.807-3.846 1.44-3.31 1.55-6.053 3.635-7.92 6.026l-.815 1.044-.85.19c-2.167.487-2.915.626-2.987.554-.084-.084.22-2.517.53-4.24l.196-1.088.643-.482c.354-.265.84-.624 1.082-.798.558-.404 2.838-1.743 5.602-3.29l2.165-1.21 2.023-.24c1.112-.13 3.84-.428 6.06-.662 2.22-.234 4.062-.45 4.092-.48.088-.088.105-.883.027-1.24-.22-1.01-.9-1.65-2.738-2.572-1.618-.812-1.994-.85-6.73-.672-4.44.166-6.085.496-8.25 1.654-1.178.63-1.856 1.148-4.056 3.107-3.155 2.807-4.13 3.46-5.266 3.53l-.492.03-.036-1.11c-.047-1.423.124-2.224.734-3.442 1.155-2.308 3.617-4.176 7.565-5.742 2.574-1.02 3.196-1.143 5.794-1.14 1.274.003 3.78.056 5.57.12l3.252.115 2.29.642c1.257.354 2.32.61 2.358.572.23-.23-3.575-4.283-5.113-5.45a16.05 16.05 0 0 0-2.226-1.363l-1.186-.577-2.126.01c-1.627.01-2.8.102-5 .4-1.582.212-3.194.424-3.584.47l-.708.083.115-.514c.174-.77.876-2.93 1.006-3.09.062-.077.464-.207.892-.29a31.616 31.616 0 0 0 1.967-.48c1.13-.313 1.356-.33 4.687-.37l3.5-.04 1.125.644c2.384 1.37 4.462 3.163 7.33 6.33.92 1.015 1.99 2.183 2.382 2.596l.71.75-.064-.562c-.144-1.252-.737-2.555-2.577-5.662-.777-1.31-1.845-3.627-1.845-4 0-.048 1.03-.088 2.292-.088h2.29l.576 1.782c.317.98.818 2.667 1.115 3.75.297 1.082.595 1.95.663 1.927.07-.024.52-.728 1-1.566a32.435 32.435 0 0 1 3.34-4.798l.912-1.092 2.556-.002 2.556-.002-.43.467c-.238.257-.473.486-.523.51-.374.174-2.527 3.19-3.23 4.523-.235.447-.463.84-.505.875-.404.326-2.295 5.207-1.976 5.1.063-.02 1.282-1.14 2.71-2.485 3.927-3.707 5.11-4.69 7.133-5.92l1.14-.695 5.347.004 5.347.003 1.75.592 1.75.592.034 2.217c.02 1.22.003 2.217-.036 2.217-.167 0-.92-.452-2.172-1.303-2.032-1.383-3.512-1.85-5.887-1.864-2.53-.014-3.31.27-7.625 2.76-1.828 1.054-5.05 3.122-5.855 3.757-.278.22-.287.278-.202 1.26.1 1.158.265 1.432.785 1.317.184-.04 1.607-.432 3.163-.867 3.903-1.093 4.408-1.19 6.56-1.27l1.89-.072.736.5c1.106.75 2.17 1.25 3.433 1.61.96.277 1.312.32 2.28.272 1.012-.05 1.228-.02 1.83.246 2.383 1.05 5.562 3.394 6.806 5.018.76.994 1.608 3.262 1.22 3.262-.49 0-3.09-1.146-6.02-2.657-7.305-3.762-8.462-4.21-11.587-4.468-1.543-.128-1.895-.116-5.978.206-2.37.187-2.54.217-3.25.59-1.018.53-2.62 2.114-2.735 2.703-.07.362-.037.478.19.664.34.277.914.232 2.757-.216 1.89-.46 2.656-.556 5.485-.694 4.146-.2 3.88-.228 5.15.523 3.084 1.822 5.12 4.27 5.904 7.1.217.783.337 3.514.162 3.69-.04.04-.465.104-.946.144-2.005.17-3.254-.842-4.18-3.383-.57-1.563-1.067-2.392-1.906-3.177-1.323-1.237-3.304-2.002-6.36-2.456-2.595-.385-2.38-.432-4.552.994-1.047.688-1.905 1.283-1.906 1.322-.002.09 1.497.573 3.874 1.252 2.625.75 3.8 1.34 5.25 2.634 1.13 1.012 5.42 5.308 6.684 6.696l.595.654-.21.533c-.63 1.608-1.38 3.346-1.443 3.346-.04 0-.832-.857-1.757-1.903-2.366-2.676-4.856-5.213-7.15-7.285-2.12-1.916-2.395-2.072-4.076-2.31-.69-.097-3.22.033-3.362.174-.032.032 1.263 1.82 2.878 3.972 6.77 9.025 9.485 13.927 11.335 20.473.566 2.005.717 2.755.552 2.75-.06 0-.434-.136-.83-.3z" fill="#78be46" fill-rule="evenodd" id="path666"/>
  <path d="M165.807 124.842c-.885-.497-1.243-1.22-1.683-3.395l-.273-1.35.768-1.587c2.057-4.256 4.934-8.196 8.222-11.257 2.076-1.934 3.737-3.232 4.26-3.33.88-.165 2.5-.735 5.956-2.094 4.786-1.884 6.22-2.215 9.16-2.12.95.03.97.065 1.102 1.846l.09 1.225-.574-.335c-.315-.185-.925-.426-1.355-.536-1.532-.393-2.89-.033-6.328 1.677-1.22.608-2.417 1.183-2.657 1.278-.892.354-4.783 3.365-5.537 4.284-.253.308-1.538 1.662-2.856 3.01-1.318 1.345-2.62 2.743-2.89 3.105-.69.918-1.27 2.12-2.482 5.156-.576 1.443-1.3 3.046-1.61 3.563-.582.972-.827 1.132-1.313.86z" fill="#78be46" fill-rule="evenodd" id="path668"/>
</svg>