<?xml version="1.0" encoding="utf-8"?>
<!-- Generator: Adobe Illustrator 21.1.0, SVG Export Plug-In . SVG Version: 6.00 Build 0)  -->
<svg version="1.1" id="Layer_1" xmlns="http://www.w3.org/2000/svg" xmlns:xlink="http://www.w3.org/1999/xlink" height="208.7" wide="203.9"
	 viewBox="0 0 203.9 208.7" enable-background="new 0 0 203.9 208.7" xml:space="preserve">
<g>
	<path fill="#F3B71A" d="M199.6,124.9c0,0-3.8,4.8-7.7,7.7l0,0c-4.5,3.3-9.1,4.4-11.7,4.8c-1.1-8.5-3.9-13.2-4-13.4l-2.3-3.8
		l-1.8,4.1c-6,13.5-18.2,23-27.3,28.6c-8.7,5.4-16.5,8.3-18.3,9l0,0c-0.3,0.1-0.4,0.1-0.4,0.2l0,0c-0.3,0.1-0.9,0.3-1.7,0.5l1,12.6
		c-11.9,3.3-22.2,3.9-23.4,3.9c-1.1-0.1-11.5-0.6-23.4-3.9l1-12.6c-0.8-0.2-1.3-0.3-1.7-0.5l0,0c0,0-0.2-0.1-0.4-0.2l0,0
		c-1.9-0.7-9.6-3.6-18.3-9c-9.1-5.6-21.3-15.1-27.3-28.6l-1.8-4.1l-2.3,3.8c-0.1,0.2-2.9,4.9-4,13.4c-2.6-0.4-7.2-1.5-11.7-4.8l0,0
		c-4-2.8-7.7-7.7-7.7-7.7c1.8,5,3.5,8.9,4.3,10.6l0,0c0,0.1,0.2,0.4,0.4,0.9c0,0,0,0,0,0l0,0c2.2,4.2,11.6,21.8,24.3,29.5l-6.6,7.2
		l-1.4,1.5l1.3,1.6c0.2,0.3,6.2,7.3,18.5,14.2c10.9,6.2,29.1,13.5,54.5,14v0h2.4c0,0,0,0,0,0c0,0,0,0,0,0h2.4v0
		c25.4-0.4,43.6-7.8,54.5-14c12.3-7,18.2-13.9,18.5-14.2l1.3-1.6l-1.4-1.5l-6.6-7.2c12.7-7.6,22.1-25.2,24.3-29.5l0,0c0,0,0,0,0,0
		c0.2-0.5,0.4-0.8,0.4-0.9l0,0C196.1,133.7,197.8,129.9,199.6,124.9z"/>
	<path fill="#0C562E" d="M192.6,134.9c-0.1,0.1-0.2,0.1-0.2,0.2c-0.2,0.1-0.3,0.2-0.5,0.3c-0.1,0.1-0.2,0.1-0.3,0.2
		c-0.1,0.1-0.3,0.2-0.4,0.3c-0.1,0.1-0.2,0.1-0.3,0.2c-0.1,0.1-0.3,0.2-0.4,0.2c-0.1,0.1-0.2,0.1-0.3,0.2c-0.1,0.1-0.3,0.1-0.4,0.2
		c-0.1,0.1-0.2,0.1-0.3,0.2c-0.1,0.1-0.2,0.1-0.4,0.2c-0.1,0.1-0.2,0.1-0.3,0.2c-0.1,0.1-0.2,0.1-0.4,0.2c-0.1,0-0.2,0.1-0.3,0.1
		c-0.1,0.1-0.2,0.1-0.4,0.2c-0.1,0-0.2,0.1-0.3,0.1c-0.1,0-0.2,0.1-0.3,0.1c-0.1,0-0.2,0.1-0.3,0.1c-0.1,0-0.2,0.1-0.3,0.1
		c-0.1,0-0.2,0.1-0.3,0.1c-0.1,0-0.2,0.1-0.3,0.1c-0.1,0-0.2,0.1-0.3,0.1c-0.1,0-0.2,0.1-0.3,0.1c-0.1,0-0.2,0.1-0.3,0.1
		c-0.1,0-0.2,0.1-0.3,0.1c-0.1,0-0.2,0.1-0.3,0.1c-0.1,0-0.2,0.1-0.3,0.1c-0.1,0-0.2,0.1-0.3,0.1c-0.1,0-0.2,0.1-0.3,0.1
		c-0.1,0-0.2,0-0.3,0.1c-0.1,0-0.2,0-0.3,0.1c-0.1,0-0.2,0-0.3,0.1c-0.1,0-0.2,0-0.3,0.1c-0.1,0-0.2,0-0.3,0.1s-0.2,0-0.2,0
		c-0.1,0-0.2,0-0.2,0c-0.1,0-0.2,0-0.2,0c-0.1,0-0.2,0-0.2,0c-0.1,0-0.1,0-0.2,0c-0.1,0-0.1,0-0.2,0c-0.1,0-0.1,0-0.2,0
		c-0.1,0-0.1,0-0.2,0c-0.1,0-0.1,0-0.2,0c-0.1,0-0.1,0-0.2,0c-0.1,0-0.1,0-0.2,0c-0.1,0-0.1,0-0.2,0c0,0-0.1,0-0.1,0
		c-0.1,0-0.1,0-0.2,0c0,0-0.1,0-0.1,0c-0.1,0-0.1,0-0.2,0c0,0,0,0-0.1,0c-0.6,0-0.9,0-0.9,0c-0.8-9.6-3.9-14.7-3.9-14.7
		c-12.2,27.2-47.5,39-47.5,39c0.5,0,0.9,0,1.4,0c0.2,0,0.5,0,0.7,0c0.3,0,0.5,0,0.8,0c0.2,0,0.5,0,0.7,0c0.3,0,0.5,0,0.8,0
		c0.2,0,0.5,0,0.7,0c0.3,0,0.5,0,0.8,0c0.2,0,0.5,0,0.7,0c0.2,0,0.5,0,0.7,0c0.2,0,0.5,0,0.7,0c0.2,0,0.5,0,0.7,0c0.2,0,0.4,0,0.7,0
		c0.2,0,0.5,0,0.7-0.1c0.2,0,0.4,0,0.6-0.1c0.2,0,0.5,0,0.7-0.1c0.2,0,0.4,0,0.6-0.1c0.2,0,0.4,0,0.7-0.1c0.2,0,0.4,0,0.6-0.1
		c0.2,0,0.4,0,0.6-0.1c0.2,0,0.4,0,0.6-0.1c0.2,0,0.4,0,0.6-0.1c0.2,0,0.4,0,0.6-0.1c0.2,0,0.4-0.1,0.6-0.1c0.2,0,0.4-0.1,0.6-0.1
		c0.2,0,0.4-0.1,0.6-0.1c0.2,0,0.4-0.1,0.6-0.1c0.2,0,0.4-0.1,0.6-0.1c0.2,0,0.4-0.1,0.5-0.1c0.2,0,0.4-0.1,0.5-0.1
		c0.2,0,0.3-0.1,0.5-0.1c0.2,0,0.3-0.1,0.5-0.1c0.2,0,0.3-0.1,0.5-0.1c0.2,0,0.3-0.1,0.5-0.1c0.2,0,0.3-0.1,0.5-0.1
		c0.2,0,0.3-0.1,0.5-0.1c0.2,0,0.3-0.1,0.4-0.1c0.2,0,0.3-0.1,0.4-0.1c0.1,0,0.3-0.1,0.4-0.1c0.1,0,0.3-0.1,0.4-0.1
		c0.1,0,0.3-0.1,0.4-0.1c0.1,0,0.3-0.1,0.4-0.1c0.1,0,0.2-0.1,0.4-0.1c0.1,0,0.2-0.1,0.4-0.1c0.1,0,0.2-0.1,0.3-0.1
		c0.1,0,0.2,0,0.3-0.1c0.1,0,0.2,0,0.3-0.1c0.1,0,0.2,0,0.3-0.1c0.1,0,0.2,0,0.3-0.1c0.1,0,0.2,0,0.3-0.1c0.1,0,0.2,0,0.2-0.1
		c0.1,0,0.2,0,0.2-0.1c0.1,0,0.2,0,0.2-0.1c0.1,0,0.1,0,0.2-0.1c0.1,0,0.1,0,0.2,0c0.1,0,0.1,0,0.2,0c0,0,0.1,0,0.1,0
		c0.1,0,0.1,0,0.2,0c0,0,0.1,0,0.1,0c0,0,0.1,0,0.1,0c0,0,0.1,0,0.1,0c0.1,0,0.1,0,0.1,0c-17.5,19.1-53.7,20.7-54.5,20.7
		c-0.8,0-36.9-1.6-54.5-20.7c0,0,0.1,0,0.1,0c0,0,0.1,0,0.1,0c0,0,0.1,0,0.1,0c0,0,0.1,0,0.1,0c0.1,0,0.1,0,0.2,0c0,0,0.1,0,0.1,0
		c0.1,0,0.1,0,0.2,0c0.1,0,0.1,0,0.2,0c0.1,0,0.1,0,0.2,0.1c0.1,0,0.1,0,0.2,0.1c0.1,0,0.2,0,0.2,0.1c0.1,0,0.2,0,0.2,0.1
		c0.1,0,0.2,0,0.3,0.1c0.1,0,0.2,0,0.3,0.1c0.1,0,0.2,0,0.3,0.1c0.1,0,0.2,0,0.3,0.1c0.1,0,0.2,0,0.3,0.1c0.1,0,0.2,0,0.3,0.1
		c0.1,0,0.2,0.1,0.4,0.1c0.1,0,0.2,0.1,0.4,0.1c0.1,0,0.3,0.1,0.4,0.1c0.1,0,0.3,0.1,0.4,0.1c0.1,0,0.3,0.1,0.4,0.1
		c0.1,0,0.3,0.1,0.4,0.1c0.1,0,0.3,0.1,0.4,0.1c0.1,0,0.3,0.1,0.4,0.1c0.2,0,0.3,0.1,0.5,0.1c0.2,0,0.3,0.1,0.5,0.1
		c0.2,0,0.3,0.1,0.5,0.1c0.2,0,0.3,0.1,0.5,0.1c0.2,0,0.3,0.1,0.5,0.1c0.2,0,0.3,0.1,0.5,0.1c0.2,0,0.4,0.1,0.5,0.1
		c0.2,0,0.4,0.1,0.5,0.1c0.2,0,0.4,0.1,0.6,0.1c0.2,0,0.4,0.1,0.6,0.1c0.2,0,0.4,0.1,0.6,0.1c0.2,0,0.4,0.1,0.6,0.1
		c0.2,0,0.4,0.1,0.6,0.1c0.2,0,0.4,0,0.6,0.1c0.2,0,0.4,0,0.6,0.1c0.2,0,0.4,0,0.6,0.1c0.2,0,0.4,0,0.6,0.1c0.2,0,0.4,0,0.6,0.1
		c0.2,0,0.4,0,0.7,0.1c0.2,0,0.4,0,0.6,0.1c0.2,0,0.5,0,0.7,0.1c0.2,0,0.4,0,0.6,0.1c0.2,0,0.5,0,0.7,0.1c0.2,0,0.4,0,0.7,0
		c0.2,0,0.5,0,0.7,0c0.2,0,0.4,0,0.7,0c0.2,0,0.5,0,0.7,0c0.2,0,0.4,0,0.7,0c0.3,0,0.5,0,0.8,0c0.2,0,0.5,0,0.7,0c0.3,0,0.5,0,0.8,0
		c0.2,0,0.5,0,0.7,0c0.3,0,0.5,0,0.8,0c0.2,0,0.5,0,0.7,0c0.5,0,0.9,0,1.4,0c0,0-35.3-11.8-47.5-39c0,0-3.2,5.1-3.9,14.7
		c0,0-0.3,0-0.9,0c0,0,0,0-0.1,0c-0.1,0-0.1,0-0.2,0c0,0-0.1,0-0.1,0c-0.1,0-0.1,0-0.2,0c0,0-0.1,0-0.1,0c-0.1,0-0.1,0-0.2,0
		c-0.1,0-0.1,0-0.2,0c-0.1,0-0.1,0-0.2,0c-0.1,0-0.1,0-0.2,0c-0.1,0-0.1,0-0.2,0c-0.1,0-0.1,0-0.2,0c-0.1,0-0.1,0-0.2,0
		c-0.1,0-0.1,0-0.2,0c-0.1,0-0.2,0-0.2,0c-0.1,0-0.2,0-0.2,0c-0.1,0-0.2,0-0.2,0c-0.1,0-0.2,0-0.2,0c-0.1,0-0.2,0-0.3-0.1
		c-0.1,0-0.2,0-0.3-0.1c-0.1,0-0.2,0-0.3-0.1c-0.1,0-0.2,0-0.3-0.1c-0.1,0-0.2,0-0.3-0.1c-0.1,0-0.2,0-0.3-0.1c-0.1,0-0.2,0-0.3-0.1
		c-0.1,0-0.2-0.1-0.3-0.1c-0.1,0-0.2-0.1-0.3-0.1c-0.1,0-0.2-0.1-0.3-0.1c-0.1,0-0.2-0.1-0.3-0.1c-0.1,0-0.2-0.1-0.3-0.1
		c-0.1,0-0.2-0.1-0.3-0.1c-0.1,0-0.2-0.1-0.3-0.1c-0.1,0-0.2-0.1-0.3-0.1c-0.1,0-0.2-0.1-0.3-0.1c-0.1,0-0.2-0.1-0.3-0.1
		c-0.1,0-0.2-0.1-0.3-0.1c-0.1,0-0.2-0.1-0.3-0.1c-0.1-0.1-0.2-0.1-0.4-0.2c-0.1,0-0.2-0.1-0.3-0.1c-0.1-0.1-0.2-0.1-0.4-0.2
		c-0.1,0-0.2-0.1-0.3-0.2c-0.1-0.1-0.2-0.1-0.4-0.2c-0.1-0.1-0.2-0.1-0.3-0.2c-0.1-0.1-0.3-0.1-0.4-0.2c-0.1-0.1-0.2-0.1-0.3-0.2
		c-0.1-0.1-0.3-0.2-0.4-0.2c-0.1-0.1-0.2-0.1-0.3-0.2c-0.1-0.1-0.3-0.2-0.4-0.3c-0.1-0.1-0.2-0.1-0.3-0.2c-0.2-0.1-0.3-0.2-0.5-0.3
		c-0.1-0.1-0.2-0.1-0.2-0.2c-0.2-0.2-0.5-0.3-0.7-0.5c0,0,0,0.1,0.1,0.2c0,0,0,0,0,0c0,0.1,0.1,0.2,0.1,0.3c0,0,0,0,0,0
		c0.1,0.1,0.1,0.2,0.2,0.4c0,0,0,0,0,0.1c0.1,0.1,0.1,0.3,0.2,0.5c0,0,0,0,0,0c0.1,0.2,0.2,0.4,0.3,0.6c0,0,0,0,0,0.1
		c0.1,0.2,0.2,0.4,0.3,0.6c0,0,0,0,0,0c0.1,0.2,0.3,0.5,0.4,0.7c0,0,0,0,0,0c0.7,1.3,1.7,3,2.8,4.8c0,0,0,0,0,0
		c0.2,0.4,0.5,0.7,0.7,1.1c0,0,0,0,0,0c0.2,0.4,0.5,0.7,0.7,1.1c0,0,0,0,0,0c0.2,0.4,0.5,0.8,0.8,1.1c0,0,0,0,0,0
		c0.3,0.4,0.5,0.8,0.8,1.2c0,0,0,0,0,0c1.7,2.4,3.6,5,5.8,7.4c0,0,0,0,0,0c0.3,0.4,0.7,0.8,1.1,1.2c0,0,0,0,0,0
		c0.4,0.4,0.7,0.8,1.1,1.1c0,0,0,0,0,0c0.4,0.4,0.7,0.7,1.1,1.1c0,0,0,0,0,0c0.4,0.4,0.7,0.7,1.1,1.1c0,0,0,0,0,0
		c0.4,0.3,0.8,0.7,1.2,1c0,0,0,0,0,0c1.6,1.4,3.3,2.6,5,3.6l0,0l7.6-5l-5.5,6.1c0,0,0,0,0,0l-2.2,2.4l0,0l-6.5,7
		c0,0,23,27.4,73.6,27.4c0,0,0,0,0,0c0,0,0,0,0,0c50.5,0,73.6-27.4,73.6-27.4l-6.5-7l0,0l-2.2-2.4c0,0,0,0,0,0l-5.5-6.1l7.6,5l0,0
		c1.7-1,3.4-2.2,5-3.6c0,0,0,0,0,0c0.4-0.3,0.8-0.7,1.2-1c0,0,0,0,0,0c0.4-0.3,0.8-0.7,1.1-1.1c0,0,0,0,0,0c0.4-0.4,0.7-0.7,1.1-1.1
		c0,0,0,0,0,0c0.4-0.4,0.7-0.7,1.1-1.1c0,0,0,0,0,0c0.4-0.4,0.7-0.8,1.1-1.2c0,0,0,0,0,0c2.1-2.4,4.1-4.9,5.8-7.4c0,0,0,0,0,0
		c0.3-0.4,0.5-0.8,0.8-1.2c0,0,0,0,0,0c0.3-0.4,0.5-0.8,0.8-1.1c0,0,0,0,0,0c0.2-0.4,0.5-0.8,0.7-1.1c0,0,0,0,0,0
		c0.2-0.4,0.5-0.7,0.7-1.1c0,0,0,0,0,0c1.1-1.8,2.1-3.5,2.8-4.8c0,0,0,0,0,0c0.1-0.3,0.3-0.5,0.4-0.7c0,0,0,0,0,0
		c0.1-0.2,0.2-0.4,0.3-0.6c0,0,0,0,0-0.1c0.1-0.2,0.2-0.4,0.3-0.6c0,0,0,0,0,0c0.1-0.2,0.2-0.3,0.2-0.5c0,0,0,0,0-0.1
		c0.1-0.1,0.1-0.3,0.2-0.4c0,0,0,0,0,0c0.1-0.1,0.1-0.2,0.1-0.3c0,0,0,0,0,0c0.1-0.1,0.1-0.2,0.1-0.2
		C193,134.6,192.8,134.8,192.6,134.9z"/>
	<path fill="#0C562E" d="M32.3,4.4v47.9v0.2v1.8v1.8h0c0.2,10.2,1.3,19.7,3.4,28.8c3,13.4,8.1,25.8,15.2,36.9
		c11.3,17.8,24.3,30.6,33.3,38.2c9.7,8.3,16.6,12.3,16.9,12.4l0.9,0.5l0.9-0.5c0.3-0.2,7.2-4.2,16.9-12.4
		c8.9-7.6,21.9-20.4,33.3-38.2c7-11.1,12.2-23.5,15.2-36.9c2.1-9.1,3.2-18.5,3.4-28.8h0l0-1.8v-1.8v-0.2V4.4H32.3z"/>
	<polygon fill="#F3B71A" points="169.8,6.1 169.8,54.3 169.8,54.3 146.6,54.3 146.6,41.9 121.6,41.9 121.6,28.8 82.2,28.8 
		82.2,41.9 57.3,41.9 57.3,54.3 34.1,54.3 34,54.3 34,6.1 	"/>
	<g>
		<path fill="#F3B71A" d="M96.5,139.8c0,0-0.4-15.4-9.8-18.4c-9.4-3.1-21.7-1-25.4-14.5c0,0-3.8,14.4,1.9,21.4
			C68.9,135.3,84.1,131.1,96.5,139.8z"/>
		<path fill="#F3B71A" d="M107.4,139.8c0,0,0.4-15.4,9.8-18.4c9.4-3.1,21.7-1,25.4-14.5c0,0,3.8,14.4-1.9,21.4
			C134.9,135.3,119.8,131.1,107.4,139.8z"/>
		<path fill="#F3B71A" d="M106.1,153.5c-2.4-1.7-3-6.4-3-6.4s0-28,0-28.9s-1.2-0.9-1.2-0.9s-1.2,0-1.2,0.9s0,28.9,0,28.9
			s-0.5,4.6-3,6.4c0,0,0.6,1.1,2.8,1.8c0,0-0.2,1.8,1.4,3.5c1.6-1.7,1.4-3.5,1.4-3.5C105.5,154.7,106.1,153.5,106.1,153.5z"/>
		<path fill="#F3B71A" d="M90.2,112.2c0,0-16.2-4.2-21.2-17.2c-5-13-3.8-18.8-5.1-22.4c-1.3-3.5-2.6-6.8-2.6-6.8s11.1,5.6,12,11.3
			c0.9,5.7,0.4,12.9,3.7,19.3C80.5,102.9,85.8,108.7,90.2,112.2z"/>
		<path fill="#F3B71A" d="M95.6,112.8c0,0-12-5.5-17.2-18c-5.2-12.5-1.3-20.7-4.4-26c0,0,6.7,3.4,8.7,6.9S83.8,85.4,84,89
			C84.2,92.7,87,105.6,95.6,112.8z"/>
		<path fill="#F3B71A" d="M97.8,111.2c0,0-7.8-5.6-10.8-15.1c-3.6-11.3,1.3-21.2-1.5-28.2c0,0,7.9,3,7.4,12.1
			C92.4,89.2,91,97.9,97.8,111.2z"/>
		<path fill="#F3B71A" d="M113.7,112.2c0,0,16.2-4.2,21.2-17.2c5-13,3.8-18.8,5.1-22.4c1.3-3.5,2.6-6.8,2.6-6.8s-11.1,5.6-12,11.3
			c-0.9,5.7-0.4,12.9-3.7,19.3C123.4,102.9,118.1,108.7,113.7,112.2z"/>
		<path fill="#F3B71A" d="M108.3,112.8c0,0,12-5.5,17.2-18c5.2-12.5,1.3-20.7,4.4-26c0,0-6.7,3.4-8.7,6.9c-2,3.4-1.2,9.7-1.4,13.4
			C119.7,92.7,116.9,105.6,108.3,112.8z"/>
		<path fill="#F3B71A" d="M106.1,111.2c0,0,7.8-5.6,10.8-15.1c3.6-11.3-1.3-21.2,1.5-28.2c0,0-7.9,3-7.4,12.1
			C111.5,89.2,112.9,97.9,106.1,111.2z"/>
		<path fill="#F3B71A" d="M101.9,66.5c-18.3,20.7,0,46.8,0,46.8S120.2,87.2,101.9,66.5z"/>
		<g>
			<path fill="#FFFFFF" d="M74.2,75.7c-0.1-2.5-0.3-4.5-1.2-6.2c-0.5,1-0.9,1.8-1.1,2.6C72.9,73.2,73.7,74.4,74.2,75.7z"/>
			<path fill="#FFFFFF" d="M132,72.1c-0.2-0.8-0.6-1.6-1.1-2.6c-0.9,1.6-1.1,3.7-1.2,6.2C130.2,74.4,131,73.2,132,72.1z"/>
			<path fill="#FFFFFF" d="M74.5,67.8c0.3,0.1,7,3.7,9.2,7.4c0.6,1.1,1,2.3,1.2,3.6c0.4-4,0.7-7.5-0.5-10.4
				c-0.2-0.4-0.1-0.9,0.3-1.3c0.2-0.2,0.5-0.4,0.8-0.4c0.1,0,0.3,0,0.4,0.1c0.1,0,7.6,2.9,8.1,11.4c1.4-4.5,3.7-8.7,7-12.5
				c0.2-0.3,0.5-0.4,0.9-0.4c0.3,0,0.7,0.1,0.9,0.4c3.3,3.8,5.7,7.9,7,12.5c0.6-8.4,8.1-11.3,8.1-11.4c0.1-0.1,0.3-0.1,0.4-0.1
				c0.3,0,0.6,0.1,0.8,0.4c0.3,0.3,0.4,0.8,0.3,1.3c-1.1,2.9-0.8,6.4-0.5,10.4c0.2-1.3,0.6-2.6,1.2-3.6c2.1-3.7,8.9-7.2,9.2-7.4
				c0.1-0.1,0.3-0.1,0.4-0.1c-1.5-2.2-3.8-4.8-7.3-7.7c-11.5-9.4-14.2-12.1-17.5-11.6c-2.2,0.3-3,2.3-3,2.3s-0.8-2-3-2.3
				c-3.3-0.5-6,2.2-17.5,11.6c-3.5,2.9-5.8,5.5-7.3,7.7C74.2,67.7,74.4,67.7,74.5,67.8z"/>
		</g>
	</g>
	<g>
		<path fill="#FFFFFF" d="M49.4,180.4c0.9,0.4,1.8,0.7,2.7,1.1c-0.2,0.8-0.2,1.5,0.1,2.1c0.3,0.6,0.9,1.1,1.7,1.5
			c0.9,0.4,1.6,0.5,2.2,0.4c0.6-0.1,1-0.4,1.2-0.8c0.1-0.3,0.1-0.6,0-0.8c-0.1-0.3-0.3-0.6-0.7-0.9c-0.3-0.2-0.9-0.7-1.9-1.5
			c-1.3-1-2-1.8-2.4-2.6c-0.5-1-0.4-2,0-2.9c0.3-0.6,0.8-1,1.4-1.3c0.6-0.3,1.3-0.4,2.1-0.4c0.8,0.1,1.6,0.3,2.6,0.7
			c1.5,0.7,2.5,1.5,3.1,2.5c0.5,1,0.6,2,0.2,3.1c-0.9-0.3-1.8-0.6-2.6-1c0.2-0.6,0.1-1.2-0.1-1.6c-0.2-0.4-0.7-0.8-1.4-1.1
			c-0.7-0.3-1.4-0.5-1.9-0.4c-0.4,0-0.6,0.2-0.7,0.5c-0.1,0.3-0.1,0.6,0,0.9c0.2,0.4,0.9,1,2,1.9c1.1,0.8,2,1.5,2.4,2.1
			c0.5,0.6,0.8,1.1,1,1.8c0.1,0.6,0.1,1.3-0.2,2.1c-0.3,0.7-0.7,1.2-1.4,1.6c-0.7,0.4-1.5,0.6-2.4,0.5c-0.9-0.1-2-0.4-3.2-0.9
			c-1.7-0.8-2.9-1.8-3.5-2.9C48.9,183,48.9,181.7,49.4,180.4z"/>
		<path fill="#FFFFFF" d="M72.6,193.9c-1.1-0.3-2.1-0.6-3.2-0.9c-0.1-1-0.3-2.1-0.4-3.1c-1.9-0.6-3.7-1.2-5.5-1.8
			c-0.7,0.8-1.4,1.5-2.1,2.3c-1-0.4-2-0.8-3-1.2c3.4-3.2,6.6-6.5,9.6-10c0.9,0.3,1.8,0.6,2.7,0.9C71.1,184.6,71.8,189.2,72.6,193.9z
			 M68.8,187.5c-0.2-1.7-0.3-3.4-0.4-5.1c-1.1,1.3-2.2,2.6-3.3,3.9C66.3,186.7,67.5,187.1,68.8,187.5z"/>
		<path fill="#FFFFFF" d="M86.6,191.9c0.9,0.4,1.8,0.8,2.7,1.1c-0.6,1.3-1.4,2.3-2.5,2.8c-1.1,0.5-2.5,0.7-4,0.4
			c-1.9-0.3-3.4-1.2-4.4-2.6c-1-1.4-1.2-3.1-0.8-5c0.5-2.1,1.4-3.5,2.8-4.4c1.4-0.9,2.9-1.2,4.8-0.9c1.6,0.3,2.8,0.9,3.7,1.9
			c0.5,0.6,0.9,1.4,1.1,2.5c-0.9,0.1-1.9,0.2-2.8,0.3c-0.1-0.7-0.3-1.2-0.8-1.7c-0.4-0.5-1-0.7-1.7-0.9c-1-0.2-1.8,0-2.6,0.6
			c-0.7,0.5-1.3,1.6-1.6,3c-0.3,1.6-0.2,2.8,0.3,3.6c0.5,0.8,1.3,1.3,2.3,1.5c0.8,0.1,1.5,0,2.1-0.3
			C85.7,193.4,86.2,192.8,86.6,191.9z"/>
		<path fill="#FFFFFF" d="M90.1,197c0.4-4.2,0.9-8.4,1.3-12.7c1.9,0.2,3.7,0.3,5.6,0.4c1.4,0.1,2.4,0.2,3.1,0.5
			c0.6,0.2,1.1,0.7,1.5,1.2c0.4,0.6,0.6,1.3,0.6,2c0,1-0.3,1.7-0.9,2.4c-0.6,0.6-1.6,1-2.8,1.1c0.6,0.3,1.1,0.7,1.5,1.1
			c0.4,0.4,0.9,1.1,1.6,2.1c0.6,0.8,1.2,1.7,1.8,2.5c-1.2,0-2.4,0-3.6,0c-0.7-0.9-1.4-1.9-2-2.8c-0.7-1-1.2-1.7-1.4-1.9
			c-0.3-0.3-0.5-0.5-0.8-0.6c-0.3-0.1-0.8-0.2-1.4-0.2c-0.2,0-0.4,0-0.6,0c-0.1,1.8-0.3,3.5-0.4,5.3C92.1,197.2,91.1,197.1,90.1,197
			z M93.7,190c0.7,0.1,1.4,0.1,2.1,0.1c1.3,0.1,2.2,0.1,2.5,0c0.3-0.1,0.6-0.3,0.8-0.5c0.2-0.3,0.3-0.6,0.3-0.9c0-0.4-0.1-0.8-0.3-1
			c-0.2-0.3-0.6-0.4-1-0.5c-0.2,0-0.9-0.1-2-0.1c-0.7,0-1.4-0.1-2.1-0.1C93.8,187.8,93.7,188.9,93.7,190z"/>
		<path fill="#FFFFFF" d="M103.6,197.7c-0.1-4.2-0.1-8.5-0.2-12.7c0.9,0,1.8,0,2.7-0.1c0.2,4.2,0.3,8.5,0.5,12.7
			C105.6,197.6,104.6,197.6,103.6,197.7z"/>
		<path fill="#FFFFFF" d="M117,192c1,0.1,1.9,0.3,2.9,0.4c-0.2,1.4-0.8,2.6-1.7,3.4c-0.9,0.8-2.2,1.3-3.8,1.5
			c-2,0.2-3.6-0.3-4.9-1.3c-1.3-1.1-2-2.6-2.1-4.6c-0.1-2.1,0.4-3.8,1.5-5c1.1-1.2,2.5-1.9,4.3-2.1c1.6-0.2,2.9,0.1,4.1,0.9
			c0.7,0.5,1.2,1.2,1.7,2.1c-0.9,0.3-1.7,0.7-2.6,1c-0.2-0.6-0.6-1.1-1.2-1.4c-0.5-0.3-1.2-0.4-1.9-0.4c-1,0.1-1.8,0.5-2.3,1.2
			c-0.6,0.7-0.8,1.8-0.7,3.4c0.1,1.6,0.5,2.7,1.2,3.4c0.7,0.6,1.6,0.9,2.6,0.8c0.8-0.1,1.4-0.4,1.9-0.9
			C116.6,193.7,116.9,193,117,192z"/>
		<path fill="#FFFFFF" d="M121.9,196c-0.7-4.2-1.4-8.4-2.1-12.6c0.9-0.1,1.8-0.3,2.6-0.5c0.4,1.9,0.7,3.7,1.1,5.6
			c1.5-2.2,2.9-4.5,4.2-6.7c1.2-0.3,2.3-0.6,3.5-0.9c-1.1,2.1-2.4,4.1-3.7,6.1c2.4,2.1,4.9,4.1,7.5,6.1c-1.2,0.4-2.5,0.7-3.8,1
			c-1.8-1.6-3.6-3.2-5.2-4.9c-0.6,0.9-1.2,1.7-1.8,2.6c0.2,1.3,0.5,2.5,0.7,3.8C123.8,195.7,122.8,195.8,121.9,196z"/>
		<path fill="#FFFFFF" d="M135.2,192.9c-1.2-4.1-2.4-8.1-3.6-12.2c3.2-0.9,6.3-2,9.3-3.2c0.3,0.7,0.5,1.3,0.8,2
			c-2.3,0.9-4.6,1.7-6.9,2.5c0.3,0.9,0.6,1.8,0.9,2.7c2.2-0.7,4.4-1.5,6.6-2.4c0.3,0.7,0.5,1.3,0.8,2c-2.2,0.9-4.5,1.7-6.7,2.4
			c0.4,1.1,0.7,2.2,1.1,3.3c2.6-0.8,5.2-1.8,7.7-2.8c0.3,0.7,0.5,1.3,0.8,2C142.4,190.6,138.8,191.9,135.2,192.9z"/>
		<path fill="#FFFFFF" d="M150.3,187.4c-1.4-3.2-2.9-6.4-4.3-9.7c-1.2,0.6-2.5,1.1-3.7,1.6c-0.3-0.7-0.5-1.3-0.8-2
			c3.3-1.3,6.5-2.8,9.7-4.5c0.3,0.6,0.7,1.3,1,1.9c-1.2,0.6-2.4,1.3-3.6,1.8c1.5,3.2,3.1,6.4,4.6,9.5
			C152.1,186.5,151.2,186.9,150.3,187.4z"/>
	</g>
</g>
</svg>
